<svg xmlns="http://www.w3.org/2000/svg" viewBox="0 0 1080 1080"><title>ico-import-beneficiaries</title><path d="M843,149H248a1.1,1.1,0,0,0-1,1V919a1.1,1.1,0,0,0,1,1H388.3a168.5,168.5,0,1,1,320.4,0H843a1.1,1.1,0,0,0,1-1V150A1.1,1.1,0,0,0,843,149ZM436.3,523.5v86.3H346.5V525.6c0-64.1,47.6-117.6,109.2-127a73,73,0,1,1,53.8-134.8A100.8,100.8,0,0,0,524.3,382l-25.7,17.4C461.4,424.1,436.3,470.5,436.3,523.5Zm333.1,89.7H488.1V533.3c0-70.3,52.1-128.9,119.5-139.1a80,80,0,1,1,42.2,0c67.4,10.2,119.6,68.8,119.6,139.1Z"/><path d="M571,920V838.7L598.7,871h0a22.5,22.5,0,1,0,34.1-29.5l-67.4-78.6c-.8-.9-1.6-1.6-2.4-2.4a22.5,22.5,0,0,0-31.7,2.4l-67.4,78.6A22.5,22.5,0,1,0,498,871l28-32.6V920Z"/></svg>