<svg xmlns="http://www.w3.org/2000/svg" viewBox="0 0 1080 1080"><defs><style>.a{fill:none;}.b{fill:#111;}</style></defs><title>ico-mine action</title><path class="a" d="M415.3,378.3c-80.4,80.5-80.4,210.9,0,291.4s210.9,80.4,291.4,0,80.4-210.9,0-291.4S495.8,297.9,415.3,378.3ZM667.1,630.1a150,150,0,1,1,0-212.2A150.2,150.2,0,0,1,667.1,630.1Z"/><path class="b" d="M854.3,668.8A328,328,0,0,0,851.7,374l38.1-38.1a12,12,0,0,0,0-17L753.3,182.5a11.9,11.9,0,0,0-16.9,0l-42.7,42.6a327.8,327.8,0,0,0-277.5,5.6L368,182.5a12,12,0,0,0-17,0L214.5,318.9a12.2,12.2,0,0,0,0,17l50,50a328,328,0,0,0-2.4,270.8l-47.6,47.6a12.2,12.2,0,0,0,0,17L351,857.8a12.2,12.2,0,0,0,17,0l43-43.1a328,328,0,0,0,288.1,5.8l37.3,37.3a12.1,12.1,0,0,0,16.9,0L889.8,721.3a12,12,0,0,0,0-17Zm-147.6.9c-80.5,80.4-210.9,80.4-291.4,0s-80.4-210.9,0-291.4,210.9-80.4,291.4,0S787.1,589.2,706.7,669.7Z"/><circle class="b" cx="561" cy="524" r="150"/></svg>