<?xml version="1.0" encoding="UTF-8" standalone="no"?><svg xmlns="http://www.w3.org/2000/svg" xmlns:xlink="http://www.w3.org/1999/xlink" contentScriptType="application/ecmascript" contentStyleType="text/css" height="737px" preserveAspectRatio="none" style="width:1473px;height:737px;" version="1.1" viewBox="0 0 1473 737" width="1473px" zoomAndPan="magnify"><defs><filter height="300%" id="f199qm67oqex8f" width="300%" x="-1" y="-1"><feGaussianBlur result="blurOut" stdDeviation="2.0"/><feColorMatrix in="blurOut" result="blurOut2" type="matrix" values="0 0 0 0 0 0 0 0 0 0 0 0 0 0 0 0 0 0 .4 0"/><feOffset dx="4.0" dy="4.0" in="blurOut2" result="blurOut3"/><feBlend in="SourceGraphic" in2="blurOut3" mode="normal"/></filter></defs><g><!--class Beneficiary--><rect fill="#FEFECE" filter="url(#f199qm67oqex8f)" height="304.0938" id="Beneficiary" style="stroke: #A80036; stroke-width: 1.5;" width="125" x="665.5" y="314"/><ellipse cx="691.75" cy="330" fill="#ADD1B2" rx="11" ry="11" style="stroke: #A80036; stroke-width: 1.0;"/><path d="M694.0938,325.6719 L694.2656,325.75 C694.4844,325.4375 694.6875,325.3438 694.9844,325.3438 C695.2813,325.3438 695.5625,325.4844 695.7188,325.75 C695.8125,325.9063 695.8281,326.0313 695.8281,326.4688 L695.8281,327.8906 C695.8281,328.3125 695.7969,328.5 695.6875,328.6563 C695.5156,328.875 695.25,329.0156 694.9844,329.0156 C694.7656,329.0156 694.5313,328.9063 694.3906,328.7656 C694.25,328.6406 694.2188,328.5156 694.1563,328.1094 C694.0625,327.7031 693.8906,327.4844 693.4063,327.2031 C692.9375,326.9531 692.3281,326.7969 691.75,326.7969 C690.0156,326.7969 688.7656,328.1094 688.7656,329.8906 L688.7656,330.9844 C688.7656,332.6875 690.0625,333.7813 692.1094,333.7813 C692.875,333.7813 693.5625,333.6563 693.9844,333.3906 C694.1719,333.2969 694.1719,333.2969 694.625,332.8125 C694.8125,332.625 695.0156,332.5469 695.2344,332.5469 C695.7031,332.5469 696.0938,332.9375 696.0938,333.3906 C696.0938,333.7813 695.7656,334.2344 695.1875,334.6406 C694.4375,335.1875 693.2813,335.4844 692.0625,335.4844 C689.1719,335.4844 687.0625,333.5938 687.0625,331.0156 L687.0625,329.8906 C687.0625,327.1719 689.0625,325.0938 691.6875,325.0938 C692.5625,325.0938 693.1563,325.2344 694.0938,325.6719 Z "/><text fill="#000000" font-family="sans-serif" font-size="12" lengthAdjust="spacingAndGlyphs" textLength="68" x="708.25" y="334.1543">Beneficiary</text><line style="stroke: #A80036; stroke-width: 1.5;" x1="666.5" x2="789.5" y1="346" y2="346"/><rect fill="none" height="6" style="stroke: #C82930; stroke-width: 1.0;" width="6" x="673.5" y="354.9023"/><text fill="#000000" font-family="sans-serif" font-size="11" lengthAdjust="spacingAndGlyphs" textLength="10" x="685.5" y="360.2104">id</text><rect fill="none" height="6" style="stroke: #C82930; stroke-width: 1.0;" width="6" x="673.5" y="367.707"/><text fill="#000000" font-family="sans-serif" font-size="11" lengthAdjust="spacingAndGlyphs" textLength="91" x="685.5" y="373.0151">localGivenName</text><rect fill="none" height="6" style="stroke: #C82930; stroke-width: 1.0;" width="6" x="673.5" y="380.5117"/><text fill="#000000" font-family="sans-serif" font-size="11" lengthAdjust="spacingAndGlyphs" textLength="95" x="685.5" y="385.8198">localFamilyName</text><rect fill="none" height="6" style="stroke: #C82930; stroke-width: 1.0;" width="6" x="673.5" y="393.3164"/><text fill="#000000" font-family="sans-serif" font-size="11" lengthAdjust="spacingAndGlyphs" textLength="79" x="685.5" y="398.6245">enGivenName</text><rect fill="none" height="6" style="stroke: #C82930; stroke-width: 1.0;" width="6" x="673.5" y="406.1211"/><text fill="#000000" font-family="sans-serif" font-size="11" lengthAdjust="spacingAndGlyphs" textLength="83" x="685.5" y="411.4292">enFamilyName</text><rect fill="none" height="6" style="stroke: #C82930; stroke-width: 1.0;" width="6" x="673.5" y="418.9258"/><text fill="#000000" font-family="sans-serif" font-size="11" lengthAdjust="spacingAndGlyphs" textLength="40" x="685.5" y="424.2339">gender</text><rect fill="none" height="6" style="stroke: #C82930; stroke-width: 1.0;" width="6" x="673.5" y="431.7305"/><text fill="#000000" font-family="sans-serif" font-size="11" lengthAdjust="spacingAndGlyphs" textLength="65" x="685.5" y="437.0386">dateOfBirth</text><rect fill="none" height="6" style="stroke: #C82930; stroke-width: 1.0;" width="6" x="673.5" y="444.5352"/><text fill="#000000" font-family="sans-serif" font-size="11" lengthAdjust="spacingAndGlyphs" textLength="92" x="685.5" y="449.8433">residencyStatus</text><rect fill="none" height="6" style="stroke: #C82930; stroke-width: 1.0;" width="6" x="673.5" y="457.3398"/><text fill="#000000" font-family="sans-serif" font-size="11" lengthAdjust="spacingAndGlyphs" textLength="99" x="685.5" y="462.6479">beneficiaryStatus</text><rect fill="none" height="6" style="stroke: #C82930; stroke-width: 1.0;" width="6" x="673.5" y="470.1445"/><text fill="#000000" font-family="sans-serif" font-size="11" lengthAdjust="spacingAndGlyphs" textLength="62" x="685.5" y="475.4526">nationalIds</text><rect fill="none" height="6" style="stroke: #C82930; stroke-width: 1.0;" width="6" x="673.5" y="482.9492"/><text fill="#000000" font-family="sans-serif" font-size="11" lengthAdjust="spacingAndGlyphs" textLength="42" x="685.5" y="488.2573">phones</text><rect fill="none" height="6" style="stroke: #C82930; stroke-width: 1.0;" width="6" x="673.5" y="495.7539"/><text fill="#000000" font-family="sans-serif" font-size="11" lengthAdjust="spacingAndGlyphs" textLength="79" x="685.5" y="501.062">vulnerabilities</text><rect fill="none" height="6" style="stroke: #C82930; stroke-width: 1.0;" width="6" x="673.5" y="508.5586"/><text fill="#000000" font-family="sans-serif" font-size="11" lengthAdjust="spacingAndGlyphs" textLength="78" x="685.5" y="513.8667">localFullName</text><rect fill="none" height="6" style="stroke: #C82930; stroke-width: 1.0;" width="6" x="673.5" y="521.3633"/><text fill="#000000" font-family="sans-serif" font-size="11" lengthAdjust="spacingAndGlyphs" textLength="36" x="685.5" y="526.6714">profile</text><rect fill="none" height="6" style="stroke: #C82930; stroke-width: 1.0;" width="6" x="673.5" y="534.168"/><text fill="#000000" font-family="sans-serif" font-size="11" lengthAdjust="spacingAndGlyphs" textLength="74" x="685.5" y="539.4761">distributionId</text><rect fill="none" height="6" style="stroke: #C82930; stroke-width: 1.0;" width="6" x="673.5" y="546.9727"/><text fill="#000000" font-family="sans-serif" font-size="11" lengthAdjust="spacingAndGlyphs" textLength="50" x="685.5" y="552.2808">removed</text><rect fill="none" height="6" style="stroke: #C82930; stroke-width: 1.0;" width="6" x="673.5" y="559.7773"/><text fill="#000000" font-family="sans-serif" font-size="11" lengthAdjust="spacingAndGlyphs" textLength="65" x="685.5" y="565.0854">justification</text><rect fill="none" height="6" style="stroke: #C82930; stroke-width: 1.0;" width="6" x="673.5" y="572.582"/><text fill="#000000" font-family="sans-serif" font-size="11" lengthAdjust="spacingAndGlyphs" textLength="66" x="685.5" y="577.8901">addReferral</text><rect fill="none" height="6" style="stroke: #C82930; stroke-width: 1.0;" width="6" x="673.5" y="585.3867"/><text fill="#000000" font-family="sans-serif" font-size="11" lengthAdjust="spacingAndGlyphs" textLength="70" x="685.5" y="590.6948">referralType</text><rect fill="none" height="6" style="stroke: #C82930; stroke-width: 1.0;" width="6" x="673.5" y="598.1914"/><text fill="#000000" font-family="sans-serif" font-size="11" lengthAdjust="spacingAndGlyphs" textLength="98" x="685.5" y="603.4995">referralComment</text><line style="stroke: #A80036; stroke-width: 1.5;" x1="666.5" x2="789.5" y1="610.0938" y2="610.0938"/><!--class Gender--><rect fill="#FEFECE" filter="url(#f199qm67oqex8f)" height="73.6094" id="Gender" style="stroke: #A80036; stroke-width: 1.5;" width="78" x="6" y="161"/><ellipse cx="21" cy="177" fill="#ADD1B2" rx="11" ry="11" style="stroke: #A80036; stroke-width: 1.0;"/><path d="M23.3438,172.6719 L23.5156,172.75 C23.7344,172.4375 23.9375,172.3438 24.2344,172.3438 C24.5313,172.3438 24.8125,172.4844 24.9688,172.75 C25.0625,172.9063 25.0781,173.0313 25.0781,173.4688 L25.0781,174.8906 C25.0781,175.3125 25.0469,175.5 24.9375,175.6563 C24.7656,175.875 24.5,176.0156 24.2344,176.0156 C24.0156,176.0156 23.7813,175.9063 23.6406,175.7656 C23.5,175.6406 23.4688,175.5156 23.4063,175.1094 C23.3125,174.7031 23.1406,174.4844 22.6563,174.2031 C22.1875,173.9531 21.5781,173.7969 21,173.7969 C19.2656,173.7969 18.0156,175.1094 18.0156,176.8906 L18.0156,177.9844 C18.0156,179.6875 19.3125,180.7813 21.3594,180.7813 C22.125,180.7813 22.8125,180.6563 23.2344,180.3906 C23.4219,180.2969 23.4219,180.2969 23.875,179.8125 C24.0625,179.625 24.2656,179.5469 24.4844,179.5469 C24.9531,179.5469 25.3438,179.9375 25.3438,180.3906 C25.3438,180.7813 25.0156,181.2344 24.4375,181.6406 C23.6875,182.1875 22.5313,182.4844 21.3125,182.4844 C18.4219,182.4844 16.3125,180.5938 16.3125,178.0156 L16.3125,176.8906 C16.3125,174.1719 18.3125,172.0938 20.9375,172.0938 C21.8125,172.0938 22.4063,172.2344 23.3438,172.6719 Z "/><text fill="#000000" font-family="sans-serif" font-size="12" lengthAdjust="spacingAndGlyphs" textLength="46" x="35" y="181.1543">Gender</text><line style="stroke: #A80036; stroke-width: 1.5;" x1="7" x2="83" y1="193" y2="193"/><rect fill="none" height="6" style="stroke: #C82930; stroke-width: 1.0;" width="6" x="14" y="201.9023"/><text fill="#000000" font-family="sans-serif" font-size="11" lengthAdjust="spacingAndGlyphs" textLength="10" x="26" y="207.2104">id</text><rect fill="none" height="6" style="stroke: #C82930; stroke-width: 1.0;" width="6" x="14" y="214.707"/><text fill="#000000" font-family="sans-serif" font-size="11" lengthAdjust="spacingAndGlyphs" textLength="32" x="26" y="220.0151">name</text><line style="stroke: #A80036; stroke-width: 1.5;" x1="7" x2="83" y1="226.6094" y2="226.6094"/><!--class ResidencyStatus--><rect fill="#FEFECE" filter="url(#f199qm67oqex8f)" height="73.6094" id="ResidencyStatus" style="stroke: #A80036; stroke-width: 1.5;" width="136" x="119" y="161"/><ellipse cx="134" cy="177" fill="#ADD1B2" rx="11" ry="11" style="stroke: #A80036; stroke-width: 1.0;"/><path d="M136.3438,172.6719 L136.5156,172.75 C136.7344,172.4375 136.9375,172.3438 137.2344,172.3438 C137.5313,172.3438 137.8125,172.4844 137.9688,172.75 C138.0625,172.9063 138.0781,173.0313 138.0781,173.4688 L138.0781,174.8906 C138.0781,175.3125 138.0469,175.5 137.9375,175.6563 C137.7656,175.875 137.5,176.0156 137.2344,176.0156 C137.0156,176.0156 136.7813,175.9063 136.6406,175.7656 C136.5,175.6406 136.4688,175.5156 136.4063,175.1094 C136.3125,174.7031 136.1406,174.4844 135.6563,174.2031 C135.1875,173.9531 134.5781,173.7969 134,173.7969 C132.2656,173.7969 131.0156,175.1094 131.0156,176.8906 L131.0156,177.9844 C131.0156,179.6875 132.3125,180.7813 134.3594,180.7813 C135.125,180.7813 135.8125,180.6563 136.2344,180.3906 C136.4219,180.2969 136.4219,180.2969 136.875,179.8125 C137.0625,179.625 137.2656,179.5469 137.4844,179.5469 C137.9531,179.5469 138.3438,179.9375 138.3438,180.3906 C138.3438,180.7813 138.0156,181.2344 137.4375,181.6406 C136.6875,182.1875 135.5313,182.4844 134.3125,182.4844 C131.4219,182.4844 129.3125,180.5938 129.3125,178.0156 L129.3125,176.8906 C129.3125,174.1719 131.3125,172.0938 133.9375,172.0938 C134.8125,172.0938 135.4063,172.2344 136.3438,172.6719 Z "/><text fill="#000000" font-family="sans-serif" font-size="12" lengthAdjust="spacingAndGlyphs" textLength="104" x="148" y="181.1543">ResidencyStatus</text><line style="stroke: #A80036; stroke-width: 1.5;" x1="120" x2="254" y1="193" y2="193"/><rect fill="none" height="6" style="stroke: #C82930; stroke-width: 1.0;" width="6" x="127" y="201.9023"/><text fill="#000000" font-family="sans-serif" font-size="11" lengthAdjust="spacingAndGlyphs" textLength="10" x="139" y="207.2104">id</text><rect fill="none" height="6" style="stroke: #C82930; stroke-width: 1.0;" width="6" x="127" y="214.707"/><text fill="#000000" font-family="sans-serif" font-size="11" lengthAdjust="spacingAndGlyphs" textLength="32" x="139" y="220.0151">name</text><line style="stroke: #A80036; stroke-width: 1.5;" x1="120" x2="254" y1="226.6094" y2="226.6094"/><!--class BeneficiaryStatus--><rect fill="#FEFECE" filter="url(#f199qm67oqex8f)" height="73.6094" id="BeneficiaryStatus" style="stroke: #A80036; stroke-width: 1.5;" width="141" x="290.5" y="161"/><ellipse cx="305.5" cy="177" fill="#ADD1B2" rx="11" ry="11" style="stroke: #A80036; stroke-width: 1.0;"/><path d="M307.8438,172.6719 L308.0156,172.75 C308.2344,172.4375 308.4375,172.3438 308.7344,172.3438 C309.0313,172.3438 309.3125,172.4844 309.4688,172.75 C309.5625,172.9063 309.5781,173.0313 309.5781,173.4688 L309.5781,174.8906 C309.5781,175.3125 309.5469,175.5 309.4375,175.6563 C309.2656,175.875 309,176.0156 308.7344,176.0156 C308.5156,176.0156 308.2813,175.9063 308.1406,175.7656 C308,175.6406 307.9688,175.5156 307.9063,175.1094 C307.8125,174.7031 307.6406,174.4844 307.1563,174.2031 C306.6875,173.9531 306.0781,173.7969 305.5,173.7969 C303.7656,173.7969 302.5156,175.1094 302.5156,176.8906 L302.5156,177.9844 C302.5156,179.6875 303.8125,180.7813 305.8594,180.7813 C306.625,180.7813 307.3125,180.6563 307.7344,180.3906 C307.9219,180.2969 307.9219,180.2969 308.375,179.8125 C308.5625,179.625 308.7656,179.5469 308.9844,179.5469 C309.4531,179.5469 309.8438,179.9375 309.8438,180.3906 C309.8438,180.7813 309.5156,181.2344 308.9375,181.6406 C308.1875,182.1875 307.0313,182.4844 305.8125,182.4844 C302.9219,182.4844 300.8125,180.5938 300.8125,178.0156 L300.8125,176.8906 C300.8125,174.1719 302.8125,172.0938 305.4375,172.0938 C306.3125,172.0938 306.9063,172.2344 307.8438,172.6719 Z "/><text fill="#000000" font-family="sans-serif" font-size="12" lengthAdjust="spacingAndGlyphs" textLength="109" x="319.5" y="181.1543">BeneficiaryStatus</text><line style="stroke: #A80036; stroke-width: 1.5;" x1="291.5" x2="430.5" y1="193" y2="193"/><rect fill="none" height="6" style="stroke: #C82930; stroke-width: 1.0;" width="6" x="298.5" y="201.9023"/><text fill="#000000" font-family="sans-serif" font-size="11" lengthAdjust="spacingAndGlyphs" textLength="10" x="310.5" y="207.2104">id</text><rect fill="none" height="6" style="stroke: #C82930; stroke-width: 1.0;" width="6" x="298.5" y="214.707"/><text fill="#000000" font-family="sans-serif" font-size="11" lengthAdjust="spacingAndGlyphs" textLength="32" x="310.5" y="220.0151">name</text><line style="stroke: #A80036; stroke-width: 1.5;" x1="291.5" x2="430.5" y1="226.6094" y2="226.6094"/><!--class BeneficiaryReferralType--><rect fill="#FEFECE" filter="url(#f199qm67oqex8f)" height="73.6094" id="BeneficiaryReferralType" style="stroke: #A80036; stroke-width: 1.5;" width="178" x="467" y="161"/><ellipse cx="482" cy="177" fill="#ADD1B2" rx="11" ry="11" style="stroke: #A80036; stroke-width: 1.0;"/><path d="M484.3438,172.6719 L484.5156,172.75 C484.7344,172.4375 484.9375,172.3438 485.2344,172.3438 C485.5313,172.3438 485.8125,172.4844 485.9688,172.75 C486.0625,172.9063 486.0781,173.0313 486.0781,173.4688 L486.0781,174.8906 C486.0781,175.3125 486.0469,175.5 485.9375,175.6563 C485.7656,175.875 485.5,176.0156 485.2344,176.0156 C485.0156,176.0156 484.7813,175.9063 484.6406,175.7656 C484.5,175.6406 484.4688,175.5156 484.4063,175.1094 C484.3125,174.7031 484.1406,174.4844 483.6563,174.2031 C483.1875,173.9531 482.5781,173.7969 482,173.7969 C480.2656,173.7969 479.0156,175.1094 479.0156,176.8906 L479.0156,177.9844 C479.0156,179.6875 480.3125,180.7813 482.3594,180.7813 C483.125,180.7813 483.8125,180.6563 484.2344,180.3906 C484.4219,180.2969 484.4219,180.2969 484.875,179.8125 C485.0625,179.625 485.2656,179.5469 485.4844,179.5469 C485.9531,179.5469 486.3438,179.9375 486.3438,180.3906 C486.3438,180.7813 486.0156,181.2344 485.4375,181.6406 C484.6875,182.1875 483.5313,182.4844 482.3125,182.4844 C479.4219,182.4844 477.3125,180.5938 477.3125,178.0156 L477.3125,176.8906 C477.3125,174.1719 479.3125,172.0938 481.9375,172.0938 C482.8125,172.0938 483.4063,172.2344 484.3438,172.6719 Z "/><text fill="#000000" font-family="sans-serif" font-size="12" lengthAdjust="spacingAndGlyphs" textLength="146" x="496" y="181.1543">BeneficiaryReferralType</text><line style="stroke: #A80036; stroke-width: 1.5;" x1="468" x2="644" y1="193" y2="193"/><rect fill="none" height="6" style="stroke: #C82930; stroke-width: 1.0;" width="6" x="475" y="201.9023"/><text fill="#000000" font-family="sans-serif" font-size="11" lengthAdjust="spacingAndGlyphs" textLength="10" x="487" y="207.2104">id</text><rect fill="none" height="6" style="stroke: #C82930; stroke-width: 1.0;" width="6" x="475" y="214.707"/><text fill="#000000" font-family="sans-serif" font-size="11" lengthAdjust="spacingAndGlyphs" textLength="32" x="487" y="220.0151">name</text><line style="stroke: #A80036; stroke-width: 1.5;" x1="468" x2="644" y1="226.6094" y2="226.6094"/><!--class NationalId--><rect fill="#FEFECE" filter="url(#f199qm67oqex8f)" height="73.6094" id="NationalId" style="stroke: #A80036; stroke-width: 1.5;" width="95" x="680.5" y="161"/><ellipse cx="695.5" cy="177" fill="#ADD1B2" rx="11" ry="11" style="stroke: #A80036; stroke-width: 1.0;"/><path d="M697.8438,172.6719 L698.0156,172.75 C698.2344,172.4375 698.4375,172.3438 698.7344,172.3438 C699.0313,172.3438 699.3125,172.4844 699.4688,172.75 C699.5625,172.9063 699.5781,173.0313 699.5781,173.4688 L699.5781,174.8906 C699.5781,175.3125 699.5469,175.5 699.4375,175.6563 C699.2656,175.875 699,176.0156 698.7344,176.0156 C698.5156,176.0156 698.2813,175.9063 698.1406,175.7656 C698,175.6406 697.9688,175.5156 697.9063,175.1094 C697.8125,174.7031 697.6406,174.4844 697.1563,174.2031 C696.6875,173.9531 696.0781,173.7969 695.5,173.7969 C693.7656,173.7969 692.5156,175.1094 692.5156,176.8906 L692.5156,177.9844 C692.5156,179.6875 693.8125,180.7813 695.8594,180.7813 C696.625,180.7813 697.3125,180.6563 697.7344,180.3906 C697.9219,180.2969 697.9219,180.2969 698.375,179.8125 C698.5625,179.625 698.7656,179.5469 698.9844,179.5469 C699.4531,179.5469 699.8438,179.9375 699.8438,180.3906 C699.8438,180.7813 699.5156,181.2344 698.9375,181.6406 C698.1875,182.1875 697.0313,182.4844 695.8125,182.4844 C692.9219,182.4844 690.8125,180.5938 690.8125,178.0156 L690.8125,176.8906 C690.8125,174.1719 692.8125,172.0938 695.4375,172.0938 C696.3125,172.0938 696.9063,172.2344 697.8438,172.6719 Z "/><text fill="#000000" font-family="sans-serif" font-size="12" lengthAdjust="spacingAndGlyphs" textLength="63" x="709.5" y="181.1543">NationalId</text><line style="stroke: #A80036; stroke-width: 1.5;" x1="681.5" x2="774.5" y1="193" y2="193"/><rect fill="none" height="6" style="stroke: #C82930; stroke-width: 1.0;" width="6" x="688.5" y="201.9023"/><text fill="#000000" font-family="sans-serif" font-size="11" lengthAdjust="spacingAndGlyphs" textLength="24" x="700.5" y="207.2104">type</text><rect fill="none" height="6" style="stroke: #C82930; stroke-width: 1.0;" width="6" x="688.5" y="214.707"/><text fill="#000000" font-family="sans-serif" font-size="11" lengthAdjust="spacingAndGlyphs" textLength="44" x="700.5" y="220.0151">number</text><line style="stroke: #A80036; stroke-width: 1.5;" x1="681.5" x2="774.5" y1="226.6094" y2="226.6094"/><!--class NationalIdType--><rect fill="#FEFECE" filter="url(#f199qm67oqex8f)" height="73.6094" id="NationalIdType" style="stroke: #A80036; stroke-width: 1.5;" width="124" x="652" y="8"/><ellipse cx="667" cy="24" fill="#ADD1B2" rx="11" ry="11" style="stroke: #A80036; stroke-width: 1.0;"/><path d="M669.3438,19.6719 L669.5156,19.75 C669.7344,19.4375 669.9375,19.3438 670.2344,19.3438 C670.5313,19.3438 670.8125,19.4844 670.9688,19.75 C671.0625,19.9063 671.0781,20.0313 671.0781,20.4688 L671.0781,21.8906 C671.0781,22.3125 671.0469,22.5 670.9375,22.6563 C670.7656,22.875 670.5,23.0156 670.2344,23.0156 C670.0156,23.0156 669.7813,22.9063 669.6406,22.7656 C669.5,22.6406 669.4688,22.5156 669.4063,22.1094 C669.3125,21.7031 669.1406,21.4844 668.6563,21.2031 C668.1875,20.9531 667.5781,20.7969 667,20.7969 C665.2656,20.7969 664.0156,22.1094 664.0156,23.8906 L664.0156,24.9844 C664.0156,26.6875 665.3125,27.7813 667.3594,27.7813 C668.125,27.7813 668.8125,27.6563 669.2344,27.3906 C669.4219,27.2969 669.4219,27.2969 669.875,26.8125 C670.0625,26.625 670.2656,26.5469 670.4844,26.5469 C670.9531,26.5469 671.3438,26.9375 671.3438,27.3906 C671.3438,27.7813 671.0156,28.2344 670.4375,28.6406 C669.6875,29.1875 668.5313,29.4844 667.3125,29.4844 C664.4219,29.4844 662.3125,27.5938 662.3125,25.0156 L662.3125,23.8906 C662.3125,21.1719 664.3125,19.0938 666.9375,19.0938 C667.8125,19.0938 668.4063,19.2344 669.3438,19.6719 Z "/><text fill="#000000" font-family="sans-serif" font-size="12" lengthAdjust="spacingAndGlyphs" textLength="92" x="681" y="28.1543">NationalIdType</text><line style="stroke: #A80036; stroke-width: 1.5;" x1="653" x2="775" y1="40" y2="40"/><rect fill="none" height="6" style="stroke: #C82930; stroke-width: 1.0;" width="6" x="660" y="48.9023"/><text fill="#000000" font-family="sans-serif" font-size="11" lengthAdjust="spacingAndGlyphs" textLength="10" x="672" y="54.2104">id</text><rect fill="none" height="6" style="stroke: #C82930; stroke-width: 1.0;" width="6" x="660" y="61.707"/><text fill="#000000" font-family="sans-serif" font-size="11" lengthAdjust="spacingAndGlyphs" textLength="32" x="672" y="67.0151">name</text><line style="stroke: #A80036; stroke-width: 1.5;" x1="653" x2="775" y1="73.6094" y2="73.6094"/><!--class Phone--><rect fill="#FEFECE" filter="url(#f199qm67oqex8f)" height="112.0234" id="Phone" style="stroke: #A80036; stroke-width: 1.5;" width="72" x="811" y="142"/><ellipse cx="826" cy="158" fill="#ADD1B2" rx="11" ry="11" style="stroke: #A80036; stroke-width: 1.0;"/><path d="M828.3438,153.6719 L828.5156,153.75 C828.7344,153.4375 828.9375,153.3438 829.2344,153.3438 C829.5313,153.3438 829.8125,153.4844 829.9688,153.75 C830.0625,153.9063 830.0781,154.0313 830.0781,154.4688 L830.0781,155.8906 C830.0781,156.3125 830.0469,156.5 829.9375,156.6563 C829.7656,156.875 829.5,157.0156 829.2344,157.0156 C829.0156,157.0156 828.7813,156.9063 828.6406,156.7656 C828.5,156.6406 828.4688,156.5156 828.4063,156.1094 C828.3125,155.7031 828.1406,155.4844 827.6563,155.2031 C827.1875,154.9531 826.5781,154.7969 826,154.7969 C824.2656,154.7969 823.0156,156.1094 823.0156,157.8906 L823.0156,158.9844 C823.0156,160.6875 824.3125,161.7813 826.3594,161.7813 C827.125,161.7813 827.8125,161.6563 828.2344,161.3906 C828.4219,161.2969 828.4219,161.2969 828.875,160.8125 C829.0625,160.625 829.2656,160.5469 829.4844,160.5469 C829.9531,160.5469 830.3438,160.9375 830.3438,161.3906 C830.3438,161.7813 830.0156,162.2344 829.4375,162.6406 C828.6875,163.1875 827.5313,163.4844 826.3125,163.4844 C823.4219,163.4844 821.3125,161.5938 821.3125,159.0156 L821.3125,157.8906 C821.3125,155.1719 823.3125,153.0938 825.9375,153.0938 C826.8125,153.0938 827.4063,153.2344 828.3438,153.6719 Z "/><text fill="#000000" font-family="sans-serif" font-size="12" lengthAdjust="spacingAndGlyphs" textLength="40" x="840" y="162.1543">Phone</text><line style="stroke: #A80036; stroke-width: 1.5;" x1="812" x2="882" y1="174" y2="174"/><rect fill="none" height="6" style="stroke: #C82930; stroke-width: 1.0;" width="6" x="819" y="182.9023"/><text fill="#000000" font-family="sans-serif" font-size="11" lengthAdjust="spacingAndGlyphs" textLength="10" x="831" y="188.2104">id</text><rect fill="none" height="6" style="stroke: #C82930; stroke-width: 1.0;" width="6" x="819" y="195.707"/><text fill="#000000" font-family="sans-serif" font-size="11" lengthAdjust="spacingAndGlyphs" textLength="44" x="831" y="201.0151">number</text><rect fill="none" height="6" style="stroke: #C82930; stroke-width: 1.0;" width="6" x="819" y="208.5117"/><text fill="#000000" font-family="sans-serif" font-size="11" lengthAdjust="spacingAndGlyphs" textLength="32" x="831" y="213.8198">prefix</text><rect fill="none" height="6" style="stroke: #C82930; stroke-width: 1.0;" width="6" x="819" y="221.3164"/><text fill="#000000" font-family="sans-serif" font-size="11" lengthAdjust="spacingAndGlyphs" textLength="31" x="831" y="226.6245">proxy</text><rect fill="none" height="6" style="stroke: #C82930; stroke-width: 1.0;" width="6" x="819" y="234.1211"/><text fill="#000000" font-family="sans-serif" font-size="11" lengthAdjust="spacingAndGlyphs" textLength="24" x="831" y="239.4292">type</text><line style="stroke: #A80036; stroke-width: 1.5;" x1="812" x2="882" y1="246.0234" y2="246.0234"/><!--class PhoneType--><rect fill="#FEFECE" filter="url(#f199qm67oqex8f)" height="73.6094" id="PhoneType" style="stroke: #A80036; stroke-width: 1.5;" width="101" x="811.5" y="8"/><ellipse cx="826.5" cy="24" fill="#ADD1B2" rx="11" ry="11" style="stroke: #A80036; stroke-width: 1.0;"/><path d="M828.8438,19.6719 L829.0156,19.75 C829.2344,19.4375 829.4375,19.3438 829.7344,19.3438 C830.0313,19.3438 830.3125,19.4844 830.4688,19.75 C830.5625,19.9063 830.5781,20.0313 830.5781,20.4688 L830.5781,21.8906 C830.5781,22.3125 830.5469,22.5 830.4375,22.6563 C830.2656,22.875 830,23.0156 829.7344,23.0156 C829.5156,23.0156 829.2813,22.9063 829.1406,22.7656 C829,22.6406 828.9688,22.5156 828.9063,22.1094 C828.8125,21.7031 828.6406,21.4844 828.1563,21.2031 C827.6875,20.9531 827.0781,20.7969 826.5,20.7969 C824.7656,20.7969 823.5156,22.1094 823.5156,23.8906 L823.5156,24.9844 C823.5156,26.6875 824.8125,27.7813 826.8594,27.7813 C827.625,27.7813 828.3125,27.6563 828.7344,27.3906 C828.9219,27.2969 828.9219,27.2969 829.375,26.8125 C829.5625,26.625 829.7656,26.5469 829.9844,26.5469 C830.4531,26.5469 830.8438,26.9375 830.8438,27.3906 C830.8438,27.7813 830.5156,28.2344 829.9375,28.6406 C829.1875,29.1875 828.0313,29.4844 826.8125,29.4844 C823.9219,29.4844 821.8125,27.5938 821.8125,25.0156 L821.8125,23.8906 C821.8125,21.1719 823.8125,19.0938 826.4375,19.0938 C827.3125,19.0938 827.9063,19.2344 828.8438,19.6719 Z "/><text fill="#000000" font-family="sans-serif" font-size="12" lengthAdjust="spacingAndGlyphs" textLength="69" x="840.5" y="28.1543">PhoneType</text><line style="stroke: #A80036; stroke-width: 1.5;" x1="812.5" x2="911.5" y1="40" y2="40"/><rect fill="none" height="6" style="stroke: #C82930; stroke-width: 1.0;" width="6" x="819.5" y="48.9023"/><text fill="#000000" font-family="sans-serif" font-size="11" lengthAdjust="spacingAndGlyphs" textLength="10" x="831.5" y="54.2104">id</text><rect fill="none" height="6" style="stroke: #C82930; stroke-width: 1.0;" width="6" x="819.5" y="61.707"/><text fill="#000000" font-family="sans-serif" font-size="11" lengthAdjust="spacingAndGlyphs" textLength="32" x="831.5" y="67.0151">name</text><line style="stroke: #A80036; stroke-width: 1.5;" x1="812.5" x2="911.5" y1="73.6094" y2="73.6094"/><!--class VulnerabilityCriteria--><rect fill="#FEFECE" filter="url(#f199qm67oqex8f)" height="86.4141" id="VulnerabilityCriteria" style="stroke: #A80036; stroke-width: 1.5;" width="153" x="918.5" y="155"/><ellipse cx="933.5" cy="171" fill="#ADD1B2" rx="11" ry="11" style="stroke: #A80036; stroke-width: 1.0;"/><path d="M935.8438,166.6719 L936.0156,166.75 C936.2344,166.4375 936.4375,166.3438 936.7344,166.3438 C937.0313,166.3438 937.3125,166.4844 937.4688,166.75 C937.5625,166.9063 937.5781,167.0313 937.5781,167.4688 L937.5781,168.8906 C937.5781,169.3125 937.5469,169.5 937.4375,169.6563 C937.2656,169.875 937,170.0156 936.7344,170.0156 C936.5156,170.0156 936.2813,169.9063 936.1406,169.7656 C936,169.6406 935.9688,169.5156 935.9063,169.1094 C935.8125,168.7031 935.6406,168.4844 935.1563,168.2031 C934.6875,167.9531 934.0781,167.7969 933.5,167.7969 C931.7656,167.7969 930.5156,169.1094 930.5156,170.8906 L930.5156,171.9844 C930.5156,173.6875 931.8125,174.7813 933.8594,174.7813 C934.625,174.7813 935.3125,174.6563 935.7344,174.3906 C935.9219,174.2969 935.9219,174.2969 936.375,173.8125 C936.5625,173.625 936.7656,173.5469 936.9844,173.5469 C937.4531,173.5469 937.8438,173.9375 937.8438,174.3906 C937.8438,174.7813 937.5156,175.2344 936.9375,175.6406 C936.1875,176.1875 935.0313,176.4844 933.8125,176.4844 C930.9219,176.4844 928.8125,174.5938 928.8125,172.0156 L928.8125,170.8906 C928.8125,168.1719 930.8125,166.0938 933.4375,166.0938 C934.3125,166.0938 934.9063,166.2344 935.8438,166.6719 Z "/><text fill="#000000" font-family="sans-serif" font-size="12" lengthAdjust="spacingAndGlyphs" textLength="121" x="947.5" y="175.1543">VulnerabilityCriteria</text><line style="stroke: #A80036; stroke-width: 1.5;" x1="919.5" x2="1070.5" y1="187" y2="187"/><rect fill="none" height="6" style="stroke: #C82930; stroke-width: 1.0;" width="6" x="926.5" y="195.9023"/><text fill="#000000" font-family="sans-serif" font-size="11" lengthAdjust="spacingAndGlyphs" textLength="10" x="938.5" y="201.2104">id</text><rect fill="none" height="6" style="stroke: #C82930; stroke-width: 1.0;" width="6" x="926.5" y="208.707"/><text fill="#000000" font-family="sans-serif" font-size="11" lengthAdjust="spacingAndGlyphs" textLength="32" x="938.5" y="214.0151">name</text><rect fill="none" height="6" style="stroke: #C82930; stroke-width: 1.0;" width="6" x="926.5" y="221.5117"/><text fill="#000000" font-family="sans-serif" font-size="11" lengthAdjust="spacingAndGlyphs" textLength="54" x="938.5" y="226.8198">displayed</text><line style="stroke: #A80036; stroke-width: 1.5;" x1="919.5" x2="1070.5" y1="233.4141" y2="233.4141"/><!--class Profile--><rect fill="#FEFECE" filter="url(#f199qm67oqex8f)" height="60.8047" id="Profile" style="stroke: #A80036; stroke-width: 1.5;" width="71" x="1106.5" y="167.5"/><ellipse cx="1121.5" cy="183.5" fill="#ADD1B2" rx="11" ry="11" style="stroke: #A80036; stroke-width: 1.0;"/><path d="M1123.8438,179.1719 L1124.0156,179.25 C1124.2344,178.9375 1124.4375,178.8438 1124.7344,178.8438 C1125.0313,178.8438 1125.3125,178.9844 1125.4688,179.25 C1125.5625,179.4063 1125.5781,179.5313 1125.5781,179.9688 L1125.5781,181.3906 C1125.5781,181.8125 1125.5469,182 1125.4375,182.1563 C1125.2656,182.375 1125,182.5156 1124.7344,182.5156 C1124.5156,182.5156 1124.2813,182.4063 1124.1406,182.2656 C1124,182.1406 1123.9688,182.0156 1123.9063,181.6094 C1123.8125,181.2031 1123.6406,180.9844 1123.1563,180.7031 C1122.6875,180.4531 1122.0781,180.2969 1121.5,180.2969 C1119.7656,180.2969 1118.5156,181.6094 1118.5156,183.3906 L1118.5156,184.4844 C1118.5156,186.1875 1119.8125,187.2813 1121.8594,187.2813 C1122.625,187.2813 1123.3125,187.1563 1123.7344,186.8906 C1123.9219,186.7969 1123.9219,186.7969 1124.375,186.3125 C1124.5625,186.125 1124.7656,186.0469 1124.9844,186.0469 C1125.4531,186.0469 1125.8438,186.4375 1125.8438,186.8906 C1125.8438,187.2813 1125.5156,187.7344 1124.9375,188.1406 C1124.1875,188.6875 1123.0313,188.9844 1121.8125,188.9844 C1118.9219,188.9844 1116.8125,187.0938 1116.8125,184.5156 L1116.8125,183.3906 C1116.8125,180.6719 1118.8125,178.5938 1121.4375,178.5938 C1122.3125,178.5938 1122.9063,178.7344 1123.8438,179.1719 Z "/><text fill="#000000" font-family="sans-serif" font-size="12" lengthAdjust="spacingAndGlyphs" textLength="39" x="1135.5" y="187.6543">Profile</text><line style="stroke: #A80036; stroke-width: 1.5;" x1="1107.5" x2="1176.5" y1="199.5" y2="199.5"/><rect fill="none" height="6" style="stroke: #C82930; stroke-width: 1.0;" width="6" x="1114.5" y="208.4023"/><text fill="#000000" font-family="sans-serif" font-size="11" lengthAdjust="spacingAndGlyphs" textLength="32" x="1126.5" y="213.7104">photo</text><line style="stroke: #A80036; stroke-width: 1.5;" x1="1107.5" x2="1176.5" y1="220.3047" y2="220.3047"/><!--class Booklet--><rect fill="#FEFECE" filter="url(#f199qm67oqex8f)" height="48" id="Booklet" style="stroke: #A80036; stroke-width: 1.5;" width="79" x="193.5" y="678"/><ellipse cx="208.5" cy="694" fill="#ADD1B2" rx="11" ry="11" style="stroke: #A80036; stroke-width: 1.0;"/><path d="M210.8438,689.6719 L211.0156,689.75 C211.2344,689.4375 211.4375,689.3438 211.7344,689.3438 C212.0313,689.3438 212.3125,689.4844 212.4688,689.75 C212.5625,689.9063 212.5781,690.0313 212.5781,690.4688 L212.5781,691.8906 C212.5781,692.3125 212.5469,692.5 212.4375,692.6563 C212.2656,692.875 212,693.0156 211.7344,693.0156 C211.5156,693.0156 211.2813,692.9063 211.1406,692.7656 C211,692.6406 210.9688,692.5156 210.9063,692.1094 C210.8125,691.7031 210.6406,691.4844 210.1563,691.2031 C209.6875,690.9531 209.0781,690.7969 208.5,690.7969 C206.7656,690.7969 205.5156,692.1094 205.5156,693.8906 L205.5156,694.9844 C205.5156,696.6875 206.8125,697.7813 208.8594,697.7813 C209.625,697.7813 210.3125,697.6563 210.7344,697.3906 C210.9219,697.2969 210.9219,697.2969 211.375,696.8125 C211.5625,696.625 211.7656,696.5469 211.9844,696.5469 C212.4531,696.5469 212.8438,696.9375 212.8438,697.3906 C212.8438,697.7813 212.5156,698.2344 211.9375,698.6406 C211.1875,699.1875 210.0313,699.4844 208.8125,699.4844 C205.9219,699.4844 203.8125,697.5938 203.8125,695.0156 L203.8125,693.8906 C203.8125,691.1719 205.8125,689.0938 208.4375,689.0938 C209.3125,689.0938 209.9063,689.2344 210.8438,689.6719 Z "/><text fill="#000000" font-family="sans-serif" font-size="12" lengthAdjust="spacingAndGlyphs" textLength="47" x="222.5" y="698.1543">Booklet</text><line style="stroke: #A80036; stroke-width: 1.5;" x1="194.5" x2="271.5" y1="710" y2="710"/><line style="stroke: #A80036; stroke-width: 1.5;" x1="194.5" x2="271.5" y1="718" y2="718"/><!--class DistributionBeneficiary--><rect fill="#FEFECE" filter="url(#f199qm67oqex8f)" height="48" id="DistributionBeneficiary" style="stroke: #A80036; stroke-width: 1.5;" width="172" x="308" y="678"/><ellipse cx="323" cy="694" fill="#ADD1B2" rx="11" ry="11" style="stroke: #A80036; stroke-width: 1.0;"/><path d="M325.3438,689.6719 L325.5156,689.75 C325.7344,689.4375 325.9375,689.3438 326.2344,689.3438 C326.5313,689.3438 326.8125,689.4844 326.9688,689.75 C327.0625,689.9063 327.0781,690.0313 327.0781,690.4688 L327.0781,691.8906 C327.0781,692.3125 327.0469,692.5 326.9375,692.6563 C326.7656,692.875 326.5,693.0156 326.2344,693.0156 C326.0156,693.0156 325.7813,692.9063 325.6406,692.7656 C325.5,692.6406 325.4688,692.5156 325.4063,692.1094 C325.3125,691.7031 325.1406,691.4844 324.6563,691.2031 C324.1875,690.9531 323.5781,690.7969 323,690.7969 C321.2656,690.7969 320.0156,692.1094 320.0156,693.8906 L320.0156,694.9844 C320.0156,696.6875 321.3125,697.7813 323.3594,697.7813 C324.125,697.7813 324.8125,697.6563 325.2344,697.3906 C325.4219,697.2969 325.4219,697.2969 325.875,696.8125 C326.0625,696.625 326.2656,696.5469 326.4844,696.5469 C326.9531,696.5469 327.3438,696.9375 327.3438,697.3906 C327.3438,697.7813 327.0156,698.2344 326.4375,698.6406 C325.6875,699.1875 324.5313,699.4844 323.3125,699.4844 C320.4219,699.4844 318.3125,697.5938 318.3125,695.0156 L318.3125,693.8906 C318.3125,691.1719 320.3125,689.0938 322.9375,689.0938 C323.8125,689.0938 324.4063,689.2344 325.3438,689.6719 Z "/><text fill="#000000" font-family="sans-serif" font-size="12" lengthAdjust="spacingAndGlyphs" textLength="140" x="337" y="698.1543">DistributionBeneficiary</text><line style="stroke: #A80036; stroke-width: 1.5;" x1="309" x2="479" y1="710" y2="710"/><line style="stroke: #A80036; stroke-width: 1.5;" x1="309" x2="479" y1="718" y2="718"/><!--class Household--><rect fill="#FEFECE" filter="url(#f199qm67oqex8f)" height="48" id="Household" style="stroke: #A80036; stroke-width: 1.5;" width="99" x="515.5" y="678"/><ellipse cx="530.5" cy="694" fill="#ADD1B2" rx="11" ry="11" style="stroke: #A80036; stroke-width: 1.0;"/><path d="M532.8438,689.6719 L533.0156,689.75 C533.2344,689.4375 533.4375,689.3438 533.7344,689.3438 C534.0313,689.3438 534.3125,689.4844 534.4688,689.75 C534.5625,689.9063 534.5781,690.0313 534.5781,690.4688 L534.5781,691.8906 C534.5781,692.3125 534.5469,692.5 534.4375,692.6563 C534.2656,692.875 534,693.0156 533.7344,693.0156 C533.5156,693.0156 533.2813,692.9063 533.1406,692.7656 C533,692.6406 532.9688,692.5156 532.9063,692.1094 C532.8125,691.7031 532.6406,691.4844 532.1563,691.2031 C531.6875,690.9531 531.0781,690.7969 530.5,690.7969 C528.7656,690.7969 527.5156,692.1094 527.5156,693.8906 L527.5156,694.9844 C527.5156,696.6875 528.8125,697.7813 530.8594,697.7813 C531.625,697.7813 532.3125,697.6563 532.7344,697.3906 C532.9219,697.2969 532.9219,697.2969 533.375,696.8125 C533.5625,696.625 533.7656,696.5469 533.9844,696.5469 C534.4531,696.5469 534.8438,696.9375 534.8438,697.3906 C534.8438,697.7813 534.5156,698.2344 533.9375,698.6406 C533.1875,699.1875 532.0313,699.4844 530.8125,699.4844 C527.9219,699.4844 525.8125,697.5938 525.8125,695.0156 L525.8125,693.8906 C525.8125,691.1719 527.8125,689.0938 530.4375,689.0938 C531.3125,689.0938 531.9063,689.2344 532.8438,689.6719 Z "/><text fill="#000000" font-family="sans-serif" font-size="12" lengthAdjust="spacingAndGlyphs" textLength="67" x="544.5" y="698.1543">Household</text><line style="stroke: #A80036; stroke-width: 1.5;" x1="516.5" x2="613.5" y1="710" y2="710"/><line style="stroke: #A80036; stroke-width: 1.5;" x1="516.5" x2="613.5" y1="718" y2="718"/><!--class ImportedBeneficiary--><rect fill="#FEFECE" filter="url(#f199qm67oqex8f)" height="48" id="ImportedBeneficiary" style="stroke: #A80036; stroke-width: 1.5;" width="156" x="650" y="678"/><ellipse cx="665" cy="694" fill="#ADD1B2" rx="11" ry="11" style="stroke: #A80036; stroke-width: 1.0;"/><path d="M667.3438,689.6719 L667.5156,689.75 C667.7344,689.4375 667.9375,689.3438 668.2344,689.3438 C668.5313,689.3438 668.8125,689.4844 668.9688,689.75 C669.0625,689.9063 669.0781,690.0313 669.0781,690.4688 L669.0781,691.8906 C669.0781,692.3125 669.0469,692.5 668.9375,692.6563 C668.7656,692.875 668.5,693.0156 668.2344,693.0156 C668.0156,693.0156 667.7813,692.9063 667.6406,692.7656 C667.5,692.6406 667.4688,692.5156 667.4063,692.1094 C667.3125,691.7031 667.1406,691.4844 666.6563,691.2031 C666.1875,690.9531 665.5781,690.7969 665,690.7969 C663.2656,690.7969 662.0156,692.1094 662.0156,693.8906 L662.0156,694.9844 C662.0156,696.6875 663.3125,697.7813 665.3594,697.7813 C666.125,697.7813 666.8125,697.6563 667.2344,697.3906 C667.4219,697.2969 667.4219,697.2969 667.875,696.8125 C668.0625,696.625 668.2656,696.5469 668.4844,696.5469 C668.9531,696.5469 669.3438,696.9375 669.3438,697.3906 C669.3438,697.7813 669.0156,698.2344 668.4375,698.6406 C667.6875,699.1875 666.5313,699.4844 665.3125,699.4844 C662.4219,699.4844 660.3125,697.5938 660.3125,695.0156 L660.3125,693.8906 C660.3125,691.1719 662.3125,689.0938 664.9375,689.0938 C665.8125,689.0938 666.4063,689.2344 667.3438,689.6719 Z "/><text fill="#000000" font-family="sans-serif" font-size="12" lengthAdjust="spacingAndGlyphs" textLength="124" x="679" y="698.1543">ImportedBeneficiary</text><line style="stroke: #A80036; stroke-width: 1.5;" x1="651" x2="805" y1="710" y2="710"/><line style="stroke: #A80036; stroke-width: 1.5;" x1="651" x2="805" y1="718" y2="718"/><!--class TransactionGeneralRelief--><rect fill="#FEFECE" filter="url(#f199qm67oqex8f)" height="48" id="TransactionGeneralRelief" style="stroke: #A80036; stroke-width: 1.5;" width="189" x="841.5" y="678"/><ellipse cx="856.5" cy="694" fill="#ADD1B2" rx="11" ry="11" style="stroke: #A80036; stroke-width: 1.0;"/><path d="M858.8438,689.6719 L859.0156,689.75 C859.2344,689.4375 859.4375,689.3438 859.7344,689.3438 C860.0313,689.3438 860.3125,689.4844 860.4688,689.75 C860.5625,689.9063 860.5781,690.0313 860.5781,690.4688 L860.5781,691.8906 C860.5781,692.3125 860.5469,692.5 860.4375,692.6563 C860.2656,692.875 860,693.0156 859.7344,693.0156 C859.5156,693.0156 859.2813,692.9063 859.1406,692.7656 C859,692.6406 858.9688,692.5156 858.9063,692.1094 C858.8125,691.7031 858.6406,691.4844 858.1563,691.2031 C857.6875,690.9531 857.0781,690.7969 856.5,690.7969 C854.7656,690.7969 853.5156,692.1094 853.5156,693.8906 L853.5156,694.9844 C853.5156,696.6875 854.8125,697.7813 856.8594,697.7813 C857.625,697.7813 858.3125,697.6563 858.7344,697.3906 C858.9219,697.2969 858.9219,697.2969 859.375,696.8125 C859.5625,696.625 859.7656,696.5469 859.9844,696.5469 C860.4531,696.5469 860.8438,696.9375 860.8438,697.3906 C860.8438,697.7813 860.5156,698.2344 859.9375,698.6406 C859.1875,699.1875 858.0313,699.4844 856.8125,699.4844 C853.9219,699.4844 851.8125,697.5938 851.8125,695.0156 L851.8125,693.8906 C851.8125,691.1719 853.8125,689.0938 856.4375,689.0938 C857.3125,689.0938 857.9063,689.2344 858.8438,689.6719 Z "/><text fill="#000000" font-family="sans-serif" font-size="12" lengthAdjust="spacingAndGlyphs" textLength="157" x="870.5" y="698.1543">TransactionGeneralRelief</text><line style="stroke: #A80036; stroke-width: 1.5;" x1="842.5" x2="1029.5" y1="710" y2="710"/><line style="stroke: #A80036; stroke-width: 1.5;" x1="842.5" x2="1029.5" y1="718" y2="718"/><!--class TransactionMobileMoney--><rect fill="#FEFECE" filter="url(#f199qm67oqex8f)" height="48" id="TransactionMobileMoney" style="stroke: #A80036; stroke-width: 1.5;" width="186" x="1066" y="678"/><ellipse cx="1081" cy="694" fill="#ADD1B2" rx="11" ry="11" style="stroke: #A80036; stroke-width: 1.0;"/><path d="M1083.3438,689.6719 L1083.5156,689.75 C1083.7344,689.4375 1083.9375,689.3438 1084.2344,689.3438 C1084.5313,689.3438 1084.8125,689.4844 1084.9688,689.75 C1085.0625,689.9063 1085.0781,690.0313 1085.0781,690.4688 L1085.0781,691.8906 C1085.0781,692.3125 1085.0469,692.5 1084.9375,692.6563 C1084.7656,692.875 1084.5,693.0156 1084.2344,693.0156 C1084.0156,693.0156 1083.7813,692.9063 1083.6406,692.7656 C1083.5,692.6406 1083.4688,692.5156 1083.4063,692.1094 C1083.3125,691.7031 1083.1406,691.4844 1082.6563,691.2031 C1082.1875,690.9531 1081.5781,690.7969 1081,690.7969 C1079.2656,690.7969 1078.0156,692.1094 1078.0156,693.8906 L1078.0156,694.9844 C1078.0156,696.6875 1079.3125,697.7813 1081.3594,697.7813 C1082.125,697.7813 1082.8125,697.6563 1083.2344,697.3906 C1083.4219,697.2969 1083.4219,697.2969 1083.875,696.8125 C1084.0625,696.625 1084.2656,696.5469 1084.4844,696.5469 C1084.9531,696.5469 1085.3438,696.9375 1085.3438,697.3906 C1085.3438,697.7813 1085.0156,698.2344 1084.4375,698.6406 C1083.6875,699.1875 1082.5313,699.4844 1081.3125,699.4844 C1078.4219,699.4844 1076.3125,697.5938 1076.3125,695.0156 L1076.3125,693.8906 C1076.3125,691.1719 1078.3125,689.0938 1080.9375,689.0938 C1081.8125,689.0938 1082.4063,689.2344 1083.3438,689.6719 Z "/><text fill="#000000" font-family="sans-serif" font-size="12" lengthAdjust="spacingAndGlyphs" textLength="154" x="1095" y="698.1543">TransactionMobileMoney</text><line style="stroke: #A80036; stroke-width: 1.5;" x1="1067" x2="1251" y1="710" y2="710"/><line style="stroke: #A80036; stroke-width: 1.5;" x1="1067" x2="1251" y1="718" y2="718"/><!--class TransactionQRVoucher--><rect fill="#FEFECE" filter="url(#f199qm67oqex8f)" height="48" id="TransactionQRVoucher" style="stroke: #A80036; stroke-width: 1.5;" width="175" x="1287.5" y="678"/><ellipse cx="1302.5" cy="694" fill="#ADD1B2" rx="11" ry="11" style="stroke: #A80036; stroke-width: 1.0;"/><path d="M1304.8438,689.6719 L1305.0156,689.75 C1305.2344,689.4375 1305.4375,689.3438 1305.7344,689.3438 C1306.0313,689.3438 1306.3125,689.4844 1306.4688,689.75 C1306.5625,689.9063 1306.5781,690.0313 1306.5781,690.4688 L1306.5781,691.8906 C1306.5781,692.3125 1306.5469,692.5 1306.4375,692.6563 C1306.2656,692.875 1306,693.0156 1305.7344,693.0156 C1305.5156,693.0156 1305.2813,692.9063 1305.1406,692.7656 C1305,692.6406 1304.9688,692.5156 1304.9063,692.1094 C1304.8125,691.7031 1304.6406,691.4844 1304.1563,691.2031 C1303.6875,690.9531 1303.0781,690.7969 1302.5,690.7969 C1300.7656,690.7969 1299.5156,692.1094 1299.5156,693.8906 L1299.5156,694.9844 C1299.5156,696.6875 1300.8125,697.7813 1302.8594,697.7813 C1303.625,697.7813 1304.3125,697.6563 1304.7344,697.3906 C1304.9219,697.2969 1304.9219,697.2969 1305.375,696.8125 C1305.5625,696.625 1305.7656,696.5469 1305.9844,696.5469 C1306.4531,696.5469 1306.8438,696.9375 1306.8438,697.3906 C1306.8438,697.7813 1306.5156,698.2344 1305.9375,698.6406 C1305.1875,699.1875 1304.0313,699.4844 1302.8125,699.4844 C1299.9219,699.4844 1297.8125,697.5938 1297.8125,695.0156 L1297.8125,693.8906 C1297.8125,691.1719 1299.8125,689.0938 1302.4375,689.0938 C1303.3125,689.0938 1303.9063,689.2344 1304.8438,689.6719 Z "/><text fill="#000000" font-family="sans-serif" font-size="12" lengthAdjust="spacingAndGlyphs" textLength="143" x="1316.5" y="698.1543">TransactionQRVoucher</text><line style="stroke: #A80036; stroke-width: 1.5;" x1="1288.5" x2="1461.5" y1="710" y2="710"/><line style="stroke: #A80036; stroke-width: 1.5;" x1="1288.5" x2="1461.5" y1="718" y2="718"/><!--link Gender to Beneficiary--><path d="M87.0546,244.018 C91.5512,247.67 96.2311,251.073 101,254 C288.938,369.356 547.657,430.366 665.27,453.661 " fill="none" id="Gender-Beneficiary" style="stroke: #A80036; stroke-width: 1.0;"/><polygon fill="#A80036" points="76.9392,235.156,78.8159,242.1186,85.9648,243.0642,84.088,236.1016,76.9392,235.156" style="stroke: #A80036; stroke-width: 1.0;"/><text fill="#000000" font-family="sans-serif" font-size="13" lengthAdjust="spacingAndGlyphs" textLength="8" x="73.5666" y="254.6624">1</text><text fill="#000000" font-family="sans-serif" font-size="13" lengthAdjust="spacingAndGlyphs" textLength="8" x="649.5543" y="465.1706">1</text><!--link ResidencyStatus to Beneficiary--><path d="M252.14,241.943 C259.105,246.148 266.148,250.242 273,254 C409.089,328.629 576.256,401.628 665.244,439.085 " fill="none" id="ResidencyStatus-Beneficiary" style="stroke: #A80036; stroke-width: 1.0;"/><polygon fill="#A80036" points="240.924,235.044,243.9397,241.5942,251.1459,241.3299,248.1303,234.7796,240.924,235.044" style="stroke: #A80036; stroke-width: 1.0;"/><text fill="#000000" font-family="sans-serif" font-size="13" lengthAdjust="spacingAndGlyphs" textLength="8" x="241.5047" y="254.8119">1</text><text fill="#000000" font-family="sans-serif" font-size="13" lengthAdjust="spacingAndGlyphs" textLength="8" x="649.5253" y="432.1749">1</text><!--link BeneficiaryStatus to Beneficiary--><path d="M421.733,243.019 C489.086,291.836 597.207,370.201 665.33,419.577 " fill="none" id="BeneficiaryStatus-Beneficiary" style="stroke: #A80036; stroke-width: 1.0;"/><polygon fill="#A80036" points="410.877,235.151,413.3879,241.9108,420.5935,242.1931,418.0826,235.4332,410.877,235.151" style="stroke: #A80036; stroke-width: 1.0;"/><text fill="#000000" font-family="sans-serif" font-size="13" lengthAdjust="spacingAndGlyphs" textLength="8" x="410.4754" y="254.6566">1</text><text fill="#000000" font-family="sans-serif" font-size="13" lengthAdjust="spacingAndGlyphs" textLength="8" x="649.6213" y="410.4113">1</text><!--link BeneficiaryReferralType to Beneficiary--><path d="M586.447,246.086 C608.291,279.869 638.495,326.58 665.395,368.18 " fill="none" id="BeneficiaryReferralType-Beneficiary" style="stroke: #A80036; stroke-width: 1.0;"/><polygon fill="#A80036" points="579.376,235.151,579.2751,242.3614,585.8921,245.2278,585.9929,238.0174,579.376,235.151" style="stroke: #A80036; stroke-width: 1.0;"/><text fill="#000000" font-family="sans-serif" font-size="13" lengthAdjust="spacingAndGlyphs" textLength="8" x="574.5852" y="254.6566">1</text><text fill="#000000" font-family="sans-serif" font-size="13" lengthAdjust="spacingAndGlyphs" textLength="8" x="649.6938" y="353.0715">1</text><!--link NationalId to Beneficiary--><path d="M728,248.279 C728,267.304 728,290.181 728,313.839 " fill="none" id="NationalId-Beneficiary" style="stroke: #A80036; stroke-width: 1.0;"/><polygon fill="#A80036" points="728,235.151,724,241.151,728,247.151,732,241.151,728,235.151" style="stroke: #A80036; stroke-width: 1.0;"/><text fill="#000000" font-family="sans-serif" font-size="13" lengthAdjust="spacingAndGlyphs" textLength="8" x="719.3375" y="254.6566">1</text><text fill="#000000" font-family="sans-serif" font-size="13" lengthAdjust="spacingAndGlyphs" textLength="8" x="719.8063" y="303.1733">1</text><!--link Phone to Beneficiary--><path d="M805.916,265.745 C798.488,280.672 790.668,297.094 782.948,313.91 " fill="none" id="Phone-Beneficiary" style="stroke: #A80036; stroke-width: 1.0;"/><polygon fill="#A80036" points="811.779,254.115,805.5061,257.6718,806.3766,264.8301,812.6495,261.2734,811.779,254.115" style="stroke: #A80036; stroke-width: 1.0;"/><text fill="#000000" font-family="sans-serif" font-size="13" lengthAdjust="spacingAndGlyphs" textLength="8" x="798.9989" y="273.9416">2</text><text fill="#000000" font-family="sans-serif" font-size="13" lengthAdjust="spacingAndGlyphs" textLength="8" x="777.575" y="302.749">1</text><!--link Phone to Beneficiary--><path d="M828.737,266.475 C818.145,293.291 804.495,324.845 790.618,354.808 " fill="none" id="Phone-Beneficiary-1" style="stroke: #A80036; stroke-width: 1.0;"/><polygon fill="#A80036" points="833.529,254.115,827.6309,258.2637,829.1919,265.3038,835.0901,261.1551,833.529,254.115" style="stroke: #A80036; stroke-width: 1.0;"/><text fill="#000000" font-family="sans-serif" font-size="13" lengthAdjust="spacingAndGlyphs" textLength="8" x="823.3997" y="273.9416">2</text><text fill="#000000" font-family="sans-serif" font-size="13" lengthAdjust="spacingAndGlyphs" textLength="8" x="798.3207" y="338.1534">1</text><!--link VulnerabilityCriteria to Beneficiary--><path d="M943.417,250.389 C899.822,293.822 837.228,356.181 790.737,402.498 " fill="none" id="VulnerabilityCriteria-Beneficiary" style="stroke: #A80036; stroke-width: 1.0;"/><polygon fill="#A80036" points="952.693,241.148,945.6193,242.549,944.1919,249.6174,951.2656,248.2164,952.693,241.148" style="stroke: #A80036; stroke-width: 1.0;"/><text fill="#000000" font-family="sans-serif" font-size="13" lengthAdjust="spacingAndGlyphs" textLength="20" x="924.0297" y="261.5802">0-*</text><text fill="#000000" font-family="sans-serif" font-size="13" lengthAdjust="spacingAndGlyphs" textLength="8" x="798.4535" y="391.3575">1</text><!--link Profile to Beneficiary--><path d="M1107.05,238.008 C1101.27,243.647 1095.14,249.169 1089,254 C992.281,330.065 865.381,397.903 790.666,435.063 " fill="none" id="Profile-Beneficiary" style="stroke: #A80036; stroke-width: 1.0;"/><polygon fill="#A80036" points="1116.42,228.51,1109.359,229.9736,1107.9943,237.0544,1115.0553,235.5908,1116.42,228.51" style="stroke: #A80036; stroke-width: 1.0;"/><text fill="#000000" font-family="sans-serif" font-size="13" lengthAdjust="spacingAndGlyphs" textLength="8" x="1102.3191" y="248.4503">1</text><text fill="#000000" font-family="sans-serif" font-size="13" lengthAdjust="spacingAndGlyphs" textLength="8" x="798.3743" y="427.6879">1</text><!--link Beneficiary to Booklet--><path d="M653.393,502.269 C546.963,552.581 355.3,643.1855 272.676,682.244 " fill="none" id="Beneficiary-Booklet" style="stroke: #A80036; stroke-width: 1.0;"/><polygon fill="#FFFFFF" points="665.308,496.636,658.174,495.5846,654.4596,501.7655,661.5936,502.8169,665.308,496.636" style="stroke: #A80036; stroke-width: 1.0;"/><text fill="#000000" font-family="sans-serif" font-size="13" lengthAdjust="spacingAndGlyphs" textLength="8" x="649.5967" y="496.3803">1</text><text fill="#000000" font-family="sans-serif" font-size="13" lengthAdjust="spacingAndGlyphs" textLength="20" x="280.1084" y="674.8298">0-*</text><!--link Beneficiary to DistributionBeneficiary--><path d="M654.103,518.772 C583.262,568.403 479.575,641.0463 427.078,677.8254 " fill="none" id="Beneficiary-DistributionBeneficiary" style="stroke: #A80036; stroke-width: 1.0;"/><polygon fill="#A80036" points="665.177,511.014,657.9678,511.181,655.3493,517.8999,662.5584,517.7329,665.177,511.014" style="stroke: #A80036; stroke-width: 1.0;"/><text fill="#000000" font-family="sans-serif" font-size="13" lengthAdjust="spacingAndGlyphs" textLength="8" x="649.4506" y="512.4207">1</text><text fill="#000000" font-family="sans-serif" font-size="13" lengthAdjust="spacingAndGlyphs" textLength="20" x="412.9917" y="666.7927">0-*</text><!--link Beneficiary to Household--><path d="M657.869,567.68 C629.396,608.554 599.036,652.1386 581.056,677.9496 " fill="none" id="Beneficiary-Household" style="stroke: #A80036; stroke-width: 1.0;"/><polygon fill="#A80036" points="665.446,556.801,658.7344,559.4382,658.5874,566.6478,665.299,564.0106,665.446,556.801" style="stroke: #A80036; stroke-width: 1.0;"/><text fill="#000000" font-family="sans-serif" font-size="13" lengthAdjust="spacingAndGlyphs" textLength="20" x="637.5104" y="562.9811">1-*</text><text fill="#000000" font-family="sans-serif" font-size="13" lengthAdjust="spacingAndGlyphs" textLength="20" x="562.6079" y="666.9487">0-*</text><!--link Beneficiary to ImportedBeneficiary--><path d="M728,631.2876 C728,649.3699 728,665.6404 728,677.906 " fill="none" id="Beneficiary-ImportedBeneficiary" style="stroke: #A80036; stroke-width: 1.0;"/><polygon fill="#A80036" points="728,618.171,724,624.171,728,630.171,732,624.171,728,618.171" style="stroke: #A80036; stroke-width: 1.0;"/><text fill="#000000" font-family="sans-serif" font-size="13" lengthAdjust="spacingAndGlyphs" textLength="8" x="719.8063" y="637.9729">1</text><text fill="#000000" font-family="sans-serif" font-size="13" lengthAdjust="spacingAndGlyphs" textLength="8" x="718.975" y="666.8939">1</text><!--link NationalIdType to NationalId--><path d="M718.573,95.322 C720.554,116.685 722.83,141.239 724.65,160.865 " fill="none" id="NationalIdType-NationalId" style="stroke: #A80036; stroke-width: 1.0;"/><polygon fill="#A80036" points="717.353,82.168,713.9239,88.5116,718.4607,94.1168,721.8898,87.7731,717.353,82.168" style="stroke: #A80036; stroke-width: 1.0;"/><text fill="#000000" font-family="sans-serif" font-size="13" lengthAdjust="spacingAndGlyphs" textLength="8" x="709.2458" y="101.6764">1</text><text fill="#000000" font-family="sans-serif" font-size="13" lengthAdjust="spacingAndGlyphs" textLength="8" x="715.3408" y="150.0279">1</text><!--link PhoneType to Phone--><path d="M857.099,95.339 C855.618,110.241 853.984,126.695 852.469,141.946 " fill="none" id="PhoneType-Phone" style="stroke: #A80036; stroke-width: 1.0;"/><polygon fill="#A80036" points="858.407,82.168,853.8339,87.7435,857.2216,94.1093,861.7947,88.5338,858.407,82.168" style="stroke: #A80036; stroke-width: 1.0;"/><text fill="#000000" font-family="sans-serif" font-size="13" lengthAdjust="spacingAndGlyphs" textLength="8" x="849.1494" y="101.6764">1</text><text fill="#000000" font-family="sans-serif" font-size="13" lengthAdjust="spacingAndGlyphs" textLength="8" x="844.6572" y="130.877">1</text><!--link Beneficiary to TransactionGeneralRelief--><path d="M799.54,547.482 C840.344,593.387 888.557,647.6262 915.368,677.7889 " fill="none" id="Beneficiary-TransactionGeneralRelief" style="stroke: #A80036; stroke-width: 1.0;"/><polygon fill="#A80036" points="790.689,537.525,791.6854,544.6669,798.6611,546.4941,797.6648,539.3522,790.689,537.525" style="stroke: #A80036; stroke-width: 1.0;"/><text fill="#000000" font-family="sans-serif" font-size="13" lengthAdjust="spacingAndGlyphs" textLength="8" x="798.3999" y="541.997">1</text><text fill="#000000" font-family="sans-serif" font-size="13" lengthAdjust="spacingAndGlyphs" textLength="8" x="901.0561" y="666.7468">1</text><!--link Beneficiary to TransactionMobileMoney--><path d="M802.244,507.309 C892.957,556.559 1043.35,638.2136 1116.47,677.9102 " fill="none" id="Beneficiary-TransactionMobileMoney" style="stroke: #A80036; stroke-width: 1.0;"/><polygon fill="#A80036" points="790.671,501.026,794.0353,507.4042,801.2168,506.7519,797.8525,500.3737,790.671,501.026" style="stroke: #A80036; stroke-width: 1.0;"/><text fill="#000000" font-family="sans-serif" font-size="13" lengthAdjust="spacingAndGlyphs" textLength="8" x="798.3798" y="501.2778">1</text><text fill="#000000" font-family="sans-serif" font-size="13" lengthAdjust="spacingAndGlyphs" textLength="8" x="1096.5467" y="666.8992">1</text><!--link Beneficiary to TransactionQRVoucher--><path d="M803.009,494.128 C931.446,540.58 1191.23,634.5346 1311.39,677.9928 " fill="none" id="Beneficiary-TransactionQRVoucher" style="stroke: #A80036; stroke-width: 1.0;"/><polygon fill="#A80036" points="790.625,489.65,794.907,495.4521,801.9097,493.7311,797.6277,487.929,790.625,489.65" style="stroke: #A80036; stroke-width: 1.0;"/><text fill="#000000" font-family="sans-serif" font-size="13" lengthAdjust="spacingAndGlyphs" textLength="8" x="798.3285" y="488.5865">1</text><text fill="#000000" font-family="sans-serif" font-size="13" lengthAdjust="spacingAndGlyphs" textLength="8" x="1286.0649" y="667.003">1</text><!--
@startuml
class Beneficiary {
    - id
    - localGivenName
    - localFamilyName
    - enGivenName
    - enFamilyName
    - gender
    - dateOfBirth
    - residencyStatus
    - beneficiaryStatus
    - nationalIds
    - phones
    - vulnerabilities
    - localFullName
    - profile
    - distributionId
    - removed
    - justification
    - addReferral
    - referralType
    - referralComment
}

class Gender {
    - id
    - name
}

class ResidencyStatus {
    - id
    - name
}

class BeneficiaryStatus {
    - id
    - name
}

class BeneficiaryReferralType {
    - id
    - name
}

class NationalId {
    - type
    - number
}

class NationalIdType {
    - id
    - name
}

class Phone {
    - id
    - number
    - prefix
    - proxy
    - type
}

class PhoneType {
    - id
    - name
}

class VulnerabilityCriteria {
    - id
    - name
    - displayed
}

class Profile {
    - photo
}


 Gender "1" *- - "1" Beneficiary
 ResidencyStatus "1" *- - "1" Beneficiary
 BeneficiaryStatus "1" *- - "1" Beneficiary
 BeneficiaryReferralType "1" *- - "1" Beneficiary
 NationalId "1" *- - "1" Beneficiary
 Phone "2" *- - "1" Beneficiary
 VulnerabilityCriteria "0-*" *- - "1" Beneficiary
 Profile "1" *- - "1" Beneficiary
 Phone "2" *- - "1" Beneficiary


 Beneficiary "1" o- - "0-*" Booklet

 Beneficiary "1" *- - "0-*" DistributionBeneficiary
 
 Beneficiary "1-*" *- - "0-*" Household

 Beneficiary "1" *- - "1" ImportedBeneficiary
 
 NationalIdType "1" *- - "1" NationalId
 
 PhoneType "1" *- - "1" Phone
 
 Beneficiary "1" *- - "1" TransactionGeneralRelief

 Beneficiary "1" *- - "1" TransactionMobileMoney

 Beneficiary "1" *- - "1" TransactionQRVoucher
@enduml

PlantUML version 1.2019.07(Mon Jun 24 19:59:20 UTC 2019)
(GPL source distribution)
Java Runtime: Java(TM) SE Runtime Environment
JVM: Java HotSpot(TM) 64-Bit Server VM
Java Version: 1.7.0_25-b15
Operating System: Linux
Default Encoding: UTF-8
Language: en
Country: US
--></g></svg>