<?xml version="1.0" encoding="UTF-8" standalone="no"?><svg xmlns="http://www.w3.org/2000/svg" xmlns:xlink="http://www.w3.org/1999/xlink" contentScriptType="application/ecmascript" contentStyleType="text/css" height="673px" preserveAspectRatio="none" style="width:1318px;height:673px;" version="1.1" viewBox="0 0 1318 673" width="1318px" zoomAndPan="magnify"><defs><filter height="300%" id="fm3q3wi3xmz0q" width="300%" x="-1" y="-1"><feGaussianBlur result="blurOut" stdDeviation="2.0"/><feColorMatrix in="blurOut" result="blurOut2" type="matrix" values="0 0 0 0 0 0 0 0 0 0 0 0 0 0 0 0 0 0 .4 0"/><feOffset dx="4.0" dy="4.0" in="blurOut2" result="blurOut3"/><feBlend in="SourceGraphic" in2="blurOut3" mode="normal"/></filter></defs><g><!--class Beneficiary--><rect fill="#FEFECE" filter="url(#fm3q3wi3xmz0q)" height="240.0703" id="Beneficiary" style="stroke: #A80036; stroke-width: 1.5;" width="125" x="510.5" y="314"/><ellipse cx="536.75" cy="330" fill="#ADD1B2" rx="11" ry="11" style="stroke: #A80036; stroke-width: 1.0;"/><path d="M539.0938,325.6719 L539.2656,325.75 C539.4844,325.4375 539.6875,325.3438 539.9844,325.3438 C540.2813,325.3438 540.5625,325.4844 540.7188,325.75 C540.8125,325.9063 540.8281,326.0313 540.8281,326.4688 L540.8281,327.8906 C540.8281,328.3125 540.7969,328.5 540.6875,328.6563 C540.5156,328.875 540.25,329.0156 539.9844,329.0156 C539.7656,329.0156 539.5313,328.9063 539.3906,328.7656 C539.25,328.6406 539.2188,328.5156 539.1563,328.1094 C539.0625,327.7031 538.8906,327.4844 538.4063,327.2031 C537.9375,326.9531 537.3281,326.7969 536.75,326.7969 C535.0156,326.7969 533.7656,328.1094 533.7656,329.8906 L533.7656,330.9844 C533.7656,332.6875 535.0625,333.7813 537.1094,333.7813 C537.875,333.7813 538.5625,333.6563 538.9844,333.3906 C539.1719,333.2969 539.1719,333.2969 539.625,332.8125 C539.8125,332.625 540.0156,332.5469 540.2344,332.5469 C540.7031,332.5469 541.0938,332.9375 541.0938,333.3906 C541.0938,333.7813 540.7656,334.2344 540.1875,334.6406 C539.4375,335.1875 538.2813,335.4844 537.0625,335.4844 C534.1719,335.4844 532.0625,333.5938 532.0625,331.0156 L532.0625,329.8906 C532.0625,327.1719 534.0625,325.0938 536.6875,325.0938 C537.5625,325.0938 538.1563,325.2344 539.0938,325.6719 Z "/><text fill="#000000" font-family="sans-serif" font-size="12" lengthAdjust="spacingAndGlyphs" textLength="68" x="553.25" y="334.1543">Beneficiary</text><line style="stroke: #A80036; stroke-width: 1.5;" x1="511.5" x2="634.5" y1="346" y2="346"/><rect fill="none" height="6" style="stroke: #C82930; stroke-width: 1.0;" width="6" x="518.5" y="354.9023"/><text fill="#000000" font-family="sans-serif" font-size="11" lengthAdjust="spacingAndGlyphs" textLength="10" x="530.5" y="360.2104">id</text><rect fill="none" height="6" style="stroke: #C82930; stroke-width: 1.0;" width="6" x="518.5" y="367.707"/><text fill="#000000" font-family="sans-serif" font-size="11" lengthAdjust="spacingAndGlyphs" textLength="91" x="530.5" y="373.0151">localGivenName</text><rect fill="none" height="6" style="stroke: #C82930; stroke-width: 1.0;" width="6" x="518.5" y="380.5117"/><text fill="#000000" font-family="sans-serif" font-size="11" lengthAdjust="spacingAndGlyphs" textLength="95" x="530.5" y="385.8198">localFamilyName</text><rect fill="none" height="6" style="stroke: #C82930; stroke-width: 1.0;" width="6" x="518.5" y="393.3164"/><text fill="#000000" font-family="sans-serif" font-size="11" lengthAdjust="spacingAndGlyphs" textLength="79" x="530.5" y="398.6245">enGivenName</text><rect fill="none" height="6" style="stroke: #C82930; stroke-width: 1.0;" width="6" x="518.5" y="406.1211"/><text fill="#000000" font-family="sans-serif" font-size="11" lengthAdjust="spacingAndGlyphs" textLength="83" x="530.5" y="411.4292">enFamilyName</text><rect fill="none" height="6" style="stroke: #C82930; stroke-width: 1.0;" width="6" x="518.5" y="418.9258"/><text fill="#000000" font-family="sans-serif" font-size="11" lengthAdjust="spacingAndGlyphs" textLength="40" x="530.5" y="424.2339">gender</text><rect fill="none" height="6" style="stroke: #C82930; stroke-width: 1.0;" width="6" x="518.5" y="431.7305"/><text fill="#000000" font-family="sans-serif" font-size="11" lengthAdjust="spacingAndGlyphs" textLength="65" x="530.5" y="437.0386">dateOfBirth</text><rect fill="none" height="6" style="stroke: #C82930; stroke-width: 1.0;" width="6" x="518.5" y="444.5352"/><text fill="#000000" font-family="sans-serif" font-size="11" lengthAdjust="spacingAndGlyphs" textLength="92" x="530.5" y="449.8433">residencyStatus</text><rect fill="none" height="6" style="stroke: #C82930; stroke-width: 1.0;" width="6" x="518.5" y="457.3398"/><text fill="#000000" font-family="sans-serif" font-size="11" lengthAdjust="spacingAndGlyphs" textLength="99" x="530.5" y="462.6479">beneficiaryStatus</text><rect fill="none" height="6" style="stroke: #C82930; stroke-width: 1.0;" width="6" x="518.5" y="470.1445"/><text fill="#000000" font-family="sans-serif" font-size="11" lengthAdjust="spacingAndGlyphs" textLength="62" x="530.5" y="475.4526">nationalIds</text><rect fill="none" height="6" style="stroke: #C82930; stroke-width: 1.0;" width="6" x="518.5" y="482.9492"/><text fill="#000000" font-family="sans-serif" font-size="11" lengthAdjust="spacingAndGlyphs" textLength="42" x="530.5" y="488.2573">phones</text><rect fill="none" height="6" style="stroke: #C82930; stroke-width: 1.0;" width="6" x="518.5" y="495.7539"/><text fill="#000000" font-family="sans-serif" font-size="11" lengthAdjust="spacingAndGlyphs" textLength="79" x="530.5" y="501.062">vulnerabilities</text><rect fill="none" height="6" style="stroke: #C82930; stroke-width: 1.0;" width="6" x="518.5" y="508.5586"/><text fill="#000000" font-family="sans-serif" font-size="11" lengthAdjust="spacingAndGlyphs" textLength="50" x="530.5" y="513.8667">fullName</text><rect fill="none" height="6" style="stroke: #C82930; stroke-width: 1.0;" width="6" x="518.5" y="521.3633"/><text fill="#000000" font-family="sans-serif" font-size="11" lengthAdjust="spacingAndGlyphs" textLength="36" x="530.5" y="526.6714">profile</text><rect fill="none" height="6" style="stroke: #C82930; stroke-width: 1.0;" width="6" x="518.5" y="534.168"/><text fill="#000000" font-family="sans-serif" font-size="11" lengthAdjust="spacingAndGlyphs" textLength="74" x="530.5" y="539.4761">distributionId</text><line style="stroke: #A80036; stroke-width: 1.5;" x1="511.5" x2="634.5" y1="546.0703" y2="546.0703"/><!--class Gender--><rect fill="#FEFECE" filter="url(#fm3q3wi3xmz0q)" height="73.6094" id="Gender" style="stroke: #A80036; stroke-width: 1.5;" width="78" x="6" y="161"/><ellipse cx="21" cy="177" fill="#ADD1B2" rx="11" ry="11" style="stroke: #A80036; stroke-width: 1.0;"/><path d="M23.3438,172.6719 L23.5156,172.75 C23.7344,172.4375 23.9375,172.3438 24.2344,172.3438 C24.5313,172.3438 24.8125,172.4844 24.9688,172.75 C25.0625,172.9063 25.0781,173.0313 25.0781,173.4688 L25.0781,174.8906 C25.0781,175.3125 25.0469,175.5 24.9375,175.6563 C24.7656,175.875 24.5,176.0156 24.2344,176.0156 C24.0156,176.0156 23.7813,175.9063 23.6406,175.7656 C23.5,175.6406 23.4688,175.5156 23.4063,175.1094 C23.3125,174.7031 23.1406,174.4844 22.6563,174.2031 C22.1875,173.9531 21.5781,173.7969 21,173.7969 C19.2656,173.7969 18.0156,175.1094 18.0156,176.8906 L18.0156,177.9844 C18.0156,179.6875 19.3125,180.7813 21.3594,180.7813 C22.125,180.7813 22.8125,180.6563 23.2344,180.3906 C23.4219,180.2969 23.4219,180.2969 23.875,179.8125 C24.0625,179.625 24.2656,179.5469 24.4844,179.5469 C24.9531,179.5469 25.3438,179.9375 25.3438,180.3906 C25.3438,180.7813 25.0156,181.2344 24.4375,181.6406 C23.6875,182.1875 22.5313,182.4844 21.3125,182.4844 C18.4219,182.4844 16.3125,180.5938 16.3125,178.0156 L16.3125,176.8906 C16.3125,174.1719 18.3125,172.0938 20.9375,172.0938 C21.8125,172.0938 22.4063,172.2344 23.3438,172.6719 Z "/><text fill="#000000" font-family="sans-serif" font-size="12" lengthAdjust="spacingAndGlyphs" textLength="46" x="35" y="181.1543">Gender</text><line style="stroke: #A80036; stroke-width: 1.5;" x1="7" x2="83" y1="193" y2="193"/><rect fill="none" height="6" style="stroke: #C82930; stroke-width: 1.0;" width="6" x="14" y="201.9023"/><text fill="#000000" font-family="sans-serif" font-size="11" lengthAdjust="spacingAndGlyphs" textLength="10" x="26" y="207.2104">id</text><rect fill="none" height="6" style="stroke: #C82930; stroke-width: 1.0;" width="6" x="14" y="214.707"/><text fill="#000000" font-family="sans-serif" font-size="11" lengthAdjust="spacingAndGlyphs" textLength="32" x="26" y="220.0151">name</text><line style="stroke: #A80036; stroke-width: 1.5;" x1="7" x2="83" y1="226.6094" y2="226.6094"/><!--class ResidencyStatus--><rect fill="#FEFECE" filter="url(#fm3q3wi3xmz0q)" height="73.6094" id="ResidencyStatus" style="stroke: #A80036; stroke-width: 1.5;" width="136" x="119" y="161"/><ellipse cx="134" cy="177" fill="#ADD1B2" rx="11" ry="11" style="stroke: #A80036; stroke-width: 1.0;"/><path d="M136.3438,172.6719 L136.5156,172.75 C136.7344,172.4375 136.9375,172.3438 137.2344,172.3438 C137.5313,172.3438 137.8125,172.4844 137.9688,172.75 C138.0625,172.9063 138.0781,173.0313 138.0781,173.4688 L138.0781,174.8906 C138.0781,175.3125 138.0469,175.5 137.9375,175.6563 C137.7656,175.875 137.5,176.0156 137.2344,176.0156 C137.0156,176.0156 136.7813,175.9063 136.6406,175.7656 C136.5,175.6406 136.4688,175.5156 136.4063,175.1094 C136.3125,174.7031 136.1406,174.4844 135.6563,174.2031 C135.1875,173.9531 134.5781,173.7969 134,173.7969 C132.2656,173.7969 131.0156,175.1094 131.0156,176.8906 L131.0156,177.9844 C131.0156,179.6875 132.3125,180.7813 134.3594,180.7813 C135.125,180.7813 135.8125,180.6563 136.2344,180.3906 C136.4219,180.2969 136.4219,180.2969 136.875,179.8125 C137.0625,179.625 137.2656,179.5469 137.4844,179.5469 C137.9531,179.5469 138.3438,179.9375 138.3438,180.3906 C138.3438,180.7813 138.0156,181.2344 137.4375,181.6406 C136.6875,182.1875 135.5313,182.4844 134.3125,182.4844 C131.4219,182.4844 129.3125,180.5938 129.3125,178.0156 L129.3125,176.8906 C129.3125,174.1719 131.3125,172.0938 133.9375,172.0938 C134.8125,172.0938 135.4063,172.2344 136.3438,172.6719 Z "/><text fill="#000000" font-family="sans-serif" font-size="12" lengthAdjust="spacingAndGlyphs" textLength="104" x="148" y="181.1543">ResidencyStatus</text><line style="stroke: #A80036; stroke-width: 1.5;" x1="120" x2="254" y1="193" y2="193"/><rect fill="none" height="6" style="stroke: #C82930; stroke-width: 1.0;" width="6" x="127" y="201.9023"/><text fill="#000000" font-family="sans-serif" font-size="11" lengthAdjust="spacingAndGlyphs" textLength="10" x="139" y="207.2104">id</text><rect fill="none" height="6" style="stroke: #C82930; stroke-width: 1.0;" width="6" x="127" y="214.707"/><text fill="#000000" font-family="sans-serif" font-size="11" lengthAdjust="spacingAndGlyphs" textLength="32" x="139" y="220.0151">name</text><line style="stroke: #A80036; stroke-width: 1.5;" x1="120" x2="254" y1="226.6094" y2="226.6094"/><!--class BeneficiaryStatus--><rect fill="#FEFECE" filter="url(#fm3q3wi3xmz0q)" height="73.6094" id="BeneficiaryStatus" style="stroke: #A80036; stroke-width: 1.5;" width="141" x="290.5" y="161"/><ellipse cx="305.5" cy="177" fill="#ADD1B2" rx="11" ry="11" style="stroke: #A80036; stroke-width: 1.0;"/><path d="M307.8438,172.6719 L308.0156,172.75 C308.2344,172.4375 308.4375,172.3438 308.7344,172.3438 C309.0313,172.3438 309.3125,172.4844 309.4688,172.75 C309.5625,172.9063 309.5781,173.0313 309.5781,173.4688 L309.5781,174.8906 C309.5781,175.3125 309.5469,175.5 309.4375,175.6563 C309.2656,175.875 309,176.0156 308.7344,176.0156 C308.5156,176.0156 308.2813,175.9063 308.1406,175.7656 C308,175.6406 307.9688,175.5156 307.9063,175.1094 C307.8125,174.7031 307.6406,174.4844 307.1563,174.2031 C306.6875,173.9531 306.0781,173.7969 305.5,173.7969 C303.7656,173.7969 302.5156,175.1094 302.5156,176.8906 L302.5156,177.9844 C302.5156,179.6875 303.8125,180.7813 305.8594,180.7813 C306.625,180.7813 307.3125,180.6563 307.7344,180.3906 C307.9219,180.2969 307.9219,180.2969 308.375,179.8125 C308.5625,179.625 308.7656,179.5469 308.9844,179.5469 C309.4531,179.5469 309.8438,179.9375 309.8438,180.3906 C309.8438,180.7813 309.5156,181.2344 308.9375,181.6406 C308.1875,182.1875 307.0313,182.4844 305.8125,182.4844 C302.9219,182.4844 300.8125,180.5938 300.8125,178.0156 L300.8125,176.8906 C300.8125,174.1719 302.8125,172.0938 305.4375,172.0938 C306.3125,172.0938 306.9063,172.2344 307.8438,172.6719 Z "/><text fill="#000000" font-family="sans-serif" font-size="12" lengthAdjust="spacingAndGlyphs" textLength="109" x="319.5" y="181.1543">BeneficiaryStatus</text><line style="stroke: #A80036; stroke-width: 1.5;" x1="291.5" x2="430.5" y1="193" y2="193"/><rect fill="none" height="6" style="stroke: #C82930; stroke-width: 1.0;" width="6" x="298.5" y="201.9023"/><text fill="#000000" font-family="sans-serif" font-size="11" lengthAdjust="spacingAndGlyphs" textLength="10" x="310.5" y="207.2104">id</text><rect fill="none" height="6" style="stroke: #C82930; stroke-width: 1.0;" width="6" x="298.5" y="214.707"/><text fill="#000000" font-family="sans-serif" font-size="11" lengthAdjust="spacingAndGlyphs" textLength="32" x="310.5" y="220.0151">name</text><line style="stroke: #A80036; stroke-width: 1.5;" x1="291.5" x2="430.5" y1="226.6094" y2="226.6094"/><!--class NationalId--><rect fill="#FEFECE" filter="url(#fm3q3wi3xmz0q)" height="73.6094" id="NationalId" style="stroke: #A80036; stroke-width: 1.5;" width="95" x="466.5" y="161"/><ellipse cx="481.5" cy="177" fill="#ADD1B2" rx="11" ry="11" style="stroke: #A80036; stroke-width: 1.0;"/><path d="M483.8438,172.6719 L484.0156,172.75 C484.2344,172.4375 484.4375,172.3438 484.7344,172.3438 C485.0313,172.3438 485.3125,172.4844 485.4688,172.75 C485.5625,172.9063 485.5781,173.0313 485.5781,173.4688 L485.5781,174.8906 C485.5781,175.3125 485.5469,175.5 485.4375,175.6563 C485.2656,175.875 485,176.0156 484.7344,176.0156 C484.5156,176.0156 484.2813,175.9063 484.1406,175.7656 C484,175.6406 483.9688,175.5156 483.9063,175.1094 C483.8125,174.7031 483.6406,174.4844 483.1563,174.2031 C482.6875,173.9531 482.0781,173.7969 481.5,173.7969 C479.7656,173.7969 478.5156,175.1094 478.5156,176.8906 L478.5156,177.9844 C478.5156,179.6875 479.8125,180.7813 481.8594,180.7813 C482.625,180.7813 483.3125,180.6563 483.7344,180.3906 C483.9219,180.2969 483.9219,180.2969 484.375,179.8125 C484.5625,179.625 484.7656,179.5469 484.9844,179.5469 C485.4531,179.5469 485.8438,179.9375 485.8438,180.3906 C485.8438,180.7813 485.5156,181.2344 484.9375,181.6406 C484.1875,182.1875 483.0313,182.4844 481.8125,182.4844 C478.9219,182.4844 476.8125,180.5938 476.8125,178.0156 L476.8125,176.8906 C476.8125,174.1719 478.8125,172.0938 481.4375,172.0938 C482.3125,172.0938 482.9063,172.2344 483.8438,172.6719 Z "/><text fill="#000000" font-family="sans-serif" font-size="12" lengthAdjust="spacingAndGlyphs" textLength="63" x="495.5" y="181.1543">NationalId</text><line style="stroke: #A80036; stroke-width: 1.5;" x1="467.5" x2="560.5" y1="193" y2="193"/><rect fill="none" height="6" style="stroke: #C82930; stroke-width: 1.0;" width="6" x="474.5" y="201.9023"/><text fill="#000000" font-family="sans-serif" font-size="11" lengthAdjust="spacingAndGlyphs" textLength="24" x="486.5" y="207.2104">type</text><rect fill="none" height="6" style="stroke: #C82930; stroke-width: 1.0;" width="6" x="474.5" y="214.707"/><text fill="#000000" font-family="sans-serif" font-size="11" lengthAdjust="spacingAndGlyphs" textLength="44" x="486.5" y="220.0151">number</text><line style="stroke: #A80036; stroke-width: 1.5;" x1="467.5" x2="560.5" y1="226.6094" y2="226.6094"/><!--class NationalIdType--><rect fill="#FEFECE" filter="url(#fm3q3wi3xmz0q)" height="73.6094" id="NationalIdType" style="stroke: #A80036; stroke-width: 1.5;" width="124" x="438" y="8"/><ellipse cx="453" cy="24" fill="#ADD1B2" rx="11" ry="11" style="stroke: #A80036; stroke-width: 1.0;"/><path d="M455.3438,19.6719 L455.5156,19.75 C455.7344,19.4375 455.9375,19.3438 456.2344,19.3438 C456.5313,19.3438 456.8125,19.4844 456.9688,19.75 C457.0625,19.9063 457.0781,20.0313 457.0781,20.4688 L457.0781,21.8906 C457.0781,22.3125 457.0469,22.5 456.9375,22.6563 C456.7656,22.875 456.5,23.0156 456.2344,23.0156 C456.0156,23.0156 455.7813,22.9063 455.6406,22.7656 C455.5,22.6406 455.4688,22.5156 455.4063,22.1094 C455.3125,21.7031 455.1406,21.4844 454.6563,21.2031 C454.1875,20.9531 453.5781,20.7969 453,20.7969 C451.2656,20.7969 450.0156,22.1094 450.0156,23.8906 L450.0156,24.9844 C450.0156,26.6875 451.3125,27.7813 453.3594,27.7813 C454.125,27.7813 454.8125,27.6563 455.2344,27.3906 C455.4219,27.2969 455.4219,27.2969 455.875,26.8125 C456.0625,26.625 456.2656,26.5469 456.4844,26.5469 C456.9531,26.5469 457.3438,26.9375 457.3438,27.3906 C457.3438,27.7813 457.0156,28.2344 456.4375,28.6406 C455.6875,29.1875 454.5313,29.4844 453.3125,29.4844 C450.4219,29.4844 448.3125,27.5938 448.3125,25.0156 L448.3125,23.8906 C448.3125,21.1719 450.3125,19.0938 452.9375,19.0938 C453.8125,19.0938 454.4063,19.2344 455.3438,19.6719 Z "/><text fill="#000000" font-family="sans-serif" font-size="12" lengthAdjust="spacingAndGlyphs" textLength="92" x="467" y="28.1543">NationalIdType</text><line style="stroke: #A80036; stroke-width: 1.5;" x1="439" x2="561" y1="40" y2="40"/><rect fill="none" height="6" style="stroke: #C82930; stroke-width: 1.0;" width="6" x="446" y="48.9023"/><text fill="#000000" font-family="sans-serif" font-size="11" lengthAdjust="spacingAndGlyphs" textLength="10" x="458" y="54.2104">id</text><rect fill="none" height="6" style="stroke: #C82930; stroke-width: 1.0;" width="6" x="446" y="61.707"/><text fill="#000000" font-family="sans-serif" font-size="11" lengthAdjust="spacingAndGlyphs" textLength="32" x="458" y="67.0151">name</text><line style="stroke: #A80036; stroke-width: 1.5;" x1="439" x2="561" y1="73.6094" y2="73.6094"/><!--class Phone--><rect fill="#FEFECE" filter="url(#fm3q3wi3xmz0q)" height="112.0234" id="Phone" style="stroke: #A80036; stroke-width: 1.5;" width="72" x="597" y="142"/><ellipse cx="612" cy="158" fill="#ADD1B2" rx="11" ry="11" style="stroke: #A80036; stroke-width: 1.0;"/><path d="M614.3438,153.6719 L614.5156,153.75 C614.7344,153.4375 614.9375,153.3438 615.2344,153.3438 C615.5313,153.3438 615.8125,153.4844 615.9688,153.75 C616.0625,153.9063 616.0781,154.0313 616.0781,154.4688 L616.0781,155.8906 C616.0781,156.3125 616.0469,156.5 615.9375,156.6563 C615.7656,156.875 615.5,157.0156 615.2344,157.0156 C615.0156,157.0156 614.7813,156.9063 614.6406,156.7656 C614.5,156.6406 614.4688,156.5156 614.4063,156.1094 C614.3125,155.7031 614.1406,155.4844 613.6563,155.2031 C613.1875,154.9531 612.5781,154.7969 612,154.7969 C610.2656,154.7969 609.0156,156.1094 609.0156,157.8906 L609.0156,158.9844 C609.0156,160.6875 610.3125,161.7813 612.3594,161.7813 C613.125,161.7813 613.8125,161.6563 614.2344,161.3906 C614.4219,161.2969 614.4219,161.2969 614.875,160.8125 C615.0625,160.625 615.2656,160.5469 615.4844,160.5469 C615.9531,160.5469 616.3438,160.9375 616.3438,161.3906 C616.3438,161.7813 616.0156,162.2344 615.4375,162.6406 C614.6875,163.1875 613.5313,163.4844 612.3125,163.4844 C609.4219,163.4844 607.3125,161.5938 607.3125,159.0156 L607.3125,157.8906 C607.3125,155.1719 609.3125,153.0938 611.9375,153.0938 C612.8125,153.0938 613.4063,153.2344 614.3438,153.6719 Z "/><text fill="#000000" font-family="sans-serif" font-size="12" lengthAdjust="spacingAndGlyphs" textLength="40" x="626" y="162.1543">Phone</text><line style="stroke: #A80036; stroke-width: 1.5;" x1="598" x2="668" y1="174" y2="174"/><rect fill="none" height="6" style="stroke: #C82930; stroke-width: 1.0;" width="6" x="605" y="182.9023"/><text fill="#000000" font-family="sans-serif" font-size="11" lengthAdjust="spacingAndGlyphs" textLength="10" x="617" y="188.2104">id</text><rect fill="none" height="6" style="stroke: #C82930; stroke-width: 1.0;" width="6" x="605" y="195.707"/><text fill="#000000" font-family="sans-serif" font-size="11" lengthAdjust="spacingAndGlyphs" textLength="44" x="617" y="201.0151">number</text><rect fill="none" height="6" style="stroke: #C82930; stroke-width: 1.0;" width="6" x="605" y="208.5117"/><text fill="#000000" font-family="sans-serif" font-size="11" lengthAdjust="spacingAndGlyphs" textLength="32" x="617" y="213.8198">prefix</text><rect fill="none" height="6" style="stroke: #C82930; stroke-width: 1.0;" width="6" x="605" y="221.3164"/><text fill="#000000" font-family="sans-serif" font-size="11" lengthAdjust="spacingAndGlyphs" textLength="31" x="617" y="226.6245">proxy</text><rect fill="none" height="6" style="stroke: #C82930; stroke-width: 1.0;" width="6" x="605" y="234.1211"/><text fill="#000000" font-family="sans-serif" font-size="11" lengthAdjust="spacingAndGlyphs" textLength="24" x="617" y="239.4292">type</text><line style="stroke: #A80036; stroke-width: 1.5;" x1="598" x2="668" y1="246.0234" y2="246.0234"/><!--class PhoneType--><rect fill="#FEFECE" filter="url(#fm3q3wi3xmz0q)" height="73.6094" id="PhoneType" style="stroke: #A80036; stroke-width: 1.5;" width="101" x="597.5" y="8"/><ellipse cx="612.5" cy="24" fill="#ADD1B2" rx="11" ry="11" style="stroke: #A80036; stroke-width: 1.0;"/><path d="M614.8438,19.6719 L615.0156,19.75 C615.2344,19.4375 615.4375,19.3438 615.7344,19.3438 C616.0313,19.3438 616.3125,19.4844 616.4688,19.75 C616.5625,19.9063 616.5781,20.0313 616.5781,20.4688 L616.5781,21.8906 C616.5781,22.3125 616.5469,22.5 616.4375,22.6563 C616.2656,22.875 616,23.0156 615.7344,23.0156 C615.5156,23.0156 615.2813,22.9063 615.1406,22.7656 C615,22.6406 614.9688,22.5156 614.9063,22.1094 C614.8125,21.7031 614.6406,21.4844 614.1563,21.2031 C613.6875,20.9531 613.0781,20.7969 612.5,20.7969 C610.7656,20.7969 609.5156,22.1094 609.5156,23.8906 L609.5156,24.9844 C609.5156,26.6875 610.8125,27.7813 612.8594,27.7813 C613.625,27.7813 614.3125,27.6563 614.7344,27.3906 C614.9219,27.2969 614.9219,27.2969 615.375,26.8125 C615.5625,26.625 615.7656,26.5469 615.9844,26.5469 C616.4531,26.5469 616.8438,26.9375 616.8438,27.3906 C616.8438,27.7813 616.5156,28.2344 615.9375,28.6406 C615.1875,29.1875 614.0313,29.4844 612.8125,29.4844 C609.9219,29.4844 607.8125,27.5938 607.8125,25.0156 L607.8125,23.8906 C607.8125,21.1719 609.8125,19.0938 612.4375,19.0938 C613.3125,19.0938 613.9063,19.2344 614.8438,19.6719 Z "/><text fill="#000000" font-family="sans-serif" font-size="12" lengthAdjust="spacingAndGlyphs" textLength="69" x="626.5" y="28.1543">PhoneType</text><line style="stroke: #A80036; stroke-width: 1.5;" x1="598.5" x2="697.5" y1="40" y2="40"/><rect fill="none" height="6" style="stroke: #C82930; stroke-width: 1.0;" width="6" x="605.5" y="48.9023"/><text fill="#000000" font-family="sans-serif" font-size="11" lengthAdjust="spacingAndGlyphs" textLength="10" x="617.5" y="54.2104">id</text><rect fill="none" height="6" style="stroke: #C82930; stroke-width: 1.0;" width="6" x="605.5" y="61.707"/><text fill="#000000" font-family="sans-serif" font-size="11" lengthAdjust="spacingAndGlyphs" textLength="32" x="617.5" y="67.0151">name</text><line style="stroke: #A80036; stroke-width: 1.5;" x1="598.5" x2="697.5" y1="73.6094" y2="73.6094"/><!--class VulnerabilityCriteria--><rect fill="#FEFECE" filter="url(#fm3q3wi3xmz0q)" height="86.4141" id="VulnerabilityCriteria" style="stroke: #A80036; stroke-width: 1.5;" width="153" x="704.5" y="155"/><ellipse cx="719.5" cy="171" fill="#ADD1B2" rx="11" ry="11" style="stroke: #A80036; stroke-width: 1.0;"/><path d="M721.8438,166.6719 L722.0156,166.75 C722.2344,166.4375 722.4375,166.3438 722.7344,166.3438 C723.0313,166.3438 723.3125,166.4844 723.4688,166.75 C723.5625,166.9063 723.5781,167.0313 723.5781,167.4688 L723.5781,168.8906 C723.5781,169.3125 723.5469,169.5 723.4375,169.6563 C723.2656,169.875 723,170.0156 722.7344,170.0156 C722.5156,170.0156 722.2813,169.9063 722.1406,169.7656 C722,169.6406 721.9688,169.5156 721.9063,169.1094 C721.8125,168.7031 721.6406,168.4844 721.1563,168.2031 C720.6875,167.9531 720.0781,167.7969 719.5,167.7969 C717.7656,167.7969 716.5156,169.1094 716.5156,170.8906 L716.5156,171.9844 C716.5156,173.6875 717.8125,174.7813 719.8594,174.7813 C720.625,174.7813 721.3125,174.6563 721.7344,174.3906 C721.9219,174.2969 721.9219,174.2969 722.375,173.8125 C722.5625,173.625 722.7656,173.5469 722.9844,173.5469 C723.4531,173.5469 723.8438,173.9375 723.8438,174.3906 C723.8438,174.7813 723.5156,175.2344 722.9375,175.6406 C722.1875,176.1875 721.0313,176.4844 719.8125,176.4844 C716.9219,176.4844 714.8125,174.5938 714.8125,172.0156 L714.8125,170.8906 C714.8125,168.1719 716.8125,166.0938 719.4375,166.0938 C720.3125,166.0938 720.9063,166.2344 721.8438,166.6719 Z "/><text fill="#000000" font-family="sans-serif" font-size="12" lengthAdjust="spacingAndGlyphs" textLength="121" x="733.5" y="175.1543">VulnerabilityCriteria</text><line style="stroke: #A80036; stroke-width: 1.5;" x1="705.5" x2="856.5" y1="187" y2="187"/><rect fill="none" height="6" style="stroke: #C82930; stroke-width: 1.0;" width="6" x="712.5" y="195.9023"/><text fill="#000000" font-family="sans-serif" font-size="11" lengthAdjust="spacingAndGlyphs" textLength="10" x="724.5" y="201.2104">id</text><rect fill="none" height="6" style="stroke: #C82930; stroke-width: 1.0;" width="6" x="712.5" y="208.707"/><text fill="#000000" font-family="sans-serif" font-size="11" lengthAdjust="spacingAndGlyphs" textLength="32" x="724.5" y="214.0151">name</text><rect fill="none" height="6" style="stroke: #C82930; stroke-width: 1.0;" width="6" x="712.5" y="221.5117"/><text fill="#000000" font-family="sans-serif" font-size="11" lengthAdjust="spacingAndGlyphs" textLength="54" x="724.5" y="226.8198">displayed</text><line style="stroke: #A80036; stroke-width: 1.5;" x1="705.5" x2="856.5" y1="233.4141" y2="233.4141"/><!--class Profile--><rect fill="#FEFECE" filter="url(#fm3q3wi3xmz0q)" height="60.8047" id="Profile" style="stroke: #A80036; stroke-width: 1.5;" width="71" x="892.5" y="167.5"/><ellipse cx="907.5" cy="183.5" fill="#ADD1B2" rx="11" ry="11" style="stroke: #A80036; stroke-width: 1.0;"/><path d="M909.8438,179.1719 L910.0156,179.25 C910.2344,178.9375 910.4375,178.8438 910.7344,178.8438 C911.0313,178.8438 911.3125,178.9844 911.4688,179.25 C911.5625,179.4063 911.5781,179.5313 911.5781,179.9688 L911.5781,181.3906 C911.5781,181.8125 911.5469,182 911.4375,182.1563 C911.2656,182.375 911,182.5156 910.7344,182.5156 C910.5156,182.5156 910.2813,182.4063 910.1406,182.2656 C910,182.1406 909.9688,182.0156 909.9063,181.6094 C909.8125,181.2031 909.6406,180.9844 909.1563,180.7031 C908.6875,180.4531 908.0781,180.2969 907.5,180.2969 C905.7656,180.2969 904.5156,181.6094 904.5156,183.3906 L904.5156,184.4844 C904.5156,186.1875 905.8125,187.2813 907.8594,187.2813 C908.625,187.2813 909.3125,187.1563 909.7344,186.8906 C909.9219,186.7969 909.9219,186.7969 910.375,186.3125 C910.5625,186.125 910.7656,186.0469 910.9844,186.0469 C911.4531,186.0469 911.8438,186.4375 911.8438,186.8906 C911.8438,187.2813 911.5156,187.7344 910.9375,188.1406 C910.1875,188.6875 909.0313,188.9844 907.8125,188.9844 C904.9219,188.9844 902.8125,187.0938 902.8125,184.5156 L902.8125,183.3906 C902.8125,180.6719 904.8125,178.5938 907.4375,178.5938 C908.3125,178.5938 908.9063,178.7344 909.8438,179.1719 Z "/><text fill="#000000" font-family="sans-serif" font-size="12" lengthAdjust="spacingAndGlyphs" textLength="39" x="921.5" y="187.6543">Profile</text><line style="stroke: #A80036; stroke-width: 1.5;" x1="893.5" x2="962.5" y1="199.5" y2="199.5"/><rect fill="none" height="6" style="stroke: #C82930; stroke-width: 1.0;" width="6" x="900.5" y="208.4023"/><text fill="#000000" font-family="sans-serif" font-size="11" lengthAdjust="spacingAndGlyphs" textLength="32" x="912.5" y="213.7104">photo</text><line style="stroke: #A80036; stroke-width: 1.5;" x1="893.5" x2="962.5" y1="220.3047" y2="220.3047"/><!--class Booklet--><rect fill="#FEFECE" filter="url(#fm3q3wi3xmz0q)" height="48" id="Booklet" style="stroke: #A80036; stroke-width: 1.5;" width="79" x="38.5" y="614"/><ellipse cx="53.5" cy="630" fill="#ADD1B2" rx="11" ry="11" style="stroke: #A80036; stroke-width: 1.0;"/><path d="M55.8438,625.6719 L56.0156,625.75 C56.2344,625.4375 56.4375,625.3438 56.7344,625.3438 C57.0313,625.3438 57.3125,625.4844 57.4688,625.75 C57.5625,625.9063 57.5781,626.0313 57.5781,626.4688 L57.5781,627.8906 C57.5781,628.3125 57.5469,628.5 57.4375,628.6563 C57.2656,628.875 57,629.0156 56.7344,629.0156 C56.5156,629.0156 56.2813,628.9063 56.1406,628.7656 C56,628.6406 55.9688,628.5156 55.9063,628.1094 C55.8125,627.7031 55.6406,627.4844 55.1563,627.2031 C54.6875,626.9531 54.0781,626.7969 53.5,626.7969 C51.7656,626.7969 50.5156,628.1094 50.5156,629.8906 L50.5156,630.9844 C50.5156,632.6875 51.8125,633.7813 53.8594,633.7813 C54.625,633.7813 55.3125,633.6563 55.7344,633.3906 C55.9219,633.2969 55.9219,633.2969 56.375,632.8125 C56.5625,632.625 56.7656,632.5469 56.9844,632.5469 C57.4531,632.5469 57.8438,632.9375 57.8438,633.3906 C57.8438,633.7813 57.5156,634.2344 56.9375,634.6406 C56.1875,635.1875 55.0313,635.4844 53.8125,635.4844 C50.9219,635.4844 48.8125,633.5938 48.8125,631.0156 L48.8125,629.8906 C48.8125,627.1719 50.8125,625.0938 53.4375,625.0938 C54.3125,625.0938 54.9063,625.2344 55.8438,625.6719 Z "/><text fill="#000000" font-family="sans-serif" font-size="12" lengthAdjust="spacingAndGlyphs" textLength="47" x="67.5" y="634.1543">Booklet</text><line style="stroke: #A80036; stroke-width: 1.5;" x1="39.5" x2="116.5" y1="646" y2="646"/><line style="stroke: #A80036; stroke-width: 1.5;" x1="39.5" x2="116.5" y1="654" y2="654"/><!--class DistributionBeneficiary--><rect fill="#FEFECE" filter="url(#fm3q3wi3xmz0q)" height="48" id="DistributionBeneficiary" style="stroke: #A80036; stroke-width: 1.5;" width="172" x="153" y="614"/><ellipse cx="168" cy="630" fill="#ADD1B2" rx="11" ry="11" style="stroke: #A80036; stroke-width: 1.0;"/><path d="M170.3438,625.6719 L170.5156,625.75 C170.7344,625.4375 170.9375,625.3438 171.2344,625.3438 C171.5313,625.3438 171.8125,625.4844 171.9688,625.75 C172.0625,625.9063 172.0781,626.0313 172.0781,626.4688 L172.0781,627.8906 C172.0781,628.3125 172.0469,628.5 171.9375,628.6563 C171.7656,628.875 171.5,629.0156 171.2344,629.0156 C171.0156,629.0156 170.7813,628.9063 170.6406,628.7656 C170.5,628.6406 170.4688,628.5156 170.4063,628.1094 C170.3125,627.7031 170.1406,627.4844 169.6563,627.2031 C169.1875,626.9531 168.5781,626.7969 168,626.7969 C166.2656,626.7969 165.0156,628.1094 165.0156,629.8906 L165.0156,630.9844 C165.0156,632.6875 166.3125,633.7813 168.3594,633.7813 C169.125,633.7813 169.8125,633.6563 170.2344,633.3906 C170.4219,633.2969 170.4219,633.2969 170.875,632.8125 C171.0625,632.625 171.2656,632.5469 171.4844,632.5469 C171.9531,632.5469 172.3438,632.9375 172.3438,633.3906 C172.3438,633.7813 172.0156,634.2344 171.4375,634.6406 C170.6875,635.1875 169.5313,635.4844 168.3125,635.4844 C165.4219,635.4844 163.3125,633.5938 163.3125,631.0156 L163.3125,629.8906 C163.3125,627.1719 165.3125,625.0938 167.9375,625.0938 C168.8125,625.0938 169.4063,625.2344 170.3438,625.6719 Z "/><text fill="#000000" font-family="sans-serif" font-size="12" lengthAdjust="spacingAndGlyphs" textLength="140" x="182" y="634.1543">DistributionBeneficiary</text><line style="stroke: #A80036; stroke-width: 1.5;" x1="154" x2="324" y1="646" y2="646"/><line style="stroke: #A80036; stroke-width: 1.5;" x1="154" x2="324" y1="654" y2="654"/><!--class Household--><rect fill="#FEFECE" filter="url(#fm3q3wi3xmz0q)" height="48" id="Household" style="stroke: #A80036; stroke-width: 1.5;" width="99" x="360.5" y="614"/><ellipse cx="375.5" cy="630" fill="#ADD1B2" rx="11" ry="11" style="stroke: #A80036; stroke-width: 1.0;"/><path d="M377.8438,625.6719 L378.0156,625.75 C378.2344,625.4375 378.4375,625.3438 378.7344,625.3438 C379.0313,625.3438 379.3125,625.4844 379.4688,625.75 C379.5625,625.9063 379.5781,626.0313 379.5781,626.4688 L379.5781,627.8906 C379.5781,628.3125 379.5469,628.5 379.4375,628.6563 C379.2656,628.875 379,629.0156 378.7344,629.0156 C378.5156,629.0156 378.2813,628.9063 378.1406,628.7656 C378,628.6406 377.9688,628.5156 377.9063,628.1094 C377.8125,627.7031 377.6406,627.4844 377.1563,627.2031 C376.6875,626.9531 376.0781,626.7969 375.5,626.7969 C373.7656,626.7969 372.5156,628.1094 372.5156,629.8906 L372.5156,630.9844 C372.5156,632.6875 373.8125,633.7813 375.8594,633.7813 C376.625,633.7813 377.3125,633.6563 377.7344,633.3906 C377.9219,633.2969 377.9219,633.2969 378.375,632.8125 C378.5625,632.625 378.7656,632.5469 378.9844,632.5469 C379.4531,632.5469 379.8438,632.9375 379.8438,633.3906 C379.8438,633.7813 379.5156,634.2344 378.9375,634.6406 C378.1875,635.1875 377.0313,635.4844 375.8125,635.4844 C372.9219,635.4844 370.8125,633.5938 370.8125,631.0156 L370.8125,629.8906 C370.8125,627.1719 372.8125,625.0938 375.4375,625.0938 C376.3125,625.0938 376.9063,625.2344 377.8438,625.6719 Z "/><text fill="#000000" font-family="sans-serif" font-size="12" lengthAdjust="spacingAndGlyphs" textLength="67" x="389.5" y="634.1543">Household</text><line style="stroke: #A80036; stroke-width: 1.5;" x1="361.5" x2="458.5" y1="646" y2="646"/><line style="stroke: #A80036; stroke-width: 1.5;" x1="361.5" x2="458.5" y1="654" y2="654"/><!--class ImportedBeneficiary--><rect fill="#FEFECE" filter="url(#fm3q3wi3xmz0q)" height="48" id="ImportedBeneficiary" style="stroke: #A80036; stroke-width: 1.5;" width="156" x="495" y="614"/><ellipse cx="510" cy="630" fill="#ADD1B2" rx="11" ry="11" style="stroke: #A80036; stroke-width: 1.0;"/><path d="M512.3438,625.6719 L512.5156,625.75 C512.7344,625.4375 512.9375,625.3438 513.2344,625.3438 C513.5313,625.3438 513.8125,625.4844 513.9688,625.75 C514.0625,625.9063 514.0781,626.0313 514.0781,626.4688 L514.0781,627.8906 C514.0781,628.3125 514.0469,628.5 513.9375,628.6563 C513.7656,628.875 513.5,629.0156 513.2344,629.0156 C513.0156,629.0156 512.7813,628.9063 512.6406,628.7656 C512.5,628.6406 512.4688,628.5156 512.4063,628.1094 C512.3125,627.7031 512.1406,627.4844 511.6563,627.2031 C511.1875,626.9531 510.5781,626.7969 510,626.7969 C508.2656,626.7969 507.0156,628.1094 507.0156,629.8906 L507.0156,630.9844 C507.0156,632.6875 508.3125,633.7813 510.3594,633.7813 C511.125,633.7813 511.8125,633.6563 512.2344,633.3906 C512.4219,633.2969 512.4219,633.2969 512.875,632.8125 C513.0625,632.625 513.2656,632.5469 513.4844,632.5469 C513.9531,632.5469 514.3438,632.9375 514.3438,633.3906 C514.3438,633.7813 514.0156,634.2344 513.4375,634.6406 C512.6875,635.1875 511.5313,635.4844 510.3125,635.4844 C507.4219,635.4844 505.3125,633.5938 505.3125,631.0156 L505.3125,629.8906 C505.3125,627.1719 507.3125,625.0938 509.9375,625.0938 C510.8125,625.0938 511.4063,625.2344 512.3438,625.6719 Z "/><text fill="#000000" font-family="sans-serif" font-size="12" lengthAdjust="spacingAndGlyphs" textLength="124" x="524" y="634.1543">ImportedBeneficiary</text><line style="stroke: #A80036; stroke-width: 1.5;" x1="496" x2="650" y1="646" y2="646"/><line style="stroke: #A80036; stroke-width: 1.5;" x1="496" x2="650" y1="654" y2="654"/><!--class TransactionGeneralRelief--><rect fill="#FEFECE" filter="url(#fm3q3wi3xmz0q)" height="48" id="TransactionGeneralRelief" style="stroke: #A80036; stroke-width: 1.5;" width="189" x="686.5" y="614"/><ellipse cx="701.5" cy="630" fill="#ADD1B2" rx="11" ry="11" style="stroke: #A80036; stroke-width: 1.0;"/><path d="M703.8438,625.6719 L704.0156,625.75 C704.2344,625.4375 704.4375,625.3438 704.7344,625.3438 C705.0313,625.3438 705.3125,625.4844 705.4688,625.75 C705.5625,625.9063 705.5781,626.0313 705.5781,626.4688 L705.5781,627.8906 C705.5781,628.3125 705.5469,628.5 705.4375,628.6563 C705.2656,628.875 705,629.0156 704.7344,629.0156 C704.5156,629.0156 704.2813,628.9063 704.1406,628.7656 C704,628.6406 703.9688,628.5156 703.9063,628.1094 C703.8125,627.7031 703.6406,627.4844 703.1563,627.2031 C702.6875,626.9531 702.0781,626.7969 701.5,626.7969 C699.7656,626.7969 698.5156,628.1094 698.5156,629.8906 L698.5156,630.9844 C698.5156,632.6875 699.8125,633.7813 701.8594,633.7813 C702.625,633.7813 703.3125,633.6563 703.7344,633.3906 C703.9219,633.2969 703.9219,633.2969 704.375,632.8125 C704.5625,632.625 704.7656,632.5469 704.9844,632.5469 C705.4531,632.5469 705.8438,632.9375 705.8438,633.3906 C705.8438,633.7813 705.5156,634.2344 704.9375,634.6406 C704.1875,635.1875 703.0313,635.4844 701.8125,635.4844 C698.9219,635.4844 696.8125,633.5938 696.8125,631.0156 L696.8125,629.8906 C696.8125,627.1719 698.8125,625.0938 701.4375,625.0938 C702.3125,625.0938 702.9063,625.2344 703.8438,625.6719 Z "/><text fill="#000000" font-family="sans-serif" font-size="12" lengthAdjust="spacingAndGlyphs" textLength="157" x="715.5" y="634.1543">TransactionGeneralRelief</text><line style="stroke: #A80036; stroke-width: 1.5;" x1="687.5" x2="874.5" y1="646" y2="646"/><line style="stroke: #A80036; stroke-width: 1.5;" x1="687.5" x2="874.5" y1="654" y2="654"/><!--class TransactionMobileMoney--><rect fill="#FEFECE" filter="url(#fm3q3wi3xmz0q)" height="48" id="TransactionMobileMoney" style="stroke: #A80036; stroke-width: 1.5;" width="186" x="911" y="614"/><ellipse cx="926" cy="630" fill="#ADD1B2" rx="11" ry="11" style="stroke: #A80036; stroke-width: 1.0;"/><path d="M928.3438,625.6719 L928.5156,625.75 C928.7344,625.4375 928.9375,625.3438 929.2344,625.3438 C929.5313,625.3438 929.8125,625.4844 929.9688,625.75 C930.0625,625.9063 930.0781,626.0313 930.0781,626.4688 L930.0781,627.8906 C930.0781,628.3125 930.0469,628.5 929.9375,628.6563 C929.7656,628.875 929.5,629.0156 929.2344,629.0156 C929.0156,629.0156 928.7813,628.9063 928.6406,628.7656 C928.5,628.6406 928.4688,628.5156 928.4063,628.1094 C928.3125,627.7031 928.1406,627.4844 927.6563,627.2031 C927.1875,626.9531 926.5781,626.7969 926,626.7969 C924.2656,626.7969 923.0156,628.1094 923.0156,629.8906 L923.0156,630.9844 C923.0156,632.6875 924.3125,633.7813 926.3594,633.7813 C927.125,633.7813 927.8125,633.6563 928.2344,633.3906 C928.4219,633.2969 928.4219,633.2969 928.875,632.8125 C929.0625,632.625 929.2656,632.5469 929.4844,632.5469 C929.9531,632.5469 930.3438,632.9375 930.3438,633.3906 C930.3438,633.7813 930.0156,634.2344 929.4375,634.6406 C928.6875,635.1875 927.5313,635.4844 926.3125,635.4844 C923.4219,635.4844 921.3125,633.5938 921.3125,631.0156 L921.3125,629.8906 C921.3125,627.1719 923.3125,625.0938 925.9375,625.0938 C926.8125,625.0938 927.4063,625.2344 928.3438,625.6719 Z "/><text fill="#000000" font-family="sans-serif" font-size="12" lengthAdjust="spacingAndGlyphs" textLength="154" x="940" y="634.1543">TransactionMobileMoney</text><line style="stroke: #A80036; stroke-width: 1.5;" x1="912" x2="1096" y1="646" y2="646"/><line style="stroke: #A80036; stroke-width: 1.5;" x1="912" x2="1096" y1="654" y2="654"/><!--class TransactionQRVoucher--><rect fill="#FEFECE" filter="url(#fm3q3wi3xmz0q)" height="48" id="TransactionQRVoucher" style="stroke: #A80036; stroke-width: 1.5;" width="175" x="1132.5" y="614"/><ellipse cx="1147.5" cy="630" fill="#ADD1B2" rx="11" ry="11" style="stroke: #A80036; stroke-width: 1.0;"/><path d="M1149.8438,625.6719 L1150.0156,625.75 C1150.2344,625.4375 1150.4375,625.3438 1150.7344,625.3438 C1151.0313,625.3438 1151.3125,625.4844 1151.4688,625.75 C1151.5625,625.9063 1151.5781,626.0313 1151.5781,626.4688 L1151.5781,627.8906 C1151.5781,628.3125 1151.5469,628.5 1151.4375,628.6563 C1151.2656,628.875 1151,629.0156 1150.7344,629.0156 C1150.5156,629.0156 1150.2813,628.9063 1150.1406,628.7656 C1150,628.6406 1149.9688,628.5156 1149.9063,628.1094 C1149.8125,627.7031 1149.6406,627.4844 1149.1563,627.2031 C1148.6875,626.9531 1148.0781,626.7969 1147.5,626.7969 C1145.7656,626.7969 1144.5156,628.1094 1144.5156,629.8906 L1144.5156,630.9844 C1144.5156,632.6875 1145.8125,633.7813 1147.8594,633.7813 C1148.625,633.7813 1149.3125,633.6563 1149.7344,633.3906 C1149.9219,633.2969 1149.9219,633.2969 1150.375,632.8125 C1150.5625,632.625 1150.7656,632.5469 1150.9844,632.5469 C1151.4531,632.5469 1151.8438,632.9375 1151.8438,633.3906 C1151.8438,633.7813 1151.5156,634.2344 1150.9375,634.6406 C1150.1875,635.1875 1149.0313,635.4844 1147.8125,635.4844 C1144.9219,635.4844 1142.8125,633.5938 1142.8125,631.0156 L1142.8125,629.8906 C1142.8125,627.1719 1144.8125,625.0938 1147.4375,625.0938 C1148.3125,625.0938 1148.9063,625.2344 1149.8438,625.6719 Z "/><text fill="#000000" font-family="sans-serif" font-size="12" lengthAdjust="spacingAndGlyphs" textLength="143" x="1161.5" y="634.1543">TransactionQRVoucher</text><line style="stroke: #A80036; stroke-width: 1.5;" x1="1133.5" x2="1306.5" y1="646" y2="646"/><line style="stroke: #A80036; stroke-width: 1.5;" x1="1133.5" x2="1306.5" y1="654" y2="654"/><!--link Gender to Beneficiary--><path d="M87.3575,243.98 C91.7729,247.614 96.3519,251.024 101,254 C234.966,339.761 416.227,393.892 510.381,418.134 " fill="none" id="Gender-Beneficiary" style="stroke: #A80036; stroke-width: 1.0;"/><polygon fill="#A80036" points="77.3961,235.197,79.2512,242.1654,86.3971,243.1331,84.542,236.1647,77.3961,235.197" style="stroke: #A80036; stroke-width: 1.0;"/><text fill="#000000" font-family="sans-serif" font-size="13" lengthAdjust="spacingAndGlyphs" textLength="8" x="74.0992" y="254.7102">1</text><text fill="#000000" font-family="sans-serif" font-size="13" lengthAdjust="spacingAndGlyphs" textLength="8" x="494.6782" y="412.5028">1</text><!--link ResidencyStatus to Beneficiary--><path d="M254.184,242.248 C260.528,246.247 266.875,250.215 273,254 C354.391,304.291 449.389,360.572 510.319,396.364 " fill="none" id="ResidencyStatus-Beneficiary" style="stroke: #A80036; stroke-width: 1.0;"/><polygon fill="#A80036" points="242.817,235.051,245.7467,241.6401,252.9558,241.47,250.0261,234.8809,242.817,235.051" style="stroke: #A80036; stroke-width: 1.0;"/><text fill="#000000" font-family="sans-serif" font-size="13" lengthAdjust="spacingAndGlyphs" textLength="8" x="243.3992" y="254.54">1</text><text fill="#000000" font-family="sans-serif" font-size="13" lengthAdjust="spacingAndGlyphs" textLength="8" x="494.609" y="388.2157">1</text><!--link BeneficiaryStatus to Beneficiary--><path d="M402.398,244.694 C433.122,278.607 475.551,325.438 510.409,363.914 " fill="none" id="BeneficiaryStatus-Beneficiary" style="stroke: #A80036; stroke-width: 1.0;"/><polygon fill="#A80036" points="393.66,235.05,394.7242,242.1822,401.717,243.943,400.6528,236.8108,393.66,235.05" style="stroke: #A80036; stroke-width: 1.0;"/><text fill="#000000" font-family="sans-serif" font-size="13" lengthAdjust="spacingAndGlyphs" textLength="8" x="390.4068" y="254.5388">1</text><text fill="#000000" font-family="sans-serif" font-size="13" lengthAdjust="spacingAndGlyphs" textLength="8" x="494.2932" y="351.5289">1</text><!--link NationalId to Beneficiary--><path d="M526.313,247.835 C531.21,267.258 537.078,290.529 542.973,313.911 " fill="none" id="NationalId-Beneficiary" style="stroke: #A80036; stroke-width: 1.0;"/><polygon fill="#A80036" points="523.089,235.05,520.6774,241.8459,526.023,246.6858,528.4346,239.8899,523.089,235.05" style="stroke: #A80036; stroke-width: 1.0;"/><text fill="#000000" font-family="sans-serif" font-size="13" lengthAdjust="spacingAndGlyphs" textLength="8" x="515.9319" y="254.5388">1</text><text fill="#000000" font-family="sans-serif" font-size="13" lengthAdjust="spacingAndGlyphs" textLength="8" x="532.7931" y="302.8062">1</text><!--link Phone to Beneficiary--><path d="M603.937,266.763 C599.479,281.515 595.016,297.544 590.859,313.634 " fill="none" id="Phone-Beneficiary" style="stroke: #A80036; stroke-width: 1.0;"/><polygon fill="#A80036" points="607.844,254.158,602.2465,258.7043,604.2902,265.6197,609.8877,261.0734,607.844,254.158" style="stroke: #A80036; stroke-width: 1.0;"/><text fill="#000000" font-family="sans-serif" font-size="13" lengthAdjust="spacingAndGlyphs" textLength="8" x="596.2906" y="273.9899">2</text><text fill="#000000" font-family="sans-serif" font-size="13" lengthAdjust="spacingAndGlyphs" textLength="8" x="583.7035" y="302.911">1</text><!--link Phone to Beneficiary--><path d="M627.908,267.21 C624.857,281.839 621.155,297.707 617.104,313.634 " fill="none" id="Phone-Beneficiary-1" style="stroke: #A80036; stroke-width: 1.0;"/><polygon fill="#A80036" points="630.517,254.158,625.4183,259.2573,628.1644,265.9251,633.2631,260.8258,630.517,254.158" style="stroke: #A80036; stroke-width: 1.0;"/><text fill="#000000" font-family="sans-serif" font-size="13" lengthAdjust="spacingAndGlyphs" textLength="8" x="621.7269" y="273.9899">2</text><text fill="#000000" font-family="sans-serif" font-size="13" lengthAdjust="spacingAndGlyphs" textLength="8" x="611.5478" y="302.911">1</text><!--link VulnerabilityCriteria to Beneficiary--><path d="M734.834,250.937 C705.701,283.711 667.692,326.472 635.83,362.316 " fill="none" id="VulnerabilityCriteria-Beneficiary" style="stroke: #A80036; stroke-width: 1.0;"/><polygon fill="#A80036" points="743.574,241.105,736.5981,242.9316,735.6011,250.0735,742.5771,248.2469,743.574,241.105" style="stroke: #A80036; stroke-width: 1.0;"/><text fill="#000000" font-family="sans-serif" font-size="13" lengthAdjust="spacingAndGlyphs" textLength="20" x="715.7191" y="261.5301">0-*</text><text fill="#000000" font-family="sans-serif" font-size="13" lengthAdjust="spacingAndGlyphs" textLength="8" x="643.5572" y="350.2309">1</text><!--link Profile to Beneficiary--><path d="M892.84,238.159 C887.111,243.738 881.062,249.203 875,254 C798.293,314.706 699.062,369.652 635.702,402.199 " fill="none" id="Profile-Beneficiary" style="stroke: #A80036; stroke-width: 1.0;"/><polygon fill="#A80036" points="902.122,228.759,895.06,230.2177,893.6903,237.2975,900.7523,235.8388,902.122,228.759" style="stroke: #A80036; stroke-width: 1.0;"/><text fill="#000000" font-family="sans-serif" font-size="13" lengthAdjust="spacingAndGlyphs" textLength="8" x="888.2398" y="248.3904">1</text><text fill="#000000" font-family="sans-serif" font-size="13" lengthAdjust="spacingAndGlyphs" textLength="8" x="643.4144" y="394.7253">1</text><!--link Beneficiary to Booklet--><path d="M498.069,465.578 C391.574,509.037 200.216,587.1259 117.676,620.809 " fill="none" id="Beneficiary-Booklet" style="stroke: #A80036; stroke-width: 1.0;"/><polygon fill="#FFFFFF" points="510.308,460.583,503.2413,459.1472,499.1979,465.118,506.2646,466.5539,510.308,460.583" style="stroke: #A80036; stroke-width: 1.0;"/><text fill="#000000" font-family="sans-serif" font-size="13" lengthAdjust="spacingAndGlyphs" textLength="8" x="494.5967" y="459.86">1</text><text fill="#000000" font-family="sans-serif" font-size="13" lengthAdjust="spacingAndGlyphs" textLength="20" x="125.1084" y="613.8175">0-*</text><!--link Beneficiary to DistributionBeneficiary--><path d="M499.013,479.747 C430.37,521.261 330.945,581.3923 277.103,613.9556 " fill="none" id="Beneficiary-DistributionBeneficiary" style="stroke: #A80036; stroke-width: 1.0;"/><polygon fill="#A80036" points="510.177,472.995,502.9729,472.677,499.9086,479.2046,507.1126,479.5226,510.177,472.995" style="stroke: #A80036; stroke-width: 1.0;"/><text fill="#000000" font-family="sans-serif" font-size="13" lengthAdjust="spacingAndGlyphs" textLength="8" x="494.4506" y="490.4415">1</text><text fill="#000000" font-family="sans-serif" font-size="13" lengthAdjust="spacingAndGlyphs" textLength="20" x="264.3044" y="602.9563">0-*</text><!--link Beneficiary to Household--><path d="M502.188,522.754 C475.375,555.983 446.991,591.1586 428.917,613.5565 " fill="none" id="Beneficiary-Household" style="stroke: #A80036; stroke-width: 1.0;"/><polygon fill="#A80036" points="510.446,512.521,503.5651,514.6783,502.91,521.8596,509.7909,519.7023,510.446,512.521" style="stroke: #A80036; stroke-width: 1.0;"/><text fill="#000000" font-family="sans-serif" font-size="13" lengthAdjust="spacingAndGlyphs" textLength="20" x="482.5104" y="517.3592">1-*</text><text fill="#000000" font-family="sans-serif" font-size="13" lengthAdjust="spacingAndGlyphs" textLength="20" x="411.0905" y="602.8534">0-*</text><!--link Beneficiary to ImportedBeneficiary--><path d="M573,567.3875 C573,585.1225 573,601.4239 573,613.7865 " fill="none" id="Beneficiary-ImportedBeneficiary" style="stroke: #A80036; stroke-width: 1.0;"/><polygon fill="#A80036" points="573,554.256,569,560.256,573,566.256,577,560.256,573,554.256" style="stroke: #A80036; stroke-width: 1.0;"/><text fill="#000000" font-family="sans-serif" font-size="13" lengthAdjust="spacingAndGlyphs" textLength="8" x="564.7563" y="574.1099">1</text><text fill="#000000" font-family="sans-serif" font-size="13" lengthAdjust="spacingAndGlyphs" textLength="8" x="563.975" y="602.7438">1</text><!--link NationalIdType to NationalId--><path d="M504.573,95.322 C506.554,116.685 508.83,141.239 510.65,160.865 " fill="none" id="NationalIdType-NationalId" style="stroke: #A80036; stroke-width: 1.0;"/><polygon fill="#A80036" points="503.353,82.168,499.9239,88.5116,504.4607,94.1168,507.8898,87.7731,503.353,82.168" style="stroke: #A80036; stroke-width: 1.0;"/><text fill="#000000" font-family="sans-serif" font-size="13" lengthAdjust="spacingAndGlyphs" textLength="8" x="495.2458" y="101.6764">1</text><text fill="#000000" font-family="sans-serif" font-size="13" lengthAdjust="spacingAndGlyphs" textLength="8" x="501.3408" y="150.0279">1</text><!--link PhoneType to Phone--><path d="M643.099,95.339 C641.618,110.241 639.984,126.695 638.469,141.946 " fill="none" id="PhoneType-Phone" style="stroke: #A80036; stroke-width: 1.0;"/><polygon fill="#A80036" points="644.407,82.168,639.8339,87.7435,643.2216,94.1093,647.7947,88.5338,644.407,82.168" style="stroke: #A80036; stroke-width: 1.0;"/><text fill="#000000" font-family="sans-serif" font-size="13" lengthAdjust="spacingAndGlyphs" textLength="8" x="635.1494" y="101.6764">1</text><text fill="#000000" font-family="sans-serif" font-size="13" lengthAdjust="spacingAndGlyphs" textLength="8" x="630.6572" y="130.877">1</text><!--link Beneficiary to TransactionGeneralRelief--><path d="M645.448,505.358 C684.449,543.234 729.989,587.4602 757.109,613.798 " fill="none" id="Beneficiary-TransactionGeneralRelief" style="stroke: #A80036; stroke-width: 1.0;"/><polygon fill="#A80036" points="635.689,495.881,637.2069,502.9305,644.298,504.2408,642.7801,497.1912,635.689,495.881" style="stroke: #A80036; stroke-width: 1.0;"/><text fill="#000000" font-family="sans-serif" font-size="13" lengthAdjust="spacingAndGlyphs" textLength="8" x="643.3999" y="499.2393">1</text><text fill="#000000" font-family="sans-serif" font-size="13" lengthAdjust="spacingAndGlyphs" textLength="8" x="741.9619" y="602.7583">1</text><!--link Beneficiary to TransactionMobileMoney--><path d="M647.708,470.014 C735.729,511.267 879.476,578.6386 954.654,613.8726 " fill="none" id="Beneficiary-TransactionMobileMoney" style="stroke: #A80036; stroke-width: 1.0;"/><polygon fill="#A80036" points="635.671,464.373,639.406,470.5414,646.5365,469.4662,642.8015,463.2977,635.671,464.373" style="stroke: #A80036; stroke-width: 1.0;"/><text fill="#000000" font-family="sans-serif" font-size="13" lengthAdjust="spacingAndGlyphs" textLength="8" x="643.3798" y="464.0882">1</text><text fill="#000000" font-family="sans-serif" font-size="13" lengthAdjust="spacingAndGlyphs" textLength="8" x="932.9841" y="602.852">1</text><!--link Beneficiary to TransactionQRVoucher--><path d="M648.049,458.431 C773.003,497.443 1022.19,575.2419 1146.27,613.9795 " fill="none" id="Beneficiary-TransactionQRVoucher" style="stroke: #A80036; stroke-width: 1.0;"/><polygon fill="#A80036" points="635.625,454.552,640.1604,460.1583,647.0798,458.1281,642.5444,452.5218,635.625,454.552" style="stroke: #A80036; stroke-width: 1.0;"/><text fill="#000000" font-family="sans-serif" font-size="13" lengthAdjust="spacingAndGlyphs" textLength="8" x="643.3285" y="453.1316">1</text><text fill="#000000" font-family="sans-serif" font-size="13" lengthAdjust="spacingAndGlyphs" textLength="8" x="1118.3517" y="602.9863">1</text><!--
@startuml
class Beneficiary {
    - id
    - localGivenName
    - localFamilyName
    - enGivenName
    - enFamilyName
    - gender
    - dateOfBirth
    - residencyStatus
    - beneficiaryStatus
    - nationalIds
    - phones
    - vulnerabilities
    - fullName
    - profile
    - distributionId
}

class Gender {
    - id
    - name
}

class ResidencyStatus {
    - id
    - name
}

class BeneficiaryStatus {
    - id
    - name
}

class NationalId {
    - type
    - number
}

class NationalIdType {
    - id
    - name
}

class Phone {
    - id
    - number
    - prefix
    - proxy
    - type
}

class PhoneType {
    - id
    - name
}

class VulnerabilityCriteria {
    - id
    - name
    - displayed
}

class Profile {
    - photo
}


 Gender "1" *- - "1" Beneficiary
 ResidencyStatus "1" *- - "1" Beneficiary
 BeneficiaryStatus "1" *- - "1" Beneficiary
 NationalId "1" *- - "1" Beneficiary
 Phone "2" *- - "1" Beneficiary
 VulnerabilityCriteria "0-*" *- - "1" Beneficiary
 Profile "1" *- - "1" Beneficiary
 Phone "2" *- - "1" Beneficiary


 Beneficiary "1" o- - "0-*" Booklet

 Beneficiary "1" *- - "0-*" DistributionBeneficiary
 
 Beneficiary "1-*" *- - "0-*" Household

 Beneficiary "1" *- - "1" ImportedBeneficiary
 
 NationalIdType "1" *- - "1" NationalId
 
 PhoneType "1" *- - "1" Phone
 
 Beneficiary "1" *- - "1" TransactionGeneralRelief

 Beneficiary "1" *- - "1" TransactionMobileMoney

 Beneficiary "1" *- - "1" TransactionQRVoucher
@enduml

PlantUML version 1.2019.05(Sat Apr 20 16:45:36 UTC 2019)
(GPL source distribution)
Java Runtime: Java(TM) SE Runtime Environment
JVM: Java HotSpot(TM) 64-Bit Server VM
Java Version: 1.7.0_25-b15
Operating System: Linux
Default Encoding: UTF-8
Language: en
Country: US
--></g></svg>