<?xml version="1.0" encoding="UTF-8" standalone="no"?><svg xmlns="http://www.w3.org/2000/svg" xmlns:xlink="http://www.w3.org/1999/xlink" contentScriptType="application/ecmascript" contentStyleType="text/css" height="673px" preserveAspectRatio="none" style="width:804px;height:673px;" version="1.1" viewBox="0 0 804 673" width="804px" zoomAndPan="magnify"><defs><filter height="300%" id="fwr60yd2j5qns" width="300%" x="-1" y="-1"><feGaussianBlur result="blurOut" stdDeviation="2.0"/><feColorMatrix in="blurOut" result="blurOut2" type="matrix" values="0 0 0 0 0 0 0 0 0 0 0 0 0 0 0 0 0 0 .4 0"/><feOffset dx="4.0" dy="4.0" in="blurOut2" result="blurOut3"/><feBlend in="SourceGraphic" in2="blurOut3" mode="normal"/></filter></defs><g><!--class Distribution--><rect fill="#FEFECE" filter="url(#fwr60yd2j5qns)" height="214.4609" id="Distribution" style="stroke: #A80036; stroke-width: 1.5;" width="164" x="358.5" y="340"/><ellipse cx="400.5" cy="356" fill="#ADD1B2" rx="11" ry="11" style="stroke: #A80036; stroke-width: 1.0;"/><path d="M402.8438,351.6719 L403.0156,351.75 C403.2344,351.4375 403.4375,351.3438 403.7344,351.3438 C404.0313,351.3438 404.3125,351.4844 404.4688,351.75 C404.5625,351.9063 404.5781,352.0313 404.5781,352.4688 L404.5781,353.8906 C404.5781,354.3125 404.5469,354.5 404.4375,354.6563 C404.2656,354.875 404,355.0156 403.7344,355.0156 C403.5156,355.0156 403.2813,354.9063 403.1406,354.7656 C403,354.6406 402.9688,354.5156 402.9063,354.1094 C402.8125,353.7031 402.6406,353.4844 402.1563,353.2031 C401.6875,352.9531 401.0781,352.7969 400.5,352.7969 C398.7656,352.7969 397.5156,354.1094 397.5156,355.8906 L397.5156,356.9844 C397.5156,358.6875 398.8125,359.7813 400.8594,359.7813 C401.625,359.7813 402.3125,359.6563 402.7344,359.3906 C402.9219,359.2969 402.9219,359.2969 403.375,358.8125 C403.5625,358.625 403.7656,358.5469 403.9844,358.5469 C404.4531,358.5469 404.8438,358.9375 404.8438,359.3906 C404.8438,359.7813 404.5156,360.2344 403.9375,360.6406 C403.1875,361.1875 402.0313,361.4844 400.8125,361.4844 C397.9219,361.4844 395.8125,359.5938 395.8125,357.0156 L395.8125,355.8906 C395.8125,353.1719 397.8125,351.0938 400.4375,351.0938 C401.3125,351.0938 401.9063,351.2344 402.8438,351.6719 Z "/><text fill="#000000" font-family="sans-serif" font-size="12" lengthAdjust="spacingAndGlyphs" textLength="72" x="420.5" y="360.1543">Distribution</text><line style="stroke: #A80036; stroke-width: 1.5;" x1="359.5" x2="521.5" y1="372" y2="372"/><rect fill="none" height="6" style="stroke: #C82930; stroke-width: 1.0;" width="6" x="366.5" y="380.9023"/><text fill="#000000" font-family="sans-serif" font-size="11" lengthAdjust="spacingAndGlyphs" textLength="10" x="378.5" y="386.2104">id</text><rect fill="none" height="6" style="stroke: #C82930; stroke-width: 1.0;" width="6" x="366.5" y="393.707"/><text fill="#000000" font-family="sans-serif" font-size="11" lengthAdjust="spacingAndGlyphs" textLength="32" x="378.5" y="399.0151">name</text><rect fill="none" height="6" style="stroke: #C82930; stroke-width: 1.0;" width="6" x="366.5" y="406.5117"/><text fill="#000000" font-family="sans-serif" font-size="11" lengthAdjust="spacingAndGlyphs" textLength="44" x="378.5" y="411.8198">location</text><rect fill="none" height="6" style="stroke: #C82930; stroke-width: 1.0;" width="6" x="366.5" y="419.3164"/><text fill="#000000" font-family="sans-serif" font-size="11" lengthAdjust="spacingAndGlyphs" textLength="138" x="378.5" y="424.6245">distributionBeneficiaries</text><rect fill="none" height="6" style="stroke: #C82930; stroke-width: 1.0;" width="6" x="366.5" y="432.1211"/><text fill="#000000" font-family="sans-serif" font-size="11" lengthAdjust="spacingAndGlyphs" textLength="25" x="378.5" y="437.4292">date</text><rect fill="none" height="6" style="stroke: #C82930; stroke-width: 1.0;" width="6" x="366.5" y="444.9258"/><text fill="#000000" font-family="sans-serif" font-size="11" lengthAdjust="spacingAndGlyphs" textLength="39" x="378.5" y="450.2339">project</text><rect fill="none" height="6" style="stroke: #C82930; stroke-width: 1.0;" width="6" x="366.5" y="457.7305"/><text fill="#000000" font-family="sans-serif" font-size="11" lengthAdjust="spacingAndGlyphs" textLength="49" x="378.5" y="463.0386">projectId</text><rect fill="none" height="6" style="stroke: #C82930; stroke-width: 1.0;" width="6" x="366.5" y="470.5352"/><text fill="#000000" font-family="sans-serif" font-size="11" lengthAdjust="spacingAndGlyphs" textLength="93" x="378.5" y="475.8433">selectionCriteria</text><rect fill="none" height="6" style="stroke: #C82930; stroke-width: 1.0;" width="6" x="366.5" y="483.3398"/><text fill="#000000" font-family="sans-serif" font-size="11" lengthAdjust="spacingAndGlyphs" textLength="24" x="378.5" y="488.6479">type</text><rect fill="none" height="6" style="stroke: #C82930; stroke-width: 1.0;" width="6" x="366.5" y="496.1445"/><text fill="#000000" font-family="sans-serif" font-size="11" lengthAdjust="spacingAndGlyphs" textLength="73" x="378.5" y="501.4526">commodities</text><rect fill="none" height="6" style="stroke: #C82930; stroke-width: 1.0;" width="6" x="366.5" y="508.9492"/><text fill="#000000" font-family="sans-serif" font-size="11" lengthAdjust="spacingAndGlyphs" textLength="51" x="378.5" y="514.2573">validated</text><rect fill="none" height="6" style="stroke: #C82930; stroke-width: 1.0;" width="6" x="366.5" y="521.7539"/><text fill="#000000" font-family="sans-serif" font-size="11" lengthAdjust="spacingAndGlyphs" textLength="54" x="378.5" y="527.062">threshold</text><rect fill="none" height="6" style="stroke: #C82930; stroke-width: 1.0;" width="6" x="366.5" y="534.5586"/><text fill="#000000" font-family="sans-serif" font-size="11" lengthAdjust="spacingAndGlyphs" textLength="45" x="378.5" y="539.8667">finished</text><line style="stroke: #A80036; stroke-width: 1.5;" x1="359.5" x2="521.5" y1="546.4609" y2="546.4609"/><!--class DistributionType--><rect fill="#FEFECE" filter="url(#fwr60yd2j5qns)" height="73.6094" id="DistributionType" style="stroke: #A80036; stroke-width: 1.5;" width="133" x="6" y="174"/><ellipse cx="21" cy="190" fill="#ADD1B2" rx="11" ry="11" style="stroke: #A80036; stroke-width: 1.0;"/><path d="M23.3438,185.6719 L23.5156,185.75 C23.7344,185.4375 23.9375,185.3438 24.2344,185.3438 C24.5313,185.3438 24.8125,185.4844 24.9688,185.75 C25.0625,185.9063 25.0781,186.0313 25.0781,186.4688 L25.0781,187.8906 C25.0781,188.3125 25.0469,188.5 24.9375,188.6563 C24.7656,188.875 24.5,189.0156 24.2344,189.0156 C24.0156,189.0156 23.7813,188.9063 23.6406,188.7656 C23.5,188.6406 23.4688,188.5156 23.4063,188.1094 C23.3125,187.7031 23.1406,187.4844 22.6563,187.2031 C22.1875,186.9531 21.5781,186.7969 21,186.7969 C19.2656,186.7969 18.0156,188.1094 18.0156,189.8906 L18.0156,190.9844 C18.0156,192.6875 19.3125,193.7813 21.3594,193.7813 C22.125,193.7813 22.8125,193.6563 23.2344,193.3906 C23.4219,193.2969 23.4219,193.2969 23.875,192.8125 C24.0625,192.625 24.2656,192.5469 24.4844,192.5469 C24.9531,192.5469 25.3438,192.9375 25.3438,193.3906 C25.3438,193.7813 25.0156,194.2344 24.4375,194.6406 C23.6875,195.1875 22.5313,195.4844 21.3125,195.4844 C18.4219,195.4844 16.3125,193.5938 16.3125,191.0156 L16.3125,189.8906 C16.3125,187.1719 18.3125,185.0938 20.9375,185.0938 C21.8125,185.0938 22.4063,185.2344 23.3438,185.6719 Z "/><text fill="#000000" font-family="sans-serif" font-size="12" lengthAdjust="spacingAndGlyphs" textLength="101" x="35" y="194.1543">DistributionType</text><line style="stroke: #A80036; stroke-width: 1.5;" x1="7" x2="138" y1="206" y2="206"/><rect fill="none" height="6" style="stroke: #C82930; stroke-width: 1.0;" width="6" x="14" y="214.9023"/><text fill="#000000" font-family="sans-serif" font-size="11" lengthAdjust="spacingAndGlyphs" textLength="10" x="26" y="220.2104">id</text><rect fill="none" height="6" style="stroke: #C82930; stroke-width: 1.0;" width="6" x="14" y="227.707"/><text fill="#000000" font-family="sans-serif" font-size="11" lengthAdjust="spacingAndGlyphs" textLength="32" x="26" y="233.0151">name</text><line style="stroke: #A80036; stroke-width: 1.5;" x1="7" x2="138" y1="239.6094" y2="239.6094"/><!--class Commodity--><rect fill="#FEFECE" filter="url(#fwr60yd2j5qns)" height="112.0234" id="Commodity" style="stroke: #A80036; stroke-width: 1.5;" width="101" x="174" y="155"/><ellipse cx="189.45" cy="171" fill="#ADD1B2" rx="11" ry="11" style="stroke: #A80036; stroke-width: 1.0;"/><path d="M191.7938,166.6719 L191.9656,166.75 C192.1844,166.4375 192.3875,166.3438 192.6844,166.3438 C192.9813,166.3438 193.2625,166.4844 193.4188,166.75 C193.5125,166.9063 193.5281,167.0313 193.5281,167.4688 L193.5281,168.8906 C193.5281,169.3125 193.4969,169.5 193.3875,169.6563 C193.2156,169.875 192.95,170.0156 192.6844,170.0156 C192.4656,170.0156 192.2313,169.9063 192.0906,169.7656 C191.95,169.6406 191.9188,169.5156 191.8563,169.1094 C191.7625,168.7031 191.5906,168.4844 191.1063,168.2031 C190.6375,167.9531 190.0281,167.7969 189.45,167.7969 C187.7156,167.7969 186.4656,169.1094 186.4656,170.8906 L186.4656,171.9844 C186.4656,173.6875 187.7625,174.7813 189.8094,174.7813 C190.575,174.7813 191.2625,174.6563 191.6844,174.3906 C191.8719,174.2969 191.8719,174.2969 192.325,173.8125 C192.5125,173.625 192.7156,173.5469 192.9344,173.5469 C193.4031,173.5469 193.7938,173.9375 193.7938,174.3906 C193.7938,174.7813 193.4656,175.2344 192.8875,175.6406 C192.1375,176.1875 190.9813,176.4844 189.7625,176.4844 C186.8719,176.4844 184.7625,174.5938 184.7625,172.0156 L184.7625,170.8906 C184.7625,168.1719 186.7625,166.0938 189.3875,166.0938 C190.2625,166.0938 190.8563,166.2344 191.7938,166.6719 Z "/><text fill="#000000" font-family="sans-serif" font-size="12" lengthAdjust="spacingAndGlyphs" textLength="68" x="203.55" y="175.1543">Commodity</text><line style="stroke: #A80036; stroke-width: 1.5;" x1="175" x2="274" y1="187" y2="187"/><rect fill="none" height="6" style="stroke: #C82930; stroke-width: 1.0;" width="6" x="182" y="195.9023"/><text fill="#000000" font-family="sans-serif" font-size="11" lengthAdjust="spacingAndGlyphs" textLength="10" x="194" y="201.2104">id</text><rect fill="none" height="6" style="stroke: #C82930; stroke-width: 1.0;" width="6" x="182" y="208.707"/><text fill="#000000" font-family="sans-serif" font-size="11" lengthAdjust="spacingAndGlyphs" textLength="48" x="194" y="214.0151">modality</text><rect fill="none" height="6" style="stroke: #C82930; stroke-width: 1.0;" width="6" x="182" y="221.5117"/><text fill="#000000" font-family="sans-serif" font-size="11" lengthAdjust="spacingAndGlyphs" textLength="75" x="194" y="226.8198">modalityType</text><rect fill="none" height="6" style="stroke: #C82930; stroke-width: 1.0;" width="6" x="182" y="234.3164"/><text fill="#000000" font-family="sans-serif" font-size="11" lengthAdjust="spacingAndGlyphs" textLength="21" x="194" y="239.6245">unit</text><rect fill="none" height="6" style="stroke: #C82930; stroke-width: 1.0;" width="6" x="182" y="247.1211"/><text fill="#000000" font-family="sans-serif" font-size="11" lengthAdjust="spacingAndGlyphs" textLength="30" x="194" y="252.4292">value</text><line style="stroke: #A80036; stroke-width: 1.5;" x1="175" x2="274" y1="259.0234" y2="259.0234"/><!--class Modality--><rect fill="#FEFECE" filter="url(#fwr60yd2j5qns)" height="73.6094" id="Modality" style="stroke: #A80036; stroke-width: 1.5;" width="83" x="15" y="8"/><ellipse cx="30" cy="24" fill="#ADD1B2" rx="11" ry="11" style="stroke: #A80036; stroke-width: 1.0;"/><path d="M32.3438,19.6719 L32.5156,19.75 C32.7344,19.4375 32.9375,19.3438 33.2344,19.3438 C33.5313,19.3438 33.8125,19.4844 33.9688,19.75 C34.0625,19.9063 34.0781,20.0313 34.0781,20.4688 L34.0781,21.8906 C34.0781,22.3125 34.0469,22.5 33.9375,22.6563 C33.7656,22.875 33.5,23.0156 33.2344,23.0156 C33.0156,23.0156 32.7813,22.9063 32.6406,22.7656 C32.5,22.6406 32.4688,22.5156 32.4063,22.1094 C32.3125,21.7031 32.1406,21.4844 31.6563,21.2031 C31.1875,20.9531 30.5781,20.7969 30,20.7969 C28.2656,20.7969 27.0156,22.1094 27.0156,23.8906 L27.0156,24.9844 C27.0156,26.6875 28.3125,27.7813 30.3594,27.7813 C31.125,27.7813 31.8125,27.6563 32.2344,27.3906 C32.4219,27.2969 32.4219,27.2969 32.875,26.8125 C33.0625,26.625 33.2656,26.5469 33.4844,26.5469 C33.9531,26.5469 34.3438,26.9375 34.3438,27.3906 C34.3438,27.7813 34.0156,28.2344 33.4375,28.6406 C32.6875,29.1875 31.5313,29.4844 30.3125,29.4844 C27.4219,29.4844 25.3125,27.5938 25.3125,25.0156 L25.3125,23.8906 C25.3125,21.1719 27.3125,19.0938 29.9375,19.0938 C30.8125,19.0938 31.4063,19.2344 32.3438,19.6719 Z "/><text fill="#000000" font-family="sans-serif" font-size="12" lengthAdjust="spacingAndGlyphs" textLength="51" x="44" y="28.1543">Modality</text><line style="stroke: #A80036; stroke-width: 1.5;" x1="16" x2="97" y1="40" y2="40"/><rect fill="none" height="6" style="stroke: #C82930; stroke-width: 1.0;" width="6" x="23" y="48.9023"/><text fill="#000000" font-family="sans-serif" font-size="11" lengthAdjust="spacingAndGlyphs" textLength="10" x="35" y="54.2104">id</text><rect fill="none" height="6" style="stroke: #C82930; stroke-width: 1.0;" width="6" x="23" y="61.707"/><text fill="#000000" font-family="sans-serif" font-size="11" lengthAdjust="spacingAndGlyphs" textLength="32" x="35" y="67.0151">name</text><line style="stroke: #A80036; stroke-width: 1.5;" x1="16" x2="97" y1="73.6094" y2="73.6094"/><!--class ModalityType--><rect fill="#FEFECE" filter="url(#fwr60yd2j5qns)" height="73.6094" id="ModalityType" style="stroke: #A80036; stroke-width: 1.5;" width="112" x="133.5" y="8"/><ellipse cx="148.5" cy="24" fill="#ADD1B2" rx="11" ry="11" style="stroke: #A80036; stroke-width: 1.0;"/><path d="M150.8438,19.6719 L151.0156,19.75 C151.2344,19.4375 151.4375,19.3438 151.7344,19.3438 C152.0313,19.3438 152.3125,19.4844 152.4688,19.75 C152.5625,19.9063 152.5781,20.0313 152.5781,20.4688 L152.5781,21.8906 C152.5781,22.3125 152.5469,22.5 152.4375,22.6563 C152.2656,22.875 152,23.0156 151.7344,23.0156 C151.5156,23.0156 151.2813,22.9063 151.1406,22.7656 C151,22.6406 150.9688,22.5156 150.9063,22.1094 C150.8125,21.7031 150.6406,21.4844 150.1563,21.2031 C149.6875,20.9531 149.0781,20.7969 148.5,20.7969 C146.7656,20.7969 145.5156,22.1094 145.5156,23.8906 L145.5156,24.9844 C145.5156,26.6875 146.8125,27.7813 148.8594,27.7813 C149.625,27.7813 150.3125,27.6563 150.7344,27.3906 C150.9219,27.2969 150.9219,27.2969 151.375,26.8125 C151.5625,26.625 151.7656,26.5469 151.9844,26.5469 C152.4531,26.5469 152.8438,26.9375 152.8438,27.3906 C152.8438,27.7813 152.5156,28.2344 151.9375,28.6406 C151.1875,29.1875 150.0313,29.4844 148.8125,29.4844 C145.9219,29.4844 143.8125,27.5938 143.8125,25.0156 L143.8125,23.8906 C143.8125,21.1719 145.8125,19.0938 148.4375,19.0938 C149.3125,19.0938 149.9063,19.2344 150.8438,19.6719 Z "/><text fill="#000000" font-family="sans-serif" font-size="12" lengthAdjust="spacingAndGlyphs" textLength="80" x="162.5" y="28.1543">ModalityType</text><line style="stroke: #A80036; stroke-width: 1.5;" x1="134.5" x2="244.5" y1="40" y2="40"/><rect fill="none" height="6" style="stroke: #C82930; stroke-width: 1.0;" width="6" x="141.5" y="48.9023"/><text fill="#000000" font-family="sans-serif" font-size="11" lengthAdjust="spacingAndGlyphs" textLength="10" x="153.5" y="54.2104">id</text><rect fill="none" height="6" style="stroke: #C82930; stroke-width: 1.0;" width="6" x="141.5" y="61.707"/><text fill="#000000" font-family="sans-serif" font-size="11" lengthAdjust="spacingAndGlyphs" textLength="32" x="153.5" y="67.0151">name</text><line style="stroke: #A80036; stroke-width: 1.5;" x1="134.5" x2="244.5" y1="73.6094" y2="73.6094"/><!--class Criteria--><rect fill="#FEFECE" filter="url(#fwr60yd2j5qns)" height="137.6328" id="Criteria" style="stroke: #A80036; stroke-width: 1.5;" width="125" x="378" y="142"/><ellipse cx="414.6" cy="158" fill="#ADD1B2" rx="11" ry="11" style="stroke: #A80036; stroke-width: 1.0;"/><path d="M416.9438,153.6719 L417.1156,153.75 C417.3344,153.4375 417.5375,153.3438 417.8344,153.3438 C418.1313,153.3438 418.4125,153.4844 418.5688,153.75 C418.6625,153.9063 418.6781,154.0313 418.6781,154.4688 L418.6781,155.8906 C418.6781,156.3125 418.6469,156.5 418.5375,156.6563 C418.3656,156.875 418.1,157.0156 417.8344,157.0156 C417.6156,157.0156 417.3813,156.9063 417.2406,156.7656 C417.1,156.6406 417.0688,156.5156 417.0063,156.1094 C416.9125,155.7031 416.7406,155.4844 416.2563,155.2031 C415.7875,154.9531 415.1781,154.7969 414.6,154.7969 C412.8656,154.7969 411.6156,156.1094 411.6156,157.8906 L411.6156,158.9844 C411.6156,160.6875 412.9125,161.7813 414.9594,161.7813 C415.725,161.7813 416.4125,161.6563 416.8344,161.3906 C417.0219,161.2969 417.0219,161.2969 417.475,160.8125 C417.6625,160.625 417.8656,160.5469 418.0844,160.5469 C418.5531,160.5469 418.9438,160.9375 418.9438,161.3906 C418.9438,161.7813 418.6156,162.2344 418.0375,162.6406 C417.2875,163.1875 416.1313,163.4844 414.9125,163.4844 C412.0219,163.4844 409.9125,161.5938 409.9125,159.0156 L409.9125,157.8906 C409.9125,155.1719 411.9125,153.0938 414.5375,153.0938 C415.4125,153.0938 416.0063,153.2344 416.9438,153.6719 Z "/><text fill="#000000" font-family="sans-serif" font-size="12" lengthAdjust="spacingAndGlyphs" textLength="45" x="433.4" y="162.1543">Criteria</text><line style="stroke: #A80036; stroke-width: 1.5;" x1="379" x2="502" y1="174" y2="174"/><rect fill="none" height="6" style="stroke: #C82930; stroke-width: 1.0;" width="6" x="386" y="182.9023"/><text fill="#000000" font-family="sans-serif" font-size="11" lengthAdjust="spacingAndGlyphs" textLength="99" x="398" y="188.2104">target</text><rect fill="none" height="6" style="stroke: #C82930; stroke-width: 1.0;" width="6" x="386" y="195.707"/><text fill="#000000" font-family="sans-serif" font-size="11" lengthAdjust="spacingAndGlyphs" textLength="62" x="398" y="201.0151">tableString</text><rect fill="none" height="6" style="stroke: #C82930; stroke-width: 1.0;" width="6" x="386" y="208.5117"/><text fill="#000000" font-family="sans-serif" font-size="11" lengthAdjust="spacingAndGlyphs" textLength="24" x="398" y="213.8198">field</text><rect fill="none" height="6" style="stroke: #C82930; stroke-width: 1.0;" width="6" x="386" y="221.3164"/><text fill="#000000" font-family="sans-serif" font-size="11" lengthAdjust="spacingAndGlyphs" textLength="51" x="398" y="226.6245">condition</text><rect fill="none" height="6" style="stroke: #C82930; stroke-width: 1.0;" width="6" x="386" y="234.1211"/><text fill="#000000" font-family="sans-serif" font-size="11" lengthAdjust="spacingAndGlyphs" textLength="24" x="398" y="239.4292">type</text><rect fill="none" height="6" style="stroke: #C82930; stroke-width: 1.0;" width="6" x="386" y="246.9258"/><text fill="#000000" font-family="sans-serif" font-size="11" lengthAdjust="spacingAndGlyphs" textLength="30" x="398" y="252.2339">value</text><rect fill="none" height="6" style="stroke: #C82930; stroke-width: 1.0;" width="6" x="386" y="259.7305"/><text fill="#000000" font-family="sans-serif" font-size="11" lengthAdjust="spacingAndGlyphs" textLength="37" x="398" y="265.0386">weight</text><line style="stroke: #A80036; stroke-width: 1.5;" x1="379" x2="502" y1="271.6328" y2="271.6328"/><!--class CriteriaField--><rect fill="#FEFECE" filter="url(#fwr60yd2j5qns)" height="73.6094" id="CriteriaField" style="stroke: #A80036; stroke-width: 1.5;" width="106" x="280.5" y="8"/><ellipse cx="295.5" cy="24" fill="#ADD1B2" rx="11" ry="11" style="stroke: #A80036; stroke-width: 1.0;"/><path d="M297.8438,19.6719 L298.0156,19.75 C298.2344,19.4375 298.4375,19.3438 298.7344,19.3438 C299.0313,19.3438 299.3125,19.4844 299.4688,19.75 C299.5625,19.9063 299.5781,20.0313 299.5781,20.4688 L299.5781,21.8906 C299.5781,22.3125 299.5469,22.5 299.4375,22.6563 C299.2656,22.875 299,23.0156 298.7344,23.0156 C298.5156,23.0156 298.2813,22.9063 298.1406,22.7656 C298,22.6406 297.9688,22.5156 297.9063,22.1094 C297.8125,21.7031 297.6406,21.4844 297.1563,21.2031 C296.6875,20.9531 296.0781,20.7969 295.5,20.7969 C293.7656,20.7969 292.5156,22.1094 292.5156,23.8906 L292.5156,24.9844 C292.5156,26.6875 293.8125,27.7813 295.8594,27.7813 C296.625,27.7813 297.3125,27.6563 297.7344,27.3906 C297.9219,27.2969 297.9219,27.2969 298.375,26.8125 C298.5625,26.625 298.7656,26.5469 298.9844,26.5469 C299.4531,26.5469 299.8438,26.9375 299.8438,27.3906 C299.8438,27.7813 299.5156,28.2344 298.9375,28.6406 C298.1875,29.1875 297.0313,29.4844 295.8125,29.4844 C292.9219,29.4844 290.8125,27.5938 290.8125,25.0156 L290.8125,23.8906 C290.8125,21.1719 292.8125,19.0938 295.4375,19.0938 C296.3125,19.0938 296.9063,19.2344 297.8438,19.6719 Z "/><text fill="#000000" font-family="sans-serif" font-size="12" lengthAdjust="spacingAndGlyphs" textLength="74" x="309.5" y="28.1543">CriteriaField</text><line style="stroke: #A80036; stroke-width: 1.5;" x1="281.5" x2="385.5" y1="40" y2="40"/><rect fill="none" height="6" style="stroke: #C82930; stroke-width: 1.0;" width="6" x="288.5" y="48.9023"/><text fill="#000000" font-family="sans-serif" font-size="11" lengthAdjust="spacingAndGlyphs" textLength="10" x="300.5" y="54.2104">id</text><rect fill="none" height="6" style="stroke: #C82930; stroke-width: 1.0;" width="6" x="288.5" y="61.707"/><text fill="#000000" font-family="sans-serif" font-size="11" lengthAdjust="spacingAndGlyphs" textLength="32" x="300.5" y="67.0151">name</text><line style="stroke: #A80036; stroke-width: 1.5;" x1="281.5" x2="385.5" y1="73.6094" y2="73.6094"/><!--class CriteriaType--><rect fill="#FEFECE" filter="url(#fwr60yd2j5qns)" height="73.6094" id="CriteriaType" style="stroke: #A80036; stroke-width: 1.5;" width="106" x="421.5" y="8"/><ellipse cx="436.5" cy="24" fill="#ADD1B2" rx="11" ry="11" style="stroke: #A80036; stroke-width: 1.0;"/><path d="M438.8438,19.6719 L439.0156,19.75 C439.2344,19.4375 439.4375,19.3438 439.7344,19.3438 C440.0313,19.3438 440.3125,19.4844 440.4688,19.75 C440.5625,19.9063 440.5781,20.0313 440.5781,20.4688 L440.5781,21.8906 C440.5781,22.3125 440.5469,22.5 440.4375,22.6563 C440.2656,22.875 440,23.0156 439.7344,23.0156 C439.5156,23.0156 439.2813,22.9063 439.1406,22.7656 C439,22.6406 438.9688,22.5156 438.9063,22.1094 C438.8125,21.7031 438.6406,21.4844 438.1563,21.2031 C437.6875,20.9531 437.0781,20.7969 436.5,20.7969 C434.7656,20.7969 433.5156,22.1094 433.5156,23.8906 L433.5156,24.9844 C433.5156,26.6875 434.8125,27.7813 436.8594,27.7813 C437.625,27.7813 438.3125,27.6563 438.7344,27.3906 C438.9219,27.2969 438.9219,27.2969 439.375,26.8125 C439.5625,26.625 439.7656,26.5469 439.9844,26.5469 C440.4531,26.5469 440.8438,26.9375 440.8438,27.3906 C440.8438,27.7813 440.5156,28.2344 439.9375,28.6406 C439.1875,29.1875 438.0313,29.4844 436.8125,29.4844 C433.9219,29.4844 431.8125,27.5938 431.8125,25.0156 L431.8125,23.8906 C431.8125,21.1719 433.8125,19.0938 436.4375,19.0938 C437.3125,19.0938 437.9063,19.2344 438.8438,19.6719 Z "/><text fill="#000000" font-family="sans-serif" font-size="12" lengthAdjust="spacingAndGlyphs" textLength="74" x="450.5" y="28.1543">CriteriaType</text><line style="stroke: #A80036; stroke-width: 1.5;" x1="422.5" x2="526.5" y1="40" y2="40"/><rect fill="none" height="6" style="stroke: #C82930; stroke-width: 1.0;" width="6" x="429.5" y="48.9023"/><text fill="#000000" font-family="sans-serif" font-size="11" lengthAdjust="spacingAndGlyphs" textLength="10" x="441.5" y="54.2104">id</text><rect fill="none" height="6" style="stroke: #C82930; stroke-width: 1.0;" width="6" x="429.5" y="61.707"/><text fill="#000000" font-family="sans-serif" font-size="11" lengthAdjust="spacingAndGlyphs" textLength="32" x="441.5" y="67.0151">name</text><line style="stroke: #A80036; stroke-width: 1.5;" x1="422.5" x2="526.5" y1="73.6094" y2="73.6094"/><!--class CriteriaCondition--><rect fill="#FEFECE" filter="url(#fwr60yd2j5qns)" height="73.6094" id="CriteriaCondition" style="stroke: #A80036; stroke-width: 1.5;" width="136" x="562.5" y="8"/><ellipse cx="577.5" cy="24" fill="#ADD1B2" rx="11" ry="11" style="stroke: #A80036; stroke-width: 1.0;"/><path d="M579.8438,19.6719 L580.0156,19.75 C580.2344,19.4375 580.4375,19.3438 580.7344,19.3438 C581.0313,19.3438 581.3125,19.4844 581.4688,19.75 C581.5625,19.9063 581.5781,20.0313 581.5781,20.4688 L581.5781,21.8906 C581.5781,22.3125 581.5469,22.5 581.4375,22.6563 C581.2656,22.875 581,23.0156 580.7344,23.0156 C580.5156,23.0156 580.2813,22.9063 580.1406,22.7656 C580,22.6406 579.9688,22.5156 579.9063,22.1094 C579.8125,21.7031 579.6406,21.4844 579.1563,21.2031 C578.6875,20.9531 578.0781,20.7969 577.5,20.7969 C575.7656,20.7969 574.5156,22.1094 574.5156,23.8906 L574.5156,24.9844 C574.5156,26.6875 575.8125,27.7813 577.8594,27.7813 C578.625,27.7813 579.3125,27.6563 579.7344,27.3906 C579.9219,27.2969 579.9219,27.2969 580.375,26.8125 C580.5625,26.625 580.7656,26.5469 580.9844,26.5469 C581.4531,26.5469 581.8438,26.9375 581.8438,27.3906 C581.8438,27.7813 581.5156,28.2344 580.9375,28.6406 C580.1875,29.1875 579.0313,29.4844 577.8125,29.4844 C574.9219,29.4844 572.8125,27.5938 572.8125,25.0156 L572.8125,23.8906 C572.8125,21.1719 574.8125,19.0938 577.4375,19.0938 C578.3125,19.0938 578.9063,19.2344 579.8438,19.6719 Z "/><text fill="#000000" font-family="sans-serif" font-size="12" lengthAdjust="spacingAndGlyphs" textLength="104" x="591.5" y="28.1543">CriteriaCondition</text><line style="stroke: #A80036; stroke-width: 1.5;" x1="563.5" x2="697.5" y1="40" y2="40"/><rect fill="none" height="6" style="stroke: #C82930; stroke-width: 1.0;" width="6" x="570.5" y="48.9023"/><text fill="#000000" font-family="sans-serif" font-size="11" lengthAdjust="spacingAndGlyphs" textLength="10" x="582.5" y="54.2104">id</text><rect fill="none" height="6" style="stroke: #C82930; stroke-width: 1.0;" width="6" x="570.5" y="61.707"/><text fill="#000000" font-family="sans-serif" font-size="11" lengthAdjust="spacingAndGlyphs" textLength="32" x="582.5" y="67.0151">name</text><line style="stroke: #A80036; stroke-width: 1.5;" x1="563.5" x2="697.5" y1="73.6094" y2="73.6094"/><!--class Booklet--><rect fill="#FEFECE" filter="url(#fwr60yd2j5qns)" height="48" id="Booklet" style="stroke: #A80036; stroke-width: 1.5;" width="79" x="401" y="614"/><ellipse cx="416" cy="630" fill="#ADD1B2" rx="11" ry="11" style="stroke: #A80036; stroke-width: 1.0;"/><path d="M418.3438,625.6719 L418.5156,625.75 C418.7344,625.4375 418.9375,625.3438 419.2344,625.3438 C419.5313,625.3438 419.8125,625.4844 419.9688,625.75 C420.0625,625.9063 420.0781,626.0313 420.0781,626.4688 L420.0781,627.8906 C420.0781,628.3125 420.0469,628.5 419.9375,628.6563 C419.7656,628.875 419.5,629.0156 419.2344,629.0156 C419.0156,629.0156 418.7813,628.9063 418.6406,628.7656 C418.5,628.6406 418.4688,628.5156 418.4063,628.1094 C418.3125,627.7031 418.1406,627.4844 417.6563,627.2031 C417.1875,626.9531 416.5781,626.7969 416,626.7969 C414.2656,626.7969 413.0156,628.1094 413.0156,629.8906 L413.0156,630.9844 C413.0156,632.6875 414.3125,633.7813 416.3594,633.7813 C417.125,633.7813 417.8125,633.6563 418.2344,633.3906 C418.4219,633.2969 418.4219,633.2969 418.875,632.8125 C419.0625,632.625 419.2656,632.5469 419.4844,632.5469 C419.9531,632.5469 420.3438,632.9375 420.3438,633.3906 C420.3438,633.7813 420.0156,634.2344 419.4375,634.6406 C418.6875,635.1875 417.5313,635.4844 416.3125,635.4844 C413.4219,635.4844 411.3125,633.5938 411.3125,631.0156 L411.3125,629.8906 C411.3125,627.1719 413.3125,625.0938 415.9375,625.0938 C416.8125,625.0938 417.4063,625.2344 418.3438,625.6719 Z "/><text fill="#000000" font-family="sans-serif" font-size="12" lengthAdjust="spacingAndGlyphs" textLength="47" x="430" y="634.1543">Booklet</text><line style="stroke: #A80036; stroke-width: 1.5;" x1="402" x2="479" y1="646" y2="646"/><line style="stroke: #A80036; stroke-width: 1.5;" x1="402" x2="479" y1="654" y2="654"/><!--class Beneficiary--><rect fill="#FEFECE" filter="url(#fwr60yd2j5qns)" height="48" id="Beneficiary" style="stroke: #A80036; stroke-width: 1.5;" width="100" x="223.5" y="423"/><ellipse cx="238.5" cy="439" fill="#ADD1B2" rx="11" ry="11" style="stroke: #A80036; stroke-width: 1.0;"/><path d="M240.8438,434.6719 L241.0156,434.75 C241.2344,434.4375 241.4375,434.3438 241.7344,434.3438 C242.0313,434.3438 242.3125,434.4844 242.4688,434.75 C242.5625,434.9063 242.5781,435.0313 242.5781,435.4688 L242.5781,436.8906 C242.5781,437.3125 242.5469,437.5 242.4375,437.6563 C242.2656,437.875 242,438.0156 241.7344,438.0156 C241.5156,438.0156 241.2813,437.9063 241.1406,437.7656 C241,437.6406 240.9688,437.5156 240.9063,437.1094 C240.8125,436.7031 240.6406,436.4844 240.1563,436.2031 C239.6875,435.9531 239.0781,435.7969 238.5,435.7969 C236.7656,435.7969 235.5156,437.1094 235.5156,438.8906 L235.5156,439.9844 C235.5156,441.6875 236.8125,442.7813 238.8594,442.7813 C239.625,442.7813 240.3125,442.6563 240.7344,442.3906 C240.9219,442.2969 240.9219,442.2969 241.375,441.8125 C241.5625,441.625 241.7656,441.5469 241.9844,441.5469 C242.4531,441.5469 242.8438,441.9375 242.8438,442.3906 C242.8438,442.7813 242.5156,443.2344 241.9375,443.6406 C241.1875,444.1875 240.0313,444.4844 238.8125,444.4844 C235.9219,444.4844 233.8125,442.5938 233.8125,440.0156 L233.8125,438.8906 C233.8125,436.1719 235.8125,434.0938 238.4375,434.0938 C239.3125,434.0938 239.9063,434.2344 240.8438,434.6719 Z "/><text fill="#000000" font-family="sans-serif" font-size="12" lengthAdjust="spacingAndGlyphs" textLength="68" x="252.5" y="443.1543">Beneficiary</text><line style="stroke: #A80036; stroke-width: 1.5;" x1="224.5" x2="322.5" y1="455" y2="455"/><line style="stroke: #A80036; stroke-width: 1.5;" x1="224.5" x2="322.5" y1="463" y2="463"/><!--class DistributionBeneficiary--><rect fill="#FEFECE" filter="url(#fwr60yd2j5qns)" height="48" id="DistributionBeneficiary" style="stroke: #A80036; stroke-width: 1.5;" width="172" x="190.5" y="614"/><ellipse cx="205.5" cy="630" fill="#ADD1B2" rx="11" ry="11" style="stroke: #A80036; stroke-width: 1.0;"/><path d="M207.8438,625.6719 L208.0156,625.75 C208.2344,625.4375 208.4375,625.3438 208.7344,625.3438 C209.0313,625.3438 209.3125,625.4844 209.4688,625.75 C209.5625,625.9063 209.5781,626.0313 209.5781,626.4688 L209.5781,627.8906 C209.5781,628.3125 209.5469,628.5 209.4375,628.6563 C209.2656,628.875 209,629.0156 208.7344,629.0156 C208.5156,629.0156 208.2813,628.9063 208.1406,628.7656 C208,628.6406 207.9688,628.5156 207.9063,628.1094 C207.8125,627.7031 207.6406,627.4844 207.1563,627.2031 C206.6875,626.9531 206.0781,626.7969 205.5,626.7969 C203.7656,626.7969 202.5156,628.1094 202.5156,629.8906 L202.5156,630.9844 C202.5156,632.6875 203.8125,633.7813 205.8594,633.7813 C206.625,633.7813 207.3125,633.6563 207.7344,633.3906 C207.9219,633.2969 207.9219,633.2969 208.375,632.8125 C208.5625,632.625 208.7656,632.5469 208.9844,632.5469 C209.4531,632.5469 209.8438,632.9375 209.8438,633.3906 C209.8438,633.7813 209.5156,634.2344 208.9375,634.6406 C208.1875,635.1875 207.0313,635.4844 205.8125,635.4844 C202.9219,635.4844 200.8125,633.5938 200.8125,631.0156 L200.8125,629.8906 C200.8125,627.1719 202.8125,625.0938 205.4375,625.0938 C206.3125,625.0938 206.9063,625.2344 207.8438,625.6719 Z "/><text fill="#000000" font-family="sans-serif" font-size="12" lengthAdjust="spacingAndGlyphs" textLength="140" x="219.5" y="634.1543">DistributionBeneficiary</text><line style="stroke: #A80036; stroke-width: 1.5;" x1="191.5" x2="361.5" y1="646" y2="646"/><line style="stroke: #A80036; stroke-width: 1.5;" x1="191.5" x2="361.5" y1="654" y2="654"/><!--class Location--><rect fill="#FEFECE" filter="url(#fwr60yd2j5qns)" height="48" id="Location" style="stroke: #A80036; stroke-width: 1.5;" width="85" x="538" y="187"/><ellipse cx="553" cy="203" fill="#ADD1B2" rx="11" ry="11" style="stroke: #A80036; stroke-width: 1.0;"/><path d="M555.3438,198.6719 L555.5156,198.75 C555.7344,198.4375 555.9375,198.3438 556.2344,198.3438 C556.5313,198.3438 556.8125,198.4844 556.9688,198.75 C557.0625,198.9063 557.0781,199.0313 557.0781,199.4688 L557.0781,200.8906 C557.0781,201.3125 557.0469,201.5 556.9375,201.6563 C556.7656,201.875 556.5,202.0156 556.2344,202.0156 C556.0156,202.0156 555.7813,201.9063 555.6406,201.7656 C555.5,201.6406 555.4688,201.5156 555.4063,201.1094 C555.3125,200.7031 555.1406,200.4844 554.6563,200.2031 C554.1875,199.9531 553.5781,199.7969 553,199.7969 C551.2656,199.7969 550.0156,201.1094 550.0156,202.8906 L550.0156,203.9844 C550.0156,205.6875 551.3125,206.7813 553.3594,206.7813 C554.125,206.7813 554.8125,206.6563 555.2344,206.3906 C555.4219,206.2969 555.4219,206.2969 555.875,205.8125 C556.0625,205.625 556.2656,205.5469 556.4844,205.5469 C556.9531,205.5469 557.3438,205.9375 557.3438,206.3906 C557.3438,206.7813 557.0156,207.2344 556.4375,207.6406 C555.6875,208.1875 554.5313,208.4844 553.3125,208.4844 C550.4219,208.4844 548.3125,206.5938 548.3125,204.0156 L548.3125,202.8906 C548.3125,200.1719 550.3125,198.0938 552.9375,198.0938 C553.8125,198.0938 554.4063,198.2344 555.3438,198.6719 Z "/><text fill="#000000" font-family="sans-serif" font-size="12" lengthAdjust="spacingAndGlyphs" textLength="53" x="567" y="207.1543">Location</text><line style="stroke: #A80036; stroke-width: 1.5;" x1="539" x2="622" y1="219" y2="219"/><line style="stroke: #A80036; stroke-width: 1.5;" x1="539" x2="622" y1="227" y2="227"/><!--class Project--><rect fill="#FEFECE" filter="url(#fwr60yd2j5qns)" height="48" id="Project" style="stroke: #A80036; stroke-width: 1.5;" width="76" x="658.5" y="187"/><ellipse cx="673.5" cy="203" fill="#ADD1B2" rx="11" ry="11" style="stroke: #A80036; stroke-width: 1.0;"/><path d="M675.8438,198.6719 L676.0156,198.75 C676.2344,198.4375 676.4375,198.3438 676.7344,198.3438 C677.0313,198.3438 677.3125,198.4844 677.4688,198.75 C677.5625,198.9063 677.5781,199.0313 677.5781,199.4688 L677.5781,200.8906 C677.5781,201.3125 677.5469,201.5 677.4375,201.6563 C677.2656,201.875 677,202.0156 676.7344,202.0156 C676.5156,202.0156 676.2813,201.9063 676.1406,201.7656 C676,201.6406 675.9688,201.5156 675.9063,201.1094 C675.8125,200.7031 675.6406,200.4844 675.1563,200.2031 C674.6875,199.9531 674.0781,199.7969 673.5,199.7969 C671.7656,199.7969 670.5156,201.1094 670.5156,202.8906 L670.5156,203.9844 C670.5156,205.6875 671.8125,206.7813 673.8594,206.7813 C674.625,206.7813 675.3125,206.6563 675.7344,206.3906 C675.9219,206.2969 675.9219,206.2969 676.375,205.8125 C676.5625,205.625 676.7656,205.5469 676.9844,205.5469 C677.4531,205.5469 677.8438,205.9375 677.8438,206.3906 C677.8438,206.7813 677.5156,207.2344 676.9375,207.6406 C676.1875,208.1875 675.0313,208.4844 673.8125,208.4844 C670.9219,208.4844 668.8125,206.5938 668.8125,204.0156 L668.8125,202.8906 C668.8125,200.1719 670.8125,198.0938 673.4375,198.0938 C674.3125,198.0938 674.9063,198.2344 675.8438,198.6719 Z "/><text fill="#000000" font-family="sans-serif" font-size="12" lengthAdjust="spacingAndGlyphs" textLength="44" x="687.5" y="207.1543">Project</text><line style="stroke: #A80036; stroke-width: 1.5;" x1="659.5" x2="733.5" y1="219" y2="219"/><line style="stroke: #A80036; stroke-width: 1.5;" x1="659.5" x2="733.5" y1="227" y2="227"/><!--class Adm--><rect fill="#FEFECE" filter="url(#fwr60yd2j5qns)" height="48" id="Adm" style="stroke: #A80036; stroke-width: 1.5;" width="59" x="734" y="21"/><ellipse cx="749" cy="37" fill="#ADD1B2" rx="11" ry="11" style="stroke: #A80036; stroke-width: 1.0;"/><path d="M751.3438,32.6719 L751.5156,32.75 C751.7344,32.4375 751.9375,32.3438 752.2344,32.3438 C752.5313,32.3438 752.8125,32.4844 752.9688,32.75 C753.0625,32.9063 753.0781,33.0313 753.0781,33.4688 L753.0781,34.8906 C753.0781,35.3125 753.0469,35.5 752.9375,35.6563 C752.7656,35.875 752.5,36.0156 752.2344,36.0156 C752.0156,36.0156 751.7813,35.9063 751.6406,35.7656 C751.5,35.6406 751.4688,35.5156 751.4063,35.1094 C751.3125,34.7031 751.1406,34.4844 750.6563,34.2031 C750.1875,33.9531 749.5781,33.7969 749,33.7969 C747.2656,33.7969 746.0156,35.1094 746.0156,36.8906 L746.0156,37.9844 C746.0156,39.6875 747.3125,40.7813 749.3594,40.7813 C750.125,40.7813 750.8125,40.6563 751.2344,40.3906 C751.4219,40.2969 751.4219,40.2969 751.875,39.8125 C752.0625,39.625 752.2656,39.5469 752.4844,39.5469 C752.9531,39.5469 753.3438,39.9375 753.3438,40.3906 C753.3438,40.7813 753.0156,41.2344 752.4375,41.6406 C751.6875,42.1875 750.5313,42.4844 749.3125,42.4844 C746.4219,42.4844 744.3125,40.5938 744.3125,38.0156 L744.3125,36.8906 C744.3125,34.1719 746.3125,32.0938 748.9375,32.0938 C749.8125,32.0938 750.4063,32.2344 751.3438,32.6719 Z "/><text fill="#000000" font-family="sans-serif" font-size="12" lengthAdjust="spacingAndGlyphs" textLength="27" x="763" y="41.1543">Adm</text><line style="stroke: #A80036; stroke-width: 1.5;" x1="735" x2="792" y1="53" y2="53"/><line style="stroke: #A80036; stroke-width: 1.5;" x1="735" x2="792" y1="61" y2="61"/><!--link Distribution to Booklet--><path d="M440.5,567.1738 C440.5,584.8779 440.5,601.3397 440.5,613.8278 " fill="none" id="Distribution-Booklet" style="stroke: #A80036; stroke-width: 1.0;"/><polygon fill="#FFFFFF" points="440.5,554.102,436.5,560.102,440.5,566.102,444.5,560.102,440.5,554.102" style="stroke: #A80036; stroke-width: 1.0;"/><text fill="#000000" font-family="sans-serif" font-size="13" lengthAdjust="spacingAndGlyphs" textLength="8" x="432.2063" y="574.5729">1</text><text fill="#000000" font-family="sans-serif" font-size="13" lengthAdjust="spacingAndGlyphs" textLength="20" x="417.9375" y="602.7957">0-*</text><!--link Modality to Commodity--><path d="M104.1807,91.393 C120.807,107.322 139.544,125.386 156.5,142 C162.105,147.492 167.944,153.259 173.742,159.016 " fill="none" id="Modality-Commodity" style="stroke: #A80036; stroke-width: 1.0;"/><polygon fill="#A80036" points="94.6642,82.288,96.2339,89.3262,103.3345,90.5842,101.7647,83.546,94.6642,82.288" style="stroke: #A80036; stroke-width: 1.0;"/><text fill="#000000" font-family="sans-serif" font-size="13" lengthAdjust="spacingAndGlyphs" textLength="8" x="92.3226" y="101.8163">1</text><text fill="#000000" font-family="sans-serif" font-size="13" lengthAdjust="spacingAndGlyphs" textLength="8" x="158.0417" y="147.7256">1</text><!--link ModalityType to Commodity--><path d="M200.009,95.24 C204.028,114.072 208.635,135.662 212.762,154.998 " fill="none" id="ModalityType-Commodity" style="stroke: #A80036; stroke-width: 1.0;"/><polygon fill="#A80036" points="197.268,82.397,194.6081,89.0996,199.7721,94.1328,202.432,87.4302,197.268,82.397" style="stroke: #A80036; stroke-width: 1.0;"/><text fill="#000000" font-family="sans-serif" font-size="13" lengthAdjust="spacingAndGlyphs" textLength="8" x="189.8685" y="101.6611">1</text><text fill="#000000" font-family="sans-serif" font-size="13" lengthAdjust="spacingAndGlyphs" textLength="8" x="202.7456" y="143.9357">1</text><!--link CriteriaField to Criteria--><path d="M364.486,93.492 C374.305,108.542 385.361,125.488 395.938,141.7 " fill="none" id="CriteriaField-Criteria" style="stroke: #A80036; stroke-width: 1.0;"/><polygon fill="#A80036" points="357.247,82.397,357.176,89.6078,363.8048,92.4466,363.8758,85.2359,357.247,82.397" style="stroke: #A80036; stroke-width: 1.0;"/><text fill="#000000" font-family="sans-serif" font-size="13" lengthAdjust="spacingAndGlyphs" textLength="8" x="352.3942" y="101.6611">1</text><text fill="#000000" font-family="sans-serif" font-size="13" lengthAdjust="spacingAndGlyphs" textLength="8" x="382.93" y="130.8727">1</text><!--link CriteriaCondition to Criteria--><path d="M578.318,91.042 C555.062,111.115 527.478,134.924 503.12,155.949 " fill="none" id="CriteriaCondition-Criteria" style="stroke: #A80036; stroke-width: 1.0;"/><polygon fill="#A80036" points="588.333,82.397,581.1773,83.2893,579.2488,90.2377,586.4045,89.3454,588.333,82.397" style="stroke: #A80036; stroke-width: 1.0;"/><text fill="#000000" font-family="sans-serif" font-size="13" lengthAdjust="spacingAndGlyphs" textLength="8" x="572.9751" y="101.6611">1</text><text fill="#000000" font-family="sans-serif" font-size="13" lengthAdjust="spacingAndGlyphs" textLength="8" x="510.8229" y="145.8123">1</text><!--link CriteriaType to Criteria--><path d="M464.285,95.271 C461.259,109.87 457.889,126.124 454.66,141.7 " fill="none" id="CriteriaType-Criteria" style="stroke: #A80036; stroke-width: 1.0;"/><polygon fill="#A80036" points="466.954,82.397,461.8194,87.4602,464.5182,94.1472,469.6529,89.084,466.954,82.397" style="stroke: #A80036; stroke-width: 1.0;"/><text fill="#000000" font-family="sans-serif" font-size="13" lengthAdjust="spacingAndGlyphs" textLength="8" x="457.1139" y="101.6611">1</text><text fill="#000000" font-family="sans-serif" font-size="13" lengthAdjust="spacingAndGlyphs" textLength="8" x="447.7078" y="130.8727">1</text><!--link Beneficiary to DistributionBeneficiary--><path d="M274.075,484.231 C274.682,522.473 275.621,581.5954 276.134,613.9313 " fill="none" id="Beneficiary-DistributionBeneficiary" style="stroke: #A80036; stroke-width: 1.0;"/><polygon fill="#A80036" points="273.868,471.175,269.9641,477.238,274.0592,483.1735,277.9631,477.1105,273.868,471.175" style="stroke: #A80036; stroke-width: 1.0;"/><text fill="#000000" font-family="sans-serif" font-size="13" lengthAdjust="spacingAndGlyphs" textLength="8" x="264.9827" y="490.9789">1</text><text fill="#000000" font-family="sans-serif" font-size="13" lengthAdjust="spacingAndGlyphs" textLength="20" x="253.4777" y="602.9257">0-*</text><!--link Distribution to DistributionBeneficiary--><path d="M349.644,552.706 C329.608,575.7961 310.286,598.0635 296.538,613.9076 " fill="none" id="Distribution-DistributionBeneficiary" style="stroke: #A80036; stroke-width: 1.0;"/><polygon fill="#A80036" points="358.26,542.777,351.3065,544.6871,350.3953,551.8404,357.3488,549.9303,358.26,542.777" style="stroke: #A80036; stroke-width: 1.0;"/><text fill="#000000" font-family="sans-serif" font-size="13" lengthAdjust="spacingAndGlyphs" textLength="8" x="342.5793" y="547.6915">1</text><text fill="#000000" font-family="sans-serif" font-size="13" lengthAdjust="spacingAndGlyphs" textLength="20" x="279.1102" y="602.896">0-*</text><!--link DistributionType to Distribution--><path d="M121.226,256.359 C132.298,265.003 144.382,273.414 156.5,280 C232.074,321.077 267.846,293.956 340.5,340 C346.59,343.86 352.564,348.174 358.372,352.793 " fill="none" id="DistributionType-Distribution" style="stroke: #A80036; stroke-width: 1.0;"/><polygon fill="#A80036" points="110.954,248.052,113.1043,254.935,120.2849,255.5974,118.1346,248.7144,110.954,248.052" style="stroke: #A80036; stroke-width: 1.0;"/><text fill="#000000" font-family="sans-serif" font-size="13" lengthAdjust="spacingAndGlyphs" textLength="8" x="108.6606" y="267.5412">1</text><text fill="#000000" font-family="sans-serif" font-size="13" lengthAdjust="spacingAndGlyphs" textLength="8" x="342.4321" y="340.4687">1</text><!--link Location to Distribution--><path d="M559.794,246.608 C544.963,271.398 524.136,306.209 504.027,339.818 " fill="none" id="Location-Distribution" style="stroke: #A80036; stroke-width: 1.0;"/><polygon fill="#A80036" points="566.564,235.292,560.0511,238.3876,560.4036,245.5901,566.9165,242.4945,566.564,235.292" style="stroke: #A80036; stroke-width: 1.0;"/><text fill="#000000" font-family="sans-serif" font-size="13" lengthAdjust="spacingAndGlyphs" textLength="8" x="554.1921" y="255.1244">1</text><text fill="#000000" font-family="sans-serif" font-size="13" lengthAdjust="spacingAndGlyphs" textLength="8" x="500.2125" y="328.8098">1</text><!--link Project to Distribution--><path d="M670.856,245.684 C661.71,256.99 651.051,269.408 640.5,280 C604.036,316.604 560.181,353.673 522.841,383.467 " fill="none" id="Project-Distribution" style="stroke: #A80036; stroke-width: 1.0;"/><polygon fill="#FFFFFF" points="679.108,235.282,672.2455,237.4968,671.6505,244.6834,678.513,242.4685,679.108,235.282" style="stroke: #A80036; stroke-width: 1.0;"/><text fill="#000000" font-family="sans-serif" font-size="13" lengthAdjust="spacingAndGlyphs" textLength="8" x="665.8937" y="255.1119">1</text><text fill="#000000" font-family="sans-serif" font-size="13" lengthAdjust="spacingAndGlyphs" textLength="8" x="530.5307" y="374.1929">1</text><!--link Criteria to Distribution--><path d="M440.5,293.699 C440.5,308.569 440.5,324.277 440.5,339.733 " fill="none" id="Criteria-Distribution" style="stroke: #A80036; stroke-width: 1.0;"/><polygon fill="#A80036" points="440.5,280.312,436.5,286.312,440.5,292.312,444.5,286.312,440.5,280.312" style="stroke: #A80036; stroke-width: 1.0;"/><text fill="#000000" font-family="sans-serif" font-size="13" lengthAdjust="spacingAndGlyphs" textLength="20" x="419.5469" y="299.7239">0-*</text><text fill="#000000" font-family="sans-serif" font-size="13" lengthAdjust="spacingAndGlyphs" textLength="8" x="432.2313" y="329.078">1</text><!--link Commodity to Distribution--><path d="M284.087,276.553 C307.072,301.453 333.745,330.349 358.485,357.15 " fill="none" id="Commodity-Distribution" style="stroke: #A80036; stroke-width: 1.0;"/><polygon fill="#A80036" points="275.142,266.863,276.2726,273.9849,283.2816,275.6804,282.1509,268.5585,275.142,266.863" style="stroke: #A80036; stroke-width: 1.0;"/><text fill="#000000" font-family="sans-serif" font-size="13" lengthAdjust="spacingAndGlyphs" textLength="20" x="260.3493" y="287.0553">0-*</text><text fill="#000000" font-family="sans-serif" font-size="13" lengthAdjust="spacingAndGlyphs" textLength="8" x="342.5555" y="361.6101">1</text><!--link Adm to Location--><path d="M723.338,77.048 C690.737,102.343 648.986,134.982 641.5,142 C626.575,155.993 611.202,173.15 599.623,186.73 " fill="none" id="Adm-Location" style="stroke: #A80036; stroke-width: 1.0;"/><polygon fill="#A80036" points="733.98,68.799,726.7873,69.3135,724.4958,76.1508,731.6885,75.6363,733.98,68.799" style="stroke: #A80036; stroke-width: 1.0;"/><text fill="#000000" font-family="sans-serif" font-size="13" lengthAdjust="spacingAndGlyphs" textLength="21" x="705.1011" y="69.0878">0-4</text><text fill="#000000" font-family="sans-serif" font-size="13" lengthAdjust="spacingAndGlyphs" textLength="8" x="595.3092" y="176.0691">1</text><!--
@startuml
class Distribution {
    - id
    - name
    - location
    - distributionBeneficiaries
    - date
    - project
    - projectId
    - selectionCriteria
    - type
    - commodities
    - validated
    - threshold
    - finished
 }
 
 class DistributionType {
    - id
    - name
}

 
 class Commodity {
    - id
    - modality
    - modalityType
    - unit
    - value
 }
 
 class Modality {
    - id
    - name
}

class ModalityType {
    - id
    - name
}

class Criteria {
    - target
    - tableString
    - field
    - condition
    - type
    - value
    - weight
}


class CriteriaField {
    - id
    - name
}


class CriteriaType {
    - id
    - name
}


class CriteriaCondition {
    - id
    - name
}

 
 Distribution "1" o- - "0-*" Booklet
 
 Modality "1" *- - "1" Commodity
 ModalityType "1" *- - "1" Commodity
 
 
 CriteriaField "1" *- - "1" Criteria
 CriteriaCondition "1" *- - "1" Criteria
 CriteriaType "1" *- - "1" Criteria

 Beneficiary "1" *- - "0-*" DistributionBeneficiary
 Distribution "1" *- - "0-*" DistributionBeneficiary
 
 DistributionType "1" *- - "1" Distribution
 Location "1" *- - "1" Distribution
 Project "1" o- - "1" Distribution
 Criteria "0-*" *- - "1" Distribution
 Commodity "0-*" *- - "1" Distribution
 
 Adm "0-4" *- - "1" Location
@enduml

PlantUML version 1.2019.05(Sat Apr 20 16:45:36 UTC 2019)
(GPL source distribution)
Java Runtime: Java(TM) SE Runtime Environment
JVM: Java HotSpot(TM) 64-Bit Server VM
Java Version: 1.7.0_25-b15
Operating System: Linux
Default Encoding: UTF-8
Language: en
Country: US
--></g></svg>