<?xml version="1.0" encoding="UTF-8" standalone="no"?><svg xmlns="http://www.w3.org/2000/svg" xmlns:xlink="http://www.w3.org/1999/xlink" contentScriptType="application/ecmascript" contentStyleType="text/css" height="686px" preserveAspectRatio="none" style="width:804px;height:686px;" version="1.1" viewBox="0 0 804 686" width="804px" zoomAndPan="magnify"><defs><filter height="300%" id="fiqwypzo3jf9l" width="300%" x="-1" y="-1"><feGaussianBlur result="blurOut" stdDeviation="2.0"/><feColorMatrix in="blurOut" result="blurOut2" type="matrix" values="0 0 0 0 0 0 0 0 0 0 0 0 0 0 0 0 0 0 .4 0"/><feOffset dx="4.0" dy="4.0" in="blurOut2" result="blurOut3"/><feBlend in="SourceGraphic" in2="blurOut3" mode="normal"/></filter></defs><g><!--class Distribution--><rect fill="#FEFECE" filter="url(#fiqwypzo3jf9l)" height="227.2656" id="Distribution" style="stroke: #A80036; stroke-width: 1.5;" width="164" x="352.5" y="340"/><ellipse cx="394.5" cy="356" fill="#ADD1B2" rx="11" ry="11" style="stroke: #A80036; stroke-width: 1.0;"/><path d="M396.8438,351.6719 L397.0156,351.75 C397.2344,351.4375 397.4375,351.3438 397.7344,351.3438 C398.0313,351.3438 398.3125,351.4844 398.4688,351.75 C398.5625,351.9063 398.5781,352.0313 398.5781,352.4688 L398.5781,353.8906 C398.5781,354.3125 398.5469,354.5 398.4375,354.6563 C398.2656,354.875 398,355.0156 397.7344,355.0156 C397.5156,355.0156 397.2813,354.9063 397.1406,354.7656 C397,354.6406 396.9688,354.5156 396.9063,354.1094 C396.8125,353.7031 396.6406,353.4844 396.1563,353.2031 C395.6875,352.9531 395.0781,352.7969 394.5,352.7969 C392.7656,352.7969 391.5156,354.1094 391.5156,355.8906 L391.5156,356.9844 C391.5156,358.6875 392.8125,359.7813 394.8594,359.7813 C395.625,359.7813 396.3125,359.6563 396.7344,359.3906 C396.9219,359.2969 396.9219,359.2969 397.375,358.8125 C397.5625,358.625 397.7656,358.5469 397.9844,358.5469 C398.4531,358.5469 398.8438,358.9375 398.8438,359.3906 C398.8438,359.7813 398.5156,360.2344 397.9375,360.6406 C397.1875,361.1875 396.0313,361.4844 394.8125,361.4844 C391.9219,361.4844 389.8125,359.5938 389.8125,357.0156 L389.8125,355.8906 C389.8125,353.1719 391.8125,351.0938 394.4375,351.0938 C395.3125,351.0938 395.9063,351.2344 396.8438,351.6719 Z "/><text fill="#000000" font-family="sans-serif" font-size="12" lengthAdjust="spacingAndGlyphs" textLength="72" x="414.5" y="360.1543">Distribution</text><line style="stroke: #A80036; stroke-width: 1.5;" x1="353.5" x2="515.5" y1="372" y2="372"/><rect fill="none" height="6" style="stroke: #C82930; stroke-width: 1.0;" width="6" x="360.5" y="380.9023"/><text fill="#000000" font-family="sans-serif" font-size="11" lengthAdjust="spacingAndGlyphs" textLength="10" x="372.5" y="386.2104">id</text><rect fill="none" height="6" style="stroke: #C82930; stroke-width: 1.0;" width="6" x="360.5" y="393.707"/><text fill="#000000" font-family="sans-serif" font-size="11" lengthAdjust="spacingAndGlyphs" textLength="32" x="372.5" y="399.0151">name</text><rect fill="none" height="6" style="stroke: #C82930; stroke-width: 1.0;" width="6" x="360.5" y="406.5117"/><text fill="#000000" font-family="sans-serif" font-size="11" lengthAdjust="spacingAndGlyphs" textLength="44" x="372.5" y="411.8198">location</text><rect fill="none" height="6" style="stroke: #C82930; stroke-width: 1.0;" width="6" x="360.5" y="419.3164"/><text fill="#000000" font-family="sans-serif" font-size="11" lengthAdjust="spacingAndGlyphs" textLength="138" x="372.5" y="424.6245">distributionBeneficiaries</text><rect fill="none" height="6" style="stroke: #C82930; stroke-width: 1.0;" width="6" x="360.5" y="432.1211"/><text fill="#000000" font-family="sans-serif" font-size="11" lengthAdjust="spacingAndGlyphs" textLength="25" x="372.5" y="437.4292">date</text><rect fill="none" height="6" style="stroke: #C82930; stroke-width: 1.0;" width="6" x="360.5" y="444.9258"/><text fill="#000000" font-family="sans-serif" font-size="11" lengthAdjust="spacingAndGlyphs" textLength="39" x="372.5" y="450.2339">project</text><rect fill="none" height="6" style="stroke: #C82930; stroke-width: 1.0;" width="6" x="360.5" y="457.7305"/><text fill="#000000" font-family="sans-serif" font-size="11" lengthAdjust="spacingAndGlyphs" textLength="49" x="372.5" y="463.0386">projectId</text><rect fill="none" height="6" style="stroke: #C82930; stroke-width: 1.0;" width="6" x="360.5" y="470.5352"/><text fill="#000000" font-family="sans-serif" font-size="11" lengthAdjust="spacingAndGlyphs" textLength="93" x="372.5" y="475.8433">selectionCriteria</text><rect fill="none" height="6" style="stroke: #C82930; stroke-width: 1.0;" width="6" x="360.5" y="483.3398"/><text fill="#000000" font-family="sans-serif" font-size="11" lengthAdjust="spacingAndGlyphs" textLength="24" x="372.5" y="488.6479">type</text><rect fill="none" height="6" style="stroke: #C82930; stroke-width: 1.0;" width="6" x="360.5" y="496.1445"/><text fill="#000000" font-family="sans-serif" font-size="11" lengthAdjust="spacingAndGlyphs" textLength="73" x="372.5" y="501.4526">commodities</text><rect fill="none" height="6" style="stroke: #C82930; stroke-width: 1.0;" width="6" x="360.5" y="508.9492"/><text fill="#000000" font-family="sans-serif" font-size="11" lengthAdjust="spacingAndGlyphs" textLength="51" x="372.5" y="514.2573">validated</text><rect fill="none" height="6" style="stroke: #C82930; stroke-width: 1.0;" width="6" x="360.5" y="521.7539"/><text fill="#000000" font-family="sans-serif" font-size="11" lengthAdjust="spacingAndGlyphs" textLength="54" x="372.5" y="527.062">threshold</text><rect fill="none" height="6" style="stroke: #C82930; stroke-width: 1.0;" width="6" x="360.5" y="534.5586"/><text fill="#000000" font-family="sans-serif" font-size="11" lengthAdjust="spacingAndGlyphs" textLength="45" x="372.5" y="539.8667">finished</text><rect fill="none" height="6" style="stroke: #C82930; stroke-width: 1.0;" width="6" x="360.5" y="547.3633"/><text fill="#000000" font-family="sans-serif" font-size="11" lengthAdjust="spacingAndGlyphs" textLength="62" x="372.5" y="552.6714">updatedOn</text><line style="stroke: #A80036; stroke-width: 1.5;" x1="353.5" x2="515.5" y1="559.2656" y2="559.2656"/><!--class DistributionType--><rect fill="#FEFECE" filter="url(#fiqwypzo3jf9l)" height="73.6094" id="DistributionType" style="stroke: #A80036; stroke-width: 1.5;" width="133" x="6" y="174"/><ellipse cx="21" cy="190" fill="#ADD1B2" rx="11" ry="11" style="stroke: #A80036; stroke-width: 1.0;"/><path d="M23.3438,185.6719 L23.5156,185.75 C23.7344,185.4375 23.9375,185.3438 24.2344,185.3438 C24.5313,185.3438 24.8125,185.4844 24.9688,185.75 C25.0625,185.9063 25.0781,186.0313 25.0781,186.4688 L25.0781,187.8906 C25.0781,188.3125 25.0469,188.5 24.9375,188.6563 C24.7656,188.875 24.5,189.0156 24.2344,189.0156 C24.0156,189.0156 23.7813,188.9063 23.6406,188.7656 C23.5,188.6406 23.4688,188.5156 23.4063,188.1094 C23.3125,187.7031 23.1406,187.4844 22.6563,187.2031 C22.1875,186.9531 21.5781,186.7969 21,186.7969 C19.2656,186.7969 18.0156,188.1094 18.0156,189.8906 L18.0156,190.9844 C18.0156,192.6875 19.3125,193.7813 21.3594,193.7813 C22.125,193.7813 22.8125,193.6563 23.2344,193.3906 C23.4219,193.2969 23.4219,193.2969 23.875,192.8125 C24.0625,192.625 24.2656,192.5469 24.4844,192.5469 C24.9531,192.5469 25.3438,192.9375 25.3438,193.3906 C25.3438,193.7813 25.0156,194.2344 24.4375,194.6406 C23.6875,195.1875 22.5313,195.4844 21.3125,195.4844 C18.4219,195.4844 16.3125,193.5938 16.3125,191.0156 L16.3125,189.8906 C16.3125,187.1719 18.3125,185.0938 20.9375,185.0938 C21.8125,185.0938 22.4063,185.2344 23.3438,185.6719 Z "/><text fill="#000000" font-family="sans-serif" font-size="12" lengthAdjust="spacingAndGlyphs" textLength="101" x="35" y="194.1543">DistributionType</text><line style="stroke: #A80036; stroke-width: 1.5;" x1="7" x2="138" y1="206" y2="206"/><rect fill="none" height="6" style="stroke: #C82930; stroke-width: 1.0;" width="6" x="14" y="214.9023"/><text fill="#000000" font-family="sans-serif" font-size="11" lengthAdjust="spacingAndGlyphs" textLength="10" x="26" y="220.2104">id</text><rect fill="none" height="6" style="stroke: #C82930; stroke-width: 1.0;" width="6" x="14" y="227.707"/><text fill="#000000" font-family="sans-serif" font-size="11" lengthAdjust="spacingAndGlyphs" textLength="32" x="26" y="233.0151">name</text><line style="stroke: #A80036; stroke-width: 1.5;" x1="7" x2="138" y1="239.6094" y2="239.6094"/><!--class Commodity--><rect fill="#FEFECE" filter="url(#fiqwypzo3jf9l)" height="124.8281" id="Commodity" style="stroke: #A80036; stroke-width: 1.5;" width="101" x="174" y="148.5"/><ellipse cx="189.45" cy="164.5" fill="#ADD1B2" rx="11" ry="11" style="stroke: #A80036; stroke-width: 1.0;"/><path d="M191.7938,160.1719 L191.9656,160.25 C192.1844,159.9375 192.3875,159.8438 192.6844,159.8438 C192.9813,159.8438 193.2625,159.9844 193.4188,160.25 C193.5125,160.4063 193.5281,160.5313 193.5281,160.9688 L193.5281,162.3906 C193.5281,162.8125 193.4969,163 193.3875,163.1563 C193.2156,163.375 192.95,163.5156 192.6844,163.5156 C192.4656,163.5156 192.2313,163.4063 192.0906,163.2656 C191.95,163.1406 191.9188,163.0156 191.8563,162.6094 C191.7625,162.2031 191.5906,161.9844 191.1063,161.7031 C190.6375,161.4531 190.0281,161.2969 189.45,161.2969 C187.7156,161.2969 186.4656,162.6094 186.4656,164.3906 L186.4656,165.4844 C186.4656,167.1875 187.7625,168.2813 189.8094,168.2813 C190.575,168.2813 191.2625,168.1563 191.6844,167.8906 C191.8719,167.7969 191.8719,167.7969 192.325,167.3125 C192.5125,167.125 192.7156,167.0469 192.9344,167.0469 C193.4031,167.0469 193.7938,167.4375 193.7938,167.8906 C193.7938,168.2813 193.4656,168.7344 192.8875,169.1406 C192.1375,169.6875 190.9813,169.9844 189.7625,169.9844 C186.8719,169.9844 184.7625,168.0938 184.7625,165.5156 L184.7625,164.3906 C184.7625,161.6719 186.7625,159.5938 189.3875,159.5938 C190.2625,159.5938 190.8563,159.7344 191.7938,160.1719 Z "/><text fill="#000000" font-family="sans-serif" font-size="12" lengthAdjust="spacingAndGlyphs" textLength="68" x="203.55" y="168.6543">Commodity</text><line style="stroke: #A80036; stroke-width: 1.5;" x1="175" x2="274" y1="180.5" y2="180.5"/><rect fill="none" height="6" style="stroke: #C82930; stroke-width: 1.0;" width="6" x="182" y="189.4023"/><text fill="#000000" font-family="sans-serif" font-size="11" lengthAdjust="spacingAndGlyphs" textLength="10" x="194" y="194.7104">id</text><rect fill="none" height="6" style="stroke: #C82930; stroke-width: 1.0;" width="6" x="182" y="202.207"/><text fill="#000000" font-family="sans-serif" font-size="11" lengthAdjust="spacingAndGlyphs" textLength="48" x="194" y="207.5151">modality</text><rect fill="none" height="6" style="stroke: #C82930; stroke-width: 1.0;" width="6" x="182" y="215.0117"/><text fill="#000000" font-family="sans-serif" font-size="11" lengthAdjust="spacingAndGlyphs" textLength="75" x="194" y="220.3198">modalityType</text><rect fill="none" height="6" style="stroke: #C82930; stroke-width: 1.0;" width="6" x="182" y="227.8164"/><text fill="#000000" font-family="sans-serif" font-size="11" lengthAdjust="spacingAndGlyphs" textLength="21" x="194" y="233.1245">unit</text><rect fill="none" height="6" style="stroke: #C82930; stroke-width: 1.0;" width="6" x="182" y="240.6211"/><text fill="#000000" font-family="sans-serif" font-size="11" lengthAdjust="spacingAndGlyphs" textLength="30" x="194" y="245.9292">value</text><rect fill="none" height="6" style="stroke: #C82930; stroke-width: 1.0;" width="6" x="182" y="253.4258"/><text fill="#000000" font-family="sans-serif" font-size="11" lengthAdjust="spacingAndGlyphs" textLength="63" x="194" y="258.7339">description</text><line style="stroke: #A80036; stroke-width: 1.5;" x1="175" x2="274" y1="265.3281" y2="265.3281"/><!--class Modality--><rect fill="#FEFECE" filter="url(#fiqwypzo3jf9l)" height="73.6094" id="Modality" style="stroke: #A80036; stroke-width: 1.5;" width="83" x="9" y="8"/><ellipse cx="24" cy="24" fill="#ADD1B2" rx="11" ry="11" style="stroke: #A80036; stroke-width: 1.0;"/><path d="M26.3438,19.6719 L26.5156,19.75 C26.7344,19.4375 26.9375,19.3438 27.2344,19.3438 C27.5313,19.3438 27.8125,19.4844 27.9688,19.75 C28.0625,19.9063 28.0781,20.0313 28.0781,20.4688 L28.0781,21.8906 C28.0781,22.3125 28.0469,22.5 27.9375,22.6563 C27.7656,22.875 27.5,23.0156 27.2344,23.0156 C27.0156,23.0156 26.7813,22.9063 26.6406,22.7656 C26.5,22.6406 26.4688,22.5156 26.4063,22.1094 C26.3125,21.7031 26.1406,21.4844 25.6563,21.2031 C25.1875,20.9531 24.5781,20.7969 24,20.7969 C22.2656,20.7969 21.0156,22.1094 21.0156,23.8906 L21.0156,24.9844 C21.0156,26.6875 22.3125,27.7813 24.3594,27.7813 C25.125,27.7813 25.8125,27.6563 26.2344,27.3906 C26.4219,27.2969 26.4219,27.2969 26.875,26.8125 C27.0625,26.625 27.2656,26.5469 27.4844,26.5469 C27.9531,26.5469 28.3438,26.9375 28.3438,27.3906 C28.3438,27.7813 28.0156,28.2344 27.4375,28.6406 C26.6875,29.1875 25.5313,29.4844 24.3125,29.4844 C21.4219,29.4844 19.3125,27.5938 19.3125,25.0156 L19.3125,23.8906 C19.3125,21.1719 21.3125,19.0938 23.9375,19.0938 C24.8125,19.0938 25.4063,19.2344 26.3438,19.6719 Z "/><text fill="#000000" font-family="sans-serif" font-size="12" lengthAdjust="spacingAndGlyphs" textLength="51" x="38" y="28.1543">Modality</text><line style="stroke: #A80036; stroke-width: 1.5;" x1="10" x2="91" y1="40" y2="40"/><rect fill="none" height="6" style="stroke: #C82930; stroke-width: 1.0;" width="6" x="17" y="48.9023"/><text fill="#000000" font-family="sans-serif" font-size="11" lengthAdjust="spacingAndGlyphs" textLength="10" x="29" y="54.2104">id</text><rect fill="none" height="6" style="stroke: #C82930; stroke-width: 1.0;" width="6" x="17" y="61.707"/><text fill="#000000" font-family="sans-serif" font-size="11" lengthAdjust="spacingAndGlyphs" textLength="32" x="29" y="67.0151">name</text><line style="stroke: #A80036; stroke-width: 1.5;" x1="10" x2="91" y1="73.6094" y2="73.6094"/><!--class ModalityType--><rect fill="#FEFECE" filter="url(#fiqwypzo3jf9l)" height="73.6094" id="ModalityType" style="stroke: #A80036; stroke-width: 1.5;" width="112" x="127.5" y="8"/><ellipse cx="142.5" cy="24" fill="#ADD1B2" rx="11" ry="11" style="stroke: #A80036; stroke-width: 1.0;"/><path d="M144.8438,19.6719 L145.0156,19.75 C145.2344,19.4375 145.4375,19.3438 145.7344,19.3438 C146.0313,19.3438 146.3125,19.4844 146.4688,19.75 C146.5625,19.9063 146.5781,20.0313 146.5781,20.4688 L146.5781,21.8906 C146.5781,22.3125 146.5469,22.5 146.4375,22.6563 C146.2656,22.875 146,23.0156 145.7344,23.0156 C145.5156,23.0156 145.2813,22.9063 145.1406,22.7656 C145,22.6406 144.9688,22.5156 144.9063,22.1094 C144.8125,21.7031 144.6406,21.4844 144.1563,21.2031 C143.6875,20.9531 143.0781,20.7969 142.5,20.7969 C140.7656,20.7969 139.5156,22.1094 139.5156,23.8906 L139.5156,24.9844 C139.5156,26.6875 140.8125,27.7813 142.8594,27.7813 C143.625,27.7813 144.3125,27.6563 144.7344,27.3906 C144.9219,27.2969 144.9219,27.2969 145.375,26.8125 C145.5625,26.625 145.7656,26.5469 145.9844,26.5469 C146.4531,26.5469 146.8438,26.9375 146.8438,27.3906 C146.8438,27.7813 146.5156,28.2344 145.9375,28.6406 C145.1875,29.1875 144.0313,29.4844 142.8125,29.4844 C139.9219,29.4844 137.8125,27.5938 137.8125,25.0156 L137.8125,23.8906 C137.8125,21.1719 139.8125,19.0938 142.4375,19.0938 C143.3125,19.0938 143.9063,19.2344 144.8438,19.6719 Z "/><text fill="#000000" font-family="sans-serif" font-size="12" lengthAdjust="spacingAndGlyphs" textLength="80" x="156.5" y="28.1543">ModalityType</text><line style="stroke: #A80036; stroke-width: 1.5;" x1="128.5" x2="238.5" y1="40" y2="40"/><rect fill="none" height="6" style="stroke: #C82930; stroke-width: 1.0;" width="6" x="135.5" y="48.9023"/><text fill="#000000" font-family="sans-serif" font-size="11" lengthAdjust="spacingAndGlyphs" textLength="10" x="147.5" y="54.2104">id</text><rect fill="none" height="6" style="stroke: #C82930; stroke-width: 1.0;" width="6" x="135.5" y="61.707"/><text fill="#000000" font-family="sans-serif" font-size="11" lengthAdjust="spacingAndGlyphs" textLength="32" x="147.5" y="67.0151">name</text><line style="stroke: #A80036; stroke-width: 1.5;" x1="128.5" x2="238.5" y1="73.6094" y2="73.6094"/><!--class Criteria--><rect fill="#FEFECE" filter="url(#fiqwypzo3jf9l)" height="137.6328" id="Criteria" style="stroke: #A80036; stroke-width: 1.5;" width="88" x="390.5" y="142"/><ellipse cx="410.45" cy="158" fill="#ADD1B2" rx="11" ry="11" style="stroke: #A80036; stroke-width: 1.0;"/><path d="M412.7938,153.6719 L412.9656,153.75 C413.1844,153.4375 413.3875,153.3438 413.6844,153.3438 C413.9813,153.3438 414.2625,153.4844 414.4188,153.75 C414.5125,153.9063 414.5281,154.0313 414.5281,154.4688 L414.5281,155.8906 C414.5281,156.3125 414.4969,156.5 414.3875,156.6563 C414.2156,156.875 413.95,157.0156 413.6844,157.0156 C413.4656,157.0156 413.2313,156.9063 413.0906,156.7656 C412.95,156.6406 412.9188,156.5156 412.8563,156.1094 C412.7625,155.7031 412.5906,155.4844 412.1063,155.2031 C411.6375,154.9531 411.0281,154.7969 410.45,154.7969 C408.7156,154.7969 407.4656,156.1094 407.4656,157.8906 L407.4656,158.9844 C407.4656,160.6875 408.7625,161.7813 410.8094,161.7813 C411.575,161.7813 412.2625,161.6563 412.6844,161.3906 C412.8719,161.2969 412.8719,161.2969 413.325,160.8125 C413.5125,160.625 413.7156,160.5469 413.9344,160.5469 C414.4031,160.5469 414.7938,160.9375 414.7938,161.3906 C414.7938,161.7813 414.4656,162.2344 413.8875,162.6406 C413.1375,163.1875 411.9813,163.4844 410.7625,163.4844 C407.8719,163.4844 405.7625,161.5938 405.7625,159.0156 L405.7625,157.8906 C405.7625,155.1719 407.7625,153.0938 410.3875,153.0938 C411.2625,153.0938 411.8563,153.2344 412.7938,153.6719 Z "/><text fill="#000000" font-family="sans-serif" font-size="12" lengthAdjust="spacingAndGlyphs" textLength="45" x="425.55" y="162.1543">Criteria</text><line style="stroke: #A80036; stroke-width: 1.5;" x1="391.5" x2="477.5" y1="174" y2="174"/><rect fill="none" height="6" style="stroke: #C82930; stroke-width: 1.0;" width="6" x="398.5" y="182.9023"/><text fill="#000000" font-family="sans-serif" font-size="11" lengthAdjust="spacingAndGlyphs" textLength="34" x="410.5" y="188.2104">target</text><rect fill="none" height="6" style="stroke: #C82930; stroke-width: 1.0;" width="6" x="398.5" y="195.707"/><text fill="#000000" font-family="sans-serif" font-size="11" lengthAdjust="spacingAndGlyphs" textLength="62" x="410.5" y="201.0151">tableString</text><rect fill="none" height="6" style="stroke: #C82930; stroke-width: 1.0;" width="6" x="398.5" y="208.5117"/><text fill="#000000" font-family="sans-serif" font-size="11" lengthAdjust="spacingAndGlyphs" textLength="24" x="410.5" y="213.8198">field</text><rect fill="none" height="6" style="stroke: #C82930; stroke-width: 1.0;" width="6" x="398.5" y="221.3164"/><text fill="#000000" font-family="sans-serif" font-size="11" lengthAdjust="spacingAndGlyphs" textLength="51" x="410.5" y="226.6245">condition</text><rect fill="none" height="6" style="stroke: #C82930; stroke-width: 1.0;" width="6" x="398.5" y="234.1211"/><text fill="#000000" font-family="sans-serif" font-size="11" lengthAdjust="spacingAndGlyphs" textLength="24" x="410.5" y="239.4292">type</text><rect fill="none" height="6" style="stroke: #C82930; stroke-width: 1.0;" width="6" x="398.5" y="246.9258"/><text fill="#000000" font-family="sans-serif" font-size="11" lengthAdjust="spacingAndGlyphs" textLength="30" x="410.5" y="252.2339">value</text><rect fill="none" height="6" style="stroke: #C82930; stroke-width: 1.0;" width="6" x="398.5" y="259.7305"/><text fill="#000000" font-family="sans-serif" font-size="11" lengthAdjust="spacingAndGlyphs" textLength="37" x="410.5" y="265.0386">weight</text><line style="stroke: #A80036; stroke-width: 1.5;" x1="391.5" x2="477.5" y1="271.6328" y2="271.6328"/><!--class CriteriaValue--><rect fill="#FEFECE" filter="url(#fiqwypzo3jf9l)" height="73.6094" id="CriteriaValue" style="stroke: #A80036; stroke-width: 1.5;" width="112" x="274.5" y="8"/><ellipse cx="289.5" cy="24" fill="#ADD1B2" rx="11" ry="11" style="stroke: #A80036; stroke-width: 1.0;"/><path d="M291.8438,19.6719 L292.0156,19.75 C292.2344,19.4375 292.4375,19.3438 292.7344,19.3438 C293.0313,19.3438 293.3125,19.4844 293.4688,19.75 C293.5625,19.9063 293.5781,20.0313 293.5781,20.4688 L293.5781,21.8906 C293.5781,22.3125 293.5469,22.5 293.4375,22.6563 C293.2656,22.875 293,23.0156 292.7344,23.0156 C292.5156,23.0156 292.2813,22.9063 292.1406,22.7656 C292,22.6406 291.9688,22.5156 291.9063,22.1094 C291.8125,21.7031 291.6406,21.4844 291.1563,21.2031 C290.6875,20.9531 290.0781,20.7969 289.5,20.7969 C287.7656,20.7969 286.5156,22.1094 286.5156,23.8906 L286.5156,24.9844 C286.5156,26.6875 287.8125,27.7813 289.8594,27.7813 C290.625,27.7813 291.3125,27.6563 291.7344,27.3906 C291.9219,27.2969 291.9219,27.2969 292.375,26.8125 C292.5625,26.625 292.7656,26.5469 292.9844,26.5469 C293.4531,26.5469 293.8438,26.9375 293.8438,27.3906 C293.8438,27.7813 293.5156,28.2344 292.9375,28.6406 C292.1875,29.1875 291.0313,29.4844 289.8125,29.4844 C286.9219,29.4844 284.8125,27.5938 284.8125,25.0156 L284.8125,23.8906 C284.8125,21.1719 286.8125,19.0938 289.4375,19.0938 C290.3125,19.0938 290.9063,19.2344 291.8438,19.6719 Z "/><text fill="#000000" font-family="sans-serif" font-size="12" lengthAdjust="spacingAndGlyphs" textLength="80" x="303.5" y="28.1543">CriteriaValue</text><line style="stroke: #A80036; stroke-width: 1.5;" x1="275.5" x2="385.5" y1="40" y2="40"/><rect fill="none" height="6" style="stroke: #C82930; stroke-width: 1.0;" width="6" x="282.5" y="48.9023"/><text fill="#000000" font-family="sans-serif" font-size="11" lengthAdjust="spacingAndGlyphs" textLength="10" x="294.5" y="54.2104">id</text><rect fill="none" height="6" style="stroke: #C82930; stroke-width: 1.0;" width="6" x="282.5" y="61.707"/><text fill="#000000" font-family="sans-serif" font-size="11" lengthAdjust="spacingAndGlyphs" textLength="32" x="294.5" y="67.0151">name</text><line style="stroke: #A80036; stroke-width: 1.5;" x1="275.5" x2="385.5" y1="73.6094" y2="73.6094"/><!--class CriteriaType--><rect fill="#FEFECE" filter="url(#fiqwypzo3jf9l)" height="73.6094" id="CriteriaType" style="stroke: #A80036; stroke-width: 1.5;" width="106" x="421.5" y="8"/><ellipse cx="436.5" cy="24" fill="#ADD1B2" rx="11" ry="11" style="stroke: #A80036; stroke-width: 1.0;"/><path d="M438.8438,19.6719 L439.0156,19.75 C439.2344,19.4375 439.4375,19.3438 439.7344,19.3438 C440.0313,19.3438 440.3125,19.4844 440.4688,19.75 C440.5625,19.9063 440.5781,20.0313 440.5781,20.4688 L440.5781,21.8906 C440.5781,22.3125 440.5469,22.5 440.4375,22.6563 C440.2656,22.875 440,23.0156 439.7344,23.0156 C439.5156,23.0156 439.2813,22.9063 439.1406,22.7656 C439,22.6406 438.9688,22.5156 438.9063,22.1094 C438.8125,21.7031 438.6406,21.4844 438.1563,21.2031 C437.6875,20.9531 437.0781,20.7969 436.5,20.7969 C434.7656,20.7969 433.5156,22.1094 433.5156,23.8906 L433.5156,24.9844 C433.5156,26.6875 434.8125,27.7813 436.8594,27.7813 C437.625,27.7813 438.3125,27.6563 438.7344,27.3906 C438.9219,27.2969 438.9219,27.2969 439.375,26.8125 C439.5625,26.625 439.7656,26.5469 439.9844,26.5469 C440.4531,26.5469 440.8438,26.9375 440.8438,27.3906 C440.8438,27.7813 440.5156,28.2344 439.9375,28.6406 C439.1875,29.1875 438.0313,29.4844 436.8125,29.4844 C433.9219,29.4844 431.8125,27.5938 431.8125,25.0156 L431.8125,23.8906 C431.8125,21.1719 433.8125,19.0938 436.4375,19.0938 C437.3125,19.0938 437.9063,19.2344 438.8438,19.6719 Z "/><text fill="#000000" font-family="sans-serif" font-size="12" lengthAdjust="spacingAndGlyphs" textLength="74" x="450.5" y="28.1543">CriteriaType</text><line style="stroke: #A80036; stroke-width: 1.5;" x1="422.5" x2="526.5" y1="40" y2="40"/><rect fill="none" height="6" style="stroke: #C82930; stroke-width: 1.0;" width="6" x="429.5" y="48.9023"/><text fill="#000000" font-family="sans-serif" font-size="11" lengthAdjust="spacingAndGlyphs" textLength="10" x="441.5" y="54.2104">id</text><rect fill="none" height="6" style="stroke: #C82930; stroke-width: 1.0;" width="6" x="429.5" y="61.707"/><text fill="#000000" font-family="sans-serif" font-size="11" lengthAdjust="spacingAndGlyphs" textLength="32" x="441.5" y="67.0151">name</text><line style="stroke: #A80036; stroke-width: 1.5;" x1="422.5" x2="526.5" y1="73.6094" y2="73.6094"/><!--class CriteriaCondition--><rect fill="#FEFECE" filter="url(#fiqwypzo3jf9l)" height="73.6094" id="CriteriaCondition" style="stroke: #A80036; stroke-width: 1.5;" width="136" x="562.5" y="8"/><ellipse cx="577.5" cy="24" fill="#ADD1B2" rx="11" ry="11" style="stroke: #A80036; stroke-width: 1.0;"/><path d="M579.8438,19.6719 L580.0156,19.75 C580.2344,19.4375 580.4375,19.3438 580.7344,19.3438 C581.0313,19.3438 581.3125,19.4844 581.4688,19.75 C581.5625,19.9063 581.5781,20.0313 581.5781,20.4688 L581.5781,21.8906 C581.5781,22.3125 581.5469,22.5 581.4375,22.6563 C581.2656,22.875 581,23.0156 580.7344,23.0156 C580.5156,23.0156 580.2813,22.9063 580.1406,22.7656 C580,22.6406 579.9688,22.5156 579.9063,22.1094 C579.8125,21.7031 579.6406,21.4844 579.1563,21.2031 C578.6875,20.9531 578.0781,20.7969 577.5,20.7969 C575.7656,20.7969 574.5156,22.1094 574.5156,23.8906 L574.5156,24.9844 C574.5156,26.6875 575.8125,27.7813 577.8594,27.7813 C578.625,27.7813 579.3125,27.6563 579.7344,27.3906 C579.9219,27.2969 579.9219,27.2969 580.375,26.8125 C580.5625,26.625 580.7656,26.5469 580.9844,26.5469 C581.4531,26.5469 581.8438,26.9375 581.8438,27.3906 C581.8438,27.7813 581.5156,28.2344 580.9375,28.6406 C580.1875,29.1875 579.0313,29.4844 577.8125,29.4844 C574.9219,29.4844 572.8125,27.5938 572.8125,25.0156 L572.8125,23.8906 C572.8125,21.1719 574.8125,19.0938 577.4375,19.0938 C578.3125,19.0938 578.9063,19.2344 579.8438,19.6719 Z "/><text fill="#000000" font-family="sans-serif" font-size="12" lengthAdjust="spacingAndGlyphs" textLength="104" x="591.5" y="28.1543">CriteriaCondition</text><line style="stroke: #A80036; stroke-width: 1.5;" x1="563.5" x2="697.5" y1="40" y2="40"/><rect fill="none" height="6" style="stroke: #C82930; stroke-width: 1.0;" width="6" x="570.5" y="48.9023"/><text fill="#000000" font-family="sans-serif" font-size="11" lengthAdjust="spacingAndGlyphs" textLength="10" x="582.5" y="54.2104">id</text><rect fill="none" height="6" style="stroke: #C82930; stroke-width: 1.0;" width="6" x="570.5" y="61.707"/><text fill="#000000" font-family="sans-serif" font-size="11" lengthAdjust="spacingAndGlyphs" textLength="32" x="582.5" y="67.0151">name</text><line style="stroke: #A80036; stroke-width: 1.5;" x1="563.5" x2="697.5" y1="73.6094" y2="73.6094"/><!--class Booklet--><rect fill="#FEFECE" filter="url(#fiqwypzo3jf9l)" height="48" id="Booklet" style="stroke: #A80036; stroke-width: 1.5;" width="79" x="395" y="627"/><ellipse cx="410" cy="643" fill="#ADD1B2" rx="11" ry="11" style="stroke: #A80036; stroke-width: 1.0;"/><path d="M412.3438,638.6719 L412.5156,638.75 C412.7344,638.4375 412.9375,638.3438 413.2344,638.3438 C413.5313,638.3438 413.8125,638.4844 413.9688,638.75 C414.0625,638.9063 414.0781,639.0313 414.0781,639.4688 L414.0781,640.8906 C414.0781,641.3125 414.0469,641.5 413.9375,641.6563 C413.7656,641.875 413.5,642.0156 413.2344,642.0156 C413.0156,642.0156 412.7813,641.9063 412.6406,641.7656 C412.5,641.6406 412.4688,641.5156 412.4063,641.1094 C412.3125,640.7031 412.1406,640.4844 411.6563,640.2031 C411.1875,639.9531 410.5781,639.7969 410,639.7969 C408.2656,639.7969 407.0156,641.1094 407.0156,642.8906 L407.0156,643.9844 C407.0156,645.6875 408.3125,646.7813 410.3594,646.7813 C411.125,646.7813 411.8125,646.6563 412.2344,646.3906 C412.4219,646.2969 412.4219,646.2969 412.875,645.8125 C413.0625,645.625 413.2656,645.5469 413.4844,645.5469 C413.9531,645.5469 414.3438,645.9375 414.3438,646.3906 C414.3438,646.7813 414.0156,647.2344 413.4375,647.6406 C412.6875,648.1875 411.5313,648.4844 410.3125,648.4844 C407.4219,648.4844 405.3125,646.5938 405.3125,644.0156 L405.3125,642.8906 C405.3125,640.1719 407.3125,638.0938 409.9375,638.0938 C410.8125,638.0938 411.4063,638.2344 412.3438,638.6719 Z "/><text fill="#000000" font-family="sans-serif" font-size="12" lengthAdjust="spacingAndGlyphs" textLength="47" x="424" y="647.1543">Booklet</text><line style="stroke: #A80036; stroke-width: 1.5;" x1="396" x2="473" y1="659" y2="659"/><line style="stroke: #A80036; stroke-width: 1.5;" x1="396" x2="473" y1="667" y2="667"/><!--class Beneficiary--><rect fill="#FEFECE" filter="url(#fiqwypzo3jf9l)" height="48" id="Beneficiary" style="stroke: #A80036; stroke-width: 1.5;" width="100" x="217.5" y="429.5"/><ellipse cx="232.5" cy="445.5" fill="#ADD1B2" rx="11" ry="11" style="stroke: #A80036; stroke-width: 1.0;"/><path d="M234.8438,441.1719 L235.0156,441.25 C235.2344,440.9375 235.4375,440.8438 235.7344,440.8438 C236.0313,440.8438 236.3125,440.9844 236.4688,441.25 C236.5625,441.4063 236.5781,441.5313 236.5781,441.9688 L236.5781,443.3906 C236.5781,443.8125 236.5469,444 236.4375,444.1563 C236.2656,444.375 236,444.5156 235.7344,444.5156 C235.5156,444.5156 235.2813,444.4063 235.1406,444.2656 C235,444.1406 234.9688,444.0156 234.9063,443.6094 C234.8125,443.2031 234.6406,442.9844 234.1563,442.7031 C233.6875,442.4531 233.0781,442.2969 232.5,442.2969 C230.7656,442.2969 229.5156,443.6094 229.5156,445.3906 L229.5156,446.4844 C229.5156,448.1875 230.8125,449.2813 232.8594,449.2813 C233.625,449.2813 234.3125,449.1563 234.7344,448.8906 C234.9219,448.7969 234.9219,448.7969 235.375,448.3125 C235.5625,448.125 235.7656,448.0469 235.9844,448.0469 C236.4531,448.0469 236.8438,448.4375 236.8438,448.8906 C236.8438,449.2813 236.5156,449.7344 235.9375,450.1406 C235.1875,450.6875 234.0313,450.9844 232.8125,450.9844 C229.9219,450.9844 227.8125,449.0938 227.8125,446.5156 L227.8125,445.3906 C227.8125,442.6719 229.8125,440.5938 232.4375,440.5938 C233.3125,440.5938 233.9063,440.7344 234.8438,441.1719 Z "/><text fill="#000000" font-family="sans-serif" font-size="12" lengthAdjust="spacingAndGlyphs" textLength="68" x="246.5" y="449.6543">Beneficiary</text><line style="stroke: #A80036; stroke-width: 1.5;" x1="218.5" x2="316.5" y1="461.5" y2="461.5"/><line style="stroke: #A80036; stroke-width: 1.5;" x1="218.5" x2="316.5" y1="469.5" y2="469.5"/><!--class DistributionBeneficiary--><rect fill="#FEFECE" filter="url(#fiqwypzo3jf9l)" height="48" id="DistributionBeneficiary" style="stroke: #A80036; stroke-width: 1.5;" width="172" x="184.5" y="627"/><ellipse cx="199.5" cy="643" fill="#ADD1B2" rx="11" ry="11" style="stroke: #A80036; stroke-width: 1.0;"/><path d="M201.8438,638.6719 L202.0156,638.75 C202.2344,638.4375 202.4375,638.3438 202.7344,638.3438 C203.0313,638.3438 203.3125,638.4844 203.4688,638.75 C203.5625,638.9063 203.5781,639.0313 203.5781,639.4688 L203.5781,640.8906 C203.5781,641.3125 203.5469,641.5 203.4375,641.6563 C203.2656,641.875 203,642.0156 202.7344,642.0156 C202.5156,642.0156 202.2813,641.9063 202.1406,641.7656 C202,641.6406 201.9688,641.5156 201.9063,641.1094 C201.8125,640.7031 201.6406,640.4844 201.1563,640.2031 C200.6875,639.9531 200.0781,639.7969 199.5,639.7969 C197.7656,639.7969 196.5156,641.1094 196.5156,642.8906 L196.5156,643.9844 C196.5156,645.6875 197.8125,646.7813 199.8594,646.7813 C200.625,646.7813 201.3125,646.6563 201.7344,646.3906 C201.9219,646.2969 201.9219,646.2969 202.375,645.8125 C202.5625,645.625 202.7656,645.5469 202.9844,645.5469 C203.4531,645.5469 203.8438,645.9375 203.8438,646.3906 C203.8438,646.7813 203.5156,647.2344 202.9375,647.6406 C202.1875,648.1875 201.0313,648.4844 199.8125,648.4844 C196.9219,648.4844 194.8125,646.5938 194.8125,644.0156 L194.8125,642.8906 C194.8125,640.1719 196.8125,638.0938 199.4375,638.0938 C200.3125,638.0938 200.9063,638.2344 201.8438,638.6719 Z "/><text fill="#000000" font-family="sans-serif" font-size="12" lengthAdjust="spacingAndGlyphs" textLength="140" x="213.5" y="647.1543">DistributionBeneficiary</text><line style="stroke: #A80036; stroke-width: 1.5;" x1="185.5" x2="355.5" y1="659" y2="659"/><line style="stroke: #A80036; stroke-width: 1.5;" x1="185.5" x2="355.5" y1="667" y2="667"/><!--class Location--><rect fill="#FEFECE" filter="url(#fiqwypzo3jf9l)" height="48" id="Location" style="stroke: #A80036; stroke-width: 1.5;" width="85" x="514" y="187"/><ellipse cx="529" cy="203" fill="#ADD1B2" rx="11" ry="11" style="stroke: #A80036; stroke-width: 1.0;"/><path d="M531.3438,198.6719 L531.5156,198.75 C531.7344,198.4375 531.9375,198.3438 532.2344,198.3438 C532.5313,198.3438 532.8125,198.4844 532.9688,198.75 C533.0625,198.9063 533.0781,199.0313 533.0781,199.4688 L533.0781,200.8906 C533.0781,201.3125 533.0469,201.5 532.9375,201.6563 C532.7656,201.875 532.5,202.0156 532.2344,202.0156 C532.0156,202.0156 531.7813,201.9063 531.6406,201.7656 C531.5,201.6406 531.4688,201.5156 531.4063,201.1094 C531.3125,200.7031 531.1406,200.4844 530.6563,200.2031 C530.1875,199.9531 529.5781,199.7969 529,199.7969 C527.2656,199.7969 526.0156,201.1094 526.0156,202.8906 L526.0156,203.9844 C526.0156,205.6875 527.3125,206.7813 529.3594,206.7813 C530.125,206.7813 530.8125,206.6563 531.2344,206.3906 C531.4219,206.2969 531.4219,206.2969 531.875,205.8125 C532.0625,205.625 532.2656,205.5469 532.4844,205.5469 C532.9531,205.5469 533.3438,205.9375 533.3438,206.3906 C533.3438,206.7813 533.0156,207.2344 532.4375,207.6406 C531.6875,208.1875 530.5313,208.4844 529.3125,208.4844 C526.4219,208.4844 524.3125,206.5938 524.3125,204.0156 L524.3125,202.8906 C524.3125,200.1719 526.3125,198.0938 528.9375,198.0938 C529.8125,198.0938 530.4063,198.2344 531.3438,198.6719 Z "/><text fill="#000000" font-family="sans-serif" font-size="12" lengthAdjust="spacingAndGlyphs" textLength="53" x="543" y="207.1543">Location</text><line style="stroke: #A80036; stroke-width: 1.5;" x1="515" x2="598" y1="219" y2="219"/><line style="stroke: #A80036; stroke-width: 1.5;" x1="515" x2="598" y1="227" y2="227"/><!--class Project--><rect fill="#FEFECE" filter="url(#fiqwypzo3jf9l)" height="48" id="Project" style="stroke: #A80036; stroke-width: 1.5;" width="76" x="634.5" y="187"/><ellipse cx="649.5" cy="203" fill="#ADD1B2" rx="11" ry="11" style="stroke: #A80036; stroke-width: 1.0;"/><path d="M651.8438,198.6719 L652.0156,198.75 C652.2344,198.4375 652.4375,198.3438 652.7344,198.3438 C653.0313,198.3438 653.3125,198.4844 653.4688,198.75 C653.5625,198.9063 653.5781,199.0313 653.5781,199.4688 L653.5781,200.8906 C653.5781,201.3125 653.5469,201.5 653.4375,201.6563 C653.2656,201.875 653,202.0156 652.7344,202.0156 C652.5156,202.0156 652.2813,201.9063 652.1406,201.7656 C652,201.6406 651.9688,201.5156 651.9063,201.1094 C651.8125,200.7031 651.6406,200.4844 651.1563,200.2031 C650.6875,199.9531 650.0781,199.7969 649.5,199.7969 C647.7656,199.7969 646.5156,201.1094 646.5156,202.8906 L646.5156,203.9844 C646.5156,205.6875 647.8125,206.7813 649.8594,206.7813 C650.625,206.7813 651.3125,206.6563 651.7344,206.3906 C651.9219,206.2969 651.9219,206.2969 652.375,205.8125 C652.5625,205.625 652.7656,205.5469 652.9844,205.5469 C653.4531,205.5469 653.8438,205.9375 653.8438,206.3906 C653.8438,206.7813 653.5156,207.2344 652.9375,207.6406 C652.1875,208.1875 651.0313,208.4844 649.8125,208.4844 C646.9219,208.4844 644.8125,206.5938 644.8125,204.0156 L644.8125,202.8906 C644.8125,200.1719 646.8125,198.0938 649.4375,198.0938 C650.3125,198.0938 650.9063,198.2344 651.8438,198.6719 Z "/><text fill="#000000" font-family="sans-serif" font-size="12" lengthAdjust="spacingAndGlyphs" textLength="44" x="663.5" y="207.1543">Project</text><line style="stroke: #A80036; stroke-width: 1.5;" x1="635.5" x2="709.5" y1="219" y2="219"/><line style="stroke: #A80036; stroke-width: 1.5;" x1="635.5" x2="709.5" y1="227" y2="227"/><!--class Adm--><rect fill="#FEFECE" filter="url(#fiqwypzo3jf9l)" height="48" id="Adm" style="stroke: #A80036; stroke-width: 1.5;" width="59" x="734" y="21"/><ellipse cx="749" cy="37" fill="#ADD1B2" rx="11" ry="11" style="stroke: #A80036; stroke-width: 1.0;"/><path d="M751.3438,32.6719 L751.5156,32.75 C751.7344,32.4375 751.9375,32.3438 752.2344,32.3438 C752.5313,32.3438 752.8125,32.4844 752.9688,32.75 C753.0625,32.9063 753.0781,33.0313 753.0781,33.4688 L753.0781,34.8906 C753.0781,35.3125 753.0469,35.5 752.9375,35.6563 C752.7656,35.875 752.5,36.0156 752.2344,36.0156 C752.0156,36.0156 751.7813,35.9063 751.6406,35.7656 C751.5,35.6406 751.4688,35.5156 751.4063,35.1094 C751.3125,34.7031 751.1406,34.4844 750.6563,34.2031 C750.1875,33.9531 749.5781,33.7969 749,33.7969 C747.2656,33.7969 746.0156,35.1094 746.0156,36.8906 L746.0156,37.9844 C746.0156,39.6875 747.3125,40.7813 749.3594,40.7813 C750.125,40.7813 750.8125,40.6563 751.2344,40.3906 C751.4219,40.2969 751.4219,40.2969 751.875,39.8125 C752.0625,39.625 752.2656,39.5469 752.4844,39.5469 C752.9531,39.5469 753.3438,39.9375 753.3438,40.3906 C753.3438,40.7813 753.0156,41.2344 752.4375,41.6406 C751.6875,42.1875 750.5313,42.4844 749.3125,42.4844 C746.4219,42.4844 744.3125,40.5938 744.3125,38.0156 L744.3125,36.8906 C744.3125,34.1719 746.3125,32.0938 748.9375,32.0938 C749.8125,32.0938 750.4063,32.2344 751.3438,32.6719 Z "/><text fill="#000000" font-family="sans-serif" font-size="12" lengthAdjust="spacingAndGlyphs" textLength="27" x="763" y="41.1543">Adm</text><line style="stroke: #A80036; stroke-width: 1.5;" x1="735" x2="792" y1="53" y2="53"/><line style="stroke: #A80036; stroke-width: 1.5;" x1="735" x2="792" y1="61" y2="61"/><!--link Distribution to Booklet--><path d="M434.5,580.2556 C434.5,598.0592 434.5,614.5091 434.5,626.9566 " fill="none" id="Distribution-Booklet" style="stroke: #A80036; stroke-width: 1.0;"/><polygon fill="#FFFFFF" points="434.5,567.09,430.5,573.09,434.5,579.09,438.5,573.09,434.5,567.09" style="stroke: #A80036; stroke-width: 1.0;"/><text fill="#000000" font-family="sans-serif" font-size="13" lengthAdjust="spacingAndGlyphs" textLength="8" x="426.2313" y="587.2882">1</text><text fill="#000000" font-family="sans-serif" font-size="13" lengthAdjust="spacingAndGlyphs" textLength="20" x="411.9375" y="615.9575">0-*</text><!--link Modality to Commodity--><path d="M101.306,91.087 C118.953,106.99 138.759,125.116 156.5,142 C162.184,147.41 168.073,153.125 173.9,158.852 " fill="none" id="Modality-Commodity" style="stroke: #A80036; stroke-width: 1.0;"/><polygon fill="#A80036" points="91.1975,82.006,92.9875,88.9914,100.124,90.0258,98.334,83.0404,91.1975,82.006" style="stroke: #A80036; stroke-width: 1.0;"/><text fill="#000000" font-family="sans-serif" font-size="13" lengthAdjust="spacingAndGlyphs" textLength="8" x="89.5049" y="101.7673">1</text><text fill="#000000" font-family="sans-serif" font-size="13" lengthAdjust="spacingAndGlyphs" textLength="8" x="157.8806" y="147.1805">1</text><!--link ModalityType to Commodity--><path d="M195.809,95.235 C199.976,111.904 204.684,130.735 209.063,148.251 " fill="none" id="ModalityType-Commodity" style="stroke: #A80036; stroke-width: 1.0;"/><polygon fill="#A80036" points="192.599,82.397,190.1736,89.188,195.5094,94.0387,197.9348,87.2477,192.599,82.397" style="stroke: #A80036; stroke-width: 1.0;"/><text fill="#000000" font-family="sans-serif" font-size="13" lengthAdjust="spacingAndGlyphs" textLength="8" x="185.4117" y="101.6611">1</text><text fill="#000000" font-family="sans-serif" font-size="13" lengthAdjust="spacingAndGlyphs" textLength="8" x="198.9371" y="137.6511">1</text><!--link CriteriaValue to Criteria--><path d="M360.617,93.492 C370.161,108.542 380.907,125.488 391.188,141.7 " fill="none" id="CriteriaValue-Criteria" style="stroke: #A80036; stroke-width: 1.0;"/><polygon fill="#A80036" points="353.581,82.397,353.4159,89.6062,360.0071,92.5314,360.1722,85.3221,353.581,82.397" style="stroke: #A80036; stroke-width: 1.0;"/><text fill="#000000" font-family="sans-serif" font-size="13" lengthAdjust="spacingAndGlyphs" textLength="8" x="348.622" y="101.6611">1</text><text fill="#000000" font-family="sans-serif" font-size="13" lengthAdjust="spacingAndGlyphs" textLength="8" x="378.309" y="130.8727">1</text><!--link CriteriaCondition to Criteria--><path d="M564.017,89.496 C541.782,105.107 517.364,123.456 496.5,142 C490.529,147.307 484.526,153.134 478.73,159.077 " fill="none" id="CriteriaCondition-Criteria" style="stroke: #A80036; stroke-width: 1.0;"/><polygon fill="#A80036" points="574.731,82.063,567.5211,82.196,564.8708,88.9024,572.0807,88.7694,574.731,82.063" style="stroke: #A80036; stroke-width: 1.0;"/><text fill="#000000" font-family="sans-serif" font-size="13" lengthAdjust="spacingAndGlyphs" textLength="8" x="556.8318" y="101.554">1</text><text fill="#000000" font-family="sans-serif" font-size="13" lengthAdjust="spacingAndGlyphs" textLength="8" x="486.4167" y="146.7132">1</text><!--link CriteriaType to Criteria--><path d="M462.483,95.271 C458.922,109.87 454.958,126.124 451.159,141.7 " fill="none" id="CriteriaType-Criteria" style="stroke: #A80036; stroke-width: 1.0;"/><polygon fill="#A80036" points="465.623,82.397,460.3154,87.2785,462.78,94.0553,468.0876,89.1739,465.623,82.397" style="stroke: #A80036; stroke-width: 1.0;"/><text fill="#000000" font-family="sans-serif" font-size="13" lengthAdjust="spacingAndGlyphs" textLength="8" x="455.5707" y="101.6611">1</text><text fill="#000000" font-family="sans-serif" font-size="13" lengthAdjust="spacingAndGlyphs" textLength="8" x="444.4645" y="130.8727">1</text><!--link Beneficiary to DistributionBeneficiary--><path d="M268.056,490.725 C268.666,530.506 269.628,593.1961 270.145,626.8361 " fill="none" id="Beneficiary-DistributionBeneficiary" style="stroke: #A80036; stroke-width: 1.0;"/><polygon fill="#A80036" points="267.856,477.694,263.9481,483.7544,268.0393,489.6926,271.9472,483.6322,267.856,477.694" style="stroke: #A80036; stroke-width: 1.0;"/><text fill="#000000" font-family="sans-serif" font-size="13" lengthAdjust="spacingAndGlyphs" textLength="8" x="258.9678" y="497.5025">1</text><text fill="#000000" font-family="sans-serif" font-size="13" lengthAdjust="spacingAndGlyphs" textLength="20" x="247.4915" y="615.8061">0-*</text><!--link Distribution to DistributionBeneficiary--><path d="M343.796,562.625 C323.388,586.9533 303.707,610.4142 289.887,626.8888 " fill="none" id="Distribution-DistributionBeneficiary" style="stroke: #A80036; stroke-width: 1.0;"/><polygon fill="#A80036" points="352.26,552.536,345.3395,554.5624,344.5483,561.73,351.4688,559.7036,352.26,552.536" style="stroke: #A80036; stroke-width: 1.0;"/><text fill="#000000" font-family="sans-serif" font-size="13" lengthAdjust="spacingAndGlyphs" textLength="8" x="336.5793" y="557.7494">1</text><text fill="#000000" font-family="sans-serif" font-size="13" lengthAdjust="spacingAndGlyphs" textLength="20" x="297.4174" y="615.8723">0-*</text><!--link DistributionType to Distribution--><path d="M121.619,256.535 C132.593,265.091 144.54,273.422 156.5,280 C229.651,320.231 264.881,293.925 334.5,340 C340.602,344.038 346.565,348.539 352.347,353.353 " fill="none" id="DistributionType-Distribution" style="stroke: #A80036; stroke-width: 1.0;"/><polygon fill="#A80036" points="111.426,248.312,113.5839,255.1927,120.7652,255.8472,118.6073,248.9665,111.426,248.312" style="stroke: #A80036; stroke-width: 1.0;"/><text fill="#000000" font-family="sans-serif" font-size="13" lengthAdjust="spacingAndGlyphs" textLength="8" x="108.9927" y="267.5625">1</text><text fill="#000000" font-family="sans-serif" font-size="13" lengthAdjust="spacingAndGlyphs" textLength="8" x="336.4048" y="340.4901">1</text><!--link Location to Distribution--><path d="M538.91,246.676 C526.375,271.386 508.765,306.101 491.572,339.993 " fill="none" id="Location-Distribution" style="stroke: #A80036; stroke-width: 1.0;"/><polygon fill="#A80036" points="544.802,235.06,538.5204,238.6013,539.3733,245.7618,545.6549,242.2205,544.802,235.06" style="stroke: #A80036; stroke-width: 1.0;"/><text fill="#000000" font-family="sans-serif" font-size="13" lengthAdjust="spacingAndGlyphs" textLength="8" x="532.7794" y="255.2312">1</text><text fill="#000000" font-family="sans-serif" font-size="13" lengthAdjust="spacingAndGlyphs" textLength="8" x="487.1378" y="328.9253">1</text><!--link Project to Distribution--><path d="M646.236,245.555 C637.108,256.761 626.618,269.151 616.5,280 C585.174,313.588 548.758,348.789 516.767,378.568 " fill="none" id="Project-Distribution" style="stroke: #A80036; stroke-width: 1.0;"/><polygon fill="#FFFFFF" points="654.514,235.263,647.6367,237.4316,646.9934,244.614,653.8707,242.4454,654.514,235.263" style="stroke: #A80036; stroke-width: 1.0;"/><text fill="#000000" font-family="sans-serif" font-size="13" lengthAdjust="spacingAndGlyphs" textLength="8" x="641.1549" y="255.0883">1</text><text fill="#000000" font-family="sans-serif" font-size="13" lengthAdjust="spacingAndGlyphs" textLength="8" x="524.4502" y="368.2874">1</text><!--link Criteria to Distribution--><path d="M434.5,293.667 C434.5,308.554 434.5,324.323 434.5,339.919 " fill="none" id="Criteria-Distribution" style="stroke: #A80036; stroke-width: 1.0;"/><polygon fill="#A80036" points="434.5,280.274,430.5,286.274,434.5,292.274,438.5,286.274,434.5,280.274" style="stroke: #A80036; stroke-width: 1.0;"/><text fill="#000000" font-family="sans-serif" font-size="13" lengthAdjust="spacingAndGlyphs" textLength="20" x="413.5469" y="299.6822">0-*</text><text fill="#000000" font-family="sans-serif" font-size="13" lengthAdjust="spacingAndGlyphs" textLength="8" x="426.2313" y="328.8463">1</text><!--link Commodity to Distribution--><path d="M283.692,279.788 C305.018,304.212 329.48,332.228 352.41,358.488 " fill="none" id="Commodity-Distribution" style="stroke: #A80036; stroke-width: 1.0;"/><polygon fill="#A80036" points="275.067,269.912,276.0011,277.0624,282.9606,278.9503,282.0266,271.7999,275.067,269.912" style="stroke: #A80036; stroke-width: 1.0;"/><text fill="#000000" font-family="sans-serif" font-size="13" lengthAdjust="spacingAndGlyphs" textLength="20" x="282.8271" y="273.5856">0-*</text><text fill="#000000" font-family="sans-serif" font-size="13" lengthAdjust="spacingAndGlyphs" textLength="8" x="336.4736" y="362.4813">1</text><!--link Adm to Location--><path d="M723.727,76.934 C721.301,78.674 718.879,80.375 716.5,82 C674.015,111.019 657.107,109.161 617.5,142 C601.384,155.362 585.67,173.023 574.227,186.998 " fill="none" id="Adm-Location" style="stroke: #A80036; stroke-width: 1.0;"/><polygon fill="#A80036" points="734.277,69.161,727.0739,69.4999,724.6163,76.2793,731.8194,75.9404,734.277,69.161" style="stroke: #A80036; stroke-width: 1.0;"/><text fill="#000000" font-family="sans-serif" font-size="13" lengthAdjust="spacingAndGlyphs" textLength="21" x="705.0841" y="69.6779">0-4</text><text fill="#000000" font-family="sans-serif" font-size="13" lengthAdjust="spacingAndGlyphs" textLength="8" x="569.7445" y="176.0095">1</text><!--
@startuml
class Distribution {
    - id
    - name
    - location
    - distributionBeneficiaries
    - date
    - project
    - projectId
    - selectionCriteria
    - type
    - commodities
    - validated
    - threshold
    - finished
    - updatedOn
 }
 
 class DistributionType {
    - id
    - name
}

 
 class Commodity {
    - id
    - modality
    - modalityType
    - unit
    - value
    - description
 }
 
 class Modality {
    - id
    - name
}

class ModalityType {
    - id
    - name
}

class Criteria {
    - target
    - tableString
    - field
    - condition
    - type
    - value
    - weight
}


class CriteriaValue {
    - id
    - name
}


class CriteriaType {
    - id
    - name
}


class CriteriaCondition {
    - id
    - name
}

 
 Distribution "1" o- - "0-*" Booklet
 
 Modality "1" *- - "1" Commodity
 ModalityType "1" *- - "1" Commodity
 
 
 CriteriaValue "1" *- - "1" Criteria
 CriteriaCondition "1" *- - "1" Criteria
 CriteriaType "1" *- - "1" Criteria

 Beneficiary "1" *- - "0-*" DistributionBeneficiary
 Distribution "1" *- - "0-*" DistributionBeneficiary
 
 DistributionType "1" *- - "1" Distribution
 Location "1" *- - "1" Distribution
 Project "1" o- - "1" Distribution
 Criteria "0-*" *- - "1" Distribution
 Commodity "0-*" *- - "1" Distribution
 
 Adm "0-4" *- - "1" Location
@enduml

PlantUML version 1.2019.07(Mon Jun 24 19:59:20 UTC 2019)
(GPL source distribution)
Java Runtime: Java(TM) SE Runtime Environment
JVM: Java HotSpot(TM) 64-Bit Server VM
Java Version: 1.7.0_25-b15
Operating System: Linux
Default Encoding: UTF-8
Language: en
Country: US
--></g></svg>