<?xml version="1.0" encoding="UTF-8" standalone="no"?><svg xmlns="http://www.w3.org/2000/svg" xmlns:xlink="http://www.w3.org/1999/xlink" contentScriptType="application/ecmascript" contentStyleType="text/css" height="570px" preserveAspectRatio="none" style="width:994px;height:570px;" version="1.1" viewBox="0 0 994 570" width="994px" zoomAndPan="magnify"><defs><filter height="300%" id="f9g8qmfycpvbq" width="300%" x="-1" y="-1"><feGaussianBlur result="blurOut" stdDeviation="2.0"/><feColorMatrix in="blurOut" result="blurOut2" type="matrix" values="0 0 0 0 0 0 0 0 0 0 0 0 0 0 0 0 0 0 .4 0"/><feOffset dx="4.0" dy="4.0" in="blurOut2" result="blurOut3"/><feBlend in="SourceGraphic" in2="blurOut3" mode="normal"/></filter></defs><g><!--class CustomModelField--><rect fill="#FEFECE" filter="url(#f9g8qmfycpvbq)" height="48" id="CustomModelField" style="stroke: #A80036; stroke-width: 1.5;" width="156" x="395.5" y="339.5"/><ellipse cx="410.5" cy="355.5" fill="#ADD1B2" rx="11" ry="11" style="stroke: #A80036; stroke-width: 1.0;"/><path d="M412.8438,351.1719 L413.0156,351.25 C413.2344,350.9375 413.4375,350.8438 413.7344,350.8438 C414.0313,350.8438 414.3125,350.9844 414.4688,351.25 C414.5625,351.4063 414.5781,351.5313 414.5781,351.9688 L414.5781,353.3906 C414.5781,353.8125 414.5469,354 414.4375,354.1563 C414.2656,354.375 414,354.5156 413.7344,354.5156 C413.5156,354.5156 413.2813,354.4063 413.1406,354.2656 C413,354.1406 412.9688,354.0156 412.9063,353.6094 C412.8125,353.2031 412.6406,352.9844 412.1563,352.7031 C411.6875,352.4531 411.0781,352.2969 410.5,352.2969 C408.7656,352.2969 407.5156,353.6094 407.5156,355.3906 L407.5156,356.4844 C407.5156,358.1875 408.8125,359.2813 410.8594,359.2813 C411.625,359.2813 412.3125,359.1563 412.7344,358.8906 C412.9219,358.7969 412.9219,358.7969 413.375,358.3125 C413.5625,358.125 413.7656,358.0469 413.9844,358.0469 C414.4531,358.0469 414.8438,358.4375 414.8438,358.8906 C414.8438,359.2813 414.5156,359.7344 413.9375,360.1406 C413.1875,360.6875 412.0313,360.9844 410.8125,360.9844 C407.9219,360.9844 405.8125,359.0938 405.8125,356.5156 L405.8125,355.3906 C405.8125,352.6719 407.8125,350.5938 410.4375,350.5938 C411.3125,350.5938 411.9063,350.7344 412.8438,351.1719 Z "/><text fill="#000000" font-family="sans-serif" font-size="12" lengthAdjust="spacingAndGlyphs" textLength="113" x="424.5" y="359.6543">CustomModelField</text><rect fill="#FFFFFF" height="15.9688" style="stroke: #000000; stroke-width: 1.0; stroke-dasharray: 2.0,2.0;" width="9" x="545.5" y="336.5"/><text fill="#000000" font-family="sans-serif" font-size="12" font-style="italic" lengthAdjust="spacingAndGlyphs" textLength="7" x="546.5" y="348.6387">T</text><line style="stroke: #A80036; stroke-width: 1.5;" x1="396.5" x2="550.5" y1="371.5" y2="371.5"/><line style="stroke: #A80036; stroke-width: 1.5;" x1="396.5" x2="550.5" y1="379.5" y2="379.5"/><!--class ArrayInputField--><rect fill="#FEFECE" filter="url(#f9g8qmfycpvbq)" height="73.6094" id="ArrayInputField" style="stroke: #A80036; stroke-width: 1.5;" width="170" x="190.5" y="326.5"/><ellipse cx="220.8" cy="342.5" fill="#ADD1B2" rx="11" ry="11" style="stroke: #A80036; stroke-width: 1.0;"/><path d="M223.1438,338.1719 L223.3156,338.25 C223.5344,337.9375 223.7375,337.8438 224.0344,337.8438 C224.3313,337.8438 224.6125,337.9844 224.7688,338.25 C224.8625,338.4063 224.8781,338.5313 224.8781,338.9688 L224.8781,340.3906 C224.8781,340.8125 224.8469,341 224.7375,341.1563 C224.5656,341.375 224.3,341.5156 224.0344,341.5156 C223.8156,341.5156 223.5813,341.4063 223.4406,341.2656 C223.3,341.1406 223.2688,341.0156 223.2063,340.6094 C223.1125,340.2031 222.9406,339.9844 222.4563,339.7031 C221.9875,339.4531 221.3781,339.2969 220.8,339.2969 C219.0656,339.2969 217.8156,340.6094 217.8156,342.3906 L217.8156,343.4844 C217.8156,345.1875 219.1125,346.2813 221.1594,346.2813 C221.925,346.2813 222.6125,346.1563 223.0344,345.8906 C223.2219,345.7969 223.2219,345.7969 223.675,345.3125 C223.8625,345.125 224.0656,345.0469 224.2844,345.0469 C224.7531,345.0469 225.1438,345.4375 225.1438,345.8906 C225.1438,346.2813 224.8156,346.7344 224.2375,347.1406 C223.4875,347.6875 222.3313,347.9844 221.1125,347.9844 C218.2219,347.9844 216.1125,346.0938 216.1125,343.5156 L216.1125,342.3906 C216.1125,339.6719 218.1125,337.5938 220.7375,337.5938 C221.6125,337.5938 222.2063,337.7344 223.1438,338.1719 Z "/><text fill="#000000" font-family="sans-serif" font-size="12" lengthAdjust="spacingAndGlyphs" textLength="93" x="238.2" y="346.6543">ArrayInputField</text><rect fill="#FFFFFF" height="15.9688" style="stroke: #000000; stroke-width: 1.0; stroke-dasharray: 2.0,2.0;" width="9" x="354.5" y="323.5"/><text fill="#000000" font-family="sans-serif" font-size="12" font-style="italic" lengthAdjust="spacingAndGlyphs" textLength="7" x="355.5" y="335.6387">T</text><line style="stroke: #A80036; stroke-width: 1.5;" x1="191.5" x2="359.5" y1="358.5" y2="358.5"/><ellipse cx="201.5" cy="370.4023" fill="none" rx="3" ry="3" style="stroke: #038048; stroke-width: 1.0;"/><text fill="#000000" font-family="sans-serif" font-size="11" lengthAdjust="spacingAndGlyphs" textLength="53" x="210.5" y="372.7104">value: T[]</text><ellipse cx="201.5" cy="383.207" fill="none" rx="3" ry="3" style="stroke: #038048; stroke-width: 1.0;"/><text fill="#000000" font-family="sans-serif" font-size="11" lengthAdjust="spacingAndGlyphs" textLength="144" x="210.5" y="385.5151">numberOfInputs: number</text><line style="stroke: #A80036; stroke-width: 1.5;" x1="191.5" x2="359.5" y1="392.1094" y2="392.1094"/><!--class BooleanModelField--><rect fill="#FEFECE" filter="url(#f9g8qmfycpvbq)" height="60.8047" id="BooleanModelField" style="stroke: #A80036; stroke-width: 1.5;" width="149" x="6" y="333"/><ellipse cx="21" cy="349" fill="#ADD1B2" rx="11" ry="11" style="stroke: #A80036; stroke-width: 1.0;"/><path d="M23.3438,344.6719 L23.5156,344.75 C23.7344,344.4375 23.9375,344.3438 24.2344,344.3438 C24.5313,344.3438 24.8125,344.4844 24.9688,344.75 C25.0625,344.9063 25.0781,345.0313 25.0781,345.4688 L25.0781,346.8906 C25.0781,347.3125 25.0469,347.5 24.9375,347.6563 C24.7656,347.875 24.5,348.0156 24.2344,348.0156 C24.0156,348.0156 23.7813,347.9063 23.6406,347.7656 C23.5,347.6406 23.4688,347.5156 23.4063,347.1094 C23.3125,346.7031 23.1406,346.4844 22.6563,346.2031 C22.1875,345.9531 21.5781,345.7969 21,345.7969 C19.2656,345.7969 18.0156,347.1094 18.0156,348.8906 L18.0156,349.9844 C18.0156,351.6875 19.3125,352.7813 21.3594,352.7813 C22.125,352.7813 22.8125,352.6563 23.2344,352.3906 C23.4219,352.2969 23.4219,352.2969 23.875,351.8125 C24.0625,351.625 24.2656,351.5469 24.4844,351.5469 C24.9531,351.5469 25.3438,351.9375 25.3438,352.3906 C25.3438,352.7813 25.0156,353.2344 24.4375,353.6406 C23.6875,354.1875 22.5313,354.4844 21.3125,354.4844 C18.4219,354.4844 16.3125,352.5938 16.3125,350.0156 L16.3125,348.8906 C16.3125,346.1719 18.3125,344.0938 20.9375,344.0938 C21.8125,344.0938 22.4063,344.2344 23.3438,344.6719 Z "/><text fill="#000000" font-family="sans-serif" font-size="12" lengthAdjust="spacingAndGlyphs" textLength="117" x="35" y="353.1543">BooleanModelField</text><line style="stroke: #A80036; stroke-width: 1.5;" x1="7" x2="154" y1="365" y2="365"/><ellipse cx="17" cy="376.9023" fill="none" rx="3" ry="3" style="stroke: #038048; stroke-width: 1.0;"/><text fill="#000000" font-family="sans-serif" font-size="11" lengthAdjust="spacingAndGlyphs" textLength="84" x="26" y="379.2104">value: Boolean</text><line style="stroke: #A80036; stroke-width: 1.5;" x1="7" x2="154" y1="385.8047" y2="385.8047"/><!--class DateModelField--><rect fill="#FEFECE" filter="url(#f9g8qmfycpvbq)" height="99.2188" id="DateModelField" style="stroke: #A80036; stroke-width: 1.5;" width="231" x="752" y="314"/><ellipse cx="815.25" cy="330" fill="#ADD1B2" rx="11" ry="11" style="stroke: #A80036; stroke-width: 1.0;"/><path d="M817.5938,325.6719 L817.7656,325.75 C817.9844,325.4375 818.1875,325.3438 818.4844,325.3438 C818.7813,325.3438 819.0625,325.4844 819.2188,325.75 C819.3125,325.9063 819.3281,326.0313 819.3281,326.4688 L819.3281,327.8906 C819.3281,328.3125 819.2969,328.5 819.1875,328.6563 C819.0156,328.875 818.75,329.0156 818.4844,329.0156 C818.2656,329.0156 818.0313,328.9063 817.8906,328.7656 C817.75,328.6406 817.7188,328.5156 817.6563,328.1094 C817.5625,327.7031 817.3906,327.4844 816.9063,327.2031 C816.4375,326.9531 815.8281,326.7969 815.25,326.7969 C813.5156,326.7969 812.2656,328.1094 812.2656,329.8906 L812.2656,330.9844 C812.2656,332.6875 813.5625,333.7813 815.6094,333.7813 C816.375,333.7813 817.0625,333.6563 817.4844,333.3906 C817.6719,333.2969 817.6719,333.2969 818.125,332.8125 C818.3125,332.625 818.5156,332.5469 818.7344,332.5469 C819.2031,332.5469 819.5938,332.9375 819.5938,333.3906 C819.5938,333.7813 819.2656,334.2344 818.6875,334.6406 C817.9375,335.1875 816.7813,335.4844 815.5625,335.4844 C812.6719,335.4844 810.5625,333.5938 810.5625,331.0156 L810.5625,329.8906 C810.5625,327.1719 812.5625,325.0938 815.1875,325.0938 C816.0625,325.0938 816.6563,325.2344 817.5938,325.6719 Z "/><text fill="#000000" font-family="sans-serif" font-size="12" lengthAdjust="spacingAndGlyphs" textLength="96" x="835.75" y="334.1543">DateModelField</text><line style="stroke: #A80036; stroke-width: 1.5;" x1="753" x2="982" y1="346" y2="346"/><ellipse cx="763" cy="357.9023" fill="none" rx="3" ry="3" style="stroke: #038048; stroke-width: 1.0;"/><text fill="#000000" font-family="sans-serif" font-size="11" lengthAdjust="spacingAndGlyphs" textLength="64" x="772" y="360.2104">value: Date</text><ellipse cx="763" cy="370.707" fill="none" rx="3" ry="3" style="stroke: #038048; stroke-width: 1.0;"/><text fill="#000000" font-family="sans-serif" font-size="11" lengthAdjust="spacingAndGlyphs" textLength="125" x="772" y="373.0151">displayTime: boolean;</text><line style="stroke: #A80036; stroke-width: 1.5;" x1="753" x2="982" y1="379.6094" y2="379.6094"/><ellipse cx="763" cy="391.5117" fill="#84BE84" rx="3" ry="3" style="stroke: #038048; stroke-width: 1.0;"/><text fill="#000000" font-family="sans-serif" font-size="11" lengthAdjust="spacingAndGlyphs" text-decoration="underline" textLength="151" x="772" y="393.8198">formatFromApi(date): Date</text><ellipse cx="763" cy="404.3164" fill="#84BE84" rx="3" ry="3" style="stroke: #038048; stroke-width: 1.0;"/><text fill="#000000" font-family="sans-serif" font-size="11" lengthAdjust="spacingAndGlyphs" text-decoration="underline" textLength="205" x="772" y="406.6245">formatDateTimeFromApi(date): Date</text><!--class FileModelField--><rect fill="#FEFECE" filter="url(#f9g8qmfycpvbq)" height="86.4141" id="FileModelField" style="stroke: #A80036; stroke-width: 1.5;" width="130" x="586.5" y="320.5"/><ellipse cx="606.45" cy="336.5" fill="#ADD1B2" rx="11" ry="11" style="stroke: #A80036; stroke-width: 1.0;"/><path d="M608.7938,332.1719 L608.9656,332.25 C609.1844,331.9375 609.3875,331.8438 609.6844,331.8438 C609.9813,331.8438 610.2625,331.9844 610.4188,332.25 C610.5125,332.4063 610.5281,332.5313 610.5281,332.9688 L610.5281,334.3906 C610.5281,334.8125 610.4969,335 610.3875,335.1563 C610.2156,335.375 609.95,335.5156 609.6844,335.5156 C609.4656,335.5156 609.2313,335.4063 609.0906,335.2656 C608.95,335.1406 608.9188,335.0156 608.8563,334.6094 C608.7625,334.2031 608.5906,333.9844 608.1063,333.7031 C607.6375,333.4531 607.0281,333.2969 606.45,333.2969 C604.7156,333.2969 603.4656,334.6094 603.4656,336.3906 L603.4656,337.4844 C603.4656,339.1875 604.7625,340.2813 606.8094,340.2813 C607.575,340.2813 608.2625,340.1563 608.6844,339.8906 C608.8719,339.7969 608.8719,339.7969 609.325,339.3125 C609.5125,339.125 609.7156,339.0469 609.9344,339.0469 C610.4031,339.0469 610.7938,339.4375 610.7938,339.8906 C610.7938,340.2813 610.4656,340.7344 609.8875,341.1406 C609.1375,341.6875 607.9813,341.9844 606.7625,341.9844 C603.8719,341.9844 601.7625,340.0938 601.7625,337.5156 L601.7625,336.3906 C601.7625,333.6719 603.7625,331.5938 606.3875,331.5938 C607.2625,331.5938 607.8563,331.7344 608.7938,332.1719 Z "/><text fill="#000000" font-family="sans-serif" font-size="12" lengthAdjust="spacingAndGlyphs" textLength="87" x="621.55" y="340.6543">FileModelField</text><line style="stroke: #A80036; stroke-width: 1.5;" x1="587.5" x2="715.5" y1="352.5" y2="352.5"/><ellipse cx="597.5" cy="364.4023" fill="none" rx="3" ry="3" style="stroke: #038048; stroke-width: 1.0;"/><text fill="#000000" font-family="sans-serif" font-size="11" lengthAdjust="spacingAndGlyphs" textLength="71" x="606.5" y="366.7104">value: string</text><ellipse cx="597.5" cy="377.207" fill="none" rx="3" ry="3" style="stroke: #038048; stroke-width: 1.0;"/><text fill="#000000" font-family="sans-serif" font-size="11" lengthAdjust="spacingAndGlyphs" textLength="104" x="606.5" y="379.5151">uploadPath: string</text><ellipse cx="597.5" cy="390.0117" fill="none" rx="3" ry="3" style="stroke: #038048; stroke-width: 1.0;"/><text fill="#000000" font-family="sans-serif" font-size="11" lengthAdjust="spacingAndGlyphs" textLength="100" x="606.5" y="392.3198">fileUrlField: string</text><line style="stroke: #A80036; stroke-width: 1.5;" x1="587.5" x2="715.5" y1="398.9141" y2="398.9141"/><!--class MultipleObjectsModelField--><rect fill="#FEFECE" filter="url(#f9g8qmfycpvbq)" height="86.4141" id="MultipleObjectsModelField" style="stroke: #A80036; stroke-width: 1.5;" width="280" x="45.5" y="473"/><ellipse cx="60.5" cy="489" fill="#ADD1B2" rx="11" ry="11" style="stroke: #A80036; stroke-width: 1.0;"/><path d="M62.8438,484.6719 L63.0156,484.75 C63.2344,484.4375 63.4375,484.3438 63.7344,484.3438 C64.0313,484.3438 64.3125,484.4844 64.4688,484.75 C64.5625,484.9063 64.5781,485.0313 64.5781,485.4688 L64.5781,486.8906 C64.5781,487.3125 64.5469,487.5 64.4375,487.6563 C64.2656,487.875 64,488.0156 63.7344,488.0156 C63.5156,488.0156 63.2813,487.9063 63.1406,487.7656 C63,487.6406 62.9688,487.5156 62.9063,487.1094 C62.8125,486.7031 62.6406,486.4844 62.1563,486.2031 C61.6875,485.9531 61.0781,485.7969 60.5,485.7969 C58.7656,485.7969 57.5156,487.1094 57.5156,488.8906 L57.5156,489.9844 C57.5156,491.6875 58.8125,492.7813 60.8594,492.7813 C61.625,492.7813 62.3125,492.6563 62.7344,492.3906 C62.9219,492.2969 62.9219,492.2969 63.375,491.8125 C63.5625,491.625 63.7656,491.5469 63.9844,491.5469 C64.4531,491.5469 64.8438,491.9375 64.8438,492.3906 C64.8438,492.7813 64.5156,493.2344 63.9375,493.6406 C63.1875,494.1875 62.0313,494.4844 60.8125,494.4844 C57.9219,494.4844 55.8125,492.5938 55.8125,490.0156 L55.8125,488.8906 C55.8125,486.1719 57.8125,484.0938 60.4375,484.0938 C61.3125,484.0938 61.9063,484.2344 62.8438,484.6719 Z "/><text fill="#000000" font-family="sans-serif" font-size="12" lengthAdjust="spacingAndGlyphs" textLength="161" x="74.5" y="493.1543">MultipleObjectsModelField</text><rect fill="#FFFFFF" height="15.9688" style="stroke: #000000; stroke-width: 1.0; stroke-dasharray: 2.0,2.0;" width="85" x="243.5" y="470"/><text fill="#000000" font-family="sans-serif" font-size="12" font-style="italic" lengthAdjust="spacingAndGlyphs" textLength="83" x="244.5" y="482.1387">CustomModel</text><line style="stroke: #A80036; stroke-width: 1.5;" x1="46.5" x2="324.5" y1="505" y2="505"/><ellipse cx="56.5" cy="516.9023" fill="none" rx="3" ry="3" style="stroke: #038048; stroke-width: 1.0;"/><text fill="#000000" font-family="sans-serif" font-size="11" lengthAdjust="spacingAndGlyphs" textLength="123" x="65.5" y="519.2104">value: CustomModel[]</text><ellipse cx="56.5" cy="529.707" fill="none" rx="3" ry="3" style="stroke: #038048; stroke-width: 1.0;"/><text fill="#000000" font-family="sans-serif" font-size="11" lengthAdjust="spacingAndGlyphs" textLength="173" x="65.5" y="532.0151">displayTableFunction: Function</text><ellipse cx="56.5" cy="542.5117" fill="none" rx="3" ry="3" style="stroke: #038048; stroke-width: 1.0;"/><text fill="#000000" font-family="sans-serif" font-size="11" lengthAdjust="spacingAndGlyphs" textLength="175" x="65.5" y="544.8198">displayModalFunction: Function</text><line style="stroke: #A80036; stroke-width: 1.5;" x1="46.5" x2="324.5" y1="551.4141" y2="551.4141"/><!--class MutlipleSelectModelField--><rect fill="#FEFECE" filter="url(#f9g8qmfycpvbq)" height="73.6094" id="MutlipleSelectModelField" style="stroke: #A80036; stroke-width: 1.5;" width="192" x="57.5" y="8"/><ellipse cx="75.65" cy="24" fill="#ADD1B2" rx="11" ry="11" style="stroke: #A80036; stroke-width: 1.0;"/><path d="M77.9938,19.6719 L78.1656,19.75 C78.3844,19.4375 78.5875,19.3438 78.8844,19.3438 C79.1813,19.3438 79.4625,19.4844 79.6188,19.75 C79.7125,19.9063 79.7281,20.0313 79.7281,20.4688 L79.7281,21.8906 C79.7281,22.3125 79.6969,22.5 79.5875,22.6563 C79.4156,22.875 79.15,23.0156 78.8844,23.0156 C78.6656,23.0156 78.4313,22.9063 78.2906,22.7656 C78.15,22.6406 78.1188,22.5156 78.0563,22.1094 C77.9625,21.7031 77.7906,21.4844 77.3063,21.2031 C76.8375,20.9531 76.2281,20.7969 75.65,20.7969 C73.9156,20.7969 72.6656,22.1094 72.6656,23.8906 L72.6656,24.9844 C72.6656,26.6875 73.9625,27.7813 76.0094,27.7813 C76.775,27.7813 77.4625,27.6563 77.8844,27.3906 C78.0719,27.2969 78.0719,27.2969 78.525,26.8125 C78.7125,26.625 78.9156,26.5469 79.1344,26.5469 C79.6031,26.5469 79.9938,26.9375 79.9938,27.3906 C79.9938,27.7813 79.6656,28.2344 79.0875,28.6406 C78.3375,29.1875 77.1813,29.4844 75.9625,29.4844 C73.0719,29.4844 70.9625,27.5938 70.9625,25.0156 L70.9625,23.8906 C70.9625,21.1719 72.9625,19.0938 75.5875,19.0938 C76.4625,19.0938 77.0563,19.2344 77.9938,19.6719 Z "/><text fill="#000000" font-family="sans-serif" font-size="12" lengthAdjust="spacingAndGlyphs" textLength="153" x="90.35" y="28.1543">MutlipleSelectModelField</text><line style="stroke: #A80036; stroke-width: 1.5;" x1="58.5" x2="248.5" y1="40" y2="40"/><ellipse cx="68.5" cy="51.9023" fill="none" rx="3" ry="3" style="stroke: #038048; stroke-width: 1.0;"/><text fill="#000000" font-family="sans-serif" font-size="11" lengthAdjust="spacingAndGlyphs" textLength="123" x="77.5" y="54.2104">value: CustomModel[]</text><ellipse cx="68.5" cy="64.707" fill="none" rx="3" ry="3" style="stroke: #038048; stroke-width: 1.0;"/><text fill="#000000" font-family="sans-serif" font-size="11" lengthAdjust="spacingAndGlyphs" textLength="166" x="77.5" y="67.0151">maxSelectionLength: number</text><line style="stroke: #A80036; stroke-width: 1.5;" x1="58.5" x2="248.5" y1="73.6094" y2="73.6094"/><!--class NestedFieldModelField--><rect fill="#FEFECE" filter="url(#f9g8qmfycpvbq)" height="112.0234" id="NestedFieldModelField" style="stroke: #A80036; stroke-width: 1.5;" width="172" x="582.5" y="142"/><ellipse cx="597.5" cy="158" fill="#ADD1B2" rx="11" ry="11" style="stroke: #A80036; stroke-width: 1.0;"/><path d="M599.8438,153.6719 L600.0156,153.75 C600.2344,153.4375 600.4375,153.3438 600.7344,153.3438 C601.0313,153.3438 601.3125,153.4844 601.4688,153.75 C601.5625,153.9063 601.5781,154.0313 601.5781,154.4688 L601.5781,155.8906 C601.5781,156.3125 601.5469,156.5 601.4375,156.6563 C601.2656,156.875 601,157.0156 600.7344,157.0156 C600.5156,157.0156 600.2813,156.9063 600.1406,156.7656 C600,156.6406 599.9688,156.5156 599.9063,156.1094 C599.8125,155.7031 599.6406,155.4844 599.1563,155.2031 C598.6875,154.9531 598.0781,154.7969 597.5,154.7969 C595.7656,154.7969 594.5156,156.1094 594.5156,157.8906 L594.5156,158.9844 C594.5156,160.6875 595.8125,161.7813 597.8594,161.7813 C598.625,161.7813 599.3125,161.6563 599.7344,161.3906 C599.9219,161.2969 599.9219,161.2969 600.375,160.8125 C600.5625,160.625 600.7656,160.5469 600.9844,160.5469 C601.4531,160.5469 601.8438,160.9375 601.8438,161.3906 C601.8438,161.7813 601.5156,162.2344 600.9375,162.6406 C600.1875,163.1875 599.0313,163.4844 597.8125,163.4844 C594.9219,163.4844 592.8125,161.5938 592.8125,159.0156 L592.8125,157.8906 C592.8125,155.1719 594.8125,153.0938 597.4375,153.0938 C598.3125,153.0938 598.9063,153.2344 599.8438,153.6719 Z "/><text fill="#000000" font-family="sans-serif" font-size="12" lengthAdjust="spacingAndGlyphs" textLength="140" x="611.5" y="162.1543">NestedFieldModelField</text><line style="stroke: #A80036; stroke-width: 1.5;" x1="583.5" x2="753.5" y1="174" y2="174"/><ellipse cx="593.5" cy="185.9023" fill="none" rx="3" ry="3" style="stroke: #038048; stroke-width: 1.0;"/><text fill="#000000" font-family="sans-serif" font-size="11" lengthAdjust="spacingAndGlyphs" textLength="58" x="602.5" y="188.2104">value: any</text><ellipse cx="593.5" cy="198.707" fill="none" rx="3" ry="3" style="stroke: #038048; stroke-width: 1.0;"/><text fill="#000000" font-family="sans-serif" font-size="11" lengthAdjust="spacingAndGlyphs" textLength="122" x="602.5" y="201.0151">childrenObject: string</text><ellipse cx="593.5" cy="211.5117" fill="none" rx="3" ry="3" style="stroke: #038048; stroke-width: 1.0;"/><text fill="#000000" font-family="sans-serif" font-size="11" lengthAdjust="spacingAndGlyphs" textLength="145" x="602.5" y="213.8198">childrenFieldName: string</text><ellipse cx="593.5" cy="224.3164" fill="none" rx="3" ry="3" style="stroke: #038048; stroke-width: 1.0;"/><text fill="#000000" font-family="sans-serif" font-size="11" lengthAdjust="spacingAndGlyphs" textLength="119" x="602.5" y="226.6245">isPassword: boolean</text><ellipse cx="593.5" cy="237.1211" fill="none" rx="3" ry="3" style="stroke: #038048; stroke-width: 1.0;"/><text fill="#000000" font-family="sans-serif" font-size="11" lengthAdjust="spacingAndGlyphs" textLength="88" x="602.5" y="239.4292">apiLabel: string</text><line style="stroke: #A80036; stroke-width: 1.5;" x1="583.5" x2="753.5" y1="246.0234" y2="246.0234"/><!--class NumberModelField--><rect fill="#FEFECE" filter="url(#f9g8qmfycpvbq)" height="60.8047" id="NumberModelField" style="stroke: #A80036; stroke-width: 1.5;" width="147" x="400" y="167.5"/><ellipse cx="415" cy="183.5" fill="#ADD1B2" rx="11" ry="11" style="stroke: #A80036; stroke-width: 1.0;"/><path d="M417.3438,179.1719 L417.5156,179.25 C417.7344,178.9375 417.9375,178.8438 418.2344,178.8438 C418.5313,178.8438 418.8125,178.9844 418.9688,179.25 C419.0625,179.4063 419.0781,179.5313 419.0781,179.9688 L419.0781,181.3906 C419.0781,181.8125 419.0469,182 418.9375,182.1563 C418.7656,182.375 418.5,182.5156 418.2344,182.5156 C418.0156,182.5156 417.7813,182.4063 417.6406,182.2656 C417.5,182.1406 417.4688,182.0156 417.4063,181.6094 C417.3125,181.2031 417.1406,180.9844 416.6563,180.7031 C416.1875,180.4531 415.5781,180.2969 415,180.2969 C413.2656,180.2969 412.0156,181.6094 412.0156,183.3906 L412.0156,184.4844 C412.0156,186.1875 413.3125,187.2813 415.3594,187.2813 C416.125,187.2813 416.8125,187.1563 417.2344,186.8906 C417.4219,186.7969 417.4219,186.7969 417.875,186.3125 C418.0625,186.125 418.2656,186.0469 418.4844,186.0469 C418.9531,186.0469 419.3438,186.4375 419.3438,186.8906 C419.3438,187.2813 419.0156,187.7344 418.4375,188.1406 C417.6875,188.6875 416.5313,188.9844 415.3125,188.9844 C412.4219,188.9844 410.3125,187.0938 410.3125,184.5156 L410.3125,183.3906 C410.3125,180.6719 412.3125,178.5938 414.9375,178.5938 C415.8125,178.5938 416.4063,178.7344 417.3438,179.1719 Z "/><text fill="#000000" font-family="sans-serif" font-size="12" lengthAdjust="spacingAndGlyphs" textLength="115" x="429" y="187.6543">NumberModelField</text><line style="stroke: #A80036; stroke-width: 1.5;" x1="401" x2="546" y1="199.5" y2="199.5"/><ellipse cx="411" cy="211.4023" fill="none" rx="3" ry="3" style="stroke: #038048; stroke-width: 1.0;"/><text fill="#000000" font-family="sans-serif" font-size="11" lengthAdjust="spacingAndGlyphs" textLength="82" x="420" y="213.7104">value: number</text><line style="stroke: #A80036; stroke-width: 1.5;" x1="401" x2="546" y1="220.3047" y2="220.3047"/><!--class ObjectModelField--><rect fill="#FEFECE" filter="url(#f9g8qmfycpvbq)" height="86.4141" id="ObjectModelField" style="stroke: #A80036; stroke-width: 1.5;" width="225" x="361" y="473"/><ellipse cx="376" cy="489" fill="#ADD1B2" rx="11" ry="11" style="stroke: #A80036; stroke-width: 1.0;"/><path d="M378.3438,484.6719 L378.5156,484.75 C378.7344,484.4375 378.9375,484.3438 379.2344,484.3438 C379.5313,484.3438 379.8125,484.4844 379.9688,484.75 C380.0625,484.9063 380.0781,485.0313 380.0781,485.4688 L380.0781,486.8906 C380.0781,487.3125 380.0469,487.5 379.9375,487.6563 C379.7656,487.875 379.5,488.0156 379.2344,488.0156 C379.0156,488.0156 378.7813,487.9063 378.6406,487.7656 C378.5,487.6406 378.4688,487.5156 378.4063,487.1094 C378.3125,486.7031 378.1406,486.4844 377.6563,486.2031 C377.1875,485.9531 376.5781,485.7969 376,485.7969 C374.2656,485.7969 373.0156,487.1094 373.0156,488.8906 L373.0156,489.9844 C373.0156,491.6875 374.3125,492.7813 376.3594,492.7813 C377.125,492.7813 377.8125,492.6563 378.2344,492.3906 C378.4219,492.2969 378.4219,492.2969 378.875,491.8125 C379.0625,491.625 379.2656,491.5469 379.4844,491.5469 C379.9531,491.5469 380.3438,491.9375 380.3438,492.3906 C380.3438,492.7813 380.0156,493.2344 379.4375,493.6406 C378.6875,494.1875 377.5313,494.4844 376.3125,494.4844 C373.4219,494.4844 371.3125,492.5938 371.3125,490.0156 L371.3125,488.8906 C371.3125,486.1719 373.3125,484.0938 375.9375,484.0938 C376.8125,484.0938 377.4063,484.2344 378.3438,484.6719 Z "/><text fill="#000000" font-family="sans-serif" font-size="12" lengthAdjust="spacingAndGlyphs" textLength="106" x="390" y="493.1543">ObjectModelField</text><rect fill="#FFFFFF" height="15.9688" style="stroke: #000000; stroke-width: 1.0; stroke-dasharray: 2.0,2.0;" width="85" x="504" y="470"/><text fill="#000000" font-family="sans-serif" font-size="12" font-style="italic" lengthAdjust="spacingAndGlyphs" textLength="83" x="505" y="482.1387">CustomModel</text><line style="stroke: #A80036; stroke-width: 1.5;" x1="362" x2="585" y1="505" y2="505"/><ellipse cx="372" cy="516.9023" fill="none" rx="3" ry="3" style="stroke: #038048; stroke-width: 1.0;"/><text fill="#000000" font-family="sans-serif" font-size="11" lengthAdjust="spacingAndGlyphs" textLength="115" x="381" y="519.2104">value: CustomModel</text><ellipse cx="372" cy="529.707" fill="none" rx="3" ry="3" style="stroke: #038048; stroke-width: 1.0;"/><text fill="#000000" font-family="sans-serif" font-size="11" lengthAdjust="spacingAndGlyphs" textLength="173" x="381" y="532.0151">displayTableFunction: Function</text><ellipse cx="372" cy="542.5117" fill="none" rx="3" ry="3" style="stroke: #038048; stroke-width: 1.0;"/><text fill="#000000" font-family="sans-serif" font-size="11" lengthAdjust="spacingAndGlyphs" textLength="175" x="381" y="544.8198">displayModalFunction: Function</text><line style="stroke: #A80036; stroke-width: 1.5;" x1="362" x2="585" y1="551.4141" y2="551.4141"/><!--class SelectModelField--><rect fill="#FEFECE" filter="url(#f9g8qmfycpvbq)" height="86.4141" id="SelectModelField" style="stroke: #A80036; stroke-width: 1.5;" width="161" x="204" y="155"/><ellipse cx="229.8" cy="171" fill="#ADD1B2" rx="11" ry="11" style="stroke: #A80036; stroke-width: 1.0;"/><path d="M232.1438,166.6719 L232.3156,166.75 C232.5344,166.4375 232.7375,166.3438 233.0344,166.3438 C233.3313,166.3438 233.6125,166.4844 233.7688,166.75 C233.8625,166.9063 233.8781,167.0313 233.8781,167.4688 L233.8781,168.8906 C233.8781,169.3125 233.8469,169.5 233.7375,169.6563 C233.5656,169.875 233.3,170.0156 233.0344,170.0156 C232.8156,170.0156 232.5813,169.9063 232.4406,169.7656 C232.3,169.6406 232.2688,169.5156 232.2063,169.1094 C232.1125,168.7031 231.9406,168.4844 231.4563,168.2031 C230.9875,167.9531 230.3781,167.7969 229.8,167.7969 C228.0656,167.7969 226.8156,169.1094 226.8156,170.8906 L226.8156,171.9844 C226.8156,173.6875 228.1125,174.7813 230.1594,174.7813 C230.925,174.7813 231.6125,174.6563 232.0344,174.3906 C232.2219,174.2969 232.2219,174.2969 232.675,173.8125 C232.8625,173.625 233.0656,173.5469 233.2844,173.5469 C233.7531,173.5469 234.1438,173.9375 234.1438,174.3906 C234.1438,174.7813 233.8156,175.2344 233.2375,175.6406 C232.4875,176.1875 231.3313,176.4844 230.1125,176.4844 C227.2219,176.4844 225.1125,174.5938 225.1125,172.0156 L225.1125,170.8906 C225.1125,168.1719 227.1125,166.0938 229.7375,166.0938 C230.6125,166.0938 231.2063,166.2344 232.1438,166.6719 Z "/><text fill="#000000" font-family="sans-serif" font-size="12" lengthAdjust="spacingAndGlyphs" textLength="105" x="246.2" y="175.1543">SelectModelField</text><line style="stroke: #A80036; stroke-width: 1.5;" x1="205" x2="364" y1="187" y2="187"/><ellipse cx="215" cy="198.9023" fill="none" rx="3" ry="3" style="stroke: #038048; stroke-width: 1.0;"/><text fill="#000000" font-family="sans-serif" font-size="11" lengthAdjust="spacingAndGlyphs" textLength="91" x="224" y="201.2104">bindField: string</text><ellipse cx="215" cy="211.707" fill="none" rx="3" ry="3" style="stroke: #038048; stroke-width: 1.0;"/><text fill="#000000" font-family="sans-serif" font-size="11" lengthAdjust="spacingAndGlyphs" textLength="135" x="224" y="214.0151">options: CustomModel[]</text><ellipse cx="215" cy="224.5117" fill="none" rx="3" ry="3" style="stroke: #038048; stroke-width: 1.0;"/><text fill="#000000" font-family="sans-serif" font-size="11" lengthAdjust="spacingAndGlyphs" textLength="88" x="224" y="226.8198">apiLabel: string</text><line style="stroke: #A80036; stroke-width: 1.5;" x1="205" x2="364" y1="233.4141" y2="233.4141"/><!--class SingleSelectModelField--><rect fill="#FEFECE" filter="url(#f9g8qmfycpvbq)" height="60.8047" id="SingleSelectModelField" style="stroke: #A80036; stroke-width: 1.5;" width="262" x="284.5" y="14.5"/><ellipse cx="299.5" cy="30.5" fill="#ADD1B2" rx="11" ry="11" style="stroke: #A80036; stroke-width: 1.0;"/><path d="M301.8438,26.1719 L302.0156,26.25 C302.2344,25.9375 302.4375,25.8438 302.7344,25.8438 C303.0313,25.8438 303.3125,25.9844 303.4688,26.25 C303.5625,26.4063 303.5781,26.5313 303.5781,26.9688 L303.5781,28.3906 C303.5781,28.8125 303.5469,29 303.4375,29.1563 C303.2656,29.375 303,29.5156 302.7344,29.5156 C302.5156,29.5156 302.2813,29.4063 302.1406,29.2656 C302,29.1406 301.9688,29.0156 301.9063,28.6094 C301.8125,28.2031 301.6406,27.9844 301.1563,27.7031 C300.6875,27.4531 300.0781,27.2969 299.5,27.2969 C297.7656,27.2969 296.5156,28.6094 296.5156,30.3906 L296.5156,31.4844 C296.5156,33.1875 297.8125,34.2813 299.8594,34.2813 C300.625,34.2813 301.3125,34.1563 301.7344,33.8906 C301.9219,33.7969 301.9219,33.7969 302.375,33.3125 C302.5625,33.125 302.7656,33.0469 302.9844,33.0469 C303.4531,33.0469 303.8438,33.4375 303.8438,33.8906 C303.8438,34.2813 303.5156,34.7344 302.9375,35.1406 C302.1875,35.6875 301.0313,35.9844 299.8125,35.9844 C296.9219,35.9844 294.8125,34.0938 294.8125,31.5156 L294.8125,30.3906 C294.8125,27.6719 296.8125,25.5938 299.4375,25.5938 C300.3125,25.5938 300.9063,25.7344 301.8438,26.1719 Z "/><text fill="#000000" font-family="sans-serif" font-size="12" lengthAdjust="spacingAndGlyphs" textLength="143" x="313.5" y="34.6543">SingleSelectModelField</text><rect fill="#FFFFFF" height="15.9688" style="stroke: #000000; stroke-width: 1.0; stroke-dasharray: 2.0,2.0;" width="85" x="464.5" y="11.5"/><text fill="#000000" font-family="sans-serif" font-size="12" font-style="italic" lengthAdjust="spacingAndGlyphs" textLength="83" x="465.5" y="23.6387">CustomModel</text><line style="stroke: #A80036; stroke-width: 1.5;" x1="285.5" x2="545.5" y1="46.5" y2="46.5"/><ellipse cx="295.5" cy="58.4023" fill="none" rx="3" ry="3" style="stroke: #038048; stroke-width: 1.0;"/><text fill="#000000" font-family="sans-serif" font-size="11" lengthAdjust="spacingAndGlyphs" textLength="115" x="304.5" y="60.7104">value: CustomModel</text><line style="stroke: #A80036; stroke-width: 1.5;" x1="285.5" x2="545.5" y1="67.3047" y2="67.3047"/><!--class TextModelField--><rect fill="#FEFECE" filter="url(#f9g8qmfycpvbq)" height="86.4141" id="TextModelField" style="stroke: #A80036; stroke-width: 1.5;" width="145" x="621" y="473"/><ellipse cx="645.45" cy="489" fill="#ADD1B2" rx="11" ry="11" style="stroke: #A80036; stroke-width: 1.0;"/><path d="M647.7938,484.6719 L647.9656,484.75 C648.1844,484.4375 648.3875,484.3438 648.6844,484.3438 C648.9813,484.3438 649.2625,484.4844 649.4188,484.75 C649.5125,484.9063 649.5281,485.0313 649.5281,485.4688 L649.5281,486.8906 C649.5281,487.3125 649.4969,487.5 649.3875,487.6563 C649.2156,487.875 648.95,488.0156 648.6844,488.0156 C648.4656,488.0156 648.2313,487.9063 648.0906,487.7656 C647.95,487.6406 647.9188,487.5156 647.8563,487.1094 C647.7625,486.7031 647.5906,486.4844 647.1063,486.2031 C646.6375,485.9531 646.0281,485.7969 645.45,485.7969 C643.7156,485.7969 642.4656,487.1094 642.4656,488.8906 L642.4656,489.9844 C642.4656,491.6875 643.7625,492.7813 645.8094,492.7813 C646.575,492.7813 647.2625,492.6563 647.6844,492.3906 C647.8719,492.2969 647.8719,492.2969 648.325,491.8125 C648.5125,491.625 648.7156,491.5469 648.9344,491.5469 C649.4031,491.5469 649.7938,491.9375 649.7938,492.3906 C649.7938,492.7813 649.4656,493.2344 648.8875,493.6406 C648.1375,494.1875 646.9813,494.4844 645.7625,494.4844 C642.8719,494.4844 640.7625,492.5938 640.7625,490.0156 L640.7625,488.8906 C640.7625,486.1719 642.7625,484.0938 645.3875,484.0938 C646.2625,484.0938 646.8563,484.2344 647.7938,484.6719 Z "/><text fill="#000000" font-family="sans-serif" font-size="12" lengthAdjust="spacingAndGlyphs" textLength="92" x="661.55" y="493.1543">TextModelField</text><line style="stroke: #A80036; stroke-width: 1.5;" x1="622" x2="765" y1="505" y2="505"/><ellipse cx="632" cy="516.9023" fill="none" rx="3" ry="3" style="stroke: #038048; stroke-width: 1.0;"/><text fill="#000000" font-family="sans-serif" font-size="11" lengthAdjust="spacingAndGlyphs" textLength="71" x="641" y="519.2104">value: string</text><ellipse cx="632" cy="529.707" fill="none" rx="3" ry="3" style="stroke: #038048; stroke-width: 1.0;"/><text fill="#000000" font-family="sans-serif" font-size="11" lengthAdjust="spacingAndGlyphs" textLength="114" x="641" y="532.0151">isLongText: boolean</text><ellipse cx="632" cy="542.5117" fill="none" rx="3" ry="3" style="stroke: #038048; stroke-width: 1.0;"/><text fill="#000000" font-family="sans-serif" font-size="11" lengthAdjust="spacingAndGlyphs" textLength="119" x="641" y="544.8198">isPassword: boolean</text><line style="stroke: #A80036; stroke-width: 1.5;" x1="622" x2="765" y1="551.4141" y2="551.4141"/><!--link ArrayInputField to CustomModelField--><path d="M360.578,363.5 C365.478,363.5 370.379,363.5 375.279,363.5 " fill="none" id="ArrayInputField-CustomModelField" style="stroke: #A80036; stroke-width: 1.0;"/><polygon fill="none" points="375.425,356.5,395.425,363.5,375.425,370.5,375.425,356.5" style="stroke: #A80036; stroke-width: 1.0;"/><!--link BooleanModelField to CustomModelField--><path d="M111.463,332.761 C131.888,314.731 160.283,293.65 190,284 C261.862,260.664 287.943,261.274 360,284 C387.022,292.522 413.203,310.029 433.597,326.45 " fill="none" id="BooleanModelField-CustomModelField" style="stroke: #A80036; stroke-width: 1.0;"/><polygon fill="none" points="438.226,321.197,448.938,339.48,429.163,331.868,438.226,321.197" style="stroke: #A80036; stroke-width: 1.0;"/><!--link CustomModelField to DateModelField--><path d="M512.998,326.455 C533.2,310.035 559.155,292.528 586,284 C641.49,266.372 660.488,269.991 717,284 C742.24,290.257 767.911,301.606 790.735,313.807 " fill="none" id="CustomModelField-DateModelField" style="stroke: #A80036; stroke-width: 1.0;"/><polygon fill="none" points="517.544,331.778,497.805,339.484,508.431,321.15,517.544,331.778" style="stroke: #A80036; stroke-width: 1.0;"/><!--link CustomModelField to FileModelField--><path d="M571.777,363.5 C576.655,363.5 581.533,363.5 586.411,363.5 " fill="none" id="CustomModelField-FileModelField" style="stroke: #A80036; stroke-width: 1.0;"/><polygon fill="none" points="571.723,370.5,551.723,363.5,571.723,356.5,571.723,370.5" style="stroke: #A80036; stroke-width: 1.0;"/><!--link NestedFieldModelField to CustomModelField--><path d="M602.754,254.126 C574.274,278.005 541.736,305.286 516.432,326.503 " fill="none" id="NestedFieldModelField-CustomModelField" style="stroke: #A80036; stroke-width: 1.0;"/><polygon fill="none" points="520.786,331.987,500.963,339.473,511.791,321.259,520.786,331.987" style="stroke: #A80036; stroke-width: 1.0;"/><!--link NumberModelField to CustomModelField--><path d="M473.5,228.609 C473.5,253.857 473.5,290.494 473.5,319.063 " fill="none" id="NumberModelField-CustomModelField" style="stroke: #A80036; stroke-width: 1.0;"/><polygon fill="none" points="480.5,319.444,473.5,339.444,466.5,319.444,480.5,319.444" style="stroke: #A80036; stroke-width: 1.0;"/><!--link CustomModelField to ObjectModelField--><path d="M473.5,408.002 C473.5,428.452 473.5,452.734 473.5,472.9922 " fill="none" id="CustomModelField-ObjectModelField" style="stroke: #A80036; stroke-width: 1.0;"/><polygon fill="none" points="466.5,407.686,473.5,387.686,480.5,407.686,466.5,407.686" style="stroke: #A80036; stroke-width: 1.0;"/><!--link CustomModelField to MultipleObjectsModelField--><path d="M411.582,396.857 C369.036,419.09 312.136,448.824 266.064,472.8995 " fill="none" id="CustomModelField-MultipleObjectsModelField" style="stroke: #A80036; stroke-width: 1.0;"/><polygon fill="none" points="408.478,390.58,429.445,387.522,414.962,402.988,408.478,390.58" style="stroke: #A80036; stroke-width: 1.0;"/><!--link SelectModelField to CustomModelField--><path d="M333.172,241.105 C363.577,267.408 402.333,300.935 431.408,326.087 " fill="none" id="SelectModelField-CustomModelField" style="stroke: #A80036; stroke-width: 1.0;"/><polygon fill="none" points="436.315,321.076,446.861,339.455,427.155,331.664,436.315,321.076" style="stroke: #A80036; stroke-width: 1.0;"/><!--link CustomModelField to TextModelField--><path d="M524.144,399.145 C556.282,421.13 598.069,449.716 632.093,472.9922 " fill="none" id="CustomModelField-TextModelField" style="stroke: #A80036; stroke-width: 1.0;"/><polygon fill="none" points="519.948,404.756,507.393,387.686,527.852,393.201,519.948,404.756" style="stroke: #A80036; stroke-width: 1.0;"/><!--link SingleSelectModelField to SelectModelField--><path d="M389.619,75.833 C373.838,94.022 353.143,117.877 334.293,139.605 " fill="none" id="SingleSelectModelField-SelectModelField" style="stroke: #A80036; stroke-width: 1.0;"/><polygon fill="none" points="339.383,144.42,320.989,154.94,328.808,135.245,339.383,144.42" style="stroke: #A80036; stroke-width: 1.0;"/><!--link MutlipleSelectModelField to SelectModelField--><path d="M184.878,82.168 C199.795,99.363 217.988,120.334 234.726,139.626 " fill="none" id="MutlipleSelectModelField-SelectModelField" style="stroke: #A80036; stroke-width: 1.0;"/><polygon fill="none" points="240.222,135.281,248.041,154.975,229.647,144.455,240.222,135.281" style="stroke: #A80036; stroke-width: 1.0;"/><!--
@startuml
class CustomModelField<T> {

}

class ArrayInputField<T> {
    + value: T[]
    + numberOfInputs: number
}

class BooleanModelField {
    + value: Boolean
}

class DateModelField {
    + value: Date
    + displayTime: boolean;
    
    + {static} formatFromApi(date): Date
    + {static} formatDateTimeFromApi(date): Date
}

class FileModelField {
    + value: string
    + uploadPath: string
    + fileUrlField: string
}

class MultipleObjectsModelField<CustomModel> {
    + value: CustomModel[]
    + displayTableFunction: Function
    + displayModalFunction: Function
}

class MutlipleSelectModelField {
    + value: CustomModel[]
    + maxSelectionLength: number
}

class NestedFieldModelField {
    + value: any
    + childrenObject: string
    + childrenFieldName: string
    + isPassword: boolean
    + apiLabel: string
}

class NumberModelField {
    + value: number
}

class ObjectModelField<CustomModel> {
    + value: CustomModel
    + displayTableFunction: Function
    + displayModalFunction: Function
}

class SelectModelField {
    + bindField: string
    + options: CustomModel[]
    + apiLabel: string
}

class SingleSelectModelField<CustomModel> {
    + value: CustomModel
}

class TextModelField {
    + value: string
    + isLongText: boolean
    + isPassword: boolean
}

CustomModelField <|-left- ArrayInputField
CustomModelField <|-left- BooleanModelField
CustomModelField <|-right- DateModelField
CustomModelField <|-right- FileModelField
CustomModelField <|-up- NestedFieldModelField
CustomModelField <|-up- NumberModelField
CustomModelField <|-down- ObjectModelField
CustomModelField <|-down- MultipleObjectsModelField
CustomModelField <|-up- SelectModelField
CustomModelField <|-down- TextModelField
SelectModelField <|-up- SingleSelectModelField
SelectModelField <|-up- MutlipleSelectModelField
@enduml

PlantUML version 1.2019.05(Sat Apr 20 16:45:36 UTC 2019)
(GPL source distribution)
Java Runtime: Java(TM) SE Runtime Environment
JVM: Java HotSpot(TM) 64-Bit Server VM
Java Version: 1.7.0_25-b15
Operating System: Linux
Default Encoding: UTF-8
Language: en
Country: US
--></g></svg>