<?xml version="1.0" encoding="UTF-8" standalone="no"?><svg xmlns="http://www.w3.org/2000/svg" xmlns:xlink="http://www.w3.org/1999/xlink" contentScriptType="application/ecmascript" contentStyleType="text/css" height="659px" preserveAspectRatio="none" style="width:1024px;height:659px;" version="1.1" viewBox="0 0 1024 659" width="1024px" zoomAndPan="magnify"><defs><filter height="300%" id="f1e1fi8pngz6x4" width="300%" x="-1" y="-1"><feGaussianBlur result="blurOut" stdDeviation="2.0"/><feColorMatrix in="blurOut" result="blurOut2" type="matrix" values="0 0 0 0 0 0 0 0 0 0 0 0 0 0 0 0 0 0 .4 0"/><feOffset dx="4.0" dy="4.0" in="blurOut2" result="blurOut3"/><feBlend in="SourceGraphic" in2="blurOut3" mode="normal"/></filter></defs><g><!--class CustomModelField--><rect fill="#FEFECE" filter="url(#f1e1fi8pngz6x4)" height="48" id="CustomModelField" style="stroke: #A80036; stroke-width: 1.5;" width="156" x="395.5" y="364.5"/><ellipse cx="410.5" cy="380.5" fill="#ADD1B2" rx="11" ry="11" style="stroke: #A80036; stroke-width: 1.0;"/><path d="M412.8438,376.1719 L413.0156,376.25 C413.2344,375.9375 413.4375,375.8438 413.7344,375.8438 C414.0313,375.8438 414.3125,375.9844 414.4688,376.25 C414.5625,376.4063 414.5781,376.5313 414.5781,376.9688 L414.5781,378.3906 C414.5781,378.8125 414.5469,379 414.4375,379.1563 C414.2656,379.375 414,379.5156 413.7344,379.5156 C413.5156,379.5156 413.2813,379.4063 413.1406,379.2656 C413,379.1406 412.9688,379.0156 412.9063,378.6094 C412.8125,378.2031 412.6406,377.9844 412.1563,377.7031 C411.6875,377.4531 411.0781,377.2969 410.5,377.2969 C408.7656,377.2969 407.5156,378.6094 407.5156,380.3906 L407.5156,381.4844 C407.5156,383.1875 408.8125,384.2813 410.8594,384.2813 C411.625,384.2813 412.3125,384.1563 412.7344,383.8906 C412.9219,383.7969 412.9219,383.7969 413.375,383.3125 C413.5625,383.125 413.7656,383.0469 413.9844,383.0469 C414.4531,383.0469 414.8438,383.4375 414.8438,383.8906 C414.8438,384.2813 414.5156,384.7344 413.9375,385.1406 C413.1875,385.6875 412.0313,385.9844 410.8125,385.9844 C407.9219,385.9844 405.8125,384.0938 405.8125,381.5156 L405.8125,380.3906 C405.8125,377.6719 407.8125,375.5938 410.4375,375.5938 C411.3125,375.5938 411.9063,375.7344 412.8438,376.1719 Z "/><text fill="#000000" font-family="sans-serif" font-size="12" lengthAdjust="spacingAndGlyphs" textLength="113" x="424.5" y="384.6543">CustomModelField</text><rect fill="#FFFFFF" height="15.9688" style="stroke: #000000; stroke-width: 1.0; stroke-dasharray: 2.0,2.0;" width="9" x="545.5" y="361.5"/><text fill="#000000" font-family="sans-serif" font-size="12" font-style="italic" lengthAdjust="spacingAndGlyphs" textLength="7" x="546.5" y="373.6387">T</text><line style="stroke: #A80036; stroke-width: 1.5;" x1="396.5" x2="550.5" y1="396.5" y2="396.5"/><line style="stroke: #A80036; stroke-width: 1.5;" x1="396.5" x2="550.5" y1="404.5" y2="404.5"/><!--class ArrayInputField--><rect fill="#FEFECE" filter="url(#f1e1fi8pngz6x4)" height="73.6094" id="ArrayInputField" style="stroke: #A80036; stroke-width: 1.5;" width="170" x="190.5" y="351.5"/><ellipse cx="220.8" cy="367.5" fill="#ADD1B2" rx="11" ry="11" style="stroke: #A80036; stroke-width: 1.0;"/><path d="M223.1438,363.1719 L223.3156,363.25 C223.5344,362.9375 223.7375,362.8438 224.0344,362.8438 C224.3313,362.8438 224.6125,362.9844 224.7688,363.25 C224.8625,363.4063 224.8781,363.5313 224.8781,363.9688 L224.8781,365.3906 C224.8781,365.8125 224.8469,366 224.7375,366.1563 C224.5656,366.375 224.3,366.5156 224.0344,366.5156 C223.8156,366.5156 223.5813,366.4063 223.4406,366.2656 C223.3,366.1406 223.2688,366.0156 223.2063,365.6094 C223.1125,365.2031 222.9406,364.9844 222.4563,364.7031 C221.9875,364.4531 221.3781,364.2969 220.8,364.2969 C219.0656,364.2969 217.8156,365.6094 217.8156,367.3906 L217.8156,368.4844 C217.8156,370.1875 219.1125,371.2813 221.1594,371.2813 C221.925,371.2813 222.6125,371.1563 223.0344,370.8906 C223.2219,370.7969 223.2219,370.7969 223.675,370.3125 C223.8625,370.125 224.0656,370.0469 224.2844,370.0469 C224.7531,370.0469 225.1438,370.4375 225.1438,370.8906 C225.1438,371.2813 224.8156,371.7344 224.2375,372.1406 C223.4875,372.6875 222.3313,372.9844 221.1125,372.9844 C218.2219,372.9844 216.1125,371.0938 216.1125,368.5156 L216.1125,367.3906 C216.1125,364.6719 218.1125,362.5938 220.7375,362.5938 C221.6125,362.5938 222.2063,362.7344 223.1438,363.1719 Z "/><text fill="#000000" font-family="sans-serif" font-size="12" lengthAdjust="spacingAndGlyphs" textLength="93" x="238.2" y="371.6543">ArrayInputField</text><rect fill="#FFFFFF" height="15.9688" style="stroke: #000000; stroke-width: 1.0; stroke-dasharray: 2.0,2.0;" width="9" x="354.5" y="348.5"/><text fill="#000000" font-family="sans-serif" font-size="12" font-style="italic" lengthAdjust="spacingAndGlyphs" textLength="7" x="355.5" y="360.6387">T</text><line style="stroke: #A80036; stroke-width: 1.5;" x1="191.5" x2="359.5" y1="383.5" y2="383.5"/><ellipse cx="201.5" cy="395.4023" fill="none" rx="3" ry="3" style="stroke: #038048; stroke-width: 1.0;"/><text fill="#000000" font-family="sans-serif" font-size="11" lengthAdjust="spacingAndGlyphs" textLength="53" x="210.5" y="397.7104">value: T[]</text><ellipse cx="201.5" cy="408.207" fill="none" rx="3" ry="3" style="stroke: #038048; stroke-width: 1.0;"/><text fill="#000000" font-family="sans-serif" font-size="11" lengthAdjust="spacingAndGlyphs" textLength="144" x="210.5" y="410.5151">numberOfInputs: number</text><line style="stroke: #A80036; stroke-width: 1.5;" x1="191.5" x2="359.5" y1="417.1094" y2="417.1094"/><!--class BooleanModelField--><rect fill="#FEFECE" filter="url(#f1e1fi8pngz6x4)" height="60.8047" id="BooleanModelField" style="stroke: #A80036; stroke-width: 1.5;" width="149" x="6" y="358"/><ellipse cx="21" cy="374" fill="#ADD1B2" rx="11" ry="11" style="stroke: #A80036; stroke-width: 1.0;"/><path d="M23.3438,369.6719 L23.5156,369.75 C23.7344,369.4375 23.9375,369.3438 24.2344,369.3438 C24.5313,369.3438 24.8125,369.4844 24.9688,369.75 C25.0625,369.9063 25.0781,370.0313 25.0781,370.4688 L25.0781,371.8906 C25.0781,372.3125 25.0469,372.5 24.9375,372.6563 C24.7656,372.875 24.5,373.0156 24.2344,373.0156 C24.0156,373.0156 23.7813,372.9063 23.6406,372.7656 C23.5,372.6406 23.4688,372.5156 23.4063,372.1094 C23.3125,371.7031 23.1406,371.4844 22.6563,371.2031 C22.1875,370.9531 21.5781,370.7969 21,370.7969 C19.2656,370.7969 18.0156,372.1094 18.0156,373.8906 L18.0156,374.9844 C18.0156,376.6875 19.3125,377.7813 21.3594,377.7813 C22.125,377.7813 22.8125,377.6563 23.2344,377.3906 C23.4219,377.2969 23.4219,377.2969 23.875,376.8125 C24.0625,376.625 24.2656,376.5469 24.4844,376.5469 C24.9531,376.5469 25.3438,376.9375 25.3438,377.3906 C25.3438,377.7813 25.0156,378.2344 24.4375,378.6406 C23.6875,379.1875 22.5313,379.4844 21.3125,379.4844 C18.4219,379.4844 16.3125,377.5938 16.3125,375.0156 L16.3125,373.8906 C16.3125,371.1719 18.3125,369.0938 20.9375,369.0938 C21.8125,369.0938 22.4063,369.2344 23.3438,369.6719 Z "/><text fill="#000000" font-family="sans-serif" font-size="12" lengthAdjust="spacingAndGlyphs" textLength="117" x="35" y="378.1543">BooleanModelField</text><line style="stroke: #A80036; stroke-width: 1.5;" x1="7" x2="154" y1="390" y2="390"/><ellipse cx="17" cy="401.9023" fill="none" rx="3" ry="3" style="stroke: #038048; stroke-width: 1.0;"/><text fill="#000000" font-family="sans-serif" font-size="11" lengthAdjust="spacingAndGlyphs" textLength="84" x="26" y="404.2104">value: Boolean</text><line style="stroke: #A80036; stroke-width: 1.5;" x1="7" x2="154" y1="410.8047" y2="410.8047"/><!--class DateModelField--><rect fill="#FEFECE" filter="url(#f1e1fi8pngz6x4)" height="124.8281" id="DateModelField" style="stroke: #A80036; stroke-width: 1.5;" width="231" x="782" y="326"/><ellipse cx="845.25" cy="342" fill="#ADD1B2" rx="11" ry="11" style="stroke: #A80036; stroke-width: 1.0;"/><path d="M847.5938,337.6719 L847.7656,337.75 C847.9844,337.4375 848.1875,337.3438 848.4844,337.3438 C848.7813,337.3438 849.0625,337.4844 849.2188,337.75 C849.3125,337.9063 849.3281,338.0313 849.3281,338.4688 L849.3281,339.8906 C849.3281,340.3125 849.2969,340.5 849.1875,340.6563 C849.0156,340.875 848.75,341.0156 848.4844,341.0156 C848.2656,341.0156 848.0313,340.9063 847.8906,340.7656 C847.75,340.6406 847.7188,340.5156 847.6563,340.1094 C847.5625,339.7031 847.3906,339.4844 846.9063,339.2031 C846.4375,338.9531 845.8281,338.7969 845.25,338.7969 C843.5156,338.7969 842.2656,340.1094 842.2656,341.8906 L842.2656,342.9844 C842.2656,344.6875 843.5625,345.7813 845.6094,345.7813 C846.375,345.7813 847.0625,345.6563 847.4844,345.3906 C847.6719,345.2969 847.6719,345.2969 848.125,344.8125 C848.3125,344.625 848.5156,344.5469 848.7344,344.5469 C849.2031,344.5469 849.5938,344.9375 849.5938,345.3906 C849.5938,345.7813 849.2656,346.2344 848.6875,346.6406 C847.9375,347.1875 846.7813,347.4844 845.5625,347.4844 C842.6719,347.4844 840.5625,345.5938 840.5625,343.0156 L840.5625,341.8906 C840.5625,339.1719 842.5625,337.0938 845.1875,337.0938 C846.0625,337.0938 846.6563,337.2344 847.5938,337.6719 Z "/><text fill="#000000" font-family="sans-serif" font-size="12" lengthAdjust="spacingAndGlyphs" textLength="96" x="865.75" y="346.1543">DateModelField</text><line style="stroke: #A80036; stroke-width: 1.5;" x1="783" x2="1012" y1="358" y2="358"/><ellipse cx="793" cy="369.9023" fill="none" rx="3" ry="3" style="stroke: #038048; stroke-width: 1.0;"/><text fill="#000000" font-family="sans-serif" font-size="11" lengthAdjust="spacingAndGlyphs" textLength="64" x="802" y="372.2104">value: Date</text><ellipse cx="793" cy="382.707" fill="none" rx="3" ry="3" style="stroke: #038048; stroke-width: 1.0;"/><text fill="#000000" font-family="sans-serif" font-size="11" lengthAdjust="spacingAndGlyphs" textLength="125" x="802" y="385.0151">displayTime: boolean;</text><line style="stroke: #A80036; stroke-width: 1.5;" x1="783" x2="1012" y1="391.6094" y2="391.6094"/><ellipse cx="793" cy="403.5117" fill="#84BE84" rx="3" ry="3" style="stroke: #038048; stroke-width: 1.0;"/><text fill="#000000" font-family="sans-serif" font-size="11" lengthAdjust="spacingAndGlyphs" text-decoration="underline" textLength="151" x="802" y="405.8198">formatFromApi(date): Date</text><ellipse cx="793" cy="416.3164" fill="#84BE84" rx="3" ry="3" style="stroke: #038048; stroke-width: 1.0;"/><text fill="#000000" font-family="sans-serif" font-size="11" lengthAdjust="spacingAndGlyphs" text-decoration="underline" textLength="205" x="802" y="418.6245">formatDateTimeFromApi(date): Date</text><ellipse cx="793" cy="429.1211" fill="#84BE84" rx="3" ry="3" style="stroke: #038048; stroke-width: 1.0;"/><text fill="#000000" font-family="sans-serif" font-size="11" lengthAdjust="spacingAndGlyphs" textLength="113" x="802" y="431.4292">formatForApi() : any</text><ellipse cx="793" cy="441.9258" fill="#84BE84" rx="3" ry="3" style="stroke: #038048; stroke-width: 1.0;"/><text fill="#000000" font-family="sans-serif" font-size="11" lengthAdjust="spacingAndGlyphs" textLength="163" x="802" y="444.2339">formatDateTimeForApi(): any</text><!--class FileModelField--><rect fill="#FEFECE" filter="url(#f1e1fi8pngz6x4)" height="99.2188" id="FileModelField" style="stroke: #A80036; stroke-width: 1.5;" width="160" x="586.5" y="339"/><ellipse cx="619.95" cy="355" fill="#ADD1B2" rx="11" ry="11" style="stroke: #A80036; stroke-width: 1.0;"/><path d="M622.2938,350.6719 L622.4656,350.75 C622.6844,350.4375 622.8875,350.3438 623.1844,350.3438 C623.4813,350.3438 623.7625,350.4844 623.9188,350.75 C624.0125,350.9063 624.0281,351.0313 624.0281,351.4688 L624.0281,352.8906 C624.0281,353.3125 623.9969,353.5 623.8875,353.6563 C623.7156,353.875 623.45,354.0156 623.1844,354.0156 C622.9656,354.0156 622.7313,353.9063 622.5906,353.7656 C622.45,353.6406 622.4188,353.5156 622.3563,353.1094 C622.2625,352.7031 622.0906,352.4844 621.6063,352.2031 C621.1375,351.9531 620.5281,351.7969 619.95,351.7969 C618.2156,351.7969 616.9656,353.1094 616.9656,354.8906 L616.9656,355.9844 C616.9656,357.6875 618.2625,358.7813 620.3094,358.7813 C621.075,358.7813 621.7625,358.6563 622.1844,358.3906 C622.3719,358.2969 622.3719,358.2969 622.825,357.8125 C623.0125,357.625 623.2156,357.5469 623.4344,357.5469 C623.9031,357.5469 624.2938,357.9375 624.2938,358.3906 C624.2938,358.7813 623.9656,359.2344 623.3875,359.6406 C622.6375,360.1875 621.4813,360.4844 620.2625,360.4844 C617.3719,360.4844 615.2625,358.5938 615.2625,356.0156 L615.2625,354.8906 C615.2625,352.1719 617.2625,350.0938 619.8875,350.0938 C620.7625,350.0938 621.3563,350.2344 622.2938,350.6719 Z "/><text fill="#000000" font-family="sans-serif" font-size="12" lengthAdjust="spacingAndGlyphs" textLength="87" x="638.05" y="359.1543">FileModelField</text><line style="stroke: #A80036; stroke-width: 1.5;" x1="587.5" x2="745.5" y1="371" y2="371"/><ellipse cx="597.5" cy="382.9023" fill="none" rx="3" ry="3" style="stroke: #038048; stroke-width: 1.0;"/><text fill="#000000" font-family="sans-serif" font-size="11" lengthAdjust="spacingAndGlyphs" textLength="71" x="606.5" y="385.2104">value: string</text><ellipse cx="597.5" cy="395.707" fill="none" rx="3" ry="3" style="stroke: #038048; stroke-width: 1.0;"/><text fill="#000000" font-family="sans-serif" font-size="11" lengthAdjust="spacingAndGlyphs" textLength="104" x="606.5" y="398.0151">uploadPath: string</text><ellipse cx="597.5" cy="408.5117" fill="none" rx="3" ry="3" style="stroke: #038048; stroke-width: 1.0;"/><text fill="#000000" font-family="sans-serif" font-size="11" lengthAdjust="spacingAndGlyphs" textLength="100" x="606.5" y="410.8198">fileUrlField: string</text><ellipse cx="597.5" cy="421.3164" fill="none" rx="3" ry="3" style="stroke: #038048; stroke-width: 1.0;"/><text fill="#000000" font-family="sans-serif" font-size="11" lengthAdjust="spacingAndGlyphs" textLength="134" x="606.5" y="423.6245">acceptedTypes: string[]</text><line style="stroke: #A80036; stroke-width: 1.5;" x1="587.5" x2="745.5" y1="430.2188" y2="430.2188"/><!--class MultipleObjectsModelField--><rect fill="#FEFECE" filter="url(#f1e1fi8pngz6x4)" height="86.4141" id="MultipleObjectsModelField" style="stroke: #A80036; stroke-width: 1.5;" width="280" x="45.5" y="537"/><ellipse cx="60.5" cy="553" fill="#ADD1B2" rx="11" ry="11" style="stroke: #A80036; stroke-width: 1.0;"/><path d="M62.8438,548.6719 L63.0156,548.75 C63.2344,548.4375 63.4375,548.3438 63.7344,548.3438 C64.0313,548.3438 64.3125,548.4844 64.4688,548.75 C64.5625,548.9063 64.5781,549.0313 64.5781,549.4688 L64.5781,550.8906 C64.5781,551.3125 64.5469,551.5 64.4375,551.6563 C64.2656,551.875 64,552.0156 63.7344,552.0156 C63.5156,552.0156 63.2813,551.9063 63.1406,551.7656 C63,551.6406 62.9688,551.5156 62.9063,551.1094 C62.8125,550.7031 62.6406,550.4844 62.1563,550.2031 C61.6875,549.9531 61.0781,549.7969 60.5,549.7969 C58.7656,549.7969 57.5156,551.1094 57.5156,552.8906 L57.5156,553.9844 C57.5156,555.6875 58.8125,556.7813 60.8594,556.7813 C61.625,556.7813 62.3125,556.6563 62.7344,556.3906 C62.9219,556.2969 62.9219,556.2969 63.375,555.8125 C63.5625,555.625 63.7656,555.5469 63.9844,555.5469 C64.4531,555.5469 64.8438,555.9375 64.8438,556.3906 C64.8438,556.7813 64.5156,557.2344 63.9375,557.6406 C63.1875,558.1875 62.0313,558.4844 60.8125,558.4844 C57.9219,558.4844 55.8125,556.5938 55.8125,554.0156 L55.8125,552.8906 C55.8125,550.1719 57.8125,548.0938 60.4375,548.0938 C61.3125,548.0938 61.9063,548.2344 62.8438,548.6719 Z "/><text fill="#000000" font-family="sans-serif" font-size="12" lengthAdjust="spacingAndGlyphs" textLength="161" x="74.5" y="557.1543">MultipleObjectsModelField</text><rect fill="#FFFFFF" height="15.9688" style="stroke: #000000; stroke-width: 1.0; stroke-dasharray: 2.0,2.0;" width="85" x="243.5" y="534"/><text fill="#000000" font-family="sans-serif" font-size="12" font-style="italic" lengthAdjust="spacingAndGlyphs" textLength="83" x="244.5" y="546.1387">CustomModel</text><line style="stroke: #A80036; stroke-width: 1.5;" x1="46.5" x2="324.5" y1="569" y2="569"/><ellipse cx="56.5" cy="580.9023" fill="none" rx="3" ry="3" style="stroke: #038048; stroke-width: 1.0;"/><text fill="#000000" font-family="sans-serif" font-size="11" lengthAdjust="spacingAndGlyphs" textLength="123" x="65.5" y="583.2104">value: CustomModel[]</text><ellipse cx="56.5" cy="593.707" fill="none" rx="3" ry="3" style="stroke: #038048; stroke-width: 1.0;"/><text fill="#000000" font-family="sans-serif" font-size="11" lengthAdjust="spacingAndGlyphs" textLength="173" x="65.5" y="596.0151">displayTableFunction: Function</text><ellipse cx="56.5" cy="606.5117" fill="none" rx="3" ry="3" style="stroke: #038048; stroke-width: 1.0;"/><text fill="#000000" font-family="sans-serif" font-size="11" lengthAdjust="spacingAndGlyphs" textLength="175" x="65.5" y="608.8198">displayModalFunction: Function</text><line style="stroke: #A80036; stroke-width: 1.5;" x1="46.5" x2="324.5" y1="615.4141" y2="615.4141"/><!--class MutlipleSelectModelField--><rect fill="#FEFECE" filter="url(#f1e1fi8pngz6x4)" height="86.4141" id="MutlipleSelectModelField" style="stroke: #A80036; stroke-width: 1.5;" width="192" x="57.5" y="8"/><ellipse cx="75.65" cy="24" fill="#ADD1B2" rx="11" ry="11" style="stroke: #A80036; stroke-width: 1.0;"/><path d="M77.9938,19.6719 L78.1656,19.75 C78.3844,19.4375 78.5875,19.3438 78.8844,19.3438 C79.1813,19.3438 79.4625,19.4844 79.6188,19.75 C79.7125,19.9063 79.7281,20.0313 79.7281,20.4688 L79.7281,21.8906 C79.7281,22.3125 79.6969,22.5 79.5875,22.6563 C79.4156,22.875 79.15,23.0156 78.8844,23.0156 C78.6656,23.0156 78.4313,22.9063 78.2906,22.7656 C78.15,22.6406 78.1188,22.5156 78.0563,22.1094 C77.9625,21.7031 77.7906,21.4844 77.3063,21.2031 C76.8375,20.9531 76.2281,20.7969 75.65,20.7969 C73.9156,20.7969 72.6656,22.1094 72.6656,23.8906 L72.6656,24.9844 C72.6656,26.6875 73.9625,27.7813 76.0094,27.7813 C76.775,27.7813 77.4625,27.6563 77.8844,27.3906 C78.0719,27.2969 78.0719,27.2969 78.525,26.8125 C78.7125,26.625 78.9156,26.5469 79.1344,26.5469 C79.6031,26.5469 79.9938,26.9375 79.9938,27.3906 C79.9938,27.7813 79.6656,28.2344 79.0875,28.6406 C78.3375,29.1875 77.1813,29.4844 75.9625,29.4844 C73.0719,29.4844 70.9625,27.5938 70.9625,25.0156 L70.9625,23.8906 C70.9625,21.1719 72.9625,19.0938 75.5875,19.0938 C76.4625,19.0938 77.0563,19.2344 77.9938,19.6719 Z "/><text fill="#000000" font-family="sans-serif" font-size="12" lengthAdjust="spacingAndGlyphs" textLength="153" x="90.35" y="28.1543">MutlipleSelectModelField</text><line style="stroke: #A80036; stroke-width: 1.5;" x1="58.5" x2="248.5" y1="40" y2="40"/><ellipse cx="68.5" cy="51.9023" fill="none" rx="3" ry="3" style="stroke: #038048; stroke-width: 1.0;"/><text fill="#000000" font-family="sans-serif" font-size="11" lengthAdjust="spacingAndGlyphs" textLength="123" x="77.5" y="54.2104">value: CustomModel[]</text><ellipse cx="68.5" cy="64.707" fill="none" rx="3" ry="3" style="stroke: #038048; stroke-width: 1.0;"/><text fill="#000000" font-family="sans-serif" font-size="11" lengthAdjust="spacingAndGlyphs" textLength="166" x="77.5" y="67.0151">maxSelectionLength: number</text><line style="stroke: #A80036; stroke-width: 1.5;" x1="58.5" x2="248.5" y1="73.6094" y2="73.6094"/><ellipse cx="68.5" cy="85.5117" fill="#84BE84" rx="3" ry="3" style="stroke: #038048; stroke-width: 1.0;"/><text fill="#000000" font-family="sans-serif" font-size="11" lengthAdjust="spacingAndGlyphs" textLength="113" x="77.5" y="87.8198">formatForApi() : any</text><!--class NestedFieldModelField--><rect fill="#FEFECE" filter="url(#f1e1fi8pngz6x4)" height="112.0234" id="NestedFieldModelField" style="stroke: #A80036; stroke-width: 1.5;" width="172" x="582.5" y="154"/><ellipse cx="597.5" cy="170" fill="#ADD1B2" rx="11" ry="11" style="stroke: #A80036; stroke-width: 1.0;"/><path d="M599.8438,165.6719 L600.0156,165.75 C600.2344,165.4375 600.4375,165.3438 600.7344,165.3438 C601.0313,165.3438 601.3125,165.4844 601.4688,165.75 C601.5625,165.9063 601.5781,166.0313 601.5781,166.4688 L601.5781,167.8906 C601.5781,168.3125 601.5469,168.5 601.4375,168.6563 C601.2656,168.875 601,169.0156 600.7344,169.0156 C600.5156,169.0156 600.2813,168.9063 600.1406,168.7656 C600,168.6406 599.9688,168.5156 599.9063,168.1094 C599.8125,167.7031 599.6406,167.4844 599.1563,167.2031 C598.6875,166.9531 598.0781,166.7969 597.5,166.7969 C595.7656,166.7969 594.5156,168.1094 594.5156,169.8906 L594.5156,170.9844 C594.5156,172.6875 595.8125,173.7813 597.8594,173.7813 C598.625,173.7813 599.3125,173.6563 599.7344,173.3906 C599.9219,173.2969 599.9219,173.2969 600.375,172.8125 C600.5625,172.625 600.7656,172.5469 600.9844,172.5469 C601.4531,172.5469 601.8438,172.9375 601.8438,173.3906 C601.8438,173.7813 601.5156,174.2344 600.9375,174.6406 C600.1875,175.1875 599.0313,175.4844 597.8125,175.4844 C594.9219,175.4844 592.8125,173.5938 592.8125,171.0156 L592.8125,169.8906 C592.8125,167.1719 594.8125,165.0938 597.4375,165.0938 C598.3125,165.0938 598.9063,165.2344 599.8438,165.6719 Z "/><text fill="#000000" font-family="sans-serif" font-size="12" lengthAdjust="spacingAndGlyphs" textLength="140" x="611.5" y="174.1543">NestedFieldModelField</text><line style="stroke: #A80036; stroke-width: 1.5;" x1="583.5" x2="753.5" y1="186" y2="186"/><ellipse cx="593.5" cy="197.9023" fill="none" rx="3" ry="3" style="stroke: #038048; stroke-width: 1.0;"/><text fill="#000000" font-family="sans-serif" font-size="11" lengthAdjust="spacingAndGlyphs" textLength="58" x="602.5" y="200.2104">value: any</text><ellipse cx="593.5" cy="210.707" fill="none" rx="3" ry="3" style="stroke: #038048; stroke-width: 1.0;"/><text fill="#000000" font-family="sans-serif" font-size="11" lengthAdjust="spacingAndGlyphs" textLength="122" x="602.5" y="213.0151">childrenObject: string</text><ellipse cx="593.5" cy="223.5117" fill="none" rx="3" ry="3" style="stroke: #038048; stroke-width: 1.0;"/><text fill="#000000" font-family="sans-serif" font-size="11" lengthAdjust="spacingAndGlyphs" textLength="145" x="602.5" y="225.8198">childrenFieldName: string</text><ellipse cx="593.5" cy="236.3164" fill="none" rx="3" ry="3" style="stroke: #038048; stroke-width: 1.0;"/><text fill="#000000" font-family="sans-serif" font-size="11" lengthAdjust="spacingAndGlyphs" textLength="119" x="602.5" y="238.6245">isPassword: boolean</text><ellipse cx="593.5" cy="249.1211" fill="none" rx="3" ry="3" style="stroke: #038048; stroke-width: 1.0;"/><text fill="#000000" font-family="sans-serif" font-size="11" lengthAdjust="spacingAndGlyphs" textLength="88" x="602.5" y="251.4292">apiLabel: string</text><line style="stroke: #A80036; stroke-width: 1.5;" x1="583.5" x2="753.5" y1="258.0234" y2="258.0234"/><!--class NumberModelField--><rect fill="#FEFECE" filter="url(#f1e1fi8pngz6x4)" height="73.6094" id="NumberModelField" style="stroke: #A80036; stroke-width: 1.5;" width="147" x="400" y="173"/><ellipse cx="415" cy="189" fill="#ADD1B2" rx="11" ry="11" style="stroke: #A80036; stroke-width: 1.0;"/><path d="M417.3438,184.6719 L417.5156,184.75 C417.7344,184.4375 417.9375,184.3438 418.2344,184.3438 C418.5313,184.3438 418.8125,184.4844 418.9688,184.75 C419.0625,184.9063 419.0781,185.0313 419.0781,185.4688 L419.0781,186.8906 C419.0781,187.3125 419.0469,187.5 418.9375,187.6563 C418.7656,187.875 418.5,188.0156 418.2344,188.0156 C418.0156,188.0156 417.7813,187.9063 417.6406,187.7656 C417.5,187.6406 417.4688,187.5156 417.4063,187.1094 C417.3125,186.7031 417.1406,186.4844 416.6563,186.2031 C416.1875,185.9531 415.5781,185.7969 415,185.7969 C413.2656,185.7969 412.0156,187.1094 412.0156,188.8906 L412.0156,189.9844 C412.0156,191.6875 413.3125,192.7813 415.3594,192.7813 C416.125,192.7813 416.8125,192.6563 417.2344,192.3906 C417.4219,192.2969 417.4219,192.2969 417.875,191.8125 C418.0625,191.625 418.2656,191.5469 418.4844,191.5469 C418.9531,191.5469 419.3438,191.9375 419.3438,192.3906 C419.3438,192.7813 419.0156,193.2344 418.4375,193.6406 C417.6875,194.1875 416.5313,194.4844 415.3125,194.4844 C412.4219,194.4844 410.3125,192.5938 410.3125,190.0156 L410.3125,188.8906 C410.3125,186.1719 412.3125,184.0938 414.9375,184.0938 C415.8125,184.0938 416.4063,184.2344 417.3438,184.6719 Z "/><text fill="#000000" font-family="sans-serif" font-size="12" lengthAdjust="spacingAndGlyphs" textLength="115" x="429" y="193.1543">NumberModelField</text><line style="stroke: #A80036; stroke-width: 1.5;" x1="401" x2="546" y1="205" y2="205"/><ellipse cx="411" cy="216.9023" fill="none" rx="3" ry="3" style="stroke: #038048; stroke-width: 1.0;"/><text fill="#000000" font-family="sans-serif" font-size="11" lengthAdjust="spacingAndGlyphs" textLength="82" x="420" y="219.2104">value: number</text><ellipse cx="411" cy="229.707" fill="none" rx="3" ry="3" style="stroke: #038048; stroke-width: 1.0;"/><text fill="#000000" font-family="sans-serif" font-size="11" lengthAdjust="spacingAndGlyphs" textLength="112" x="420" y="232.0151">displayValue: string</text><line style="stroke: #A80036; stroke-width: 1.5;" x1="401" x2="546" y1="238.6094" y2="238.6094"/><!--class ObjectModelField--><rect fill="#FEFECE" filter="url(#f1e1fi8pngz6x4)" height="86.4141" id="ObjectModelField" style="stroke: #A80036; stroke-width: 1.5;" width="225" x="361" y="537"/><ellipse cx="376" cy="553" fill="#ADD1B2" rx="11" ry="11" style="stroke: #A80036; stroke-width: 1.0;"/><path d="M378.3438,548.6719 L378.5156,548.75 C378.7344,548.4375 378.9375,548.3438 379.2344,548.3438 C379.5313,548.3438 379.8125,548.4844 379.9688,548.75 C380.0625,548.9063 380.0781,549.0313 380.0781,549.4688 L380.0781,550.8906 C380.0781,551.3125 380.0469,551.5 379.9375,551.6563 C379.7656,551.875 379.5,552.0156 379.2344,552.0156 C379.0156,552.0156 378.7813,551.9063 378.6406,551.7656 C378.5,551.6406 378.4688,551.5156 378.4063,551.1094 C378.3125,550.7031 378.1406,550.4844 377.6563,550.2031 C377.1875,549.9531 376.5781,549.7969 376,549.7969 C374.2656,549.7969 373.0156,551.1094 373.0156,552.8906 L373.0156,553.9844 C373.0156,555.6875 374.3125,556.7813 376.3594,556.7813 C377.125,556.7813 377.8125,556.6563 378.2344,556.3906 C378.4219,556.2969 378.4219,556.2969 378.875,555.8125 C379.0625,555.625 379.2656,555.5469 379.4844,555.5469 C379.9531,555.5469 380.3438,555.9375 380.3438,556.3906 C380.3438,556.7813 380.0156,557.2344 379.4375,557.6406 C378.6875,558.1875 377.5313,558.4844 376.3125,558.4844 C373.4219,558.4844 371.3125,556.5938 371.3125,554.0156 L371.3125,552.8906 C371.3125,550.1719 373.3125,548.0938 375.9375,548.0938 C376.8125,548.0938 377.4063,548.2344 378.3438,548.6719 Z "/><text fill="#000000" font-family="sans-serif" font-size="12" lengthAdjust="spacingAndGlyphs" textLength="106" x="390" y="557.1543">ObjectModelField</text><rect fill="#FFFFFF" height="15.9688" style="stroke: #000000; stroke-width: 1.0; stroke-dasharray: 2.0,2.0;" width="85" x="504" y="534"/><text fill="#000000" font-family="sans-serif" font-size="12" font-style="italic" lengthAdjust="spacingAndGlyphs" textLength="83" x="505" y="546.1387">CustomModel</text><line style="stroke: #A80036; stroke-width: 1.5;" x1="362" x2="585" y1="569" y2="569"/><ellipse cx="372" cy="580.9023" fill="none" rx="3" ry="3" style="stroke: #038048; stroke-width: 1.0;"/><text fill="#000000" font-family="sans-serif" font-size="11" lengthAdjust="spacingAndGlyphs" textLength="115" x="381" y="583.2104">value: CustomModel</text><ellipse cx="372" cy="593.707" fill="none" rx="3" ry="3" style="stroke: #038048; stroke-width: 1.0;"/><text fill="#000000" font-family="sans-serif" font-size="11" lengthAdjust="spacingAndGlyphs" textLength="173" x="381" y="596.0151">displayTableFunction: Function</text><ellipse cx="372" cy="606.5117" fill="none" rx="3" ry="3" style="stroke: #038048; stroke-width: 1.0;"/><text fill="#000000" font-family="sans-serif" font-size="11" lengthAdjust="spacingAndGlyphs" textLength="175" x="381" y="608.8198">displayModalFunction: Function</text><line style="stroke: #A80036; stroke-width: 1.5;" x1="362" x2="585" y1="615.4141" y2="615.4141"/><!--class SelectModelField--><rect fill="#FEFECE" filter="url(#f1e1fi8pngz6x4)" height="99.2188" id="SelectModelField" style="stroke: #A80036; stroke-width: 1.5;" width="161" x="204" y="160.5"/><ellipse cx="229.8" cy="176.5" fill="#ADD1B2" rx="11" ry="11" style="stroke: #A80036; stroke-width: 1.0;"/><path d="M232.1438,172.1719 L232.3156,172.25 C232.5344,171.9375 232.7375,171.8438 233.0344,171.8438 C233.3313,171.8438 233.6125,171.9844 233.7688,172.25 C233.8625,172.4063 233.8781,172.5313 233.8781,172.9688 L233.8781,174.3906 C233.8781,174.8125 233.8469,175 233.7375,175.1563 C233.5656,175.375 233.3,175.5156 233.0344,175.5156 C232.8156,175.5156 232.5813,175.4063 232.4406,175.2656 C232.3,175.1406 232.2688,175.0156 232.2063,174.6094 C232.1125,174.2031 231.9406,173.9844 231.4563,173.7031 C230.9875,173.4531 230.3781,173.2969 229.8,173.2969 C228.0656,173.2969 226.8156,174.6094 226.8156,176.3906 L226.8156,177.4844 C226.8156,179.1875 228.1125,180.2813 230.1594,180.2813 C230.925,180.2813 231.6125,180.1563 232.0344,179.8906 C232.2219,179.7969 232.2219,179.7969 232.675,179.3125 C232.8625,179.125 233.0656,179.0469 233.2844,179.0469 C233.7531,179.0469 234.1438,179.4375 234.1438,179.8906 C234.1438,180.2813 233.8156,180.7344 233.2375,181.1406 C232.4875,181.6875 231.3313,181.9844 230.1125,181.9844 C227.2219,181.9844 225.1125,180.0938 225.1125,177.5156 L225.1125,176.3906 C225.1125,173.6719 227.1125,171.5938 229.7375,171.5938 C230.6125,171.5938 231.2063,171.7344 232.1438,172.1719 Z "/><text fill="#000000" font-family="sans-serif" font-size="12" lengthAdjust="spacingAndGlyphs" textLength="105" x="246.2" y="180.6543">SelectModelField</text><line style="stroke: #A80036; stroke-width: 1.5;" x1="205" x2="364" y1="192.5" y2="192.5"/><ellipse cx="215" cy="204.4023" fill="none" rx="3" ry="3" style="stroke: #038048; stroke-width: 1.0;"/><text fill="#000000" font-family="sans-serif" font-size="11" lengthAdjust="spacingAndGlyphs" textLength="91" x="224" y="206.7104">bindField: string</text><ellipse cx="215" cy="217.207" fill="none" rx="3" ry="3" style="stroke: #038048; stroke-width: 1.0;"/><text fill="#000000" font-family="sans-serif" font-size="11" lengthAdjust="spacingAndGlyphs" textLength="135" x="224" y="219.5151">options: CustomModel[]</text><ellipse cx="215" cy="230.0117" fill="none" rx="3" ry="3" style="stroke: #038048; stroke-width: 1.0;"/><text fill="#000000" font-family="sans-serif" font-size="11" lengthAdjust="spacingAndGlyphs" textLength="88" x="224" y="232.3198">apiLabel: string</text><ellipse cx="215" cy="242.8164" fill="none" rx="3" ry="3" style="stroke: #038048; stroke-width: 1.0;"/><text fill="#000000" font-family="sans-serif" font-size="11" lengthAdjust="spacingAndGlyphs" textLength="134" x="224" y="245.1245">isTranslatable: boolean</text><line style="stroke: #A80036; stroke-width: 1.5;" x1="205" x2="364" y1="251.7188" y2="251.7188"/><!--class SingleSelectModelField--><rect fill="#FEFECE" filter="url(#f1e1fi8pngz6x4)" height="73.6094" id="SingleSelectModelField" style="stroke: #A80036; stroke-width: 1.5;" width="262" x="284.5" y="14"/><ellipse cx="299.5" cy="30" fill="#ADD1B2" rx="11" ry="11" style="stroke: #A80036; stroke-width: 1.0;"/><path d="M301.8438,25.6719 L302.0156,25.75 C302.2344,25.4375 302.4375,25.3438 302.7344,25.3438 C303.0313,25.3438 303.3125,25.4844 303.4688,25.75 C303.5625,25.9063 303.5781,26.0313 303.5781,26.4688 L303.5781,27.8906 C303.5781,28.3125 303.5469,28.5 303.4375,28.6563 C303.2656,28.875 303,29.0156 302.7344,29.0156 C302.5156,29.0156 302.2813,28.9063 302.1406,28.7656 C302,28.6406 301.9688,28.5156 301.9063,28.1094 C301.8125,27.7031 301.6406,27.4844 301.1563,27.2031 C300.6875,26.9531 300.0781,26.7969 299.5,26.7969 C297.7656,26.7969 296.5156,28.1094 296.5156,29.8906 L296.5156,30.9844 C296.5156,32.6875 297.8125,33.7813 299.8594,33.7813 C300.625,33.7813 301.3125,33.6563 301.7344,33.3906 C301.9219,33.2969 301.9219,33.2969 302.375,32.8125 C302.5625,32.625 302.7656,32.5469 302.9844,32.5469 C303.4531,32.5469 303.8438,32.9375 303.8438,33.3906 C303.8438,33.7813 303.5156,34.2344 302.9375,34.6406 C302.1875,35.1875 301.0313,35.4844 299.8125,35.4844 C296.9219,35.4844 294.8125,33.5938 294.8125,31.0156 L294.8125,29.8906 C294.8125,27.1719 296.8125,25.0938 299.4375,25.0938 C300.3125,25.0938 300.9063,25.2344 301.8438,25.6719 Z "/><text fill="#000000" font-family="sans-serif" font-size="12" lengthAdjust="spacingAndGlyphs" textLength="143" x="313.5" y="34.1543">SingleSelectModelField</text><rect fill="#FFFFFF" height="15.9688" style="stroke: #000000; stroke-width: 1.0; stroke-dasharray: 2.0,2.0;" width="85" x="464.5" y="11"/><text fill="#000000" font-family="sans-serif" font-size="12" font-style="italic" lengthAdjust="spacingAndGlyphs" textLength="83" x="465.5" y="23.1387">CustomModel</text><line style="stroke: #A80036; stroke-width: 1.5;" x1="285.5" x2="545.5" y1="46" y2="46"/><ellipse cx="295.5" cy="57.9023" fill="none" rx="3" ry="3" style="stroke: #038048; stroke-width: 1.0;"/><text fill="#000000" font-family="sans-serif" font-size="11" lengthAdjust="spacingAndGlyphs" textLength="115" x="304.5" y="60.2104">value: CustomModel</text><line style="stroke: #A80036; stroke-width: 1.5;" x1="285.5" x2="545.5" y1="66.8047" y2="66.8047"/><ellipse cx="295.5" cy="78.707" fill="#84BE84" rx="3" ry="3" style="stroke: #038048; stroke-width: 1.0;"/><text fill="#000000" font-family="sans-serif" font-size="11" lengthAdjust="spacingAndGlyphs" textLength="109" x="304.5" y="81.0151">formatForApi(): any</text><!--class TextModelField--><rect fill="#FEFECE" filter="url(#f1e1fi8pngz6x4)" height="137.6328" id="TextModelField" style="stroke: #A80036; stroke-width: 1.5;" width="160" x="621.5" y="511"/><ellipse cx="652.7" cy="527" fill="#ADD1B2" rx="11" ry="11" style="stroke: #A80036; stroke-width: 1.0;"/><path d="M655.0438,522.6719 L655.2156,522.75 C655.4344,522.4375 655.6375,522.3438 655.9344,522.3438 C656.2313,522.3438 656.5125,522.4844 656.6688,522.75 C656.7625,522.9063 656.7781,523.0313 656.7781,523.4688 L656.7781,524.8906 C656.7781,525.3125 656.7469,525.5 656.6375,525.6563 C656.4656,525.875 656.2,526.0156 655.9344,526.0156 C655.7156,526.0156 655.4813,525.9063 655.3406,525.7656 C655.2,525.6406 655.1688,525.5156 655.1063,525.1094 C655.0125,524.7031 654.8406,524.4844 654.3563,524.2031 C653.8875,523.9531 653.2781,523.7969 652.7,523.7969 C650.9656,523.7969 649.7156,525.1094 649.7156,526.8906 L649.7156,527.9844 C649.7156,529.6875 651.0125,530.7813 653.0594,530.7813 C653.825,530.7813 654.5125,530.6563 654.9344,530.3906 C655.1219,530.2969 655.1219,530.2969 655.575,529.8125 C655.7625,529.625 655.9656,529.5469 656.1844,529.5469 C656.6531,529.5469 657.0438,529.9375 657.0438,530.3906 C657.0438,530.7813 656.7156,531.2344 656.1375,531.6406 C655.3875,532.1875 654.2313,532.4844 653.0125,532.4844 C650.1219,532.4844 648.0125,530.5938 648.0125,528.0156 L648.0125,526.8906 C648.0125,524.1719 650.0125,522.0938 652.6375,522.0938 C653.5125,522.0938 654.1063,522.2344 655.0438,522.6719 Z "/><text fill="#000000" font-family="sans-serif" font-size="12" lengthAdjust="spacingAndGlyphs" textLength="92" x="670.3" y="531.1543">TextModelField</text><line style="stroke: #A80036; stroke-width: 1.5;" x1="622.5" x2="780.5" y1="543" y2="543"/><ellipse cx="632.5" cy="554.9023" fill="none" rx="3" ry="3" style="stroke: #038048; stroke-width: 1.0;"/><text fill="#000000" font-family="sans-serif" font-size="11" lengthAdjust="spacingAndGlyphs" textLength="71" x="641.5" y="557.2104">value: string</text><ellipse cx="632.5" cy="567.707" fill="none" rx="3" ry="3" style="stroke: #038048; stroke-width: 1.0;"/><text fill="#000000" font-family="sans-serif" font-size="11" lengthAdjust="spacingAndGlyphs" textLength="114" x="641.5" y="570.0151">isLongText: boolean</text><ellipse cx="632.5" cy="580.5117" fill="none" rx="3" ry="3" style="stroke: #038048; stroke-width: 1.0;"/><text fill="#000000" font-family="sans-serif" font-size="11" lengthAdjust="spacingAndGlyphs" textLength="119" x="641.5" y="582.8198">isPassword: boolean</text><ellipse cx="632.5" cy="593.3164" fill="none" rx="3" ry="3" style="stroke: #038048; stroke-width: 1.0;"/><text fill="#000000" font-family="sans-serif" font-size="11" lengthAdjust="spacingAndGlyphs" textLength="93" x="641.5" y="595.6245">isColor: boolean</text><ellipse cx="632.5" cy="606.1211" fill="none" rx="3" ry="3" style="stroke: #038048; stroke-width: 1.0;"/><text fill="#000000" font-family="sans-serif" font-size="11" lengthAdjust="spacingAndGlyphs" textLength="87" x="641.5" y="608.4292">isFont: boolean</text><ellipse cx="632.5" cy="618.9258" fill="none" rx="3" ry="3" style="stroke: #038048; stroke-width: 1.0;"/><text fill="#000000" font-family="sans-serif" font-size="11" lengthAdjust="spacingAndGlyphs" textLength="112" x="641.5" y="621.2339">displayValue: string</text><ellipse cx="632.5" cy="631.7305" fill="none" rx="3" ry="3" style="stroke: #038048; stroke-width: 1.0;"/><text fill="#000000" font-family="sans-serif" font-size="11" lengthAdjust="spacingAndGlyphs" textLength="134" x="641.5" y="634.0386">isTranslatable: boolean</text><line style="stroke: #A80036; stroke-width: 1.5;" x1="622.5" x2="780.5" y1="640.6328" y2="640.6328"/><!--link ArrayInputField to CustomModelField--><path d="M360.578,388.5 C365.478,388.5 370.379,388.5 375.279,388.5 " fill="none" id="ArrayInputField-CustomModelField" style="stroke: #A80036; stroke-width: 1.0;"/><polygon fill="none" points="375.425,381.5,395.425,388.5,375.425,395.5,375.425,381.5" style="stroke: #A80036; stroke-width: 1.0;"/><!--link BooleanModelField to CustomModelField--><path d="M105.7133,357.946 C125.907,336.041 156.346,308.312 190,296 C260.956,270.041 288.818,270.668 360,296 C390.301,306.783 418.374,329.502 439.021,349.725 " fill="none" id="BooleanModelField-CustomModelField" style="stroke: #A80036; stroke-width: 1.0;"/><polygon fill="none" points="444.088,344.895,452.971,364.132,434.03,354.633,444.088,344.895" style="stroke: #A80036; stroke-width: 1.0;"/><!--link CustomModelField to DateModelField--><path d="M507.911,349.435 C528.327,329.289 556.03,306.739 586,296 C653.362,271.863 678.144,276.531 747,296 C770.019,302.509 792.983,313.638 813.788,325.969 " fill="none" id="CustomModelField-DateModelField" style="stroke: #A80036; stroke-width: 1.0;"/><polygon fill="none" points="512.701,354.554,493.802,364.137,502.6,344.86,512.701,354.554" style="stroke: #A80036; stroke-width: 1.0;"/><!--link CustomModelField to FileModelField--><path d="M571.792,388.5 C576.565,388.5 581.337,388.5 586.11,388.5 " fill="none" id="CustomModelField-FileModelField" style="stroke: #A80036; stroke-width: 1.0;"/><polygon fill="none" points="571.529,395.5,551.529,388.5,571.529,381.5,571.529,395.5" style="stroke: #A80036; stroke-width: 1.0;"/><!--link NestedFieldModelField to CustomModelField--><path d="M607.603,266.12 C577.199,293.639 541.24,326.187 514.215,350.647 " fill="none" id="NestedFieldModelField-CustomModelField" style="stroke: #A80036; stroke-width: 1.0;"/><polygon fill="none" points="518.585,356.134,499.06,364.365,509.19,345.754,518.585,356.134" style="stroke: #A80036; stroke-width: 1.0;"/><!--link NumberModelField to CustomModelField--><path d="M473.5,247.143 C473.5,275.249 473.5,314.339 473.5,344.131 " fill="none" id="NumberModelField-CustomModelField" style="stroke: #A80036; stroke-width: 1.0;"/><polygon fill="none" points="480.5,344.327,473.5,364.327,466.5,344.326,480.5,344.327" style="stroke: #A80036; stroke-width: 1.0;"/><!--link CustomModelField to ObjectModelField--><path d="M473.5,432.811 C473.5,464.012 473.5,505.89 473.5,536.826 " fill="none" id="CustomModelField-ObjectModelField" style="stroke: #A80036; stroke-width: 1.0;"/><polygon fill="none" points="466.5,432.736,473.5,412.736,480.5,432.736,466.5,432.736" style="stroke: #A80036; stroke-width: 1.0;"/><!--link CustomModelField to MultipleObjectsModelField--><path d="M421.536,423.691 C373.264,455.454 301.239,502.845 249.455,536.918 " fill="none" id="CustomModelField-MultipleObjectsModelField" style="stroke: #A80036; stroke-width: 1.0;"/><polygon fill="none" points="417.918,417.693,438.473,412.547,425.614,429.388,417.918,417.693" style="stroke: #A80036; stroke-width: 1.0;"/><!--link SelectModelField to CustomModelField--><path d="M336.645,259.697 C367.386,288.404 405.667,324.153 433.918,350.536 " fill="none" id="SelectModelField-CustomModelField" style="stroke: #A80036; stroke-width: 1.0;"/><polygon fill="none" points="439.025,345.728,448.865,364.494,429.47,355.96,439.025,345.728" style="stroke: #A80036; stroke-width: 1.0;"/><!--link CustomModelField to TextModelField--><path d="M517.073,425.715 C546.515,450.185 586.261,483.22 621.316,512.356 " fill="none" id="CustomModelField-TextModelField" style="stroke: #A80036; stroke-width: 1.0;"/><polygon fill="none" points="512.364,430.904,501.457,412.736,521.313,420.137,512.364,430.904" style="stroke: #A80036; stroke-width: 1.0;"/><!--link SingleSelectModelField to SelectModelField--><path d="M385.446,88.019 C371.39,104.865 354.217,125.446 338.049,144.823 " fill="none" id="SingleSelectModelField-SelectModelField" style="stroke: #A80036; stroke-width: 1.0;"/><polygon fill="none" points="343.276,149.485,325.088,160.357,332.526,140.516,343.276,149.485" style="stroke: #A80036; stroke-width: 1.0;"/><!--link MutlipleSelectModelField to SelectModelField--><path d="M188.606,94.073 C201.661,109.72 216.787,127.848 231.112,145.016 " fill="none" id="MutlipleSelectModelField-SelectModelField" style="stroke: #A80036; stroke-width: 1.0;"/><polygon fill="none" points="236.522,140.573,243.96,160.414,225.772,149.543,236.522,140.573" style="stroke: #A80036; stroke-width: 1.0;"/><!--
@startuml
class CustomModelField<T> {

}

class ArrayInputField<T> {
    + value: T[]
    + numberOfInputs: number
}

class BooleanModelField {
    + value: Boolean
}

class DateModelField {
    + value: Date
    + displayTime: boolean;
    
    + {static} formatFromApi(date): Date
    + {static} formatDateTimeFromApi(date): Date
    + formatForApi() : any
    + formatDateTimeForApi(): any
}

class FileModelField {
    + value: string
    + uploadPath: string
    + fileUrlField: string
    + acceptedTypes: string[]
}

class MultipleObjectsModelField<CustomModel> {
    + value: CustomModel[]
    + displayTableFunction: Function
    + displayModalFunction: Function
}

class MutlipleSelectModelField {
    + value: CustomModel[]
    + maxSelectionLength: number
    + formatForApi() : any
}

class NestedFieldModelField {
    + value: any
    + childrenObject: string
    + childrenFieldName: string
    + isPassword: boolean
    + apiLabel: string
}

class NumberModelField {
    + value: number
    + displayValue: string
}

class ObjectModelField<CustomModel> {
    + value: CustomModel
    + displayTableFunction: Function
    + displayModalFunction: Function
}

class SelectModelField {
    + bindField: string
    + options: CustomModel[]
    + apiLabel: string
    + isTranslatable: boolean
}

class SingleSelectModelField<CustomModel> {
    + value: CustomModel
    + formatForApi(): any
}

class TextModelField {
    + value: string
    + isLongText: boolean
    + isPassword: boolean
    + isColor: boolean
    + isFont: boolean
    + displayValue: string
    + isTranslatable: boolean
}

CustomModelField <|-left- ArrayInputField
CustomModelField <|-left- BooleanModelField
CustomModelField <|-right- DateModelField
CustomModelField <|-right- FileModelField
CustomModelField <|-up- NestedFieldModelField
CustomModelField <|-up- NumberModelField
CustomModelField <|-down- ObjectModelField
CustomModelField <|-down- MultipleObjectsModelField
CustomModelField <|-up- SelectModelField
CustomModelField <|-down- TextModelField
SelectModelField <|-up- SingleSelectModelField
SelectModelField <|-up- MutlipleSelectModelField
@enduml

PlantUML version 1.2019.07(Mon Jun 24 19:59:20 UTC 2019)
(GPL source distribution)
Java Runtime: Java(TM) SE Runtime Environment
JVM: Java HotSpot(TM) 64-Bit Server VM
Java Version: 1.7.0_25-b15
Operating System: Linux
Default Encoding: UTF-8
Language: en
Country: US
--></g></svg>