<?xml version="1.0" encoding="UTF-8" standalone="no"?><svg xmlns="http://www.w3.org/2000/svg" xmlns:xlink="http://www.w3.org/1999/xlink" contentScriptType="application/ecmascript" contentStyleType="text/css" height="750px" preserveAspectRatio="none" style="width:880px;height:750px;" version="1.1" viewBox="0 0 880 750" width="880px" zoomAndPan="magnify"><defs><filter height="300%" id="f16srbv5y2owph" width="300%" x="-1" y="-1"><feGaussianBlur result="blurOut" stdDeviation="2.0"/><feColorMatrix in="blurOut" result="blurOut2" type="matrix" values="0 0 0 0 0 0 0 0 0 0 0 0 0 0 0 0 0 0 .4 0"/><feOffset dx="4.0" dy="4.0" in="blurOut2" result="blurOut3"/><feBlend in="SourceGraphic" in2="blurOut3" mode="normal"/></filter></defs><g><!--class Household--><rect fill="#FEFECE" filter="url(#f16srbv5y2owph)" height="227.2656" id="Household" style="stroke: #A80036; stroke-width: 1.5;" width="161" x="365" y="512"/><ellipse cx="407.9" cy="528" fill="#ADD1B2" rx="11" ry="11" style="stroke: #A80036; stroke-width: 1.0;"/><path d="M410.2438,523.6719 L410.4156,523.75 C410.6344,523.4375 410.8375,523.3438 411.1344,523.3438 C411.4313,523.3438 411.7125,523.4844 411.8688,523.75 C411.9625,523.9063 411.9781,524.0313 411.9781,524.4688 L411.9781,525.8906 C411.9781,526.3125 411.9469,526.5 411.8375,526.6563 C411.6656,526.875 411.4,527.0156 411.1344,527.0156 C410.9156,527.0156 410.6813,526.9063 410.5406,526.7656 C410.4,526.6406 410.3688,526.5156 410.3063,526.1094 C410.2125,525.7031 410.0406,525.4844 409.5563,525.2031 C409.0875,524.9531 408.4781,524.7969 407.9,524.7969 C406.1656,524.7969 404.9156,526.1094 404.9156,527.8906 L404.9156,528.9844 C404.9156,530.6875 406.2125,531.7813 408.2594,531.7813 C409.025,531.7813 409.7125,531.6563 410.1344,531.3906 C410.3219,531.2969 410.3219,531.2969 410.775,530.8125 C410.9625,530.625 411.1656,530.5469 411.3844,530.5469 C411.8531,530.5469 412.2438,530.9375 412.2438,531.3906 C412.2438,531.7813 411.9156,532.2344 411.3375,532.6406 C410.5875,533.1875 409.4313,533.4844 408.2125,533.4844 C405.3219,533.4844 403.2125,531.5938 403.2125,529.0156 L403.2125,527.8906 C403.2125,525.1719 405.2125,523.0938 407.8375,523.0938 C408.7125,523.0938 409.3063,523.2344 410.2438,523.6719 Z "/><text fill="#000000" font-family="sans-serif" font-size="12" lengthAdjust="spacingAndGlyphs" textLength="67" x="428.1" y="532.1543">Household</text><line style="stroke: #A80036; stroke-width: 1.5;" x1="366" x2="525" y1="544" y2="544"/><rect fill="none" height="6" style="stroke: #C82930; stroke-width: 1.0;" width="6" x="373" y="552.9023"/><text fill="#000000" font-family="sans-serif" font-size="11" lengthAdjust="spacingAndGlyphs" textLength="10" x="385" y="558.2104">id</text><rect fill="none" height="6" style="stroke: #C82930; stroke-width: 1.0;" width="6" x="373" y="565.707"/><text fill="#000000" font-family="sans-serif" font-size="11" lengthAdjust="spacingAndGlyphs" textLength="67" x="385" y="571.0151">familyName</text><rect fill="none" height="6" style="stroke: #C82930; stroke-width: 1.0;" width="6" x="373" y="578.5117"/><text fill="#000000" font-family="sans-serif" font-size="11" lengthAdjust="spacingAndGlyphs" textLength="56" x="385" y="583.8198">firstName</text><rect fill="none" height="6" style="stroke: #C82930; stroke-width: 1.0;" width="6" x="373" y="591.3164"/><text fill="#000000" font-family="sans-serif" font-size="11" lengthAdjust="spacingAndGlyphs" textLength="44" x="385" y="596.6245">location</text><rect fill="none" height="6" style="stroke: #C82930; stroke-width: 1.0;" width="6" x="373" y="604.1211"/><text fill="#000000" font-family="sans-serif" font-size="11" lengthAdjust="spacingAndGlyphs" textLength="67" x="385" y="609.4292">dependents</text><rect fill="none" height="6" style="stroke: #C82930; stroke-width: 1.0;" width="6" x="373" y="616.9258"/><text fill="#000000" font-family="sans-serif" font-size="11" lengthAdjust="spacingAndGlyphs" textLength="79" x="385" y="622.2339">vulnerabilities</text><rect fill="none" height="6" style="stroke: #C82930; stroke-width: 1.0;" width="6" x="373" y="629.7305"/><text fill="#000000" font-family="sans-serif" font-size="11" lengthAdjust="spacingAndGlyphs" textLength="46" x="385" y="635.0386">projects</text><rect fill="none" height="6" style="stroke: #C82930; stroke-width: 1.0;" width="6" x="373" y="642.5352"/><text fill="#000000" font-family="sans-serif" font-size="11" lengthAdjust="spacingAndGlyphs" textLength="73" x="385" y="647.8433">beneficiaries</text><rect fill="none" height="6" style="stroke: #C82930; stroke-width: 1.0;" width="6" x="373" y="655.3398"/><text fill="#000000" font-family="sans-serif" font-size="11" lengthAdjust="spacingAndGlyphs" textLength="135" x="385" y="660.6479">countrySpecificAnswers</text><rect fill="none" height="6" style="stroke: #C82930; stroke-width: 1.0;" width="6" x="373" y="668.1445"/><text fill="#000000" font-family="sans-serif" font-size="11" lengthAdjust="spacingAndGlyphs" textLength="92" x="385" y="673.4526">addressNumber</text><rect fill="none" height="6" style="stroke: #C82930; stroke-width: 1.0;" width="6" x="373" y="680.9492"/><text fill="#000000" font-family="sans-serif" font-size="11" lengthAdjust="spacingAndGlyphs" textLength="82" x="385" y="686.2573">addressStreet</text><rect fill="none" height="6" style="stroke: #C82930; stroke-width: 1.0;" width="6" x="373" y="693.7539"/><text fill="#000000" font-family="sans-serif" font-size="11" lengthAdjust="spacingAndGlyphs" textLength="99" x="385" y="699.062">addressPostcode</text><rect fill="none" height="6" style="stroke: #C82930; stroke-width: 1.0;" width="6" x="373" y="706.5586"/><text fill="#000000" font-family="sans-serif" font-size="11" lengthAdjust="spacingAndGlyphs" textLength="53" x="385" y="711.8667">livelihood</text><rect fill="none" height="6" style="stroke: #C82930; stroke-width: 1.0;" width="6" x="373" y="719.3633"/><text fill="#000000" font-family="sans-serif" font-size="11" lengthAdjust="spacingAndGlyphs" textLength="32" x="385" y="724.6714">notes</text><line style="stroke: #A80036; stroke-width: 1.5;" x1="366" x2="525" y1="731.2656" y2="731.2656"/><!--class Livelihood--><rect fill="#FEFECE" filter="url(#f16srbv5y2owph)" height="73.6094" id="Livelihood" style="stroke: #A80036; stroke-width: 1.5;" width="93" x="6" y="352.5"/><ellipse cx="21" cy="368.5" fill="#ADD1B2" rx="11" ry="11" style="stroke: #A80036; stroke-width: 1.0;"/><path d="M23.3438,364.1719 L23.5156,364.25 C23.7344,363.9375 23.9375,363.8438 24.2344,363.8438 C24.5313,363.8438 24.8125,363.9844 24.9688,364.25 C25.0625,364.4063 25.0781,364.5313 25.0781,364.9688 L25.0781,366.3906 C25.0781,366.8125 25.0469,367 24.9375,367.1563 C24.7656,367.375 24.5,367.5156 24.2344,367.5156 C24.0156,367.5156 23.7813,367.4063 23.6406,367.2656 C23.5,367.1406 23.4688,367.0156 23.4063,366.6094 C23.3125,366.2031 23.1406,365.9844 22.6563,365.7031 C22.1875,365.4531 21.5781,365.2969 21,365.2969 C19.2656,365.2969 18.0156,366.6094 18.0156,368.3906 L18.0156,369.4844 C18.0156,371.1875 19.3125,372.2813 21.3594,372.2813 C22.125,372.2813 22.8125,372.1563 23.2344,371.8906 C23.4219,371.7969 23.4219,371.7969 23.875,371.3125 C24.0625,371.125 24.2656,371.0469 24.4844,371.0469 C24.9531,371.0469 25.3438,371.4375 25.3438,371.8906 C25.3438,372.2813 25.0156,372.7344 24.4375,373.1406 C23.6875,373.6875 22.5313,373.9844 21.3125,373.9844 C18.4219,373.9844 16.3125,372.0938 16.3125,369.5156 L16.3125,368.3906 C16.3125,365.6719 18.3125,363.5938 20.9375,363.5938 C21.8125,363.5938 22.4063,363.7344 23.3438,364.1719 Z "/><text fill="#000000" font-family="sans-serif" font-size="12" lengthAdjust="spacingAndGlyphs" textLength="61" x="35" y="372.6543">Livelihood</text><line style="stroke: #A80036; stroke-width: 1.5;" x1="7" x2="98" y1="384.5" y2="384.5"/><rect fill="none" height="6" style="stroke: #C82930; stroke-width: 1.0;" width="6" x="14" y="393.4023"/><text fill="#000000" font-family="sans-serif" font-size="11" lengthAdjust="spacingAndGlyphs" textLength="10" x="26" y="398.7104">id</text><rect fill="none" height="6" style="stroke: #C82930; stroke-width: 1.0;" width="6" x="14" y="406.207"/><text fill="#000000" font-family="sans-serif" font-size="11" lengthAdjust="spacingAndGlyphs" textLength="32" x="26" y="411.5151">name</text><line style="stroke: #A80036; stroke-width: 1.5;" x1="7" x2="98" y1="418.1094" y2="418.1094"/><!--class CountrySpecificAnswer--><rect fill="#FEFECE" filter="url(#f16srbv5y2owph)" height="73.6094" id="CountrySpecificAnswer" style="stroke: #A80036; stroke-width: 1.5;" width="173" x="134" y="352.5"/><ellipse cx="149" cy="368.5" fill="#ADD1B2" rx="11" ry="11" style="stroke: #A80036; stroke-width: 1.0;"/><path d="M151.3438,364.1719 L151.5156,364.25 C151.7344,363.9375 151.9375,363.8438 152.2344,363.8438 C152.5313,363.8438 152.8125,363.9844 152.9688,364.25 C153.0625,364.4063 153.0781,364.5313 153.0781,364.9688 L153.0781,366.3906 C153.0781,366.8125 153.0469,367 152.9375,367.1563 C152.7656,367.375 152.5,367.5156 152.2344,367.5156 C152.0156,367.5156 151.7813,367.4063 151.6406,367.2656 C151.5,367.1406 151.4688,367.0156 151.4063,366.6094 C151.3125,366.2031 151.1406,365.9844 150.6563,365.7031 C150.1875,365.4531 149.5781,365.2969 149,365.2969 C147.2656,365.2969 146.0156,366.6094 146.0156,368.3906 L146.0156,369.4844 C146.0156,371.1875 147.3125,372.2813 149.3594,372.2813 C150.125,372.2813 150.8125,372.1563 151.2344,371.8906 C151.4219,371.7969 151.4219,371.7969 151.875,371.3125 C152.0625,371.125 152.2656,371.0469 152.4844,371.0469 C152.9531,371.0469 153.3438,371.4375 153.3438,371.8906 C153.3438,372.2813 153.0156,372.7344 152.4375,373.1406 C151.6875,373.6875 150.5313,373.9844 149.3125,373.9844 C146.4219,373.9844 144.3125,372.0938 144.3125,369.5156 L144.3125,368.3906 C144.3125,365.6719 146.3125,363.5938 148.9375,363.5938 C149.8125,363.5938 150.4063,363.7344 151.3438,364.1719 Z "/><text fill="#000000" font-family="sans-serif" font-size="12" lengthAdjust="spacingAndGlyphs" textLength="141" x="163" y="372.6543">CountrySpecificAnswer</text><line style="stroke: #A80036; stroke-width: 1.5;" x1="135" x2="306" y1="384.5" y2="384.5"/><rect fill="none" height="6" style="stroke: #C82930; stroke-width: 1.0;" width="6" x="142" y="393.4023"/><text fill="#000000" font-family="sans-serif" font-size="11" lengthAdjust="spacingAndGlyphs" textLength="86" x="154" y="398.7104">countrySpecific</text><rect fill="none" height="6" style="stroke: #C82930; stroke-width: 1.0;" width="6" x="142" y="406.207"/><text fill="#000000" font-family="sans-serif" font-size="11" lengthAdjust="spacingAndGlyphs" textLength="42" x="154" y="411.5151">answer</text><line style="stroke: #A80036; stroke-width: 1.5;" x1="135" x2="306" y1="418.1094" y2="418.1094"/><!--class CountrySpecific--><rect fill="#FEFECE" filter="url(#f16srbv5y2owph)" height="124.8281" id="CountrySpecific" style="stroke: #A80036; stroke-width: 1.5;" width="128" x="156.5" y="142"/><ellipse cx="171.5" cy="158" fill="#ADD1B2" rx="11" ry="11" style="stroke: #A80036; stroke-width: 1.0;"/><path d="M173.8438,153.6719 L174.0156,153.75 C174.2344,153.4375 174.4375,153.3438 174.7344,153.3438 C175.0313,153.3438 175.3125,153.4844 175.4688,153.75 C175.5625,153.9063 175.5781,154.0313 175.5781,154.4688 L175.5781,155.8906 C175.5781,156.3125 175.5469,156.5 175.4375,156.6563 C175.2656,156.875 175,157.0156 174.7344,157.0156 C174.5156,157.0156 174.2813,156.9063 174.1406,156.7656 C174,156.6406 173.9688,156.5156 173.9063,156.1094 C173.8125,155.7031 173.6406,155.4844 173.1563,155.2031 C172.6875,154.9531 172.0781,154.7969 171.5,154.7969 C169.7656,154.7969 168.5156,156.1094 168.5156,157.8906 L168.5156,158.9844 C168.5156,160.6875 169.8125,161.7813 171.8594,161.7813 C172.625,161.7813 173.3125,161.6563 173.7344,161.3906 C173.9219,161.2969 173.9219,161.2969 174.375,160.8125 C174.5625,160.625 174.7656,160.5469 174.9844,160.5469 C175.4531,160.5469 175.8438,160.9375 175.8438,161.3906 C175.8438,161.7813 175.5156,162.2344 174.9375,162.6406 C174.1875,163.1875 173.0313,163.4844 171.8125,163.4844 C168.9219,163.4844 166.8125,161.5938 166.8125,159.0156 L166.8125,157.8906 C166.8125,155.1719 168.8125,153.0938 171.4375,153.0938 C172.3125,153.0938 172.9063,153.2344 173.8438,153.6719 Z "/><text fill="#000000" font-family="sans-serif" font-size="12" lengthAdjust="spacingAndGlyphs" textLength="96" x="185.5" y="162.1543">CountrySpecific</text><line style="stroke: #A80036; stroke-width: 1.5;" x1="157.5" x2="283.5" y1="174" y2="174"/><rect fill="none" height="6" style="stroke: #C82930; stroke-width: 1.0;" width="6" x="164.5" y="182.9023"/><text fill="#000000" font-family="sans-serif" font-size="11" lengthAdjust="spacingAndGlyphs" textLength="10" x="176.5" y="188.2104">id</text><rect fill="none" height="6" style="stroke: #C82930; stroke-width: 1.0;" width="6" x="164.5" y="195.707"/><text fill="#000000" font-family="sans-serif" font-size="11" lengthAdjust="spacingAndGlyphs" textLength="24" x="176.5" y="201.0151">field</text><rect fill="none" height="6" style="stroke: #C82930; stroke-width: 1.0;" width="6" x="164.5" y="208.5117"/><text fill="#000000" font-family="sans-serif" font-size="11" lengthAdjust="spacingAndGlyphs" textLength="24" x="176.5" y="213.8198">type</text><rect fill="none" height="6" style="stroke: #C82930; stroke-width: 1.0;" width="6" x="164.5" y="221.3164"/><text fill="#000000" font-family="sans-serif" font-size="11" lengthAdjust="spacingAndGlyphs" textLength="42" x="176.5" y="226.6245">answer</text><rect fill="none" height="6" style="stroke: #C82930; stroke-width: 1.0;" width="6" x="164.5" y="234.1211"/><text fill="#000000" font-family="sans-serif" font-size="11" lengthAdjust="spacingAndGlyphs" textLength="66" x="176.5" y="239.4292">countryIso3</text><rect fill="none" height="6" style="stroke: #C82930; stroke-width: 1.0;" width="6" x="164.5" y="246.9258"/><text fill="#000000" font-family="sans-serif" font-size="11" lengthAdjust="spacingAndGlyphs" textLength="32" x="176.5" y="252.2339">name</text><line style="stroke: #A80036; stroke-width: 1.5;" x1="157.5" x2="283.5" y1="258.8281" y2="258.8281"/><!--class CountrySpecificType--><rect fill="#FEFECE" filter="url(#f16srbv5y2owph)" height="73.6094" id="CountrySpecificType" style="stroke: #A80036; stroke-width: 1.5;" width="157" x="142" y="8"/><ellipse cx="157" cy="24" fill="#ADD1B2" rx="11" ry="11" style="stroke: #A80036; stroke-width: 1.0;"/><path d="M159.3438,19.6719 L159.5156,19.75 C159.7344,19.4375 159.9375,19.3438 160.2344,19.3438 C160.5313,19.3438 160.8125,19.4844 160.9688,19.75 C161.0625,19.9063 161.0781,20.0313 161.0781,20.4688 L161.0781,21.8906 C161.0781,22.3125 161.0469,22.5 160.9375,22.6563 C160.7656,22.875 160.5,23.0156 160.2344,23.0156 C160.0156,23.0156 159.7813,22.9063 159.6406,22.7656 C159.5,22.6406 159.4688,22.5156 159.4063,22.1094 C159.3125,21.7031 159.1406,21.4844 158.6563,21.2031 C158.1875,20.9531 157.5781,20.7969 157,20.7969 C155.2656,20.7969 154.0156,22.1094 154.0156,23.8906 L154.0156,24.9844 C154.0156,26.6875 155.3125,27.7813 157.3594,27.7813 C158.125,27.7813 158.8125,27.6563 159.2344,27.3906 C159.4219,27.2969 159.4219,27.2969 159.875,26.8125 C160.0625,26.625 160.2656,26.5469 160.4844,26.5469 C160.9531,26.5469 161.3438,26.9375 161.3438,27.3906 C161.3438,27.7813 161.0156,28.2344 160.4375,28.6406 C159.6875,29.1875 158.5313,29.4844 157.3125,29.4844 C154.4219,29.4844 152.3125,27.5938 152.3125,25.0156 L152.3125,23.8906 C152.3125,21.1719 154.3125,19.0938 156.9375,19.0938 C157.8125,19.0938 158.4063,19.2344 159.3438,19.6719 Z "/><text fill="#000000" font-family="sans-serif" font-size="12" lengthAdjust="spacingAndGlyphs" textLength="125" x="171" y="28.1543">CountrySpecificType</text><line style="stroke: #A80036; stroke-width: 1.5;" x1="143" x2="298" y1="40" y2="40"/><rect fill="none" height="6" style="stroke: #C82930; stroke-width: 1.0;" width="6" x="150" y="48.9023"/><text fill="#000000" font-family="sans-serif" font-size="11" lengthAdjust="spacingAndGlyphs" textLength="10" x="162" y="54.2104">id</text><rect fill="none" height="6" style="stroke: #C82930; stroke-width: 1.0;" width="6" x="150" y="61.707"/><text fill="#000000" font-family="sans-serif" font-size="11" lengthAdjust="spacingAndGlyphs" textLength="32" x="162" y="67.0151">name</text><line style="stroke: #A80036; stroke-width: 1.5;" x1="143" x2="298" y1="73.6094" y2="73.6094"/><!--class Location--><rect fill="#FEFECE" filter="url(#f16srbv5y2owph)" height="124.8281" id="Location" style="stroke: #A80036; stroke-width: 1.5;" width="92" x="477.5" y="327"/><ellipse cx="495.65" cy="343" fill="#ADD1B2" rx="11" ry="11" style="stroke: #A80036; stroke-width: 1.0;"/><path d="M497.9938,338.6719 L498.1656,338.75 C498.3844,338.4375 498.5875,338.3438 498.8844,338.3438 C499.1813,338.3438 499.4625,338.4844 499.6188,338.75 C499.7125,338.9063 499.7281,339.0313 499.7281,339.4688 L499.7281,340.8906 C499.7281,341.3125 499.6969,341.5 499.5875,341.6563 C499.4156,341.875 499.15,342.0156 498.8844,342.0156 C498.6656,342.0156 498.4313,341.9063 498.2906,341.7656 C498.15,341.6406 498.1188,341.5156 498.0563,341.1094 C497.9625,340.7031 497.7906,340.4844 497.3063,340.2031 C496.8375,339.9531 496.2281,339.7969 495.65,339.7969 C493.9156,339.7969 492.6656,341.1094 492.6656,342.8906 L492.6656,343.9844 C492.6656,345.6875 493.9625,346.7813 496.0094,346.7813 C496.775,346.7813 497.4625,346.6563 497.8844,346.3906 C498.0719,346.2969 498.0719,346.2969 498.525,345.8125 C498.7125,345.625 498.9156,345.5469 499.1344,345.5469 C499.6031,345.5469 499.9938,345.9375 499.9938,346.3906 C499.9938,346.7813 499.6656,347.2344 499.0875,347.6406 C498.3375,348.1875 497.1813,348.4844 495.9625,348.4844 C493.0719,348.4844 490.9625,346.5938 490.9625,344.0156 L490.9625,342.8906 C490.9625,340.1719 492.9625,338.0938 495.5875,338.0938 C496.4625,338.0938 497.0563,338.2344 497.9938,338.6719 Z "/><text fill="#000000" font-family="sans-serif" font-size="12" lengthAdjust="spacingAndGlyphs" textLength="53" x="510.35" y="347.1543">Location</text><line style="stroke: #A80036; stroke-width: 1.5;" x1="478.5" x2="568.5" y1="359" y2="359"/><rect fill="none" height="6" style="stroke: #C82930; stroke-width: 1.0;" width="6" x="485.5" y="367.9023"/><text fill="#000000" font-family="sans-serif" font-size="11" lengthAdjust="spacingAndGlyphs" textLength="10" x="497.5" y="373.2104">id</text><rect fill="none" height="6" style="stroke: #C82930; stroke-width: 1.0;" width="6" x="485.5" y="380.707"/><text fill="#000000" font-family="sans-serif" font-size="11" lengthAdjust="spacingAndGlyphs" textLength="32" x="497.5" y="386.0151">adm1</text><rect fill="none" height="6" style="stroke: #C82930; stroke-width: 1.0;" width="6" x="485.5" y="393.5117"/><text fill="#000000" font-family="sans-serif" font-size="11" lengthAdjust="spacingAndGlyphs" textLength="32" x="497.5" y="398.8198">adm2</text><rect fill="none" height="6" style="stroke: #C82930; stroke-width: 1.0;" width="6" x="485.5" y="406.3164"/><text fill="#000000" font-family="sans-serif" font-size="11" lengthAdjust="spacingAndGlyphs" textLength="32" x="497.5" y="411.6245">adm3</text><rect fill="none" height="6" style="stroke: #C82930; stroke-width: 1.0;" width="6" x="485.5" y="419.1211"/><text fill="#000000" font-family="sans-serif" font-size="11" lengthAdjust="spacingAndGlyphs" textLength="32" x="497.5" y="424.4292">adm4</text><rect fill="none" height="6" style="stroke: #C82930; stroke-width: 1.0;" width="6" x="485.5" y="431.9258"/><text fill="#000000" font-family="sans-serif" font-size="11" lengthAdjust="spacingAndGlyphs" textLength="66" x="497.5" y="437.2339">countryIso3</text><line style="stroke: #A80036; stroke-width: 1.5;" x1="478.5" x2="568.5" y1="443.8281" y2="443.8281"/><!--class Adm--><rect fill="#FEFECE" filter="url(#f16srbv5y2owph)" height="73.6094" id="Adm" style="stroke: #A80036; stroke-width: 1.5;" width="59" x="494" y="167.5"/><ellipse cx="509" cy="183.5" fill="#ADD1B2" rx="11" ry="11" style="stroke: #A80036; stroke-width: 1.0;"/><path d="M511.3438,179.1719 L511.5156,179.25 C511.7344,178.9375 511.9375,178.8438 512.2344,178.8438 C512.5313,178.8438 512.8125,178.9844 512.9688,179.25 C513.0625,179.4063 513.0781,179.5313 513.0781,179.9688 L513.0781,181.3906 C513.0781,181.8125 513.0469,182 512.9375,182.1563 C512.7656,182.375 512.5,182.5156 512.2344,182.5156 C512.0156,182.5156 511.7813,182.4063 511.6406,182.2656 C511.5,182.1406 511.4688,182.0156 511.4063,181.6094 C511.3125,181.2031 511.1406,180.9844 510.6563,180.7031 C510.1875,180.4531 509.5781,180.2969 509,180.2969 C507.2656,180.2969 506.0156,181.6094 506.0156,183.3906 L506.0156,184.4844 C506.0156,186.1875 507.3125,187.2813 509.3594,187.2813 C510.125,187.2813 510.8125,187.1563 511.2344,186.8906 C511.4219,186.7969 511.4219,186.7969 511.875,186.3125 C512.0625,186.125 512.2656,186.0469 512.4844,186.0469 C512.9531,186.0469 513.3438,186.4375 513.3438,186.8906 C513.3438,187.2813 513.0156,187.7344 512.4375,188.1406 C511.6875,188.6875 510.5313,188.9844 509.3125,188.9844 C506.4219,188.9844 504.3125,187.0938 504.3125,184.5156 L504.3125,183.3906 C504.3125,180.6719 506.3125,178.5938 508.9375,178.5938 C509.8125,178.5938 510.4063,178.7344 511.3438,179.1719 Z "/><text fill="#000000" font-family="sans-serif" font-size="12" lengthAdjust="spacingAndGlyphs" textLength="27" x="523" y="187.6543">Adm</text><line style="stroke: #A80036; stroke-width: 1.5;" x1="495" x2="552" y1="199.5" y2="199.5"/><rect fill="none" height="6" style="stroke: #C82930; stroke-width: 1.0;" width="6" x="502" y="208.4023"/><text fill="#000000" font-family="sans-serif" font-size="11" lengthAdjust="spacingAndGlyphs" textLength="10" x="514" y="213.7104">id</text><rect fill="none" height="6" style="stroke: #C82930; stroke-width: 1.0;" width="6" x="502" y="221.207"/><text fill="#000000" font-family="sans-serif" font-size="11" lengthAdjust="spacingAndGlyphs" textLength="32" x="514" y="226.5151">name</text><line style="stroke: #A80036; stroke-width: 1.5;" x1="495" x2="552" y1="233.1094" y2="233.1094"/><!--class VulnerabilityCriteria--><rect fill="#FEFECE" filter="url(#f16srbv5y2owph)" height="48" id="VulnerabilityCriteria" style="stroke: #A80036; stroke-width: 1.5;" width="153" x="605" y="365.5"/><ellipse cx="620" cy="381.5" fill="#ADD1B2" rx="11" ry="11" style="stroke: #A80036; stroke-width: 1.0;"/><path d="M622.3438,377.1719 L622.5156,377.25 C622.7344,376.9375 622.9375,376.8438 623.2344,376.8438 C623.5313,376.8438 623.8125,376.9844 623.9688,377.25 C624.0625,377.4063 624.0781,377.5313 624.0781,377.9688 L624.0781,379.3906 C624.0781,379.8125 624.0469,380 623.9375,380.1563 C623.7656,380.375 623.5,380.5156 623.2344,380.5156 C623.0156,380.5156 622.7813,380.4063 622.6406,380.2656 C622.5,380.1406 622.4688,380.0156 622.4063,379.6094 C622.3125,379.2031 622.1406,378.9844 621.6563,378.7031 C621.1875,378.4531 620.5781,378.2969 620,378.2969 C618.2656,378.2969 617.0156,379.6094 617.0156,381.3906 L617.0156,382.4844 C617.0156,384.1875 618.3125,385.2813 620.3594,385.2813 C621.125,385.2813 621.8125,385.1563 622.2344,384.8906 C622.4219,384.7969 622.4219,384.7969 622.875,384.3125 C623.0625,384.125 623.2656,384.0469 623.4844,384.0469 C623.9531,384.0469 624.3438,384.4375 624.3438,384.8906 C624.3438,385.2813 624.0156,385.7344 623.4375,386.1406 C622.6875,386.6875 621.5313,386.9844 620.3125,386.9844 C617.4219,386.9844 615.3125,385.0938 615.3125,382.5156 L615.3125,381.3906 C615.3125,378.6719 617.3125,376.5938 619.9375,376.5938 C620.8125,376.5938 621.4063,376.7344 622.3438,377.1719 Z "/><text fill="#000000" font-family="sans-serif" font-size="12" lengthAdjust="spacingAndGlyphs" textLength="121" x="634" y="385.6543">VulnerabilityCriteria</text><line style="stroke: #A80036; stroke-width: 1.5;" x1="606" x2="757" y1="397.5" y2="397.5"/><line style="stroke: #A80036; stroke-width: 1.5;" x1="606" x2="757" y1="405.5" y2="405.5"/><!--class Project--><rect fill="#FEFECE" filter="url(#f16srbv5y2owph)" height="48" id="Project" style="stroke: #A80036; stroke-width: 1.5;" width="76" x="793.5" y="365.5"/><ellipse cx="808.5" cy="381.5" fill="#ADD1B2" rx="11" ry="11" style="stroke: #A80036; stroke-width: 1.0;"/><path d="M810.8438,377.1719 L811.0156,377.25 C811.2344,376.9375 811.4375,376.8438 811.7344,376.8438 C812.0313,376.8438 812.3125,376.9844 812.4688,377.25 C812.5625,377.4063 812.5781,377.5313 812.5781,377.9688 L812.5781,379.3906 C812.5781,379.8125 812.5469,380 812.4375,380.1563 C812.2656,380.375 812,380.5156 811.7344,380.5156 C811.5156,380.5156 811.2813,380.4063 811.1406,380.2656 C811,380.1406 810.9688,380.0156 810.9063,379.6094 C810.8125,379.2031 810.6406,378.9844 810.1563,378.7031 C809.6875,378.4531 809.0781,378.2969 808.5,378.2969 C806.7656,378.2969 805.5156,379.6094 805.5156,381.3906 L805.5156,382.4844 C805.5156,384.1875 806.8125,385.2813 808.8594,385.2813 C809.625,385.2813 810.3125,385.1563 810.7344,384.8906 C810.9219,384.7969 810.9219,384.7969 811.375,384.3125 C811.5625,384.125 811.7656,384.0469 811.9844,384.0469 C812.4531,384.0469 812.8438,384.4375 812.8438,384.8906 C812.8438,385.2813 812.5156,385.7344 811.9375,386.1406 C811.1875,386.6875 810.0313,386.9844 808.8125,386.9844 C805.9219,386.9844 803.8125,385.0938 803.8125,382.5156 L803.8125,381.3906 C803.8125,378.6719 805.8125,376.5938 808.4375,376.5938 C809.3125,376.5938 809.9063,376.7344 810.8438,377.1719 Z "/><text fill="#000000" font-family="sans-serif" font-size="12" lengthAdjust="spacingAndGlyphs" textLength="44" x="822.5" y="385.6543">Project</text><line style="stroke: #A80036; stroke-width: 1.5;" x1="794.5" x2="868.5" y1="397.5" y2="397.5"/><line style="stroke: #A80036; stroke-width: 1.5;" x1="794.5" x2="868.5" y1="405.5" y2="405.5"/><!--class Beneficiary--><rect fill="#FEFECE" filter="url(#f16srbv5y2owph)" height="48" id="Beneficiary" style="stroke: #A80036; stroke-width: 1.5;" width="100" x="342.5" y="365.5"/><ellipse cx="357.5" cy="381.5" fill="#ADD1B2" rx="11" ry="11" style="stroke: #A80036; stroke-width: 1.0;"/><path d="M359.8438,377.1719 L360.0156,377.25 C360.2344,376.9375 360.4375,376.8438 360.7344,376.8438 C361.0313,376.8438 361.3125,376.9844 361.4688,377.25 C361.5625,377.4063 361.5781,377.5313 361.5781,377.9688 L361.5781,379.3906 C361.5781,379.8125 361.5469,380 361.4375,380.1563 C361.2656,380.375 361,380.5156 360.7344,380.5156 C360.5156,380.5156 360.2813,380.4063 360.1406,380.2656 C360,380.1406 359.9688,380.0156 359.9063,379.6094 C359.8125,379.2031 359.6406,378.9844 359.1563,378.7031 C358.6875,378.4531 358.0781,378.2969 357.5,378.2969 C355.7656,378.2969 354.5156,379.6094 354.5156,381.3906 L354.5156,382.4844 C354.5156,384.1875 355.8125,385.2813 357.8594,385.2813 C358.625,385.2813 359.3125,385.1563 359.7344,384.8906 C359.9219,384.7969 359.9219,384.7969 360.375,384.3125 C360.5625,384.125 360.7656,384.0469 360.9844,384.0469 C361.4531,384.0469 361.8438,384.4375 361.8438,384.8906 C361.8438,385.2813 361.5156,385.7344 360.9375,386.1406 C360.1875,386.6875 359.0313,386.9844 357.8125,386.9844 C354.9219,386.9844 352.8125,385.0938 352.8125,382.5156 L352.8125,381.3906 C352.8125,378.6719 354.8125,376.5938 357.4375,376.5938 C358.3125,376.5938 358.9063,376.7344 359.8438,377.1719 Z "/><text fill="#000000" font-family="sans-serif" font-size="12" lengthAdjust="spacingAndGlyphs" textLength="68" x="371.5" y="385.6543">Beneficiary</text><line style="stroke: #A80036; stroke-width: 1.5;" x1="343.5" x2="441.5" y1="397.5" y2="397.5"/><line style="stroke: #A80036; stroke-width: 1.5;" x1="343.5" x2="441.5" y1="405.5" y2="405.5"/><!--class HouseholdFilters--><rect fill="#FEFECE" filter="url(#f16srbv5y2owph)" height="48" id="HouseholdFilters" style="stroke: #A80036; stroke-width: 1.5;" width="137" x="613" y="601.5"/><ellipse cx="628" cy="617.5" fill="#ADD1B2" rx="11" ry="11" style="stroke: #A80036; stroke-width: 1.0;"/><path d="M630.3438,613.1719 L630.5156,613.25 C630.7344,612.9375 630.9375,612.8438 631.2344,612.8438 C631.5313,612.8438 631.8125,612.9844 631.9688,613.25 C632.0625,613.4063 632.0781,613.5313 632.0781,613.9688 L632.0781,615.3906 C632.0781,615.8125 632.0469,616 631.9375,616.1563 C631.7656,616.375 631.5,616.5156 631.2344,616.5156 C631.0156,616.5156 630.7813,616.4063 630.6406,616.2656 C630.5,616.1406 630.4688,616.0156 630.4063,615.6094 C630.3125,615.2031 630.1406,614.9844 629.6563,614.7031 C629.1875,614.4531 628.5781,614.2969 628,614.2969 C626.2656,614.2969 625.0156,615.6094 625.0156,617.3906 L625.0156,618.4844 C625.0156,620.1875 626.3125,621.2813 628.3594,621.2813 C629.125,621.2813 629.8125,621.1563 630.2344,620.8906 C630.4219,620.7969 630.4219,620.7969 630.875,620.3125 C631.0625,620.125 631.2656,620.0469 631.4844,620.0469 C631.9531,620.0469 632.3438,620.4375 632.3438,620.8906 C632.3438,621.2813 632.0156,621.7344 631.4375,622.1406 C630.6875,622.6875 629.5313,622.9844 628.3125,622.9844 C625.4219,622.9844 623.3125,621.0938 623.3125,618.5156 L623.3125,617.3906 C623.3125,614.6719 625.3125,612.5938 627.9375,612.5938 C628.8125,612.5938 629.4063,612.7344 630.3438,613.1719 Z "/><text fill="#000000" font-family="sans-serif" font-size="12" lengthAdjust="spacingAndGlyphs" textLength="105" x="642" y="621.6543">HouseholdFilters</text><line style="stroke: #A80036; stroke-width: 1.5;" x1="614" x2="749" y1="633.5" y2="633.5"/><line style="stroke: #A80036; stroke-width: 1.5;" x1="614" x2="749" y1="641.5" y2="641.5"/><!--link CountrySpecificType to CountrySpecific--><path d="M220.5,95.191 C220.5,109.986 220.5,126.411 220.5,141.904 " fill="none" id="CountrySpecificType-CountrySpecific" style="stroke: #A80036; stroke-width: 1.0;"/><polygon fill="#A80036" points="220.5,82.134,216.5,88.134,220.5,94.134,224.5,88.134,220.5,82.134" style="stroke: #A80036; stroke-width: 1.0;"/><text fill="#000000" font-family="sans-serif" font-size="13" lengthAdjust="spacingAndGlyphs" textLength="8" x="211.8375" y="101.6367">1</text><text fill="#000000" font-family="sans-serif" font-size="13" lengthAdjust="spacingAndGlyphs" textLength="8" x="212.0375" y="130.8837">1</text><!--link CountrySpecific to CountrySpecificAnswer--><path d="M220.5,280.4 C220.5,305.269 220.5,331.83 220.5,352.4 " fill="none" id="CountrySpecific-CountrySpecificAnswer" style="stroke: #A80036; stroke-width: 1.0;"/><polygon fill="#A80036" points="220.5,267.2,216.5,273.2,220.5,279.2,224.5,273.2,220.5,267.2" style="stroke: #A80036; stroke-width: 1.0;"/><text fill="#000000" font-family="sans-serif" font-size="13" lengthAdjust="spacingAndGlyphs" textLength="8" x="212.0625" y="286.9617">1</text><text fill="#000000" font-family="sans-serif" font-size="13" lengthAdjust="spacingAndGlyphs" textLength="8" x="211.7875" y="341.5691">1</text><!--link Livelihood to Household--><path d="M96.3785,435.712 C102.8795,441.492 109.689,447.095 116.5,452 C195.521,508.916 295.786,558.704 364.741,589.971 " fill="none" id="Livelihood-Household" style="stroke: #A80036; stroke-width: 1.0;"/><polygon fill="#A80036" points="86.4612,426.557,88.1563,433.566,95.2782,434.6971,93.583,427.688,86.4612,426.557" style="stroke: #A80036; stroke-width: 1.0;"/><text fill="#000000" font-family="sans-serif" font-size="13" lengthAdjust="spacingAndGlyphs" textLength="8" x="83.4235" y="446.047">1</text><text fill="#000000" font-family="sans-serif" font-size="13" lengthAdjust="spacingAndGlyphs" textLength="8" x="348.9273" y="583.065">1</text><!--link Location to Household--><path d="M498.653,465.041 C493.701,479.898 488.396,495.811 483.125,511.624 " fill="none" id="Location-Household" style="stroke: #A80036; stroke-width: 1.0;"/><polygon fill="#A80036" points="502.904,452.287,497.2117,456.714,499.1089,463.6711,504.8011,459.2441,502.904,452.287" style="stroke: #A80036; stroke-width: 1.0;"/><text fill="#000000" font-family="sans-serif" font-size="13" lengthAdjust="spacingAndGlyphs" textLength="8" x="492.2138" y="472.0582">1</text><text fill="#000000" font-family="sans-serif" font-size="13" lengthAdjust="spacingAndGlyphs" textLength="8" x="477.2791" y="500.911">1</text><!--link VulnerabilityCriteria to Household--><path d="M648.393,423.327 C616.815,454.636 568.004,503.034 526.171,544.513 " fill="none" id="VulnerabilityCriteria-Household" style="stroke: #A80036; stroke-width: 1.0;"/><polygon fill="#A80036" points="658.009,413.792,650.932,415.176,649.4875,422.2409,656.5646,420.857,658.009,413.792" style="stroke: #A80036; stroke-width: 1.0;"/><text fill="#000000" font-family="sans-serif" font-size="13" lengthAdjust="spacingAndGlyphs" textLength="20" x="629.8456" y="433.6244">0-*</text><text fill="#000000" font-family="sans-serif" font-size="13" lengthAdjust="spacingAndGlyphs" textLength="8" x="533.9766" y="533.4164">1</text><!--link Project to Household--><path d="M806.554,423.999 C797.674,434.119 786.998,444.517 775.5,452 C704.823,497.999 670.195,472.863 595.5,512 C571.712,524.464 547.678,540.578 526.027,556.695 " fill="none" id="Project-Household" style="stroke: #A80036; stroke-width: 1.0;"/><polygon fill="#FFFFFF" points="815.119,413.688,808.2082,415.7473,807.4511,422.9185,814.3619,420.8592,815.119,413.688" style="stroke: #A80036; stroke-width: 1.0;"/><text fill="#000000" font-family="sans-serif" font-size="13" lengthAdjust="spacingAndGlyphs" textLength="20" x="788.6886" y="433.495">1-*</text><text fill="#000000" font-family="sans-serif" font-size="13" lengthAdjust="spacingAndGlyphs" textLength="20" x="534.0896" y="563.296">0-*</text><!--link Beneficiary to Household--><path d="M400.7,426.705 C405.931,449.799 413.021,481.102 420.016,511.987 " fill="none" id="Beneficiary-Household" style="stroke: #A80036; stroke-width: 1.0;"/><polygon fill="#A80036" points="397.776,413.792,395.2001,420.5273,400.4266,425.4956,403.0025,418.7603,397.776,413.792" style="stroke: #A80036; stroke-width: 1.0;"/><text fill="#000000" font-family="sans-serif" font-size="13" lengthAdjust="spacingAndGlyphs" textLength="20" x="376.6245" y="433.6244">1-*</text><text fill="#000000" font-family="sans-serif" font-size="13" lengthAdjust="spacingAndGlyphs" textLength="20" x="397.6319" y="500.9189">0-*</text><!--link CountrySpecificAnswer to Household--><path d="M264.429,436.186 C292.878,465.773 330.786,505.197 364.563,540.325 " fill="none" id="CountrySpecificAnswer-Household" style="stroke: #A80036; stroke-width: 1.0;"/><polygon fill="#A80036" points="255.163,426.55,256.4385,433.6474,263.4805,435.1998,262.205,428.1024,255.163,426.55" style="stroke: #A80036; stroke-width: 1.0;"/><text fill="#000000" font-family="sans-serif" font-size="13" lengthAdjust="spacingAndGlyphs" textLength="20" x="239.2478" y="446.0388">0-*</text><text fill="#000000" font-family="sans-serif" font-size="13" lengthAdjust="spacingAndGlyphs" textLength="8" x="348.9983" y="529.1321">1</text><!--link Project to HouseholdFilters--><path d="M809.437,424.918 C778.456,473.248 722.888,559.934 696.371,601.302 " fill="none" id="Project-HouseholdFilters" style="stroke: #A80036; stroke-width: 1.0;"/><polygon fill="#A80036" points="816.569,413.792,809.9635,416.6845,810.0929,423.8945,816.6985,421.0019,816.569,413.792" style="stroke: #A80036; stroke-width: 1.0;"/><text fill="#000000" font-family="sans-serif" font-size="13" lengthAdjust="spacingAndGlyphs" textLength="20" x="815.3671" y="433.6244">0-*</text><text fill="#000000" font-family="sans-serif" font-size="13" lengthAdjust="spacingAndGlyphs" textLength="8" x="691.1567" y="590.2633">1</text><!--link VulnerabilityCriteria to HouseholdFilters--><path d="M681.5,427.089 C681.5,475.804 681.5,560.546 681.5,601.302 " fill="none" id="VulnerabilityCriteria-HouseholdFilters" style="stroke: #A80036; stroke-width: 1.0;"/><polygon fill="#A80036" points="681.5,413.792,677.5,419.792,681.5,425.792,685.5,419.792,681.5,413.792" style="stroke: #A80036; stroke-width: 1.0;"/><text fill="#000000" font-family="sans-serif" font-size="13" lengthAdjust="spacingAndGlyphs" textLength="20" x="659.0625" y="433.6244">0-*</text><text fill="#000000" font-family="sans-serif" font-size="13" lengthAdjust="spacingAndGlyphs" textLength="8" x="672.475" y="590.2633">1</text><!--link Location to HouseholdFilters--><path d="M572.56,463.158 C604.626,510.648 644.416,569.578 665.929,601.439 " fill="none" id="Location-HouseholdFilters" style="stroke: #A80036; stroke-width: 1.0;"/><polygon fill="#A80036" points="565.219,452.287,565.2612,459.498,571.9337,462.2325,571.8915,455.0215,565.219,452.287" style="stroke: #A80036; stroke-width: 1.0;"/><text fill="#000000" font-family="sans-serif" font-size="13" lengthAdjust="spacingAndGlyphs" textLength="20" x="548.6883" y="472.0582">0-*</text><text fill="#000000" font-family="sans-serif" font-size="13" lengthAdjust="spacingAndGlyphs" textLength="8" x="652.9139" y="590.4354">1</text><!--link Adm to Location--><path d="M523.5,254.843 C523.5,277.002 523.5,303.383 523.5,326.83 " fill="none" id="Adm-Location" style="stroke: #A80036; stroke-width: 1.0;"/><polygon fill="#A80036" points="523.5,241.655,519.5,247.655,523.5,253.655,527.5,247.655,523.5,241.655" style="stroke: #A80036; stroke-width: 1.0;"/><text fill="#000000" font-family="sans-serif" font-size="13" lengthAdjust="spacingAndGlyphs" textLength="21" x="500.7609" y="261.1612">0-4</text><text fill="#000000" font-family="sans-serif" font-size="13" lengthAdjust="spacingAndGlyphs" textLength="8" x="515.0375" y="315.8011">1</text><!--
@startuml
class Household {
    - id
    - familyName
    - firstName
    - location
    - dependents
    - vulnerabilities
    - projects
    - beneficiaries
    - countrySpecificAnswers
    - addressNumber
    - addressStreet
    - addressPostcode
    - livelihood
    - notes
}

class Livelihood {
    - id
    - name
}

class CountrySpecificAnswer {
    - countrySpecific
    - answer
}

class CountrySpecific {
    - id
    - field
    - type
    - answer
    - countryIso3
    - name
}

class CountrySpecificType {
    - id
    - name
}

class Location {
    - id
    - adm1
    - adm2
    - adm3
    - adm4
    - countryIso3
}

class Adm {
    - id
    - name
}
 
 CountrySpecificType "1" *- - "1" CountrySpecific
 CountrySpecific "1" *- - "1" CountrySpecificAnswer
 
 Livelihood "1" *- - "1" Household
 Location "1" *- - "1" Household
 VulnerabilityCriteria "0-*" *- - "1" Household
 Project "1-*" o- - "0-*" Household
 Beneficiary "1-*" *- - "0-*" Household
 CountrySpecificAnswer "0-*" *- - "1" Household
 
 Project "0-*" *- - "1" HouseholdFilters
 VulnerabilityCriteria "0-*" *- - "1" HouseholdFilters
 Location "0-*" *- - "1" HouseholdFilters
 
 Adm "0-4" *- - "1" Location
@enduml

PlantUML version 1.2019.05(Sat Apr 20 16:45:36 UTC 2019)
(GPL source distribution)
Java Runtime: Java(TM) SE Runtime Environment
JVM: Java HotSpot(TM) 64-Bit Server VM
Java Version: 1.7.0_25-b15
Operating System: Linux
Default Encoding: UTF-8
Language: en
Country: US
--></g></svg>