<?xml version="1.0" encoding="UTF-8" standalone="no"?><svg xmlns="http://www.w3.org/2000/svg" xmlns:xlink="http://www.w3.org/1999/xlink" contentScriptType="application/ecmascript" contentStyleType="text/css" height="800px" preserveAspectRatio="none" style="width:1068px;height:800px;" version="1.1" viewBox="0 0 1068 800" width="1068px" zoomAndPan="magnify"><defs><filter height="300%" id="fsfhtzcz75v5q" width="300%" x="-1" y="-1"><feGaussianBlur result="blurOut" stdDeviation="2.0"/><feColorMatrix in="blurOut" result="blurOut2" type="matrix" values="0 0 0 0 0 0 0 0 0 0 0 0 0 0 0 0 0 0 .4 0"/><feOffset dx="4.0" dy="4.0" in="blurOut2" result="blurOut3"/><feBlend in="SourceGraphic" in2="blurOut3" mode="normal"/></filter></defs><g><!--class Household--><rect fill="#FEFECE" filter="url(#fsfhtzcz75v5q)" height="265.6797" id="Household" style="stroke: #A80036; stroke-width: 1.5;" width="180" x="385.5" y="524"/><ellipse cx="437.75" cy="540" fill="#ADD1B2" rx="11" ry="11" style="stroke: #A80036; stroke-width: 1.0;"/><path d="M440.0938,535.6719 L440.2656,535.75 C440.4844,535.4375 440.6875,535.3438 440.9844,535.3438 C441.2813,535.3438 441.5625,535.4844 441.7188,535.75 C441.8125,535.9063 441.8281,536.0313 441.8281,536.4688 L441.8281,537.8906 C441.8281,538.3125 441.7969,538.5 441.6875,538.6563 C441.5156,538.875 441.25,539.0156 440.9844,539.0156 C440.7656,539.0156 440.5313,538.9063 440.3906,538.7656 C440.25,538.6406 440.2188,538.5156 440.1563,538.1094 C440.0625,537.7031 439.8906,537.4844 439.4063,537.2031 C438.9375,536.9531 438.3281,536.7969 437.75,536.7969 C436.0156,536.7969 434.7656,538.1094 434.7656,539.8906 L434.7656,540.9844 C434.7656,542.6875 436.0625,543.7813 438.1094,543.7813 C438.875,543.7813 439.5625,543.6563 439.9844,543.3906 C440.1719,543.2969 440.1719,543.2969 440.625,542.8125 C440.8125,542.625 441.0156,542.5469 441.2344,542.5469 C441.7031,542.5469 442.0938,542.9375 442.0938,543.3906 C442.0938,543.7813 441.7656,544.2344 441.1875,544.6406 C440.4375,545.1875 439.2813,545.4844 438.0625,545.4844 C435.1719,545.4844 433.0625,543.5938 433.0625,541.0156 L433.0625,539.8906 C433.0625,537.1719 435.0625,535.0938 437.6875,535.0938 C438.5625,535.0938 439.1563,535.2344 440.0938,535.6719 Z "/><text fill="#000000" font-family="sans-serif" font-size="12" lengthAdjust="spacingAndGlyphs" textLength="67" x="458.25" y="544.1543">Household</text><line style="stroke: #A80036; stroke-width: 1.5;" x1="386.5" x2="564.5" y1="556" y2="556"/><rect fill="none" height="6" style="stroke: #C82930; stroke-width: 1.0;" width="6" x="393.5" y="564.9023"/><text fill="#000000" font-family="sans-serif" font-size="11" lengthAdjust="spacingAndGlyphs" textLength="10" x="405.5" y="570.2104">id</text><rect fill="none" height="6" style="stroke: #C82930; stroke-width: 1.0;" width="6" x="393.5" y="577.707"/><text fill="#000000" font-family="sans-serif" font-size="11" lengthAdjust="spacingAndGlyphs" textLength="95" x="405.5" y="583.0151">localFamilyName</text><rect fill="none" height="6" style="stroke: #C82930; stroke-width: 1.0;" width="6" x="393.5" y="590.5117"/><text fill="#000000" font-family="sans-serif" font-size="11" lengthAdjust="spacingAndGlyphs" textLength="84" x="405.5" y="595.8198">localFirstName</text><rect fill="none" height="6" style="stroke: #C82930; stroke-width: 1.0;" width="6" x="393.5" y="603.3164"/><text fill="#000000" font-family="sans-serif" font-size="11" lengthAdjust="spacingAndGlyphs" textLength="83" x="405.5" y="608.6245">enFamilyName</text><rect fill="none" height="6" style="stroke: #C82930; stroke-width: 1.0;" width="6" x="393.5" y="616.1211"/><text fill="#000000" font-family="sans-serif" font-size="11" lengthAdjust="spacingAndGlyphs" textLength="72" x="405.5" y="621.4292">enFirstName</text><rect fill="none" height="6" style="stroke: #C82930; stroke-width: 1.0;" width="6" x="393.5" y="628.9258"/><text fill="#000000" font-family="sans-serif" font-size="11" lengthAdjust="spacingAndGlyphs" textLength="67" x="405.5" y="634.2339">dependents</text><rect fill="none" height="6" style="stroke: #C82930; stroke-width: 1.0;" width="6" x="393.5" y="641.7305"/><text fill="#000000" font-family="sans-serif" font-size="11" lengthAdjust="spacingAndGlyphs" textLength="79" x="405.5" y="647.0386">vulnerabilities</text><rect fill="none" height="6" style="stroke: #C82930; stroke-width: 1.0;" width="6" x="393.5" y="654.5352"/><text fill="#000000" font-family="sans-serif" font-size="11" lengthAdjust="spacingAndGlyphs" textLength="46" x="405.5" y="659.8433">projects</text><rect fill="none" height="6" style="stroke: #C82930; stroke-width: 1.0;" width="6" x="393.5" y="667.3398"/><text fill="#000000" font-family="sans-serif" font-size="11" lengthAdjust="spacingAndGlyphs" textLength="73" x="405.5" y="672.6479">beneficiaries</text><rect fill="none" height="6" style="stroke: #C82930; stroke-width: 1.0;" width="6" x="393.5" y="680.1445"/><text fill="#000000" font-family="sans-serif" font-size="11" lengthAdjust="spacingAndGlyphs" textLength="135" x="405.5" y="685.4526">countrySpecificAnswers</text><rect fill="none" height="6" style="stroke: #C82930; stroke-width: 1.0;" width="6" x="393.5" y="692.9492"/><text fill="#000000" font-family="sans-serif" font-size="11" lengthAdjust="spacingAndGlyphs" textLength="53" x="405.5" y="698.2573">livelihood</text><rect fill="none" height="6" style="stroke: #C82930; stroke-width: 1.0;" width="6" x="393.5" y="705.7539"/><text fill="#000000" font-family="sans-serif" font-size="11" lengthAdjust="spacingAndGlyphs" textLength="32" x="405.5" y="711.062">notes</text><rect fill="none" height="6" style="stroke: #C82930; stroke-width: 1.0;" width="6" x="393.5" y="718.5586"/><text fill="#000000" font-family="sans-serif" font-size="11" lengthAdjust="spacingAndGlyphs" textLength="70" x="405.5" y="723.8667">incomeLevel</text><rect fill="none" height="6" style="stroke: #C82930; stroke-width: 1.0;" width="6" x="393.5" y="731.3633"/><text fill="#000000" font-family="sans-serif" font-size="11" lengthAdjust="spacingAndGlyphs" textLength="133" x="405.5" y="736.6714">foodConsumptionScore</text><rect fill="none" height="6" style="stroke: #C82930; stroke-width: 1.0;" width="6" x="393.5" y="744.168"/><text fill="#000000" font-family="sans-serif" font-size="11" lengthAdjust="spacingAndGlyphs" textLength="126" x="405.5" y="749.4761">copingStrategiesIndex</text><rect fill="none" height="6" style="stroke: #C82930; stroke-width: 1.0;" width="6" x="393.5" y="756.9727"/><text fill="#000000" font-family="sans-serif" font-size="11" lengthAdjust="spacingAndGlyphs" textLength="148" x="405.5" y="762.2808">currentHouseholdLocation</text><rect fill="none" height="6" style="stroke: #C82930; stroke-width: 1.0;" width="6" x="393.5" y="769.7773"/><text fill="#000000" font-family="sans-serif" font-size="11" lengthAdjust="spacingAndGlyphs" textLength="154" x="405.5" y="775.0854">residentHouseholdLocation</text><line style="stroke: #A80036; stroke-width: 1.5;" x1="386.5" x2="564.5" y1="781.6797" y2="781.6797"/><!--class Livelihood--><rect fill="#FEFECE" filter="url(#fsfhtzcz75v5q)" height="73.6094" id="Livelihood" style="stroke: #A80036; stroke-width: 1.5;" width="93" x="350" y="364.5"/><ellipse cx="365" cy="380.5" fill="#ADD1B2" rx="11" ry="11" style="stroke: #A80036; stroke-width: 1.0;"/><path d="M367.3438,376.1719 L367.5156,376.25 C367.7344,375.9375 367.9375,375.8438 368.2344,375.8438 C368.5313,375.8438 368.8125,375.9844 368.9688,376.25 C369.0625,376.4063 369.0781,376.5313 369.0781,376.9688 L369.0781,378.3906 C369.0781,378.8125 369.0469,379 368.9375,379.1563 C368.7656,379.375 368.5,379.5156 368.2344,379.5156 C368.0156,379.5156 367.7813,379.4063 367.6406,379.2656 C367.5,379.1406 367.4688,379.0156 367.4063,378.6094 C367.3125,378.2031 367.1406,377.9844 366.6563,377.7031 C366.1875,377.4531 365.5781,377.2969 365,377.2969 C363.2656,377.2969 362.0156,378.6094 362.0156,380.3906 L362.0156,381.4844 C362.0156,383.1875 363.3125,384.2813 365.3594,384.2813 C366.125,384.2813 366.8125,384.1563 367.2344,383.8906 C367.4219,383.7969 367.4219,383.7969 367.875,383.3125 C368.0625,383.125 368.2656,383.0469 368.4844,383.0469 C368.9531,383.0469 369.3438,383.4375 369.3438,383.8906 C369.3438,384.2813 369.0156,384.7344 368.4375,385.1406 C367.6875,385.6875 366.5313,385.9844 365.3125,385.9844 C362.4219,385.9844 360.3125,384.0938 360.3125,381.5156 L360.3125,380.3906 C360.3125,377.6719 362.3125,375.5938 364.9375,375.5938 C365.8125,375.5938 366.4063,375.7344 367.3438,376.1719 Z "/><text fill="#000000" font-family="sans-serif" font-size="12" lengthAdjust="spacingAndGlyphs" textLength="61" x="379" y="384.6543">Livelihood</text><line style="stroke: #A80036; stroke-width: 1.5;" x1="351" x2="442" y1="396.5" y2="396.5"/><rect fill="none" height="6" style="stroke: #C82930; stroke-width: 1.0;" width="6" x="358" y="405.4023"/><text fill="#000000" font-family="sans-serif" font-size="11" lengthAdjust="spacingAndGlyphs" textLength="10" x="370" y="410.7104">id</text><rect fill="none" height="6" style="stroke: #C82930; stroke-width: 1.0;" width="6" x="358" y="418.207"/><text fill="#000000" font-family="sans-serif" font-size="11" lengthAdjust="spacingAndGlyphs" textLength="32" x="370" y="423.5151">name</text><line style="stroke: #A80036; stroke-width: 1.5;" x1="351" x2="442" y1="430.1094" y2="430.1094"/><!--class CountrySpecificAnswer--><rect fill="#FEFECE" filter="url(#fsfhtzcz75v5q)" height="73.6094" id="CountrySpecificAnswer" style="stroke: #A80036; stroke-width: 1.5;" width="173" x="6" y="364.5"/><ellipse cx="21" cy="380.5" fill="#ADD1B2" rx="11" ry="11" style="stroke: #A80036; stroke-width: 1.0;"/><path d="M23.3438,376.1719 L23.5156,376.25 C23.7344,375.9375 23.9375,375.8438 24.2344,375.8438 C24.5313,375.8438 24.8125,375.9844 24.9688,376.25 C25.0625,376.4063 25.0781,376.5313 25.0781,376.9688 L25.0781,378.3906 C25.0781,378.8125 25.0469,379 24.9375,379.1563 C24.7656,379.375 24.5,379.5156 24.2344,379.5156 C24.0156,379.5156 23.7813,379.4063 23.6406,379.2656 C23.5,379.1406 23.4688,379.0156 23.4063,378.6094 C23.3125,378.2031 23.1406,377.9844 22.6563,377.7031 C22.1875,377.4531 21.5781,377.2969 21,377.2969 C19.2656,377.2969 18.0156,378.6094 18.0156,380.3906 L18.0156,381.4844 C18.0156,383.1875 19.3125,384.2813 21.3594,384.2813 C22.125,384.2813 22.8125,384.1563 23.2344,383.8906 C23.4219,383.7969 23.4219,383.7969 23.875,383.3125 C24.0625,383.125 24.2656,383.0469 24.4844,383.0469 C24.9531,383.0469 25.3438,383.4375 25.3438,383.8906 C25.3438,384.2813 25.0156,384.7344 24.4375,385.1406 C23.6875,385.6875 22.5313,385.9844 21.3125,385.9844 C18.4219,385.9844 16.3125,384.0938 16.3125,381.5156 L16.3125,380.3906 C16.3125,377.6719 18.3125,375.5938 20.9375,375.5938 C21.8125,375.5938 22.4063,375.7344 23.3438,376.1719 Z "/><text fill="#000000" font-family="sans-serif" font-size="12" lengthAdjust="spacingAndGlyphs" textLength="141" x="35" y="384.6543">CountrySpecificAnswer</text><line style="stroke: #A80036; stroke-width: 1.5;" x1="7" x2="178" y1="396.5" y2="396.5"/><rect fill="none" height="6" style="stroke: #C82930; stroke-width: 1.0;" width="6" x="14" y="405.4023"/><text fill="#000000" font-family="sans-serif" font-size="11" lengthAdjust="spacingAndGlyphs" textLength="86" x="26" y="410.7104">countrySpecific</text><rect fill="none" height="6" style="stroke: #C82930; stroke-width: 1.0;" width="6" x="14" y="418.207"/><text fill="#000000" font-family="sans-serif" font-size="11" lengthAdjust="spacingAndGlyphs" textLength="42" x="26" y="423.5151">answer</text><line style="stroke: #A80036; stroke-width: 1.5;" x1="7" x2="178" y1="430.1094" y2="430.1094"/><!--class CountrySpecific--><rect fill="#FEFECE" filter="url(#fsfhtzcz75v5q)" height="124.8281" id="CountrySpecific" style="stroke: #A80036; stroke-width: 1.5;" width="128" x="28.5" y="154"/><ellipse cx="43.5" cy="170" fill="#ADD1B2" rx="11" ry="11" style="stroke: #A80036; stroke-width: 1.0;"/><path d="M45.8438,165.6719 L46.0156,165.75 C46.2344,165.4375 46.4375,165.3438 46.7344,165.3438 C47.0313,165.3438 47.3125,165.4844 47.4688,165.75 C47.5625,165.9063 47.5781,166.0313 47.5781,166.4688 L47.5781,167.8906 C47.5781,168.3125 47.5469,168.5 47.4375,168.6563 C47.2656,168.875 47,169.0156 46.7344,169.0156 C46.5156,169.0156 46.2813,168.9063 46.1406,168.7656 C46,168.6406 45.9688,168.5156 45.9063,168.1094 C45.8125,167.7031 45.6406,167.4844 45.1563,167.2031 C44.6875,166.9531 44.0781,166.7969 43.5,166.7969 C41.7656,166.7969 40.5156,168.1094 40.5156,169.8906 L40.5156,170.9844 C40.5156,172.6875 41.8125,173.7813 43.8594,173.7813 C44.625,173.7813 45.3125,173.6563 45.7344,173.3906 C45.9219,173.2969 45.9219,173.2969 46.375,172.8125 C46.5625,172.625 46.7656,172.5469 46.9844,172.5469 C47.4531,172.5469 47.8438,172.9375 47.8438,173.3906 C47.8438,173.7813 47.5156,174.2344 46.9375,174.6406 C46.1875,175.1875 45.0313,175.4844 43.8125,175.4844 C40.9219,175.4844 38.8125,173.5938 38.8125,171.0156 L38.8125,169.8906 C38.8125,167.1719 40.8125,165.0938 43.4375,165.0938 C44.3125,165.0938 44.9063,165.2344 45.8438,165.6719 Z "/><text fill="#000000" font-family="sans-serif" font-size="12" lengthAdjust="spacingAndGlyphs" textLength="96" x="57.5" y="174.1543">CountrySpecific</text><line style="stroke: #A80036; stroke-width: 1.5;" x1="29.5" x2="155.5" y1="186" y2="186"/><rect fill="none" height="6" style="stroke: #C82930; stroke-width: 1.0;" width="6" x="36.5" y="194.9023"/><text fill="#000000" font-family="sans-serif" font-size="11" lengthAdjust="spacingAndGlyphs" textLength="10" x="48.5" y="200.2104">id</text><rect fill="none" height="6" style="stroke: #C82930; stroke-width: 1.0;" width="6" x="36.5" y="207.707"/><text fill="#000000" font-family="sans-serif" font-size="11" lengthAdjust="spacingAndGlyphs" textLength="24" x="48.5" y="213.0151">field</text><rect fill="none" height="6" style="stroke: #C82930; stroke-width: 1.0;" width="6" x="36.5" y="220.5117"/><text fill="#000000" font-family="sans-serif" font-size="11" lengthAdjust="spacingAndGlyphs" textLength="24" x="48.5" y="225.8198">type</text><rect fill="none" height="6" style="stroke: #C82930; stroke-width: 1.0;" width="6" x="36.5" y="233.3164"/><text fill="#000000" font-family="sans-serif" font-size="11" lengthAdjust="spacingAndGlyphs" textLength="42" x="48.5" y="238.6245">answer</text><rect fill="none" height="6" style="stroke: #C82930; stroke-width: 1.0;" width="6" x="36.5" y="246.1211"/><text fill="#000000" font-family="sans-serif" font-size="11" lengthAdjust="spacingAndGlyphs" textLength="66" x="48.5" y="251.4292">countryIso3</text><rect fill="none" height="6" style="stroke: #C82930; stroke-width: 1.0;" width="6" x="36.5" y="258.9258"/><text fill="#000000" font-family="sans-serif" font-size="11" lengthAdjust="spacingAndGlyphs" textLength="32" x="48.5" y="264.2339">name</text><line style="stroke: #A80036; stroke-width: 1.5;" x1="29.5" x2="155.5" y1="270.8281" y2="270.8281"/><!--class CountrySpecificType--><rect fill="#FEFECE" filter="url(#fsfhtzcz75v5q)" height="73.6094" id="CountrySpecificType" style="stroke: #A80036; stroke-width: 1.5;" width="157" x="14" y="14"/><ellipse cx="29" cy="30" fill="#ADD1B2" rx="11" ry="11" style="stroke: #A80036; stroke-width: 1.0;"/><path d="M31.3438,25.6719 L31.5156,25.75 C31.7344,25.4375 31.9375,25.3438 32.2344,25.3438 C32.5313,25.3438 32.8125,25.4844 32.9688,25.75 C33.0625,25.9063 33.0781,26.0313 33.0781,26.4688 L33.0781,27.8906 C33.0781,28.3125 33.0469,28.5 32.9375,28.6563 C32.7656,28.875 32.5,29.0156 32.2344,29.0156 C32.0156,29.0156 31.7813,28.9063 31.6406,28.7656 C31.5,28.6406 31.4688,28.5156 31.4063,28.1094 C31.3125,27.7031 31.1406,27.4844 30.6563,27.2031 C30.1875,26.9531 29.5781,26.7969 29,26.7969 C27.2656,26.7969 26.0156,28.1094 26.0156,29.8906 L26.0156,30.9844 C26.0156,32.6875 27.3125,33.7813 29.3594,33.7813 C30.125,33.7813 30.8125,33.6563 31.2344,33.3906 C31.4219,33.2969 31.4219,33.2969 31.875,32.8125 C32.0625,32.625 32.2656,32.5469 32.4844,32.5469 C32.9531,32.5469 33.3438,32.9375 33.3438,33.3906 C33.3438,33.7813 33.0156,34.2344 32.4375,34.6406 C31.6875,35.1875 30.5313,35.4844 29.3125,35.4844 C26.4219,35.4844 24.3125,33.5938 24.3125,31.0156 L24.3125,29.8906 C24.3125,27.1719 26.3125,25.0938 28.9375,25.0938 C29.8125,25.0938 30.4063,25.2344 31.3438,25.6719 Z "/><text fill="#000000" font-family="sans-serif" font-size="12" lengthAdjust="spacingAndGlyphs" textLength="125" x="43" y="34.1543">CountrySpecificType</text><line style="stroke: #A80036; stroke-width: 1.5;" x1="15" x2="170" y1="46" y2="46"/><rect fill="none" height="6" style="stroke: #C82930; stroke-width: 1.0;" width="6" x="22" y="54.9023"/><text fill="#000000" font-family="sans-serif" font-size="11" lengthAdjust="spacingAndGlyphs" textLength="10" x="34" y="60.2104">id</text><rect fill="none" height="6" style="stroke: #C82930; stroke-width: 1.0;" width="6" x="22" y="67.707"/><text fill="#000000" font-family="sans-serif" font-size="11" lengthAdjust="spacingAndGlyphs" textLength="32" x="34" y="73.0151">name</text><line style="stroke: #A80036; stroke-width: 1.5;" x1="15" x2="170" y1="79.6094" y2="79.6094"/><!--class HouseholdLocationGroup--><rect fill="#FEFECE" filter="url(#fsfhtzcz75v5q)" height="73.6094" id="HouseholdLocationGroup" style="stroke: #A80036; stroke-width: 1.5;" width="190" x="239.5" y="179.5"/><ellipse cx="254.5" cy="195.5" fill="#ADD1B2" rx="11" ry="11" style="stroke: #A80036; stroke-width: 1.0;"/><path d="M256.8438,191.1719 L257.0156,191.25 C257.2344,190.9375 257.4375,190.8438 257.7344,190.8438 C258.0313,190.8438 258.3125,190.9844 258.4688,191.25 C258.5625,191.4063 258.5781,191.5313 258.5781,191.9688 L258.5781,193.3906 C258.5781,193.8125 258.5469,194 258.4375,194.1563 C258.2656,194.375 258,194.5156 257.7344,194.5156 C257.5156,194.5156 257.2813,194.4063 257.1406,194.2656 C257,194.1406 256.9688,194.0156 256.9063,193.6094 C256.8125,193.2031 256.6406,192.9844 256.1563,192.7031 C255.6875,192.4531 255.0781,192.2969 254.5,192.2969 C252.7656,192.2969 251.5156,193.6094 251.5156,195.3906 L251.5156,196.4844 C251.5156,198.1875 252.8125,199.2813 254.8594,199.2813 C255.625,199.2813 256.3125,199.1563 256.7344,198.8906 C256.9219,198.7969 256.9219,198.7969 257.375,198.3125 C257.5625,198.125 257.7656,198.0469 257.9844,198.0469 C258.4531,198.0469 258.8438,198.4375 258.8438,198.8906 C258.8438,199.2813 258.5156,199.7344 257.9375,200.1406 C257.1875,200.6875 256.0313,200.9844 254.8125,200.9844 C251.9219,200.9844 249.8125,199.0938 249.8125,196.5156 L249.8125,195.3906 C249.8125,192.6719 251.8125,190.5938 254.4375,190.5938 C255.3125,190.5938 255.9063,190.7344 256.8438,191.1719 Z "/><text fill="#000000" font-family="sans-serif" font-size="12" lengthAdjust="spacingAndGlyphs" textLength="158" x="268.5" y="199.6543">HouseholdLocationGroup</text><line style="stroke: #A80036; stroke-width: 1.5;" x1="240.5" x2="428.5" y1="211.5" y2="211.5"/><rect fill="none" height="6" style="stroke: #C82930; stroke-width: 1.0;" width="6" x="247.5" y="220.4023"/><text fill="#000000" font-family="sans-serif" font-size="11" lengthAdjust="spacingAndGlyphs" textLength="10" x="259.5" y="225.7104">id</text><rect fill="none" height="6" style="stroke: #C82930; stroke-width: 1.0;" width="6" x="247.5" y="233.207"/><text fill="#000000" font-family="sans-serif" font-size="11" lengthAdjust="spacingAndGlyphs" textLength="32" x="259.5" y="238.5151">name</text><line style="stroke: #A80036; stroke-width: 1.5;" x1="240.5" x2="428.5" y1="245.1094" y2="245.1094"/><!--class HouseholdLocationType--><rect fill="#FEFECE" filter="url(#fsfhtzcz75v5q)" height="73.6094" id="HouseholdLocationType" style="stroke: #A80036; stroke-width: 1.5;" width="181" x="465" y="179.5"/><ellipse cx="480" cy="195.5" fill="#ADD1B2" rx="11" ry="11" style="stroke: #A80036; stroke-width: 1.0;"/><path d="M482.3438,191.1719 L482.5156,191.25 C482.7344,190.9375 482.9375,190.8438 483.2344,190.8438 C483.5313,190.8438 483.8125,190.9844 483.9688,191.25 C484.0625,191.4063 484.0781,191.5313 484.0781,191.9688 L484.0781,193.3906 C484.0781,193.8125 484.0469,194 483.9375,194.1563 C483.7656,194.375 483.5,194.5156 483.2344,194.5156 C483.0156,194.5156 482.7813,194.4063 482.6406,194.2656 C482.5,194.1406 482.4688,194.0156 482.4063,193.6094 C482.3125,193.2031 482.1406,192.9844 481.6563,192.7031 C481.1875,192.4531 480.5781,192.2969 480,192.2969 C478.2656,192.2969 477.0156,193.6094 477.0156,195.3906 L477.0156,196.4844 C477.0156,198.1875 478.3125,199.2813 480.3594,199.2813 C481.125,199.2813 481.8125,199.1563 482.2344,198.8906 C482.4219,198.7969 482.4219,198.7969 482.875,198.3125 C483.0625,198.125 483.2656,198.0469 483.4844,198.0469 C483.9531,198.0469 484.3438,198.4375 484.3438,198.8906 C484.3438,199.2813 484.0156,199.7344 483.4375,200.1406 C482.6875,200.6875 481.5313,200.9844 480.3125,200.9844 C477.4219,200.9844 475.3125,199.0938 475.3125,196.5156 L475.3125,195.3906 C475.3125,192.6719 477.3125,190.5938 479.9375,190.5938 C480.8125,190.5938 481.4063,190.7344 482.3438,191.1719 Z "/><text fill="#000000" font-family="sans-serif" font-size="12" lengthAdjust="spacingAndGlyphs" textLength="149" x="494" y="199.6543">HouseholdLocationType</text><line style="stroke: #A80036; stroke-width: 1.5;" x1="466" x2="645" y1="211.5" y2="211.5"/><rect fill="none" height="6" style="stroke: #C82930; stroke-width: 1.0;" width="6" x="473" y="220.4023"/><text fill="#000000" font-family="sans-serif" font-size="11" lengthAdjust="spacingAndGlyphs" textLength="10" x="485" y="225.7104">id</text><rect fill="none" height="6" style="stroke: #C82930; stroke-width: 1.0;" width="6" x="473" y="233.207"/><text fill="#000000" font-family="sans-serif" font-size="11" lengthAdjust="spacingAndGlyphs" textLength="32" x="485" y="238.5151">name</text><line style="stroke: #A80036; stroke-width: 1.5;" x1="466" x2="645" y1="245.1094" y2="245.1094"/><!--class HouseholdLocation--><rect fill="#FEFECE" filter="url(#fsfhtzcz75v5q)" height="112.0234" id="HouseholdLocation" style="stroke: #A80036; stroke-width: 1.5;" width="152" x="478.5" y="345.5"/><ellipse cx="493.5" cy="361.5" fill="#ADD1B2" rx="11" ry="11" style="stroke: #A80036; stroke-width: 1.0;"/><path d="M495.8438,357.1719 L496.0156,357.25 C496.2344,356.9375 496.4375,356.8438 496.7344,356.8438 C497.0313,356.8438 497.3125,356.9844 497.4688,357.25 C497.5625,357.4063 497.5781,357.5313 497.5781,357.9688 L497.5781,359.3906 C497.5781,359.8125 497.5469,360 497.4375,360.1563 C497.2656,360.375 497,360.5156 496.7344,360.5156 C496.5156,360.5156 496.2813,360.4063 496.1406,360.2656 C496,360.1406 495.9688,360.0156 495.9063,359.6094 C495.8125,359.2031 495.6406,358.9844 495.1563,358.7031 C494.6875,358.4531 494.0781,358.2969 493.5,358.2969 C491.7656,358.2969 490.5156,359.6094 490.5156,361.3906 L490.5156,362.4844 C490.5156,364.1875 491.8125,365.2813 493.8594,365.2813 C494.625,365.2813 495.3125,365.1563 495.7344,364.8906 C495.9219,364.7969 495.9219,364.7969 496.375,364.3125 C496.5625,364.125 496.7656,364.0469 496.9844,364.0469 C497.4531,364.0469 497.8438,364.4375 497.8438,364.8906 C497.8438,365.2813 497.5156,365.7344 496.9375,366.1406 C496.1875,366.6875 495.0313,366.9844 493.8125,366.9844 C490.9219,366.9844 488.8125,365.0938 488.8125,362.5156 L488.8125,361.3906 C488.8125,358.6719 490.8125,356.5938 493.4375,356.5938 C494.3125,356.5938 494.9063,356.7344 495.8438,357.1719 Z "/><text fill="#000000" font-family="sans-serif" font-size="12" lengthAdjust="spacingAndGlyphs" textLength="120" x="507.5" y="365.6543">HouseholdLocation</text><line style="stroke: #A80036; stroke-width: 1.5;" x1="479.5" x2="629.5" y1="377.5" y2="377.5"/><rect fill="none" height="6" style="stroke: #C82930; stroke-width: 1.0;" width="6" x="486.5" y="386.4023"/><text fill="#000000" font-family="sans-serif" font-size="11" lengthAdjust="spacingAndGlyphs" textLength="10" x="498.5" y="391.7104">id</text><rect fill="none" height="6" style="stroke: #C82930; stroke-width: 1.0;" width="6" x="486.5" y="399.207"/><text fill="#000000" font-family="sans-serif" font-size="11" lengthAdjust="spacingAndGlyphs" textLength="79" x="498.5" y="404.5151">locationGroup</text><rect fill="none" height="6" style="stroke: #C82930; stroke-width: 1.0;" width="6" x="486.5" y="412.0117"/><text fill="#000000" font-family="sans-serif" font-size="11" lengthAdjust="spacingAndGlyphs" textLength="24" x="498.5" y="417.3198">type</text><rect fill="none" height="6" style="stroke: #C82930; stroke-width: 1.0;" width="6" x="486.5" y="424.8164"/><text fill="#000000" font-family="sans-serif" font-size="11" lengthAdjust="spacingAndGlyphs" textLength="47" x="498.5" y="430.1245">address</text><rect fill="none" height="6" style="stroke: #C82930; stroke-width: 1.0;" width="6" x="486.5" y="437.6211"/><text fill="#000000" font-family="sans-serif" font-size="11" lengthAdjust="spacingAndGlyphs" textLength="78" x="498.5" y="442.9292">campAddress</text><line style="stroke: #A80036; stroke-width: 1.5;" x1="479.5" x2="629.5" y1="449.5234" y2="449.5234"/><!--class Address--><rect fill="#FEFECE" filter="url(#fsfhtzcz75v5q)" height="112.0234" id="Address" style="stroke: #A80036; stroke-width: 1.5;" width="83" x="761" y="160.5"/><ellipse cx="776" cy="176.5" fill="#ADD1B2" rx="11" ry="11" style="stroke: #A80036; stroke-width: 1.0;"/><path d="M778.3438,172.1719 L778.5156,172.25 C778.7344,171.9375 778.9375,171.8438 779.2344,171.8438 C779.5313,171.8438 779.8125,171.9844 779.9688,172.25 C780.0625,172.4063 780.0781,172.5313 780.0781,172.9688 L780.0781,174.3906 C780.0781,174.8125 780.0469,175 779.9375,175.1563 C779.7656,175.375 779.5,175.5156 779.2344,175.5156 C779.0156,175.5156 778.7813,175.4063 778.6406,175.2656 C778.5,175.1406 778.4688,175.0156 778.4063,174.6094 C778.3125,174.2031 778.1406,173.9844 777.6563,173.7031 C777.1875,173.4531 776.5781,173.2969 776,173.2969 C774.2656,173.2969 773.0156,174.6094 773.0156,176.3906 L773.0156,177.4844 C773.0156,179.1875 774.3125,180.2813 776.3594,180.2813 C777.125,180.2813 777.8125,180.1563 778.2344,179.8906 C778.4219,179.7969 778.4219,179.7969 778.875,179.3125 C779.0625,179.125 779.2656,179.0469 779.4844,179.0469 C779.9531,179.0469 780.3438,179.4375 780.3438,179.8906 C780.3438,180.2813 780.0156,180.7344 779.4375,181.1406 C778.6875,181.6875 777.5313,181.9844 776.3125,181.9844 C773.4219,181.9844 771.3125,180.0938 771.3125,177.5156 L771.3125,176.3906 C771.3125,173.6719 773.3125,171.5938 775.9375,171.5938 C776.8125,171.5938 777.4063,171.7344 778.3438,172.1719 Z "/><text fill="#000000" font-family="sans-serif" font-size="12" lengthAdjust="spacingAndGlyphs" textLength="51" x="790" y="180.6543">Address</text><line style="stroke: #A80036; stroke-width: 1.5;" x1="762" x2="843" y1="192.5" y2="192.5"/><rect fill="none" height="6" style="stroke: #C82930; stroke-width: 1.0;" width="6" x="769" y="201.4023"/><text fill="#000000" font-family="sans-serif" font-size="11" lengthAdjust="spacingAndGlyphs" textLength="10" x="781" y="206.7104">id</text><rect fill="none" height="6" style="stroke: #C82930; stroke-width: 1.0;" width="6" x="769" y="214.207"/><text fill="#000000" font-family="sans-serif" font-size="11" lengthAdjust="spacingAndGlyphs" textLength="44" x="781" y="219.5151">number</text><rect fill="none" height="6" style="stroke: #C82930; stroke-width: 1.0;" width="6" x="769" y="227.0117"/><text fill="#000000" font-family="sans-serif" font-size="11" lengthAdjust="spacingAndGlyphs" textLength="34" x="781" y="232.3198">street</text><rect fill="none" height="6" style="stroke: #C82930; stroke-width: 1.0;" width="6" x="769" y="239.8164"/><text fill="#000000" font-family="sans-serif" font-size="11" lengthAdjust="spacingAndGlyphs" textLength="52" x="781" y="245.1245">postcode</text><rect fill="none" height="6" style="stroke: #C82930; stroke-width: 1.0;" width="6" x="769" y="252.6211"/><text fill="#000000" font-family="sans-serif" font-size="11" lengthAdjust="spacingAndGlyphs" textLength="44" x="781" y="257.9292">location</text><line style="stroke: #A80036; stroke-width: 1.5;" x1="762" x2="843" y1="264.5234" y2="264.5234"/><!--class CampAddress--><rect fill="#FEFECE" filter="url(#fsfhtzcz75v5q)" height="86.4141" id="CampAddress" style="stroke: #A80036; stroke-width: 1.5;" width="118" x="797.5" y="8"/><ellipse cx="812.5" cy="24" fill="#ADD1B2" rx="11" ry="11" style="stroke: #A80036; stroke-width: 1.0;"/><path d="M814.8438,19.6719 L815.0156,19.75 C815.2344,19.4375 815.4375,19.3438 815.7344,19.3438 C816.0313,19.3438 816.3125,19.4844 816.4688,19.75 C816.5625,19.9063 816.5781,20.0313 816.5781,20.4688 L816.5781,21.8906 C816.5781,22.3125 816.5469,22.5 816.4375,22.6563 C816.2656,22.875 816,23.0156 815.7344,23.0156 C815.5156,23.0156 815.2813,22.9063 815.1406,22.7656 C815,22.6406 814.9688,22.5156 814.9063,22.1094 C814.8125,21.7031 814.6406,21.4844 814.1563,21.2031 C813.6875,20.9531 813.0781,20.7969 812.5,20.7969 C810.7656,20.7969 809.5156,22.1094 809.5156,23.8906 L809.5156,24.9844 C809.5156,26.6875 810.8125,27.7813 812.8594,27.7813 C813.625,27.7813 814.3125,27.6563 814.7344,27.3906 C814.9219,27.2969 814.9219,27.2969 815.375,26.8125 C815.5625,26.625 815.7656,26.5469 815.9844,26.5469 C816.4531,26.5469 816.8438,26.9375 816.8438,27.3906 C816.8438,27.7813 816.5156,28.2344 815.9375,28.6406 C815.1875,29.1875 814.0313,29.4844 812.8125,29.4844 C809.9219,29.4844 807.8125,27.5938 807.8125,25.0156 L807.8125,23.8906 C807.8125,21.1719 809.8125,19.0938 812.4375,19.0938 C813.3125,19.0938 813.9063,19.2344 814.8438,19.6719 Z "/><text fill="#000000" font-family="sans-serif" font-size="12" lengthAdjust="spacingAndGlyphs" textLength="86" x="826.5" y="28.1543">CampAddress</text><line style="stroke: #A80036; stroke-width: 1.5;" x1="798.5" x2="914.5" y1="40" y2="40"/><rect fill="none" height="6" style="stroke: #C82930; stroke-width: 1.0;" width="6" x="805.5" y="48.9023"/><text fill="#000000" font-family="sans-serif" font-size="11" lengthAdjust="spacingAndGlyphs" textLength="10" x="817.5" y="54.2104">id</text><rect fill="none" height="6" style="stroke: #C82930; stroke-width: 1.0;" width="6" x="805.5" y="61.707"/><text fill="#000000" font-family="sans-serif" font-size="11" lengthAdjust="spacingAndGlyphs" textLength="67" x="817.5" y="67.0151">tentNumber</text><rect fill="none" height="6" style="stroke: #C82930; stroke-width: 1.0;" width="6" x="805.5" y="74.5117"/><text fill="#000000" font-family="sans-serif" font-size="11" lengthAdjust="spacingAndGlyphs" textLength="31" x="817.5" y="79.8198">camp</text><line style="stroke: #A80036; stroke-width: 1.5;" x1="798.5" x2="914.5" y1="86.4141" y2="86.4141"/><!--class Camp--><rect fill="#FEFECE" filter="url(#fsfhtzcz75v5q)" height="86.4141" id="Camp" style="stroke: #A80036; stroke-width: 1.5;" width="70" x="976.5" y="173.5"/><ellipse cx="992.85" cy="189.5" fill="#ADD1B2" rx="11" ry="11" style="stroke: #A80036; stroke-width: 1.0;"/><path d="M995.1938,185.1719 L995.3656,185.25 C995.5844,184.9375 995.7875,184.8438 996.0844,184.8438 C996.3813,184.8438 996.6625,184.9844 996.8188,185.25 C996.9125,185.4063 996.9281,185.5313 996.9281,185.9688 L996.9281,187.3906 C996.9281,187.8125 996.8969,188 996.7875,188.1563 C996.6156,188.375 996.35,188.5156 996.0844,188.5156 C995.8656,188.5156 995.6313,188.4063 995.4906,188.2656 C995.35,188.1406 995.3188,188.0156 995.2563,187.6094 C995.1625,187.2031 994.9906,186.9844 994.5063,186.7031 C994.0375,186.4531 993.4281,186.2969 992.85,186.2969 C991.1156,186.2969 989.8656,187.6094 989.8656,189.3906 L989.8656,190.4844 C989.8656,192.1875 991.1625,193.2813 993.2094,193.2813 C993.975,193.2813 994.6625,193.1563 995.0844,192.8906 C995.2719,192.7969 995.2719,192.7969 995.725,192.3125 C995.9125,192.125 996.1156,192.0469 996.3344,192.0469 C996.8031,192.0469 997.1938,192.4375 997.1938,192.8906 C997.1938,193.2813 996.8656,193.7344 996.2875,194.1406 C995.5375,194.6875 994.3813,194.9844 993.1625,194.9844 C990.2719,194.9844 988.1625,193.0938 988.1625,190.5156 L988.1625,189.3906 C988.1625,186.6719 990.1625,184.5938 992.7875,184.5938 C993.6625,184.5938 994.2563,184.7344 995.1938,185.1719 Z "/><text fill="#000000" font-family="sans-serif" font-size="12" lengthAdjust="spacingAndGlyphs" textLength="35" x="1007.15" y="193.6543">Camp</text><line style="stroke: #A80036; stroke-width: 1.5;" x1="977.5" x2="1045.5" y1="205.5" y2="205.5"/><rect fill="none" height="6" style="stroke: #C82930; stroke-width: 1.0;" width="6" x="984.5" y="214.4023"/><text fill="#000000" font-family="sans-serif" font-size="11" lengthAdjust="spacingAndGlyphs" textLength="10" x="996.5" y="219.7104">id</text><rect fill="none" height="6" style="stroke: #C82930; stroke-width: 1.0;" width="6" x="984.5" y="227.207"/><text fill="#000000" font-family="sans-serif" font-size="11" lengthAdjust="spacingAndGlyphs" textLength="32" x="996.5" y="232.5151">name</text><rect fill="none" height="6" style="stroke: #C82930; stroke-width: 1.0;" width="6" x="984.5" y="240.0117"/><text fill="#000000" font-family="sans-serif" font-size="11" lengthAdjust="spacingAndGlyphs" textLength="44" x="996.5" y="245.3198">location</text><line style="stroke: #A80036; stroke-width: 1.5;" x1="977.5" x2="1045.5" y1="251.9141" y2="251.9141"/><!--class Location--><rect fill="#FEFECE" filter="url(#fsfhtzcz75v5q)" height="124.8281" id="Location" style="stroke: #A80036; stroke-width: 1.5;" width="92" x="965.5" y="339"/><ellipse cx="983.65" cy="355" fill="#ADD1B2" rx="11" ry="11" style="stroke: #A80036; stroke-width: 1.0;"/><path d="M985.9938,350.6719 L986.1656,350.75 C986.3844,350.4375 986.5875,350.3438 986.8844,350.3438 C987.1813,350.3438 987.4625,350.4844 987.6188,350.75 C987.7125,350.9063 987.7281,351.0313 987.7281,351.4688 L987.7281,352.8906 C987.7281,353.3125 987.6969,353.5 987.5875,353.6563 C987.4156,353.875 987.15,354.0156 986.8844,354.0156 C986.6656,354.0156 986.4313,353.9063 986.2906,353.7656 C986.15,353.6406 986.1188,353.5156 986.0563,353.1094 C985.9625,352.7031 985.7906,352.4844 985.3063,352.2031 C984.8375,351.9531 984.2281,351.7969 983.65,351.7969 C981.9156,351.7969 980.6656,353.1094 980.6656,354.8906 L980.6656,355.9844 C980.6656,357.6875 981.9625,358.7813 984.0094,358.7813 C984.775,358.7813 985.4625,358.6563 985.8844,358.3906 C986.0719,358.2969 986.0719,358.2969 986.525,357.8125 C986.7125,357.625 986.9156,357.5469 987.1344,357.5469 C987.6031,357.5469 987.9938,357.9375 987.9938,358.3906 C987.9938,358.7813 987.6656,359.2344 987.0875,359.6406 C986.3375,360.1875 985.1813,360.4844 983.9625,360.4844 C981.0719,360.4844 978.9625,358.5938 978.9625,356.0156 L978.9625,354.8906 C978.9625,352.1719 980.9625,350.0938 983.5875,350.0938 C984.4625,350.0938 985.0563,350.2344 985.9938,350.6719 Z "/><text fill="#000000" font-family="sans-serif" font-size="12" lengthAdjust="spacingAndGlyphs" textLength="53" x="998.35" y="359.1543">Location</text><line style="stroke: #A80036; stroke-width: 1.5;" x1="966.5" x2="1056.5" y1="371" y2="371"/><rect fill="none" height="6" style="stroke: #C82930; stroke-width: 1.0;" width="6" x="973.5" y="379.9023"/><text fill="#000000" font-family="sans-serif" font-size="11" lengthAdjust="spacingAndGlyphs" textLength="10" x="985.5" y="385.2104">id</text><rect fill="none" height="6" style="stroke: #C82930; stroke-width: 1.0;" width="6" x="973.5" y="392.707"/><text fill="#000000" font-family="sans-serif" font-size="11" lengthAdjust="spacingAndGlyphs" textLength="32" x="985.5" y="398.0151">adm1</text><rect fill="none" height="6" style="stroke: #C82930; stroke-width: 1.0;" width="6" x="973.5" y="405.5117"/><text fill="#000000" font-family="sans-serif" font-size="11" lengthAdjust="spacingAndGlyphs" textLength="32" x="985.5" y="410.8198">adm2</text><rect fill="none" height="6" style="stroke: #C82930; stroke-width: 1.0;" width="6" x="973.5" y="418.3164"/><text fill="#000000" font-family="sans-serif" font-size="11" lengthAdjust="spacingAndGlyphs" textLength="32" x="985.5" y="423.6245">adm3</text><rect fill="none" height="6" style="stroke: #C82930; stroke-width: 1.0;" width="6" x="973.5" y="431.1211"/><text fill="#000000" font-family="sans-serif" font-size="11" lengthAdjust="spacingAndGlyphs" textLength="32" x="985.5" y="436.4292">adm4</text><rect fill="none" height="6" style="stroke: #C82930; stroke-width: 1.0;" width="6" x="973.5" y="443.9258"/><text fill="#000000" font-family="sans-serif" font-size="11" lengthAdjust="spacingAndGlyphs" textLength="66" x="985.5" y="449.2339">countryIso3</text><line style="stroke: #A80036; stroke-width: 1.5;" x1="966.5" x2="1056.5" y1="455.8281" y2="455.8281"/><!--class Adm--><rect fill="#FEFECE" filter="url(#fsfhtzcz75v5q)" height="73.6094" id="Adm" style="stroke: #A80036; stroke-width: 1.5;" width="59" x="882" y="179.5"/><ellipse cx="897" cy="195.5" fill="#ADD1B2" rx="11" ry="11" style="stroke: #A80036; stroke-width: 1.0;"/><path d="M899.3438,191.1719 L899.5156,191.25 C899.7344,190.9375 899.9375,190.8438 900.2344,190.8438 C900.5313,190.8438 900.8125,190.9844 900.9688,191.25 C901.0625,191.4063 901.0781,191.5313 901.0781,191.9688 L901.0781,193.3906 C901.0781,193.8125 901.0469,194 900.9375,194.1563 C900.7656,194.375 900.5,194.5156 900.2344,194.5156 C900.0156,194.5156 899.7813,194.4063 899.6406,194.2656 C899.5,194.1406 899.4688,194.0156 899.4063,193.6094 C899.3125,193.2031 899.1406,192.9844 898.6563,192.7031 C898.1875,192.4531 897.5781,192.2969 897,192.2969 C895.2656,192.2969 894.0156,193.6094 894.0156,195.3906 L894.0156,196.4844 C894.0156,198.1875 895.3125,199.2813 897.3594,199.2813 C898.125,199.2813 898.8125,199.1563 899.2344,198.8906 C899.4219,198.7969 899.4219,198.7969 899.875,198.3125 C900.0625,198.125 900.2656,198.0469 900.4844,198.0469 C900.9531,198.0469 901.3438,198.4375 901.3438,198.8906 C901.3438,199.2813 901.0156,199.7344 900.4375,200.1406 C899.6875,200.6875 898.5313,200.9844 897.3125,200.9844 C894.4219,200.9844 892.3125,199.0938 892.3125,196.5156 L892.3125,195.3906 C892.3125,192.6719 894.3125,190.5938 896.9375,190.5938 C897.8125,190.5938 898.4063,190.7344 899.3438,191.1719 Z "/><text fill="#000000" font-family="sans-serif" font-size="12" lengthAdjust="spacingAndGlyphs" textLength="27" x="911" y="199.6543">Adm</text><line style="stroke: #A80036; stroke-width: 1.5;" x1="883" x2="940" y1="211.5" y2="211.5"/><rect fill="none" height="6" style="stroke: #C82930; stroke-width: 1.0;" width="6" x="890" y="220.4023"/><text fill="#000000" font-family="sans-serif" font-size="11" lengthAdjust="spacingAndGlyphs" textLength="10" x="902" y="225.7104">id</text><rect fill="none" height="6" style="stroke: #C82930; stroke-width: 1.0;" width="6" x="890" y="233.207"/><text fill="#000000" font-family="sans-serif" font-size="11" lengthAdjust="spacingAndGlyphs" textLength="32" x="902" y="238.5151">name</text><line style="stroke: #A80036; stroke-width: 1.5;" x1="883" x2="940" y1="245.1094" y2="245.1094"/><!--class VulnerabilityCriteria--><rect fill="#FEFECE" filter="url(#fsfhtzcz75v5q)" height="48" id="VulnerabilityCriteria" style="stroke: #A80036; stroke-width: 1.5;" width="153" x="666" y="377.5"/><ellipse cx="681" cy="393.5" fill="#ADD1B2" rx="11" ry="11" style="stroke: #A80036; stroke-width: 1.0;"/><path d="M683.3438,389.1719 L683.5156,389.25 C683.7344,388.9375 683.9375,388.8438 684.2344,388.8438 C684.5313,388.8438 684.8125,388.9844 684.9688,389.25 C685.0625,389.4063 685.0781,389.5313 685.0781,389.9688 L685.0781,391.3906 C685.0781,391.8125 685.0469,392 684.9375,392.1563 C684.7656,392.375 684.5,392.5156 684.2344,392.5156 C684.0156,392.5156 683.7813,392.4063 683.6406,392.2656 C683.5,392.1406 683.4688,392.0156 683.4063,391.6094 C683.3125,391.2031 683.1406,390.9844 682.6563,390.7031 C682.1875,390.4531 681.5781,390.2969 681,390.2969 C679.2656,390.2969 678.0156,391.6094 678.0156,393.3906 L678.0156,394.4844 C678.0156,396.1875 679.3125,397.2813 681.3594,397.2813 C682.125,397.2813 682.8125,397.1563 683.2344,396.8906 C683.4219,396.7969 683.4219,396.7969 683.875,396.3125 C684.0625,396.125 684.2656,396.0469 684.4844,396.0469 C684.9531,396.0469 685.3438,396.4375 685.3438,396.8906 C685.3438,397.2813 685.0156,397.7344 684.4375,398.1406 C683.6875,398.6875 682.5313,398.9844 681.3125,398.9844 C678.4219,398.9844 676.3125,397.0938 676.3125,394.5156 L676.3125,393.3906 C676.3125,390.6719 678.3125,388.5938 680.9375,388.5938 C681.8125,388.5938 682.4063,388.7344 683.3438,389.1719 Z "/><text fill="#000000" font-family="sans-serif" font-size="12" lengthAdjust="spacingAndGlyphs" textLength="121" x="695" y="397.6543">VulnerabilityCriteria</text><line style="stroke: #A80036; stroke-width: 1.5;" x1="667" x2="818" y1="409.5" y2="409.5"/><line style="stroke: #A80036; stroke-width: 1.5;" x1="667" x2="818" y1="417.5" y2="417.5"/><!--class Project--><rect fill="#FEFECE" filter="url(#fsfhtzcz75v5q)" height="48" id="Project" style="stroke: #A80036; stroke-width: 1.5;" width="76" x="854.5" y="377.5"/><ellipse cx="869.5" cy="393.5" fill="#ADD1B2" rx="11" ry="11" style="stroke: #A80036; stroke-width: 1.0;"/><path d="M871.8438,389.1719 L872.0156,389.25 C872.2344,388.9375 872.4375,388.8438 872.7344,388.8438 C873.0313,388.8438 873.3125,388.9844 873.4688,389.25 C873.5625,389.4063 873.5781,389.5313 873.5781,389.9688 L873.5781,391.3906 C873.5781,391.8125 873.5469,392 873.4375,392.1563 C873.2656,392.375 873,392.5156 872.7344,392.5156 C872.5156,392.5156 872.2813,392.4063 872.1406,392.2656 C872,392.1406 871.9688,392.0156 871.9063,391.6094 C871.8125,391.2031 871.6406,390.9844 871.1563,390.7031 C870.6875,390.4531 870.0781,390.2969 869.5,390.2969 C867.7656,390.2969 866.5156,391.6094 866.5156,393.3906 L866.5156,394.4844 C866.5156,396.1875 867.8125,397.2813 869.8594,397.2813 C870.625,397.2813 871.3125,397.1563 871.7344,396.8906 C871.9219,396.7969 871.9219,396.7969 872.375,396.3125 C872.5625,396.125 872.7656,396.0469 872.9844,396.0469 C873.4531,396.0469 873.8438,396.4375 873.8438,396.8906 C873.8438,397.2813 873.5156,397.7344 872.9375,398.1406 C872.1875,398.6875 871.0313,398.9844 869.8125,398.9844 C866.9219,398.9844 864.8125,397.0938 864.8125,394.5156 L864.8125,393.3906 C864.8125,390.6719 866.8125,388.5938 869.4375,388.5938 C870.3125,388.5938 870.9063,388.7344 871.8438,389.1719 Z "/><text fill="#000000" font-family="sans-serif" font-size="12" lengthAdjust="spacingAndGlyphs" textLength="44" x="883.5" y="397.6543">Project</text><line style="stroke: #A80036; stroke-width: 1.5;" x1="855.5" x2="929.5" y1="409.5" y2="409.5"/><line style="stroke: #A80036; stroke-width: 1.5;" x1="855.5" x2="929.5" y1="417.5" y2="417.5"/><!--class Beneficiary--><rect fill="#FEFECE" filter="url(#fsfhtzcz75v5q)" height="48" id="Beneficiary" style="stroke: #A80036; stroke-width: 1.5;" width="100" x="214.5" y="377.5"/><ellipse cx="229.5" cy="393.5" fill="#ADD1B2" rx="11" ry="11" style="stroke: #A80036; stroke-width: 1.0;"/><path d="M231.8438,389.1719 L232.0156,389.25 C232.2344,388.9375 232.4375,388.8438 232.7344,388.8438 C233.0313,388.8438 233.3125,388.9844 233.4688,389.25 C233.5625,389.4063 233.5781,389.5313 233.5781,389.9688 L233.5781,391.3906 C233.5781,391.8125 233.5469,392 233.4375,392.1563 C233.2656,392.375 233,392.5156 232.7344,392.5156 C232.5156,392.5156 232.2813,392.4063 232.1406,392.2656 C232,392.1406 231.9688,392.0156 231.9063,391.6094 C231.8125,391.2031 231.6406,390.9844 231.1563,390.7031 C230.6875,390.4531 230.0781,390.2969 229.5,390.2969 C227.7656,390.2969 226.5156,391.6094 226.5156,393.3906 L226.5156,394.4844 C226.5156,396.1875 227.8125,397.2813 229.8594,397.2813 C230.625,397.2813 231.3125,397.1563 231.7344,396.8906 C231.9219,396.7969 231.9219,396.7969 232.375,396.3125 C232.5625,396.125 232.7656,396.0469 232.9844,396.0469 C233.4531,396.0469 233.8438,396.4375 233.8438,396.8906 C233.8438,397.2813 233.5156,397.7344 232.9375,398.1406 C232.1875,398.6875 231.0313,398.9844 229.8125,398.9844 C226.9219,398.9844 224.8125,397.0938 224.8125,394.5156 L224.8125,393.3906 C224.8125,390.6719 226.8125,388.5938 229.4375,388.5938 C230.3125,388.5938 230.9063,388.7344 231.8438,389.1719 Z "/><text fill="#000000" font-family="sans-serif" font-size="12" lengthAdjust="spacingAndGlyphs" textLength="68" x="243.5" y="397.6543">Beneficiary</text><line style="stroke: #A80036; stroke-width: 1.5;" x1="215.5" x2="313.5" y1="409.5" y2="409.5"/><line style="stroke: #A80036; stroke-width: 1.5;" x1="215.5" x2="313.5" y1="417.5" y2="417.5"/><!--class HouseholdFilters--><rect fill="#FEFECE" filter="url(#fsfhtzcz75v5q)" height="48" id="HouseholdFilters" style="stroke: #A80036; stroke-width: 1.5;" width="137" x="824" y="633"/><ellipse cx="839" cy="649" fill="#ADD1B2" rx="11" ry="11" style="stroke: #A80036; stroke-width: 1.0;"/><path d="M841.3438,644.6719 L841.5156,644.75 C841.7344,644.4375 841.9375,644.3438 842.2344,644.3438 C842.5313,644.3438 842.8125,644.4844 842.9688,644.75 C843.0625,644.9063 843.0781,645.0313 843.0781,645.4688 L843.0781,646.8906 C843.0781,647.3125 843.0469,647.5 842.9375,647.6563 C842.7656,647.875 842.5,648.0156 842.2344,648.0156 C842.0156,648.0156 841.7813,647.9063 841.6406,647.7656 C841.5,647.6406 841.4688,647.5156 841.4063,647.1094 C841.3125,646.7031 841.1406,646.4844 840.6563,646.2031 C840.1875,645.9531 839.5781,645.7969 839,645.7969 C837.2656,645.7969 836.0156,647.1094 836.0156,648.8906 L836.0156,649.9844 C836.0156,651.6875 837.3125,652.7813 839.3594,652.7813 C840.125,652.7813 840.8125,652.6563 841.2344,652.3906 C841.4219,652.2969 841.4219,652.2969 841.875,651.8125 C842.0625,651.625 842.2656,651.5469 842.4844,651.5469 C842.9531,651.5469 843.3438,651.9375 843.3438,652.3906 C843.3438,652.7813 843.0156,653.2344 842.4375,653.6406 C841.6875,654.1875 840.5313,654.4844 839.3125,654.4844 C836.4219,654.4844 834.3125,652.5938 834.3125,650.0156 L834.3125,648.8906 C834.3125,646.1719 836.3125,644.0938 838.9375,644.0938 C839.8125,644.0938 840.4063,644.2344 841.3438,644.6719 Z "/><text fill="#000000" font-family="sans-serif" font-size="12" lengthAdjust="spacingAndGlyphs" textLength="105" x="853" y="653.1543">HouseholdFilters</text><line style="stroke: #A80036; stroke-width: 1.5;" x1="825" x2="960" y1="665" y2="665"/><line style="stroke: #A80036; stroke-width: 1.5;" x1="825" x2="960" y1="673" y2="673"/><!--link CountrySpecificType to CountrySpecific--><path d="M92.5,101.579 C92.5,118.075 92.5,136.649 92.5,153.939 " fill="none" id="CountrySpecificType-CountrySpecific" style="stroke: #A80036; stroke-width: 1.0;"/><polygon fill="#A80036" points="92.5,88.286,88.5,94.286,92.5,100.286,96.5,94.286,92.5,88.286" style="stroke: #A80036; stroke-width: 1.0;"/><text fill="#000000" font-family="sans-serif" font-size="13" lengthAdjust="spacingAndGlyphs" textLength="8" x="83.8375" y="107.8139">1</text><text fill="#000000" font-family="sans-serif" font-size="13" lengthAdjust="spacingAndGlyphs" textLength="8" x="84.0375" y="142.9227">1</text><!--link CountrySpecific to CountrySpecificAnswer--><path d="M92.5,292.4 C92.5,317.269 92.5,343.83 92.5,364.4 " fill="none" id="CountrySpecific-CountrySpecificAnswer" style="stroke: #A80036; stroke-width: 1.0;"/><polygon fill="#A80036" points="92.5,279.2,88.5,285.2,92.5,291.2,96.5,285.2,92.5,279.2" style="stroke: #A80036; stroke-width: 1.0;"/><text fill="#000000" font-family="sans-serif" font-size="13" lengthAdjust="spacingAndGlyphs" textLength="8" x="84.0625" y="298.9617">1</text><text fill="#000000" font-family="sans-serif" font-size="13" lengthAdjust="spacingAndGlyphs" textLength="8" x="83.7875" y="353.5691">1</text><!--link Livelihood to Household--><path d="M411.618,451.013 C418.181,472.072 426.219,497.864 434.35,523.956 " fill="none" id="Livelihood-Household" style="stroke: #A80036; stroke-width: 1.0;"/><polygon fill="#A80036" points="407.735,438.551,405.7009,445.4693,411.3047,450.0078,413.3388,443.0895,407.735,438.551" style="stroke: #A80036; stroke-width: 1.0;"/><text fill="#000000" font-family="sans-serif" font-size="13" lengthAdjust="spacingAndGlyphs" textLength="8" x="400.9333" y="458.04">1</text><text fill="#000000" font-family="sans-serif" font-size="13" lengthAdjust="spacingAndGlyphs" textLength="20" x="411.3929" y="512.9108">0-*</text><!--link VulnerabilityCriteria to Household--><path d="M708.373,434.901 C672.584,468.881 614.835,523.71 565.801,570.265 " fill="none" id="VulnerabilityCriteria-Household" style="stroke: #A80036; stroke-width: 1.0;"/><polygon fill="#A80036" points="717.86,425.894,710.7547,427.1248,709.158,434.1569,716.2633,432.9261,717.86,425.894" style="stroke: #A80036; stroke-width: 1.0;"/><text fill="#000000" font-family="sans-serif" font-size="13" lengthAdjust="spacingAndGlyphs" textLength="20" x="689.4165" y="445.7512">0-*</text><text fill="#000000" font-family="sans-serif" font-size="13" lengthAdjust="spacingAndGlyphs" textLength="20" x="573.4803" y="560.1344">0-*</text><!--link Project to Household--><path d="M866.136,435.6 C857.345,445.442 847.079,455.781 836.5,464 C751.993,529.652 641.831,584.562 565.533,618.616 " fill="none" id="Project-Household" style="stroke: #A80036; stroke-width: 1.0;"/><polygon fill="#FFFFFF" points="874.713,425.632,867.7676,427.5714,866.8865,434.7284,873.8319,432.7891,874.713,425.632" style="stroke: #A80036; stroke-width: 1.0;"/><text fill="#000000" font-family="sans-serif" font-size="13" lengthAdjust="spacingAndGlyphs" textLength="20" x="847.9399" y="445.4254">1-*</text><text fill="#000000" font-family="sans-serif" font-size="13" lengthAdjust="spacingAndGlyphs" textLength="20" x="573.5044" y="612.0446">0-*</text><!--link Beneficiary to Household--><path d="M292.493,436.131 C316.3,464.734 351.854,507.449 385.309,547.643 " fill="none" id="Beneficiary-Household" style="stroke: #A80036; stroke-width: 1.0;"/><polygon fill="#A80036" points="283.972,425.894,284.7364,433.0645,291.6493,435.1168,290.8849,427.9463,283.972,425.894" style="stroke: #A80036; stroke-width: 1.0;"/><text fill="#000000" font-family="sans-serif" font-size="13" lengthAdjust="spacingAndGlyphs" textLength="20" x="266.2808" y="445.7512">1-*</text><text fill="#000000" font-family="sans-serif" font-size="13" lengthAdjust="spacingAndGlyphs" textLength="8" x="369.5088" y="535.0514">1</text><!--link CountrySpecificAnswer to Household--><path d="M157.889,445.78 C220.535,487.244 315.6,550.165 385.403,596.367 " fill="none" id="CountrySpecificAnswer-Household" style="stroke: #A80036; stroke-width: 1.0;"/><polygon fill="#A80036" points="146.968,438.551,149.7636,445.1982,156.9747,445.1742,154.1791,438.527,146.968,438.551" style="stroke: #A80036; stroke-width: 1.0;"/><text fill="#000000" font-family="sans-serif" font-size="13" lengthAdjust="spacingAndGlyphs" textLength="20" x="134.333" y="458.04">0-*</text><text fill="#000000" font-family="sans-serif" font-size="13" lengthAdjust="spacingAndGlyphs" textLength="8" x="369.6106" y="587.8104">1</text><!--link HouseholdLocation to Household--><path d="M533.486,469.931 C528.27,486.668 522.499,505.187 516.679,523.863 " fill="none" id="HouseholdLocation-Household" style="stroke: #A80036; stroke-width: 1.0;"/><polygon fill="#A80036" points="537.358,457.506,531.7538,462.0439,533.7871,468.9624,539.3914,464.4245,537.358,457.506" style="stroke: #A80036; stroke-width: 1.0;"/><text fill="#000000" font-family="sans-serif" font-size="13" lengthAdjust="spacingAndGlyphs" textLength="8" x="526.6492" y="477.7166">2</text><text fill="#000000" font-family="sans-serif" font-size="13" lengthAdjust="spacingAndGlyphs" textLength="8" x="510.8284" y="512.8124">1</text><!--link HouseholdLocationGroup to HouseholdLocation--><path d="M388.275,262.231 C418.394,287.284 456.203,318.735 488.15,345.309 " fill="none" id="HouseholdLocationGroup-HouseholdLocation" style="stroke: #A80036; stroke-width: 1.0;"/><polygon fill="#A80036" points="377.965,253.655,380.02,260.5671,387.1908,261.3286,385.1358,254.4166,377.965,253.655" style="stroke: #A80036; stroke-width: 1.0;"/><text fill="#000000" font-family="sans-serif" font-size="13" lengthAdjust="spacingAndGlyphs" textLength="8" x="376.5014" y="273.1612">1</text><text fill="#000000" font-family="sans-serif" font-size="13" lengthAdjust="spacingAndGlyphs" textLength="20" x="458.8448" y="334.6202">0-*</text><!--link HouseholdLocationType to HouseholdLocation--><path d="M555.23,266.895 C555.098,291.111 554.938,320.36 554.802,345.309 " fill="none" id="HouseholdLocationType-HouseholdLocation" style="stroke: #A80036; stroke-width: 1.0;"/><polygon fill="#A80036" points="555.302,253.655,551.2691,259.6329,555.2361,265.6548,559.269,259.6769,555.302,253.655" style="stroke: #A80036; stroke-width: 1.0;"/><text fill="#000000" font-family="sans-serif" font-size="13" lengthAdjust="spacingAndGlyphs" textLength="8" x="546.6067" y="273.1612">1</text><text fill="#000000" font-family="sans-serif" font-size="13" lengthAdjust="spacingAndGlyphs" textLength="20" x="533.6201" y="334.6202">0-*</text><!--link Address to HouseholdLocation--><path d="M750.6,260.893 C742.927,267.063 735.06,273.258 727.5,279 C696.372,302.641 661.203,327.64 630.742,348.775 " fill="none" id="Address-HouseholdLocation" style="stroke: #A80036; stroke-width: 1.0;"/><polygon fill="#A80036" points="760.895,252.538,753.7155,253.2127,751.577,260.0995,758.7565,259.4247,760.895,252.538" style="stroke: #A80036; stroke-width: 1.0;"/><text fill="#000000" font-family="sans-serif" font-size="13" lengthAdjust="spacingAndGlyphs" textLength="21" x="731.9164" y="253.9831">0-1</text><text fill="#000000" font-family="sans-serif" font-size="13" lengthAdjust="spacingAndGlyphs" textLength="8" x="638.3901" y="340.1069">1</text><!--link Address to Location--><path d="M853.568,269.357 C857.211,272.682 860.877,275.925 864.5,279 C899.207,308.45 912.56,309.826 947.5,339 C953.414,343.938 959.46,349.293 965.359,354.714 " fill="none" id="Address-Location" style="stroke: #A80036; stroke-width: 1.0;"/><polygon fill="#A80036" points="844.021,260.424,845.669,267.4443,852.7831,268.6231,851.1351,261.6028,844.021,260.424" style="stroke: #A80036; stroke-width: 1.0;"/><text fill="#000000" font-family="sans-serif" font-size="13" lengthAdjust="spacingAndGlyphs" textLength="20" x="851.9102" y="263.0767">0-*</text><text fill="#000000" font-family="sans-serif" font-size="13" lengthAdjust="spacingAndGlyphs" textLength="8" x="949.3678" y="343.1533">1</text><!--link CampAddress to HouseholdLocation--><path d="M794.159,102.882 C776.835,118.414 758.638,136.133 743.5,154 C700.861,204.324 703.432,226.502 663.5,279 C646.344,301.555 625.959,325.028 607.486,345.261 " fill="none" id="CampAddress-HouseholdLocation" style="stroke: #A80036; stroke-width: 1.0;"/><polygon fill="#A80036" points="804.229,94.005,797.083,94.9719,795.2271,101.9401,802.373,100.9732,804.229,94.005" style="stroke: #A80036; stroke-width: 1.0;"/><text fill="#000000" font-family="sans-serif" font-size="13" lengthAdjust="spacingAndGlyphs" textLength="21" x="772.8326" y="114.4135">0-1</text><text fill="#000000" font-family="sans-serif" font-size="13" lengthAdjust="spacingAndGlyphs" textLength="8" x="605.4562" y="334.5664">1</text><!--link CampAddress to Camp--><path d="M909.391,103.404 C925.418,119.375 942.902,137.201 958.5,154 C964.35,160.301 970.422,167.09 976.277,173.779 " fill="none" id="CampAddress-Camp" style="stroke: #A80036; stroke-width: 1.0;"/><polygon fill="#A80036" points="900.148,94.236,901.5913,101.3012,908.6682,102.6863,907.2248,95.6211,900.148,94.236" style="stroke: #A80036; stroke-width: 1.0;"/><text fill="#000000" font-family="sans-serif" font-size="13" lengthAdjust="spacingAndGlyphs" textLength="20" x="885.5107" y="114.3665">0-*</text><text fill="#000000" font-family="sans-serif" font-size="13" lengthAdjust="spacingAndGlyphs" textLength="8" x="961.7807" y="162.5048">1</text><!--link Camp to Location--><path d="M1011.5,273.114 C1011.5,293.883 1011.5,317.583 1011.5,338.863 " fill="none" id="Camp-Location" style="stroke: #A80036; stroke-width: 1.0;"/><polygon fill="#A80036" points="1011.5,259.944,1007.5,265.944,1011.5,271.944,1015.5,265.944,1011.5,259.944" style="stroke: #A80036; stroke-width: 1.0;"/><text fill="#000000" font-family="sans-serif" font-size="13" lengthAdjust="spacingAndGlyphs" textLength="20" x="989.9063" y="280.1077">0-*</text><text fill="#000000" font-family="sans-serif" font-size="13" lengthAdjust="spacingAndGlyphs" textLength="8" x="1003.0375" y="327.8379">1</text><!--link Project to HouseholdFilters--><path d="M892.5,438.961 C892.5,491.855 892.5,588.375 892.5,632.662 " fill="none" id="Project-HouseholdFilters" style="stroke: #A80036; stroke-width: 1.0;"/><polygon fill="#A80036" points="892.5,425.894,888.5,431.894,892.5,437.894,896.5,431.894,892.5,425.894" style="stroke: #A80036; stroke-width: 1.0;"/><text fill="#000000" font-family="sans-serif" font-size="13" lengthAdjust="spacingAndGlyphs" textLength="20" x="894.9375" y="445.7512">0-*</text><text fill="#000000" font-family="sans-serif" font-size="13" lengthAdjust="spacingAndGlyphs" textLength="8" x="883.525" y="621.9846">1</text><!--link VulnerabilityCriteria to HouseholdFilters--><path d="M763.084,437.288 C794.154,489.795 852.207,587.904 878.691,632.662 " fill="none" id="VulnerabilityCriteria-HouseholdFilters" style="stroke: #A80036; stroke-width: 1.0;"/><polygon fill="#A80036" points="756.343,425.894,755.9558,433.0947,762.4536,436.2217,762.8409,429.021,756.343,425.894" style="stroke: #A80036; stroke-width: 1.0;"/><text fill="#000000" font-family="sans-serif" font-size="13" lengthAdjust="spacingAndGlyphs" textLength="20" x="737.2797" y="445.7512">0-*</text><text fill="#000000" font-family="sans-serif" font-size="13" lengthAdjust="spacingAndGlyphs" textLength="8" x="866.3501" y="621.9846">1</text><!--link Location to HouseholdFilters--><path d="M977.015,475.962 C952.071,529.099 919.956,597.513 903.418,632.742 " fill="none" id="Location-HouseholdFilters" style="stroke: #A80036; stroke-width: 1.0;"/><polygon fill="#A80036" points="982.541,464.189,976.3705,467.9207,977.4419,475.0518,983.6124,471.3201,982.541,464.189" style="stroke: #A80036; stroke-width: 1.0;"/><text fill="#000000" font-family="sans-serif" font-size="13" lengthAdjust="spacingAndGlyphs" textLength="20" x="958.2799" y="483.9495">0-*</text><text fill="#000000" font-family="sans-serif" font-size="13" lengthAdjust="spacingAndGlyphs" textLength="8" x="897.1043" y="622.0841">1</text><!--link Adm to Location--><path d="M937.61,265.282 C949.891,287.756 964.686,314.83 977.8,338.83 " fill="none" id="Adm-Location" style="stroke: #A80036; stroke-width: 1.0;"/><polygon fill="#A80036" points="931.257,253.655,930.6245,260.8383,937.0119,264.185,937.6445,257.0017,931.257,253.655" style="stroke: #A80036; stroke-width: 1.0;"/><text fill="#000000" font-family="sans-serif" font-size="13" lengthAdjust="spacingAndGlyphs" textLength="21" x="911.7902" y="273.1612">0-4</text><text fill="#000000" font-family="sans-serif" font-size="13" lengthAdjust="spacingAndGlyphs" textLength="8" x="965.4409" y="327.8011">1</text><!--
@startuml
class Household {
    - id
    - localFamilyName
    - localFirstName
    - enFamilyName
    - enFirstName
    - dependents
    - vulnerabilities
    - projects
    - beneficiaries
    - countrySpecificAnswers
    - livelihood
    - notes
    - incomeLevel
    - foodConsumptionScore
    - copingStrategiesIndex
    - currentHouseholdLocation
    - residentHouseholdLocation
}

class Livelihood {
    - id
    - name
}

class CountrySpecificAnswer {
    - countrySpecific
    - answer
}

class CountrySpecific {
    - id
    - field
    - type
    - answer
    - countryIso3
    - name
}

class CountrySpecificType {
    - id
    - name
}

class HouseholdLocationGroup {
    - id
    - name
}

class HouseholdLocationType {
    - id
    - name
}

class HouseholdLocation {
    - id
    - locationGroup
    - type
    - address
    - campAddress
}

class Address {
    - id
    - number
    - street
    - postcode
    - location
}

class CampAddress {
    - id
    - tentNumber
    - camp
}

class Camp {
    - id
    - name
    - location
}

class Location {
    - id
    - adm1
    - adm2
    - adm3
    - adm4
    - countryIso3
}

class Adm {
    - id
    - name
}
 
 CountrySpecificType "1" *- - "1" CountrySpecific
 CountrySpecific "1" *- - "1" CountrySpecificAnswer
 
 Livelihood "1" *- - "0-*" Household
 VulnerabilityCriteria "0-*" *- - "0-*" Household
 Project "1-*" o- - "0-*" Household
 Beneficiary "1-*" *- - "1" Household
 CountrySpecificAnswer "0-*" *- - "1" Household
 HouseholdLocation "2" *- - "1" Household
 HouseholdLocationGroup "1" *- - "0-*" HouseholdLocation
 HouseholdLocationType "1" *- - "0-*" HouseholdLocation
 Address "0-1" *- - "1" HouseholdLocation
 Address "0-*" *- - "1" Location
 CampAddress "0-1" *- - "1" HouseholdLocation
 CampAddress "0-*" *- - "1" Camp
 Camp "0-*" *- - "1" Location

 Project "0-*" *- - "1" HouseholdFilters
 VulnerabilityCriteria "0-*" *- - "1" HouseholdFilters
 Location "0-*" *- - "1" HouseholdFilters
 
 Adm "0-4" *- - "1" Location
@enduml

PlantUML version 1.2019.07(Mon Jun 24 19:59:20 UTC 2019)
(GPL source distribution)
Java Runtime: Java(TM) SE Runtime Environment
JVM: Java HotSpot(TM) 64-Bit Server VM
Java Version: 1.7.0_25-b15
Operating System: Linux
Default Encoding: UTF-8
Language: en
Country: US
--></g></svg>