<?xml version="1.0" encoding="UTF-8" standalone="no"?><svg xmlns="http://www.w3.org/2000/svg" xmlns:xlink="http://www.w3.org/1999/xlink" contentScriptType="application/ecmascript" contentStyleType="text/css" height="687px" preserveAspectRatio="none" style="width:417px;height:687px;" version="1.1" viewBox="0 0 417 687" width="417px" zoomAndPan="magnify"><defs><filter height="300%" id="fu4hvgmt0oz3q" width="300%" x="-1" y="-1"><feGaussianBlur result="blurOut" stdDeviation="2.0"/><feColorMatrix in="blurOut" result="blurOut2" type="matrix" values="0 0 0 0 0 0 0 0 0 0 0 0 0 0 0 0 0 0 .4 0"/><feOffset dx="4.0" dy="4.0" in="blurOut2" result="blurOut3"/><feBlend in="SourceGraphic" in2="blurOut3" mode="normal"/></filter></defs><g><!--class CustomModel--><rect fill="#FEFECE" filter="url(#fu4hvgmt0oz3q)" height="291.2891" id="CustomModel" style="stroke: #A80036; stroke-width: 1.5;" width="400" x="6" y="385"/><ellipse cx="160.25" cy="401" fill="#A9DCDF" rx="11" ry="11" style="stroke: #A80036; stroke-width: 1.0;"/><path d="M161.8281,402.8125 L157.7813,402.8125 L157.3906,403.7969 L157.7813,403.7969 C158.2344,403.7969 158.375,403.8281 158.5469,403.9531 C158.7656,404.125 158.8906,404.375 158.8906,404.6563 C158.8906,404.9375 158.75,405.2344 158.4844,405.375 C158.3594,405.4688 158.1406,405.5 157.7813,405.5 L155.5156,405.5 C154.7656,405.5 154.3906,405.2188 154.3906,404.6563 C154.3906,404.3594 154.5469,404.0781 154.7969,403.9219 C154.9531,403.8125 155.1094,403.7969 155.5313,403.7969 L158.1719,397.2813 L157.0938,397.2813 C156.6563,397.2813 156.4844,397.25 156.3125,397.1406 C156.0938,396.9688 155.9531,396.7188 155.9531,396.4375 C155.9531,396.1563 156.1094,395.875 156.3594,395.7031 C156.5156,395.6094 156.6406,395.5938 157.0938,395.5938 L160.7656,395.5938 L164.1563,403.7969 C164.625,403.7969 164.7813,403.8281 164.9531,403.9688 C165.1719,404.125 165.3125,404.375 165.3125,404.6563 C165.3125,404.9375 165.1563,405.2344 164.9063,405.375 C164.7656,405.4688 164.5469,405.5 164.1875,405.5 L161.8281,405.5 C161.4063,405.5 161.2031,405.4531 161.0625,405.3281 C160.8438,405.1719 160.7031,404.9219 160.7031,404.6563 C160.7031,404.3594 160.8594,404.0781 161.1094,403.9219 C161.2656,403.8125 161.375,403.7969 161.8281,403.7969 L162.2188,403.7969 Z M161.125,401.1094 L159.7969,397.8438 L158.4531,401.1094 Z "/><text fill="#000000" font-family="sans-serif" font-size="12" font-style="italic" lengthAdjust="spacingAndGlyphs" textLength="83" x="180.75" y="405.1543">CustomModel</text><line style="stroke: #A80036; stroke-width: 1.5;" x1="7" x2="405" y1="417" y2="417"/><ellipse cx="17" cy="428.9023" fill="none" rx="3" ry="3" style="stroke: #038048; stroke-width: 1.0;"/><text fill="#000000" font-family="sans-serif" font-size="11" font-style="italic" lengthAdjust="spacingAndGlyphs" textLength="148" x="26" y="431.2104">fields: CustomModelField[]</text><ellipse cx="17" cy="441.707" fill="none" rx="3" ry="3" style="stroke: #038048; stroke-width: 1.0;"/><text fill="#000000" font-family="sans-serif" font-size="11" lengthAdjust="spacingAndGlyphs" textLength="82" x="26" y="444.0151">rights: string[]</text><ellipse cx="17" cy="454.5117" fill="none" rx="3" ry="3" style="stroke: #038048; stroke-width: 1.0;"/><text fill="#000000" font-family="sans-serif" font-size="11" lengthAdjust="spacingAndGlyphs" textLength="62" x="26" y="456.8198">title: string</text><ellipse cx="17" cy="467.3164" fill="none" rx="3" ry="3" style="stroke: #038048; stroke-width: 1.0;"/><text fill="#000000" font-family="sans-serif" font-size="11" lengthAdjust="spacingAndGlyphs" textLength="120" x="26" y="469.6245">matSortActive: string</text><ellipse cx="17" cy="480.1211" fill="none" rx="3" ry="3" style="stroke: #038048; stroke-width: 1.0;"/><text fill="#000000" font-family="sans-serif" font-size="11" lengthAdjust="spacingAndGlyphs" textLength="132" x="26" y="482.4292">createMultiple: boolean</text><ellipse cx="17" cy="492.9258" fill="none" rx="3" ry="3" style="stroke: #038048; stroke-width: 1.0;"/><text fill="#000000" font-family="sans-serif" font-size="11" lengthAdjust="spacingAndGlyphs" textLength="106" x="26" y="495.2339">pluralName: string</text><ellipse cx="17" cy="505.7305" fill="none" rx="3" ry="3" style="stroke: #038048; stroke-width: 1.0;"/><text fill="#000000" font-family="sans-serif" font-size="11" lengthAdjust="spacingAndGlyphs" textLength="115" x="26" y="508.0386">language: Language</text><line style="stroke: #A80036; stroke-width: 1.5;" x1="7" x2="405" y1="514.6328" y2="514.6328"/><ellipse cx="17" cy="526.5352" fill="#84BE84" rx="3" ry="3" style="stroke: #038048; stroke-width: 1.0;"/><text fill="#000000" font-family="sans-serif" font-size="11" lengthAdjust="spacingAndGlyphs" text-decoration="underline" textLength="358" x="26" y="528.8433">apiToModel(objectFromApi: any, otherInfo?: any): CustomModel</text><ellipse cx="17" cy="539.3398" fill="#84BE84" rx="3" ry="3" style="stroke: #038048; stroke-width: 1.0;"/><text fill="#000000" font-family="sans-serif" font-size="11" lengthAdjust="spacingAndGlyphs" textLength="118" x="26" y="541.6479">modelToApi(): Object</text><ellipse cx="17" cy="552.1445" fill="#84BE84" rx="3" ry="3" style="stroke: #038048; stroke-width: 1.0;"/><text fill="#000000" font-family="sans-serif" font-size="11" lengthAdjust="spacingAndGlyphs" textLength="374" x="26" y="554.4526">getDateOffset(year: number, month: number, day: number): Date</text><ellipse cx="17" cy="564.9492" fill="#84BE84" rx="3" ry="3" style="stroke: #038048; stroke-width: 1.0;"/><text fill="#000000" font-family="sans-serif" font-size="11" lengthAdjust="spacingAndGlyphs" textLength="158" x="26" y="567.2573">getIdentifyingName(): string</text><ellipse cx="17" cy="577.7539" fill="#84BE84" rx="3" ry="3" style="stroke: #038048; stroke-width: 1.0;"/><text fill="#000000" font-family="sans-serif" font-size="11" lengthAdjust="spacingAndGlyphs" textLength="321" x="26" y="580.062">get&lt;T = CustomModel&gt;(fields: string| Array&lt;string&gt;): T</text><ellipse cx="17" cy="590.5586" fill="#84BE84" rx="3" ry="3" style="stroke: #038048; stroke-width: 1.0;"/><text fill="#000000" font-family="sans-serif" font-size="11" lengthAdjust="spacingAndGlyphs" textLength="242" x="26" y="592.8667">set(field: string, value: any): CustomModel</text><ellipse cx="17" cy="603.3633" fill="#84BE84" rx="3" ry="3" style="stroke: #038048; stroke-width: 1.0;"/><text fill="#000000" font-family="sans-serif" font-size="11" lengthAdjust="spacingAndGlyphs" textLength="228" x="26" y="605.6714">getOptions(field: string): CustomModel[]</text><ellipse cx="17" cy="616.168" fill="#84BE84" rx="3" ry="3" style="stroke: #038048; stroke-width: 1.0;"/><text fill="#000000" font-family="sans-serif" font-size="11" lengthAdjust="spacingAndGlyphs" textLength="209" x="26" y="618.4761">setOptions(field: string, value: any[])</text><ellipse cx="17" cy="628.9727" fill="#84BE84" rx="3" ry="3" style="stroke: #038048; stroke-width: 1.0;"/><text fill="#000000" font-family="sans-serif" font-size="11" lengthAdjust="spacingAndGlyphs" textLength="160" x="26" y="631.2808">add(field: string, value: any)</text><ellipse cx="17" cy="641.7773" fill="#84BE84" rx="3" ry="3" style="stroke: #038048; stroke-width: 1.0;"/><text fill="#000000" font-family="sans-serif" font-size="11" lengthAdjust="spacingAndGlyphs" textLength="121" x="26" y="644.0854">isPrintable(): boolean</text><ellipse cx="17" cy="654.582" fill="#84BE84" rx="3" ry="3" style="stroke: #038048; stroke-width: 1.0;"/><text fill="#000000" font-family="sans-serif" font-size="11" lengthAdjust="spacingAndGlyphs" textLength="133" x="26" y="656.8901">isAssignable(): boolean</text><ellipse cx="17" cy="667.3867" fill="#84BE84" rx="3" ry="3" style="stroke: #038048; stroke-width: 1.0;"/><text fill="#000000" font-family="sans-serif" font-size="11" lengthAdjust="spacingAndGlyphs" textLength="129" x="26" y="669.6948">isCheckable(): boolean</text><!--class CustomModelField--><rect fill="#FEFECE" filter="url(#fu4hvgmt0oz3q)" height="316.8984" id="CustomModelField" style="stroke: #A80036; stroke-width: 1.5;" width="213" x="99.5" y="8"/><ellipse cx="140.15" cy="24" fill="#ADD1B2" rx="11" ry="11" style="stroke: #A80036; stroke-width: 1.0;"/><path d="M142.4938,19.6719 L142.6656,19.75 C142.8844,19.4375 143.0875,19.3438 143.3844,19.3438 C143.6813,19.3438 143.9625,19.4844 144.1188,19.75 C144.2125,19.9063 144.2281,20.0313 144.2281,20.4688 L144.2281,21.8906 C144.2281,22.3125 144.1969,22.5 144.0875,22.6563 C143.9156,22.875 143.65,23.0156 143.3844,23.0156 C143.1656,23.0156 142.9313,22.9063 142.7906,22.7656 C142.65,22.6406 142.6188,22.5156 142.5563,22.1094 C142.4625,21.7031 142.2906,21.4844 141.8063,21.2031 C141.3375,20.9531 140.7281,20.7969 140.15,20.7969 C138.4156,20.7969 137.1656,22.1094 137.1656,23.8906 L137.1656,24.9844 C137.1656,26.6875 138.4625,27.7813 140.5094,27.7813 C141.275,27.7813 141.9625,27.6563 142.3844,27.3906 C142.5719,27.2969 142.5719,27.2969 143.025,26.8125 C143.2125,26.625 143.4156,26.5469 143.6344,26.5469 C144.1031,26.5469 144.4938,26.9375 144.4938,27.3906 C144.4938,27.7813 144.1656,28.2344 143.5875,28.6406 C142.8375,29.1875 141.6813,29.4844 140.4625,29.4844 C137.5719,29.4844 135.4625,27.5938 135.4625,25.0156 L135.4625,23.8906 C135.4625,21.1719 137.4625,19.0938 140.0875,19.0938 C140.9625,19.0938 141.5563,19.2344 142.4938,19.6719 Z "/><text fill="#000000" font-family="sans-serif" font-size="12" lengthAdjust="spacingAndGlyphs" textLength="113" x="159.85" y="28.1543">CustomModelField</text><rect fill="#FFFFFF" height="15.9688" style="stroke: #000000; stroke-width: 1.0; stroke-dasharray: 2.0,2.0;" width="9" x="306.5" y="5"/><text fill="#000000" font-family="sans-serif" font-size="12" font-style="italic" lengthAdjust="spacingAndGlyphs" textLength="7" x="307.5" y="17.1387">T</text><line style="stroke: #A80036; stroke-width: 1.5;" x1="100.5" x2="311.5" y1="40" y2="40"/><ellipse cx="110.5" cy="51.9023" fill="none" rx="3" ry="3" style="stroke: #038048; stroke-width: 1.0;"/><text fill="#000000" font-family="sans-serif" font-size="11" lengthAdjust="spacingAndGlyphs" textLength="45" x="119.5" y="54.2104">value: T</text><ellipse cx="110.5" cy="64.707" fill="none" rx="3" ry="3" style="stroke: #038048; stroke-width: 1.0;"/><text fill="#000000" font-family="sans-serif" font-size="11" lengthAdjust="spacingAndGlyphs" textLength="62" x="119.5" y="67.0151">title: string</text><ellipse cx="110.5" cy="77.5117" fill="none" rx="3" ry="3" style="stroke: #038048; stroke-width: 1.0;"/><text fill="#000000" font-family="sans-serif" font-size="11" lengthAdjust="spacingAndGlyphs" textLength="103" x="119.5" y="79.8198">kindOfField: string</text><ellipse cx="110.5" cy="90.3164" fill="none" rx="3" ry="3" style="stroke: #038048; stroke-width: 1.0;"/><text fill="#000000" font-family="sans-serif" font-size="11" lengthAdjust="spacingAndGlyphs" textLength="183" x="119.5" y="92.6245">isDisplayedInSummary: boolean</text><ellipse cx="110.5" cy="103.1211" fill="none" rx="3" ry="3" style="stroke: #038048; stroke-width: 1.0;"/><text fill="#000000" font-family="sans-serif" font-size="11" lengthAdjust="spacingAndGlyphs" textLength="161" x="119.5" y="105.4292">isDisplayedInModal: boolean</text><ellipse cx="110.5" cy="115.9258" fill="none" rx="3" ry="3" style="stroke: #038048; stroke-width: 1.0;"/><text fill="#000000" font-family="sans-serif" font-size="11" lengthAdjust="spacingAndGlyphs" textLength="159" x="119.5" y="118.2339">isDisplayedInTable: boolean</text><ellipse cx="110.5" cy="128.7305" fill="none" rx="3" ry="3" style="stroke: #038048; stroke-width: 1.0;"/><text fill="#000000" font-family="sans-serif" font-size="11" lengthAdjust="spacingAndGlyphs" textLength="139" x="119.5" y="131.0386">isImageInTable: boolean</text><ellipse cx="110.5" cy="141.5352" fill="none" rx="3" ry="3" style="stroke: #038048; stroke-width: 1.0;"/><text fill="#000000" font-family="sans-serif" font-size="11" lengthAdjust="spacingAndGlyphs" textLength="113" x="119.5" y="143.8433">isRequired: boolean</text><ellipse cx="110.5" cy="154.3398" fill="none" rx="3" ry="3" style="stroke: #038048; stroke-width: 1.0;"/><text fill="#000000" font-family="sans-serif" font-size="11" lengthAdjust="spacingAndGlyphs" textLength="110" x="119.5" y="156.6479">isSettable: boolean</text><ellipse cx="110.5" cy="167.1445" fill="none" rx="3" ry="3" style="stroke: #038048; stroke-width: 1.0;"/><text fill="#000000" font-family="sans-serif" font-size="11" lengthAdjust="spacingAndGlyphs" textLength="108" x="119.5" y="169.4526">isEditable: boolean</text><ellipse cx="110.5" cy="179.9492" fill="none" rx="3" ry="3" style="stroke: #038048; stroke-width: 1.0;"/><text fill="#000000" font-family="sans-serif" font-size="11" lengthAdjust="spacingAndGlyphs" textLength="92" x="119.5" y="182.2573">nullValue: string</text><ellipse cx="110.5" cy="192.7539" fill="none" rx="3" ry="3" style="stroke: #038048; stroke-width: 1.0;"/><text fill="#000000" font-family="sans-serif" font-size="11" lengthAdjust="spacingAndGlyphs" textLength="62" x="119.5" y="195.062">hint: string</text><ellipse cx="110.5" cy="205.5586" fill="none" rx="3" ry="3" style="stroke: #038048; stroke-width: 1.0;"/><text fill="#000000" font-family="sans-serif" font-size="11" lengthAdjust="spacingAndGlyphs" textLength="111" x="119.5" y="207.8667">patternError: string</text><ellipse cx="110.5" cy="218.3633" fill="none" rx="3" ry="3" style="stroke: #038048; stroke-width: 1.0;"/><text fill="#000000" font-family="sans-serif" font-size="11" lengthAdjust="spacingAndGlyphs" textLength="82" x="119.5" y="220.6714">pattern: string</text><ellipse cx="110.5" cy="231.168" fill="none" rx="3" ry="3" style="stroke: #038048; stroke-width: 1.0;"/><text fill="#000000" font-family="sans-serif" font-size="11" lengthAdjust="spacingAndGlyphs" textLength="104" x="119.5" y="233.4761">isTrigger: boolean</text><ellipse cx="110.5" cy="243.9727" fill="none" rx="3" ry="3" style="stroke: #038048; stroke-width: 1.0;"/><text fill="#000000" font-family="sans-serif" font-size="11" lengthAdjust="spacingAndGlyphs" textLength="140" x="119.5" y="246.2808">triggerFunction: Function</text><ellipse cx="110.5" cy="256.7773" fill="none" rx="3" ry="3" style="stroke: #038048; stroke-width: 1.0;"/><text fill="#000000" font-family="sans-serif" font-size="11" lengthAdjust="spacingAndGlyphs" textLength="100" x="119.5" y="259.0854">filterName: string</text><ellipse cx="110.5" cy="269.582" fill="none" rx="3" ry="3" style="stroke: #038048; stroke-width: 1.0;"/><text fill="#000000" font-family="sans-serif" font-size="11" lengthAdjust="spacingAndGlyphs" textLength="90" x="119.5" y="271.8901">tooltip: Function</text><ellipse cx="110.5" cy="282.3867" fill="none" rx="3" ry="3" style="stroke: #038048; stroke-width: 1.0;"/><text fill="#000000" font-family="sans-serif" font-size="11" lengthAdjust="spacingAndGlyphs" textLength="112" x="119.5" y="284.6948">isDisabled: boolean</text><line style="stroke: #A80036; stroke-width: 1.5;" x1="100.5" x2="311.5" y1="291.2891" y2="291.2891"/><ellipse cx="110.5" cy="303.1914" fill="#84BE84" rx="3" ry="3" style="stroke: #038048; stroke-width: 1.0;"/><text fill="#000000" font-family="sans-serif" font-size="11" lengthAdjust="spacingAndGlyphs" text-decoration="underline" textLength="187" x="119.5" y="305.4995">fillWithDefault(properties: Object)</text><ellipse cx="110.5" cy="315.9961" fill="#84BE84" rx="3" ry="3" style="stroke: #038048; stroke-width: 1.0;"/><text fill="#000000" font-family="sans-serif" font-size="11" lengthAdjust="spacingAndGlyphs" textLength="81" x="119.5" y="318.3042">formatForApi()</text><!--link CustomModelField to CustomModel--><path d="M206,338.273 C206,353.847 206,369.522 206,384.835 " fill="none" id="CustomModelField-CustomModel" style="stroke: #A80036; stroke-width: 1.0;"/><polygon fill="#A80036" points="206,325.225,202,331.225,206,337.225,210,331.225,206,325.225" style="stroke: #A80036; stroke-width: 1.0;"/><text fill="#000000" font-family="sans-serif" font-size="13" lengthAdjust="spacingAndGlyphs" textLength="20" x="185.4844" y="374.0003">0-*</text><!--
@startuml
abstract class CustomModel {
    + {abstract} fields: CustomModelField[]
    + rights: string[]
    + title: string
    + matSortActive: string
    + createMultiple: boolean
    + pluralName: string
    + language: Language


    + {static} apiToModel(objectFromApi: any, otherInfo?: any): CustomModel
    + modelToApi(): Object
    + getDateOffset(year: number, month: number, day: number): Date
    + getIdentifyingName(): string
    + get<T = CustomModel>(fields: string| Array<string>): T
    + set(field: string, value: any): CustomModel
    + getOptions(field: string): CustomModel[]
    + setOptions(field: string, value: any[])
    + add(field: string, value: any)
    + isPrintable(): boolean
    + isAssignable(): boolean
    + isCheckable(): boolean
    
}

class CustomModelField<T> {
    + value: T
    + title: string
    + kindOfField: string
    + isDisplayedInSummary: boolean
    + isDisplayedInModal: boolean
    + isDisplayedInTable: boolean
    + isImageInTable: boolean
    + isRequired: boolean
    + isSettable: boolean
    + isEditable: boolean
    + nullValue: string
    + hint: string
    + patternError: string
    + pattern: string
    + isTrigger: boolean
    + triggerFunction: Function
    + filterName: string
    + tooltip: Function
    + isDisabled: boolean
    
    + {static} fillWithDefault(properties: Object)
    + formatForApi()
}

CustomModelField *- - "0-*" CustomModel
@enduml

PlantUML version 1.2019.07(Mon Jun 24 19:59:20 UTC 2019)
(GPL source distribution)
Java Runtime: Java(TM) SE Runtime Environment
JVM: Java HotSpot(TM) 64-Bit Server VM
Java Version: 1.7.0_25-b15
Operating System: Linux
Default Encoding: UTF-8
Language: en
Country: US
--></g></svg>