<?xml version="1.0" encoding="UTF-8" standalone="no"?><svg xmlns="http://www.w3.org/2000/svg" xmlns:xlink="http://www.w3.org/1999/xlink" contentScriptType="application/ecmascript" contentStyleType="text/css" height="799px" preserveAspectRatio="none" style="width:471px;height:799px;" version="1.1" viewBox="0 0 471 799" width="471px" zoomAndPan="magnify"><defs><filter height="300%" id="f1c7p5wa61vha3" width="300%" x="-1" y="-1"><feGaussianBlur result="blurOut" stdDeviation="2.0"/><feColorMatrix in="blurOut" result="blurOut2" type="matrix" values="0 0 0 0 0 0 0 0 0 0 0 0 0 0 0 0 0 0 .4 0"/><feOffset dx="4.0" dy="4.0" in="blurOut2" result="blurOut3"/><feBlend in="SourceGraphic" in2="blurOut3" mode="normal"/></filter></defs><g><!--class Sector--><rect fill="#FEFECE" filter="url(#f1c7p5wa61vha3)" height="73.6094" id="Sector" style="stroke: #A80036; stroke-width: 1.5;" width="73" x="251" y="20.5"/><ellipse cx="266" cy="36.5" fill="#ADD1B2" rx="11" ry="11" style="stroke: #A80036; stroke-width: 1.0;"/><path d="M268.3438,32.1719 L268.5156,32.25 C268.7344,31.9375 268.9375,31.8438 269.2344,31.8438 C269.5313,31.8438 269.8125,31.9844 269.9688,32.25 C270.0625,32.4063 270.0781,32.5313 270.0781,32.9688 L270.0781,34.3906 C270.0781,34.8125 270.0469,35 269.9375,35.1563 C269.7656,35.375 269.5,35.5156 269.2344,35.5156 C269.0156,35.5156 268.7813,35.4063 268.6406,35.2656 C268.5,35.1406 268.4688,35.0156 268.4063,34.6094 C268.3125,34.2031 268.1406,33.9844 267.6563,33.7031 C267.1875,33.4531 266.5781,33.2969 266,33.2969 C264.2656,33.2969 263.0156,34.6094 263.0156,36.3906 L263.0156,37.4844 C263.0156,39.1875 264.3125,40.2813 266.3594,40.2813 C267.125,40.2813 267.8125,40.1563 268.2344,39.8906 C268.4219,39.7969 268.4219,39.7969 268.875,39.3125 C269.0625,39.125 269.2656,39.0469 269.4844,39.0469 C269.9531,39.0469 270.3438,39.4375 270.3438,39.8906 C270.3438,40.2813 270.0156,40.7344 269.4375,41.1406 C268.6875,41.6875 267.5313,41.9844 266.3125,41.9844 C263.4219,41.9844 261.3125,40.0938 261.3125,37.5156 L261.3125,36.3906 C261.3125,33.6719 263.3125,31.5938 265.9375,31.5938 C266.8125,31.5938 267.4063,31.7344 268.3438,32.1719 Z "/><text fill="#000000" font-family="sans-serif" font-size="12" lengthAdjust="spacingAndGlyphs" textLength="41" x="280" y="40.6543">Sector</text><line style="stroke: #A80036; stroke-width: 1.5;" x1="252" x2="323" y1="52.5" y2="52.5"/><rect fill="none" height="6" style="stroke: #C82930; stroke-width: 1.0;" width="6" x="259" y="61.4023"/><text fill="#000000" font-family="sans-serif" font-size="11" lengthAdjust="spacingAndGlyphs" textLength="10" x="271" y="66.7104">id</text><rect fill="none" height="6" style="stroke: #C82930; stroke-width: 1.0;" width="6" x="259" y="74.207"/><text fill="#000000" font-family="sans-serif" font-size="11" lengthAdjust="spacingAndGlyphs" textLength="32" x="271" y="79.5151">name</text><line style="stroke: #A80036; stroke-width: 1.5;" x1="252" x2="323" y1="86.1094" y2="86.1094"/><!--class Donor--><rect fill="#FEFECE" filter="url(#f1c7p5wa61vha3)" height="99.2188" id="Donor" style="stroke: #A80036; stroke-width: 1.5;" width="88" x="359.5" y="8"/><ellipse cx="382.6" cy="24" fill="#ADD1B2" rx="11" ry="11" style="stroke: #A80036; stroke-width: 1.0;"/><path d="M384.9438,19.6719 L385.1156,19.75 C385.3344,19.4375 385.5375,19.3438 385.8344,19.3438 C386.1313,19.3438 386.4125,19.4844 386.5688,19.75 C386.6625,19.9063 386.6781,20.0313 386.6781,20.4688 L386.6781,21.8906 C386.6781,22.3125 386.6469,22.5 386.5375,22.6563 C386.3656,22.875 386.1,23.0156 385.8344,23.0156 C385.6156,23.0156 385.3813,22.9063 385.2406,22.7656 C385.1,22.6406 385.0688,22.5156 385.0063,22.1094 C384.9125,21.7031 384.7406,21.4844 384.2563,21.2031 C383.7875,20.9531 383.1781,20.7969 382.6,20.7969 C380.8656,20.7969 379.6156,22.1094 379.6156,23.8906 L379.6156,24.9844 C379.6156,26.6875 380.9125,27.7813 382.9594,27.7813 C383.725,27.7813 384.4125,27.6563 384.8344,27.3906 C385.0219,27.2969 385.0219,27.2969 385.475,26.8125 C385.6625,26.625 385.8656,26.5469 386.0844,26.5469 C386.5531,26.5469 386.9438,26.9375 386.9438,27.3906 C386.9438,27.7813 386.6156,28.2344 386.0375,28.6406 C385.2875,29.1875 384.1313,29.4844 382.9125,29.4844 C380.0219,29.4844 377.9125,27.5938 377.9125,25.0156 L377.9125,23.8906 C377.9125,21.1719 379.9125,19.0938 382.5375,19.0938 C383.4125,19.0938 384.0063,19.2344 384.9438,19.6719 Z "/><text fill="#000000" font-family="sans-serif" font-size="12" lengthAdjust="spacingAndGlyphs" textLength="38" x="398.4" y="28.1543">Donor</text><line style="stroke: #A80036; stroke-width: 1.5;" x1="360.5" x2="446.5" y1="40" y2="40"/><rect fill="none" height="6" style="stroke: #C82930; stroke-width: 1.0;" width="6" x="367.5" y="48.9023"/><text fill="#000000" font-family="sans-serif" font-size="11" lengthAdjust="spacingAndGlyphs" textLength="10" x="379.5" y="54.2104">id</text><rect fill="none" height="6" style="stroke: #C82930; stroke-width: 1.0;" width="6" x="367.5" y="61.707"/><text fill="#000000" font-family="sans-serif" font-size="11" lengthAdjust="spacingAndGlyphs" textLength="49" x="379.5" y="67.0151">fullname</text><rect fill="none" height="6" style="stroke: #C82930; stroke-width: 1.0;" width="6" x="367.5" y="74.5117"/><text fill="#000000" font-family="sans-serif" font-size="11" lengthAdjust="spacingAndGlyphs" textLength="62" x="379.5" y="79.8198">shortname</text><rect fill="none" height="6" style="stroke: #C82930; stroke-width: 1.0;" width="6" x="367.5" y="87.3164"/><text fill="#000000" font-family="sans-serif" font-size="11" lengthAdjust="spacingAndGlyphs" textLength="32" x="379.5" y="92.6245">notes</text><line style="stroke: #A80036; stroke-width: 1.5;" x1="360.5" x2="446.5" y1="99.2188" y2="99.2188"/><!--class Project--><rect fill="#FEFECE" filter="url(#f1c7p5wa61vha3)" height="188.8516" id="Project" style="stroke: #A80036; stroke-width: 1.5;" width="150" x="270.5" y="167"/><ellipse cx="319.25" cy="183" fill="#ADD1B2" rx="11" ry="11" style="stroke: #A80036; stroke-width: 1.0;"/><path d="M321.5938,178.6719 L321.7656,178.75 C321.9844,178.4375 322.1875,178.3438 322.4844,178.3438 C322.7813,178.3438 323.0625,178.4844 323.2188,178.75 C323.3125,178.9063 323.3281,179.0313 323.3281,179.4688 L323.3281,180.8906 C323.3281,181.3125 323.2969,181.5 323.1875,181.6563 C323.0156,181.875 322.75,182.0156 322.4844,182.0156 C322.2656,182.0156 322.0313,181.9063 321.8906,181.7656 C321.75,181.6406 321.7188,181.5156 321.6563,181.1094 C321.5625,180.7031 321.3906,180.4844 320.9063,180.2031 C320.4375,179.9531 319.8281,179.7969 319.25,179.7969 C317.5156,179.7969 316.2656,181.1094 316.2656,182.8906 L316.2656,183.9844 C316.2656,185.6875 317.5625,186.7813 319.6094,186.7813 C320.375,186.7813 321.0625,186.6563 321.4844,186.3906 C321.6719,186.2969 321.6719,186.2969 322.125,185.8125 C322.3125,185.625 322.5156,185.5469 322.7344,185.5469 C323.2031,185.5469 323.5938,185.9375 323.5938,186.3906 C323.5938,186.7813 323.2656,187.2344 322.6875,187.6406 C321.9375,188.1875 320.7813,188.4844 319.5625,188.4844 C316.6719,188.4844 314.5625,186.5938 314.5625,184.0156 L314.5625,182.8906 C314.5625,180.1719 316.5625,178.0938 319.1875,178.0938 C320.0625,178.0938 320.6563,178.2344 321.5938,178.6719 Z "/><text fill="#000000" font-family="sans-serif" font-size="12" lengthAdjust="spacingAndGlyphs" textLength="44" x="339.75" y="187.1543">Project</text><line style="stroke: #A80036; stroke-width: 1.5;" x1="271.5" x2="419.5" y1="199" y2="199"/><rect fill="none" height="6" style="stroke: #C82930; stroke-width: 1.0;" width="6" x="278.5" y="207.9023"/><text fill="#000000" font-family="sans-serif" font-size="11" lengthAdjust="spacingAndGlyphs" textLength="10" x="290.5" y="213.2104">id</text><rect fill="none" height="6" style="stroke: #C82930; stroke-width: 1.0;" width="6" x="278.5" y="220.707"/><text fill="#000000" font-family="sans-serif" font-size="11" lengthAdjust="spacingAndGlyphs" textLength="32" x="290.5" y="226.0151">name</text><rect fill="none" height="6" style="stroke: #C82930; stroke-width: 1.0;" width="6" x="278.5" y="233.5117"/><text fill="#000000" font-family="sans-serif" font-size="11" lengthAdjust="spacingAndGlyphs" textLength="43" x="290.5" y="238.8198">sectors</text><rect fill="none" height="6" style="stroke: #C82930; stroke-width: 1.0;" width="6" x="278.5" y="246.3164"/><text fill="#000000" font-family="sans-serif" font-size="11" lengthAdjust="spacingAndGlyphs" textLength="53" x="290.5" y="251.6245">startDate</text><rect fill="none" height="6" style="stroke: #C82930; stroke-width: 1.0;" width="6" x="278.5" y="259.1211"/><text fill="#000000" font-family="sans-serif" font-size="11" lengthAdjust="spacingAndGlyphs" textLength="47" x="290.5" y="264.4292">endDate</text><rect fill="none" height="6" style="stroke: #C82930; stroke-width: 1.0;" width="6" x="278.5" y="271.9258"/><text fill="#000000" font-family="sans-serif" font-size="11" lengthAdjust="spacingAndGlyphs" textLength="124" x="290.5" y="277.2339">numberOfHouseholds</text><rect fill="none" height="6" style="stroke: #C82930; stroke-width: 1.0;" width="6" x="278.5" y="284.7305"/><text fill="#000000" font-family="sans-serif" font-size="11" lengthAdjust="spacingAndGlyphs" textLength="40" x="290.5" y="290.0386">donors</text><rect fill="none" height="6" style="stroke: #C82930; stroke-width: 1.0;" width="6" x="278.5" y="297.5352"/><text fill="#000000" font-family="sans-serif" font-size="11" lengthAdjust="spacingAndGlyphs" textLength="24" x="290.5" y="302.8433">iso3</text><rect fill="none" height="6" style="stroke: #C82930; stroke-width: 1.0;" width="6" x="278.5" y="310.3398"/><text fill="#000000" font-family="sans-serif" font-size="11" lengthAdjust="spacingAndGlyphs" textLength="30" x="290.5" y="315.6479">value</text><rect fill="none" height="6" style="stroke: #C82930; stroke-width: 1.0;" width="6" x="278.5" y="323.1445"/><text fill="#000000" font-family="sans-serif" font-size="11" lengthAdjust="spacingAndGlyphs" textLength="120" x="290.5" y="328.4526">reachedBeneficiaries</text><rect fill="none" height="6" style="stroke: #C82930; stroke-width: 1.0;" width="6" x="278.5" y="335.9492"/><text fill="#000000" font-family="sans-serif" font-size="11" lengthAdjust="spacingAndGlyphs" textLength="32" x="290.5" y="341.2573">notes</text><line style="stroke: #A80036; stroke-width: 1.5;" x1="271.5" x2="419.5" y1="347.8516" y2="347.8516"/><!--class Distribution--><rect fill="#FEFECE" filter="url(#f1c7p5wa61vha3)" height="48" id="Distribution" style="stroke: #A80036; stroke-width: 1.5;" width="104" x="154.5" y="416"/><ellipse cx="169.5" cy="432" fill="#ADD1B2" rx="11" ry="11" style="stroke: #A80036; stroke-width: 1.0;"/><path d="M171.8438,427.6719 L172.0156,427.75 C172.2344,427.4375 172.4375,427.3438 172.7344,427.3438 C173.0313,427.3438 173.3125,427.4844 173.4688,427.75 C173.5625,427.9063 173.5781,428.0313 173.5781,428.4688 L173.5781,429.8906 C173.5781,430.3125 173.5469,430.5 173.4375,430.6563 C173.2656,430.875 173,431.0156 172.7344,431.0156 C172.5156,431.0156 172.2813,430.9063 172.1406,430.7656 C172,430.6406 171.9688,430.5156 171.9063,430.1094 C171.8125,429.7031 171.6406,429.4844 171.1563,429.2031 C170.6875,428.9531 170.0781,428.7969 169.5,428.7969 C167.7656,428.7969 166.5156,430.1094 166.5156,431.8906 L166.5156,432.9844 C166.5156,434.6875 167.8125,435.7813 169.8594,435.7813 C170.625,435.7813 171.3125,435.6563 171.7344,435.3906 C171.9219,435.2969 171.9219,435.2969 172.375,434.8125 C172.5625,434.625 172.7656,434.5469 172.9844,434.5469 C173.4531,434.5469 173.8438,434.9375 173.8438,435.3906 C173.8438,435.7813 173.5156,436.2344 172.9375,436.6406 C172.1875,437.1875 171.0313,437.4844 169.8125,437.4844 C166.9219,437.4844 164.8125,435.5938 164.8125,433.0156 L164.8125,431.8906 C164.8125,429.1719 166.8125,427.0938 169.4375,427.0938 C170.3125,427.0938 170.9063,427.2344 171.8438,427.6719 Z "/><text fill="#000000" font-family="sans-serif" font-size="12" lengthAdjust="spacingAndGlyphs" textLength="72" x="183.5" y="436.1543">Distribution</text><line style="stroke: #A80036; stroke-width: 1.5;" x1="155.5" x2="257.5" y1="448" y2="448"/><line style="stroke: #A80036; stroke-width: 1.5;" x1="155.5" x2="257.5" y1="456" y2="456"/><!--class Booklet--><rect fill="#FEFECE" filter="url(#f1c7p5wa61vha3)" height="48" id="Booklet" style="stroke: #A80036; stroke-width: 1.5;" width="79" x="6" y="524"/><ellipse cx="21" cy="540" fill="#ADD1B2" rx="11" ry="11" style="stroke: #A80036; stroke-width: 1.0;"/><path d="M23.3438,535.6719 L23.5156,535.75 C23.7344,535.4375 23.9375,535.3438 24.2344,535.3438 C24.5313,535.3438 24.8125,535.4844 24.9688,535.75 C25.0625,535.9063 25.0781,536.0313 25.0781,536.4688 L25.0781,537.8906 C25.0781,538.3125 25.0469,538.5 24.9375,538.6563 C24.7656,538.875 24.5,539.0156 24.2344,539.0156 C24.0156,539.0156 23.7813,538.9063 23.6406,538.7656 C23.5,538.6406 23.4688,538.5156 23.4063,538.1094 C23.3125,537.7031 23.1406,537.4844 22.6563,537.2031 C22.1875,536.9531 21.5781,536.7969 21,536.7969 C19.2656,536.7969 18.0156,538.1094 18.0156,539.8906 L18.0156,540.9844 C18.0156,542.6875 19.3125,543.7813 21.3594,543.7813 C22.125,543.7813 22.8125,543.6563 23.2344,543.3906 C23.4219,543.2969 23.4219,543.2969 23.875,542.8125 C24.0625,542.625 24.2656,542.5469 24.4844,542.5469 C24.9531,542.5469 25.3438,542.9375 25.3438,543.3906 C25.3438,543.7813 25.0156,544.2344 24.4375,544.6406 C23.6875,545.1875 22.5313,545.4844 21.3125,545.4844 C18.4219,545.4844 16.3125,543.5938 16.3125,541.0156 L16.3125,539.8906 C16.3125,537.1719 18.3125,535.0938 20.9375,535.0938 C21.8125,535.0938 22.4063,535.2344 23.3438,535.6719 Z "/><text fill="#000000" font-family="sans-serif" font-size="12" lengthAdjust="spacingAndGlyphs" textLength="47" x="35" y="544.1543">Booklet</text><line style="stroke: #A80036; stroke-width: 1.5;" x1="7" x2="84" y1="556" y2="556"/><line style="stroke: #A80036; stroke-width: 1.5;" x1="7" x2="84" y1="564" y2="564"/><!--class Beneficiary--><rect fill="#FEFECE" filter="url(#f1c7p5wa61vha3)" height="48" id="Beneficiary" style="stroke: #A80036; stroke-width: 1.5;" width="100" x="156.5" y="632"/><ellipse cx="171.5" cy="648" fill="#ADD1B2" rx="11" ry="11" style="stroke: #A80036; stroke-width: 1.0;"/><path d="M173.8438,643.6719 L174.0156,643.75 C174.2344,643.4375 174.4375,643.3438 174.7344,643.3438 C175.0313,643.3438 175.3125,643.4844 175.4688,643.75 C175.5625,643.9063 175.5781,644.0313 175.5781,644.4688 L175.5781,645.8906 C175.5781,646.3125 175.5469,646.5 175.4375,646.6563 C175.2656,646.875 175,647.0156 174.7344,647.0156 C174.5156,647.0156 174.2813,646.9063 174.1406,646.7656 C174,646.6406 173.9688,646.5156 173.9063,646.1094 C173.8125,645.7031 173.6406,645.4844 173.1563,645.2031 C172.6875,644.9531 172.0781,644.7969 171.5,644.7969 C169.7656,644.7969 168.5156,646.1094 168.5156,647.8906 L168.5156,648.9844 C168.5156,650.6875 169.8125,651.7813 171.8594,651.7813 C172.625,651.7813 173.3125,651.6563 173.7344,651.3906 C173.9219,651.2969 173.9219,651.2969 174.375,650.8125 C174.5625,650.625 174.7656,650.5469 174.9844,650.5469 C175.4531,650.5469 175.8438,650.9375 175.8438,651.3906 C175.8438,651.7813 175.5156,652.2344 174.9375,652.6406 C174.1875,653.1875 173.0313,653.4844 171.8125,653.4844 C168.9219,653.4844 166.8125,651.5938 166.8125,649.0156 L166.8125,647.8906 C166.8125,645.1719 168.8125,643.0938 171.4375,643.0938 C172.3125,643.0938 172.9063,643.2344 173.8438,643.6719 Z "/><text fill="#000000" font-family="sans-serif" font-size="12" lengthAdjust="spacingAndGlyphs" textLength="68" x="185.5" y="652.1543">Beneficiary</text><line style="stroke: #A80036; stroke-width: 1.5;" x1="157.5" x2="255.5" y1="664" y2="664"/><line style="stroke: #A80036; stroke-width: 1.5;" x1="157.5" x2="255.5" y1="672" y2="672"/><!--class DistributionBeneficiary--><rect fill="#FEFECE" filter="url(#f1c7p5wa61vha3)" height="48" id="DistributionBeneficiary" style="stroke: #A80036; stroke-width: 1.5;" width="172" x="120.5" y="524"/><ellipse cx="135.5" cy="540" fill="#ADD1B2" rx="11" ry="11" style="stroke: #A80036; stroke-width: 1.0;"/><path d="M137.8438,535.6719 L138.0156,535.75 C138.2344,535.4375 138.4375,535.3438 138.7344,535.3438 C139.0313,535.3438 139.3125,535.4844 139.4688,535.75 C139.5625,535.9063 139.5781,536.0313 139.5781,536.4688 L139.5781,537.8906 C139.5781,538.3125 139.5469,538.5 139.4375,538.6563 C139.2656,538.875 139,539.0156 138.7344,539.0156 C138.5156,539.0156 138.2813,538.9063 138.1406,538.7656 C138,538.6406 137.9688,538.5156 137.9063,538.1094 C137.8125,537.7031 137.6406,537.4844 137.1563,537.2031 C136.6875,536.9531 136.0781,536.7969 135.5,536.7969 C133.7656,536.7969 132.5156,538.1094 132.5156,539.8906 L132.5156,540.9844 C132.5156,542.6875 133.8125,543.7813 135.8594,543.7813 C136.625,543.7813 137.3125,543.6563 137.7344,543.3906 C137.9219,543.2969 137.9219,543.2969 138.375,542.8125 C138.5625,542.625 138.7656,542.5469 138.9844,542.5469 C139.4531,542.5469 139.8438,542.9375 139.8438,543.3906 C139.8438,543.7813 139.5156,544.2344 138.9375,544.6406 C138.1875,545.1875 137.0313,545.4844 135.8125,545.4844 C132.9219,545.4844 130.8125,543.5938 130.8125,541.0156 L130.8125,539.8906 C130.8125,537.1719 132.8125,535.0938 135.4375,535.0938 C136.3125,535.0938 136.9063,535.2344 137.8438,535.6719 Z "/><text fill="#000000" font-family="sans-serif" font-size="12" lengthAdjust="spacingAndGlyphs" textLength="140" x="149.5" y="544.1543">DistributionBeneficiary</text><line style="stroke: #A80036; stroke-width: 1.5;" x1="121.5" x2="291.5" y1="556" y2="556"/><line style="stroke: #A80036; stroke-width: 1.5;" x1="121.5" x2="291.5" y1="564" y2="564"/><!--class Household--><rect fill="#FEFECE" filter="url(#f1c7p5wa61vha3)" height="48" id="Household" style="stroke: #A80036; stroke-width: 1.5;" width="99" x="226" y="740"/><ellipse cx="241" cy="756" fill="#ADD1B2" rx="11" ry="11" style="stroke: #A80036; stroke-width: 1.0;"/><path d="M243.3438,751.6719 L243.5156,751.75 C243.7344,751.4375 243.9375,751.3438 244.2344,751.3438 C244.5313,751.3438 244.8125,751.4844 244.9688,751.75 C245.0625,751.9063 245.0781,752.0313 245.0781,752.4688 L245.0781,753.8906 C245.0781,754.3125 245.0469,754.5 244.9375,754.6563 C244.7656,754.875 244.5,755.0156 244.2344,755.0156 C244.0156,755.0156 243.7813,754.9063 243.6406,754.7656 C243.5,754.6406 243.4688,754.5156 243.4063,754.1094 C243.3125,753.7031 243.1406,753.4844 242.6563,753.2031 C242.1875,752.9531 241.5781,752.7969 241,752.7969 C239.2656,752.7969 238.0156,754.1094 238.0156,755.8906 L238.0156,756.9844 C238.0156,758.6875 239.3125,759.7813 241.3594,759.7813 C242.125,759.7813 242.8125,759.6563 243.2344,759.3906 C243.4219,759.2969 243.4219,759.2969 243.875,758.8125 C244.0625,758.625 244.2656,758.5469 244.4844,758.5469 C244.9531,758.5469 245.3438,758.9375 245.3438,759.3906 C245.3438,759.7813 245.0156,760.2344 244.4375,760.6406 C243.6875,761.1875 242.5313,761.4844 241.3125,761.4844 C238.4219,761.4844 236.3125,759.5938 236.3125,757.0156 L236.3125,755.8906 C236.3125,753.1719 238.3125,751.0938 240.9375,751.0938 C241.8125,751.0938 242.4063,751.2344 243.3438,751.6719 Z "/><text fill="#000000" font-family="sans-serif" font-size="12" lengthAdjust="spacingAndGlyphs" textLength="67" x="255" y="760.1543">Household</text><line style="stroke: #A80036; stroke-width: 1.5;" x1="227" x2="324" y1="772" y2="772"/><line style="stroke: #A80036; stroke-width: 1.5;" x1="227" x2="324" y1="780" y2="780"/><!--class User--><rect fill="#FEFECE" filter="url(#f1c7p5wa61vha3)" height="48" id="User" style="stroke: #A80036; stroke-width: 1.5;" width="61" x="399" y="416"/><ellipse cx="414" cy="432" fill="#ADD1B2" rx="11" ry="11" style="stroke: #A80036; stroke-width: 1.0;"/><path d="M416.3438,427.6719 L416.5156,427.75 C416.7344,427.4375 416.9375,427.3438 417.2344,427.3438 C417.5313,427.3438 417.8125,427.4844 417.9688,427.75 C418.0625,427.9063 418.0781,428.0313 418.0781,428.4688 L418.0781,429.8906 C418.0781,430.3125 418.0469,430.5 417.9375,430.6563 C417.7656,430.875 417.5,431.0156 417.2344,431.0156 C417.0156,431.0156 416.7813,430.9063 416.6406,430.7656 C416.5,430.6406 416.4688,430.5156 416.4063,430.1094 C416.3125,429.7031 416.1406,429.4844 415.6563,429.2031 C415.1875,428.9531 414.5781,428.7969 414,428.7969 C412.2656,428.7969 411.0156,430.1094 411.0156,431.8906 L411.0156,432.9844 C411.0156,434.6875 412.3125,435.7813 414.3594,435.7813 C415.125,435.7813 415.8125,435.6563 416.2344,435.3906 C416.4219,435.2969 416.4219,435.2969 416.875,434.8125 C417.0625,434.625 417.2656,434.5469 417.4844,434.5469 C417.9531,434.5469 418.3438,434.9375 418.3438,435.3906 C418.3438,435.7813 418.0156,436.2344 417.4375,436.6406 C416.6875,437.1875 415.5313,437.4844 414.3125,437.4844 C411.4219,437.4844 409.3125,435.5938 409.3125,433.0156 L409.3125,431.8906 C409.3125,429.1719 411.3125,427.0938 413.9375,427.0938 C414.8125,427.0938 415.4063,427.2344 416.3438,427.6719 Z "/><text fill="#000000" font-family="sans-serif" font-size="12" lengthAdjust="spacingAndGlyphs" textLength="29" x="428" y="436.1543">User</text><line style="stroke: #A80036; stroke-width: 1.5;" x1="400" x2="459" y1="448" y2="448"/><line style="stroke: #A80036; stroke-width: 1.5;" x1="400" x2="459" y1="456" y2="456"/><!--link Distribution to Booklet--><path d="M160.696,471.157 C135.27,487.897 104.1331,508.397 80.6441,523.862 " fill="none" id="Distribution-Booklet" style="stroke: #A80036; stroke-width: 1.0;"/><polygon fill="#FFFFFF" points="171.565,464,164.354,463.9587,161.5424,470.5991,168.7534,470.6404,171.565,464" style="stroke: #A80036; stroke-width: 1.0;"/><text fill="#000000" font-family="sans-serif" font-size="13" lengthAdjust="spacingAndGlyphs" textLength="8" x="153.5879" y="484.1558">1</text><text fill="#000000" font-family="sans-serif" font-size="13" lengthAdjust="spacingAndGlyphs" textLength="20" x="67.0873" y="512.8387">0-*</text><!--link Booklet to Beneficiary--><path d="M80.4346,572 C103.878,587.435 135.009,607.931 160.469,624.694 " fill="none" id="Booklet-Beneficiary" style="stroke: #A80036; stroke-width: 1.0;"/><polygon fill="#FFFFFF" points="171.356,631.862,168.5444,625.2216,161.3334,625.2629,164.145,631.9033,171.356,631.862" style="stroke: #A80036; stroke-width: 1.0;"/><text fill="#000000" font-family="sans-serif" font-size="13" lengthAdjust="spacingAndGlyphs" textLength="20" x="66.8241" y="592.1558">0-*</text><text fill="#000000" font-family="sans-serif" font-size="13" lengthAdjust="spacingAndGlyphs" textLength="8" x="153.3254" y="620.8387">1</text><!--link Distribution to DistributionBeneficiary--><path d="M206.5,477.338 C206.5,492.681 206.5,510.098 206.5,523.678 " fill="none" id="Distribution-DistributionBeneficiary" style="stroke: #A80036; stroke-width: 1.0;"/><polygon fill="#A80036" points="206.5,464,202.5,470,206.5,476,210.5,470,206.5,464" style="stroke: #A80036; stroke-width: 1.0;"/><text fill="#000000" font-family="sans-serif" font-size="13" lengthAdjust="spacingAndGlyphs" textLength="8" x="197.475" y="484.1558">1</text><text fill="#000000" font-family="sans-serif" font-size="13" lengthAdjust="spacingAndGlyphs" textLength="20" x="184.0625" y="513.0045">0-*</text><!--link DistributionBeneficiary to Beneficiary--><path d="M206.5,572 C206.5,585.52 206.5,602.922 206.5,618.298 " fill="none" id="DistributionBeneficiary-Beneficiary" style="stroke: #A80036; stroke-width: 1.0;"/><polygon fill="#A80036" points="206.5,631.678,210.5,625.678,206.5,619.678,202.5,625.678,206.5,631.678" style="stroke: #A80036; stroke-width: 1.0;"/><text fill="#000000" font-family="sans-serif" font-size="13" lengthAdjust="spacingAndGlyphs" textLength="20" x="183.9375" y="592.1558">0-*</text><text fill="#000000" font-family="sans-serif" font-size="13" lengthAdjust="spacingAndGlyphs" textLength="8" x="197.525" y="621.0045">1</text><!--link Project to Distribution--><path d="M263.547,366.563 C248.933,385.12 235.078,402.712 224.682,415.912 " fill="none" id="Project-Distribution" style="stroke: #A80036; stroke-width: 1.0;"/><polygon fill="#FFFFFF" points="271.727,356.176,264.8721,358.4144,264.3018,365.6029,271.1567,363.3645,271.727,356.176" style="stroke: #A80036; stroke-width: 1.0;"/><text fill="#000000" font-family="sans-serif" font-size="13" lengthAdjust="spacingAndGlyphs" textLength="8" x="257.7725" y="376.0765">1</text><text fill="#000000" font-family="sans-serif" font-size="13" lengthAdjust="spacingAndGlyphs" textLength="8" x="220.3161" y="404.9015">1</text><!--link Project to Household--><path d="M334.673,369.41 C328.221,429.13 319.376,504.829 309.5,572 C300.559,632.814 287.087,703.9893 280.088,739.8464 " fill="none" id="Project-Household" style="stroke: #A80036; stroke-width: 1.0;"/><polygon fill="#FFFFFF" points="336.095,356.145,331.4776,361.6839,334.8146,368.0765,339.4319,362.5376,336.095,356.145" style="stroke: #A80036; stroke-width: 1.0;"/><text fill="#000000" font-family="sans-serif" font-size="13" lengthAdjust="spacingAndGlyphs" textLength="20" x="314.6093" y="376.0431">1-*</text><text fill="#000000" font-family="sans-serif" font-size="13" lengthAdjust="spacingAndGlyphs" textLength="20" x="283.8262" y="728.8191">0-*</text><!--link Beneficiary to Household--><path d="M228.637,691.0069 C238.978,706.894 251.028,725.4052 260.319,739.6784 " fill="none" id="Beneficiary-Household" style="stroke: #A80036; stroke-width: 1.0;"/><polygon fill="#A80036" points="221.472,680,221.3931,687.2107,228.0188,690.0568,228.0977,682.8461,221.472,680" style="stroke: #A80036; stroke-width: 1.0;"/><text fill="#000000" font-family="sans-serif" font-size="13" lengthAdjust="spacingAndGlyphs" textLength="20" x="202.7461" y="700.1558">1-*</text><text fill="#000000" font-family="sans-serif" font-size="13" lengthAdjust="spacingAndGlyphs" textLength="20" x="234.1811" y="729.005">0-*</text><!--link Sector to Project--><path d="M301.526,107.349 C306.66,125.23 312.657,146.116 318.542,166.61 " fill="none" id="Sector-Project" style="stroke: #A80036; stroke-width: 1.0;"/><polygon fill="#A80036" points="297.869,94.614,295.68,101.4848,301.1805,106.148,303.3694,99.2772,297.869,94.614" style="stroke: #A80036; stroke-width: 1.0;"/><text fill="#000000" font-family="sans-serif" font-size="13" lengthAdjust="spacingAndGlyphs" textLength="20" x="277.9301" y="114.1134">0-*</text><text fill="#000000" font-family="sans-serif" font-size="13" lengthAdjust="spacingAndGlyphs" textLength="8" x="308.1718" y="155.8484">1</text><!--link Donor to Project--><path d="M385.901,119.791 C381.641,134.631 376.989,150.831 372.408,166.787 " fill="none" id="Donor-Project" style="stroke: #A80036; stroke-width: 1.0;"/><polygon fill="#A80036" points="389.534,107.141,384.0336,111.8042,386.2225,118.675,391.723,114.0118,389.534,107.141" style="stroke: #A80036; stroke-width: 1.0;"/><text fill="#000000" font-family="sans-serif" font-size="13" lengthAdjust="spacingAndGlyphs" textLength="20" x="366.1638" y="127.2373">0-*</text><text fill="#000000" font-family="sans-serif" font-size="13" lengthAdjust="spacingAndGlyphs" textLength="8" x="366.1619" y="156.039">1</text><!--link Project to User--><path d="M395.761,368.107 C404.321,386.094 412.404,403.079 418.512,415.912 " fill="none" id="Project-User" style="stroke: #A80036; stroke-width: 1.0;"/><polygon fill="#A80036" points="390.083,356.176,389.0491,363.3126,395.2391,367.0118,396.273,359.8752,390.083,356.176" style="stroke: #A80036; stroke-width: 1.0;"/><text fill="#000000" font-family="sans-serif" font-size="13" lengthAdjust="spacingAndGlyphs" textLength="20" x="372.7308" y="376.0765">0-*</text><text fill="#000000" font-family="sans-serif" font-size="13" lengthAdjust="spacingAndGlyphs" textLength="20" x="393.1338" y="404.9015">0-*</text><!--
@startuml
class Sector {
    - id
    - name
}

class Donor {
    - id
    - fullname
    - shortname
    - notes
}

class Project {
    - id
    - name
    - sectors
    - startDate
    - endDate
    - numberOfHouseholds
    - donors
    - iso3
    - value
    - reachedBeneficiaries
    - notes
}

 Distribution "1" o- - "0-*" Booklet
 
 Booklet "0-*" - -o "1" Beneficiary

 Distribution "1" *- - "0-*" DistributionBeneficiary
 
 DistributionBeneficiary "0-*" - -* "1" Beneficiary
 
 Project "1" o- - "1" Distribution
 

 Project "1-*" o- - "0-*" Household
 Beneficiary "1-*" *- - "0-*" Household

 
 Sector "0-*" *- - "1" Project
 Donor "0-*" *- - "1" Project

 Project "0-*" *- - "0-*" User
@enduml

PlantUML version 1.2019.05(Sat Apr 20 16:45:36 UTC 2019)
(GPL source distribution)
Java Runtime: Java(TM) SE Runtime Environment
JVM: Java HotSpot(TM) 64-Bit Server VM
Java Version: 1.7.0_25-b15
Operating System: Linux
Default Encoding: UTF-8
Language: en
Country: US
--></g></svg>