<?xml version="1.0" encoding="UTF-8" standalone="no"?><svg xmlns="http://www.w3.org/2000/svg" xmlns:xlink="http://www.w3.org/1999/xlink" contentScriptType="application/ecmascript" contentStyleType="text/css" height="595px" preserveAspectRatio="none" style="width:638px;height:595px;" version="1.1" viewBox="0 0 638 595" width="638px" zoomAndPan="magnify"><defs><filter height="300%" id="fhawqp8hlwk77" width="300%" x="-1" y="-1"><feGaussianBlur result="blurOut" stdDeviation="2.0"/><feColorMatrix in="blurOut" result="blurOut2" type="matrix" values="0 0 0 0 0 0 0 0 0 0 0 0 0 0 0 0 0 0 .4 0"/><feOffset dx="4.0" dy="4.0" in="blurOut2" result="blurOut3"/><feBlend in="SourceGraphic" in2="blurOut3" mode="normal"/></filter></defs><g><!--class TransactionGeneralRelief--><rect fill="#FEFECE" filter="url(#fhawqp8hlwk77)" height="176.0469" id="TransactionGeneralRelief" style="stroke: #A80036; stroke-width: 1.5;" width="189" x="6" y="262"/><ellipse cx="21" cy="278" fill="#ADD1B2" rx="11" ry="11" style="stroke: #A80036; stroke-width: 1.0;"/><path d="M23.3438,273.6719 L23.5156,273.75 C23.7344,273.4375 23.9375,273.3438 24.2344,273.3438 C24.5313,273.3438 24.8125,273.4844 24.9688,273.75 C25.0625,273.9063 25.0781,274.0313 25.0781,274.4688 L25.0781,275.8906 C25.0781,276.3125 25.0469,276.5 24.9375,276.6563 C24.7656,276.875 24.5,277.0156 24.2344,277.0156 C24.0156,277.0156 23.7813,276.9063 23.6406,276.7656 C23.5,276.6406 23.4688,276.5156 23.4063,276.1094 C23.3125,275.7031 23.1406,275.4844 22.6563,275.2031 C22.1875,274.9531 21.5781,274.7969 21,274.7969 C19.2656,274.7969 18.0156,276.1094 18.0156,277.8906 L18.0156,278.9844 C18.0156,280.6875 19.3125,281.7813 21.3594,281.7813 C22.125,281.7813 22.8125,281.6563 23.2344,281.3906 C23.4219,281.2969 23.4219,281.2969 23.875,280.8125 C24.0625,280.625 24.2656,280.5469 24.4844,280.5469 C24.9531,280.5469 25.3438,280.9375 25.3438,281.3906 C25.3438,281.7813 25.0156,282.2344 24.4375,282.6406 C23.6875,283.1875 22.5313,283.4844 21.3125,283.4844 C18.4219,283.4844 16.3125,281.5938 16.3125,279.0156 L16.3125,277.8906 C16.3125,275.1719 18.3125,273.0938 20.9375,273.0938 C21.8125,273.0938 22.4063,273.2344 23.3438,273.6719 Z "/><text fill="#000000" font-family="sans-serif" font-size="12" lengthAdjust="spacingAndGlyphs" textLength="157" x="35" y="282.1543">TransactionGeneralRelief</text><line style="stroke: #A80036; stroke-width: 1.5;" x1="7" x2="194" y1="294" y2="294"/><rect fill="none" height="6" style="stroke: #C82930; stroke-width: 1.0;" width="6" x="14" y="302.9023"/><text fill="#000000" font-family="sans-serif" font-size="11" lengthAdjust="spacingAndGlyphs" textLength="10" x="26" y="308.2104">id</text><rect fill="none" height="6" style="stroke: #C82930; stroke-width: 1.0;" width="6" x="14" y="315.707"/><text fill="#000000" font-family="sans-serif" font-size="11" lengthAdjust="spacingAndGlyphs" textLength="77" x="26" y="321.0151">idTransaction</text><rect fill="none" height="6" style="stroke: #C82930; stroke-width: 1.0;" width="6" x="14" y="328.5117"/><text fill="#000000" font-family="sans-serif" font-size="11" lengthAdjust="spacingAndGlyphs" textLength="91" x="26" y="333.8198">localGivenName</text><rect fill="none" height="6" style="stroke: #C82930; stroke-width: 1.0;" width="6" x="14" y="341.3164"/><text fill="#000000" font-family="sans-serif" font-size="11" lengthAdjust="spacingAndGlyphs" textLength="95" x="26" y="346.6245">localFamilyName</text><rect fill="none" height="6" style="stroke: #C82930; stroke-width: 1.0;" width="6" x="14" y="354.1211"/><text fill="#000000" font-family="sans-serif" font-size="11" lengthAdjust="spacingAndGlyphs" textLength="79" x="26" y="359.4292">enGivenName</text><rect fill="none" height="6" style="stroke: #C82930; stroke-width: 1.0;" width="6" x="14" y="366.9258"/><text fill="#000000" font-family="sans-serif" font-size="11" lengthAdjust="spacingAndGlyphs" textLength="83" x="26" y="372.2339">enFamilyName</text><rect fill="none" height="6" style="stroke: #C82930; stroke-width: 1.0;" width="6" x="14" y="379.7305"/><text fill="#000000" font-family="sans-serif" font-size="11" lengthAdjust="spacingAndGlyphs" textLength="81" x="26" y="385.0386">generalReliefs</text><rect fill="none" height="6" style="stroke: #C82930; stroke-width: 1.0;" width="6" x="14" y="392.5352"/><text fill="#000000" font-family="sans-serif" font-size="11" lengthAdjust="spacingAndGlyphs" textLength="72" x="26" y="397.8433">distributedAt</text><rect fill="none" height="6" style="stroke: #C82930; stroke-width: 1.0;" width="6" x="14" y="405.3398"/><text fill="#000000" font-family="sans-serif" font-size="11" lengthAdjust="spacingAndGlyphs" textLength="37" x="26" y="410.6479">values</text><rect fill="none" height="6" style="stroke: #C82930; stroke-width: 1.0;" width="6" x="14" y="418.1445"/><text fill="#000000" font-family="sans-serif" font-size="11" lengthAdjust="spacingAndGlyphs" textLength="32" x="26" y="423.4526">notes</text><line style="stroke: #A80036; stroke-width: 1.5;" x1="7" x2="194" y1="430.0469" y2="430.0469"/><!--class GeneralRelief--><rect fill="#FEFECE" filter="url(#fhawqp8hlwk77)" height="86.4141" id="GeneralRelief" style="stroke: #A80036; stroke-width: 1.5;" width="115" x="43" y="498"/><ellipse cx="58" cy="514" fill="#ADD1B2" rx="11" ry="11" style="stroke: #A80036; stroke-width: 1.0;"/><path d="M60.3438,509.6719 L60.5156,509.75 C60.7344,509.4375 60.9375,509.3438 61.2344,509.3438 C61.5313,509.3438 61.8125,509.4844 61.9688,509.75 C62.0625,509.9063 62.0781,510.0313 62.0781,510.4688 L62.0781,511.8906 C62.0781,512.3125 62.0469,512.5 61.9375,512.6563 C61.7656,512.875 61.5,513.0156 61.2344,513.0156 C61.0156,513.0156 60.7813,512.9063 60.6406,512.7656 C60.5,512.6406 60.4688,512.5156 60.4063,512.1094 C60.3125,511.7031 60.1406,511.4844 59.6563,511.2031 C59.1875,510.9531 58.5781,510.7969 58,510.7969 C56.2656,510.7969 55.0156,512.1094 55.0156,513.8906 L55.0156,514.9844 C55.0156,516.6875 56.3125,517.7813 58.3594,517.7813 C59.125,517.7813 59.8125,517.6563 60.2344,517.3906 C60.4219,517.2969 60.4219,517.2969 60.875,516.8125 C61.0625,516.625 61.2656,516.5469 61.4844,516.5469 C61.9531,516.5469 62.3438,516.9375 62.3438,517.3906 C62.3438,517.7813 62.0156,518.2344 61.4375,518.6406 C60.6875,519.1875 59.5313,519.4844 58.3125,519.4844 C55.4219,519.4844 53.3125,517.5938 53.3125,515.0156 L53.3125,513.8906 C53.3125,511.1719 55.3125,509.0938 57.9375,509.0938 C58.8125,509.0938 59.4063,509.2344 60.3438,509.6719 Z "/><text fill="#000000" font-family="sans-serif" font-size="12" lengthAdjust="spacingAndGlyphs" textLength="83" x="72" y="518.1543">GeneralRelief</text><line style="stroke: #A80036; stroke-width: 1.5;" x1="44" x2="157" y1="530" y2="530"/><rect fill="none" height="6" style="stroke: #C82930; stroke-width: 1.0;" width="6" x="51" y="538.9023"/><text fill="#000000" font-family="sans-serif" font-size="11" lengthAdjust="spacingAndGlyphs" textLength="10" x="63" y="544.2104">id</text><rect fill="none" height="6" style="stroke: #C82930; stroke-width: 1.0;" width="6" x="51" y="551.707"/><text fill="#000000" font-family="sans-serif" font-size="11" lengthAdjust="spacingAndGlyphs" textLength="32" x="63" y="557.0151">notes</text><rect fill="none" height="6" style="stroke: #C82930; stroke-width: 1.0;" width="6" x="51" y="564.5117"/><text fill="#000000" font-family="sans-serif" font-size="11" lengthAdjust="spacingAndGlyphs" textLength="72" x="63" y="569.8198">distributedAt</text><line style="stroke: #A80036; stroke-width: 1.5;" x1="44" x2="157" y1="576.4141" y2="576.4141"/><!--class TransactionMobileMoney--><rect fill="#FEFECE" filter="url(#fhawqp8hlwk77)" height="176.0469" id="TransactionMobileMoney" style="stroke: #A80036; stroke-width: 1.5;" width="186" x="230.5" y="262"/><ellipse cx="245.5" cy="278" fill="#ADD1B2" rx="11" ry="11" style="stroke: #A80036; stroke-width: 1.0;"/><path d="M247.8438,273.6719 L248.0156,273.75 C248.2344,273.4375 248.4375,273.3438 248.7344,273.3438 C249.0313,273.3438 249.3125,273.4844 249.4688,273.75 C249.5625,273.9063 249.5781,274.0313 249.5781,274.4688 L249.5781,275.8906 C249.5781,276.3125 249.5469,276.5 249.4375,276.6563 C249.2656,276.875 249,277.0156 248.7344,277.0156 C248.5156,277.0156 248.2813,276.9063 248.1406,276.7656 C248,276.6406 247.9688,276.5156 247.9063,276.1094 C247.8125,275.7031 247.6406,275.4844 247.1563,275.2031 C246.6875,274.9531 246.0781,274.7969 245.5,274.7969 C243.7656,274.7969 242.5156,276.1094 242.5156,277.8906 L242.5156,278.9844 C242.5156,280.6875 243.8125,281.7813 245.8594,281.7813 C246.625,281.7813 247.3125,281.6563 247.7344,281.3906 C247.9219,281.2969 247.9219,281.2969 248.375,280.8125 C248.5625,280.625 248.7656,280.5469 248.9844,280.5469 C249.4531,280.5469 249.8438,280.9375 249.8438,281.3906 C249.8438,281.7813 249.5156,282.2344 248.9375,282.6406 C248.1875,283.1875 247.0313,283.4844 245.8125,283.4844 C242.9219,283.4844 240.8125,281.5938 240.8125,279.0156 L240.8125,277.8906 C240.8125,275.1719 242.8125,273.0938 245.4375,273.0938 C246.3125,273.0938 246.9063,273.2344 247.8438,273.6719 Z "/><text fill="#000000" font-family="sans-serif" font-size="12" lengthAdjust="spacingAndGlyphs" textLength="154" x="259.5" y="282.1543">TransactionMobileMoney</text><line style="stroke: #A80036; stroke-width: 1.5;" x1="231.5" x2="415.5" y1="294" y2="294"/><rect fill="none" height="6" style="stroke: #C82930; stroke-width: 1.0;" width="6" x="238.5" y="302.9023"/><text fill="#000000" font-family="sans-serif" font-size="11" lengthAdjust="spacingAndGlyphs" textLength="77" x="250.5" y="308.2104">idTransaction</text><rect fill="none" height="6" style="stroke: #C82930; stroke-width: 1.0;" width="6" x="238.5" y="315.707"/><text fill="#000000" font-family="sans-serif" font-size="11" lengthAdjust="spacingAndGlyphs" textLength="91" x="250.5" y="321.0151">localGivenName</text><rect fill="none" height="6" style="stroke: #C82930; stroke-width: 1.0;" width="6" x="238.5" y="328.5117"/><text fill="#000000" font-family="sans-serif" font-size="11" lengthAdjust="spacingAndGlyphs" textLength="95" x="250.5" y="333.8198">localFamilyName</text><rect fill="none" height="6" style="stroke: #C82930; stroke-width: 1.0;" width="6" x="238.5" y="341.3164"/><text fill="#000000" font-family="sans-serif" font-size="11" lengthAdjust="spacingAndGlyphs" textLength="79" x="250.5" y="346.6245">enGivenName</text><rect fill="none" height="6" style="stroke: #C82930; stroke-width: 1.0;" width="6" x="238.5" y="354.1211"/><text fill="#000000" font-family="sans-serif" font-size="11" lengthAdjust="spacingAndGlyphs" textLength="83" x="250.5" y="359.4292">enFamilyName</text><rect fill="none" height="6" style="stroke: #C82930; stroke-width: 1.0;" width="6" x="238.5" y="366.9258"/><text fill="#000000" font-family="sans-serif" font-size="11" lengthAdjust="spacingAndGlyphs" textLength="42" x="250.5" y="372.2339">phones</text><rect fill="none" height="6" style="stroke: #C82930; stroke-width: 1.0;" width="6" x="238.5" y="379.7305"/><text fill="#000000" font-family="sans-serif" font-size="11" lengthAdjust="spacingAndGlyphs" textLength="29" x="250.5" y="385.0386">state</text><rect fill="none" height="6" style="stroke: #C82930; stroke-width: 1.0;" width="6" x="238.5" y="392.5352"/><text fill="#000000" font-family="sans-serif" font-size="11" lengthAdjust="spacingAndGlyphs" textLength="37" x="250.5" y="397.8433">values</text><rect fill="none" height="6" style="stroke: #C82930; stroke-width: 1.0;" width="6" x="238.5" y="405.3398"/><text fill="#000000" font-family="sans-serif" font-size="11" lengthAdjust="spacingAndGlyphs" textLength="62" x="250.5" y="410.6479">pickupDate</text><rect fill="none" height="6" style="stroke: #C82930; stroke-width: 1.0;" width="6" x="238.5" y="418.1445"/><text fill="#000000" font-family="sans-serif" font-size="11" lengthAdjust="spacingAndGlyphs" textLength="53" x="250.5" y="423.4526">message</text><line style="stroke: #A80036; stroke-width: 1.5;" x1="231.5" x2="415.5" y1="430.0469" y2="430.0469"/><!--class State--><rect fill="#FEFECE" filter="url(#fhawqp8hlwk77)" height="73.6094" id="State" style="stroke: #A80036; stroke-width: 1.5;" width="66" x="290.5" y="504"/><ellipse cx="305.5" cy="520" fill="#ADD1B2" rx="11" ry="11" style="stroke: #A80036; stroke-width: 1.0;"/><path d="M307.8438,515.6719 L308.0156,515.75 C308.2344,515.4375 308.4375,515.3438 308.7344,515.3438 C309.0313,515.3438 309.3125,515.4844 309.4688,515.75 C309.5625,515.9063 309.5781,516.0313 309.5781,516.4688 L309.5781,517.8906 C309.5781,518.3125 309.5469,518.5 309.4375,518.6563 C309.2656,518.875 309,519.0156 308.7344,519.0156 C308.5156,519.0156 308.2813,518.9063 308.1406,518.7656 C308,518.6406 307.9688,518.5156 307.9063,518.1094 C307.8125,517.7031 307.6406,517.4844 307.1563,517.2031 C306.6875,516.9531 306.0781,516.7969 305.5,516.7969 C303.7656,516.7969 302.5156,518.1094 302.5156,519.8906 L302.5156,520.9844 C302.5156,522.6875 303.8125,523.7813 305.8594,523.7813 C306.625,523.7813 307.3125,523.6563 307.7344,523.3906 C307.9219,523.2969 307.9219,523.2969 308.375,522.8125 C308.5625,522.625 308.7656,522.5469 308.9844,522.5469 C309.4531,522.5469 309.8438,522.9375 309.8438,523.3906 C309.8438,523.7813 309.5156,524.2344 308.9375,524.6406 C308.1875,525.1875 307.0313,525.4844 305.8125,525.4844 C302.9219,525.4844 300.8125,523.5938 300.8125,521.0156 L300.8125,519.8906 C300.8125,517.1719 302.8125,515.0938 305.4375,515.0938 C306.3125,515.0938 306.9063,515.2344 307.8438,515.6719 Z "/><text fill="#000000" font-family="sans-serif" font-size="12" lengthAdjust="spacingAndGlyphs" textLength="34" x="319.5" y="524.1543">State</text><line style="stroke: #A80036; stroke-width: 1.5;" x1="291.5" x2="355.5" y1="536" y2="536"/><rect fill="none" height="6" style="stroke: #C82930; stroke-width: 1.0;" width="6" x="298.5" y="544.9023"/><text fill="#000000" font-family="sans-serif" font-size="11" lengthAdjust="spacingAndGlyphs" textLength="10" x="310.5" y="550.2104">id</text><rect fill="none" height="6" style="stroke: #C82930; stroke-width: 1.0;" width="6" x="298.5" y="557.707"/><text fill="#000000" font-family="sans-serif" font-size="11" lengthAdjust="spacingAndGlyphs" textLength="32" x="310.5" y="563.0151">name</text><line style="stroke: #A80036; stroke-width: 1.5;" x1="291.5" x2="355.5" y1="569.6094" y2="569.6094"/><!--class TransactionQRVoucher--><rect fill="#FEFECE" filter="url(#fhawqp8hlwk77)" height="176.0469" id="TransactionQRVoucher" style="stroke: #A80036; stroke-width: 1.5;" width="175" x="452" y="262"/><ellipse cx="467" cy="278" fill="#ADD1B2" rx="11" ry="11" style="stroke: #A80036; stroke-width: 1.0;"/><path d="M469.3438,273.6719 L469.5156,273.75 C469.7344,273.4375 469.9375,273.3438 470.2344,273.3438 C470.5313,273.3438 470.8125,273.4844 470.9688,273.75 C471.0625,273.9063 471.0781,274.0313 471.0781,274.4688 L471.0781,275.8906 C471.0781,276.3125 471.0469,276.5 470.9375,276.6563 C470.7656,276.875 470.5,277.0156 470.2344,277.0156 C470.0156,277.0156 469.7813,276.9063 469.6406,276.7656 C469.5,276.6406 469.4688,276.5156 469.4063,276.1094 C469.3125,275.7031 469.1406,275.4844 468.6563,275.2031 C468.1875,274.9531 467.5781,274.7969 467,274.7969 C465.2656,274.7969 464.0156,276.1094 464.0156,277.8906 L464.0156,278.9844 C464.0156,280.6875 465.3125,281.7813 467.3594,281.7813 C468.125,281.7813 468.8125,281.6563 469.2344,281.3906 C469.4219,281.2969 469.4219,281.2969 469.875,280.8125 C470.0625,280.625 470.2656,280.5469 470.4844,280.5469 C470.9531,280.5469 471.3438,280.9375 471.3438,281.3906 C471.3438,281.7813 471.0156,282.2344 470.4375,282.6406 C469.6875,283.1875 468.5313,283.4844 467.3125,283.4844 C464.4219,283.4844 462.3125,281.5938 462.3125,279.0156 L462.3125,277.8906 C462.3125,275.1719 464.3125,273.0938 466.9375,273.0938 C467.8125,273.0938 468.4063,273.2344 469.3438,273.6719 Z "/><text fill="#000000" font-family="sans-serif" font-size="12" lengthAdjust="spacingAndGlyphs" textLength="143" x="481" y="282.1543">TransactionQRVoucher</text><line style="stroke: #A80036; stroke-width: 1.5;" x1="453" x2="626" y1="294" y2="294"/><rect fill="none" height="6" style="stroke: #C82930; stroke-width: 1.0;" width="6" x="460" y="302.9023"/><text fill="#000000" font-family="sans-serif" font-size="11" lengthAdjust="spacingAndGlyphs" textLength="41" x="472" y="308.2104">booklet</text><rect fill="none" height="6" style="stroke: #C82930; stroke-width: 1.0;" width="6" x="460" y="315.707"/><text fill="#000000" font-family="sans-serif" font-size="11" lengthAdjust="spacingAndGlyphs" textLength="91" x="472" y="321.0151">localGivenName</text><rect fill="none" height="6" style="stroke: #C82930; stroke-width: 1.0;" width="6" x="460" y="328.5117"/><text fill="#000000" font-family="sans-serif" font-size="11" lengthAdjust="spacingAndGlyphs" textLength="95" x="472" y="333.8198">localFamilyName</text><rect fill="none" height="6" style="stroke: #C82930; stroke-width: 1.0;" width="6" x="460" y="341.3164"/><text fill="#000000" font-family="sans-serif" font-size="11" lengthAdjust="spacingAndGlyphs" textLength="79" x="472" y="346.6245">enGivenName</text><rect fill="none" height="6" style="stroke: #C82930; stroke-width: 1.0;" width="6" x="460" y="354.1211"/><text fill="#000000" font-family="sans-serif" font-size="11" lengthAdjust="spacingAndGlyphs" textLength="83" x="472" y="359.4292">enFamilyName</text><rect fill="none" height="6" style="stroke: #C82930; stroke-width: 1.0;" width="6" x="460" y="366.9258"/><text fill="#000000" font-family="sans-serif" font-size="11" lengthAdjust="spacingAndGlyphs" textLength="70" x="472" y="372.2339">bookletCode</text><rect fill="none" height="6" style="stroke: #C82930; stroke-width: 1.0;" width="6" x="460" y="379.7305"/><text fill="#000000" font-family="sans-serif" font-size="11" lengthAdjust="spacingAndGlyphs" textLength="36" x="472" y="385.0386">status</text><rect fill="none" height="6" style="stroke: #C82930; stroke-width: 1.0;" width="6" x="460" y="392.5352"/><text fill="#000000" font-family="sans-serif" font-size="11" lengthAdjust="spacingAndGlyphs" textLength="39" x="472" y="397.8433">usedAt</text><rect fill="none" height="6" style="stroke: #C82930; stroke-width: 1.0;" width="6" x="460" y="405.3398"/><text fill="#000000" font-family="sans-serif" font-size="11" lengthAdjust="spacingAndGlyphs" textLength="30" x="472" y="410.6479">value</text><rect fill="none" height="6" style="stroke: #C82930; stroke-width: 1.0;" width="6" x="460" y="418.1445"/><text fill="#000000" font-family="sans-serif" font-size="11" lengthAdjust="spacingAndGlyphs" textLength="50" x="472" y="423.4526">products</text><line style="stroke: #A80036; stroke-width: 1.5;" x1="453" x2="626" y1="430.0469" y2="430.0469"/><!--class DistributionBeneficiary--><rect fill="#FEFECE" filter="url(#fhawqp8hlwk77)" height="86.4141" id="DistributionBeneficiary" style="stroke: #A80036; stroke-width: 1.5;" width="172" x="251.5" y="116"/><ellipse cx="266.5" cy="132" fill="#ADD1B2" rx="11" ry="11" style="stroke: #A80036; stroke-width: 1.0;"/><path d="M268.8438,127.6719 L269.0156,127.75 C269.2344,127.4375 269.4375,127.3438 269.7344,127.3438 C270.0313,127.3438 270.3125,127.4844 270.4688,127.75 C270.5625,127.9063 270.5781,128.0313 270.5781,128.4688 L270.5781,129.8906 C270.5781,130.3125 270.5469,130.5 270.4375,130.6563 C270.2656,130.875 270,131.0156 269.7344,131.0156 C269.5156,131.0156 269.2813,130.9063 269.1406,130.7656 C269,130.6406 268.9688,130.5156 268.9063,130.1094 C268.8125,129.7031 268.6406,129.4844 268.1563,129.2031 C267.6875,128.9531 267.0781,128.7969 266.5,128.7969 C264.7656,128.7969 263.5156,130.1094 263.5156,131.8906 L263.5156,132.9844 C263.5156,134.6875 264.8125,135.7813 266.8594,135.7813 C267.625,135.7813 268.3125,135.6563 268.7344,135.3906 C268.9219,135.2969 268.9219,135.2969 269.375,134.8125 C269.5625,134.625 269.7656,134.5469 269.9844,134.5469 C270.4531,134.5469 270.8438,134.9375 270.8438,135.3906 C270.8438,135.7813 270.5156,136.2344 269.9375,136.6406 C269.1875,137.1875 268.0313,137.4844 266.8125,137.4844 C263.9219,137.4844 261.8125,135.5938 261.8125,133.0156 L261.8125,131.8906 C261.8125,129.1719 263.8125,127.0938 266.4375,127.0938 C267.3125,127.0938 267.9063,127.2344 268.8438,127.6719 Z "/><text fill="#000000" font-family="sans-serif" font-size="12" lengthAdjust="spacingAndGlyphs" textLength="140" x="280.5" y="136.1543">DistributionBeneficiary</text><line style="stroke: #A80036; stroke-width: 1.5;" x1="252.5" x2="422.5" y1="148" y2="148"/><rect fill="none" height="6" style="stroke: #C82930; stroke-width: 1.0;" width="6" x="259.5" y="156.9023"/><text fill="#000000" font-family="sans-serif" font-size="11" lengthAdjust="spacingAndGlyphs" textLength="62" x="271.5" y="162.2104">beneficiary</text><rect fill="none" height="6" style="stroke: #C82930; stroke-width: 1.0;" width="6" x="259.5" y="169.707"/><text fill="#000000" font-family="sans-serif" font-size="11" lengthAdjust="spacingAndGlyphs" textLength="50" x="271.5" y="175.0151">removed</text><rect fill="none" height="6" style="stroke: #C82930; stroke-width: 1.0;" width="6" x="259.5" y="182.5117"/><text fill="#000000" font-family="sans-serif" font-size="11" lengthAdjust="spacingAndGlyphs" textLength="65" x="271.5" y="187.8198">justification</text><line style="stroke: #A80036; stroke-width: 1.5;" x1="252.5" x2="422.5" y1="194.4141" y2="194.4141"/><!--class Beneficiary--><rect fill="#FEFECE" filter="url(#fhawqp8hlwk77)" height="48" id="Beneficiary" style="stroke: #A80036; stroke-width: 1.5;" width="100" x="436.5" y="8"/><ellipse cx="451.5" cy="24" fill="#ADD1B2" rx="11" ry="11" style="stroke: #A80036; stroke-width: 1.0;"/><path d="M453.8438,19.6719 L454.0156,19.75 C454.2344,19.4375 454.4375,19.3438 454.7344,19.3438 C455.0313,19.3438 455.3125,19.4844 455.4688,19.75 C455.5625,19.9063 455.5781,20.0313 455.5781,20.4688 L455.5781,21.8906 C455.5781,22.3125 455.5469,22.5 455.4375,22.6563 C455.2656,22.875 455,23.0156 454.7344,23.0156 C454.5156,23.0156 454.2813,22.9063 454.1406,22.7656 C454,22.6406 453.9688,22.5156 453.9063,22.1094 C453.8125,21.7031 453.6406,21.4844 453.1563,21.2031 C452.6875,20.9531 452.0781,20.7969 451.5,20.7969 C449.7656,20.7969 448.5156,22.1094 448.5156,23.8906 L448.5156,24.9844 C448.5156,26.6875 449.8125,27.7813 451.8594,27.7813 C452.625,27.7813 453.3125,27.6563 453.7344,27.3906 C453.9219,27.2969 453.9219,27.2969 454.375,26.8125 C454.5625,26.625 454.7656,26.5469 454.9844,26.5469 C455.4531,26.5469 455.8438,26.9375 455.8438,27.3906 C455.8438,27.7813 455.5156,28.2344 454.9375,28.6406 C454.1875,29.1875 453.0313,29.4844 451.8125,29.4844 C448.9219,29.4844 446.8125,27.5938 446.8125,25.0156 L446.8125,23.8906 C446.8125,21.1719 448.8125,19.0938 451.4375,19.0938 C452.3125,19.0938 452.9063,19.2344 453.8438,19.6719 Z "/><text fill="#000000" font-family="sans-serif" font-size="12" lengthAdjust="spacingAndGlyphs" textLength="68" x="465.5" y="28.1543">Beneficiary</text><line style="stroke: #A80036; stroke-width: 1.5;" x1="437.5" x2="535.5" y1="40" y2="40"/><line style="stroke: #A80036; stroke-width: 1.5;" x1="437.5" x2="535.5" y1="48" y2="48"/><!--class Booklet--><rect fill="#FEFECE" filter="url(#fhawqp8hlwk77)" height="48" id="Booklet" style="stroke: #A80036; stroke-width: 1.5;" width="79" x="486" y="135"/><ellipse cx="501" cy="151" fill="#ADD1B2" rx="11" ry="11" style="stroke: #A80036; stroke-width: 1.0;"/><path d="M503.3438,146.6719 L503.5156,146.75 C503.7344,146.4375 503.9375,146.3438 504.2344,146.3438 C504.5313,146.3438 504.8125,146.4844 504.9688,146.75 C505.0625,146.9063 505.0781,147.0313 505.0781,147.4688 L505.0781,148.8906 C505.0781,149.3125 505.0469,149.5 504.9375,149.6563 C504.7656,149.875 504.5,150.0156 504.2344,150.0156 C504.0156,150.0156 503.7813,149.9063 503.6406,149.7656 C503.5,149.6406 503.4688,149.5156 503.4063,149.1094 C503.3125,148.7031 503.1406,148.4844 502.6563,148.2031 C502.1875,147.9531 501.5781,147.7969 501,147.7969 C499.2656,147.7969 498.0156,149.1094 498.0156,150.8906 L498.0156,151.9844 C498.0156,153.6875 499.3125,154.7813 501.3594,154.7813 C502.125,154.7813 502.8125,154.6563 503.2344,154.3906 C503.4219,154.2969 503.4219,154.2969 503.875,153.8125 C504.0625,153.625 504.2656,153.5469 504.4844,153.5469 C504.9531,153.5469 505.3438,153.9375 505.3438,154.3906 C505.3438,154.7813 505.0156,155.2344 504.4375,155.6406 C503.6875,156.1875 502.5313,156.4844 501.3125,156.4844 C498.4219,156.4844 496.3125,154.5938 496.3125,152.0156 L496.3125,150.8906 C496.3125,148.1719 498.3125,146.0938 500.9375,146.0938 C501.8125,146.0938 502.4063,146.2344 503.3438,146.6719 Z "/><text fill="#000000" font-family="sans-serif" font-size="12" lengthAdjust="spacingAndGlyphs" textLength="47" x="515" y="155.1543">Booklet</text><line style="stroke: #A80036; stroke-width: 1.5;" x1="487" x2="564" y1="167" y2="167"/><line style="stroke: #A80036; stroke-width: 1.5;" x1="487" x2="564" y1="175" y2="175"/><!--class Distribution--><rect fill="#FEFECE" filter="url(#fhawqp8hlwk77)" height="48" id="Distribution" style="stroke: #A80036; stroke-width: 1.5;" width="104" x="285.5" y="8"/><ellipse cx="300.5" cy="24" fill="#ADD1B2" rx="11" ry="11" style="stroke: #A80036; stroke-width: 1.0;"/><path d="M302.8438,19.6719 L303.0156,19.75 C303.2344,19.4375 303.4375,19.3438 303.7344,19.3438 C304.0313,19.3438 304.3125,19.4844 304.4688,19.75 C304.5625,19.9063 304.5781,20.0313 304.5781,20.4688 L304.5781,21.8906 C304.5781,22.3125 304.5469,22.5 304.4375,22.6563 C304.2656,22.875 304,23.0156 303.7344,23.0156 C303.5156,23.0156 303.2813,22.9063 303.1406,22.7656 C303,22.6406 302.9688,22.5156 302.9063,22.1094 C302.8125,21.7031 302.6406,21.4844 302.1563,21.2031 C301.6875,20.9531 301.0781,20.7969 300.5,20.7969 C298.7656,20.7969 297.5156,22.1094 297.5156,23.8906 L297.5156,24.9844 C297.5156,26.6875 298.8125,27.7813 300.8594,27.7813 C301.625,27.7813 302.3125,27.6563 302.7344,27.3906 C302.9219,27.2969 302.9219,27.2969 303.375,26.8125 C303.5625,26.625 303.7656,26.5469 303.9844,26.5469 C304.4531,26.5469 304.8438,26.9375 304.8438,27.3906 C304.8438,27.7813 304.5156,28.2344 303.9375,28.6406 C303.1875,29.1875 302.0313,29.4844 300.8125,29.4844 C297.9219,29.4844 295.8125,27.5938 295.8125,25.0156 L295.8125,23.8906 C295.8125,21.1719 297.8125,19.0938 300.4375,19.0938 C301.3125,19.0938 301.9063,19.2344 302.8438,19.6719 Z "/><text fill="#000000" font-family="sans-serif" font-size="12" lengthAdjust="spacingAndGlyphs" textLength="72" x="314.5" y="28.1543">Distribution</text><line style="stroke: #A80036; stroke-width: 1.5;" x1="286.5" x2="388.5" y1="40" y2="40"/><line style="stroke: #A80036; stroke-width: 1.5;" x1="286.5" x2="388.5" y1="48" y2="48"/><!--link Beneficiary to Booklet--><path d="M497.635,68.688 C504.272,89.961 512.504,116.348 518.295,134.906 " fill="none" id="Beneficiary-Booklet" style="stroke: #A80036; stroke-width: 1.0;"/><polygon fill="#FFFFFF" points="493.744,56.219,491.7131,63.1382,497.3189,67.6741,499.3498,60.7549,493.744,56.219" style="stroke: #A80036; stroke-width: 1.0;"/><text fill="#000000" font-family="sans-serif" font-size="13" lengthAdjust="spacingAndGlyphs" textLength="8" x="486.5347" y="76.0336">1</text><text fill="#000000" font-family="sans-serif" font-size="13" lengthAdjust="spacingAndGlyphs" textLength="20" x="493.8862" y="123.8939">0-*</text><!--link Beneficiary to DistributionBeneficiary--><path d="M448.707,64.706 C430.172,80.255 407.596,99.195 387.64,115.936 " fill="none" id="Beneficiary-DistributionBeneficiary" style="stroke: #A80036; stroke-width: 1.0;"/><polygon fill="#A80036" points="458.823,56.219,451.6554,57.0102,449.629,63.9307,456.7966,63.1395,458.823,56.219" style="stroke: #A80036; stroke-width: 1.0;"/><text fill="#000000" font-family="sans-serif" font-size="13" lengthAdjust="spacingAndGlyphs" textLength="8" x="443.1017" y="76.0336">1</text><text fill="#000000" font-family="sans-serif" font-size="13" lengthAdjust="spacingAndGlyphs" textLength="20" x="374.0373" y="104.9218">0-*</text><!--link Distribution to DistributionBeneficiary--><path d="M337.5,69.354 C337.5,83.934 337.5,100.83 337.5,115.936 " fill="none" id="Distribution-DistributionBeneficiary" style="stroke: #A80036; stroke-width: 1.0;"/><polygon fill="#A80036" points="337.5,56.219,333.5,62.219,337.5,68.219,341.5,62.219,337.5,56.219" style="stroke: #A80036; stroke-width: 1.0;"/><text fill="#000000" font-family="sans-serif" font-size="13" lengthAdjust="spacingAndGlyphs" textLength="8" x="328.525" y="76.0336">1</text><text fill="#000000" font-family="sans-serif" font-size="13" lengthAdjust="spacingAndGlyphs" textLength="20" x="315.9063" y="104.9218">0-*</text><!--link TransactionGeneralRelief to GeneralRelief--><path d="M100.5,451.178 C100.5,467.557 100.5,483.707 100.5,497.6518 " fill="none" id="TransactionGeneralRelief-GeneralRelief" style="stroke: #A80036; stroke-width: 1.0;"/><polygon fill="#A80036" points="100.5,438.032,96.5,444.032,100.5,450.032,104.5,444.032,100.5,438.032" style="stroke: #A80036; stroke-width: 1.0;"/><text fill="#000000" font-family="sans-serif" font-size="13" lengthAdjust="spacingAndGlyphs" textLength="8" x="92.1688" y="458.0137">1</text><text fill="#000000" font-family="sans-serif" font-size="13" lengthAdjust="spacingAndGlyphs" textLength="20" x="78.9688" y="486.9113">0-*</text><!--link TransactionMobileMoney to State--><path d="M323.5,438.032 C323.5,456.015 323.5,474.362 323.5,490.4447 " fill="none" id="TransactionMobileMoney-State" style="stroke: #A80036; stroke-width: 1.0;"/><polygon fill="#A80036" points="323.5,503.929,327.5,497.929,323.5,491.929,319.5,497.929,323.5,503.929" style="stroke: #A80036; stroke-width: 1.0;"/><text fill="#000000" font-family="sans-serif" font-size="13" lengthAdjust="spacingAndGlyphs" textLength="8" x="315.1688" y="458.0137">1</text><text fill="#000000" font-family="sans-serif" font-size="13" lengthAdjust="spacingAndGlyphs" textLength="8" x="314.7625" y="492.8264">1</text><!--link Booklet to TransactionQRVoucher--><path d="M528.196,196.395 C529.579,215.062 531.328,238.673 533.034,261.709 " fill="none" id="Booklet-TransactionQRVoucher" style="stroke: #A80036; stroke-width: 1.0;"/><polygon fill="#A80036" points="527.217,183.175,523.6717,189.4544,528.1045,195.1421,531.6498,188.8627,527.217,183.175" style="stroke: #A80036; stroke-width: 1.0;"/><text fill="#000000" font-family="sans-serif" font-size="13" lengthAdjust="spacingAndGlyphs" textLength="8" x="518.6605" y="202.9789">1</text><text fill="#000000" font-family="sans-serif" font-size="13" lengthAdjust="spacingAndGlyphs" textLength="8" x="524.1673" y="250.8468">1</text><!--link DistributionBeneficiary to TransactionGeneralRelief--><path d="M268.854,214.743 C245.863,233.078 219.809,253.855 195.186,273.491 " fill="none" id="DistributionBeneficiary-TransactionGeneralRelief" style="stroke: #A80036; stroke-width: 1.0;"/><polygon fill="none" points="264.606,209.177,284.608,202.18,273.335,220.123,264.606,209.177" style="stroke: #A80036; stroke-width: 1.0;"/><!--link DistributionBeneficiary to TransactionMobileMoney--><path d="M332.863,222.602 C331.931,235.186 330.935,248.626 329.954,261.871 " fill="none" id="DistributionBeneficiary-TransactionMobileMoney" style="stroke: #A80036; stroke-width: 1.0;"/><polygon fill="none" points="325.9,221.844,334.358,202.415,339.861,222.878,325.9,221.844" style="stroke: #A80036; stroke-width: 1.0;"/><!--link DistributionBeneficiary to TransactionQRVoucher--><path d="M397.376,216.023 C414.487,232.032 433.496,249.818 451.9,267.038 " fill="none" id="DistributionBeneficiary-TransactionQRVoucher" style="stroke: #A80036; stroke-width: 1.0;"/><polygon fill="none" points="392.403,220.956,382.581,202.18,401.968,210.733,392.403,220.956" style="stroke: #A80036; stroke-width: 1.0;"/><!--
@startuml
class TransactionGeneralRelief {
    - id
    - idTransaction
    - localGivenName
    - localFamilyName
    - enGivenName
    - enFamilyName
    - generalReliefs
    - distributedAt
    - values
    - notes
}

class GeneralRelief {
    - id
    - notes
    - distributedAt
}

class TransactionMobileMoney {
    - idTransaction
    - localGivenName
    - localFamilyName
    - enGivenName
    - enFamilyName
    - phones
    - state
    - values
    - pickupDate
    - message
}

class State {
    - id
    - name
}

class TransactionQRVoucher {
    - booklet
    - localGivenName
    - localFamilyName
    - enGivenName
    - enFamilyName
    - bookletCode
    - status
    - usedAt
    - value
    - products
}

class DistributionBeneficiary {
    - beneficiary
    - removed
    - justification
}



 Beneficiary "1" o- - "0-*" Booklet
 
 Beneficiary "1" *- - "0-*" DistributionBeneficiary
 Distribution "1" *- - "0-*" DistributionBeneficiary
 
 TransactionGeneralRelief "1" *- - "0-*" GeneralRelief
 
 
 TransactionMobileMoney "1" - -* "1" State
 
 Booklet "1" *- - "1" TransactionQRVoucher
 

 DistributionBeneficiary <|- - TransactionGeneralRelief
 DistributionBeneficiary <|- - TransactionMobileMoney
 DistributionBeneficiary <|- - TransactionQRVoucher
@enduml

PlantUML version 1.2019.07(Mon Jun 24 19:59:20 UTC 2019)
(GPL source distribution)
Java Runtime: Java(TM) SE Runtime Environment
JVM: Java HotSpot(TM) 64-Bit Server VM
Java Version: 1.7.0_25-b15
Operating System: Linux
Default Encoding: UTF-8
Language: en
Country: US
--></g></svg>