<?xml version="1.0" encoding="UTF-8" standalone="no"?><svg xmlns="http://www.w3.org/2000/svg" xmlns:xlink="http://www.w3.org/1999/xlink" contentScriptType="application/ecmascript" contentStyleType="text/css" height="570px" preserveAspectRatio="none" style="width:637px;height:570px;" version="1.1" viewBox="0 0 637 570" width="637px" zoomAndPan="magnify"><defs><filter height="300%" id="f18ebclym4y9vt" width="300%" x="-1" y="-1"><feGaussianBlur result="blurOut" stdDeviation="2.0"/><feColorMatrix in="blurOut" result="blurOut2" type="matrix" values="0 0 0 0 0 0 0 0 0 0 0 0 0 0 0 0 0 0 .4 0"/><feOffset dx="4.0" dy="4.0" in="blurOut2" result="blurOut3"/><feBlend in="SourceGraphic" in2="blurOut3" mode="normal"/></filter></defs><g><!--class TransactionGeneralRelief--><rect fill="#FEFECE" filter="url(#f18ebclym4y9vt)" height="188.8516" id="TransactionGeneralRelief" style="stroke: #A80036; stroke-width: 1.5;" width="189" x="216" y="224"/><ellipse cx="231" cy="240" fill="#ADD1B2" rx="11" ry="11" style="stroke: #A80036; stroke-width: 1.0;"/><path d="M233.3438,235.6719 L233.5156,235.75 C233.7344,235.4375 233.9375,235.3438 234.2344,235.3438 C234.5313,235.3438 234.8125,235.4844 234.9688,235.75 C235.0625,235.9063 235.0781,236.0313 235.0781,236.4688 L235.0781,237.8906 C235.0781,238.3125 235.0469,238.5 234.9375,238.6563 C234.7656,238.875 234.5,239.0156 234.2344,239.0156 C234.0156,239.0156 233.7813,238.9063 233.6406,238.7656 C233.5,238.6406 233.4688,238.5156 233.4063,238.1094 C233.3125,237.7031 233.1406,237.4844 232.6563,237.2031 C232.1875,236.9531 231.5781,236.7969 231,236.7969 C229.2656,236.7969 228.0156,238.1094 228.0156,239.8906 L228.0156,240.9844 C228.0156,242.6875 229.3125,243.7813 231.3594,243.7813 C232.125,243.7813 232.8125,243.6563 233.2344,243.3906 C233.4219,243.2969 233.4219,243.2969 233.875,242.8125 C234.0625,242.625 234.2656,242.5469 234.4844,242.5469 C234.9531,242.5469 235.3438,242.9375 235.3438,243.3906 C235.3438,243.7813 235.0156,244.2344 234.4375,244.6406 C233.6875,245.1875 232.5313,245.4844 231.3125,245.4844 C228.4219,245.4844 226.3125,243.5938 226.3125,241.0156 L226.3125,239.8906 C226.3125,237.1719 228.3125,235.0938 230.9375,235.0938 C231.8125,235.0938 232.4063,235.2344 233.3438,235.6719 Z "/><text fill="#000000" font-family="sans-serif" font-size="12" lengthAdjust="spacingAndGlyphs" textLength="157" x="245" y="244.1543">TransactionGeneralRelief</text><line style="stroke: #A80036; stroke-width: 1.5;" x1="217" x2="404" y1="256" y2="256"/><rect fill="none" height="6" style="stroke: #C82930; stroke-width: 1.0;" width="6" x="224" y="264.9023"/><text fill="#000000" font-family="sans-serif" font-size="11" lengthAdjust="spacingAndGlyphs" textLength="10" x="236" y="270.2104">id</text><rect fill="none" height="6" style="stroke: #C82930; stroke-width: 1.0;" width="6" x="224" y="277.707"/><text fill="#000000" font-family="sans-serif" font-size="11" lengthAdjust="spacingAndGlyphs" textLength="77" x="236" y="283.0151">idTransaction</text><rect fill="none" height="6" style="stroke: #C82930; stroke-width: 1.0;" width="6" x="224" y="290.5117"/><text fill="#000000" font-family="sans-serif" font-size="11" lengthAdjust="spacingAndGlyphs" textLength="62" x="236" y="295.8198">beneficiary</text><rect fill="none" height="6" style="stroke: #C82930; stroke-width: 1.0;" width="6" x="224" y="303.3164"/><text fill="#000000" font-family="sans-serif" font-size="11" lengthAdjust="spacingAndGlyphs" textLength="91" x="236" y="308.6245">localGivenName</text><rect fill="none" height="6" style="stroke: #C82930; stroke-width: 1.0;" width="6" x="224" y="316.1211"/><text fill="#000000" font-family="sans-serif" font-size="11" lengthAdjust="spacingAndGlyphs" textLength="95" x="236" y="321.4292">localFamilyName</text><rect fill="none" height="6" style="stroke: #C82930; stroke-width: 1.0;" width="6" x="224" y="328.9258"/><text fill="#000000" font-family="sans-serif" font-size="11" lengthAdjust="spacingAndGlyphs" textLength="79" x="236" y="334.2339">enGivenName</text><rect fill="none" height="6" style="stroke: #C82930; stroke-width: 1.0;" width="6" x="224" y="341.7305"/><text fill="#000000" font-family="sans-serif" font-size="11" lengthAdjust="spacingAndGlyphs" textLength="83" x="236" y="347.0386">enFamilyName</text><rect fill="none" height="6" style="stroke: #C82930; stroke-width: 1.0;" width="6" x="224" y="354.5352"/><text fill="#000000" font-family="sans-serif" font-size="11" lengthAdjust="spacingAndGlyphs" textLength="81" x="236" y="359.8433">generalReliefs</text><rect fill="none" height="6" style="stroke: #C82930; stroke-width: 1.0;" width="6" x="224" y="367.3398"/><text fill="#000000" font-family="sans-serif" font-size="11" lengthAdjust="spacingAndGlyphs" textLength="72" x="236" y="372.6479">distributedAt</text><rect fill="none" height="6" style="stroke: #C82930; stroke-width: 1.0;" width="6" x="224" y="380.1445"/><text fill="#000000" font-family="sans-serif" font-size="11" lengthAdjust="spacingAndGlyphs" textLength="37" x="236" y="385.4526">values</text><rect fill="none" height="6" style="stroke: #C82930; stroke-width: 1.0;" width="6" x="224" y="392.9492"/><text fill="#000000" font-family="sans-serif" font-size="11" lengthAdjust="spacingAndGlyphs" textLength="32" x="236" y="398.2573">notes</text><line style="stroke: #A80036; stroke-width: 1.5;" x1="217" x2="404" y1="404.8516" y2="404.8516"/><!--class GeneralRelief--><rect fill="#FEFECE" filter="url(#f18ebclym4y9vt)" height="86.4141" id="GeneralRelief" style="stroke: #A80036; stroke-width: 1.5;" width="115" x="253" y="473"/><ellipse cx="268" cy="489" fill="#ADD1B2" rx="11" ry="11" style="stroke: #A80036; stroke-width: 1.0;"/><path d="M270.3438,484.6719 L270.5156,484.75 C270.7344,484.4375 270.9375,484.3438 271.2344,484.3438 C271.5313,484.3438 271.8125,484.4844 271.9688,484.75 C272.0625,484.9063 272.0781,485.0313 272.0781,485.4688 L272.0781,486.8906 C272.0781,487.3125 272.0469,487.5 271.9375,487.6563 C271.7656,487.875 271.5,488.0156 271.2344,488.0156 C271.0156,488.0156 270.7813,487.9063 270.6406,487.7656 C270.5,487.6406 270.4688,487.5156 270.4063,487.1094 C270.3125,486.7031 270.1406,486.4844 269.6563,486.2031 C269.1875,485.9531 268.5781,485.7969 268,485.7969 C266.2656,485.7969 265.0156,487.1094 265.0156,488.8906 L265.0156,489.9844 C265.0156,491.6875 266.3125,492.7813 268.3594,492.7813 C269.125,492.7813 269.8125,492.6563 270.2344,492.3906 C270.4219,492.2969 270.4219,492.2969 270.875,491.8125 C271.0625,491.625 271.2656,491.5469 271.4844,491.5469 C271.9531,491.5469 272.3438,491.9375 272.3438,492.3906 C272.3438,492.7813 272.0156,493.2344 271.4375,493.6406 C270.6875,494.1875 269.5313,494.4844 268.3125,494.4844 C265.4219,494.4844 263.3125,492.5938 263.3125,490.0156 L263.3125,488.8906 C263.3125,486.1719 265.3125,484.0938 267.9375,484.0938 C268.8125,484.0938 269.4063,484.2344 270.3438,484.6719 Z "/><text fill="#000000" font-family="sans-serif" font-size="12" lengthAdjust="spacingAndGlyphs" textLength="83" x="282" y="493.1543">GeneralRelief</text><line style="stroke: #A80036; stroke-width: 1.5;" x1="254" x2="367" y1="505" y2="505"/><rect fill="none" height="6" style="stroke: #C82930; stroke-width: 1.0;" width="6" x="261" y="513.9023"/><text fill="#000000" font-family="sans-serif" font-size="11" lengthAdjust="spacingAndGlyphs" textLength="10" x="273" y="519.2104">id</text><rect fill="none" height="6" style="stroke: #C82930; stroke-width: 1.0;" width="6" x="261" y="526.707"/><text fill="#000000" font-family="sans-serif" font-size="11" lengthAdjust="spacingAndGlyphs" textLength="32" x="273" y="532.0151">notes</text><rect fill="none" height="6" style="stroke: #C82930; stroke-width: 1.0;" width="6" x="261" y="539.5117"/><text fill="#000000" font-family="sans-serif" font-size="11" lengthAdjust="spacingAndGlyphs" textLength="72" x="273" y="544.8198">distributedAt</text><line style="stroke: #A80036; stroke-width: 1.5;" x1="254" x2="367" y1="551.4141" y2="551.4141"/><!--class TransactionMobileMoney--><rect fill="#FEFECE" filter="url(#f18ebclym4y9vt)" height="188.8516" id="TransactionMobileMoney" style="stroke: #A80036; stroke-width: 1.5;" width="186" x="440.5" y="224"/><ellipse cx="455.5" cy="240" fill="#ADD1B2" rx="11" ry="11" style="stroke: #A80036; stroke-width: 1.0;"/><path d="M457.8438,235.6719 L458.0156,235.75 C458.2344,235.4375 458.4375,235.3438 458.7344,235.3438 C459.0313,235.3438 459.3125,235.4844 459.4688,235.75 C459.5625,235.9063 459.5781,236.0313 459.5781,236.4688 L459.5781,237.8906 C459.5781,238.3125 459.5469,238.5 459.4375,238.6563 C459.2656,238.875 459,239.0156 458.7344,239.0156 C458.5156,239.0156 458.2813,238.9063 458.1406,238.7656 C458,238.6406 457.9688,238.5156 457.9063,238.1094 C457.8125,237.7031 457.6406,237.4844 457.1563,237.2031 C456.6875,236.9531 456.0781,236.7969 455.5,236.7969 C453.7656,236.7969 452.5156,238.1094 452.5156,239.8906 L452.5156,240.9844 C452.5156,242.6875 453.8125,243.7813 455.8594,243.7813 C456.625,243.7813 457.3125,243.6563 457.7344,243.3906 C457.9219,243.2969 457.9219,243.2969 458.375,242.8125 C458.5625,242.625 458.7656,242.5469 458.9844,242.5469 C459.4531,242.5469 459.8438,242.9375 459.8438,243.3906 C459.8438,243.7813 459.5156,244.2344 458.9375,244.6406 C458.1875,245.1875 457.0313,245.4844 455.8125,245.4844 C452.9219,245.4844 450.8125,243.5938 450.8125,241.0156 L450.8125,239.8906 C450.8125,237.1719 452.8125,235.0938 455.4375,235.0938 C456.3125,235.0938 456.9063,235.2344 457.8438,235.6719 Z "/><text fill="#000000" font-family="sans-serif" font-size="12" lengthAdjust="spacingAndGlyphs" textLength="154" x="469.5" y="244.1543">TransactionMobileMoney</text><line style="stroke: #A80036; stroke-width: 1.5;" x1="441.5" x2="625.5" y1="256" y2="256"/><rect fill="none" height="6" style="stroke: #C82930; stroke-width: 1.0;" width="6" x="448.5" y="264.9023"/><text fill="#000000" font-family="sans-serif" font-size="11" lengthAdjust="spacingAndGlyphs" textLength="77" x="460.5" y="270.2104">idTransaction</text><rect fill="none" height="6" style="stroke: #C82930; stroke-width: 1.0;" width="6" x="448.5" y="277.707"/><text fill="#000000" font-family="sans-serif" font-size="11" lengthAdjust="spacingAndGlyphs" textLength="62" x="460.5" y="283.0151">beneficiary</text><rect fill="none" height="6" style="stroke: #C82930; stroke-width: 1.0;" width="6" x="448.5" y="290.5117"/><text fill="#000000" font-family="sans-serif" font-size="11" lengthAdjust="spacingAndGlyphs" textLength="91" x="460.5" y="295.8198">localGivenName</text><rect fill="none" height="6" style="stroke: #C82930; stroke-width: 1.0;" width="6" x="448.5" y="303.3164"/><text fill="#000000" font-family="sans-serif" font-size="11" lengthAdjust="spacingAndGlyphs" textLength="95" x="460.5" y="308.6245">localFamilyName</text><rect fill="none" height="6" style="stroke: #C82930; stroke-width: 1.0;" width="6" x="448.5" y="316.1211"/><text fill="#000000" font-family="sans-serif" font-size="11" lengthAdjust="spacingAndGlyphs" textLength="79" x="460.5" y="321.4292">enGivenName</text><rect fill="none" height="6" style="stroke: #C82930; stroke-width: 1.0;" width="6" x="448.5" y="328.9258"/><text fill="#000000" font-family="sans-serif" font-size="11" lengthAdjust="spacingAndGlyphs" textLength="83" x="460.5" y="334.2339">enFamilyName</text><rect fill="none" height="6" style="stroke: #C82930; stroke-width: 1.0;" width="6" x="448.5" y="341.7305"/><text fill="#000000" font-family="sans-serif" font-size="11" lengthAdjust="spacingAndGlyphs" textLength="42" x="460.5" y="347.0386">phones</text><rect fill="none" height="6" style="stroke: #C82930; stroke-width: 1.0;" width="6" x="448.5" y="354.5352"/><text fill="#000000" font-family="sans-serif" font-size="11" lengthAdjust="spacingAndGlyphs" textLength="29" x="460.5" y="359.8433">state</text><rect fill="none" height="6" style="stroke: #C82930; stroke-width: 1.0;" width="6" x="448.5" y="367.3398"/><text fill="#000000" font-family="sans-serif" font-size="11" lengthAdjust="spacingAndGlyphs" textLength="37" x="460.5" y="372.6479">values</text><rect fill="none" height="6" style="stroke: #C82930; stroke-width: 1.0;" width="6" x="448.5" y="380.1445"/><text fill="#000000" font-family="sans-serif" font-size="11" lengthAdjust="spacingAndGlyphs" textLength="62" x="460.5" y="385.4526">pickupDate</text><rect fill="none" height="6" style="stroke: #C82930; stroke-width: 1.0;" width="6" x="448.5" y="392.9492"/><text fill="#000000" font-family="sans-serif" font-size="11" lengthAdjust="spacingAndGlyphs" textLength="53" x="460.5" y="398.2573">message</text><line style="stroke: #A80036; stroke-width: 1.5;" x1="441.5" x2="625.5" y1="404.8516" y2="404.8516"/><!--class State--><rect fill="#FEFECE" filter="url(#f18ebclym4y9vt)" height="73.6094" id="State" style="stroke: #A80036; stroke-width: 1.5;" width="66" x="500.5" y="479"/><ellipse cx="515.5" cy="495" fill="#ADD1B2" rx="11" ry="11" style="stroke: #A80036; stroke-width: 1.0;"/><path d="M517.8438,490.6719 L518.0156,490.75 C518.2344,490.4375 518.4375,490.3438 518.7344,490.3438 C519.0313,490.3438 519.3125,490.4844 519.4688,490.75 C519.5625,490.9063 519.5781,491.0313 519.5781,491.4688 L519.5781,492.8906 C519.5781,493.3125 519.5469,493.5 519.4375,493.6563 C519.2656,493.875 519,494.0156 518.7344,494.0156 C518.5156,494.0156 518.2813,493.9063 518.1406,493.7656 C518,493.6406 517.9688,493.5156 517.9063,493.1094 C517.8125,492.7031 517.6406,492.4844 517.1563,492.2031 C516.6875,491.9531 516.0781,491.7969 515.5,491.7969 C513.7656,491.7969 512.5156,493.1094 512.5156,494.8906 L512.5156,495.9844 C512.5156,497.6875 513.8125,498.7813 515.8594,498.7813 C516.625,498.7813 517.3125,498.6563 517.7344,498.3906 C517.9219,498.2969 517.9219,498.2969 518.375,497.8125 C518.5625,497.625 518.7656,497.5469 518.9844,497.5469 C519.4531,497.5469 519.8438,497.9375 519.8438,498.3906 C519.8438,498.7813 519.5156,499.2344 518.9375,499.6406 C518.1875,500.1875 517.0313,500.4844 515.8125,500.4844 C512.9219,500.4844 510.8125,498.5938 510.8125,496.0156 L510.8125,494.8906 C510.8125,492.1719 512.8125,490.0938 515.4375,490.0938 C516.3125,490.0938 516.9063,490.2344 517.8438,490.6719 Z "/><text fill="#000000" font-family="sans-serif" font-size="12" lengthAdjust="spacingAndGlyphs" textLength="34" x="529.5" y="499.1543">State</text><line style="stroke: #A80036; stroke-width: 1.5;" x1="501.5" x2="565.5" y1="511" y2="511"/><rect fill="none" height="6" style="stroke: #C82930; stroke-width: 1.0;" width="6" x="508.5" y="519.9023"/><text fill="#000000" font-family="sans-serif" font-size="11" lengthAdjust="spacingAndGlyphs" textLength="10" x="520.5" y="525.2104">id</text><rect fill="none" height="6" style="stroke: #C82930; stroke-width: 1.0;" width="6" x="508.5" y="532.707"/><text fill="#000000" font-family="sans-serif" font-size="11" lengthAdjust="spacingAndGlyphs" textLength="32" x="520.5" y="538.0151">name</text><line style="stroke: #A80036; stroke-width: 1.5;" x1="501.5" x2="565.5" y1="544.6094" y2="544.6094"/><!--class TransactionQRVoucher--><rect fill="#FEFECE" filter="url(#f18ebclym4y9vt)" height="176.0469" id="TransactionQRVoucher" style="stroke: #A80036; stroke-width: 1.5;" width="175" x="6" y="230.5"/><ellipse cx="21" cy="246.5" fill="#ADD1B2" rx="11" ry="11" style="stroke: #A80036; stroke-width: 1.0;"/><path d="M23.3438,242.1719 L23.5156,242.25 C23.7344,241.9375 23.9375,241.8438 24.2344,241.8438 C24.5313,241.8438 24.8125,241.9844 24.9688,242.25 C25.0625,242.4063 25.0781,242.5313 25.0781,242.9688 L25.0781,244.3906 C25.0781,244.8125 25.0469,245 24.9375,245.1563 C24.7656,245.375 24.5,245.5156 24.2344,245.5156 C24.0156,245.5156 23.7813,245.4063 23.6406,245.2656 C23.5,245.1406 23.4688,245.0156 23.4063,244.6094 C23.3125,244.2031 23.1406,243.9844 22.6563,243.7031 C22.1875,243.4531 21.5781,243.2969 21,243.2969 C19.2656,243.2969 18.0156,244.6094 18.0156,246.3906 L18.0156,247.4844 C18.0156,249.1875 19.3125,250.2813 21.3594,250.2813 C22.125,250.2813 22.8125,250.1563 23.2344,249.8906 C23.4219,249.7969 23.4219,249.7969 23.875,249.3125 C24.0625,249.125 24.2656,249.0469 24.4844,249.0469 C24.9531,249.0469 25.3438,249.4375 25.3438,249.8906 C25.3438,250.2813 25.0156,250.7344 24.4375,251.1406 C23.6875,251.6875 22.5313,251.9844 21.3125,251.9844 C18.4219,251.9844 16.3125,250.0938 16.3125,247.5156 L16.3125,246.3906 C16.3125,243.6719 18.3125,241.5938 20.9375,241.5938 C21.8125,241.5938 22.4063,241.7344 23.3438,242.1719 Z "/><text fill="#000000" font-family="sans-serif" font-size="12" lengthAdjust="spacingAndGlyphs" textLength="143" x="35" y="250.6543">TransactionQRVoucher</text><line style="stroke: #A80036; stroke-width: 1.5;" x1="7" x2="180" y1="262.5" y2="262.5"/><rect fill="none" height="6" style="stroke: #C82930; stroke-width: 1.0;" width="6" x="14" y="271.4023"/><text fill="#000000" font-family="sans-serif" font-size="11" lengthAdjust="spacingAndGlyphs" textLength="62" x="26" y="276.7104">beneficiary</text><rect fill="none" height="6" style="stroke: #C82930; stroke-width: 1.0;" width="6" x="14" y="284.207"/><text fill="#000000" font-family="sans-serif" font-size="11" lengthAdjust="spacingAndGlyphs" textLength="41" x="26" y="289.5151">booklet</text><rect fill="none" height="6" style="stroke: #C82930; stroke-width: 1.0;" width="6" x="14" y="297.0117"/><text fill="#000000" font-family="sans-serif" font-size="11" lengthAdjust="spacingAndGlyphs" textLength="91" x="26" y="302.3198">localGivenName</text><rect fill="none" height="6" style="stroke: #C82930; stroke-width: 1.0;" width="6" x="14" y="309.8164"/><text fill="#000000" font-family="sans-serif" font-size="11" lengthAdjust="spacingAndGlyphs" textLength="95" x="26" y="315.1245">localFamilyName</text><rect fill="none" height="6" style="stroke: #C82930; stroke-width: 1.0;" width="6" x="14" y="322.6211"/><text fill="#000000" font-family="sans-serif" font-size="11" lengthAdjust="spacingAndGlyphs" textLength="79" x="26" y="327.9292">enGivenName</text><rect fill="none" height="6" style="stroke: #C82930; stroke-width: 1.0;" width="6" x="14" y="335.4258"/><text fill="#000000" font-family="sans-serif" font-size="11" lengthAdjust="spacingAndGlyphs" textLength="83" x="26" y="340.7339">enFamilyName</text><rect fill="none" height="6" style="stroke: #C82930; stroke-width: 1.0;" width="6" x="14" y="348.2305"/><text fill="#000000" font-family="sans-serif" font-size="11" lengthAdjust="spacingAndGlyphs" textLength="70" x="26" y="353.5386">bookletCode</text><rect fill="none" height="6" style="stroke: #C82930; stroke-width: 1.0;" width="6" x="14" y="361.0352"/><text fill="#000000" font-family="sans-serif" font-size="11" lengthAdjust="spacingAndGlyphs" textLength="36" x="26" y="366.3433">status</text><rect fill="none" height="6" style="stroke: #C82930; stroke-width: 1.0;" width="6" x="14" y="373.8398"/><text fill="#000000" font-family="sans-serif" font-size="11" lengthAdjust="spacingAndGlyphs" textLength="39" x="26" y="379.1479">usedAt</text><rect fill="none" height="6" style="stroke: #C82930; stroke-width: 1.0;" width="6" x="14" y="386.6445"/><text fill="#000000" font-family="sans-serif" font-size="11" lengthAdjust="spacingAndGlyphs" textLength="30" x="26" y="391.9526">value</text><line style="stroke: #A80036; stroke-width: 1.5;" x1="7" x2="180" y1="398.5469" y2="398.5469"/><!--class Beneficiary--><rect fill="#FEFECE" filter="url(#f18ebclym4y9vt)" height="48" id="Beneficiary" style="stroke: #A80036; stroke-width: 1.5;" width="100" x="69.5" y="8"/><ellipse cx="84.5" cy="24" fill="#ADD1B2" rx="11" ry="11" style="stroke: #A80036; stroke-width: 1.0;"/><path d="M86.8438,19.6719 L87.0156,19.75 C87.2344,19.4375 87.4375,19.3438 87.7344,19.3438 C88.0313,19.3438 88.3125,19.4844 88.4688,19.75 C88.5625,19.9063 88.5781,20.0313 88.5781,20.4688 L88.5781,21.8906 C88.5781,22.3125 88.5469,22.5 88.4375,22.6563 C88.2656,22.875 88,23.0156 87.7344,23.0156 C87.5156,23.0156 87.2813,22.9063 87.1406,22.7656 C87,22.6406 86.9688,22.5156 86.9063,22.1094 C86.8125,21.7031 86.6406,21.4844 86.1563,21.2031 C85.6875,20.9531 85.0781,20.7969 84.5,20.7969 C82.7656,20.7969 81.5156,22.1094 81.5156,23.8906 L81.5156,24.9844 C81.5156,26.6875 82.8125,27.7813 84.8594,27.7813 C85.625,27.7813 86.3125,27.6563 86.7344,27.3906 C86.9219,27.2969 86.9219,27.2969 87.375,26.8125 C87.5625,26.625 87.7656,26.5469 87.9844,26.5469 C88.4531,26.5469 88.8438,26.9375 88.8438,27.3906 C88.8438,27.7813 88.5156,28.2344 87.9375,28.6406 C87.1875,29.1875 86.0313,29.4844 84.8125,29.4844 C81.9219,29.4844 79.8125,27.5938 79.8125,25.0156 L79.8125,23.8906 C79.8125,21.1719 81.8125,19.0938 84.4375,19.0938 C85.3125,19.0938 85.9063,19.2344 86.8438,19.6719 Z "/><text fill="#000000" font-family="sans-serif" font-size="12" lengthAdjust="spacingAndGlyphs" textLength="68" x="98.5" y="28.1543">Beneficiary</text><line style="stroke: #A80036; stroke-width: 1.5;" x1="70.5" x2="168.5" y1="40" y2="40"/><line style="stroke: #A80036; stroke-width: 1.5;" x1="70.5" x2="168.5" y1="48" y2="48"/><!--class Booklet--><rect fill="#FEFECE" filter="url(#f18ebclym4y9vt)" height="48" id="Booklet" style="stroke: #A80036; stroke-width: 1.5;" width="79" x="68" y="116"/><ellipse cx="83" cy="132" fill="#ADD1B2" rx="11" ry="11" style="stroke: #A80036; stroke-width: 1.0;"/><path d="M85.3438,127.6719 L85.5156,127.75 C85.7344,127.4375 85.9375,127.3438 86.2344,127.3438 C86.5313,127.3438 86.8125,127.4844 86.9688,127.75 C87.0625,127.9063 87.0781,128.0313 87.0781,128.4688 L87.0781,129.8906 C87.0781,130.3125 87.0469,130.5 86.9375,130.6563 C86.7656,130.875 86.5,131.0156 86.2344,131.0156 C86.0156,131.0156 85.7813,130.9063 85.6406,130.7656 C85.5,130.6406 85.4688,130.5156 85.4063,130.1094 C85.3125,129.7031 85.1406,129.4844 84.6563,129.2031 C84.1875,128.9531 83.5781,128.7969 83,128.7969 C81.2656,128.7969 80.0156,130.1094 80.0156,131.8906 L80.0156,132.9844 C80.0156,134.6875 81.3125,135.7813 83.3594,135.7813 C84.125,135.7813 84.8125,135.6563 85.2344,135.3906 C85.4219,135.2969 85.4219,135.2969 85.875,134.8125 C86.0625,134.625 86.2656,134.5469 86.4844,134.5469 C86.9531,134.5469 87.3438,134.9375 87.3438,135.3906 C87.3438,135.7813 87.0156,136.2344 86.4375,136.6406 C85.6875,137.1875 84.5313,137.4844 83.3125,137.4844 C80.4219,137.4844 78.3125,135.5938 78.3125,133.0156 L78.3125,131.8906 C78.3125,129.1719 80.3125,127.0938 82.9375,127.0938 C83.8125,127.0938 84.4063,127.2344 85.3438,127.6719 Z "/><text fill="#000000" font-family="sans-serif" font-size="12" lengthAdjust="spacingAndGlyphs" textLength="47" x="97" y="136.1543">Booklet</text><line style="stroke: #A80036; stroke-width: 1.5;" x1="69" x2="146" y1="148" y2="148"/><line style="stroke: #A80036; stroke-width: 1.5;" x1="69" x2="146" y1="156" y2="156"/><!--class DistributionBeneficiary--><rect fill="#FEFECE" filter="url(#f18ebclym4y9vt)" height="48" id="DistributionBeneficiary" style="stroke: #A80036; stroke-width: 1.5;" width="172" x="210.5" y="116"/><ellipse cx="225.5" cy="132" fill="#ADD1B2" rx="11" ry="11" style="stroke: #A80036; stroke-width: 1.0;"/><path d="M227.8438,127.6719 L228.0156,127.75 C228.2344,127.4375 228.4375,127.3438 228.7344,127.3438 C229.0313,127.3438 229.3125,127.4844 229.4688,127.75 C229.5625,127.9063 229.5781,128.0313 229.5781,128.4688 L229.5781,129.8906 C229.5781,130.3125 229.5469,130.5 229.4375,130.6563 C229.2656,130.875 229,131.0156 228.7344,131.0156 C228.5156,131.0156 228.2813,130.9063 228.1406,130.7656 C228,130.6406 227.9688,130.5156 227.9063,130.1094 C227.8125,129.7031 227.6406,129.4844 227.1563,129.2031 C226.6875,128.9531 226.0781,128.7969 225.5,128.7969 C223.7656,128.7969 222.5156,130.1094 222.5156,131.8906 L222.5156,132.9844 C222.5156,134.6875 223.8125,135.7813 225.8594,135.7813 C226.625,135.7813 227.3125,135.6563 227.7344,135.3906 C227.9219,135.2969 227.9219,135.2969 228.375,134.8125 C228.5625,134.625 228.7656,134.5469 228.9844,134.5469 C229.4531,134.5469 229.8438,134.9375 229.8438,135.3906 C229.8438,135.7813 229.5156,136.2344 228.9375,136.6406 C228.1875,137.1875 227.0313,137.4844 225.8125,137.4844 C222.9219,137.4844 220.8125,135.5938 220.8125,133.0156 L220.8125,131.8906 C220.8125,129.1719 222.8125,127.0938 225.4375,127.0938 C226.3125,127.0938 226.9063,127.2344 227.8438,127.6719 Z "/><text fill="#000000" font-family="sans-serif" font-size="12" lengthAdjust="spacingAndGlyphs" textLength="140" x="239.5" y="136.1543">DistributionBeneficiary</text><line style="stroke: #A80036; stroke-width: 1.5;" x1="211.5" x2="381.5" y1="148" y2="148"/><line style="stroke: #A80036; stroke-width: 1.5;" x1="211.5" x2="381.5" y1="156" y2="156"/><!--class Distribution--><rect fill="#FEFECE" filter="url(#f18ebclym4y9vt)" height="48" id="Distribution" style="stroke: #A80036; stroke-width: 1.5;" width="104" x="244.5" y="8"/><ellipse cx="259.5" cy="24" fill="#ADD1B2" rx="11" ry="11" style="stroke: #A80036; stroke-width: 1.0;"/><path d="M261.8438,19.6719 L262.0156,19.75 C262.2344,19.4375 262.4375,19.3438 262.7344,19.3438 C263.0313,19.3438 263.3125,19.4844 263.4688,19.75 C263.5625,19.9063 263.5781,20.0313 263.5781,20.4688 L263.5781,21.8906 C263.5781,22.3125 263.5469,22.5 263.4375,22.6563 C263.2656,22.875 263,23.0156 262.7344,23.0156 C262.5156,23.0156 262.2813,22.9063 262.1406,22.7656 C262,22.6406 261.9688,22.5156 261.9063,22.1094 C261.8125,21.7031 261.6406,21.4844 261.1563,21.2031 C260.6875,20.9531 260.0781,20.7969 259.5,20.7969 C257.7656,20.7969 256.5156,22.1094 256.5156,23.8906 L256.5156,24.9844 C256.5156,26.6875 257.8125,27.7813 259.8594,27.7813 C260.625,27.7813 261.3125,27.6563 261.7344,27.3906 C261.9219,27.2969 261.9219,27.2969 262.375,26.8125 C262.5625,26.625 262.7656,26.5469 262.9844,26.5469 C263.4531,26.5469 263.8438,26.9375 263.8438,27.3906 C263.8438,27.7813 263.5156,28.2344 262.9375,28.6406 C262.1875,29.1875 261.0313,29.4844 259.8125,29.4844 C256.9219,29.4844 254.8125,27.5938 254.8125,25.0156 L254.8125,23.8906 C254.8125,21.1719 256.8125,19.0938 259.4375,19.0938 C260.3125,19.0938 260.9063,19.2344 261.8438,19.6719 Z "/><text fill="#000000" font-family="sans-serif" font-size="12" lengthAdjust="spacingAndGlyphs" textLength="72" x="273.5" y="28.1543">Distribution</text><line style="stroke: #A80036; stroke-width: 1.5;" x1="245.5" x2="347.5" y1="40" y2="40"/><line style="stroke: #A80036; stroke-width: 1.5;" x1="245.5" x2="347.5" y1="48" y2="48"/><!--link Beneficiary to Booklet--><path d="M115.386,69.338 C113.649,84.681 111.678,102.098 110.14,115.678 " fill="none" id="Beneficiary-Booklet" style="stroke: #A80036; stroke-width: 1.0;"/><polygon fill="#FFFFFF" points="116.896,56,112.2462,61.5118,115.5456,67.9238,120.1954,62.412,116.896,56" style="stroke: #A80036; stroke-width: 1.0;"/><text fill="#000000" font-family="sans-serif" font-size="13" lengthAdjust="spacingAndGlyphs" textLength="8" x="107.2037" y="76.1558">1</text><text fill="#000000" font-family="sans-serif" font-size="13" lengthAdjust="spacingAndGlyphs" textLength="20" x="88.3462" y="105.0045">0-*</text><!--link Beneficiary to DistributionBeneficiary--><path d="M169.105,62.707 C197.194,79.529 231.808,100.258 257.863,115.862 " fill="none" id="Beneficiary-DistributionBeneficiary" style="stroke: #A80036; stroke-width: 1.0;"/><polygon fill="#A80036" points="157.906,56,160.9986,62.5143,168.2013,62.165,165.1086,55.6508,157.906,56" style="stroke: #A80036; stroke-width: 1.0;"/><text fill="#000000" font-family="sans-serif" font-size="13" lengthAdjust="spacingAndGlyphs" textLength="8" x="158.7225" y="76.1558">1</text><text fill="#000000" font-family="sans-serif" font-size="13" lengthAdjust="spacingAndGlyphs" textLength="20" x="225.3998" y="104.8387">0-*</text><!--link Distribution to DistributionBeneficiary--><path d="M296.5,69.338 C296.5,84.681 296.5,102.098 296.5,115.678 " fill="none" id="Distribution-DistributionBeneficiary" style="stroke: #A80036; stroke-width: 1.0;"/><polygon fill="#A80036" points="296.5,56,292.5,62,296.5,68,300.5,62,296.5,56" style="stroke: #A80036; stroke-width: 1.0;"/><text fill="#000000" font-family="sans-serif" font-size="13" lengthAdjust="spacingAndGlyphs" textLength="8" x="287.475" y="76.1558">1</text><text fill="#000000" font-family="sans-serif" font-size="13" lengthAdjust="spacingAndGlyphs" textLength="20" x="274.0625" y="105.0045">0-*</text><!--link TransactionGeneralRelief to GeneralRelief--><path d="M310.5,426.385 C310.5,442.727 310.5,458.725 310.5,472.5305 " fill="none" id="TransactionGeneralRelief-GeneralRelief" style="stroke: #A80036; stroke-width: 1.0;"/><polygon fill="#A80036" points="310.5,413.242,306.5,419.242,310.5,425.242,314.5,419.242,310.5,413.242" style="stroke: #A80036; stroke-width: 1.0;"/><text fill="#000000" font-family="sans-serif" font-size="13" lengthAdjust="spacingAndGlyphs" textLength="8" x="302.2063" y="432.8276">1</text><text fill="#000000" font-family="sans-serif" font-size="13" lengthAdjust="spacingAndGlyphs" textLength="20" x="289.0313" y="462.09">0-*</text><!--link TransactionMobileMoney to State--><path d="M533.5,413.242 C533.5,431.281 533.5,449.502 533.5,465.4426 " fill="none" id="TransactionMobileMoney-State" style="stroke: #A80036; stroke-width: 1.0;"/><polygon fill="#A80036" points="533.5,478.8021,537.5,472.8021,533.5,466.8021,529.5,472.8021,533.5,478.8021" style="stroke: #A80036; stroke-width: 1.0;"/><text fill="#000000" font-family="sans-serif" font-size="13" lengthAdjust="spacingAndGlyphs" textLength="8" x="525.2063" y="432.8276">1</text><text fill="#000000" font-family="sans-serif" font-size="13" lengthAdjust="spacingAndGlyphs" textLength="8" x="524.7875" y="467.9538">1</text><!--link Booklet to TransactionQRVoucher--><path d="M104.6211,177.295 C103.39,192.816 101.8947,211.667 100.4052,230.446 " fill="none" id="Booklet-TransactionQRVoucher" style="stroke: #A80036; stroke-width: 1.0;"/><polygon fill="#A80036" points="105.6697,164.074,101.2081,169.7392,104.7215,176.0365,109.1831,170.3713,105.6697,164.074" style="stroke: #A80036; stroke-width: 1.0;"/><text fill="#000000" font-family="sans-serif" font-size="13" lengthAdjust="spacingAndGlyphs" textLength="8" x="96.1757" y="184.2487">1</text><text fill="#000000" font-family="sans-serif" font-size="13" lengthAdjust="spacingAndGlyphs" textLength="8" x="92.6549" y="219.3049">1</text><!--link DistributionBeneficiary to TransactionGeneralRelief--><path d="M299.941,184.378 C300.894,196.399 301.968,209.934 303.056,223.65 " fill="none" id="DistributionBeneficiary-TransactionGeneralRelief" style="stroke: #A80036; stroke-width: 1.0;"/><polygon fill="none" points="292.934,184.565,298.33,164.074,306.89,183.458,292.934,184.565" style="stroke: #A80036; stroke-width: 1.0;"/><!--link DistributionBeneficiary to TransactionMobileMoney--><path d="M351.105,174.979 C373.624,189.5 399.726,206.999 422.5,224 C428.355,228.371 434.309,232.952 440.262,237.638 " fill="none" id="DistributionBeneficiary-TransactionMobileMoney" style="stroke: #A80036; stroke-width: 1.0;"/><polygon fill="none" points="347.047,180.693,333.946,164.039,354.573,168.889,347.047,180.693" style="stroke: #A80036; stroke-width: 1.0;"/><!--link DistributionBeneficiary to TransactionQRVoucher--><path d="M253.416,177.094 C236.248,191.58 216.36,208.489 198.5,224 C192.787,228.962 186.918,234.093 181.014,239.279 " fill="none" id="DistributionBeneficiary-TransactionQRVoucher" style="stroke: #A80036; stroke-width: 1.0;"/><polygon fill="none" points="249.078,171.596,268.887,164.074,258.092,182.308,249.078,171.596" style="stroke: #A80036; stroke-width: 1.0;"/><!--
@startuml
class TransactionGeneralRelief {
    - id
    - idTransaction
    - beneficiary
    - localGivenName
    - localFamilyName
    - enGivenName
    - enFamilyName
    - generalReliefs
    - distributedAt
    - values
    - notes
}

class GeneralRelief {
    - id
    - notes
    - distributedAt
}

class TransactionMobileMoney {
    - idTransaction
    - beneficiary
    - localGivenName
    - localFamilyName
    - enGivenName
    - enFamilyName
    - phones
    - state
    - values
    - pickupDate
    - message
}

class State {
    - id
    - name
}

class TransactionQRVoucher {
    - beneficiary
    - booklet
    - localGivenName
    - localFamilyName
    - enGivenName
    - enFamilyName
    - bookletCode
    - status
    - usedAt
    - value
}



 Beneficiary "1" o- - "0-*" Booklet
 
 Beneficiary "1" *- - "0-*" DistributionBeneficiary
 Distribution "1" *- - "0-*" DistributionBeneficiary
 
 TransactionGeneralRelief "1" *- - "0-*" GeneralRelief
 
 
 TransactionMobileMoney "1" - -* "1" State
 
 Booklet "1" *- - "1" TransactionQRVoucher
 

 DistributionBeneficiary <|- - TransactionGeneralRelief
 DistributionBeneficiary <|- - TransactionMobileMoney
 DistributionBeneficiary <|- - TransactionQRVoucher
@enduml

PlantUML version 1.2019.05(Sat Apr 20 16:45:36 UTC 2019)
(GPL source distribution)
Java Runtime: Java(TM) SE Runtime Environment
JVM: Java HotSpot(TM) 64-Bit Server VM
Java Version: 1.7.0_25-b15
Operating System: Linux
Default Encoding: UTF-8
Language: en
Country: US
--></g></svg>