<?xml version="1.0" encoding="UTF-8" standalone="no"?><svg xmlns="http://www.w3.org/2000/svg" xmlns:xlink="http://www.w3.org/1999/xlink" contentScriptType="application/ecmascript" contentStyleType="text/css" height="660px" preserveAspectRatio="none" style="width:396px;height:660px;" version="1.1" viewBox="0 0 396 660" width="396px" zoomAndPan="magnify"><defs><filter height="300%" id="fmwymz0fhpvot" width="300%" x="-1" y="-1"><feGaussianBlur result="blurOut" stdDeviation="2.0"/><feColorMatrix in="blurOut" result="blurOut2" type="matrix" values="0 0 0 0 0 0 0 0 0 0 0 0 0 0 0 0 0 0 .4 0"/><feOffset dx="4.0" dy="4.0" in="blurOut2" result="blurOut3"/><feBlend in="SourceGraphic" in2="blurOut3" mode="normal"/></filter></defs><g><!--class User--><rect fill="#FEFECE" filter="url(#fmwymz0fhpvot)" height="163.2422" id="User" style="stroke: #A80036; stroke-width: 1.5;" width="123" x="158" y="142"/><ellipse cx="200.9" cy="158" fill="#ADD1B2" rx="11" ry="11" style="stroke: #A80036; stroke-width: 1.0;"/><path d="M203.2438,153.6719 L203.4156,153.75 C203.6344,153.4375 203.8375,153.3438 204.1344,153.3438 C204.4313,153.3438 204.7125,153.4844 204.8688,153.75 C204.9625,153.9063 204.9781,154.0313 204.9781,154.4688 L204.9781,155.8906 C204.9781,156.3125 204.9469,156.5 204.8375,156.6563 C204.6656,156.875 204.4,157.0156 204.1344,157.0156 C203.9156,157.0156 203.6813,156.9063 203.5406,156.7656 C203.4,156.6406 203.3688,156.5156 203.3063,156.1094 C203.2125,155.7031 203.0406,155.4844 202.5563,155.2031 C202.0875,154.9531 201.4781,154.7969 200.9,154.7969 C199.1656,154.7969 197.9156,156.1094 197.9156,157.8906 L197.9156,158.9844 C197.9156,160.6875 199.2125,161.7813 201.2594,161.7813 C202.025,161.7813 202.7125,161.6563 203.1344,161.3906 C203.3219,161.2969 203.3219,161.2969 203.775,160.8125 C203.9625,160.625 204.1656,160.5469 204.3844,160.5469 C204.8531,160.5469 205.2438,160.9375 205.2438,161.3906 C205.2438,161.7813 204.9156,162.2344 204.3375,162.6406 C203.5875,163.1875 202.4313,163.4844 201.2125,163.4844 C198.3219,163.4844 196.2125,161.5938 196.2125,159.0156 L196.2125,157.8906 C196.2125,155.1719 198.2125,153.0938 200.8375,153.0938 C201.7125,153.0938 202.3063,153.2344 203.2438,153.6719 Z "/><text fill="#000000" font-family="sans-serif" font-size="12" lengthAdjust="spacingAndGlyphs" textLength="29" x="221.1" y="162.1543">User</text><line style="stroke: #A80036; stroke-width: 1.5;" x1="159" x2="280" y1="174" y2="174"/><rect fill="none" height="6" style="stroke: #C82930; stroke-width: 1.0;" width="6" x="166" y="182.9023"/><text fill="#000000" font-family="sans-serif" font-size="11" lengthAdjust="spacingAndGlyphs" textLength="10" x="178" y="188.2104">id</text><rect fill="none" height="6" style="stroke: #C82930; stroke-width: 1.0;" width="6" x="166" y="195.707"/><text fill="#000000" font-family="sans-serif" font-size="11" lengthAdjust="spacingAndGlyphs" textLength="58" x="178" y="201.0151">username</text><rect fill="none" height="6" style="stroke: #C82930; stroke-width: 1.0;" width="6" x="166" y="208.5117"/><text fill="#000000" font-family="sans-serif" font-size="11" lengthAdjust="spacingAndGlyphs" textLength="31" x="178" y="213.8198">email</text><rect fill="none" height="6" style="stroke: #C82930; stroke-width: 1.0;" width="6" x="166" y="221.3164"/><text fill="#000000" font-family="sans-serif" font-size="11" lengthAdjust="spacingAndGlyphs" textLength="56" x="178" y="226.6245">password</text><rect fill="none" height="6" style="stroke: #C82930; stroke-width: 1.0;" width="6" x="166" y="234.1211"/><text fill="#000000" font-family="sans-serif" font-size="11" lengthAdjust="spacingAndGlyphs" textLength="33" x="178" y="239.4292">rights</text><rect fill="none" height="6" style="stroke: #C82930; stroke-width: 1.0;" width="6" x="166" y="246.9258"/><text fill="#000000" font-family="sans-serif" font-size="11" lengthAdjust="spacingAndGlyphs" textLength="46" x="178" y="252.2339">projects</text><rect fill="none" height="6" style="stroke: #C82930; stroke-width: 1.0;" width="6" x="166" y="259.7305"/><text fill="#000000" font-family="sans-serif" font-size="11" lengthAdjust="spacingAndGlyphs" textLength="53" x="178" y="265.0386">countries</text><rect fill="none" height="6" style="stroke: #C82930; stroke-width: 1.0;" width="6" x="166" y="272.5352"/><text fill="#000000" font-family="sans-serif" font-size="11" lengthAdjust="spacingAndGlyphs" textLength="52" x="178" y="277.8433">language</text><rect fill="none" height="6" style="stroke: #C82930; stroke-width: 1.0;" width="6" x="166" y="285.3398"/><text fill="#000000" font-family="sans-serif" font-size="11" lengthAdjust="spacingAndGlyphs" textLength="97" x="178" y="290.6479">changePassword</text><line style="stroke: #A80036; stroke-width: 1.5;" x1="159" x2="280" y1="297.2422" y2="297.2422"/><!--class Vendor--><rect fill="#FEFECE" filter="url(#fmwymz0fhpvot)" height="176.0469" id="Vendor" style="stroke: #A80036; stroke-width: 1.5;" width="125" x="72" y="365"/><ellipse cx="108.6" cy="381" fill="#ADD1B2" rx="11" ry="11" style="stroke: #A80036; stroke-width: 1.0;"/><path d="M110.9438,376.6719 L111.1156,376.75 C111.3344,376.4375 111.5375,376.3438 111.8344,376.3438 C112.1313,376.3438 112.4125,376.4844 112.5688,376.75 C112.6625,376.9063 112.6781,377.0313 112.6781,377.4688 L112.6781,378.8906 C112.6781,379.3125 112.6469,379.5 112.5375,379.6563 C112.3656,379.875 112.1,380.0156 111.8344,380.0156 C111.6156,380.0156 111.3813,379.9063 111.2406,379.7656 C111.1,379.6406 111.0688,379.5156 111.0063,379.1094 C110.9125,378.7031 110.7406,378.4844 110.2563,378.2031 C109.7875,377.9531 109.1781,377.7969 108.6,377.7969 C106.8656,377.7969 105.6156,379.1094 105.6156,380.8906 L105.6156,381.9844 C105.6156,383.6875 106.9125,384.7813 108.9594,384.7813 C109.725,384.7813 110.4125,384.6563 110.8344,384.3906 C111.0219,384.2969 111.0219,384.2969 111.475,383.8125 C111.6625,383.625 111.8656,383.5469 112.0844,383.5469 C112.5531,383.5469 112.9438,383.9375 112.9438,384.3906 C112.9438,384.7813 112.6156,385.2344 112.0375,385.6406 C111.2875,386.1875 110.1313,386.4844 108.9125,386.4844 C106.0219,386.4844 103.9125,384.5938 103.9125,382.0156 L103.9125,380.8906 C103.9125,378.1719 105.9125,376.0938 108.5375,376.0938 C109.4125,376.0938 110.0063,376.2344 110.9438,376.6719 Z "/><text fill="#000000" font-family="sans-serif" font-size="12" lengthAdjust="spacingAndGlyphs" textLength="45" x="127.4" y="385.1543">Vendor</text><line style="stroke: #A80036; stroke-width: 1.5;" x1="73" x2="196" y1="397" y2="397"/><rect fill="none" height="6" style="stroke: #C82930; stroke-width: 1.0;" width="6" x="80" y="405.9023"/><text fill="#000000" font-family="sans-serif" font-size="11" lengthAdjust="spacingAndGlyphs" textLength="10" x="92" y="411.2104">id</text><rect fill="none" height="6" style="stroke: #C82930; stroke-width: 1.0;" width="6" x="80" y="418.707"/><text fill="#000000" font-family="sans-serif" font-size="11" lengthAdjust="spacingAndGlyphs" textLength="26" x="92" y="424.0151">user</text><rect fill="none" height="6" style="stroke: #C82930; stroke-width: 1.0;" width="6" x="80" y="431.5117"/><text fill="#000000" font-family="sans-serif" font-size="11" lengthAdjust="spacingAndGlyphs" textLength="58" x="92" y="436.8198">username</text><rect fill="none" height="6" style="stroke: #C82930; stroke-width: 1.0;" width="6" x="80" y="444.3164"/><text fill="#000000" font-family="sans-serif" font-size="11" lengthAdjust="spacingAndGlyphs" textLength="56" x="92" y="449.6245">password</text><rect fill="none" height="6" style="stroke: #C82930; stroke-width: 1.0;" width="6" x="80" y="457.1211"/><text fill="#000000" font-family="sans-serif" font-size="11" lengthAdjust="spacingAndGlyphs" textLength="61" x="92" y="462.4292">shopName</text><rect fill="none" height="6" style="stroke: #C82930; stroke-width: 1.0;" width="6" x="80" y="469.9258"/><text fill="#000000" font-family="sans-serif" font-size="11" lengthAdjust="spacingAndGlyphs" textLength="55" x="92" y="475.2339">shopType</text><rect fill="none" height="6" style="stroke: #C82930; stroke-width: 1.0;" width="6" x="80" y="482.7305"/><text fill="#000000" font-family="sans-serif" font-size="11" lengthAdjust="spacingAndGlyphs" textLength="82" x="92" y="488.0386">addressStreet</text><rect fill="none" height="6" style="stroke: #C82930; stroke-width: 1.0;" width="6" x="80" y="495.5352"/><text fill="#000000" font-family="sans-serif" font-size="11" lengthAdjust="spacingAndGlyphs" textLength="92" x="92" y="500.8433">addressNumber</text><rect fill="none" height="6" style="stroke: #C82930; stroke-width: 1.0;" width="6" x="80" y="508.3398"/><text fill="#000000" font-family="sans-serif" font-size="11" lengthAdjust="spacingAndGlyphs" textLength="99" x="92" y="513.6479">addressPostcode</text><rect fill="none" height="6" style="stroke: #C82930; stroke-width: 1.0;" width="6" x="80" y="521.1445"/><text fill="#000000" font-family="sans-serif" font-size="11" lengthAdjust="spacingAndGlyphs" textLength="44" x="92" y="526.4526">location</text><line style="stroke: #A80036; stroke-width: 1.5;" x1="73" x2="196" y1="533.0469" y2="533.0469"/><!--class Role--><rect fill="#FEFECE" filter="url(#fmwymz0fhpvot)" height="73.6094" id="Role" style="stroke: #A80036; stroke-width: 1.5;" width="59" x="100" y="8"/><ellipse cx="115" cy="24" fill="#ADD1B2" rx="11" ry="11" style="stroke: #A80036; stroke-width: 1.0;"/><path d="M117.3438,19.6719 L117.5156,19.75 C117.7344,19.4375 117.9375,19.3438 118.2344,19.3438 C118.5313,19.3438 118.8125,19.4844 118.9688,19.75 C119.0625,19.9063 119.0781,20.0313 119.0781,20.4688 L119.0781,21.8906 C119.0781,22.3125 119.0469,22.5 118.9375,22.6563 C118.7656,22.875 118.5,23.0156 118.2344,23.0156 C118.0156,23.0156 117.7813,22.9063 117.6406,22.7656 C117.5,22.6406 117.4688,22.5156 117.4063,22.1094 C117.3125,21.7031 117.1406,21.4844 116.6563,21.2031 C116.1875,20.9531 115.5781,20.7969 115,20.7969 C113.2656,20.7969 112.0156,22.1094 112.0156,23.8906 L112.0156,24.9844 C112.0156,26.6875 113.3125,27.7813 115.3594,27.7813 C116.125,27.7813 116.8125,27.6563 117.2344,27.3906 C117.4219,27.2969 117.4219,27.2969 117.875,26.8125 C118.0625,26.625 118.2656,26.5469 118.4844,26.5469 C118.9531,26.5469 119.3438,26.9375 119.3438,27.3906 C119.3438,27.7813 119.0156,28.2344 118.4375,28.6406 C117.6875,29.1875 116.5313,29.4844 115.3125,29.4844 C112.4219,29.4844 110.3125,27.5938 110.3125,25.0156 L110.3125,23.8906 C110.3125,21.1719 112.3125,19.0938 114.9375,19.0938 C115.8125,19.0938 116.4063,19.2344 117.3438,19.6719 Z "/><text fill="#000000" font-family="sans-serif" font-size="12" lengthAdjust="spacingAndGlyphs" textLength="27" x="129" y="28.1543">Role</text><line style="stroke: #A80036; stroke-width: 1.5;" x1="101" x2="158" y1="40" y2="40"/><rect fill="none" height="6" style="stroke: #C82930; stroke-width: 1.0;" width="6" x="108" y="48.9023"/><text fill="#000000" font-family="sans-serif" font-size="11" lengthAdjust="spacingAndGlyphs" textLength="10" x="120" y="54.2104">id</text><rect fill="none" height="6" style="stroke: #C82930; stroke-width: 1.0;" width="6" x="108" y="61.707"/><text fill="#000000" font-family="sans-serif" font-size="11" lengthAdjust="spacingAndGlyphs" textLength="32" x="120" y="67.0151">name</text><line style="stroke: #A80036; stroke-width: 1.5;" x1="101" x2="158" y1="73.6094" y2="73.6094"/><!--class Country--><rect fill="#FEFECE" filter="url(#fmwymz0fhpvot)" height="73.6094" id="Country" style="stroke: #A80036; stroke-width: 1.5;" width="80" x="194.5" y="8"/><ellipse cx="209.5" cy="24" fill="#ADD1B2" rx="11" ry="11" style="stroke: #A80036; stroke-width: 1.0;"/><path d="M211.8438,19.6719 L212.0156,19.75 C212.2344,19.4375 212.4375,19.3438 212.7344,19.3438 C213.0313,19.3438 213.3125,19.4844 213.4688,19.75 C213.5625,19.9063 213.5781,20.0313 213.5781,20.4688 L213.5781,21.8906 C213.5781,22.3125 213.5469,22.5 213.4375,22.6563 C213.2656,22.875 213,23.0156 212.7344,23.0156 C212.5156,23.0156 212.2813,22.9063 212.1406,22.7656 C212,22.6406 211.9688,22.5156 211.9063,22.1094 C211.8125,21.7031 211.6406,21.4844 211.1563,21.2031 C210.6875,20.9531 210.0781,20.7969 209.5,20.7969 C207.7656,20.7969 206.5156,22.1094 206.5156,23.8906 L206.5156,24.9844 C206.5156,26.6875 207.8125,27.7813 209.8594,27.7813 C210.625,27.7813 211.3125,27.6563 211.7344,27.3906 C211.9219,27.2969 211.9219,27.2969 212.375,26.8125 C212.5625,26.625 212.7656,26.5469 212.9844,26.5469 C213.4531,26.5469 213.8438,26.9375 213.8438,27.3906 C213.8438,27.7813 213.5156,28.2344 212.9375,28.6406 C212.1875,29.1875 211.0313,29.4844 209.8125,29.4844 C206.9219,29.4844 204.8125,27.5938 204.8125,25.0156 L204.8125,23.8906 C204.8125,21.1719 206.8125,19.0938 209.4375,19.0938 C210.3125,19.0938 210.9063,19.2344 211.8438,19.6719 Z "/><text fill="#000000" font-family="sans-serif" font-size="12" lengthAdjust="spacingAndGlyphs" textLength="48" x="223.5" y="28.1543">Country</text><line style="stroke: #A80036; stroke-width: 1.5;" x1="195.5" x2="273.5" y1="40" y2="40"/><rect fill="none" height="6" style="stroke: #C82930; stroke-width: 1.0;" width="6" x="202.5" y="48.9023"/><text fill="#000000" font-family="sans-serif" font-size="11" lengthAdjust="spacingAndGlyphs" textLength="10" x="214.5" y="54.2104">id</text><rect fill="none" height="6" style="stroke: #C82930; stroke-width: 1.0;" width="6" x="202.5" y="61.707"/><text fill="#000000" font-family="sans-serif" font-size="11" lengthAdjust="spacingAndGlyphs" textLength="32" x="214.5" y="67.0151">name</text><line style="stroke: #A80036; stroke-width: 1.5;" x1="195.5" x2="273.5" y1="73.6094" y2="73.6094"/><!--class Adm--><rect fill="#FEFECE" filter="url(#fmwymz0fhpvot)" height="48" id="Adm" style="stroke: #A80036; stroke-width: 1.5;" width="59" x="6" y="21"/><ellipse cx="21" cy="37" fill="#ADD1B2" rx="11" ry="11" style="stroke: #A80036; stroke-width: 1.0;"/><path d="M23.3438,32.6719 L23.5156,32.75 C23.7344,32.4375 23.9375,32.3438 24.2344,32.3438 C24.5313,32.3438 24.8125,32.4844 24.9688,32.75 C25.0625,32.9063 25.0781,33.0313 25.0781,33.4688 L25.0781,34.8906 C25.0781,35.3125 25.0469,35.5 24.9375,35.6563 C24.7656,35.875 24.5,36.0156 24.2344,36.0156 C24.0156,36.0156 23.7813,35.9063 23.6406,35.7656 C23.5,35.6406 23.4688,35.5156 23.4063,35.1094 C23.3125,34.7031 23.1406,34.4844 22.6563,34.2031 C22.1875,33.9531 21.5781,33.7969 21,33.7969 C19.2656,33.7969 18.0156,35.1094 18.0156,36.8906 L18.0156,37.9844 C18.0156,39.6875 19.3125,40.7813 21.3594,40.7813 C22.125,40.7813 22.8125,40.6563 23.2344,40.3906 C23.4219,40.2969 23.4219,40.2969 23.875,39.8125 C24.0625,39.625 24.2656,39.5469 24.4844,39.5469 C24.9531,39.5469 25.3438,39.9375 25.3438,40.3906 C25.3438,40.7813 25.0156,41.2344 24.4375,41.6406 C23.6875,42.1875 22.5313,42.4844 21.3125,42.4844 C18.4219,42.4844 16.3125,40.5938 16.3125,38.0156 L16.3125,36.8906 C16.3125,34.1719 18.3125,32.0938 20.9375,32.0938 C21.8125,32.0938 22.4063,32.2344 23.3438,32.6719 Z "/><text fill="#000000" font-family="sans-serif" font-size="12" lengthAdjust="spacingAndGlyphs" textLength="27" x="35" y="41.1543">Adm</text><line style="stroke: #A80036; stroke-width: 1.5;" x1="7" x2="64" y1="53" y2="53"/><line style="stroke: #A80036; stroke-width: 1.5;" x1="7" x2="64" y1="61" y2="61"/><!--class Location--><rect fill="#FEFECE" filter="url(#fmwymz0fhpvot)" height="48" id="Location" style="stroke: #A80036; stroke-width: 1.5;" width="85" x="8" y="199.5"/><ellipse cx="23" cy="215.5" fill="#ADD1B2" rx="11" ry="11" style="stroke: #A80036; stroke-width: 1.0;"/><path d="M25.3438,211.1719 L25.5156,211.25 C25.7344,210.9375 25.9375,210.8438 26.2344,210.8438 C26.5313,210.8438 26.8125,210.9844 26.9688,211.25 C27.0625,211.4063 27.0781,211.5313 27.0781,211.9688 L27.0781,213.3906 C27.0781,213.8125 27.0469,214 26.9375,214.1563 C26.7656,214.375 26.5,214.5156 26.2344,214.5156 C26.0156,214.5156 25.7813,214.4063 25.6406,214.2656 C25.5,214.1406 25.4688,214.0156 25.4063,213.6094 C25.3125,213.2031 25.1406,212.9844 24.6563,212.7031 C24.1875,212.4531 23.5781,212.2969 23,212.2969 C21.2656,212.2969 20.0156,213.6094 20.0156,215.3906 L20.0156,216.4844 C20.0156,218.1875 21.3125,219.2813 23.3594,219.2813 C24.125,219.2813 24.8125,219.1563 25.2344,218.8906 C25.4219,218.7969 25.4219,218.7969 25.875,218.3125 C26.0625,218.125 26.2656,218.0469 26.4844,218.0469 C26.9531,218.0469 27.3438,218.4375 27.3438,218.8906 C27.3438,219.2813 27.0156,219.7344 26.4375,220.1406 C25.6875,220.6875 24.5313,220.9844 23.3125,220.9844 C20.4219,220.9844 18.3125,219.0938 18.3125,216.5156 L18.3125,215.3906 C18.3125,212.6719 20.3125,210.5938 22.9375,210.5938 C23.8125,210.5938 24.4063,210.7344 25.3438,211.1719 Z "/><text fill="#000000" font-family="sans-serif" font-size="12" lengthAdjust="spacingAndGlyphs" textLength="53" x="37" y="219.6543">Location</text><line style="stroke: #A80036; stroke-width: 1.5;" x1="9" x2="92" y1="231.5" y2="231.5"/><line style="stroke: #A80036; stroke-width: 1.5;" x1="9" x2="92" y1="239.5" y2="239.5"/><!--class Project--><rect fill="#FEFECE" filter="url(#fmwymz0fhpvot)" height="48" id="Project" style="stroke: #A80036; stroke-width: 1.5;" width="76" x="309.5" y="21"/><ellipse cx="324.5" cy="37" fill="#ADD1B2" rx="11" ry="11" style="stroke: #A80036; stroke-width: 1.0;"/><path d="M326.8438,32.6719 L327.0156,32.75 C327.2344,32.4375 327.4375,32.3438 327.7344,32.3438 C328.0313,32.3438 328.3125,32.4844 328.4688,32.75 C328.5625,32.9063 328.5781,33.0313 328.5781,33.4688 L328.5781,34.8906 C328.5781,35.3125 328.5469,35.5 328.4375,35.6563 C328.2656,35.875 328,36.0156 327.7344,36.0156 C327.5156,36.0156 327.2813,35.9063 327.1406,35.7656 C327,35.6406 326.9688,35.5156 326.9063,35.1094 C326.8125,34.7031 326.6406,34.4844 326.1563,34.2031 C325.6875,33.9531 325.0781,33.7969 324.5,33.7969 C322.7656,33.7969 321.5156,35.1094 321.5156,36.8906 L321.5156,37.9844 C321.5156,39.6875 322.8125,40.7813 324.8594,40.7813 C325.625,40.7813 326.3125,40.6563 326.7344,40.3906 C326.9219,40.2969 326.9219,40.2969 327.375,39.8125 C327.5625,39.625 327.7656,39.5469 327.9844,39.5469 C328.4531,39.5469 328.8438,39.9375 328.8438,40.3906 C328.8438,40.7813 328.5156,41.2344 327.9375,41.6406 C327.1875,42.1875 326.0313,42.4844 324.8125,42.4844 C321.9219,42.4844 319.8125,40.5938 319.8125,38.0156 L319.8125,36.8906 C319.8125,34.1719 321.8125,32.0938 324.4375,32.0938 C325.3125,32.0938 325.9063,32.2344 326.8438,32.6719 Z "/><text fill="#000000" font-family="sans-serif" font-size="12" lengthAdjust="spacingAndGlyphs" textLength="44" x="338.5" y="41.1543">Project</text><line style="stroke: #A80036; stroke-width: 1.5;" x1="310.5" x2="384.5" y1="53" y2="53"/><line style="stroke: #A80036; stroke-width: 1.5;" x1="310.5" x2="384.5" y1="61" y2="61"/><!--class Voucher--><rect fill="#FEFECE" filter="url(#fmwymz0fhpvot)" height="48" id="Voucher" style="stroke: #A80036; stroke-width: 1.5;" width="84" x="92.5" y="601"/><ellipse cx="107.5" cy="617" fill="#ADD1B2" rx="11" ry="11" style="stroke: #A80036; stroke-width: 1.0;"/><path d="M109.8438,612.6719 L110.0156,612.75 C110.2344,612.4375 110.4375,612.3438 110.7344,612.3438 C111.0313,612.3438 111.3125,612.4844 111.4688,612.75 C111.5625,612.9063 111.5781,613.0313 111.5781,613.4688 L111.5781,614.8906 C111.5781,615.3125 111.5469,615.5 111.4375,615.6563 C111.2656,615.875 111,616.0156 110.7344,616.0156 C110.5156,616.0156 110.2813,615.9063 110.1406,615.7656 C110,615.6406 109.9688,615.5156 109.9063,615.1094 C109.8125,614.7031 109.6406,614.4844 109.1563,614.2031 C108.6875,613.9531 108.0781,613.7969 107.5,613.7969 C105.7656,613.7969 104.5156,615.1094 104.5156,616.8906 L104.5156,617.9844 C104.5156,619.6875 105.8125,620.7813 107.8594,620.7813 C108.625,620.7813 109.3125,620.6563 109.7344,620.3906 C109.9219,620.2969 109.9219,620.2969 110.375,619.8125 C110.5625,619.625 110.7656,619.5469 110.9844,619.5469 C111.4531,619.5469 111.8438,619.9375 111.8438,620.3906 C111.8438,620.7813 111.5156,621.2344 110.9375,621.6406 C110.1875,622.1875 109.0313,622.4844 107.8125,622.4844 C104.9219,622.4844 102.8125,620.5938 102.8125,618.0156 L102.8125,616.8906 C102.8125,614.1719 104.8125,612.0938 107.4375,612.0938 C108.3125,612.0938 108.9063,612.2344 109.8438,612.6719 Z "/><text fill="#000000" font-family="sans-serif" font-size="12" lengthAdjust="spacingAndGlyphs" textLength="52" x="121.5" y="621.1543">Voucher</text><line style="stroke: #A80036; stroke-width: 1.5;" x1="93.5" x2="175.5" y1="633" y2="633"/><line style="stroke: #A80036; stroke-width: 1.5;" x1="93.5" x2="175.5" y1="641" y2="641"/><!--link Adm to Location--><path d="M38.5648,82.063 C41.5507,117.197 46.0004,169.555 48.5385,199.42 " fill="none" id="Adm-Location" style="stroke: #A80036; stroke-width: 1.0;"/><polygon fill="#A80036" points="37.461,69.074,33.9837,75.3913,38.4777,81.0309,41.955,74.7135,37.461,69.074" style="stroke: #A80036; stroke-width: 1.0;"/><text fill="#000000" font-family="sans-serif" font-size="13" lengthAdjust="spacingAndGlyphs" textLength="21" x="14.2729" y="89.2487">0-4</text><text fill="#000000" font-family="sans-serif" font-size="13" lengthAdjust="spacingAndGlyphs" textLength="8" x="39.0109" y="188.4115">1</text><!--link Role to User--><path d="M154.016,94.078 C161.565,108.882 170.091,125.604 178.436,141.969 " fill="none" id="Role-User" style="stroke: #A80036; stroke-width: 1.0;"/><polygon fill="#A80036" points="147.93,82.143,147.0922,89.3053,153.3813,92.8333,154.2191,85.6711,147.93,82.143" style="stroke: #A80036; stroke-width: 1.0;"/><text fill="#000000" font-family="sans-serif" font-size="13" lengthAdjust="spacingAndGlyphs" textLength="20" x="129.3262" y="101.6472">1-*</text><text fill="#000000" font-family="sans-serif" font-size="13" lengthAdjust="spacingAndGlyphs" textLength="8" x="166.2817" y="130.8233">1</text><!--link Country to User--><path d="M230.3,95.416 C229.071,109.885 227.693,126.095 226.344,141.969 " fill="none" id="Country-User" style="stroke: #A80036; stroke-width: 1.0;"/><polygon fill="#A80036" points="231.428,82.143,226.934,87.7825,230.4113,94.0998,234.9052,88.4603,231.428,82.143" style="stroke: #A80036; stroke-width: 1.0;"/><text fill="#000000" font-family="sans-serif" font-size="13" lengthAdjust="spacingAndGlyphs" textLength="21" x="208.1801" y="101.6472">0-2</text><text fill="#000000" font-family="sans-serif" font-size="13" lengthAdjust="spacingAndGlyphs" textLength="20" x="206.0531" y="130.8233">0-*</text><!--link Project to User--><path d="M323.065,79.693 C310.223,97.402 293.883,119.933 277.998,141.836 " fill="none" id="Project-User" style="stroke: #A80036; stroke-width: 1.0;"/><polygon fill="#A80036" points="330.766,69.074,324.0055,71.5832,323.7216,78.7887,330.482,76.2795,330.766,69.074" style="stroke: #A80036; stroke-width: 1.0;"/><text fill="#000000" font-family="sans-serif" font-size="13" lengthAdjust="spacingAndGlyphs" textLength="20" x="303.9154" y="89.2487">0-*</text><text fill="#000000" font-family="sans-serif" font-size="13" lengthAdjust="spacingAndGlyphs" textLength="20" x="262.3174" y="130.9569">0-*</text><!--link User to Vendor--><path d="M184.788,317.405 C178.957,333.013 172.923,349.162 167.146,364.624 " fill="none" id="User-Vendor" style="stroke: #A80036; stroke-width: 1.0;"/><polygon fill="#A80036" points="189.413,305.028,183.5661,309.2486,185.2132,316.2691,191.0602,312.0485,189.413,305.028" style="stroke: #A80036; stroke-width: 1.0;"/><text fill="#000000" font-family="sans-serif" font-size="13" lengthAdjust="spacingAndGlyphs" textLength="8" x="178.2706" y="325.2971">1</text><text fill="#000000" font-family="sans-serif" font-size="13" lengthAdjust="spacingAndGlyphs" textLength="8" x="161.4287" y="354.0542">1</text><!--link Location to Vendor--><path d="M63.5741,259.909 C73.9407,287.985 88.8792,328.444 102.3754,364.996 " fill="none" id="Location-Vendor" style="stroke: #A80036; stroke-width: 1.0;"/><polygon fill="#A80036" points="59.0166,247.566,57.3424,254.5801,63.1731,258.8232,64.8472,251.8091,59.0166,247.566" style="stroke: #A80036; stroke-width: 1.0;"/><text fill="#000000" font-family="sans-serif" font-size="13" lengthAdjust="spacingAndGlyphs" textLength="8" x="52.174" y="267.7387">1</text><text fill="#000000" font-family="sans-serif" font-size="13" lengthAdjust="spacingAndGlyphs" textLength="8" x="91.2709" y="353.8592">1</text><!--link Vendor to Voucher--><path d="M134.5,554.5452 C134.5,571.8776 134.5,588.3173 134.5,600.8477 " fill="none" id="Vendor-Voucher" style="stroke: #A80036; stroke-width: 1.0;"/><polygon fill="#FFFFFF" points="134.5,541.49,130.5,547.49,134.5,553.49,138.5,547.49,134.5,541.49" style="stroke: #A80036; stroke-width: 1.0;"/><text fill="#000000" font-family="sans-serif" font-size="13" lengthAdjust="spacingAndGlyphs" textLength="8" x="126.1813" y="561.2095">1</text><text fill="#000000" font-family="sans-serif" font-size="13" lengthAdjust="spacingAndGlyphs" textLength="20" x="111.9375" y="589.8207">0-*</text><!--
@startuml
class User {
    - id
    - username
    - email
    - password
    - rights
    - projects
    - countries
    - language
    - changePassword
}

class Vendor {
    - id
    - user
    - username
    - password
    - shopName
    - shopType
    - addressStreet
    - addressNumber
    - addressPostcode
    - location
}

class Role {
    - id
    - name
}

class Country {
    - id
    - name
}

 Adm "0-4" *- - "1" Location

 
 Role "1-*" *- - "1" User
 Country "0-2" *- - "0-*" User
 Project "0-*" *- - "0-*" User
 
 User "1" *- - "1" Vendor
 Location "1" *- - "1" Vendor
 
 Vendor "1" o- - "0-*" Voucher
@enduml

PlantUML version 1.2019.07(Mon Jun 24 19:59:20 UTC 2019)
(GPL source distribution)
Java Runtime: Java(TM) SE Runtime Environment
JVM: Java HotSpot(TM) 64-Bit Server VM
Java Version: 1.7.0_25-b15
Operating System: Linux
Default Encoding: UTF-8
Language: en
Country: US
--></g></svg>