<svg id="svg" version="1.1" xmlns="http://www.w3.org/2000/svg" xmlns:xlink="http://www.w3.org/1999/xlink" width="400" height="400" viewBox="0, 0, 400,400"><g id="svgg"><path id="path0" d="M125.200 226.167 C 125.200 226.478,125.034 226.793,124.832 226.867 C 124.493 226.989,121.839 229.016,116.014 233.600 C 114.756 234.590,113.132 235.850,112.406 236.400 C 110.435 237.891,97.575 247.857,91.243 252.800 C 81.092 260.724,78.622 262.600,77.822 262.993 C 77.548 263.127,77.575 263.282,77.900 263.433 C 78.175 263.562,78.400 264.012,78.400 264.433 C 78.400 264.855,78.580 265.200,78.800 265.200 C 79.020 265.200,79.200 265.560,79.200 266.000 C 79.200 266.440,79.380 266.800,79.600 266.800 C 79.820 266.800,80.000 267.145,80.000 267.567 C 80.000 267.988,80.135 268.393,80.300 268.467 C 80.465 268.540,81.033 269.455,81.563 270.500 C 82.092 271.545,82.677 272.400,82.863 272.400 C 83.048 272.400,83.200 272.636,83.200 272.925 C 83.200 273.213,83.560 273.836,84.000 274.308 C 84.440 274.780,84.800 275.354,84.800 275.583 C 84.800 275.812,84.980 276.000,85.200 276.000 C 85.420 276.000,85.600 276.320,85.600 276.712 C 85.600 277.103,85.960 277.683,86.400 278.000 C 86.840 278.317,87.200 278.825,87.200 279.128 C 87.200 279.431,87.740 280.183,88.400 280.800 C 89.060 281.417,89.600 282.137,89.600 282.400 C 89.600 282.663,90.140 283.383,90.800 284.000 C 91.460 284.617,92.000 285.327,92.000 285.579 C 92.000 285.830,92.405 286.456,92.900 286.968 C 93.395 287.480,94.160 288.417,94.600 289.050 C 95.040 289.682,96.525 291.317,97.900 292.682 C 99.275 294.047,100.400 295.355,100.400 295.588 C 100.400 296.154,107.066 302.800,107.633 302.800 C 107.878 302.800,109.092 303.897,110.330 305.237 C 111.569 306.577,113.124 307.954,113.786 308.296 C 114.448 308.639,115.469 309.432,116.055 310.059 C 116.642 310.687,117.337 311.200,117.600 311.200 C 117.863 311.200,118.583 311.740,119.200 312.400 C 119.817 313.060,120.569 313.600,120.872 313.600 C 121.175 313.600,121.683 313.960,122.000 314.400 C 122.317 314.840,122.857 315.200,123.200 315.200 C 123.543 315.200,124.083 315.560,124.400 316.000 C 124.717 316.440,125.257 316.800,125.600 316.800 C 125.943 316.800,126.483 317.160,126.800 317.600 C 127.117 318.040,127.524 318.400,127.705 318.400 C 127.886 318.400,128.420 318.760,128.892 319.200 C 129.364 319.640,129.987 320.000,130.275 320.000 C 130.564 320.000,130.800 320.180,130.800 320.400 C 130.800 320.620,131.160 320.800,131.600 320.800 C 132.040 320.800,132.400 320.953,132.400 321.140 C 132.400 321.327,133.615 322.089,135.100 322.832 C 136.585 323.576,137.890 324.306,138.001 324.455 C 138.111 324.604,138.876 324.853,139.701 325.008 C 140.525 325.162,141.200 325.449,141.200 325.645 C 141.200 325.840,141.560 326.000,142.000 326.000 C 142.440 326.000,142.801 326.135,142.803 326.300 C 142.807 326.659,144.744 327.600,145.480 327.600 C 145.766 327.600,146.000 327.780,146.000 328.000 C 146.000 328.220,146.450 328.400,147.000 328.400 C 147.550 328.400,148.000 328.580,148.000 328.800 C 148.000 329.020,148.360 329.200,148.800 329.200 C 149.240 329.200,149.600 329.380,149.600 329.600 C 149.600 329.820,150.140 330.000,150.800 330.000 C 151.460 330.000,152.000 330.180,152.000 330.400 C 152.000 330.620,152.360 330.800,152.800 330.800 C 153.240 330.800,153.600 330.980,153.600 331.200 C 153.600 331.420,154.140 331.600,154.800 331.600 C 155.460 331.600,156.000 331.780,156.000 332.000 C 156.000 332.220,156.540 332.400,157.200 332.400 C 157.860 332.400,158.400 332.580,158.400 332.800 C 158.400 333.020,158.839 333.200,159.376 333.200 C 159.913 333.200,160.464 333.380,160.600 333.600 C 160.736 333.820,161.276 334.000,161.800 334.000 C 162.324 334.000,162.864 334.180,163.000 334.400 C 163.136 334.620,163.867 334.800,164.624 334.800 C 165.381 334.800,166.000 334.980,166.000 335.200 C 166.000 335.420,166.720 335.600,167.600 335.600 C 168.480 335.600,169.200 335.780,169.200 336.000 C 169.200 336.220,169.920 336.400,170.800 336.400 C 171.680 336.400,172.400 336.580,172.400 336.800 C 172.400 337.020,173.300 337.200,174.400 337.200 C 175.500 337.200,176.400 337.380,176.400 337.600 C 176.400 337.820,177.379 338.000,178.576 338.000 C 179.773 338.000,180.864 338.180,181.000 338.400 C 181.136 338.620,182.587 338.800,184.224 338.800 C 185.941 338.800,187.200 338.969,187.200 339.200 C 187.200 339.450,189.659 339.600,193.776 339.600 C 197.729 339.600,200.451 339.760,200.600 340.000 C 200.736 340.220,201.726 340.400,202.800 340.400 C 203.874 340.400,204.864 340.220,205.000 340.000 C 205.150 339.757,208.063 339.600,212.400 339.600 C 216.737 339.600,219.650 339.443,219.800 339.200 C 219.936 338.980,221.387 338.800,223.024 338.800 C 224.741 338.800,226.000 338.631,226.000 338.400 C 226.000 338.178,227.067 338.000,228.400 338.000 C 229.733 338.000,230.800 337.822,230.800 337.600 C 230.800 337.380,231.700 337.200,232.800 337.200 C 233.900 337.200,234.800 337.020,234.800 336.800 C 234.800 336.580,235.599 336.400,236.576 336.400 C 237.553 336.400,238.464 336.220,238.600 336.000 C 238.736 335.780,239.467 335.600,240.224 335.600 C 240.981 335.600,241.600 335.420,241.600 335.200 C 241.600 334.980,242.320 334.800,243.200 334.800 C 244.080 334.800,244.800 334.620,244.800 334.400 C 244.800 334.180,245.340 334.000,246.000 334.000 C 246.660 334.000,247.200 333.820,247.200 333.600 C 247.200 333.380,247.740 333.200,248.400 333.200 C 249.060 333.200,249.600 333.020,249.600 332.800 C 249.600 332.580,250.140 332.400,250.800 332.400 C 251.460 332.400,252.000 332.220,252.000 332.000 C 252.000 331.780,252.540 331.600,253.200 331.600 C 253.860 331.600,254.400 331.420,254.400 331.200 C 254.400 330.980,254.850 330.800,255.400 330.800 C 255.950 330.800,256.400 330.620,256.400 330.400 C 256.400 330.180,256.850 330.000,257.400 330.000 C 257.950 330.000,258.400 329.820,258.400 329.600 C 258.400 329.380,258.850 329.200,259.400 329.200 C 259.950 329.200,260.400 329.020,260.400 328.800 C 260.400 328.580,260.760 328.400,261.200 328.400 C 261.640 328.400,262.000 328.220,262.000 328.000 C 262.000 327.780,262.360 327.600,262.800 327.600 C 263.240 327.600,263.600 327.420,263.600 327.200 C 263.600 326.980,263.960 326.800,264.400 326.800 C 264.840 326.800,265.200 326.620,265.200 326.400 C 265.200 326.180,265.560 326.000,266.000 326.000 C 266.440 326.000,266.800 325.820,266.800 325.600 C 266.800 325.380,267.102 325.200,267.470 325.200 C 268.419 325.200,274.071 322.379,274.847 321.518 C 275.203 321.123,275.788 320.800,276.147 320.800 C 276.506 320.800,276.800 320.620,276.800 320.400 C 276.800 320.180,277.120 320.000,277.512 320.000 C 277.903 320.000,278.483 319.640,278.800 319.200 C 279.117 318.760,279.657 318.400,280.000 318.400 C 280.343 318.400,280.883 318.040,281.200 317.600 C 281.517 317.160,282.025 316.800,282.328 316.800 C 282.631 316.800,283.383 316.260,284.000 315.600 C 284.617 314.940,285.337 314.400,285.600 314.400 C 285.863 314.400,286.583 313.860,287.200 313.200 C 287.817 312.540,288.492 312.000,288.701 312.000 C 289.199 312.000,291.600 309.701,291.600 309.223 C 291.600 309.020,292.005 308.727,292.500 308.573 C 292.995 308.418,293.859 307.815,294.421 307.232 L 295.442 306.173 294.421 305.146 C 293.859 304.582,292.392 303.328,291.161 302.360 C 286.415 298.629,285.804 298.153,283.782 296.600 C 282.635 295.720,279.830 293.555,277.549 291.788 C 275.267 290.021,272.140 287.603,270.600 286.415 C 269.060 285.226,266.886 283.521,265.770 282.627 C 264.653 281.732,263.213 280.602,262.570 280.116 C 258.496 277.040,251.269 271.404,250.574 270.763 C 249.507 269.777,248.327 269.792,247.600 270.800 C 247.283 271.240,246.703 271.600,246.312 271.600 C 245.920 271.600,245.600 271.746,245.600 271.925 C 245.600 272.104,244.970 272.498,244.200 272.800 C 243.430 273.102,242.800 273.496,242.800 273.675 C 242.800 273.854,242.440 274.000,242.000 274.000 C 241.560 274.000,241.200 274.180,241.200 274.400 C 241.200 274.620,240.840 274.800,240.400 274.800 C 239.960 274.800,239.600 274.980,239.600 275.200 C 239.600 275.420,239.240 275.600,238.800 275.600 C 238.360 275.600,238.000 275.780,238.000 276.000 C 238.000 276.220,237.640 276.400,237.200 276.400 C 236.760 276.400,236.400 276.580,236.400 276.800 C 236.400 277.020,235.905 277.201,235.300 277.202 C 234.695 277.204,233.684 277.474,233.054 277.802 C 232.424 278.131,231.580 278.400,231.178 278.400 C 230.776 278.400,230.336 278.580,230.200 278.800 C 230.064 279.020,229.333 279.200,228.576 279.200 C 227.819 279.200,227.200 279.380,227.200 279.600 C 227.200 279.820,226.581 280.000,225.824 280.000 C 225.067 280.000,224.336 280.180,224.200 280.400 C 224.064 280.620,223.243 280.800,222.376 280.800 C 221.509 280.800,220.800 280.980,220.800 281.200 C 220.800 281.422,219.733 281.600,218.400 281.600 C 217.067 281.600,216.000 281.778,216.000 282.000 C 216.000 282.239,214.467 282.400,212.200 282.400 C 209.933 282.400,208.400 282.561,208.400 282.800 C 208.400 283.046,206.400 283.200,203.200 283.200 C 200.000 283.200,198.000 283.046,198.000 282.800 C 198.000 282.565,196.608 282.400,194.624 282.400 C 192.767 282.400,191.136 282.220,191.000 282.000 C 190.864 281.780,189.964 281.600,189.000 281.600 C 188.036 281.600,187.136 281.420,187.000 281.200 C 186.864 280.980,186.144 280.800,185.400 280.800 C 184.656 280.800,183.936 280.620,183.800 280.400 C 183.664 280.180,182.933 280.000,182.176 280.000 C 181.419 280.000,180.800 279.820,180.800 279.600 C 180.800 279.380,180.271 279.200,179.624 279.200 C 178.977 279.200,178.336 279.020,178.200 278.800 C 178.064 278.580,177.513 278.400,176.976 278.400 C 176.439 278.400,176.000 278.240,176.000 278.045 C 176.000 277.850,175.190 277.569,174.200 277.421 C 173.210 277.272,172.400 276.982,172.400 276.775 C 172.400 276.569,172.040 276.400,171.600 276.400 C 171.160 276.400,170.800 276.220,170.800 276.000 C 170.800 275.780,170.440 275.600,170.000 275.600 C 169.560 275.600,169.200 275.420,169.200 275.200 C 169.200 274.980,168.840 274.800,168.400 274.800 C 167.960 274.800,167.600 274.620,167.600 274.400 C 167.600 274.180,167.240 274.000,166.800 274.000 C 166.360 274.000,166.000 273.820,166.000 273.600 C 166.000 273.380,165.640 273.200,165.200 273.200 C 164.760 273.200,164.400 273.020,164.400 272.800 C 164.400 272.580,164.040 272.400,163.600 272.400 C 163.160 272.400,162.800 272.220,162.800 272.000 C 162.800 271.780,162.480 271.600,162.088 271.600 C 161.697 271.600,161.117 271.240,160.800 270.800 C 160.483 270.360,159.946 270.000,159.608 270.000 C 159.269 270.000,158.768 269.640,158.493 269.200 C 158.218 268.760,157.813 268.400,157.593 268.400 C 157.373 268.400,156.628 267.860,155.937 267.200 C 155.246 266.540,154.523 266.000,154.330 266.000 C 154.137 266.000,153.192 265.235,152.231 264.300 C 150.528 262.643,149.786 262.033,147.982 260.800 C 146.499 259.787,144.000 257.288,144.000 256.818 C 144.000 256.573,143.415 255.752,142.700 254.994 C 140.167 252.305,139.600 251.625,139.600 251.274 C 139.600 251.078,139.105 250.394,138.500 249.752 C 137.895 249.111,137.145 248.094,136.832 247.493 C 136.520 246.892,136.115 246.400,135.932 246.400 C 135.750 246.400,135.600 246.130,135.600 245.800 C 135.600 245.470,135.420 245.200,135.200 245.200 C 134.980 245.200,134.800 244.930,134.800 244.600 C 134.800 244.270,134.620 244.000,134.400 244.000 C 134.180 244.000,134.000 243.730,134.000 243.400 C 134.000 243.070,133.820 242.800,133.600 242.800 C 133.380 242.800,133.200 242.480,133.200 242.088 C 133.200 241.697,132.840 241.117,132.400 240.800 C 131.960 240.483,131.600 239.903,131.600 239.512 C 131.600 239.120,131.420 238.800,131.200 238.800 C 130.980 238.800,130.800 238.440,130.800 238.000 C 130.800 237.560,130.620 237.200,130.400 237.200 C 130.180 237.200,130.000 236.840,130.000 236.400 C 130.000 235.960,129.820 235.600,129.600 235.600 C 129.380 235.600,129.200 235.240,129.200 234.800 C 129.200 234.360,129.020 234.000,128.800 234.000 C 128.580 234.000,128.400 233.460,128.400 232.800 C 128.400 232.140,128.220 231.600,128.000 231.600 C 127.780 231.600,127.600 231.240,127.600 230.800 C 127.600 230.360,127.420 230.000,127.200 230.000 C 126.980 230.000,126.800 229.561,126.800 229.024 C 126.800 228.487,126.620 227.936,126.400 227.800 C 126.180 227.664,126.000 227.113,126.000 226.576 C 126.000 226.039,125.820 225.600,125.600 225.600 C 125.380 225.600,125.200 225.855,125.200 226.167 " stroke="none" fill="#34a454" fill-rule="evenodd"></path><path id="path1" d="M77.467 137.867 C 77.320 138.013,77.200 138.463,77.200 138.867 C 77.200 139.270,77.020 139.600,76.800 139.600 C 76.580 139.600,76.400 139.960,76.400 140.400 C 76.400 140.840,76.220 141.200,76.000 141.200 C 75.780 141.200,75.600 141.560,75.600 142.000 C 75.600 142.440,75.465 142.801,75.300 142.803 C 74.894 142.807,74.000 144.786,74.000 145.680 C 74.000 146.076,73.820 146.400,73.600 146.400 C 73.380 146.400,73.200 146.749,73.200 147.176 C 73.200 147.603,73.020 148.064,72.800 148.200 C 72.580 148.336,72.400 148.887,72.400 149.424 C 72.400 149.961,72.220 150.400,72.000 150.400 C 71.780 150.400,71.600 150.760,71.600 151.200 C 71.600 151.640,71.420 152.000,71.200 152.000 C 70.980 152.000,70.800 152.540,70.800 153.200 C 70.800 153.860,70.620 154.400,70.400 154.400 C 70.180 154.400,70.000 154.940,70.000 155.600 C 70.000 156.260,69.820 156.800,69.600 156.800 C 69.380 156.800,69.200 157.329,69.200 157.976 C 69.200 158.623,69.020 159.264,68.800 159.400 C 68.580 159.536,68.400 160.267,68.400 161.024 C 68.400 161.781,68.220 162.400,68.000 162.400 C 67.780 162.400,67.600 163.030,67.600 163.800 C 67.600 164.570,67.420 165.200,67.200 165.200 C 66.980 165.200,66.800 165.909,66.800 166.776 C 66.800 167.643,66.620 168.464,66.400 168.600 C 66.180 168.736,66.000 169.647,66.000 170.624 C 66.000 171.601,65.820 172.400,65.600 172.400 C 65.380 172.400,65.200 173.300,65.200 174.400 C 65.200 175.500,65.020 176.400,64.800 176.400 C 64.574 176.400,64.400 177.533,64.400 179.000 C 64.400 180.467,64.226 181.600,64.000 181.600 C 63.760 181.600,63.600 183.192,63.600 185.576 C 63.600 187.796,63.423 189.662,63.200 189.800 C 62.950 189.954,62.800 193.871,62.800 200.224 C 62.800 206.741,62.944 210.400,63.200 210.400 C 63.440 210.400,63.600 212.000,63.600 214.400 C 63.600 216.800,63.760 218.400,64.000 218.400 C 64.226 218.400,64.400 219.533,64.400 221.000 C 64.400 222.467,64.574 223.600,64.800 223.600 C 65.020 223.600,65.200 224.500,65.200 225.600 C 65.200 226.700,65.380 227.600,65.600 227.600 C 65.820 227.600,66.000 228.500,66.000 229.600 C 66.000 230.700,66.180 231.600,66.400 231.600 C 66.620 231.600,66.800 232.219,66.800 232.976 C 66.800 233.733,66.980 234.464,67.200 234.600 C 67.420 234.736,67.600 235.557,67.600 236.424 C 67.600 237.291,67.780 238.000,68.000 238.000 C 68.220 238.000,68.400 238.529,68.400 239.176 C 68.400 239.823,68.580 240.464,68.800 240.600 C 69.020 240.736,69.200 241.377,69.200 242.024 C 69.200 242.671,69.380 243.200,69.600 243.200 C 69.820 243.200,70.000 243.740,70.000 244.400 C 70.000 245.060,70.180 245.600,70.400 245.600 C 70.620 245.600,70.800 246.039,70.800 246.576 C 70.800 247.113,70.980 247.664,71.200 247.800 C 71.420 247.936,71.600 248.397,71.600 248.824 C 71.600 249.251,71.780 249.600,72.000 249.600 C 72.220 249.600,72.400 250.140,72.400 250.800 C 72.400 251.460,72.580 252.000,72.800 252.000 C 73.020 252.000,73.200 252.360,73.200 252.800 C 73.200 253.240,73.380 253.600,73.600 253.600 C 73.820 253.600,74.000 254.140,74.000 254.800 C 74.000 255.460,74.180 256.000,74.400 256.000 C 74.620 256.000,74.800 256.270,74.800 256.600 C 74.800 256.930,74.980 257.200,75.200 257.200 C 75.420 257.200,75.600 257.560,75.600 258.000 C 75.600 258.440,75.780 258.800,76.000 258.800 C 76.220 258.800,76.400 259.160,76.400 259.600 C 76.400 260.040,76.558 260.400,76.750 260.400 C 76.942 260.400,77.208 260.940,77.340 261.600 C 77.722 263.509,76.677 264.170,91.243 252.800 C 97.575 247.857,110.435 237.891,112.406 236.400 C 113.132 235.850,114.756 234.590,116.014 233.600 C 121.839 229.016,124.493 226.989,124.832 226.867 C 125.330 226.686,125.297 224.116,124.775 222.397 C 123.688 218.818,123.200 216.651,123.200 215.404 C 123.200 214.658,123.020 213.936,122.800 213.800 C 122.580 213.664,122.400 212.393,122.400 210.976 C 122.400 209.525,122.225 208.400,122.000 208.400 C 121.746 208.400,121.600 205.333,121.600 200.000 C 121.600 195.167,121.756 191.600,121.967 191.600 C 122.169 191.600,122.423 190.385,122.532 188.900 C 122.641 187.415,122.919 185.300,123.150 184.200 C 123.381 183.100,123.689 181.570,123.835 180.800 C 123.981 180.030,124.258 179.202,124.450 178.959 C 124.643 178.717,124.894 177.457,125.008 176.159 L 125.216 173.800 120.726 170.400 C 118.257 168.530,112.871 164.385,108.757 161.190 C 104.644 157.994,100.690 154.934,99.970 154.390 C 99.251 153.845,97.299 152.318,95.631 150.996 C 93.964 149.674,91.524 147.784,90.209 146.796 C 88.894 145.808,87.454 144.702,87.009 144.337 C 83.997 141.871,78.320 137.600,78.054 137.600 C 77.878 137.600,77.613 137.720,77.467 137.867 " stroke="none" fill="#fbbb04" fill-rule="evenodd"></path><path id="path2" d="M202.000 201.600 L 202.000 229.200 239.200 229.200 L 276.400 229.200 276.400 230.800 C 276.400 231.680,276.220 232.400,276.000 232.400 C 275.780 232.400,275.600 233.120,275.600 234.000 C 275.600 234.880,275.420 235.600,275.200 235.600 C 274.980 235.600,274.800 236.140,274.800 236.800 C 274.800 237.460,274.620 238.000,274.400 238.000 C 274.180 238.000,274.000 238.360,274.000 238.800 C 274.000 239.240,273.820 239.600,273.600 239.600 C 273.380 239.600,273.200 240.140,273.200 240.800 C 273.200 241.460,273.020 242.000,272.800 242.000 C 272.580 242.000,272.400 242.360,272.400 242.800 C 272.400 243.240,272.254 243.600,272.075 243.600 C 271.896 243.600,271.502 244.230,271.200 245.000 C 270.898 245.770,270.504 246.400,270.325 246.400 C 270.146 246.400,270.000 246.760,270.000 247.200 C 270.000 247.640,269.848 248.000,269.663 248.000 C 269.477 248.000,268.896 248.855,268.370 249.900 C 267.844 250.945,267.096 252.091,266.707 252.447 C 266.318 252.803,266.000 253.298,266.000 253.546 C 266.000 253.795,265.280 254.741,264.400 255.648 C 263.520 256.555,262.800 257.452,262.800 257.643 C 262.800 258.152,255.687 265.200,255.174 265.200 C 254.934 265.200,254.046 265.920,253.200 266.800 C 252.354 267.680,251.456 268.400,251.203 268.400 C 250.950 268.400,250.459 268.684,250.112 269.031 C 249.250 269.893,250.463 270.973,262.570 280.116 C 263.213 280.602,264.653 281.732,265.770 282.627 C 266.886 283.521,269.060 285.226,270.600 286.415 C 272.140 287.603,275.267 290.021,277.549 291.788 C 279.830 293.555,282.635 295.720,283.782 296.600 C 290.683 301.898,294.800 305.274,294.800 305.636 C 294.800 305.836,295.084 306.000,295.432 306.000 C 296.089 306.000,304.400 297.760,304.400 297.108 C 304.400 296.904,305.096 296.068,305.947 295.251 C 306.798 294.433,307.773 293.232,308.114 292.582 C 308.454 291.932,309.108 291.135,309.566 290.812 C 310.025 290.488,310.400 289.975,310.400 289.672 C 310.400 289.369,310.940 288.617,311.600 288.000 C 312.260 287.383,312.800 286.631,312.800 286.328 C 312.800 286.025,313.160 285.517,313.600 285.200 C 314.040 284.883,314.400 284.343,314.400 284.000 C 314.400 283.657,314.760 283.117,315.200 282.800 C 315.640 282.483,316.000 281.943,316.000 281.600 C 316.000 281.257,316.360 280.717,316.800 280.400 C 317.240 280.083,317.600 279.503,317.600 279.112 C 317.600 278.720,317.780 278.400,318.000 278.400 C 318.220 278.400,318.400 278.040,318.400 277.600 C 318.400 277.160,318.580 276.800,318.800 276.800 C 319.020 276.800,319.200 276.480,319.200 276.088 C 319.200 275.697,319.560 275.117,320.000 274.800 C 320.440 274.483,320.800 273.918,320.800 273.545 C 320.800 273.172,320.944 272.807,321.120 272.733 C 321.645 272.514,324.724 265.813,325.017 264.249 C 325.167 263.452,325.449 262.800,325.645 262.800 C 325.840 262.800,326.000 262.440,326.000 262.000 C 326.000 261.560,326.180 261.200,326.400 261.200 C 326.620 261.200,326.800 260.660,326.800 260.000 C 326.800 259.340,326.980 258.800,327.200 258.800 C 327.420 258.800,327.600 258.350,327.600 257.800 C 327.600 257.250,327.780 256.800,328.000 256.800 C 328.220 256.800,328.400 256.451,328.400 256.024 C 328.400 255.597,328.580 255.136,328.800 255.000 C 329.020 254.864,329.200 254.313,329.200 253.776 C 329.200 253.239,329.380 252.800,329.600 252.800 C 329.820 252.800,330.000 252.080,330.000 251.200 C 330.000 250.320,330.180 249.600,330.400 249.600 C 330.620 249.600,330.800 249.060,330.800 248.400 C 330.800 247.740,330.980 247.200,331.200 247.200 C 331.420 247.200,331.600 246.480,331.600 245.600 C 331.600 244.720,331.780 244.000,332.000 244.000 C 332.220 244.000,332.400 243.370,332.400 242.600 C 332.400 241.830,332.580 241.200,332.800 241.200 C 333.020 241.200,333.200 240.491,333.200 239.624 C 333.200 238.757,333.380 237.936,333.600 237.800 C 333.820 237.664,334.000 236.764,334.000 235.800 C 334.000 234.836,334.180 233.936,334.400 233.800 C 334.620 233.664,334.800 232.573,334.800 231.376 C 334.800 230.179,334.980 229.200,335.200 229.200 C 335.429 229.200,335.600 228.000,335.600 226.400 C 335.600 224.800,335.771 223.600,336.000 223.600 C 336.241 223.600,336.400 221.941,336.400 219.424 C 336.400 217.071,336.575 215.139,336.800 215.000 C 337.051 214.845,337.200 210.529,337.200 203.376 C 337.200 196.059,337.057 192.000,336.800 192.000 C 336.558 192.000,336.400 190.267,336.400 187.600 C 336.400 184.933,336.242 183.200,336.000 183.200 C 335.775 183.200,335.600 182.075,335.600 180.624 C 335.600 179.207,335.420 177.936,335.200 177.800 C 334.980 177.664,334.800 176.753,334.800 175.776 L 334.800 174.000 268.400 174.000 L 202.000 174.000 202.000 201.600 " stroke="none" fill="#3c84f4" fill-rule="evenodd"></path><path id="path3" d="M200.400 60.366 C 200.400 60.567,199.230 60.792,197.799 60.866 C 196.369 60.940,195.199 60.900,195.199 60.778 C 195.200 60.656,194.464 60.513,193.565 60.460 C 192.316 60.386,192.004 60.486,192.242 60.882 C 192.488 61.291,192.430 61.300,191.965 60.924 C 191.465 60.520,190.822 60.492,188.276 60.765 C 188.098 60.784,188.088 61.025,188.253 61.300 C 188.457 61.640,188.337 61.624,187.877 61.251 C 187.452 60.907,187.200 60.866,187.200 61.141 C 187.200 61.415,186.750 61.490,186.001 61.340 C 185.289 61.198,184.558 61.303,184.201 61.599 C 183.749 61.974,183.600 61.980,183.600 61.622 C 183.600 61.055,181.955 61.473,181.506 62.154 C 181.344 62.399,181.209 62.459,181.206 62.286 C 181.203 62.113,180.818 62.176,180.352 62.426 C 179.756 62.745,179.584 62.749,179.775 62.440 C 179.950 62.157,179.611 62.000,178.824 62.000 C 178.151 62.000,177.600 62.174,177.600 62.387 C 177.600 62.601,177.300 62.660,176.934 62.519 C 176.487 62.348,176.364 62.417,176.558 62.732 C 176.829 63.170,175.655 63.450,174.600 63.200 C 173.570 62.955,173.006 63.036,173.074 63.421 C 173.116 63.661,172.516 63.814,171.674 63.778 C 169.992 63.706,168.311 64.332,168.661 64.898 C 168.790 65.108,168.501 65.068,168.017 64.809 C 167.111 64.324,165.794 64.542,166.150 65.118 C 166.260 65.297,165.792 65.404,165.110 65.357 C 164.267 65.298,163.626 65.547,163.105 66.135 C 162.684 66.611,162.453 66.775,162.593 66.500 C 162.899 65.898,162.324 65.836,161.750 66.410 C 161.525 66.635,160.679 66.844,159.870 66.874 C 159.062 66.905,158.400 67.080,158.400 67.265 C 158.400 67.449,157.879 67.600,157.243 67.600 C 156.562 67.600,155.987 67.858,155.846 68.225 C 155.714 68.569,155.444 68.750,155.245 68.628 C 154.772 68.336,152.000 69.500,152.000 69.991 C 152.000 70.201,151.595 70.568,151.100 70.808 C 150.236 71.227,150.231 71.219,150.976 70.622 C 151.740 70.010,151.739 70.000,150.910 70.000 C 150.446 70.000,150.003 70.190,149.926 70.422 C 149.849 70.654,149.479 70.889,149.104 70.944 C 148.730 70.999,148.298 71.169,148.145 71.322 C 147.992 71.475,147.571 71.600,147.209 71.600 C 146.847 71.600,146.164 71.960,145.692 72.400 C 145.220 72.840,144.376 73.200,143.817 73.200 C 143.258 73.200,142.800 73.380,142.800 73.600 C 142.800 73.820,142.552 74.000,142.249 74.000 C 141.946 74.000,141.483 74.259,141.220 74.576 C 140.957 74.893,140.485 75.054,140.171 74.933 C 139.857 74.813,139.600 74.914,139.600 75.157 C 139.600 75.401,139.240 75.600,138.800 75.600 C 138.360 75.600,138.000 75.780,138.000 76.000 C 138.000 76.220,137.621 76.400,137.157 76.400 C 136.647 76.400,136.390 76.598,136.506 76.900 C 136.619 77.194,136.349 77.425,135.849 77.461 C 134.506 77.558,132.215 78.683,130.888 79.900 C 130.588 80.175,130.156 80.400,129.929 80.400 C 129.701 80.400,129.610 80.650,129.727 80.955 C 129.876 81.343,129.711 81.449,129.175 81.309 C 128.702 81.186,128.315 81.356,128.162 81.755 C 128.026 82.110,127.574 82.400,127.157 82.400 C 126.741 82.400,126.400 82.664,126.400 82.987 C 126.400 83.350,126.166 83.485,125.788 83.340 C 125.052 83.058,123.496 84.702,123.885 85.352 C 124.033 85.598,123.846 85.551,123.471 85.246 C 122.873 84.761,122.684 84.812,121.960 85.646 C 121.505 86.171,121.008 86.600,120.857 86.600 C 120.146 86.600,118.359 88.409,118.632 88.852 C 118.838 89.186,118.723 89.256,118.259 89.078 C 117.514 88.792,116.000 89.872,116.000 90.689 C 116.000 90.970,115.629 91.200,115.176 91.200 C 114.723 91.200,114.464 91.380,114.600 91.600 C 114.736 91.820,114.508 92.000,114.093 92.000 C 113.364 92.000,111.263 93.859,111.533 94.266 C 111.607 94.376,111.533 94.587,111.369 94.733 C 111.206 94.880,111.222 94.730,111.405 94.400 C 111.617 94.017,111.423 94.076,110.869 94.562 C 110.391 94.981,110.000 95.489,110.000 95.691 C 110.000 96.274,108.916 97.200,108.233 97.200 C 107.264 97.200,100.304 104.373,100.579 105.088 C 100.733 105.492,100.623 105.618,100.244 105.472 C 99.905 105.342,99.598 105.565,99.477 106.028 C 99.366 106.452,98.969 106.800,98.595 106.800 C 98.165 106.800,97.996 107.013,98.137 107.380 C 98.285 107.767,98.167 107.885,97.780 107.737 C 97.073 107.466,96.998 108.241,97.700 108.563 C 97.975 108.689,97.795 108.692,97.300 108.569 C 96.358 108.336,96.034 108.971,96.900 109.355 C 97.175 109.477,97.045 109.537,96.612 109.488 C 96.066 109.427,95.575 109.861,95.012 110.903 C 94.565 111.729,93.872 112.510,93.471 112.639 C 93.054 112.772,92.834 113.112,92.957 113.431 C 93.075 113.740,92.954 113.948,92.686 113.895 C 92.408 113.841,92.221 114.192,92.249 114.716 C 92.277 115.235,92.104 115.566,91.849 115.479 C 91.401 115.326,89.601 117.116,89.600 117.717 C 89.600 118.066,89.018 118.818,87.805 120.037 C 87.122 120.724,87.094 120.889,87.605 121.212 C 88.079 121.512,88.018 121.589,87.300 121.594 C 86.805 121.597,86.400 121.836,86.400 122.125 C 86.400 122.413,86.040 123.036,85.600 123.508 C 85.160 123.980,84.800 124.644,84.800 124.983 C 84.800 125.322,84.601 125.600,84.357 125.600 C 84.114 125.600,84.014 125.861,84.137 126.180 C 84.269 126.525,84.165 126.688,83.880 126.583 C 83.608 126.483,82.966 127.316,82.400 128.503 C 81.850 129.656,81.089 130.944,80.709 131.366 C 80.278 131.843,80.091 132.521,80.211 133.166 C 80.318 133.735,80.299 133.975,80.169 133.700 C 79.709 132.724,79.224 133.218,79.464 134.418 C 79.598 135.088,79.548 135.583,79.354 135.518 C 79.159 135.453,78.942 135.580,78.871 135.800 C 78.801 136.020,78.451 136.523,78.094 136.917 C 77.494 137.580,77.495 137.615,78.112 137.378 C 78.479 137.238,79.026 137.365,79.326 137.661 C 79.627 137.958,80.470 138.650,81.200 139.200 C 81.930 139.750,82.723 140.380,82.963 140.600 C 83.204 140.820,84.480 141.810,85.799 142.800 C 87.119 143.790,88.647 145.005,89.195 145.500 C 89.743 145.995,90.301 146.400,90.435 146.400 C 90.568 146.400,91.110 146.771,91.639 147.224 C 93.796 149.074,94.245 149.429,95.244 150.072 C 95.818 150.442,96.542 150.982,96.854 151.272 C 97.165 151.563,98.225 152.423,99.210 153.185 C 100.194 153.947,101.060 154.712,101.133 154.885 C 101.207 155.058,101.445 155.200,101.662 155.200 C 101.879 155.200,102.286 155.425,102.565 155.700 C 102.845 155.975,103.673 156.650,104.406 157.200 C 105.139 157.750,106.149 158.605,106.651 159.100 C 107.153 159.595,107.713 160.000,107.895 160.000 C 108.078 160.000,108.851 160.538,109.614 161.195 C 110.787 162.205,116.303 166.495,120.571 169.716 C 122.602 171.249,124.189 172.573,124.500 172.994 C 124.701 173.266,124.899 173.259,125.100 172.971 C 125.265 172.735,125.715 172.425,126.100 172.283 C 126.508 172.133,126.800 171.613,126.800 171.036 C 126.800 170.492,126.980 169.936,127.200 169.800 C 127.420 169.664,127.600 169.203,127.600 168.776 C 127.600 168.349,127.780 168.000,128.000 168.000 C 128.220 168.000,128.400 167.550,128.400 167.000 C 128.400 166.450,128.580 166.000,128.800 166.000 C 129.020 166.000,129.200 165.640,129.200 165.200 C 129.200 164.760,129.380 164.400,129.600 164.400 C 129.820 164.400,130.000 164.040,130.000 163.600 C 130.000 163.160,130.176 162.800,130.390 162.800 C 130.605 162.800,130.693 162.215,130.586 161.500 C 130.479 160.785,130.499 160.425,130.629 160.700 C 131.019 161.521,131.675 161.266,131.400 160.400 C 131.242 159.902,131.328 159.600,131.629 159.600 C 132.217 159.600,133.170 158.406,133.187 157.647 C 133.194 157.343,133.577 156.767,134.037 156.368 C 134.497 155.969,134.756 155.453,134.613 155.221 C 134.470 154.990,134.538 154.800,134.764 154.800 C 134.990 154.800,135.068 154.523,134.938 154.184 C 134.788 153.791,134.902 153.610,135.251 153.684 C 135.553 153.748,135.755 153.575,135.700 153.300 C 135.645 153.025,135.802 152.845,136.048 152.900 C 136.600 153.023,137.974 150.753,137.683 150.200 C 137.567 149.980,137.617 149.932,137.795 150.093 C 137.973 150.254,138.452 150.001,138.859 149.532 C 139.684 148.581,139.853 147.797,139.138 148.238 C 138.859 148.411,138.785 148.348,138.951 148.079 C 139.102 147.835,139.521 147.748,139.882 147.887 C 140.375 148.076,140.475 147.973,140.284 147.474 C 140.144 147.109,140.165 146.852,140.332 146.905 C 140.867 147.073,144.033 143.463,143.825 142.922 C 143.715 142.633,143.898 142.400,144.236 142.400 C 144.572 142.400,144.736 142.220,144.600 142.000 C 144.464 141.780,144.608 141.600,144.920 141.600 C 145.233 141.600,145.826 141.150,146.239 140.600 C 146.652 140.050,147.217 139.600,147.495 139.600 C 147.773 139.600,148.000 139.432,148.000 139.227 C 148.000 139.022,148.369 138.737,148.821 138.593 C 149.483 138.383,149.550 138.221,149.164 137.757 C 148.783 137.298,148.803 137.226,149.262 137.402 C 149.862 137.633,153.326 134.677,153.718 133.600 C 153.874 133.174,153.946 133.154,153.968 133.534 C 153.988 133.871,154.574 133.613,155.558 132.834 C 156.414 132.155,157.314 131.600,157.558 131.600 C 157.801 131.600,157.955 131.375,157.900 131.100 C 157.845 130.825,158.025 130.645,158.300 130.700 C 158.575 130.755,158.800 130.620,158.800 130.400 C 158.800 130.180,159.179 130.000,159.643 130.000 C 160.214 130.000,160.414 129.814,160.263 129.420 C 160.115 129.033,160.233 128.915,160.620 129.063 C 160.939 129.186,161.200 129.086,161.200 128.843 C 161.200 128.599,161.483 128.400,161.829 128.400 C 162.636 128.400,163.648 127.397,163.281 126.961 C 163.126 126.777,163.315 126.867,163.700 127.162 C 164.303 127.624,164.400 127.602,164.400 127.006 C 164.400 126.562,164.610 126.395,164.987 126.540 C 165.310 126.664,165.681 126.593,165.811 126.383 C 165.941 126.172,166.397 126.000,166.824 126.000 C 167.251 126.000,167.600 125.854,167.600 125.675 C 167.600 125.496,168.230 125.102,169.000 124.800 C 169.770 124.498,170.403 123.969,170.406 123.625 C 170.411 123.122,170.479 123.106,170.756 123.543 C 170.996 123.921,171.183 123.951,171.374 123.643 C 171.524 123.399,171.997 123.200,172.424 123.200 C 172.851 123.200,173.200 123.020,173.200 122.800 C 173.200 122.580,173.849 122.400,174.643 122.400 C 175.723 122.400,176.031 122.258,175.868 121.833 C 175.748 121.521,175.909 121.167,176.225 121.046 C 176.541 120.924,176.800 120.999,176.800 121.213 C 176.800 121.801,177.466 121.676,178.190 120.952 C 178.547 120.596,178.942 120.409,179.070 120.536 C 179.197 120.664,179.774 120.530,180.351 120.239 C 180.928 119.948,181.654 119.800,181.964 119.909 C 182.372 120.054,182.450 119.907,182.247 119.377 C 181.976 118.673,181.997 118.673,182.783 119.384 C 183.467 120.004,183.600 120.024,183.600 119.506 C 183.600 119.026,183.925 118.932,185.052 119.084 C 185.955 119.205,186.618 119.095,186.805 118.792 C 186.971 118.524,187.882 118.315,188.830 118.328 C 190.724 118.354,191.544 118.060,190.821 117.613 C 190.565 117.455,192.076 117.408,194.178 117.508 C 196.827 117.634,198.000 117.554,198.000 117.245 C 198.000 116.940,199.672 116.802,203.300 116.806 C 207.076 116.810,208.428 116.931,208.000 117.227 C 207.569 117.524,208.301 117.610,210.600 117.530 C 212.627 117.461,214.130 117.605,214.700 117.924 C 215.428 118.332,215.601 118.330,215.606 117.914 C 215.610 117.578,215.714 117.546,215.906 117.823 C 216.068 118.055,216.863 118.209,217.673 118.165 C 218.567 118.116,219.224 118.287,219.344 118.597 C 219.452 118.880,220.229 119.210,221.070 119.332 C 221.912 119.455,223.211 119.679,223.957 119.831 C 224.888 120.021,225.230 119.972,225.046 119.675 C 224.755 119.204,226.322 119.366,226.754 119.851 C 226.889 120.003,226.685 120.014,226.300 119.876 C 225.842 119.712,225.600 119.823,225.600 120.198 C 225.600 120.628,226.046 120.740,227.385 120.647 C 228.367 120.580,229.089 120.657,228.989 120.818 C 228.574 121.489,230.821 122.480,231.504 121.927 C 231.905 121.602,232.045 121.581,231.871 121.871 C 231.561 122.388,232.960 123.017,234.065 122.858 C 234.430 122.805,234.863 122.978,235.026 123.243 C 235.227 123.568,235.141 123.627,234.762 123.427 C 234.453 123.264,234.650 123.502,235.200 123.957 C 235.750 124.411,236.785 124.897,237.500 125.036 C 238.215 125.175,238.800 125.449,238.800 125.645 C 238.800 125.840,239.160 126.000,239.600 126.000 C 240.040 126.000,240.400 126.199,240.400 126.443 C 240.400 126.686,240.661 126.786,240.980 126.663 C 241.367 126.515,241.485 126.633,241.337 127.020 C 241.186 127.414,241.386 127.600,241.957 127.600 C 242.421 127.600,242.800 127.780,242.800 128.000 C 242.800 128.220,243.070 128.400,243.400 128.400 C 243.730 128.400,244.000 128.580,244.000 128.800 C 244.000 129.020,244.373 129.200,244.829 129.200 C 245.284 129.200,245.927 129.470,246.257 129.800 C 246.587 130.130,246.713 130.400,246.536 130.400 C 246.359 130.400,246.931 130.884,247.807 131.475 C 248.683 132.067,249.877 133.057,250.460 133.675 C 251.044 134.294,251.636 134.800,251.777 134.800 C 251.918 134.800,252.420 135.160,252.892 135.600 C 253.364 136.040,253.998 136.400,254.299 136.400 C 254.601 136.400,254.736 136.580,254.600 136.800 C 254.464 137.020,254.644 137.200,255.000 137.200 C 255.356 137.200,255.542 137.371,255.413 137.579 C 255.283 137.790,255.566 137.884,256.052 137.790 C 257.102 137.588,258.860 136.020,258.567 135.546 C 258.452 135.361,258.669 135.328,259.049 135.474 C 259.571 135.675,259.678 135.581,259.490 135.090 C 259.306 134.610,259.410 134.506,259.890 134.690 C 260.376 134.876,260.474 134.771,260.282 134.269 C 260.114 133.831,260.228 133.600,260.613 133.600 C 260.936 133.600,261.200 133.409,261.200 133.176 C 261.200 132.943,261.380 132.864,261.600 133.000 C 261.820 133.136,262.000 132.973,262.000 132.638 C 262.000 132.302,262.372 131.829,262.826 131.586 C 263.531 131.209,263.575 131.046,263.126 130.472 C 262.652 129.867,262.671 129.856,263.310 130.357 C 264.223 131.073,264.684 130.629,263.957 129.733 C 263.581 129.270,263.564 129.145,263.904 129.349 C 264.547 129.736,266.086 129.263,265.782 128.771 C 265.656 128.567,265.844 128.400,266.200 128.400 C 266.556 128.400,266.748 128.239,266.626 128.042 C 266.504 127.845,266.685 127.576,267.028 127.445 C 267.370 127.313,267.540 127.026,267.405 126.807 C 267.257 126.569,267.435 126.515,267.849 126.674 C 268.384 126.879,268.479 126.784,268.274 126.249 C 268.128 125.869,268.157 125.650,268.338 125.762 C 268.519 125.874,269.462 125.137,270.434 124.125 C 271.405 123.113,271.930 122.431,271.600 122.611 C 271.214 122.821,271.271 122.628,271.762 122.069 C 272.605 121.108,273.001 120.926,272.566 121.700 C 272.411 121.975,273.113 121.405,274.125 120.434 C 275.137 119.462,275.874 118.519,275.762 118.338 C 275.650 118.157,275.869 118.128,276.249 118.274 C 276.784 118.479,276.879 118.384,276.674 117.849 C 276.515 117.435,276.569 117.257,276.807 117.405 C 277.026 117.540,277.313 117.370,277.445 117.028 C 277.576 116.685,277.845 116.504,278.042 116.626 C 278.239 116.748,278.400 116.556,278.400 116.200 C 278.400 115.844,278.567 115.656,278.771 115.782 C 279.263 116.086,279.736 114.547,279.349 113.904 C 279.145 113.564,279.270 113.581,279.733 113.957 C 280.629 114.684,281.073 114.223,280.357 113.310 C 279.856 112.671,279.867 112.652,280.472 113.126 C 281.046 113.575,281.209 113.531,281.586 112.826 C 281.829 112.372,282.302 112.000,282.638 112.000 C 282.973 112.000,283.136 111.820,283.000 111.600 C 282.864 111.380,282.943 111.200,283.176 111.200 C 283.409 111.200,283.600 110.936,283.600 110.613 C 283.600 110.228,283.831 110.114,284.269 110.282 C 284.771 110.474,284.876 110.376,284.690 109.890 C 284.506 109.410,284.610 109.306,285.090 109.490 C 285.581 109.678,285.675 109.571,285.474 109.049 C 285.328 108.669,285.359 108.451,285.541 108.564 C 285.724 108.677,286.487 108.119,287.237 107.324 C 287.986 106.530,288.411 105.985,288.181 106.114 C 287.950 106.242,287.500 106.162,287.181 105.936 C 286.704 105.598,286.723 105.564,287.287 105.745 C 287.665 105.866,288.083 105.790,288.215 105.576 C 288.347 105.362,288.627 105.293,288.838 105.423 C 289.048 105.553,289.170 105.511,289.110 105.330 C 289.049 105.148,289.180 104.947,289.400 104.882 C 290.129 104.666,292.372 102.279,292.164 101.941 C 292.051 101.759,292.269 101.728,292.649 101.874 C 293.176 102.076,293.279 101.982,293.084 101.474 C 292.944 101.109,292.983 100.852,293.171 100.905 C 293.359 100.957,293.893 100.567,294.356 100.039 C 294.820 99.510,295.201 99.240,295.202 99.439 C 295.204 99.637,295.477 99.278,295.810 98.640 C 296.142 98.003,296.321 97.388,296.207 97.274 C 296.093 97.160,296.000 97.307,296.000 97.600 C 296.000 97.893,295.895 98.029,295.768 97.901 C 295.640 97.773,295.736 97.293,295.982 96.834 C 296.293 96.253,296.298 96.000,296.000 96.000 C 295.528 96.000,294.347 95.011,291.998 92.647 C 290.975 91.618,290.236 91.177,289.806 91.342 C 289.450 91.479,289.258 91.429,289.381 91.232 C 289.719 90.684,289.238 89.742,288.583 89.667 C 288.262 89.630,287.747 89.570,287.438 89.533 C 287.129 89.497,286.963 89.240,287.069 88.964 C 287.175 88.688,286.902 88.269,286.462 88.033 C 286.022 87.798,285.362 87.305,284.995 86.938 C 284.429 86.372,284.268 86.356,283.937 86.835 C 283.654 87.246,283.616 87.155,283.801 86.500 C 283.986 85.842,283.885 85.600,283.427 85.600 C 283.082 85.600,282.800 85.420,282.800 85.200 C 282.800 84.980,282.570 84.800,282.288 84.800 C 282.007 84.800,281.517 84.440,281.200 84.000 C 280.883 83.560,280.203 83.200,279.688 83.200 C 279.174 83.200,278.852 83.039,278.974 82.842 C 279.096 82.645,278.912 82.375,278.565 82.242 C 277.661 81.895,277.515 81.939,277.838 82.462 C 278.021 82.757,277.947 82.815,277.635 82.622 C 277.367 82.456,277.240 82.226,277.354 82.112 C 277.728 81.739,276.418 80.741,275.941 81.036 C 275.661 81.210,275.584 81.150,275.747 80.885 C 275.907 80.627,275.398 80.158,274.509 79.744 C 273.679 79.358,272.868 78.852,272.706 78.621 C 272.523 78.359,272.408 78.351,272.400 78.600 C 272.393 78.820,272.213 78.730,272.000 78.400 C 271.678 77.901,271.607 77.935,271.581 78.600 C 271.553 79.314,271.509 79.300,271.174 78.462 C 270.967 77.947,270.438 77.431,269.999 77.316 C 269.560 77.201,269.200 76.948,269.200 76.753 C 269.200 76.559,268.840 76.400,268.400 76.400 C 267.960 76.400,267.600 76.217,267.600 75.992 C 267.600 75.757,267.176 75.691,266.595 75.837 C 265.759 76.047,265.635 75.973,265.856 75.398 C 266.068 74.845,265.961 74.759,265.317 74.963 C 264.823 75.120,264.320 74.985,264.011 74.613 C 263.735 74.281,263.361 74.101,263.179 74.213 C 262.998 74.325,262.664 74.098,262.437 73.708 C 262.210 73.319,262.019 73.139,262.012 73.309 C 261.998 73.661,259.949 72.431,259.517 71.813 C 259.331 71.546,259.066 71.574,258.745 71.895 C 258.360 72.280,258.024 72.123,257.163 71.159 C 256.338 70.235,255.790 69.965,254.935 70.062 C 254.184 70.148,253.835 70.021,253.903 69.687 C 253.971 69.353,253.668 69.245,253.003 69.365 C 252.297 69.493,252.000 69.369,252.000 68.947 C 252.000 68.541,251.756 68.424,251.247 68.585 C 250.759 68.740,250.406 68.593,250.242 68.166 C 250.070 67.718,249.674 67.569,248.995 67.699 C 248.329 67.826,248.000 67.709,248.000 67.345 C 248.000 67.045,247.820 66.800,247.600 66.800 C 247.380 66.800,247.200 66.980,247.200 67.200 C 247.200 67.762,246.375 67.527,245.440 66.700 C 244.548 65.910,242.577 65.715,243.038 66.462 C 243.215 66.748,243.148 66.815,242.862 66.638 C 242.608 66.481,242.400 66.089,242.400 65.767 C 242.400 65.335,242.033 65.222,241.000 65.335 C 240.059 65.439,239.600 65.324,239.600 64.986 C 239.600 64.661,239.086 64.506,238.153 64.550 C 237.295 64.591,236.626 64.411,236.510 64.109 C 236.402 63.829,236.143 63.600,235.934 63.600 C 235.724 63.600,235.664 63.780,235.800 64.000 C 236.131 64.536,235.936 64.506,234.530 63.805 C 233.874 63.478,232.596 63.117,231.689 63.003 C 230.783 62.889,229.627 62.657,229.120 62.488 C 228.614 62.319,227.570 62.195,226.800 62.213 C 226.030 62.232,225.284 62.076,225.143 61.869 C 225.001 61.661,223.921 61.424,222.743 61.342 C 221.194 61.234,220.822 61.297,221.400 61.568 C 222.030 61.864,222.061 61.950,221.546 61.972 C 221.186 61.987,220.389 61.739,219.774 61.420 C 219.160 61.102,218.509 60.932,218.329 61.044 C 218.148 61.156,218.000 61.057,218.000 60.824 C 218.000 60.591,217.730 60.400,217.400 60.400 C 217.070 60.400,216.797 60.625,216.794 60.900 C 216.790 61.241,216.694 61.262,216.494 60.965 C 216.149 60.454,211.818 60.217,211.095 60.669 C 210.432 61.084,205.436 60.821,205.267 60.362 C 205.092 59.887,200.400 59.890,200.400 60.366 M125.412 173.317 C 125.241 173.712,125.213 174.147,125.351 174.284 C 125.757 174.690,126.084 174.120,125.897 173.331 C 125.732 172.633,125.710 172.632,125.412 173.317 " stroke="none" fill="#e44434" fill-rule="evenodd"></path><path id="path4" d="M195.200 60.703 C 195.200 60.869,196.055 60.952,197.100 60.886 C 200.387 60.679,200.698 60.511,197.900 60.454 C 196.415 60.425,195.200 60.536,195.200 60.703 M207.800 60.790 C 209.340 60.935,210.771 60.907,210.980 60.727 C 211.189 60.547,209.929 60.428,208.180 60.463 L 205.000 60.526 207.800 60.790 M180.400 62.036 C 179.597 62.692,179.567 62.772,180.247 62.441 C 180.713 62.214,181.208 62.142,181.347 62.281 C 181.486 62.420,181.600 62.337,181.600 62.096 C 181.600 61.855,181.915 61.576,182.300 61.476 C 182.887 61.322,182.871 61.287,182.200 61.255 C 181.760 61.235,180.950 61.586,180.400 62.036 M220.200 61.600 C 220.336 61.820,220.842 61.987,221.324 61.972 C 222.169 61.945,222.171 61.931,221.400 61.600 C 220.299 61.127,219.908 61.127,220.200 61.600 M174.326 63.146 C 174.813 63.454,176.800 63.300,176.800 62.953 C 176.800 62.869,176.125 62.803,175.300 62.806 C 174.344 62.810,173.991 62.933,174.326 63.146 M160.600 66.400 C 160.464 66.620,160.623 66.800,160.953 66.800 C 161.283 66.800,161.664 66.620,161.800 66.400 C 161.936 66.180,161.777 66.000,161.447 66.000 C 161.117 66.000,160.736 66.180,160.600 66.400 M256.800 71.244 C 256.285 71.614,256.295 71.645,256.867 71.463 C 257.247 71.342,257.633 71.508,257.764 71.851 C 257.891 72.181,258.184 72.333,258.417 72.190 C 258.707 72.010,258.693 71.753,258.370 71.364 C 257.812 70.692,257.591 70.675,256.800 71.244 M270.953 78.227 C 271.299 78.971,271.432 79.042,271.541 78.537 C 271.658 77.993,271.746 77.977,272.071 78.442 C 272.404 78.918,272.439 78.918,272.310 78.438 C 272.227 78.129,271.787 77.739,271.332 77.571 C 270.577 77.291,270.544 77.348,270.953 78.227 M129.239 80.553 C 128.886 80.979,128.916 81.159,129.369 81.333 C 129.782 81.491,129.887 81.371,129.719 80.933 C 129.527 80.434,129.672 80.362,130.439 80.580 C 131.178 80.789,131.261 80.755,130.800 80.432 C 130.008 79.878,129.785 79.895,129.239 80.553 M288.962 90.462 C 288.772 90.769,288.854 90.814,289.206 90.596 C 289.587 90.361,289.667 90.450,289.488 90.914 C 289.313 91.371,289.413 91.493,289.831 91.333 C 290.284 91.159,290.314 90.979,289.961 90.553 C 289.404 89.882,289.325 89.874,288.962 90.462 M110.564 94.491 C 110.144 94.983,110.070 95.180,110.400 94.927 C 110.730 94.675,111.135 94.453,111.300 94.434 C 111.640 94.395,111.751 94.018,111.498 93.764 C 111.405 93.671,110.985 93.998,110.564 94.491 M108.860 96.242 C 108.131 97.066,108.600 97.457,109.381 96.676 C 109.721 96.336,110.000 95.954,110.000 95.829 C 110.000 95.409,109.406 95.624,108.860 96.242 M295.949 96.700 C 295.737 97.947,295.753 98.800,295.988 98.800 C 296.141 98.800,296.267 98.260,296.267 97.600 C 296.267 96.508,296.074 95.964,295.949 96.700 M288.652 105.142 C 288.221 105.619,287.655 105.850,287.262 105.709 C 286.898 105.579,286.711 105.597,286.846 105.749 C 287.342 106.306,288.761 106.328,289.212 105.786 C 289.979 104.861,289.453 104.257,288.652 105.142 M227.728 120.986 C 227.937 121.612,229.067 121.710,229.067 121.102 C 229.067 120.810,228.735 120.571,228.329 120.571 C 227.923 120.571,227.653 120.758,227.728 120.986 M271.827 121.970 C 271.165 122.701,271.165 122.734,271.832 122.636 C 272.218 122.580,272.578 122.233,272.631 121.867 C 272.756 121.020,272.678 121.030,271.827 121.970 M231.412 121.980 C 231.166 122.379,232.726 123.408,233.064 123.069 C 233.172 122.961,232.884 122.754,232.424 122.608 C 231.965 122.462,231.692 122.175,231.818 121.971 C 231.944 121.767,231.957 121.600,231.847 121.600 C 231.737 121.600,231.542 121.771,231.412 121.980 M233.851 123.388 C 233.987 123.743,234.270 123.977,234.479 123.907 C 235.079 123.707,234.907 123.013,234.223 122.871 C 233.795 122.782,233.680 122.942,233.851 123.388 M78.900 134.598 C 78.255 135.331,78.270 135.467,79.000 135.467 C 79.330 135.467,79.600 135.137,79.600 134.733 C 79.600 133.866,79.553 133.856,78.900 134.598 M78.000 136.409 C 77.307 136.868,76.949 136.530,83.261 141.381 C 85.538 143.131,87.490 144.661,87.600 144.782 C 87.710 144.903,88.880 145.810,90.200 146.797 C 91.520 147.784,93.964 149.674,95.631 150.996 C 97.299 152.318,99.262 153.850,99.994 154.400 C 100.726 154.950,102.647 156.439,104.263 157.708 C 105.878 158.978,107.200 159.899,107.200 159.755 C 107.200 159.463,106.343 158.683,104.390 157.200 C 103.666 156.650,102.845 155.975,102.565 155.700 C 102.286 155.425,101.879 155.200,101.662 155.200 C 101.445 155.200,101.207 155.058,101.133 154.885 C 101.060 154.712,100.196 153.947,99.213 153.185 C 98.231 152.423,96.973 151.395,96.417 150.900 C 95.862 150.405,95.299 150.000,95.165 150.000 C 95.032 150.000,94.490 149.629,93.961 149.176 C 91.804 147.326,91.355 146.971,90.356 146.328 C 89.782 145.958,89.062 145.418,88.756 145.128 C 88.450 144.837,87.120 143.790,85.800 142.800 C 84.480 141.810,83.204 140.820,82.963 140.600 C 82.723 140.380,81.930 139.750,81.200 139.200 C 80.470 138.650,79.645 137.975,79.365 137.700 C 79.086 137.425,78.642 137.200,78.380 137.200 C 78.019 137.200,78.024 137.054,78.400 136.600 C 78.975 135.907,78.850 135.847,78.000 136.409 M150.183 137.227 C 150.038 137.462,149.622 137.542,149.260 137.404 C 148.756 137.212,148.710 137.264,149.066 137.623 C 149.423 137.982,149.749 137.941,150.455 137.446 C 150.963 137.091,151.169 136.800,150.913 136.800 C 150.657 136.800,150.328 136.992,150.183 137.227 M134.919 154.074 C 135.049 154.445,134.940 154.836,134.678 154.943 C 134.309 155.092,134.309 155.144,134.676 155.168 C 135.419 155.218,135.746 154.381,135.186 153.865 C 134.793 153.502,134.734 153.548,134.919 154.074 M108.433 160.913 C 115.327 166.834,124.923 173.648,125.523 173.049 C 125.890 172.682,125.975 172.400,125.719 172.400 C 125.470 172.400,125.175 172.625,125.064 172.900 C 124.930 173.229,124.748 173.261,124.530 172.994 C 124.179 172.562,122.501 171.172,120.571 169.716 C 116.303 166.495,110.787 162.205,109.614 161.195 C 108.851 160.538,108.041 160.006,107.814 160.013 C 107.586 160.020,107.865 160.425,108.433 160.913 " stroke="none" fill="#ec4434" fill-rule="evenodd"></path></g></svg>