<svg xmlns="http://www.w3.org/2000/svg" viewBox="0 0 1080 1080"><defs><style>.a{fill:none;}.b{fill:#111;}</style></defs><title>ico-distribution</title><path class="a" d="M408.4,562.1,291.1,505.7a27.7,27.7,0,0,0-12.2-2.9,28.2,28.2,0,0,0-25.1,15.8,27.9,27.9,0,0,0-1.1,21.4,27.2,27.2,0,0,0,14.2,15.9l117.3,56.4c13.7,6.7,30.8.3,37.2-13a28.1,28.1,0,0,0,1.2-21.3A27.5,27.5,0,0,0,408.4,562.1Z"/><path class="b" d="M507.2,509.9,188.8,356.7a11.1,11.1,0,0,0-11,.6,11.5,11.5,0,0,0-5.4,9.7V744.8a11.4,11.4,0,0,0,6.5,10.3L497.3,908.4a10.4,10.4,0,0,0,4.9,1.1,11.9,11.9,0,0,0,6.1-1.7,11.6,11.6,0,0,0,5.4-9.7V520.2A11.4,11.4,0,0,0,507.2,509.9Zm-85.8,89.4c-6.4,13.3-23.5,19.7-37.2,13L266.9,555.9A27.2,27.2,0,0,1,252.7,540a27.9,27.9,0,0,1,1.1-21.4,28.2,28.2,0,0,1,25.1-15.8,27.7,27.7,0,0,1,12.2,2.9l117.3,56.4A27.5,27.5,0,0,1,422.6,578,28.1,28.1,0,0,1,421.4,599.3Z"/><path class="b" d="M905.4,357.5a11.4,11.4,0,0,0-11-.7L576,509.9a11.5,11.5,0,0,0-6.5,10.4V898.1a11.4,11.4,0,0,0,5.4,9.7,11.7,11.7,0,0,0,6.1,1.7,10.6,10.6,0,0,0,4.9-1.1L904.3,755.1a11.4,11.4,0,0,0,6.5-10.3V367.2A11.3,11.3,0,0,0,905.4,357.5Z"/><path class="b" d="M859.4,314.8a11.4,11.4,0,0,0-6.5-10.3L546.7,157.1a11.5,11.5,0,0,0-9.9,0s-313,153.1-313,157.5a11.4,11.4,0,0,0,6.5,10.3L536.6,472.3a12.5,12.5,0,0,0,5,1.1c1.7,0,311.3-148.3,311.3-148.3A11.4,11.4,0,0,0,859.4,314.8Z"/></svg>