<?xml version="1.0" standalone="no"?>
<!DOCTYPE svg PUBLIC "-//W3C//DTD SVG 20010904//EN"
 "http://www.w3.org/TR/2001/REC-SVG-20010904/DTD/svg10.dtd">
<svg version="1.0" xmlns="http://www.w3.org/2000/svg" viewBox="-10 -10 220 220">
<metadata>
Created by potrace 1.15, written by Peter Selinger 2001-2017
</metadata>
<g transform="translate(0.000000,200.000000) scale(0.100000,-0.100000)"
fill="#000000" stroke="none">
<path d="M1390 1866 c0 -19 -8 -27 -37 -37 -57 -18 -89 -45 -112 -92 -24 -50
-27 -122 -7 -171 16 -38 77 -91 124 -108 l32 -12 0 -78 c0 -76 -1 -78 -20 -68
-12 6 -23 24 -27 41 -5 28 -7 29 -64 29 -59 0 -59 0 -59 -30 0 -71 66 -153
135 -166 30 -5 35 -10 35 -35 0 -27 3 -29 40 -29 36 0 40 3 40 24 0 19 8 27
38 37 56 18 88 45 111 92 25 51 28 135 7 176 -20 38 -77 86 -120 102 l-36 13
0 78 c0 76 1 78 20 68 12 -6 23 -24 27 -41 5 -28 7 -29 64 -29 59 0 59 0 59
30 0 71 -66 153 -135 166 -30 5 -35 10 -35 35 0 27 -3 29 -40 29 -36 0 -40 -3
-40 -24z"/>
<path d="M534 1606 c-30 -30 -34 -40 -34 -89 0 -45 5 -61 26 -86 53 -63 146
-63 199 0 20 25 25 41 25 86 0 49 -4 59 -34 89 -31 31 -40 34 -91 34 -51 0
-60 -3 -91 -34z"/>
<path d="M288 1333 c-70 -32 -132 -63 -138 -69 -13 -13 -69 -253 -70 -296 0
-29 31 -58 63 -58 10 0 28 11 41 25 20 22 28 24 50 15 26 -9 26 -10 26 -118
l0 -109 -111 -153 c-102 -141 -111 -155 -107 -191 3 -35 1 -39 -19 -39 -23 0
-23 -2 -23 -115 l0 -115 1000 0 1000 0 0 114 0 115 -41 3 -41 3 -55 142 -56
143 -81 59 c-73 53 -87 68 -126 140 -24 47 -50 81 -59 82 -40 3 -58 -4 -86
-37 -33 -38 -52 -41 -95 -19 -16 8 -36 12 -46 8 -15 -6 -84 -138 -84 -161 0
-5 -6 -15 -13 -21 -11 -8 -27 -1 -71 34 -63 49 -77 49 -113 0 l-19 -26 -86 38
-87 38 -71 100 -70 100 0 127 c0 70 -5 139 -11 155 -27 72 -120 134 -212 139
-58 4 -70 0 -189 -53z m28 -218 c-25 -55 -49 -101 -53 -102 -5 -2 -17 3 -28
10 -17 13 -18 18 -4 83 l14 69 55 26 c30 15 56 24 58 20 1 -4 -18 -52 -42
-106z m165 -390 l54 -80 5 -153 5 -152 -189 0 c-149 0 -186 3 -178 13 5 6 60
81 121 166 l111 153 0 76 c0 43 4 72 9 67 4 -6 33 -46 62 -90z m246 -5 c22
-26 32 -31 62 -28 23 2 62 -8 107 -26 l72 -28 -16 -27 c-25 -44 -12 -58 63
-66 62 -7 65 -8 50 -25 -9 -10 -34 -20 -55 -24 -54 -8 -109 -36 -115 -57 -3
-10 -24 -36 -47 -58 -39 -40 -42 -41 -109 -41 l-69 0 10 26 c6 14 10 89 10
167 0 144 -2 156 -45 220 l-18 29 37 -16 c20 -8 48 -29 63 -46z"/>
</g>
</svg>
