<svg xmlns="http://www.w3.org/2000/svg" xmlns:xlink="http://www.w3.org/1999/xlink" xml:space="preserve" version="1.1" style="shape-rendering:geometricPrecision;text-rendering:geometricPrecision;image-rendering:optimizeQuality;" viewBox="0 0 7774 9717.5" x="0px" y="0px" fill-rule="evenodd" clip-rule="evenodd"><defs><style type="text/css">
   
    .fil0 {fill:black;fill-rule:nonzero}
   
  </style></defs><g><path class="fil0" d="M5204 5042c0,578 -544,839 -1024,963l0 -1858c435,153 1024,335 1024,895zm-799 -575l0 1241c294,-111 575,-347 575,-666 0,-326 -314,-472 -575,-575z"/><path class="fil0" d="M2569 2732c0,-578 545,-839 1024,-963l0 1857c-420,-152 -1024,-354 -1024,-894zm800 571l0 -1237c-295,111 -575,347 -575,666 0,308 329,470 575,571z"/><path class="fil0" d="M2001 5042c0,818 902,1211 1592,1314l0 270c0,353 587,346 587,0l0 -270c688,-102 1593,-492 1593,-1314 0,-773 -998,-1035 -1593,-1230l0 -2043c480,124 1024,385 1024,963 0,266 569,257 569,0 0,-819 -902,-1212 -1593,-1314l0 -270c0,-354 -587,-346 -587,0l0 270c-690,102 -1592,495 -1592,1314 0,732 1031,1044 1592,1230l0 2043 -139 -37c-456,-117 -885,-451 -885,-926 0,-253 -568,-246 -568,0zm-225 0c0,-550 1018,-544 1018,0 0,319 280,555 575,666l0 -1585c-649,-220 -1593,-570 -1593,-1391 0,-846 847,-1368 1593,-1506l0 -78c0,-653 1036,-638 1036,0l0 78c746,138 1592,660 1592,1506 0,562 -1017,553 -1017,0 0,-319 -281,-555 -575,-666l0 1584c681,227 1592,528 1592,1392 0,845 -846,1368 -1592,1506l0 78c0,652 -1036,638 -1036,0l0 -78c-746,-138 -1593,-661 -1593,-1506z"/><path class="fil0" d="M3887 0c2146,0 3887,1740 3887,3887 0,2146 -1741,3887 -3887,3887 -2147,0 -3887,-1741 -3887,-3887 0,-2147 1740,-3887 3887,-3887zm2589 1297c-1430,-1430 -3749,-1430 -5179,0 -1430,1430 -1430,3749 0,5179 1430,1430 3749,1430 5179,0 1430,-1430 1430,-3749 0,-5179z"/></g><text x="0" y="7789" fill="#000000" font-size="5px" font-weight="bold" font-family="'Helvetica Neue', Helvetica, Arial-Unicode, Arial, Sans-serif">Created by rama</text><text x="0" y="7794" fill="#000000" font-size="5px" font-weight="bold" font-family="'Helvetica Neue', Helvetica, Arial-Unicode, Arial, Sans-serif">from the Noun Project</text></svg>