<svg xmlns="http://www.w3.org/2000/svg" xmlns:xlink="http://www.w3.org/1999/xlink" version="1.1" x="0px" y="0px" viewBox="0 0 96 120" enable-background="new 0 0 96 96" xml:space="preserve"><g><polygon points="42.196,51.954 39.607,51.954 39.607,58.479 50.271,58.479 52.039,58.479 52.039,51.954 42.889,51.954  "/><polygon points="49.58,65.697 49.58,59.172 39.607,59.172 38.916,59.172 35.506,59.172 35.506,65.697 42.889,65.697  "/><polygon points="28.123,51.264 38.916,51.264 39.607,51.264 42.196,51.264 42.196,44.739 28.123,44.739  "/><polygon points="34.814,65.697 34.814,59.172 26.481,59.172 20.741,59.172 20.741,65.697 27.431,65.697 28.123,65.697  "/><rect x="50.271" y="59.172" width="14.074" height="6.525"/><polygon points="42.889,72.912 52.732,72.912 56.963,72.912 56.963,66.389 42.889,66.389  "/><polygon points="42.889,51.263 52.732,51.263 56.963,51.263 56.963,44.738 42.889,44.738  "/><polygon points="65.038,59.172 65.038,65.697 71.728,65.697 71.728,59.172 65.857,59.172 65.165,59.172  "/><polygon points="52.73,58.479 64.346,58.479 65.165,58.479 65.165,51.955 52.73,51.955  "/><rect x="35.506" y="37.522" width="14.074" height="6.524"/><polygon points="35.506,58.479 38.916,58.479 38.916,51.954 28.123,51.954 27.431,51.954 26.481,51.954 26.481,58.479    34.814,58.479  "/><polygon points="34.814,66.387 28.123,66.387 28.123,72.912 38.916,72.912 39.607,72.912 42.196,72.912 42.196,66.387    35.506,66.387  "/><rect x="20.741" y="37.522" width="14.074" height="6.524"/><polygon points="57.655,72.912 71.728,72.912 71.729,72.912 71.729,66.389 57.655,66.389  "/><path d="M48.347,14.164h-0.694L8,31.619l0.694,1.578l3.381-1.488v50.127h71.85V31.708l3.38,1.488L88,31.619L48.347,14.164z    M82.201,31.111v49.002H71.728v-6.508h-5.87v6.508h-0.692v-6.508H52.73v6.508h-0.691v-6.51h-9.15h-0.692h-2.589v6.51h-0.692v-6.51   H28.123h-0.692h-0.95v6.51h-0.691v-6.508H13.799v-0.693H25.79h1.641v-6.525h-6.69h-0.691h-6.25v-0.689h6.25v-6.525h-6.25v-0.692   h6.25h0.692h5.049v-6.524H13.799v-0.691h11.991h1.642v-6.525H13.799v-0.692h6.25v-6.524h-6.25v-6.411h-0.368L48,15.894   l34.568,15.217H82.201z"/></g><text x="0" y="111" fill="#000000" font-size="5px" font-weight="bold" font-family="'Helvetica Neue', Helvetica, Arial-Unicode, Arial, Sans-serif">Created by designvector</text><text x="0" y="116" fill="#000000" font-size="5px" font-weight="bold" font-family="'Helvetica Neue', Helvetica, Arial-Unicode, Arial, Sans-serif">from the Noun Project</text></svg>