<svg xmlns="http://www.w3.org/2000/svg" viewBox="0 0 1080 1080"><defs><style>.a{fill:#132F30;}</style></defs><title>ico-early-recovery</title><path class="a" d="M418.2,308.7l82.4-81.5-8.9-8.8a146.4,146.4,0,0,0-207.2-.9l-147,144.4L249.9,474.3,333.2,392,819.4,879.9c23,23,61.1,23,84.1,0h0c23-23,23-61.1,0-84.1Z"/><path class="a" d="M813.2,393.7l-85.1-85,97.5-97.4-23.1-23L698,201.6l-.9.9A182.4,182.4,0,0,0,644,346.8l3.6,41.6-38.8,37.9,84.1,84.1L734.3,469l36.3,3.5c54.1,5.4,108.1-14.1,147-52.2h0l16-101-23-23Z"/><path class="a" d="M453.8,582.2l-62.2,61.3-36.3-3.6c-54-5.3-108,14.2-147,52.3l-15,102.7,23,23,97.4-97.4,85,85-97.4,97.4,23,23,104.5-13.2.9-.9a181.9,181.9,0,0,0,53.1-144.4l-3.5-41.6,59.5-58.6Z"/></svg>