<svg xmlns="http://www.w3.org/2000/svg" viewBox="0 0 1080 1080"><defs><style>.a{fill:#132F30;}</style></defs><title>ico-education</title><polygon class="a" points="903 333.6 534.2 186.1 165.5 333.6 534.2 499.5 903 333.6"/><path class="a" d="M303.8,448.3V614.8c0,61.1,103.1,110.7,230.4,110.7s230.5-49.6,230.5-110.7V448.3L534.2,552Z"/><polygon class="a" points="838.5 415.1 838.5 594.5 820 613 820 688.6 856.9 688.6 893.8 688.6 893.8 613 875.3 594.5 875.3 398.5 838.5 415.1"/><path class="a" d="M883,807H392.9a9.2,9.2,0,0,1,.4,2.9v87.6H883a12,12,0,0,0,12-12V819A12,12,0,0,0,883,807Z"/><path class="a" d="M334,807H228.4a12,12,0,0,0-12,12v66.5a12,12,0,0,0,12,12H334.1c-.1-6.7-.1-13.8-.1-21.5Z"/></svg>