<svg xmlns="http://www.w3.org/2000/svg" data-name="Your Icon" viewBox="0 0 100 125" x="0px" y="0px"><title>icon</title><path d="M91.53,23.08a49.84,49.84,0,0,0-6.38-3.53L85,19.47a40.76,40.76,0,0,0-35,.1,40.76,40.76,0,0,0-35-.1l-.2.09a49.84,49.84,0,0,0-6.37,3.53,1.5,1.5,0,0,0-.68,1.26V78.82a1.5,1.5,0,0,0,1.5,1.5h.17l16.13-1.86a7,7,0,0,0,13.91-1v-.56l2.92-.34a5.58,5.58,0,0,0,4.77,2.68h5.62a5.59,5.59,0,0,0,4.77-2.68l33,3.79h.17a1.5,1.5,0,0,0,1.5-1.5V24.34A1.5,1.5,0,0,0,91.53,23.08Zm-37.91,53a2.56,2.56,0,0,1-.8.14H47.19a2.55,2.55,0,0,1-.8-.14,2.59,2.59,0,0,1-1.52-1.33,2.56,2.56,0,0,1-.26-1.11V71.26a38.43,38.43,0,0,1,3.9,1.51l.86.38.16.05.11,0a1.5,1.5,0,0,0,.37.05h0a1.5,1.5,0,0,0,.37-.05l.11,0,.16-.05.86-.38a38.46,38.46,0,0,1,3.9-1.51v2.36a2.56,2.56,0,0,1-.26,1.11A2.59,2.59,0,0,1,53.61,76.06ZM39.5,73.84V70c.69.12,1.39.26,2.1.42v3.16Zm-3,3.36v.21a4,4,0,0,1-8,0v-41h2.75V77.37a1.24,1.24,0,0,0,2.47.15,1.17,1.17,0,0,0,0-.15V36.45H36.5V77.2Zm-25.71-52c1.09-.69,2.17-1.3,3.24-1.87v48.5a1.5,1.5,0,0,0,2.21,1.32,35.89,35.89,0,0,1,9.26-3v5.3L10.79,77.14Zm37.71-3V69.49l-.08,0q-1.94-.79-3.82-1.35-.75-.23-1.5-.42t-1.5-.36q-1.06-.23-2.1-.4v-32s0,0,0-.07a1.5,1.5,0,0,0,0-.17s0-.09,0-.14l0-.14-.06-.14,0-.07L35,26.31a2.83,2.83,0,0,0-5,0l-4.33,7.92,0,.07-.06.14,0,.14s0,.09,0,.13a1.5,1.5,0,0,0,0,.17s0,0,0,.07V67A41.77,41.77,0,0,0,17,69.46V21.85C32.77,15,45.38,20.53,48.5,22.15Zm3,0A37.51,37.51,0,0,1,83,21.87V69.46A42.2,42.2,0,0,0,58.4,67.33q-.74.16-1.5.36t-1.5.42q-1.89.56-3.82,1.35l-.08,0V22.16Zm-22,11.29,3-5.43,3,5.43ZM89.21,77.14,58.4,73.59V70.43a39.54,39.54,0,0,1,25.35,2.68A1.5,1.5,0,0,0,86,71.79V23.3c1.07.56,2.15,1.18,3.24,1.86Z"/><path d="M56.89,29.34a1.43,1.43,0,0,0,1.51.38l.15,0A19.15,19.15,0,0,1,64,28.25a25.22,25.22,0,0,1,5.26,0,27.93,27.93,0,0,1,6.43,1.35,1.5,1.5,0,0,0,1.07-2.8c-.41-.16-10-3.71-19,0l-.37.14a1.51,1.51,0,0,0-.78,2A1.48,1.48,0,0,0,56.89,29.34Z"/><path d="M76.76,37.22a24.36,24.36,0,0,0-2.8-.82c-3.44-.82-9.56-1.65-15.56.58-.35.13-.7.25-1,.4a1.51,1.51,0,0,0-.78,2,1.47,1.47,0,0,0,.33.46,1.43,1.43,0,0,0,1.5.37l.15,0A19.13,19.13,0,0,1,64,38.71a25.21,25.21,0,0,1,5.26,0c1.06.1,2,.25,2.88.41a25.09,25.09,0,0,1,3.55.94,1.5,1.5,0,0,0,1.07-2.8Z"/><path d="M76.76,47.68A30.52,30.52,0,0,0,67.46,46a24.36,24.36,0,0,0-9.06,1.43c-.35.13-.7.25-1,.4a1.51,1.51,0,0,0-.78,2,1.47,1.47,0,0,0,.33.46,1.43,1.43,0,0,0,1.5.37l.15,0A19.14,19.14,0,0,1,64,49.16q.71-.08,1.4-.12a26.11,26.11,0,0,1,3.87.08,27.87,27.87,0,0,1,6.42,1.35,1.5,1.5,0,0,0,1.07-2.8Z"/><path d="M76.76,58.13c-.38-.14-8.63-3.21-17-.69-.44.13-.87.28-1.31.44s-.7.25-1,.4a1.51,1.51,0,0,0-.78,2,1.56,1.56,0,0,0,.73.74,1.35,1.35,0,0,0,1.1.08l.15,0A19.13,19.13,0,0,1,64,59.62a25.21,25.21,0,0,1,5.27,0,28,28,0,0,1,6.43,1.35,1.5,1.5,0,0,0,1.07-2.8Z"/><text x="0" y="115" fill="#000000" font-size="5px" font-weight="bold" font-family="'Helvetica Neue', Helvetica, Arial-Unicode, Arial, Sans-serif">Created by Musavvir Ahmed</text><text x="0" y="120" fill="#000000" font-size="5px" font-weight="bold" font-family="'Helvetica Neue', Helvetica, Arial-Unicode, Arial, Sans-serif">from the Noun Project</text></svg>