<svg xmlns="http://www.w3.org/2000/svg" xmlns:xlink="http://www.w3.org/1999/xlink" version="1.1" x="0px" y="0px" viewBox="0 0 100 125" style="enable-background:new 0 0 100 100;" xml:space="preserve"><path d="M72.601,90c2.954,0,5.357-2.403,5.357-5.357V15.357c0-2.954-2.403-5.357-5.357-5.357H27.399  c-2.954,0-5.357,2.403-5.357,5.357v69.285c0,2.954,2.403,5.357,5.357,5.357H72.601z M24.042,21.085h51.915v52.521l-51.915-0.001  V21.085z M27.399,12h45.201c1.851,0,3.357,1.506,3.357,3.357v3.728H24.042v-3.728C24.042,13.506,25.548,12,27.399,12z   M24.042,84.643v-9.037l51.915,0.001v9.036c0,1.852-1.506,3.357-3.357,3.357H27.399C25.548,88,24.042,86.494,24.042,84.643z"/><path d="M50,86.092c0,0,0.001,0,0.002,0c1.099,0,2.132-0.428,2.909-1.205c0.778-0.777,1.206-1.812,1.206-2.911  c0-2.27-1.847-4.116-4.116-4.116c0,0-0.001,0-0.002,0c-1.099,0-2.132,0.428-2.909,1.205c-0.778,0.777-1.206,1.812-1.206,2.911  C45.883,84.245,47.73,86.092,50,86.092z M48.503,80.479c0.399-0.399,0.93-0.619,1.495-0.619c0,0,0.001,0,0.001,0  c1.167,0,2.117,0.949,2.117,2.116c0,0.565-0.22,1.098-0.62,1.497c-0.399,0.399-0.93,0.619-1.495,0.619c0,0-0.001,0-0.001,0  c-1.167,0-2.117-0.949-2.117-2.116C47.883,81.41,48.104,80.878,48.503,80.479z"/><path d="M62.012,41.602h-6.268v-6.269c0-0.553-0.448-1-1-1h-9.488c-0.552,0-1,0.447-1,1v6.269h-6.268c-0.552,0-1,0.447-1,1v9.488  c0,0.553,0.448,1,1,1h6.268v6.268c0,0.553,0.448,1,1,1h9.488c0.552,0,1-0.447,1-1V53.09h6.268c0.552,0,1-0.447,1-1v-9.488  C63.012,42.049,62.564,41.602,62.012,41.602z M61.012,51.09h-6.268c-0.552,0-1,0.447-1,1v6.268h-7.488V52.09c0-0.553-0.448-1-1-1  h-6.268v-7.488h6.268c0.552,0,1-0.447,1-1v-6.269h7.488v6.269c0,0.553,0.448,1,1,1h6.268V51.09z"/><text x="0" y="115" fill="#000000" font-size="5px" font-weight="bold" font-family="'Helvetica Neue', Helvetica, Arial-Unicode, Arial, Sans-serif">Created by Made by Made</text><text x="0" y="120" fill="#000000" font-size="5px" font-weight="bold" font-family="'Helvetica Neue', Helvetica, Arial-Unicode, Arial, Sans-serif">from the Noun Project</text></svg>