<svg xmlns="http://www.w3.org/2000/svg" viewBox="0 0 1080 1080"><title>ico-emergency telecoms</title><style>.a{fill:#132F30;}</style><path class="a" d="M601.6,773.5V418.1c0-.3-.1-.7-.1-1.1a84.9,84.9,0,1,0-84.5,0c0,.4-.1.8-.1,1.1V772.3C410.2,785.1,329,851.7,329,932H780C780,854.1,703.5,789.1,601.6,773.5Z"/><path class="a" d="M701.4,202.4a42.9,42.9,0,0,0,.3,50.8,168.7,168.7,0,0,1,0,181.7,42.8,42.8,0,0,0-.3,50.7c11.8,12.9,38.8,7,53.8-16.5a232.1,232.1,0,0,0,0-250.2C740.2,195.4,713.2,189.5,701.4,202.4Z"/><path class="a" d="M885.5,174.2c-15.2-21.1-40.9-26-52.8-13.2a40.6,40.6,0,0,0,1.2,50.3,227,227,0,0,1,0,265.4,40.6,40.6,0,0,0-1.2,50.3c11.9,12.8,37.6,8,52.8-13.2A290.7,290.7,0,0,0,885.5,174.2Z"/><path class="a" d="M415,485.6a42.9,42.9,0,0,0-.4-50.7,168.7,168.7,0,0,1,0-181.7,43.1,43.1,0,0,0,.4-50.8c-11.8-12.9-38.8-7-53.9,16.5a232.5,232.5,0,0,0,0,250.2C376.2,492.6,403.2,498.5,415,485.6Z"/><path class="a" d="M284.5,211.3a40.6,40.6,0,0,0,1.3-50.3c-12-12.7-37.6-7.9-52.8,13.2a290.7,290.7,0,0,0,0,339.6c15.2,21.2,40.8,26,52.8,13.2a40.6,40.6,0,0,0-1.3-50.3A227.3,227.3,0,0,1,284.5,211.3Z"/></svg>