<?xml version="1.0" encoding="utf-8"?><!DOCTYPE svg PUBLIC "-//W3C//DTD SVG 1.1//EN" "http://www.w3.org/Graphics/SVG/1.1/DTD/svg11.dtd"><svg version="1.1" xmlns="http://www.w3.org/2000/svg" xmlns:xlink="http://www.w3.org/1999/xlink" x="0px" y="0px" viewBox="0 0 99.999 124.9575" enable-background="new 0 0 99.999 99.966" xml:space="preserve"><path fill="#010101" d="M46.15,96.32c5.406,0,10.265-0.958,14.493-2.611c1.509-0.536,2.604-1.134,3.202-1.646
	c0.287-0.242,0.406-0.401,0.444-0.47l0.041-3.872c-5.257,2.48-11.314,3.878-18.181,3.878c-6.161,0-12.028-1.336-17.356-3.806
	l0.09,3.934c0.263,0.285,0.793,0.698,1.726,1.154C35.399,95.074,40.642,96.32,46.15,96.32L46.15,96.32z M7.824,49.011
	c-0.113-0.687-0.167-1.389-0.167-2.108c0-1.325,0.195-2.605,0.558-3.812c-1.434,0.466-2.645,0.984-3.555,1.56
	c-0.291,0.186-0.554,0.381-0.784,0.575c-0.492,0.428-0.598,0.74-0.598,0.926C3.28,46.382,3.776,47.607,7.824,49.011L7.824,49.011z
	 M84.178,49.216c-0.996-2.085-3.312-3.338-5.768-2.719c-1.965,0.497-2.705-2.451-0.744-2.945c0.536-0.138,1.07-0.217,1.595-0.244
	c-0.05-2.439-1.192-4.607-2.96-6.036l-6.71,9.427c0.152,0.209,0.299,0.43,0.432,0.66c1.031,1.746-1.59,3.287-2.617,1.542
	c-1.838-3.126-6.476-3.546-8.6-0.228c-1.094,1.707-3.657,0.064-2.562-1.64c1.065-1.662,2.525-2.74,4.126-3.285l3.625-7.112
	c-1.552-1.663-3.257-2.75-5.947-2.75c-0.722,0-1.483,0.069-2.187,0.106c0.067-0.784,0.182-1.628,0.182-2.435
	c0-4.402-3.568-7.971-7.973-7.971c-5.289,0-7.374,3.808-7.896,8.059c3.232-0.152,6.557,1.444,8.275,4.718
	c0.939,1.795-1.757,3.209-2.696,1.414c-2.201-4.192-8.421-4.211-10.331,0.382c-0.778,1.874-3.586,0.703-2.808-1.166
	c0.922-2.222,2.514-3.743,4.357-4.581c-0.519-0.114-1.057-0.181-1.625-0.181c-3.917,0-6.006,2.237-7.438,5.244
	c1.178,0.22,2.324,0.688,3.36,1.412c1.663,1.164-0.086,3.654-1.747,2.49c-2.868-2.011-7.077-0.932-8.5,2.48
	c-0.776,1.872-3.586,0.703-2.806-1.169c1.185-2.839,3.605-4.621,6.281-5.174c-1.092-0.448-2.23-0.72-3.687-0.72
	c-5.586,0-10.114,4.53-10.114,10.11c0,1.045,0.161,2.06,0.457,3.002l0.023,0.075c3.266,0.802,7.17,1.409,11.234,1.862
	c1.988,0.224,3.986,0.404,5.94,0.556c1.325-3.875,5.691-6.4,10.411-6.4c3.086,0,5.926,1.044,7.927,2.798
	c1.527,1.337-0.473,3.622-2.001,2.29c-1.397-1.225-3.505-2.05-5.926-2.05c-3.425,0-6.063,1.598-7.183,3.58
	c7.344,0.45,13.462,0.475,14.727,0.475c1.765,0,13.052-0.043,23.896-1.249C75.477,51.256,80.479,50.41,84.178,49.216L84.178,49.216z
	 M82.264,42.525c0.024,0.312,0.039,0.626,0.039,0.944c0,0.095-0.002,0.184-0.01,0.273c2.083,0.729,3.807,2.303,4.719,4.359
	c2.021-0.996,2.32-1.771,2.32-1.951c0-0.149-0.215-0.725-1.491-1.5c-0.72-0.436-1.775-0.933-3.322-1.454
	C83.813,42.961,83.062,42.74,82.264,42.525L82.264,42.525z M73.972,32.788L94.396,1.367c2.293-3.346,7.31,0.092,5.019,3.435
	L78.068,34.789c1.525,1.192,2.729,2.781,3.459,4.609c6.414,1.515,11.088,3.785,11.088,7.181c0,1.685-1.146,3.09-3.088,4.267
	c-2.599,14.546-9.75,27.702-21.589,34.929v5.815c0,2.489-2.573,4.314-6.02,5.538c-4.677,1.826-9.931,2.838-15.768,2.838
	c-6.08,0-11.848-1.382-17.093-3.789c-2.371-1.147-3.958-2.644-3.958-4.587v-5.746C13.506,78.975,5.04,66.396,2.588,50.523
	C0.948,49.415,0,48.112,0,46.579c0-1.537,0.883-2.674,1.728-3.409c1.639-1.423,4.517-2.551,8.061-3.448
	c2.345-3.597,6.404-5.973,11.021-5.973c1.759,0,3.442,0.347,4.979,0.975c1.897-3.307,5.469-5.538,9.559-5.538
	c0.656,0,1.302,0.058,1.927,0.168c1.021-5.028,5.464-8.81,10.793-8.81c5.857,0,10.647,4.573,10.988,10.342
	c2.467,0.228,4.697,1.265,6.422,2.842L79.989,5.269c1.929-3.564,7.281-0.671,5.35,2.896L71.623,32.463
	C72.433,32.486,73.219,32.598,73.972,32.788L73.972,32.788z M66.577,44.173l5.602-8.624c-0.291-0.033-0.588-0.051-0.887-0.051
	c-0.529,0-1.006,0.044-1.454,0.123l-4.544,8.05C65.731,43.804,66.16,43.968,66.577,44.173L66.577,44.173z"/><text x="0" y="114.966" fill="#000000" font-size="5px" font-weight="bold" font-family="'Helvetica Neue', Helvetica, Arial-Unicode, Arial, Sans-serif">Created by Simon Child</text><text x="0" y="119.966" fill="#000000" font-size="5px" font-weight="bold" font-family="'Helvetica Neue', Helvetica, Arial-Unicode, Arial, Sans-serif">from the Noun Project</text></svg>