<svg xmlns="http://www.w3.org/2000/svg" viewBox="0 0 1080 1080"><title>ico-food security</title><style>.a{fill:#132F30;}</style><path class="a" d="M218.7,574.5h97.8c2.5,0,4.2-.9,5.9-3.4L414,439.4h67.1l-86.2,124c-3.4,4.2,0,11.1,6,11.1h97.8c2.5,0,4.2-.9,5.9-3.4l91.3-131.7h63.2l-86,124c-3.4,4.2,0,11.1,6,11.1H659c2.5,0,4.2-.9,5.9-3.4l91.2-131.7h83.1v-1h29c17.9,0,34-11.9,36.6-28.9a35.3,35.3,0,0,0-34.9-40.9H839.2v-.2H756.6L664.1,236c-1.7-1.7-3.4-3.4-6-3.4H578.2c-6,0-9.4,6.8-6,11l87.2,124.8h-63L503.8,235.1c-1.7-1.7-3.4-3.4-6-3.4H400.9c-6,0-9.4,6.8-6,11.1l86.8,125.6H415.1L322.4,235.1c-1.7-1.7-3.4-3.4-5.9-3.4H218.7c-6,0-9.4,6.8-6,11.1l86.8,125.6H251.2v71h47.7l-86.2,124C209.3,567.6,212.7,574.5,218.7,574.5Z"/><path class="a" d="M920.5,681H196.1a15.8,15.8,0,0,0-15.8,15.8c0,113,91.7,245.7,204.7,245.7H731.5c113.1,0,204.7-132.7,204.7-245.7A15.7,15.7,0,0,0,920.5,681Z"/></svg>