<svg xmlns="http://www.w3.org/2000/svg" data-name="Layer 1" viewBox="0 0 100 125" x="0px" y="0px"><title>103all</title><path d="M6.86,39.35a2,2,0,0,0,4-.24,23.1,23.1,0,0,1,6.43-17.52A21.69,21.69,0,0,1,32.93,15c4.45,0,9.82,2.93,15.51,8.47a2.24,2.24,0,0,0,3.14,0A25.06,25.06,0,0,1,69,15.94h.15a18.66,18.66,0,0,1,13.53,5.65,23.25,23.25,0,0,1,0,32.14l-32.14,31a.89.89,0,0,1-1.25,0l-22-21.25a2,2,0,0,0-2.78,2.88l22,21.25a4.88,4.88,0,0,0,6.81,0L85.58,56.56a27.24,27.24,0,0,0,0-37.77,22.58,22.58,0,0,0-16.36-6.86A28.74,28.74,0,0,0,50,19.43C43.91,13.82,38.17,11,32.93,11a25.66,25.66,0,0,0-18.5,7.81A27.1,27.1,0,0,0,6.86,39.35Z"/><path d="M20.35,55.39a2,2,0,0,0,1.7-1l3.26-5.29,4.43,7.06a2,2,0,0,0,3.56-.34l5.82-15,5.37,21.27a2,2,0,0,0,1.71,1.5h.23a2,2,0,0,0,1.77-1.07l6.67-12.78,2.55,4.55a2,2,0,0,0,1.74,1h9.29a2,2,0,0,0,0-4H60.35l-3.79-6.76a2,2,0,0,0-1.74-1h0A2,2,0,0,0,53,44.69l-6,11.41L41.47,33.84a2,2,0,0,0-3.8-.23L31,50.71,27,44.3a2,2,0,0,0-1.69-.94h0a2,2,0,0,0-1.7,1l-4.37,7.08H12.15a2,2,0,1,0,0,4Z"/><text x="0" y="115" fill="#000000" font-size="5px" font-weight="bold" font-family="'Helvetica Neue', Helvetica, Arial-Unicode, Arial, Sans-serif">Created by Misha</text><text x="0" y="120" fill="#000000" font-size="5px" font-weight="bold" font-family="'Helvetica Neue', Helvetica, Arial-Unicode, Arial, Sans-serif">from the Noun Project</text></svg>