<svg xmlns="http://www.w3.org/2000/svg" viewBox="0 0 1080 1080"><defs><style>.a{fill:#fff;} .b{fill:#132F30;}</style></defs><title>ico-logistics</title><path class="b" d="M160.4,165V844.7h83.8V563c0-18.8,13.3-34.1,29.7-34.1V480.3c-.1-49.1,18.4-95.8,50.5-128.1a51.6,51.6,0,0,1,9-8.5c25.6-22.3,56.9-34.3,89.1-34.2H690c82,.1,148.5,76.5,148.6,170.8v48.6c16.3.2,29.4,15.4,29.4,34.1V844.7h80.6V165Z"/><path class="b" d="M816.8,576.8V836.1c0,15.7-11.1,28.5-24.8,28.6H767.4v42.8c0,23.6-16.7,26.8-37.3,26.8s-37.2-3.2-37.2-26.8V864.7H419.6v42.8c0,23.6-16.7,26.8-37.3,26.8s-37.2-3.2-37.2-26.8V864.7H320.2c-13.7-.1-24.8-12.9-24.8-28.6V576.8c0-15.8,11.1-28.5,24.8-28.6V507.6c-.1-41,15.4-80.1,42.3-107a45.8,45.8,0,0,1,7.4-7.2c21.5-18.6,47.6-28.7,74.5-28.5H668c68.6,0,124.2,63.9,124.2,142.7v40.6C805.8,548.4,816.8,561.1,816.8,576.8Zm-99.1-28.6V507.6a63.2,63.2,0,0,0-1.5-13.7c-5.6-25.4-25.4-43.2-48.2-43.4H444.4a42.8,42.8,0,0,0-19.6,4.9h-.2c-18.1,9.1-29.8,29.6-29.8,52.2v40.6Z"/><path class="a" d="M717.7,507.6v40.6H394.8V507.6c0-22.6,11.7-43.1,29.8-52.2h.2a42.8,42.8,0,0,1,19.6-4.9H668c22.8.2,42.6,18,48.2,43.4A63.2,63.2,0,0,1,717.7,507.6Z"/><circle class="a" cx="395" cy="647" r="47"/><circle class="a" cx="718" cy="647" r="47"/><rect class="b" x="328" y="853" width="98" height="82" rx="1"/><rect class="b" x="691" y="853" width="98" height="82" rx="1"/></svg>