<?xml version="1.0" encoding="iso-8859-1"?>
<!-- Generator: Adobe Illustrator 16.0.0, SVG Export Plug-In . SVG Version: 6.00 Build 0)  -->
<!DOCTYPE svg PUBLIC "-//W3C//DTD SVG 1.1//EN" "http://www.w3.org/Graphics/SVG/1.1/DTD/svg11.dtd">
<svg version="1.1" id="Capa_1" xmlns="http://www.w3.org/2000/svg" xmlns:xlink="http://www.w3.org/1999/xlink" x="0px" y="0px"
	 width="433.117px" height="433.117px" viewBox="0 0 433.117 433.117" style="enable-background:new 0 0 433.117 433.117;"
	 xml:space="preserve">
<g>
	<g>
		<path d="M206.245,281.771c-1.422-0.481-2.989-0.004-3.902,1.188l-25.484,33.292c-1.49,1.943-3.846,3.104-6.302,3.104
			c-1.382,0-2.739-0.358-3.934-1.045L49.856,251.671c-1.083-0.617-2.414-0.613-3.493,0.014c-1.078,0.627-1.742,1.779-1.742,3.027
			v51.977c0,1.25,0.666,2.404,1.747,3.029l157,90.834c0.543,0.312,1.147,0.471,1.753,0.471c0.604,0,1.208-0.156,1.749-0.469
			c1.084-0.625,1.751-1.781,1.751-3.031V285.085C208.622,283.585,207.665,282.251,206.245,281.771z"/>
		<path d="M386.75,251.685c-1.077-0.625-2.408-0.631-3.492-0.014l-116.776,66.646c-1.186,0.679-2.54,1.037-3.922,1.037
			c-2.458,0-4.814-1.157-6.301-3.1l-25.486-33.297c-0.913-1.191-2.482-1.67-3.902-1.188c-1.421,0.479-2.377,1.813-2.377,3.313
			v112.438c0,1.25,0.667,2.406,1.751,3.031c0.541,0.312,1.146,0.469,1.749,0.469c0.605,0,1.21-0.158,1.753-0.471l157-90.834
			c1.081-0.625,1.747-1.779,1.747-3.029v-51.978C388.493,253.464,387.829,252.312,386.75,251.685z"/>
		<path d="M433.07,109.572c-0.188-1.134-0.921-2.104-1.96-2.595L273.064,32.428c-1.266-0.596-2.766-0.383-3.812,0.545L224.08,72.946
			l-5.884-3.121c-1.026-0.545-2.256-0.545-3.282,0l-5.882,3.123l-45.163-39.975c-1.048-0.927-2.548-1.14-3.813-0.545L2.008,106.977
			c-1.039,0.49-1.772,1.461-1.96,2.595c-0.188,1.134,0.194,2.288,1.021,3.087l47.161,45.59l-7.429,3.945
			c-0.589,0.313-1.076,0.787-1.404,1.367l-25.615,45.236c-0.95,1.678-0.364,3.809,1.311,4.764l150.726,86.023
			c1.521,0.869,3.448,0.48,4.514-0.91l31.849-41.598c0.62-0.811,0.856-1.85,0.646-2.848c-0.209-0.998-0.843-1.855-1.736-2.346
			L51.466,169.45l159.393-84.578l0.003,103.995l-39.13,22.674c-1.092,0.633-1.759,1.805-1.745,3.066
			c0.014,1.261,0.705,2.418,1.811,3.028l43.069,23.729c1.052,0.579,2.326,0.579,3.378,0l43.072-23.729
			c1.104-0.609,1.797-1.767,1.811-3.03c0.015-1.262-0.652-2.432-1.744-3.064l-39.13-22.674l0.001-103.996l159.394,84.578
			l-149.623,82.434c-0.895,0.49-1.527,1.348-1.736,2.346c-0.21,0.998,0.026,2.037,0.646,2.849l31.85,41.599
			c0.685,0.891,1.724,1.37,2.781,1.37c0.591,0,1.188-0.147,1.732-0.461l150.726-86.023c1.675-0.955,2.261-3.086,1.312-4.764
			l-25.622-45.239c-0.328-0.58-0.814-1.053-1.402-1.365l-7.421-3.945l47.159-45.59C432.875,111.859,433.257,110.705,433.07,109.572z
			"/>
	</g>
</g>
<g>
</g>
<g>
</g>
<g>
</g>
<g>
</g>
<g>
</g>
<g>
</g>
<g>
</g>
<g>
</g>
<g>
</g>
<g>
</g>
<g>
</g>
<g>
</g>
<g>
</g>
<g>
</g>
<g>
</g>
</svg>
