<?xml version="1.0" encoding="UTF-8" standalone="no"?><svg xmlns="http://www.w3.org/2000/svg" xmlns:xlink="http://www.w3.org/1999/xlink" contentScriptType="application/ecmascript" contentStyleType="text/css" height="634px" preserveAspectRatio="none" style="width:791px;height:634px;" version="1.1" viewBox="0 0 791 634" width="791px" zoomAndPan="magnify"><defs><filter height="300%" id="ficqztxcens1m" width="300%" x="-1" y="-1"><feGaussianBlur result="blurOut" stdDeviation="2.0"/><feColorMatrix in="blurOut" result="blurOut2" type="matrix" values="0 0 0 0 0 0 0 0 0 0 0 0 0 0 0 0 0 0 .4 0"/><feOffset dx="4.0" dy="4.0" in="blurOut2" result="blurOut3"/><feBlend in="SourceGraphic" in2="blurOut3" mode="normal"/></filter></defs><g><!--class Booklet--><rect fill="#FEFECE" filter="url(#ficqztxcens1m)" height="227.2656" id="Booklet" style="stroke: #A80036; stroke-width: 1.5;" width="136" x="293" y="288"/><ellipse cx="333.65" cy="304" fill="#ADD1B2" rx="11" ry="11" style="stroke: #A80036; stroke-width: 1.0;"/><path d="M335.9938,299.6719 L336.1656,299.75 C336.3844,299.4375 336.5875,299.3438 336.8844,299.3438 C337.1813,299.3438 337.4625,299.4844 337.6188,299.75 C337.7125,299.9063 337.7281,300.0313 337.7281,300.4688 L337.7281,301.8906 C337.7281,302.3125 337.6969,302.5 337.5875,302.6563 C337.4156,302.875 337.15,303.0156 336.8844,303.0156 C336.6656,303.0156 336.4313,302.9063 336.2906,302.7656 C336.15,302.6406 336.1188,302.5156 336.0563,302.1094 C335.9625,301.7031 335.7906,301.4844 335.3063,301.2031 C334.8375,300.9531 334.2281,300.7969 333.65,300.7969 C331.9156,300.7969 330.6656,302.1094 330.6656,303.8906 L330.6656,304.9844 C330.6656,306.6875 331.9625,307.7813 334.0094,307.7813 C334.775,307.7813 335.4625,307.6563 335.8844,307.3906 C336.0719,307.2969 336.0719,307.2969 336.525,306.8125 C336.7125,306.625 336.9156,306.5469 337.1344,306.5469 C337.6031,306.5469 337.9938,306.9375 337.9938,307.3906 C337.9938,307.7813 337.6656,308.2344 337.0875,308.6406 C336.3375,309.1875 335.1813,309.4844 333.9625,309.4844 C331.0719,309.4844 328.9625,307.5938 328.9625,305.0156 L328.9625,303.8906 C328.9625,301.1719 330.9625,299.0938 333.5875,299.0938 C334.4625,299.0938 335.0563,299.2344 335.9938,299.6719 Z "/><text fill="#000000" font-family="sans-serif" font-size="12" lengthAdjust="spacingAndGlyphs" textLength="47" x="353.35" y="308.1543">Booklet</text><line style="stroke: #A80036; stroke-width: 1.5;" x1="294" x2="428" y1="320" y2="320"/><rect fill="none" height="6" style="stroke: #C82930; stroke-width: 1.0;" width="6" x="301" y="328.9023"/><text fill="#000000" font-family="sans-serif" font-size="11" lengthAdjust="spacingAndGlyphs" textLength="10" x="313" y="334.2104">id</text><rect fill="none" height="6" style="stroke: #C82930; stroke-width: 1.0;" width="6" x="301" y="341.707"/><text fill="#000000" font-family="sans-serif" font-size="11" lengthAdjust="spacingAndGlyphs" textLength="27" x="313" y="347.0151">code</text><rect fill="none" height="6" style="stroke: #C82930; stroke-width: 1.0;" width="6" x="301" y="354.5117"/><text fill="#000000" font-family="sans-serif" font-size="11" lengthAdjust="spacingAndGlyphs" textLength="106" x="313" y="359.8198">numberOfBooklets</text><rect fill="none" height="6" style="stroke: #C82930; stroke-width: 1.0;" width="6" x="301" y="367.3164"/><text fill="#000000" font-family="sans-serif" font-size="11" lengthAdjust="spacingAndGlyphs" textLength="110" x="313" y="372.6245">numberOfVouchers</text><rect fill="none" height="6" style="stroke: #C82930; stroke-width: 1.0;" width="6" x="301" y="380.1211"/><text fill="#000000" font-family="sans-serif" font-size="11" lengthAdjust="spacingAndGlyphs" textLength="91" x="313" y="385.4292">individualValues</text><rect fill="none" height="6" style="stroke: #C82930; stroke-width: 1.0;" width="6" x="301" y="392.9258"/><text fill="#000000" font-family="sans-serif" font-size="11" lengthAdjust="spacingAndGlyphs" textLength="49" x="313" y="398.2339">currency</text><rect fill="none" height="6" style="stroke: #C82930; stroke-width: 1.0;" width="6" x="301" y="405.7305"/><text fill="#000000" font-family="sans-serif" font-size="11" lengthAdjust="spacingAndGlyphs" textLength="36" x="313" y="411.0386">status</text><rect fill="none" height="6" style="stroke: #C82930; stroke-width: 1.0;" width="6" x="301" y="418.5352"/><text fill="#000000" font-family="sans-serif" font-size="11" lengthAdjust="spacingAndGlyphs" textLength="91" x="313" y="423.8433">definePassword</text><rect fill="none" height="6" style="stroke: #C82930; stroke-width: 1.0;" width="6" x="301" y="431.3398"/><text fill="#000000" font-family="sans-serif" font-size="11" lengthAdjust="spacingAndGlyphs" textLength="56" x="313" y="436.6479">password</text><rect fill="none" height="6" style="stroke: #C82930; stroke-width: 1.0;" width="6" x="301" y="444.1445"/><text fill="#000000" font-family="sans-serif" font-size="11" lengthAdjust="spacingAndGlyphs" textLength="62" x="313" y="449.4526">beneficiary</text><rect fill="none" height="6" style="stroke: #C82930; stroke-width: 1.0;" width="6" x="301" y="456.9492"/><text fill="#000000" font-family="sans-serif" font-size="11" lengthAdjust="spacingAndGlyphs" textLength="64" x="313" y="462.2573">distribution</text><rect fill="none" height="6" style="stroke: #C82930; stroke-width: 1.0;" width="6" x="301" y="469.7539"/><text fill="#000000" font-family="sans-serif" font-size="11" lengthAdjust="spacingAndGlyphs" textLength="52" x="313" y="475.062">vouchers</text><rect fill="none" height="6" style="stroke: #C82930; stroke-width: 1.0;" width="6" x="301" y="482.5586"/><text fill="#000000" font-family="sans-serif" font-size="11" lengthAdjust="spacingAndGlyphs" textLength="30" x="313" y="487.8667">value</text><rect fill="none" height="6" style="stroke: #C82930; stroke-width: 1.0;" width="6" x="301" y="495.3633"/><text fill="#000000" font-family="sans-serif" font-size="11" lengthAdjust="spacingAndGlyphs" textLength="39" x="313" y="500.6714">usedAt</text><line style="stroke: #A80036; stroke-width: 1.5;" x1="294" x2="428" y1="507.2656" y2="507.2656"/><!--class Voucher--><rect fill="#FEFECE" filter="url(#ficqztxcens1m)" height="112.0234" id="Voucher" style="stroke: #A80036; stroke-width: 1.5;" width="84" x="6" y="116"/><ellipse cx="21" cy="132" fill="#ADD1B2" rx="11" ry="11" style="stroke: #A80036; stroke-width: 1.0;"/><path d="M23.3438,127.6719 L23.5156,127.75 C23.7344,127.4375 23.9375,127.3438 24.2344,127.3438 C24.5313,127.3438 24.8125,127.4844 24.9688,127.75 C25.0625,127.9063 25.0781,128.0313 25.0781,128.4688 L25.0781,129.8906 C25.0781,130.3125 25.0469,130.5 24.9375,130.6563 C24.7656,130.875 24.5,131.0156 24.2344,131.0156 C24.0156,131.0156 23.7813,130.9063 23.6406,130.7656 C23.5,130.6406 23.4688,130.5156 23.4063,130.1094 C23.3125,129.7031 23.1406,129.4844 22.6563,129.2031 C22.1875,128.9531 21.5781,128.7969 21,128.7969 C19.2656,128.7969 18.0156,130.1094 18.0156,131.8906 L18.0156,132.9844 C18.0156,134.6875 19.3125,135.7813 21.3594,135.7813 C22.125,135.7813 22.8125,135.6563 23.2344,135.3906 C23.4219,135.2969 23.4219,135.2969 23.875,134.8125 C24.0625,134.625 24.2656,134.5469 24.4844,134.5469 C24.9531,134.5469 25.3438,134.9375 25.3438,135.3906 C25.3438,135.7813 25.0156,136.2344 24.4375,136.6406 C23.6875,137.1875 22.5313,137.4844 21.3125,137.4844 C18.4219,137.4844 16.3125,135.5938 16.3125,133.0156 L16.3125,131.8906 C16.3125,129.1719 18.3125,127.0938 20.9375,127.0938 C21.8125,127.0938 22.4063,127.2344 23.3438,127.6719 Z "/><text fill="#000000" font-family="sans-serif" font-size="12" lengthAdjust="spacingAndGlyphs" textLength="52" x="35" y="136.1543">Voucher</text><line style="stroke: #A80036; stroke-width: 1.5;" x1="7" x2="89" y1="148" y2="148"/><rect fill="none" height="6" style="stroke: #C82930; stroke-width: 1.0;" width="6" x="14" y="156.9023"/><text fill="#000000" font-family="sans-serif" font-size="11" lengthAdjust="spacingAndGlyphs" textLength="10" x="26" y="162.2104">id</text><rect fill="none" height="6" style="stroke: #C82930; stroke-width: 1.0;" width="6" x="14" y="169.707"/><text fill="#000000" font-family="sans-serif" font-size="11" lengthAdjust="spacingAndGlyphs" textLength="27" x="26" y="175.0151">code</text><rect fill="none" height="6" style="stroke: #C82930; stroke-width: 1.0;" width="6" x="14" y="182.5117"/><text fill="#000000" font-family="sans-serif" font-size="11" lengthAdjust="spacingAndGlyphs" textLength="39" x="26" y="187.8198">vendor</text><rect fill="none" height="6" style="stroke: #C82930; stroke-width: 1.0;" width="6" x="14" y="195.3164"/><text fill="#000000" font-family="sans-serif" font-size="11" lengthAdjust="spacingAndGlyphs" textLength="30" x="26" y="200.6245">value</text><rect fill="none" height="6" style="stroke: #C82930; stroke-width: 1.0;" width="6" x="14" y="208.1211"/><text fill="#000000" font-family="sans-serif" font-size="11" lengthAdjust="spacingAndGlyphs" textLength="39" x="26" y="213.4292">usedAt</text><line style="stroke: #A80036; stroke-width: 1.5;" x1="7" x2="89" y1="220.0234" y2="220.0234"/><!--class BookletStatus--><rect fill="#FEFECE" filter="url(#ficqztxcens1m)" height="73.6094" id="BookletStatus" style="stroke: #A80036; stroke-width: 1.5;" width="120" x="125" y="135"/><ellipse cx="140" cy="151" fill="#ADD1B2" rx="11" ry="11" style="stroke: #A80036; stroke-width: 1.0;"/><path d="M142.3438,146.6719 L142.5156,146.75 C142.7344,146.4375 142.9375,146.3438 143.2344,146.3438 C143.5313,146.3438 143.8125,146.4844 143.9688,146.75 C144.0625,146.9063 144.0781,147.0313 144.0781,147.4688 L144.0781,148.8906 C144.0781,149.3125 144.0469,149.5 143.9375,149.6563 C143.7656,149.875 143.5,150.0156 143.2344,150.0156 C143.0156,150.0156 142.7813,149.9063 142.6406,149.7656 C142.5,149.6406 142.4688,149.5156 142.4063,149.1094 C142.3125,148.7031 142.1406,148.4844 141.6563,148.2031 C141.1875,147.9531 140.5781,147.7969 140,147.7969 C138.2656,147.7969 137.0156,149.1094 137.0156,150.8906 L137.0156,151.9844 C137.0156,153.6875 138.3125,154.7813 140.3594,154.7813 C141.125,154.7813 141.8125,154.6563 142.2344,154.3906 C142.4219,154.2969 142.4219,154.2969 142.875,153.8125 C143.0625,153.625 143.2656,153.5469 143.4844,153.5469 C143.9531,153.5469 144.3438,153.9375 144.3438,154.3906 C144.3438,154.7813 144.0156,155.2344 143.4375,155.6406 C142.6875,156.1875 141.5313,156.4844 140.3125,156.4844 C137.4219,156.4844 135.3125,154.5938 135.3125,152.0156 L135.3125,150.8906 C135.3125,148.1719 137.3125,146.0938 139.9375,146.0938 C140.8125,146.0938 141.4063,146.2344 142.3438,146.6719 Z "/><text fill="#000000" font-family="sans-serif" font-size="12" lengthAdjust="spacingAndGlyphs" textLength="88" x="154" y="155.1543">BookletStatus</text><line style="stroke: #A80036; stroke-width: 1.5;" x1="126" x2="244" y1="167" y2="167"/><rect fill="none" height="6" style="stroke: #C82930; stroke-width: 1.0;" width="6" x="133" y="175.9023"/><text fill="#000000" font-family="sans-serif" font-size="11" lengthAdjust="spacingAndGlyphs" textLength="10" x="145" y="181.2104">id</text><rect fill="none" height="6" style="stroke: #C82930; stroke-width: 1.0;" width="6" x="133" y="188.707"/><text fill="#000000" font-family="sans-serif" font-size="11" lengthAdjust="spacingAndGlyphs" textLength="32" x="145" y="194.0151">name</text><line style="stroke: #A80036; stroke-width: 1.5;" x1="126" x2="244" y1="200.6094" y2="200.6094"/><!--class Currency--><rect fill="#FEFECE" filter="url(#ficqztxcens1m)" height="73.6094" id="Currency" style="stroke: #A80036; stroke-width: 1.5;" width="87" x="280.5" y="135"/><ellipse cx="295.5" cy="151" fill="#ADD1B2" rx="11" ry="11" style="stroke: #A80036; stroke-width: 1.0;"/><path d="M297.8438,146.6719 L298.0156,146.75 C298.2344,146.4375 298.4375,146.3438 298.7344,146.3438 C299.0313,146.3438 299.3125,146.4844 299.4688,146.75 C299.5625,146.9063 299.5781,147.0313 299.5781,147.4688 L299.5781,148.8906 C299.5781,149.3125 299.5469,149.5 299.4375,149.6563 C299.2656,149.875 299,150.0156 298.7344,150.0156 C298.5156,150.0156 298.2813,149.9063 298.1406,149.7656 C298,149.6406 297.9688,149.5156 297.9063,149.1094 C297.8125,148.7031 297.6406,148.4844 297.1563,148.2031 C296.6875,147.9531 296.0781,147.7969 295.5,147.7969 C293.7656,147.7969 292.5156,149.1094 292.5156,150.8906 L292.5156,151.9844 C292.5156,153.6875 293.8125,154.7813 295.8594,154.7813 C296.625,154.7813 297.3125,154.6563 297.7344,154.3906 C297.9219,154.2969 297.9219,154.2969 298.375,153.8125 C298.5625,153.625 298.7656,153.5469 298.9844,153.5469 C299.4531,153.5469 299.8438,153.9375 299.8438,154.3906 C299.8438,154.7813 299.5156,155.2344 298.9375,155.6406 C298.1875,156.1875 297.0313,156.4844 295.8125,156.4844 C292.9219,156.4844 290.8125,154.5938 290.8125,152.0156 L290.8125,150.8906 C290.8125,148.1719 292.8125,146.0938 295.4375,146.0938 C296.3125,146.0938 296.9063,146.2344 297.8438,146.6719 Z "/><text fill="#000000" font-family="sans-serif" font-size="12" lengthAdjust="spacingAndGlyphs" textLength="55" x="309.5" y="155.1543">Currency</text><line style="stroke: #A80036; stroke-width: 1.5;" x1="281.5" x2="366.5" y1="167" y2="167"/><rect fill="none" height="6" style="stroke: #C82930; stroke-width: 1.0;" width="6" x="288.5" y="175.9023"/><text fill="#000000" font-family="sans-serif" font-size="11" lengthAdjust="spacingAndGlyphs" textLength="10" x="300.5" y="181.2104">id</text><rect fill="none" height="6" style="stroke: #C82930; stroke-width: 1.0;" width="6" x="288.5" y="188.707"/><text fill="#000000" font-family="sans-serif" font-size="11" lengthAdjust="spacingAndGlyphs" textLength="32" x="300.5" y="194.0151">name</text><line style="stroke: #A80036; stroke-width: 1.5;" x1="281.5" x2="366.5" y1="200.6094" y2="200.6094"/><!--class Beneficiary--><rect fill="#FEFECE" filter="url(#ficqztxcens1m)" height="48" id="Beneficiary" style="stroke: #A80036; stroke-width: 1.5;" width="100" x="542" y="148"/><ellipse cx="557" cy="164" fill="#ADD1B2" rx="11" ry="11" style="stroke: #A80036; stroke-width: 1.0;"/><path d="M559.3438,159.6719 L559.5156,159.75 C559.7344,159.4375 559.9375,159.3438 560.2344,159.3438 C560.5313,159.3438 560.8125,159.4844 560.9688,159.75 C561.0625,159.9063 561.0781,160.0313 561.0781,160.4688 L561.0781,161.8906 C561.0781,162.3125 561.0469,162.5 560.9375,162.6563 C560.7656,162.875 560.5,163.0156 560.2344,163.0156 C560.0156,163.0156 559.7813,162.9063 559.6406,162.7656 C559.5,162.6406 559.4688,162.5156 559.4063,162.1094 C559.3125,161.7031 559.1406,161.4844 558.6563,161.2031 C558.1875,160.9531 557.5781,160.7969 557,160.7969 C555.2656,160.7969 554.0156,162.1094 554.0156,163.8906 L554.0156,164.9844 C554.0156,166.6875 555.3125,167.7813 557.3594,167.7813 C558.125,167.7813 558.8125,167.6563 559.2344,167.3906 C559.4219,167.2969 559.4219,167.2969 559.875,166.8125 C560.0625,166.625 560.2656,166.5469 560.4844,166.5469 C560.9531,166.5469 561.3438,166.9375 561.3438,167.3906 C561.3438,167.7813 561.0156,168.2344 560.4375,168.6406 C559.6875,169.1875 558.5313,169.4844 557.3125,169.4844 C554.4219,169.4844 552.3125,167.5938 552.3125,165.0156 L552.3125,163.8906 C552.3125,161.1719 554.3125,159.0938 556.9375,159.0938 C557.8125,159.0938 558.4063,159.2344 559.3438,159.6719 Z "/><text fill="#000000" font-family="sans-serif" font-size="12" lengthAdjust="spacingAndGlyphs" textLength="68" x="571" y="168.1543">Beneficiary</text><line style="stroke: #A80036; stroke-width: 1.5;" x1="543" x2="641" y1="180" y2="180"/><line style="stroke: #A80036; stroke-width: 1.5;" x1="543" x2="641" y1="188" y2="188"/><!--class Distribution--><rect fill="#FEFECE" filter="url(#ficqztxcens1m)" height="48" id="Distribution" style="stroke: #A80036; stroke-width: 1.5;" width="104" x="403" y="148"/><ellipse cx="418" cy="164" fill="#ADD1B2" rx="11" ry="11" style="stroke: #A80036; stroke-width: 1.0;"/><path d="M420.3438,159.6719 L420.5156,159.75 C420.7344,159.4375 420.9375,159.3438 421.2344,159.3438 C421.5313,159.3438 421.8125,159.4844 421.9688,159.75 C422.0625,159.9063 422.0781,160.0313 422.0781,160.4688 L422.0781,161.8906 C422.0781,162.3125 422.0469,162.5 421.9375,162.6563 C421.7656,162.875 421.5,163.0156 421.2344,163.0156 C421.0156,163.0156 420.7813,162.9063 420.6406,162.7656 C420.5,162.6406 420.4688,162.5156 420.4063,162.1094 C420.3125,161.7031 420.1406,161.4844 419.6563,161.2031 C419.1875,160.9531 418.5781,160.7969 418,160.7969 C416.2656,160.7969 415.0156,162.1094 415.0156,163.8906 L415.0156,164.9844 C415.0156,166.6875 416.3125,167.7813 418.3594,167.7813 C419.125,167.7813 419.8125,167.6563 420.2344,167.3906 C420.4219,167.2969 420.4219,167.2969 420.875,166.8125 C421.0625,166.625 421.2656,166.5469 421.4844,166.5469 C421.9531,166.5469 422.3438,166.9375 422.3438,167.3906 C422.3438,167.7813 422.0156,168.2344 421.4375,168.6406 C420.6875,169.1875 419.5313,169.4844 418.3125,169.4844 C415.4219,169.4844 413.3125,167.5938 413.3125,165.0156 L413.3125,163.8906 C413.3125,161.1719 415.3125,159.0938 417.9375,159.0938 C418.8125,159.0938 419.4063,159.2344 420.3438,159.6719 Z "/><text fill="#000000" font-family="sans-serif" font-size="12" lengthAdjust="spacingAndGlyphs" textLength="72" x="432" y="168.1543">Distribution</text><line style="stroke: #A80036; stroke-width: 1.5;" x1="404" x2="506" y1="180" y2="180"/><line style="stroke: #A80036; stroke-width: 1.5;" x1="404" x2="506" y1="188" y2="188"/><!--class TransactionQRVoucher--><rect fill="#FEFECE" filter="url(#ficqztxcens1m)" height="48" id="TransactionQRVoucher" style="stroke: #A80036; stroke-width: 1.5;" width="175" x="467.5" y="575"/><ellipse cx="482.5" cy="591" fill="#ADD1B2" rx="11" ry="11" style="stroke: #A80036; stroke-width: 1.0;"/><path d="M484.8438,586.6719 L485.0156,586.75 C485.2344,586.4375 485.4375,586.3438 485.7344,586.3438 C486.0313,586.3438 486.3125,586.4844 486.4688,586.75 C486.5625,586.9063 486.5781,587.0313 486.5781,587.4688 L486.5781,588.8906 C486.5781,589.3125 486.5469,589.5 486.4375,589.6563 C486.2656,589.875 486,590.0156 485.7344,590.0156 C485.5156,590.0156 485.2813,589.9063 485.1406,589.7656 C485,589.6406 484.9688,589.5156 484.9063,589.1094 C484.8125,588.7031 484.6406,588.4844 484.1563,588.2031 C483.6875,587.9531 483.0781,587.7969 482.5,587.7969 C480.7656,587.7969 479.5156,589.1094 479.5156,590.8906 L479.5156,591.9844 C479.5156,593.6875 480.8125,594.7813 482.8594,594.7813 C483.625,594.7813 484.3125,594.6563 484.7344,594.3906 C484.9219,594.2969 484.9219,594.2969 485.375,593.8125 C485.5625,593.625 485.7656,593.5469 485.9844,593.5469 C486.4531,593.5469 486.8438,593.9375 486.8438,594.3906 C486.8438,594.7813 486.5156,595.2344 485.9375,595.6406 C485.1875,596.1875 484.0313,596.4844 482.8125,596.4844 C479.9219,596.4844 477.8125,594.5938 477.8125,592.0156 L477.8125,590.8906 C477.8125,588.1719 479.8125,586.0938 482.4375,586.0938 C483.3125,586.0938 483.9063,586.2344 484.8438,586.6719 Z "/><text fill="#000000" font-family="sans-serif" font-size="12" lengthAdjust="spacingAndGlyphs" textLength="143" x="496.5" y="595.1543">TransactionQRVoucher</text><line style="stroke: #A80036; stroke-width: 1.5;" x1="468.5" x2="641.5" y1="607" y2="607"/><line style="stroke: #A80036; stroke-width: 1.5;" x1="468.5" x2="641.5" y1="615" y2="615"/><!--class Vendor--><rect fill="#FEFECE" filter="url(#ficqztxcens1m)" height="48" id="Vendor" style="stroke: #A80036; stroke-width: 1.5;" width="77" x="9.5" y="8"/><ellipse cx="24.5" cy="24" fill="#ADD1B2" rx="11" ry="11" style="stroke: #A80036; stroke-width: 1.0;"/><path d="M26.8438,19.6719 L27.0156,19.75 C27.2344,19.4375 27.4375,19.3438 27.7344,19.3438 C28.0313,19.3438 28.3125,19.4844 28.4688,19.75 C28.5625,19.9063 28.5781,20.0313 28.5781,20.4688 L28.5781,21.8906 C28.5781,22.3125 28.5469,22.5 28.4375,22.6563 C28.2656,22.875 28,23.0156 27.7344,23.0156 C27.5156,23.0156 27.2813,22.9063 27.1406,22.7656 C27,22.6406 26.9688,22.5156 26.9063,22.1094 C26.8125,21.7031 26.6406,21.4844 26.1563,21.2031 C25.6875,20.9531 25.0781,20.7969 24.5,20.7969 C22.7656,20.7969 21.5156,22.1094 21.5156,23.8906 L21.5156,24.9844 C21.5156,26.6875 22.8125,27.7813 24.8594,27.7813 C25.625,27.7813 26.3125,27.6563 26.7344,27.3906 C26.9219,27.2969 26.9219,27.2969 27.375,26.8125 C27.5625,26.625 27.7656,26.5469 27.9844,26.5469 C28.4531,26.5469 28.8438,26.9375 28.8438,27.3906 C28.8438,27.7813 28.5156,28.2344 27.9375,28.6406 C27.1875,29.1875 26.0313,29.4844 24.8125,29.4844 C21.9219,29.4844 19.8125,27.5938 19.8125,25.0156 L19.8125,23.8906 C19.8125,21.1719 21.8125,19.0938 24.4375,19.0938 C25.3125,19.0938 25.9063,19.2344 26.8438,19.6719 Z "/><text fill="#000000" font-family="sans-serif" font-size="12" lengthAdjust="spacingAndGlyphs" textLength="45" x="38.5" y="28.1543">Vendor</text><line style="stroke: #A80036; stroke-width: 1.5;" x1="10.5" x2="85.5" y1="40" y2="40"/><line style="stroke: #A80036; stroke-width: 1.5;" x1="10.5" x2="85.5" y1="48" y2="48"/><!--class DistributionBeneficiary--><rect fill="#FEFECE" filter="url(#ficqztxcens1m)" height="48" id="DistributionBeneficiary" style="stroke: #A80036; stroke-width: 1.5;" width="172" x="608" y="377.5"/><ellipse cx="623" cy="393.5" fill="#ADD1B2" rx="11" ry="11" style="stroke: #A80036; stroke-width: 1.0;"/><path d="M625.3438,389.1719 L625.5156,389.25 C625.7344,388.9375 625.9375,388.8438 626.2344,388.8438 C626.5313,388.8438 626.8125,388.9844 626.9688,389.25 C627.0625,389.4063 627.0781,389.5313 627.0781,389.9688 L627.0781,391.3906 C627.0781,391.8125 627.0469,392 626.9375,392.1563 C626.7656,392.375 626.5,392.5156 626.2344,392.5156 C626.0156,392.5156 625.7813,392.4063 625.6406,392.2656 C625.5,392.1406 625.4688,392.0156 625.4063,391.6094 C625.3125,391.2031 625.1406,390.9844 624.6563,390.7031 C624.1875,390.4531 623.5781,390.2969 623,390.2969 C621.2656,390.2969 620.0156,391.6094 620.0156,393.3906 L620.0156,394.4844 C620.0156,396.1875 621.3125,397.2813 623.3594,397.2813 C624.125,397.2813 624.8125,397.1563 625.2344,396.8906 C625.4219,396.7969 625.4219,396.7969 625.875,396.3125 C626.0625,396.125 626.2656,396.0469 626.4844,396.0469 C626.9531,396.0469 627.3438,396.4375 627.3438,396.8906 C627.3438,397.2813 627.0156,397.7344 626.4375,398.1406 C625.6875,398.6875 624.5313,398.9844 623.3125,398.9844 C620.4219,398.9844 618.3125,397.0938 618.3125,394.5156 L618.3125,393.3906 C618.3125,390.6719 620.3125,388.5938 622.9375,388.5938 C623.8125,388.5938 624.4063,388.7344 625.3438,389.1719 Z "/><text fill="#000000" font-family="sans-serif" font-size="12" lengthAdjust="spacingAndGlyphs" textLength="140" x="637" y="397.6543">DistributionBeneficiary</text><line style="stroke: #A80036; stroke-width: 1.5;" x1="609" x2="779" y1="409.5" y2="409.5"/><line style="stroke: #A80036; stroke-width: 1.5;" x1="609" x2="779" y1="417.5" y2="417.5"/><!--link BookletStatus to Booklet--><path d="M221.088,219.647 C241.8,246.421 268.485,280.914 292.987,312.586 " fill="none" id="BookletStatus-Booklet" style="stroke: #A80036; stroke-width: 1.0;"/><polygon fill="#A80036" points="212.888,209.048,213.3957,216.2412,220.2309,218.5392,219.7232,211.3459,212.888,209.048" style="stroke: #A80036; stroke-width: 1.0;"/><text fill="#000000" font-family="sans-serif" font-size="13" lengthAdjust="spacingAndGlyphs" textLength="8" x="208.8445" y="228.5365">1</text><text fill="#000000" font-family="sans-serif" font-size="13" lengthAdjust="spacingAndGlyphs" textLength="8" x="277.1106" y="299.1004">1</text><!--link Currency to Booklet--><path d="M331.994,222.155 C335.152,241.573 338.921,264.746 342.68,287.859 " fill="none" id="Currency-Booklet" style="stroke: #A80036; stroke-width: 1.0;"/><polygon fill="#A80036" points="329.863,209.048,326.8782,215.6124,331.7896,220.8923,334.7744,214.328,329.863,209.048" style="stroke: #A80036; stroke-width: 1.0;"/><text fill="#000000" font-family="sans-serif" font-size="13" lengthAdjust="spacingAndGlyphs" textLength="8" x="322.1716" y="228.5365">1</text><text fill="#000000" font-family="sans-serif" font-size="13" lengthAdjust="spacingAndGlyphs" textLength="8" x="333.1804" y="276.7823">1</text><!--link Beneficiary to Booklet--><path d="M559.21,205.293 C525.526,238.467 472.101,291.082 429.2,333.333 " fill="none" id="Beneficiary-Booklet" style="stroke: #A80036; stroke-width: 1.0;"/><polygon fill="#FFFFFF" points="568.579,196.066,561.4974,197.4263,560.0294,204.4864,567.111,203.1261,568.579,196.066" style="stroke: #A80036; stroke-width: 1.0;"/><text fill="#000000" font-family="sans-serif" font-size="13" lengthAdjust="spacingAndGlyphs" textLength="8" x="553.5524" y="216.2387">1</text><text fill="#000000" font-family="sans-serif" font-size="13" lengthAdjust="spacingAndGlyphs" textLength="20" x="436.8978" y="322.9449">0-*</text><!--link Distribution to Booklet--><path d="M440.458,208.194 C431.525,229.815 419.533,258.838 407.578,287.772 " fill="none" id="Distribution-Booklet" style="stroke: #A80036; stroke-width: 1.0;"/><polygon fill="#FFFFFF" points="445.469,196.066,439.4809,200.0837,440.8864,207.1565,446.8745,203.1388,445.469,196.066" style="stroke: #A80036; stroke-width: 1.0;"/><text fill="#000000" font-family="sans-serif" font-size="13" lengthAdjust="spacingAndGlyphs" textLength="8" x="434.0017" y="216.2387">1</text><text fill="#000000" font-family="sans-serif" font-size="13" lengthAdjust="spacingAndGlyphs" textLength="20" x="389.9213" y="277.0685">0-*</text><!--link Voucher to Booklet--><path d="M100.1562,222.392 C102.4449,224.314 104.7321,226.19 107,228 C167.313,276.123 240.627,324.976 292.957,358.348 " fill="none" id="Voucher-Booklet" style="stroke: #A80036; stroke-width: 1.0;"/><polygon fill="#A80036" points="90.1688,213.752,92.0899,220.7025,99.2447,221.6024,97.3235,214.6519,90.1688,213.752" style="stroke: #A80036; stroke-width: 1.0;"/><text fill="#000000" font-family="sans-serif" font-size="13" lengthAdjust="spacingAndGlyphs" textLength="20" x="97.0765" y="216.6313">0-*</text><text fill="#000000" font-family="sans-serif" font-size="13" lengthAdjust="spacingAndGlyphs" textLength="8" x="277.0773" y="349.8676">1</text><!--link Beneficiary to TransactionQRVoucher--><path d="M588.855,209.126 C581.459,294.083 563.127,504.653 557.017,574.8273 " fill="none" id="Beneficiary-TransactionQRVoucher" style="stroke: #A80036; stroke-width: 1.0;"/><polygon fill="#A80036" points="589.984,196.152,585.4789,201.7826,588.9436,208.1068,593.4487,202.4762,589.984,196.152" style="stroke: #A80036; stroke-width: 1.0;"/><text fill="#000000" font-family="sans-serif" font-size="13" lengthAdjust="spacingAndGlyphs" textLength="8" x="580.5176" y="215.9503">1</text><text fill="#000000" font-family="sans-serif" font-size="13" lengthAdjust="spacingAndGlyphs" textLength="8" x="548.5089" y="563.7951">1</text><!--link Booklet to TransactionQRVoucher--><path d="M438.471,480.57 C471.962,514.32 508.694,551.3358 531.789,574.6093 " fill="none" id="Booklet-TransactionQRVoucher" style="stroke: #A80036; stroke-width: 1.0;"/><polygon fill="#A80036" points="429.124,471.151,430.5113,478.2274,437.5769,479.6685,436.1896,472.5921,429.124,471.151" style="stroke: #A80036; stroke-width: 1.0;"/><text fill="#000000" font-family="sans-serif" font-size="13" lengthAdjust="spacingAndGlyphs" textLength="8" x="437.0126" y="475.0084">1</text><text fill="#000000" font-family="sans-serif" font-size="13" lengthAdjust="spacingAndGlyphs" textLength="8" x="517.1563" y="563.919">1</text><!--link Vendor to Voucher--><path d="M48,69.409 C48,83.646 48,100.287 48,115.931 " fill="none" id="Vendor-Voucher" style="stroke: #A80036; stroke-width: 1.0;"/><polygon fill="#FFFFFF" points="48,56.098,44,62.098,48,68.098,52,62.098,48,56.098" style="stroke: #A80036; stroke-width: 1.0;"/><text fill="#000000" font-family="sans-serif" font-size="13" lengthAdjust="spacingAndGlyphs" textLength="8" x="39.025" y="75.8831">1</text><text fill="#000000" font-family="sans-serif" font-size="13" lengthAdjust="spacingAndGlyphs" textLength="20" x="26.7188" y="104.8601">0-*</text><!--link DistributionBeneficiary to TransactionQRVoucher--><path d="M665.797,442.167 C637.446,482.042 594.709,542.1509 571.47,574.8361 " fill="none" id="DistributionBeneficiary-TransactionQRVoucher" style="stroke: #A80036; stroke-width: 1.0;"/><polygon fill="none" points="660.215,437.938,677.509,425.694,671.625,446.05,660.215,437.938" style="stroke: #A80036; stroke-width: 1.0;"/><!--
@startuml
class Booklet {
    - id
    - code
    - numberOfBooklets
    - numberOfVouchers
    - individualValues
    - currency
    - status
    - definePassword
    - password
    - beneficiary
    - distribution
    - vouchers
    - value
    - usedAt
}

class Voucher {
    - id
    - code
    - vendor
    - value
    - usedAt
}

class BookletStatus {
    - id
    - name
}

class Currency {
    - id
    - name
}
 
 BookletStatus "1" *- - "1" Booklet
 Currency "1" *- - "1" Booklet
 Beneficiary "1" o- - "0-*" Booklet
 Distribution "1" o- - "0-*" Booklet
 Voucher "0-*" *- - "1" Booklet
 
 Beneficiary "1" *- - "1" TransactionQRVoucher
 Booklet "1" *- - "1" TransactionQRVoucher
 
 Vendor "1" o- - "0-*" Voucher
 
 DistributionBeneficiary <|- - TransactionQRVoucher
@enduml

PlantUML version 1.2019.05(Sat Apr 20 16:45:36 UTC 2019)
(GPL source distribution)
Java Runtime: Java(TM) SE Runtime Environment
JVM: Java HotSpot(TM) 64-Bit Server VM
Java Version: 1.7.0_25-b15
Operating System: Linux
Default Encoding: UTF-8
Language: en
Country: US
--></g></svg>