<?xml version="1.0" encoding="UTF-8" standalone="no"?><svg xmlns="http://www.w3.org/2000/svg" xmlns:xlink="http://www.w3.org/1999/xlink" contentScriptType="application/ecmascript" contentStyleType="text/css" height="711px" preserveAspectRatio="none" style="width:396px;height:711px;" version="1.1" viewBox="0 0 396 711" width="396px" zoomAndPan="magnify"><defs><filter height="300%" id="f1mj4vnivrmmcd" width="300%" x="-1" y="-1"><feGaussianBlur result="blurOut" stdDeviation="2.0"/><feColorMatrix in="blurOut" result="blurOut2" type="matrix" values="0 0 0 0 0 0 0 0 0 0 0 0 0 0 0 0 0 0 .4 0"/><feOffset dx="4.0" dy="4.0" in="blurOut2" result="blurOut3"/><feBlend in="SourceGraphic" in2="blurOut3" mode="normal"/></filter></defs><g><!--class User--><rect fill="#FEFECE" filter="url(#f1mj4vnivrmmcd)" height="163.2422" id="User" style="stroke: #A80036; stroke-width: 1.5;" width="84" x="172.5" y="142"/><ellipse cx="197.85" cy="158" fill="#ADD1B2" rx="11" ry="11" style="stroke: #A80036; stroke-width: 1.0;"/><path d="M200.1938,153.6719 L200.3656,153.75 C200.5844,153.4375 200.7875,153.3438 201.0844,153.3438 C201.3813,153.3438 201.6625,153.4844 201.8188,153.75 C201.9125,153.9063 201.9281,154.0313 201.9281,154.4688 L201.9281,155.8906 C201.9281,156.3125 201.8969,156.5 201.7875,156.6563 C201.6156,156.875 201.35,157.0156 201.0844,157.0156 C200.8656,157.0156 200.6313,156.9063 200.4906,156.7656 C200.35,156.6406 200.3188,156.5156 200.2563,156.1094 C200.1625,155.7031 199.9906,155.4844 199.5063,155.2031 C199.0375,154.9531 198.4281,154.7969 197.85,154.7969 C196.1156,154.7969 194.8656,156.1094 194.8656,157.8906 L194.8656,158.9844 C194.8656,160.6875 196.1625,161.7813 198.2094,161.7813 C198.975,161.7813 199.6625,161.6563 200.0844,161.3906 C200.2719,161.2969 200.2719,161.2969 200.725,160.8125 C200.9125,160.625 201.1156,160.5469 201.3344,160.5469 C201.8031,160.5469 202.1938,160.9375 202.1938,161.3906 C202.1938,161.7813 201.8656,162.2344 201.2875,162.6406 C200.5375,163.1875 199.3813,163.4844 198.1625,163.4844 C195.2719,163.4844 193.1625,161.5938 193.1625,159.0156 L193.1625,157.8906 C193.1625,155.1719 195.1625,153.0938 197.7875,153.0938 C198.6625,153.0938 199.2563,153.2344 200.1938,153.6719 Z "/><text fill="#000000" font-family="sans-serif" font-size="12" lengthAdjust="spacingAndGlyphs" textLength="29" x="214.15" y="162.1543">User</text><line style="stroke: #A80036; stroke-width: 1.5;" x1="173.5" x2="255.5" y1="174" y2="174"/><rect fill="none" height="6" style="stroke: #C82930; stroke-width: 1.0;" width="6" x="180.5" y="182.9023"/><text fill="#000000" font-family="sans-serif" font-size="11" lengthAdjust="spacingAndGlyphs" textLength="10" x="192.5" y="188.2104">id</text><rect fill="none" height="6" style="stroke: #C82930; stroke-width: 1.0;" width="6" x="180.5" y="195.707"/><text fill="#000000" font-family="sans-serif" font-size="11" lengthAdjust="spacingAndGlyphs" textLength="58" x="192.5" y="201.0151">username</text><rect fill="none" height="6" style="stroke: #C82930; stroke-width: 1.0;" width="6" x="180.5" y="208.5117"/><text fill="#000000" font-family="sans-serif" font-size="11" lengthAdjust="spacingAndGlyphs" textLength="31" x="192.5" y="213.8198">email</text><rect fill="none" height="6" style="stroke: #C82930; stroke-width: 1.0;" width="6" x="180.5" y="221.3164"/><text fill="#000000" font-family="sans-serif" font-size="11" lengthAdjust="spacingAndGlyphs" textLength="56" x="192.5" y="226.6245">password</text><rect fill="none" height="6" style="stroke: #C82930; stroke-width: 1.0;" width="6" x="180.5" y="234.1211"/><text fill="#000000" font-family="sans-serif" font-size="11" lengthAdjust="spacingAndGlyphs" textLength="33" x="192.5" y="239.4292">rights</text><rect fill="none" height="6" style="stroke: #C82930; stroke-width: 1.0;" width="6" x="180.5" y="246.9258"/><text fill="#000000" font-family="sans-serif" font-size="11" lengthAdjust="spacingAndGlyphs" textLength="48" x="192.5" y="252.2339">loggedIn</text><rect fill="none" height="6" style="stroke: #C82930; stroke-width: 1.0;" width="6" x="180.5" y="259.7305"/><text fill="#000000" font-family="sans-serif" font-size="11" lengthAdjust="spacingAndGlyphs" textLength="46" x="192.5" y="265.0386">projects</text><rect fill="none" height="6" style="stroke: #C82930; stroke-width: 1.0;" width="6" x="180.5" y="272.5352"/><text fill="#000000" font-family="sans-serif" font-size="11" lengthAdjust="spacingAndGlyphs" textLength="53" x="192.5" y="277.8433">countries</text><rect fill="none" height="6" style="stroke: #C82930; stroke-width: 1.0;" width="6" x="180.5" y="285.3398"/><text fill="#000000" font-family="sans-serif" font-size="11" lengthAdjust="spacingAndGlyphs" textLength="52" x="192.5" y="290.6479">language</text><line style="stroke: #A80036; stroke-width: 1.5;" x1="173.5" x2="255.5" y1="297.2422" y2="297.2422"/><!--class Vendor--><rect fill="#FEFECE" filter="url(#f1mj4vnivrmmcd)" height="227.2656" id="Vendor" style="stroke: #A80036; stroke-width: 1.5;" width="125" x="72" y="365"/><ellipse cx="108.6" cy="381" fill="#ADD1B2" rx="11" ry="11" style="stroke: #A80036; stroke-width: 1.0;"/><path d="M110.9438,376.6719 L111.1156,376.75 C111.3344,376.4375 111.5375,376.3438 111.8344,376.3438 C112.1313,376.3438 112.4125,376.4844 112.5688,376.75 C112.6625,376.9063 112.6781,377.0313 112.6781,377.4688 L112.6781,378.8906 C112.6781,379.3125 112.6469,379.5 112.5375,379.6563 C112.3656,379.875 112.1,380.0156 111.8344,380.0156 C111.6156,380.0156 111.3813,379.9063 111.2406,379.7656 C111.1,379.6406 111.0688,379.5156 111.0063,379.1094 C110.9125,378.7031 110.7406,378.4844 110.2563,378.2031 C109.7875,377.9531 109.1781,377.7969 108.6,377.7969 C106.8656,377.7969 105.6156,379.1094 105.6156,380.8906 L105.6156,381.9844 C105.6156,383.6875 106.9125,384.7813 108.9594,384.7813 C109.725,384.7813 110.4125,384.6563 110.8344,384.3906 C111.0219,384.2969 111.0219,384.2969 111.475,383.8125 C111.6625,383.625 111.8656,383.5469 112.0844,383.5469 C112.5531,383.5469 112.9438,383.9375 112.9438,384.3906 C112.9438,384.7813 112.6156,385.2344 112.0375,385.6406 C111.2875,386.1875 110.1313,386.4844 108.9125,386.4844 C106.0219,386.4844 103.9125,384.5938 103.9125,382.0156 L103.9125,380.8906 C103.9125,378.1719 105.9125,376.0938 108.5375,376.0938 C109.4125,376.0938 110.0063,376.2344 110.9438,376.6719 Z "/><text fill="#000000" font-family="sans-serif" font-size="12" lengthAdjust="spacingAndGlyphs" textLength="45" x="127.4" y="385.1543">Vendor</text><line style="stroke: #A80036; stroke-width: 1.5;" x1="73" x2="196" y1="397" y2="397"/><rect fill="none" height="6" style="stroke: #C82930; stroke-width: 1.0;" width="6" x="80" y="405.9023"/><text fill="#000000" font-family="sans-serif" font-size="11" lengthAdjust="spacingAndGlyphs" textLength="10" x="92" y="411.2104">id</text><rect fill="none" height="6" style="stroke: #C82930; stroke-width: 1.0;" width="6" x="80" y="418.707"/><text fill="#000000" font-family="sans-serif" font-size="11" lengthAdjust="spacingAndGlyphs" textLength="26" x="92" y="424.0151">user</text><rect fill="none" height="6" style="stroke: #C82930; stroke-width: 1.0;" width="6" x="80" y="431.5117"/><text fill="#000000" font-family="sans-serif" font-size="11" lengthAdjust="spacingAndGlyphs" textLength="58" x="92" y="436.8198">username</text><rect fill="none" height="6" style="stroke: #C82930; stroke-width: 1.0;" width="6" x="80" y="444.3164"/><text fill="#000000" font-family="sans-serif" font-size="11" lengthAdjust="spacingAndGlyphs" textLength="56" x="92" y="449.6245">password</text><rect fill="none" height="6" style="stroke: #C82930; stroke-width: 1.0;" width="6" x="80" y="457.1211"/><text fill="#000000" font-family="sans-serif" font-size="11" lengthAdjust="spacingAndGlyphs" textLength="61" x="92" y="462.4292">shopName</text><rect fill="none" height="6" style="stroke: #C82930; stroke-width: 1.0;" width="6" x="80" y="469.9258"/><text fill="#000000" font-family="sans-serif" font-size="11" lengthAdjust="spacingAndGlyphs" textLength="55" x="92" y="475.2339">shopType</text><rect fill="none" height="6" style="stroke: #C82930; stroke-width: 1.0;" width="6" x="80" y="482.7305"/><text fill="#000000" font-family="sans-serif" font-size="11" lengthAdjust="spacingAndGlyphs" textLength="82" x="92" y="488.0386">addressStreet</text><rect fill="none" height="6" style="stroke: #C82930; stroke-width: 1.0;" width="6" x="80" y="495.5352"/><text fill="#000000" font-family="sans-serif" font-size="11" lengthAdjust="spacingAndGlyphs" textLength="92" x="92" y="500.8433">addressNumber</text><rect fill="none" height="6" style="stroke: #C82930; stroke-width: 1.0;" width="6" x="80" y="508.3398"/><text fill="#000000" font-family="sans-serif" font-size="11" lengthAdjust="spacingAndGlyphs" textLength="99" x="92" y="513.6479">addressPostcode</text><rect fill="none" height="6" style="stroke: #C82930; stroke-width: 1.0;" width="6" x="80" y="521.1445"/><text fill="#000000" font-family="sans-serif" font-size="11" lengthAdjust="spacingAndGlyphs" textLength="44" x="92" y="526.4526">location</text><rect fill="none" height="6" style="stroke: #C82930; stroke-width: 1.0;" width="6" x="80" y="533.9492"/><text fill="#000000" font-family="sans-serif" font-size="11" lengthAdjust="spacingAndGlyphs" textLength="32" x="92" y="539.2573">adm1</text><rect fill="none" height="6" style="stroke: #C82930; stroke-width: 1.0;" width="6" x="80" y="546.7539"/><text fill="#000000" font-family="sans-serif" font-size="11" lengthAdjust="spacingAndGlyphs" textLength="32" x="92" y="552.062">adm2</text><rect fill="none" height="6" style="stroke: #C82930; stroke-width: 1.0;" width="6" x="80" y="559.5586"/><text fill="#000000" font-family="sans-serif" font-size="11" lengthAdjust="spacingAndGlyphs" textLength="32" x="92" y="564.8667">adm3</text><rect fill="none" height="6" style="stroke: #C82930; stroke-width: 1.0;" width="6" x="80" y="572.3633"/><text fill="#000000" font-family="sans-serif" font-size="11" lengthAdjust="spacingAndGlyphs" textLength="32" x="92" y="577.6714">adm4</text><line style="stroke: #A80036; stroke-width: 1.5;" x1="73" x2="196" y1="584.2656" y2="584.2656"/><!--class Role--><rect fill="#FEFECE" filter="url(#f1mj4vnivrmmcd)" height="73.6094" id="Role" style="stroke: #A80036; stroke-width: 1.5;" width="59" x="100" y="8"/><ellipse cx="115" cy="24" fill="#ADD1B2" rx="11" ry="11" style="stroke: #A80036; stroke-width: 1.0;"/><path d="M117.3438,19.6719 L117.5156,19.75 C117.7344,19.4375 117.9375,19.3438 118.2344,19.3438 C118.5313,19.3438 118.8125,19.4844 118.9688,19.75 C119.0625,19.9063 119.0781,20.0313 119.0781,20.4688 L119.0781,21.8906 C119.0781,22.3125 119.0469,22.5 118.9375,22.6563 C118.7656,22.875 118.5,23.0156 118.2344,23.0156 C118.0156,23.0156 117.7813,22.9063 117.6406,22.7656 C117.5,22.6406 117.4688,22.5156 117.4063,22.1094 C117.3125,21.7031 117.1406,21.4844 116.6563,21.2031 C116.1875,20.9531 115.5781,20.7969 115,20.7969 C113.2656,20.7969 112.0156,22.1094 112.0156,23.8906 L112.0156,24.9844 C112.0156,26.6875 113.3125,27.7813 115.3594,27.7813 C116.125,27.7813 116.8125,27.6563 117.2344,27.3906 C117.4219,27.2969 117.4219,27.2969 117.875,26.8125 C118.0625,26.625 118.2656,26.5469 118.4844,26.5469 C118.9531,26.5469 119.3438,26.9375 119.3438,27.3906 C119.3438,27.7813 119.0156,28.2344 118.4375,28.6406 C117.6875,29.1875 116.5313,29.4844 115.3125,29.4844 C112.4219,29.4844 110.3125,27.5938 110.3125,25.0156 L110.3125,23.8906 C110.3125,21.1719 112.3125,19.0938 114.9375,19.0938 C115.8125,19.0938 116.4063,19.2344 117.3438,19.6719 Z "/><text fill="#000000" font-family="sans-serif" font-size="12" lengthAdjust="spacingAndGlyphs" textLength="27" x="129" y="28.1543">Role</text><line style="stroke: #A80036; stroke-width: 1.5;" x1="101" x2="158" y1="40" y2="40"/><rect fill="none" height="6" style="stroke: #C82930; stroke-width: 1.0;" width="6" x="108" y="48.9023"/><text fill="#000000" font-family="sans-serif" font-size="11" lengthAdjust="spacingAndGlyphs" textLength="10" x="120" y="54.2104">id</text><rect fill="none" height="6" style="stroke: #C82930; stroke-width: 1.0;" width="6" x="108" y="61.707"/><text fill="#000000" font-family="sans-serif" font-size="11" lengthAdjust="spacingAndGlyphs" textLength="32" x="120" y="67.0151">name</text><line style="stroke: #A80036; stroke-width: 1.5;" x1="101" x2="158" y1="73.6094" y2="73.6094"/><!--class Country--><rect fill="#FEFECE" filter="url(#f1mj4vnivrmmcd)" height="73.6094" id="Country" style="stroke: #A80036; stroke-width: 1.5;" width="80" x="194.5" y="8"/><ellipse cx="209.5" cy="24" fill="#ADD1B2" rx="11" ry="11" style="stroke: #A80036; stroke-width: 1.0;"/><path d="M211.8438,19.6719 L212.0156,19.75 C212.2344,19.4375 212.4375,19.3438 212.7344,19.3438 C213.0313,19.3438 213.3125,19.4844 213.4688,19.75 C213.5625,19.9063 213.5781,20.0313 213.5781,20.4688 L213.5781,21.8906 C213.5781,22.3125 213.5469,22.5 213.4375,22.6563 C213.2656,22.875 213,23.0156 212.7344,23.0156 C212.5156,23.0156 212.2813,22.9063 212.1406,22.7656 C212,22.6406 211.9688,22.5156 211.9063,22.1094 C211.8125,21.7031 211.6406,21.4844 211.1563,21.2031 C210.6875,20.9531 210.0781,20.7969 209.5,20.7969 C207.7656,20.7969 206.5156,22.1094 206.5156,23.8906 L206.5156,24.9844 C206.5156,26.6875 207.8125,27.7813 209.8594,27.7813 C210.625,27.7813 211.3125,27.6563 211.7344,27.3906 C211.9219,27.2969 211.9219,27.2969 212.375,26.8125 C212.5625,26.625 212.7656,26.5469 212.9844,26.5469 C213.4531,26.5469 213.8438,26.9375 213.8438,27.3906 C213.8438,27.7813 213.5156,28.2344 212.9375,28.6406 C212.1875,29.1875 211.0313,29.4844 209.8125,29.4844 C206.9219,29.4844 204.8125,27.5938 204.8125,25.0156 L204.8125,23.8906 C204.8125,21.1719 206.8125,19.0938 209.4375,19.0938 C210.3125,19.0938 210.9063,19.2344 211.8438,19.6719 Z "/><text fill="#000000" font-family="sans-serif" font-size="12" lengthAdjust="spacingAndGlyphs" textLength="48" x="223.5" y="28.1543">Country</text><line style="stroke: #A80036; stroke-width: 1.5;" x1="195.5" x2="273.5" y1="40" y2="40"/><rect fill="none" height="6" style="stroke: #C82930; stroke-width: 1.0;" width="6" x="202.5" y="48.9023"/><text fill="#000000" font-family="sans-serif" font-size="11" lengthAdjust="spacingAndGlyphs" textLength="10" x="214.5" y="54.2104">id</text><rect fill="none" height="6" style="stroke: #C82930; stroke-width: 1.0;" width="6" x="202.5" y="61.707"/><text fill="#000000" font-family="sans-serif" font-size="11" lengthAdjust="spacingAndGlyphs" textLength="32" x="214.5" y="67.0151">name</text><line style="stroke: #A80036; stroke-width: 1.5;" x1="195.5" x2="273.5" y1="73.6094" y2="73.6094"/><!--class Adm--><rect fill="#FEFECE" filter="url(#f1mj4vnivrmmcd)" height="48" id="Adm" style="stroke: #A80036; stroke-width: 1.5;" width="59" x="6" y="21"/><ellipse cx="21" cy="37" fill="#ADD1B2" rx="11" ry="11" style="stroke: #A80036; stroke-width: 1.0;"/><path d="M23.3438,32.6719 L23.5156,32.75 C23.7344,32.4375 23.9375,32.3438 24.2344,32.3438 C24.5313,32.3438 24.8125,32.4844 24.9688,32.75 C25.0625,32.9063 25.0781,33.0313 25.0781,33.4688 L25.0781,34.8906 C25.0781,35.3125 25.0469,35.5 24.9375,35.6563 C24.7656,35.875 24.5,36.0156 24.2344,36.0156 C24.0156,36.0156 23.7813,35.9063 23.6406,35.7656 C23.5,35.6406 23.4688,35.5156 23.4063,35.1094 C23.3125,34.7031 23.1406,34.4844 22.6563,34.2031 C22.1875,33.9531 21.5781,33.7969 21,33.7969 C19.2656,33.7969 18.0156,35.1094 18.0156,36.8906 L18.0156,37.9844 C18.0156,39.6875 19.3125,40.7813 21.3594,40.7813 C22.125,40.7813 22.8125,40.6563 23.2344,40.3906 C23.4219,40.2969 23.4219,40.2969 23.875,39.8125 C24.0625,39.625 24.2656,39.5469 24.4844,39.5469 C24.9531,39.5469 25.3438,39.9375 25.3438,40.3906 C25.3438,40.7813 25.0156,41.2344 24.4375,41.6406 C23.6875,42.1875 22.5313,42.4844 21.3125,42.4844 C18.4219,42.4844 16.3125,40.5938 16.3125,38.0156 L16.3125,36.8906 C16.3125,34.1719 18.3125,32.0938 20.9375,32.0938 C21.8125,32.0938 22.4063,32.2344 23.3438,32.6719 Z "/><text fill="#000000" font-family="sans-serif" font-size="12" lengthAdjust="spacingAndGlyphs" textLength="27" x="35" y="41.1543">Adm</text><line style="stroke: #A80036; stroke-width: 1.5;" x1="7" x2="64" y1="53" y2="53"/><line style="stroke: #A80036; stroke-width: 1.5;" x1="7" x2="64" y1="61" y2="61"/><!--class Location--><rect fill="#FEFECE" filter="url(#f1mj4vnivrmmcd)" height="48" id="Location" style="stroke: #A80036; stroke-width: 1.5;" width="85" x="13" y="199.5"/><ellipse cx="28" cy="215.5" fill="#ADD1B2" rx="11" ry="11" style="stroke: #A80036; stroke-width: 1.0;"/><path d="M30.3438,211.1719 L30.5156,211.25 C30.7344,210.9375 30.9375,210.8438 31.2344,210.8438 C31.5313,210.8438 31.8125,210.9844 31.9688,211.25 C32.0625,211.4063 32.0781,211.5313 32.0781,211.9688 L32.0781,213.3906 C32.0781,213.8125 32.0469,214 31.9375,214.1563 C31.7656,214.375 31.5,214.5156 31.2344,214.5156 C31.0156,214.5156 30.7813,214.4063 30.6406,214.2656 C30.5,214.1406 30.4688,214.0156 30.4063,213.6094 C30.3125,213.2031 30.1406,212.9844 29.6563,212.7031 C29.1875,212.4531 28.5781,212.2969 28,212.2969 C26.2656,212.2969 25.0156,213.6094 25.0156,215.3906 L25.0156,216.4844 C25.0156,218.1875 26.3125,219.2813 28.3594,219.2813 C29.125,219.2813 29.8125,219.1563 30.2344,218.8906 C30.4219,218.7969 30.4219,218.7969 30.875,218.3125 C31.0625,218.125 31.2656,218.0469 31.4844,218.0469 C31.9531,218.0469 32.3438,218.4375 32.3438,218.8906 C32.3438,219.2813 32.0156,219.7344 31.4375,220.1406 C30.6875,220.6875 29.5313,220.9844 28.3125,220.9844 C25.4219,220.9844 23.3125,219.0938 23.3125,216.5156 L23.3125,215.3906 C23.3125,212.6719 25.3125,210.5938 27.9375,210.5938 C28.8125,210.5938 29.4063,210.7344 30.3438,211.1719 Z "/><text fill="#000000" font-family="sans-serif" font-size="12" lengthAdjust="spacingAndGlyphs" textLength="53" x="42" y="219.6543">Location</text><line style="stroke: #A80036; stroke-width: 1.5;" x1="14" x2="97" y1="231.5" y2="231.5"/><line style="stroke: #A80036; stroke-width: 1.5;" x1="14" x2="97" y1="239.5" y2="239.5"/><!--class Project--><rect fill="#FEFECE" filter="url(#f1mj4vnivrmmcd)" height="48" id="Project" style="stroke: #A80036; stroke-width: 1.5;" width="76" x="309.5" y="21"/><ellipse cx="324.5" cy="37" fill="#ADD1B2" rx="11" ry="11" style="stroke: #A80036; stroke-width: 1.0;"/><path d="M326.8438,32.6719 L327.0156,32.75 C327.2344,32.4375 327.4375,32.3438 327.7344,32.3438 C328.0313,32.3438 328.3125,32.4844 328.4688,32.75 C328.5625,32.9063 328.5781,33.0313 328.5781,33.4688 L328.5781,34.8906 C328.5781,35.3125 328.5469,35.5 328.4375,35.6563 C328.2656,35.875 328,36.0156 327.7344,36.0156 C327.5156,36.0156 327.2813,35.9063 327.1406,35.7656 C327,35.6406 326.9688,35.5156 326.9063,35.1094 C326.8125,34.7031 326.6406,34.4844 326.1563,34.2031 C325.6875,33.9531 325.0781,33.7969 324.5,33.7969 C322.7656,33.7969 321.5156,35.1094 321.5156,36.8906 L321.5156,37.9844 C321.5156,39.6875 322.8125,40.7813 324.8594,40.7813 C325.625,40.7813 326.3125,40.6563 326.7344,40.3906 C326.9219,40.2969 326.9219,40.2969 327.375,39.8125 C327.5625,39.625 327.7656,39.5469 327.9844,39.5469 C328.4531,39.5469 328.8438,39.9375 328.8438,40.3906 C328.8438,40.7813 328.5156,41.2344 327.9375,41.6406 C327.1875,42.1875 326.0313,42.4844 324.8125,42.4844 C321.9219,42.4844 319.8125,40.5938 319.8125,38.0156 L319.8125,36.8906 C319.8125,34.1719 321.8125,32.0938 324.4375,32.0938 C325.3125,32.0938 325.9063,32.2344 326.8438,32.6719 Z "/><text fill="#000000" font-family="sans-serif" font-size="12" lengthAdjust="spacingAndGlyphs" textLength="44" x="338.5" y="41.1543">Project</text><line style="stroke: #A80036; stroke-width: 1.5;" x1="310.5" x2="384.5" y1="53" y2="53"/><line style="stroke: #A80036; stroke-width: 1.5;" x1="310.5" x2="384.5" y1="61" y2="61"/><!--class Voucher--><rect fill="#FEFECE" filter="url(#f1mj4vnivrmmcd)" height="48" id="Voucher" style="stroke: #A80036; stroke-width: 1.5;" width="84" x="92.5" y="652"/><ellipse cx="107.5" cy="668" fill="#ADD1B2" rx="11" ry="11" style="stroke: #A80036; stroke-width: 1.0;"/><path d="M109.8438,663.6719 L110.0156,663.75 C110.2344,663.4375 110.4375,663.3438 110.7344,663.3438 C111.0313,663.3438 111.3125,663.4844 111.4688,663.75 C111.5625,663.9063 111.5781,664.0313 111.5781,664.4688 L111.5781,665.8906 C111.5781,666.3125 111.5469,666.5 111.4375,666.6563 C111.2656,666.875 111,667.0156 110.7344,667.0156 C110.5156,667.0156 110.2813,666.9063 110.1406,666.7656 C110,666.6406 109.9688,666.5156 109.9063,666.1094 C109.8125,665.7031 109.6406,665.4844 109.1563,665.2031 C108.6875,664.9531 108.0781,664.7969 107.5,664.7969 C105.7656,664.7969 104.5156,666.1094 104.5156,667.8906 L104.5156,668.9844 C104.5156,670.6875 105.8125,671.7813 107.8594,671.7813 C108.625,671.7813 109.3125,671.6563 109.7344,671.3906 C109.9219,671.2969 109.9219,671.2969 110.375,670.8125 C110.5625,670.625 110.7656,670.5469 110.9844,670.5469 C111.4531,670.5469 111.8438,670.9375 111.8438,671.3906 C111.8438,671.7813 111.5156,672.2344 110.9375,672.6406 C110.1875,673.1875 109.0313,673.4844 107.8125,673.4844 C104.9219,673.4844 102.8125,671.5938 102.8125,669.0156 L102.8125,667.8906 C102.8125,665.1719 104.8125,663.0938 107.4375,663.0938 C108.3125,663.0938 108.9063,663.2344 109.8438,663.6719 Z "/><text fill="#000000" font-family="sans-serif" font-size="12" lengthAdjust="spacingAndGlyphs" textLength="52" x="121.5" y="672.1543">Voucher</text><line style="stroke: #A80036; stroke-width: 1.5;" x1="93.5" x2="175.5" y1="684" y2="684"/><line style="stroke: #A80036; stroke-width: 1.5;" x1="93.5" x2="175.5" y1="692" y2="692"/><!--link Adm to Location--><path d="M39.5864,82.063 C43.5677,117.197 49.5006,169.555 52.8847,199.42 " fill="none" id="Adm-Location" style="stroke: #A80036; stroke-width: 1.0;"/><polygon fill="#A80036" points="38.1147,69.074,34.816,75.4864,39.4663,80.9976,42.7651,74.5853,38.1147,69.074" style="stroke: #A80036; stroke-width: 1.0;"/><text fill="#000000" font-family="sans-serif" font-size="13" lengthAdjust="spacingAndGlyphs" textLength="21" x="15.0941" y="89.2487">0-4</text><text fill="#000000" font-family="sans-serif" font-size="13" lengthAdjust="spacingAndGlyphs" textLength="8" x="43.1895" y="188.4115">1</text><!--link Role to User--><path d="M152.654,94.078 C159.783,108.882 167.836,125.604 175.718,141.969 " fill="none" id="Role-User" style="stroke: #A80036; stroke-width: 1.0;"/><polygon fill="#A80036" points="146.906,82.143,145.9051,89.2843,152.1121,92.9548,153.113,85.8135,146.906,82.143" style="stroke: #A80036; stroke-width: 1.0;"/><text fill="#000000" font-family="sans-serif" font-size="13" lengthAdjust="spacingAndGlyphs" textLength="20" x="128.1326" y="101.6472">1-*</text><text fill="#000000" font-family="sans-serif" font-size="13" lengthAdjust="spacingAndGlyphs" textLength="8" x="163.774" y="130.8233">1</text><!--link Country to User--><path d="M228.901,95.416 C227.261,109.885 225.424,126.095 223.625,141.969 " fill="none" id="Country-User" style="stroke: #A80036; stroke-width: 1.0;"/><polygon fill="#A80036" points="230.404,82.143,225.7536,87.6543,229.0523,94.0666,233.7027,88.5554,230.404,82.143" style="stroke: #A80036; stroke-width: 1.0;"/><text fill="#000000" font-family="sans-serif" font-size="13" lengthAdjust="spacingAndGlyphs" textLength="21" x="206.9865" y="101.6472">0-2</text><text fill="#000000" font-family="sans-serif" font-size="13" lengthAdjust="spacingAndGlyphs" textLength="20" x="203.5443" y="130.8233">0-*</text><!--link Project to User--><path d="M322.133,79.663 C303.607,104.249 278.066,138.144 256.514,166.745 " fill="none" id="Project-User" style="stroke: #A80036; stroke-width: 1.0;"/><polygon fill="#A80036" points="330.113,69.074,323.3075,71.4585,322.8911,78.6575,329.6965,76.2731,330.113,69.074" style="stroke: #A80036; stroke-width: 1.0;"/><text fill="#000000" font-family="sans-serif" font-size="13" lengthAdjust="spacingAndGlyphs" textLength="20" x="303.0951" y="89.2487">0-*</text><text fill="#000000" font-family="sans-serif" font-size="13" lengthAdjust="spacingAndGlyphs" textLength="20" x="264.4786" y="153.9645">0-*</text><!--link User to Vendor--><path d="M184.971,317.884 C180.145,333.149 175.099,349.105 170.144,364.776 " fill="none" id="User-Vendor" style="stroke: #A80036; stroke-width: 1.0;"/><polygon fill="#A80036" points="188.968,305.246,183.3454,309.7611,185.3506,316.6878,190.9732,312.1727,188.968,305.246" style="stroke: #A80036; stroke-width: 1.0;"/><text fill="#000000" font-family="sans-serif" font-size="13" lengthAdjust="spacingAndGlyphs" textLength="8" x="178.3378" y="325.2565">1</text><text fill="#000000" font-family="sans-serif" font-size="13" lengthAdjust="spacingAndGlyphs" textLength="8" x="164.1712" y="354.0727">1</text><!--link Location to Vendor--><path d="M66.6741,260.285 C75.2361,287.705 87.5444,327.123 99.3318,364.873 " fill="none" id="Location-Vendor" style="stroke: #A80036; stroke-width: 1.0;"/><polygon fill="#A80036" points="62.7905,247.848,60.7604,254.7674,66.3668,259.3027,68.3969,252.3833,62.7905,247.848" style="stroke: #A80036; stroke-width: 1.0;"/><text fill="#000000" font-family="sans-serif" font-size="13" lengthAdjust="spacingAndGlyphs" textLength="8" x="55.5926" y="267.694">1</text><text fill="#000000" font-family="sans-serif" font-size="13" lengthAdjust="spacingAndGlyphs" textLength="8" x="88.7002" y="353.7972">1</text><!--link Vendor to Voucher--><path d="M134.5,605.2556 C134.5,623.0592 134.5,639.5091 134.5,651.9566 " fill="none" id="Vendor-Voucher" style="stroke: #A80036; stroke-width: 1.0;"/><polygon fill="#FFFFFF" points="134.5,592.09,130.5,598.09,134.5,604.09,138.5,598.09,134.5,592.09" style="stroke: #A80036; stroke-width: 1.0;"/><text fill="#000000" font-family="sans-serif" font-size="13" lengthAdjust="spacingAndGlyphs" textLength="8" x="126.2313" y="612.2882">1</text><text fill="#000000" font-family="sans-serif" font-size="13" lengthAdjust="spacingAndGlyphs" textLength="20" x="111.9375" y="640.9575">0-*</text><!--
@startuml
class User {
    - id
    - username
    - email
    - password
    - rights
    - loggedIn
    - projects
    - countries
    - language
}

class Vendor {
    - id
    - user
    - username
    - password
    - shopName
    - shopType
    - addressStreet
    - addressNumber
    - addressPostcode
    - location
    - adm1
    - adm2
    - adm3
    - adm4
}

class Role {
    - id
    - name
}

class Country {
    - id
    - name
}

 Adm "0-4" *- - "1" Location

 
 Role "1-*" *- - "1" User
 Country "0-2" *- - "0-*" User
 Project "0-*" *- - "0-*" User
 
 User "1" *- - "1" Vendor
 Location "1" *- - "1" Vendor
 
 Vendor "1" o- - "0-*" Voucher
@enduml

PlantUML version 1.2019.05(Sat Apr 20 16:45:36 UTC 2019)
(GPL source distribution)
Java Runtime: Java(TM) SE Runtime Environment
JVM: Java HotSpot(TM) 64-Bit Server VM
Java Version: 1.7.0_25-b15
Operating System: Linux
Default Encoding: UTF-8
Language: en
Country: US
--></g></svg>