<svg xmlns="http://www.w3.org/2000/svg" viewBox="0 0 1080 1080"><defs><style>.a{fill:#111;}</style></defs><title>ico-corn</title><path class="a" d="M647,467.7c33.6,2.9,64.3,10.8,91.6,23.5A226.1,226.1,0,0,1,802.7,536l.6.6c92.9-118.9,146.1-250.1,84.1-312.1s-193.2-8.7-312.2,84.4a2.7,2.7,0,0,1,.8.7C616.2,349.8,640.3,403.7,647,467.7Z"/><path class="a" d="M438.7,296.5a28.3,28.3,0,0,0-24,5,27.7,27.7,0,0,0-10.8,21.9c-.6,72.4-37.2,128-72.5,181.8-9.1,13.9-18.2,27.8-26.6,42,105.9-51.6,202.1-78.9,285.5-81C578.7,377.9,526.8,318.7,438.7,296.5Z"/><path class="a" d="M791.4,613c-21.1-32.3-50.6-56.8-87.4-72.1-25.7-10.7-54.7-16.6-86.5-18.1-8.2-.1-16.4-.1-25,.5v-.8C502.6,524.8,399,523,272,627.4c-1.3,1.1-92,75.8-92,135.6A139,139,0,0,0,319,902c32.6,0,173.4-98.2,220-129.4,53.8-36,181.3-71.3,246.6-64.5a28,28,0,0,0,30-34.9A236.8,236.8,0,0,0,791.4,613Z"/></svg>