<?xml version="1.0" standalone="no"?>
<!DOCTYPE svg PUBLIC "-//W3C//DTD SVG 20010904//EN"
 "http://www.w3.org/TR/2001/REC-SVG-20010904/DTD/svg10.dtd">
<svg version="1.0" xmlns="http://www.w3.org/2000/svg"
 width="200.000000pt" height="200.000000pt" viewBox="0 0 200.000000 200.000000"
 preserveAspectRatio="xMidYMid meet">
<metadata>
Created by potrace 1.15, written by Peter Selinger 2001-2017
</metadata>
<g transform="translate(0.000000,200.000000) scale(0.100000,-0.100000)"
fill="#000000" stroke="none">
<path d="M345 1947 c-48 -109 -72 -225 -67 -325 3 -53 49 -92 107 -92 87 0
118 67 91 196 -16 78 -70 232 -91 260 -13 18 -16 15 -40 -39z"/>
<path d="M1668 1718 c-88 -88 -140 -163 -158 -230 -28 -100 93 -183 163 -112
53 52 92 221 85 364 l-3 65 -87 -87z"/>
<path d="M21 1719 c-2 -127 52 -292 118 -362 100 -108 254 -52 211 77 -14 43
-63 87 -141 126 -103 53 -158 113 -178 197 -8 34 -9 29 -10 -38z"/>
<path d="M717 1760 c-22 -89 -80 -150 -198 -210 -30 -16 -72 -47 -92 -69 -31
-34 -37 -48 -37 -85 0 -86 85 -125 173 -79 60 31 124 153 152 289 17 86 19
225 2 154z"/>
<path d="M1326 1723 c-31 -62 -58 -172 -63 -265 -7 -119 7 -177 54 -224 28
-28 41 -34 76 -34 54 0 83 21 98 68 16 54 -1 106 -62 188 -77 103 -92 144 -87
226 3 37 4 68 2 68 -2 0 -10 -12 -18 -27z"/>
<path d="M21 1425 c-1 -168 72 -350 163 -406 67 -41 157 -14 171 51 15 69 -34
134 -144 189 -102 52 -155 109 -177 190 l-13 46 0 -70z"/>
<path d="M712 1447 c-16 -62 -64 -123 -123 -155 -95 -50 -164 -100 -181 -130
-26 -44 -23 -95 8 -131 22 -27 33 -31 73 -31 91 0 160 80 211 245 19 64 40
245 28 245 -3 0 -10 -19 -16 -43z"/>
<path d="M1192 1433 c-38 -89 -55 -175 -56 -278 -1 -85 2 -107 22 -145 29 -58
63 -83 115 -83 77 0 121 87 85 170 -7 15 -33 57 -59 93 -25 36 -54 80 -63 98
-23 44 -31 123 -18 161 17 49 -3 36 -26 -16z"/>
<path d="M1963 1438 c-27 -60 -129 -108 -229 -108 -87 0 -153 -19 -192 -54
-29 -28 -35 -39 -35 -76 0 -96 111 -132 219 -71 98 56 263 264 252 318 -2 13
-6 11 -15 -9z"/>
<path d="M1062 1153 c-50 -116 -72 -272 -52 -366 26 -127 139 -184 206 -104
23 27 26 38 22 84 -4 41 -13 65 -44 108 -105 147 -128 209 -107 287 14 53 -1
47 -25 -9z"/>
<path d="M1822 1149 c-50 -60 -99 -80 -218 -90 -57 -5 -122 -16 -144 -25 -81
-33 -106 -119 -51 -175 25 -25 37 -29 83 -29 93 1 180 58 273 183 82 108 129
223 57 136z"/>
<path d="M21 1117 c-2 -174 84 -375 176 -413 67 -29 122 -15 149 38 33 64 -13
146 -110 195 -122 62 -180 119 -202 201 l-13 47 0 -68z"/>
<path d="M716 1155 c-24 -89 -76 -149 -171 -197 -116 -58 -155 -102 -155 -173
0 -52 44 -95 97 -95 105 0 191 120 229 322 16 83 16 202 0 143z"/>
<path d="M936 883 c-52 -101 -81 -311 -56 -403 16 -59 76 -120 118 -120 44 0
81 20 98 51 29 57 10 120 -69 227 -63 86 -81 138 -74 212 3 33 3 60 1 60 -2 0
-10 -12 -18 -27z"/>
<path d="M1692 869 c-51 -60 -99 -80 -217 -89 -162 -13 -225 -50 -225 -132 0
-31 7 -46 30 -70 29 -29 34 -30 95 -26 55 3 73 10 122 43 68 48 157 151 202
235 40 75 37 92 -7 39z"/>
<path d="M20 794 c0 -75 25 -188 59 -266 26 -61 93 -134 137 -148 74 -25 139
20 139 94 0 59 -37 104 -122 149 -124 66 -165 106 -195 191 l-17 51 -1 -71z"/>
<path d="M716 835 c-26 -89 -76 -144 -175 -194 -104 -53 -151 -106 -151 -171
0 -67 52 -107 123 -95 89 16 166 134 202 312 17 85 18 207 1 148z"/>
<path d="M1565 587 c-12 -18 -44 -43 -77 -60 -46 -24 -74 -31 -160 -37 -107
-8 -150 -22 -188 -62 -22 -24 -27 -86 -10 -119 27 -49 114 -62 188 -29 83 38
223 197 267 303 19 45 7 48 -20 4z"/>
<path d="M295 340 c-5 -9 26 -295 33 -302 16 -15 58 -18 76 -5 16 12 21 37 32
158 7 79 11 146 8 148 -6 7 -145 7 -149 1z"/>
<path d="M980 310 c-15 -29 -90 -247 -90 -263 0 -21 34 -47 62 -47 22 0 35 16
97 126 70 123 79 154 45 154 -10 0 -37 11 -60 25 -43 25 -43 25 -54 5z"/>
</g>
</svg>
