<?xml version="1.0" standalone="no"?>
<!DOCTYPE svg PUBLIC "-//W3C//DTD SVG 20010904//EN"
 "http://www.w3.org/TR/2001/REC-SVG-20010904/DTD/svg10.dtd">
<svg version="1.0" xmlns="http://www.w3.org/2000/svg" viewBox="0 0 200 200">
<metadata>
Created by potrace 1.15, written by Peter Selinger 2001-2017
</metadata>
<g transform="translate(0.000000,200.000000) scale(0.100000,-0.100000)"
fill="#000000" stroke="none">
<path d="M1388 1800 c-81 -13 -167 -36 -266 -73 l-87 -31 60 -8 c173 -24 275
-67 349 -149 61 -68 86 -138 86 -242 l0 -82 -23 55 c-80 193 -260 312 -515
341 l-94 10 -62 -37 c-100 -61 -202 -140 -287 -221 -44 -42 -78 -78 -76 -80 2
-2 33 3 68 12 186 43 380 0 500 -112 70 -66 102 -136 107 -239 3 -46 2 -84 -1
-84 -3 0 -19 30 -36 66 -43 92 -142 189 -241 237 -106 52 -177 68 -322 74
l-126 6 -69 -87 c-61 -78 -143 -201 -143 -215 0 -3 44 -6 98 -6 164 -1 303
-59 386 -165 40 -49 76 -150 76 -210 0 -72 -10 -72 -46 -1 -82 165 -268 278
-500 305 l-52 6 -21 -52 c-52 -131 -66 -283 -36 -385 73 -246 401 -308 791
-149 334 136 683 433 858 729 121 205 165 406 121 555 -29 98 -120 185 -226
216 -64 19 -199 27 -271 16z"/>
</g>
</svg>
