<svg xmlns="http://www.w3.org/2000/svg" viewBox="0 0 1080 1080"><title>ico-cash</title><path d="M191,576V911H888V576ZM303,786a47,47,0,1,1,47-47A46.9,46.9,0,0,1,303,786Zm246,45a92,92,0,1,1,92-92A92,92,0,0,1,549,831Zm238-45a47,47,0,1,1,47-47A46.9,46.9,0,0,1,787,786Z"/><path d="M191,172V507H888V172ZM350,339a47,47,0,0,1-94,0,20,20,0,0,0,0-4,47,47,0,0,1,94,0,20,20,0,0,0,0,4Zm291,0a92,92,0,0,1-184,0v-4a92,92,0,0,1,184,0v4Zm193,0a47,47,0,0,1-94,0,20,20,0,0,0,0-4,47,47,0,0,1,94,0,20,20,0,0,0,0,4Z"/></svg>