<?xml version="1.0" standalone="no"?>
<!DOCTYPE svg PUBLIC "-//W3C//DTD SVG 20010904//EN"
 "http://www.w3.org/TR/2001/REC-SVG-20010904/DTD/svg10.dtd">
<svg version="1.0" xmlns="http://www.w3.org/2000/svg"
 width="256.000000pt" height="256.000000pt" viewBox="0 0 256.000000 256.000000"
 preserveAspectRatio="xMidYMid meet">
<metadata>
Created by potrace 1.15, written by Peter Selinger 2001-2017
</metadata>
<g transform="translate(0.000000,256.000000) scale(0.100000,-0.100000)"
fill="#000000" stroke="none">
<path d="M1220 2069 c-66 -28 -100 -85 -100 -171 l0 -63 -109 -26 c-120 -30
-262 -92 -362 -159 -88 -60 -229 -199 -290 -287 -92 -134 -171 -331 -192 -485
l-6 -38 1119 0 1119 0 -6 38 c-21 154 -100 351 -192 485 -61 88 -202 227 -290
287 -100 67 -242 129 -362 159 l-109 26 0 66 c0 72 -20 113 -72 152 -31 23
-111 32 -148 16z m330 -470 c134 -39 291 -132 395 -236 97 -96 152 -184 195
-308 l19 -55 -138 0 -138 0 -12 43 c-43 145 -163 319 -330 479 -119 114 -119
114 9 77z"/>
<path d="M0 673 c0 -4 17 -58 37 -120 l37 -113 1206 0 1206 0 37 113 c20 62
37 116 37 120 0 4 -576 7 -1280 7 -704 0 -1280 -3 -1280 -7z"/>
</g>
</svg>
