<?xml version="1.0" standalone="no"?>
<!DOCTYPE svg PUBLIC "-//W3C//DTD SVG 20010904//EN"
 "http://www.w3.org/TR/2001/REC-SVG-20010904/DTD/svg10.dtd">
<svg version="1.0" xmlns="http://www.w3.org/2000/svg" viewBox="-30 -80 1050 1050">
<metadata>
Created by potrace 1.15, written by Peter Selinger 2001-2017
</metadata>
<g transform="translate(0.000000,836.000000) scale(0.100000,-0.100000)"
fill="#132F30" stroke="none">
<path d="M4140 7791 l0 -569 -47 -7 c-130 -19 -238 -97 -295 -213 l-33 -67 -3
-1187 -2 -1188 1479 0 1480 0 117 120 c65 66 123 120 128 120 6 0 65 -54 131
-120 l120 -120 265 0 265 0 -255 255 -254 254 114 118 c62 65 122 127 132 138
18 19 22 16 287 -249 l269 -268 201 -69 c110 -37 201 -66 201 -64 0 2 -30 91
-67 197 l-66 193 -269 274 c-254 260 -268 276 -251 291 10 9 71 68 136 130
l118 114 267 -266 267 -266 198 -65 c120 -40 197 -61 197 -54 0 7 -27 95 -61
197 l-61 185 -271 272 -272 273 130 130 c71 71 134 130 140 130 5 0 131 -121
280 -269 l270 -269 188 -62 c104 -34 190 -60 193 -57 3 2 -25 92 -61 199 l-66
195 -427 426 c-497 496 -478 482 -647 482 -176 0 -54 109 -1432 -1269 l-1213
-1211 0 1145 c0 1233 1 1211 -53 1302 -31 53 -110 129 -163 156 -22 11 -68 26
-102 32 l-62 13 0 188 0 189 190 0 190 0 -2 188 -3 187 -187 3 -188 2 -2 188
-3 187 -567 3 -568 2 0 -569z"/>
<path d="M1312 6747 c-292 -292 -532 -537 -532 -542 0 -6 368 -378 818 -828
l817 -817 535 0 535 0 -520 521 -520 521 268 262 c147 145 267 267 267 272 0
5 -255 264 -568 577 l-567 567 -533 -533z"/>
<path d="M1695 4169 c-298 -44 -583 -218 -757 -464 -28 -38 -72 -115 -100
-170 l-49 -100 -359 -360 c-421 -422 -415 -414 -415 -580 0 -90 3 -106 29
-160 93 -188 312 -270 500 -187 24 11 73 46 107 78 l64 59 6 -660 c5 -564 8
-670 22 -727 55 -224 139 -379 296 -541 171 -177 341 -275 576 -330 l90 -22
3130 -3 c2245 -2 3158 0 3228 8 142 16 237 44 362 104 272 133 487 371 583
646 59 170 62 209 62 913 l0 639 71 -67 c146 -137 304 -168 459 -90 61 31 145
122 178 192 23 49 27 71 27 148 0 156 4 150 -435 590 -363 363 -381 384 -419
460 -127 261 -376 480 -650 574 -174 60 107 55 -3371 57 -1778 1 -3201 -2
-3235 -7z"/>
</g>
</svg>
