<?xml version="1.0" standalone="no"?>
<!DOCTYPE svg PUBLIC "-//W3C//DTD SVG 20010904//EN"
 "http://www.w3.org/TR/2001/REC-SVG-20010904/DTD/svg10.dtd">
<svg version="1.0" xmlns="http://www.w3.org/2000/svg"
 width="200.000000pt" height="200.000000pt" viewBox="0 0 200.000000 200.000000"
 preserveAspectRatio="xMidYMid meet">
<metadata>
Created by potrace 1.15, written by Peter Selinger 2001-2017
</metadata>
<g transform="translate(0.000000,200.000000) scale(0.100000,-0.100000)"
fill="#000000" stroke="none">
<path d="M1231 1436 c-7 -8 -11 -25 -9 -38 3 -23 4 -23 142 -23 121 0 140 2
150 18 8 12 8 22 0 35 -10 14 -30 17 -141 20 -105 2 -132 0 -142 -12z"/>
<path d="M1230 1326 c-6 -8 -10 -25 -8 -38 3 -23 6 -23 137 -26 139 -3 161 3
161 39 0 31 -33 39 -158 39 -92 0 -122 -3 -132 -14z"/>
<path d="M862 1288 c-6 -6 -12 -20 -12 -29 0 -34 24 -40 155 -37 109 3 129 6
139 21 8 12 8 22 0 35 -10 14 -30 17 -140 20 -92 2 -133 -1 -142 -10z"/>
<path d="M1230 1216 c-6 -8 -10 -25 -8 -38 3 -23 6 -23 137 -26 139 -3 161 3
161 39 0 31 -33 39 -158 39 -92 0 -122 -3 -132 -14z"/>
<path d="M862 1178 c-6 -6 -12 -20 -12 -29 0 -34 24 -40 155 -37 109 3 129 6
139 21 8 12 8 22 0 35 -10 14 -30 17 -140 20 -92 2 -133 -1 -142 -10z"/>
<path d="M1232 1108 c-21 -21 -14 -58 14 -68 43 -17 226 -13 252 6 27 19 29
50 3 64 -28 15 -254 13 -269 -2z"/>
<path d="M664 1066 c-17 -8 -59 -34 -93 -60 -84 -61 -277 -154 -431 -207 -69
-23 -129 -46 -134 -50 -16 -14 43 -98 97 -138 63 -47 131 -81 219 -110 l66
-22 49 35 c66 47 127 72 226 92 70 14 116 16 317 9 380 -13 327 -20 470 64
126 74 393 207 464 232 48 17 86 52 86 78 0 11 -10 32 -23 47 -41 47 -100 44
-322 -19 l-189 -53 3 -46 c2 -39 -2 -51 -28 -80 -37 -42 -86 -58 -179 -58 -91
0 -274 20 -286 31 -6 5 76 9 191 9 l201 0 31 26 c51 42 36 121 -26 145 -14 5
-102 16 -197 25 -94 8 -219 26 -278 40 -119 27 -188 30 -234 10z"/>
</g>
</svg>
