<?xml version="1.0" standalone="no"?>
<!DOCTYPE svg PUBLIC "-//W3C//DTD SVG 20010904//EN"
 "http://www.w3.org/TR/2001/REC-SVG-20010904/DTD/svg10.dtd">
<svg version="1.0" xmlns="http://www.w3.org/2000/svg"
 width="200.000000pt" height="200.000000pt" viewBox="0 0 200.000000 200.000000"
 preserveAspectRatio="xMidYMid meet">
<metadata>
Created by potrace 1.15, written by Peter Selinger 2001-2017
</metadata>
<g transform="translate(0.000000,200.000000) scale(0.100000,-0.100000)"
fill="#000000" stroke="none">
<path d="M431 1824 c-51 -36 -95 -72 -98 -79 -8 -23 11 -44 97 -106 95 -68
133 -75 138 -26 l3 27 689 0 c613 0 690 2 704 16 19 19 22 134 4 152 -9 9
-179 12 -705 12 l-693 0 0 25 c0 20 -24 45 -43 45 -2 0 -45 -30 -96 -66z"/>
<path d="M896 1444 c-19 -20 -26 -37 -26 -65 l0 -39 -255 0 -255 0 -29 -27
c-16 -16 -91 -127 -167 -248 l-139 -219 0 -254 0 -254 28 -24 c24 -21 38 -24
101 -24 68 0 74 -2 80 -23 9 -36 72 -103 119 -126 51 -25 159 -29 211 -7 48
20 100 70 121 116 l18 40 289 0 288 0 10 -26 c58 -152 287 -196 406 -76 17 17
38 46 48 65 l16 35 85 3 c72 3 88 7 107 27 l23 23 3 535 3 535 -30 30 -29 29
-500 0 -499 0 -27 -26z m-287 -268 c8 -9 11 -61 9 -162 l-3 -149 -192 -3
c-143 -2 -193 1 -193 9 0 12 133 228 177 287 24 32 25 32 107 32 59 0 87 -4
95 -14z m-62 -740 c71 -77 16 -186 -93 -186 -51 0 -104 53 -104 104 0 116 120
166 197 82z m1031 24 c70 -43 75 -131 11 -185 -46 -38 -99 -35 -146 9 -32 29
-38 41 -38 75 0 64 54 121 115 121 14 0 40 -9 58 -20z"/>
</g>
</svg>
