<?xml version="1.0" standalone="no"?>
<!DOCTYPE svg PUBLIC "-//W3C//DTD SVG 20010904//EN"
 "http://www.w3.org/TR/2001/REC-SVG-20010904/DTD/svg10.dtd">
<svg version="1.0" xmlns="http://www.w3.org/2000/svg" viewBox="-35 -20 580 580">
<metadata>
Created by potrace 1.15, written by Peter Selinger 2001-2017
</metadata>
<g transform="translate(0.000000,512.000000) scale(0.100000,-0.100000)"
fill="#000000" stroke="none">
<path d="M1649 4746 c-85 -30 -148 -90 -175 -165 -9 -26 -13 -110 -14 -293 l0
-258 -230 0 -230 0 0 -1835 0 -1835 1560 0 1560 0 0 1835 0 1835 -229 0 -230
0 -3 268 c-3 304 -5 310 -91 389 -82 76 -42 73 -1016 73 -682 -1 -874 -4 -902
-14z m1631 -541 l0 -175 -725 0 -725 0 0 175 0 175 725 0 725 0 0 -175z m-388
-943 c23 -22 23 -24 26 -362 l3 -339 340 -3 341 -3 24 -29 25 -28 -3 -310 -3
-310 -24 -19 c-22 -18 -43 -19 -362 -19 l-339 0 0 -330 c0 -347 -4 -378 -45
-394 -9 -3 -155 -6 -325 -6 l-309 0 -20 26 c-20 26 -21 38 -21 365 l0 339
-340 0 -341 0 -24 25 -25 24 0 309 0 309 26 24 26 24 339 3 339 3 0 338 0 339
31 27 32 26 303 -3 c301 -3 304 -3 326 -26z"/>
<path d="M525 4019 c-240 -40 -466 -255 -514 -487 -8 -37 -11 -450 -11 -1340
0 -1412 -3 -1339 60 -1467 40 -81 116 -173 192 -230 114 -86 216 -121 386
-132 l102 -6 0 1836 0 1837 -82 -1 c-46 -1 -105 -5 -133 -10z"/>
<path d="M4380 2194 l0 -1837 104 7 c202 13 312 61 446 196 98 97 140 169 170
286 19 75 20 115 20 1349 0 1224 -1 1275 -19 1347 -37 144 -118 266 -235 355
-119 90 -253 133 -412 133 l-74 0 0 -1836z"/>
</g>
</svg>
