<?xml version="1.0" standalone="no"?>
<!DOCTYPE svg PUBLIC "-//W3C//DTD SVG 20010904//EN"
 "http://www.w3.org/TR/2001/REC-SVG-20010904/DTD/svg10.dtd">
<svg version="1.0" xmlns="http://www.w3.org/2000/svg"
 width="200.000000pt" height="200.000000pt" viewBox="0 0 200.000000 200.000000"
 preserveAspectRatio="xMidYMid meet">
<metadata>
Created by potrace 1.15, written by Peter Selinger 2001-2017
</metadata>
<g transform="translate(0.000000,200.000000) scale(0.100000,-0.100000)"
fill="#000000" stroke="none">
<path d="M1560 1909 c-14 -6 -57 -42 -97 -81 l-72 -72 -55 52 c-63 60 -92 65
-162 31 -82 -39 -86 -31 116 -234 206 -206 196 -202 241 -108 28 58 20 96 -31
148 l-40 41 69 67 c38 37 74 67 79 67 6 0 18 -7 26 -16 14 -14 16 -67 16 -440
l0 -424 -825 0 c-543 0 -825 -3 -825 -10 0 -25 142 -546 159 -586 25 -55 64
-74 151 -74 69 0 67 6 45 -107 -8 -43 -15 -79 -15 -80 0 -2 25 -3 55 -3 l54 0
10 38 c5 20 15 63 21 95 l11 57 509 0 509 0 11 -57 c6 -32 16 -75 21 -95 l10
-38 55 0 c51 0 54 1 49 23 -9 40 -25 140 -25 154 0 9 17 13 60 13 85 0 122 18
148 71 18 38 162 561 162 589 0 6 -52 10 -130 10 l-130 0 0 443 c0 426 -1 443
-20 475 -32 52 -101 74 -160 51z"/>
</g>
</svg>
