<svg xmlns="http://www.w3.org/2000/svg" viewBox="0 0 1080 1080"><defs><style>.a{fill:#111;}</style></defs><title>ico-wash</title><path class="a" d="M344.1,682.1c-3.1-7-10.1-10.9-17.8-10.9s-14.8,3.9-17.9,10.9c0,0-40.4,79.2-49.7,97.9-10.9,22.5-10.9,46.6,0,68.3,13.2,25.7,38.8,42,68.3,42a76,76,0,0,0,34.2-8.6c17.9-9.3,31.1-24.8,38.1-44.3a79.6,79.6,0,0,0-3.9-58.2Z"/><path class="a" d="M821.8,340.7h-101a126.8,126.8,0,0,0-69.1-50.5V241.3h42a35,35,0,0,0,0-69.9H540.6a35,35,0,0,0,0,69.9h42v48.9a126.5,126.5,0,0,0-69.1,50.5H493.3c-121.2,0-221.4,89.3-237.7,205.8H230.7A19.3,19.3,0,0,0,211.3,566v31a19.2,19.2,0,0,0,19.4,19.4H415.6A19.2,19.2,0,0,0,435,597V566a19.3,19.3,0,0,0-19.4-19.5H399.3a101.4,101.4,0,0,1,93.2-66h21.7A125.8,125.8,0,0,0,537,506V874a12,12,0,0,0,12,12H682a12,12,0,0,0,12-12V510.5a128.5,128.5,0,0,0,28.4-30H822.6A19.2,19.2,0,0,0,842,461.1v-101C840.4,349.3,831.9,340.7,821.8,340.7Z"/></svg>