<svg xmlns="http://www.w3.org/2000/svg" viewBox="0 0 1080 1080">
    <defs>
        <style>.a{fill:#132F30;fill-rule:evenodd;}</style>
    </defs>
    <title>ico-disabled</title>
    <path class="a" d="M813.9,475.8H637.4L747.5,365.7v-.5a50.3,50.3,0,0,0,9.5-30,44.3,44.3,0,0,0-.2-5.2A88,88,0,1,0,698,247a85.9,85.9,0,0,0,4.1,26.5L506.4,161v.4a50.7,50.7,0,0,0-20.9-4.5c-13.1,0-24.3,4.2-33.7,12.7L348.5,272.9c-9.1,10-13.6,21.5-13.6,34.6a51.2,51.2,0,0,0,14.5,36.3c9.7,9.8,21.6,14.6,35.5,14.6s25.7-4.7,35.1-14.1l1.3-.5,72.8-72.7L556,306.5,416.8,445.8q-63.3,15.9-112.4,65-73.2,73.6-73.2,177t73.2,176.9q73.2,73.6,177,73.7t176.9-73.7Q732,792,732,687.8q0-60.1-24.6-110.6h56.5v207a51.4,51.4,0,0,0,14.5,36.4c9.7,9.7,21.6,14.5,35.5,14.5s26.2-4.8,35.9-14.5,15-21.9,15-36.4V526.3q0-20.5-15-36C840.1,480.6,828.1,475.8,813.9,475.8ZM619.2,781a245,245,0,0,1-18.7,20.9,211.1,211.1,0,0,1-21.3,18.7q-42.3,30.9-96.5,30.9-69.6,0-119.2-49.6T314.4,684.1q0-55.1,30.9-97.3a167.9,167.9,0,0,1,18.2-21.9,237.5,237.5,0,0,1,21.4-18.2q42.3-30.9,97.8-30.9,68.3,0,117.4,48.7l.4.4q49.7,49.6,49.6,119.2Q650.1,738.7,619.2,781Z"/>
</svg>
