<svg xmlns="http://www.w3.org/2000/svg" viewBox="0 0 1080 1080"><defs><style>.a{fill:#111;}.a,.c{fill-rule:evenodd;}.b,.c{fill:#fff;}</style></defs><title>ico-single-parent</title><path class="a" d="M655.2,469.3a156.9,156.9,0,1,0-82.6,0C440.3,489.4,338,604.4,338,742.1v181H889.8v-181C889.8,604.4,787.5,489.4,655.2,469.3Z"/><circle class="b" cx="315" cy="577" r="143"/><path class="c" d="M520,966V810c0-87.4-71.6-159-159-159H256c-87.4,0-159,71.6-159,159V966Z"/><path class="a" d="M339.8,668.8a92.5,92.5,0,1,0-48.7,0c-78,11.8-138.3,79.6-138.3,160.8V922H478.1V829.6C478.1,748.4,417.8,680.6,339.8,668.8Z"/><circle class="b" cx="808.7" cy="642.8" r="118.8"/><path class="c" d="M979,966V836.4c0-72.7-59.5-132.1-132.1-132.1H759.7c-72.7,0-132.1,59.4-132.1,132.1V966Z"/><path class="a" d="M829.3,719.1a76.9,76.9,0,1,0-40.5,0c-64.8,9.8-114.9,66.1-114.9,133.6v76.7H944.2V852.7C944.2,785.2,894.1,728.9,829.3,719.1Z"/></svg>